<svg width="149" height="148" viewBox="0 0 149 148" fill="none" xmlns="http://www.w3.org/2000/svg">
<rect x="0.5" width="148" height="148" rx="74" fill="#462683"/>
<path d="M16.982 55.3334L17.1538 54.7704C17.7924 52.6725 15.1654 52.9556 14.377 51.4449L15.5053 47.7422C16.519 50.0404 18.684 49.3015 19.0371 51.895C20.74 49.609 22.3454 51.5477 25.322 50.3645L24.1941 54.0672C22.4464 54.9174 20.0495 53.159 19.3767 55.3676L19.1847 55.9993L23.2339 57.2213L22.2132 60.5688L18.1653 59.3446L17.9777 59.9619C17.2961 62.198 20.2736 62.0497 21.253 63.7232L20.1251 67.4259C18.3774 64.9207 15.7926 65.4571 15.7571 62.6601C14.2408 64.6289 12.703 62.8162 10.5 64.1721L11.6283 60.4694C13.0861 59.8311 15.1645 61.2989 15.7873 59.2549L15.9626 58.6787L12.4931 57.6304L13.5122 54.2839L16.982 55.3334Z" fill="white"/>
<path d="M22.9147 41.2645L25.1706 44.0979L26.4509 42.1238L22.9147 41.2645ZM30.4368 43.1345L28.7502 42.6978L26.6429 45.9494L27.7365 47.2996L25.5671 50.6474L19.4141 41.4868L21.6612 38.0195L32.5829 39.8225L30.4368 43.1345Z" fill="white"/>
<path d="M45.2534 20.5627L45.8828 24.1224L47.9512 22.9936L45.2534 20.5627ZM50.9725 25.7714L49.6979 24.5883L46.2926 26.4473L46.6079 28.1537L43.1016 30.0669L42.0703 19.0971L45.7019 17.1152L54.4407 23.8782L50.9725 25.7714Z" fill="white"/>
<path d="M63.9333 13.9822L63.3948 17.5588L65.7174 17.1431L63.9333 13.9822ZM67.697 20.7352L66.8668 19.2091L63.042 19.8947L62.7965 21.6133L58.8594 22.3189L61.3797 11.5846L65.4587 10.8535L71.592 20.0361L67.697 20.7352Z" fill="white"/>
<path d="M77.517 13.4074C77.3128 16.411 76.824 17.0248 76.2969 17.5634C76.2667 17.59 76.249 17.632 76.2336 17.6452L76.1867 17.6863L80.8399 18.0004L81.1763 13.0512L77.558 12.8058L77.517 13.4074ZM84.4871 18.2459L86.1105 18.3553L85.7885 23.0756L82.3288 22.842L82.4742 20.6955L74.7636 20.1767L74.6169 22.3213L71.1562 22.089L71.4773 17.3687C73.3014 17.4916 73.9176 15.42 74.1961 11.3292L74.2861 10L84.9979 10.721L84.4871 18.2459Z" fill="white"/>
<path d="M94.2566 16.0589L92.0771 18.9534L94.3198 19.6842L94.2566 16.0589ZM94.351 23.7828L94.3466 22.0467L90.654 20.8422L89.6192 22.2392L85.8164 20.998L93.1519 12.7412L97.09 14.0262L98.1125 25.0095L94.351 23.7828Z" fill="white"/>
<path d="M107.764 31.0587L111.297 25.623L105.748 29.758L103.394 28.2394L104.907 21.5353L101.389 26.9478L98.3945 25.0157L103.914 16.5254L107.958 19.1343L106.504 26.0641L112.257 21.9059L116.29 24.5069L110.771 32.9973L107.764 31.0587Z" fill="white"/>
<path d="M120.265 33.1511C117.988 35.1308 117.207 35.2192 116.452 35.2292C116.412 35.227 116.37 35.2446 116.35 35.2424L116.289 35.2393L119.354 38.7373L123.103 35.4769L120.72 32.7564L120.265 33.1511ZM121.755 41.4788L122.825 42.6998L119.247 45.8088L116.968 43.2064L118.595 41.7929L113.515 35.9957L111.889 37.409L109.609 34.8079L113.186 31.698C114.387 33.0683 116.292 32.0397 119.392 29.3446L120.4 28.4688L127.458 36.523L121.755 41.4788Z" fill="white"/>
<path d="M130.195 46.7796L126.603 47.2959L127.67 49.3907L130.195 46.7796ZM124.789 52.3124L126.016 51.0807L124.257 47.6323L122.534 47.8922L120.723 44.3421L131.763 43.6553L133.639 47.3335L126.581 55.8251L124.789 52.3124Z" fill="white"/>
<path d="M133.167 58.2946L133.754 60.585C133.857 60.9875 133.907 61.1822 134.013 61.3625C134.235 61.7641 134.634 61.929 135.093 61.8117C135.344 61.7484 135.49 61.6224 135.563 61.5594C135.92 61.2176 135.853 60.7753 135.746 60.3596L135.091 57.8037L133.167 58.2946ZM138.148 60.4581C138.546 62.0139 138.86 63.4717 137.606 64.5444C137.325 64.7789 136.872 65.1018 136.05 65.3106C135.576 65.4313 134.252 65.7088 133.151 64.7169C132.267 63.9359 131.905 62.5792 131.63 61.5095L130.951 58.8576L127.479 59.7401L126.582 56.2422L136.423 53.7383L138.148 60.4581Z" fill="white"/>
<path d="M44.2469 32.4453L41.5868 29.7069L40.5476 30.7079L34.2523 24.2061L31.602 26.7532L34.168 29.4028L30.9792 32.4663L28.4136 29.8154L25.7734 32.3512L32.8235 39.6328L35.4526 37.107L32.747 34.3122L35.9455 31.2387L38.6524 34.0322L39.7171 33.0093L41.6256 34.9733L44.2469 32.4453Z" fill="white"/>
<path d="M18.7444 105.349L22.1915 103.533L20.1121 99.6189L16.666 101.435L14.957 98.2163L23.936 93.4863L25.6512 96.7169L22.3825 98.4389L24.4543 102.341L27.723 100.619L29.4448 103.861L20.4662 108.591L18.7444 105.349Z" fill="white"/>
<path d="M32.6798 110.54C31.2875 108.973 29.5056 109.281 28.2665 110.375C27.243 111.277 26.3624 113.011 27.9168 114.759C29.6056 116.66 31.4342 115.602 32.2735 114.861C33.1041 114.13 34.312 112.375 32.6798 110.54ZM30.0343 118.827C28.4887 118.429 27.3529 117.498 26.1604 116.156C24.7294 114.546 24.2375 113.257 24.0398 112.322C23.547 109.885 24.9569 108.315 25.6685 107.689C27.5861 105.997 29.4546 106.11 30.4783 106.375C31.4921 106.631 32.8076 107.289 34.3154 108.984C36.6991 111.666 36.8222 113.492 36.4703 114.912C36.3236 115.482 35.9287 116.615 34.7762 117.633C34.0967 118.23 32.4435 119.44 30.0343 118.827Z" fill="white"/>
<path d="M42.6743 121.824C43.1338 122.144 43.6156 122.235 43.9612 121.74C44.274 121.294 44.1 120.893 43.6392 120.573L40.6314 118.481L39.7244 119.773L42.6743 121.824ZM37.4273 123L40.5779 125.192C41.1554 125.593 41.6772 125.676 42.0804 125.1C42.55 124.43 42.0036 124.033 41.8028 123.893L38.4407 121.554L37.4273 123ZM46.0229 119.451C47.2497 120.305 48.3487 121.54 47.2119 123.163C46.5768 124.067 45.6798 124.422 44.3096 123.923C44.7703 124.367 45.1845 124.777 45.351 125.416C45.5577 126.173 45.3211 126.76 44.8937 127.372C44.7206 127.618 44.2718 128.232 43.3959 128.481C41.9869 128.863 40.5848 128.011 39.5233 127.272L33.1172 122.817L38.9316 114.521L46.0229 119.451Z" fill="white"/>
<path d="M57.7754 135.629L61.1517 126.085L64.5989 127.294L61.2226 136.838L57.7754 135.629ZM49.8949 130.431L52.7859 131.446C53.6542 131.751 54.0104 131.435 54.2493 130.759C54.4356 130.231 54.096 129.641 53.5396 129.446L50.6074 128.417L49.8949 130.431ZM52.5061 123.051L51.3725 126.254L54.7522 127.44C57.3578 128.355 58.5235 129.63 57.6867 131.996C56.8505 134.362 54.9385 134.633 52.7947 133.881L45.6836 131.384L49.0586 121.841L52.5061 123.051Z" fill="white"/>
<path d="M64.6172 137.14L65.4244 127.051L76.1117 127.899L75.9317 130.157L68.8728 129.597L68.7406 131.254L75.2679 131.773L75.0857 134.045L68.5584 133.526L68.4297 135.142L75.6176 135.713L75.4344 138L64.6172 137.14Z" fill="white"/>
<path d="M92.4979 135.416L90.7493 128.085L87.1112 128.946L87.2644 129.587C88.4544 134.576 88.0626 136.466 83.9769 137.433L83.3339 137.585L82.7344 135.077L83.1819 134.97C84.5531 134.646 84.8027 134.145 83.7437 129.699L83.1551 127.231L93.7039 124.735L96.052 134.576L92.4979 135.416Z" fill="white"/>
<path d="M105.646 120.696C103.827 121.741 104.001 123.362 104.827 124.79C105.51 125.97 106.761 127.271 108.793 126.104C111 124.836 110.106 123.033 109.544 122.065C108.991 121.108 107.779 119.472 105.646 120.696ZM112.997 125.045C112.296 126.474 111.402 127.253 109.843 128.147C107.972 129.222 106.855 129.3 105.896 129.306C104.135 129.307 102.944 128.254 102.269 127.401L100.686 128.309L102.697 131.787L99.5309 133.605L94.457 124.838L97.6234 123.019L99.5353 126.323L101.181 125.378C100.689 123.84 100.976 122.584 101.336 121.831C101.79 120.891 102.452 119.883 104.423 118.751C107.539 116.962 109.11 117.351 110.436 117.98C110.968 118.236 112.004 118.85 112.773 120.178C113.225 120.961 114.083 122.818 112.997 125.045Z" fill="white"/>
<path d="M115.754 114.052C117.947 116.124 118.11 116.891 118.191 117.64C118.192 117.679 118.213 117.72 118.213 117.74L118.215 117.801L121.425 114.43L117.811 111.016L115.314 113.637L115.754 114.052ZM123.941 111.787L125.061 110.611L128.507 113.868L126.12 116.376L124.554 114.895L119.234 120.482L120.8 121.961L118.414 124.47L114.967 121.213C116.225 119.891 115.016 118.098 112.029 115.276L111.059 114.358L118.447 106.597L123.941 111.787Z" fill="white"/>
<path d="M119.664 105.067L121.446 101.889L126.207 104.538L125.002 98.2216L123.86 97.5858L125.642 94.4082L134.508 99.342L132.726 102.519L127.979 99.8771L129.183 106.194L130.313 106.824L128.532 110.001L119.664 105.067Z" fill="white"/>
<path d="M80.6683 75.3785C81.0082 78.8012 78.4989 81.8515 75.0616 82.191C71.6255 82.5305 68.5632 80.0301 68.2224 76.6071C67.8815 73.1831 70.3918 70.1331 73.8282 69.7936C77.2643 69.454 80.3275 71.9545 80.6683 75.3785Z" fill="#FAB748"/>
<path d="M72.5436 57.5407L65.4102 47.1527L70.3566 35.5713L77.4897 45.9593L72.5436 57.5407Z" fill="#FAB748"/>
<path d="M62.5107 43.3516L57.7188 40.9152L58.3161 32.3398L64.4736 38.3618L62.5107 43.3516Z" fill="#FAB748"/>
<path d="M47.8419 53.5331L42.4671 53.7817L38.7188 46.0391L47.0636 48.2301L47.8419 53.5331Z" fill="#FAB748"/>
<path d="M40.0803 70.0728L35.5748 73.0024L28.4023 68.2225L36.7094 65.8945L40.0803 70.0728Z" fill="#FAB748"/>
<path d="M77.5742 37.0678L82.4247 29.959L84.7007 38.2512L80.4819 41.5777L77.5742 37.0678Z" fill="#FAB748"/>
<path d="M96.5938 43.3387L104.345 39.5586L102.195 47.8841L96.8757 48.6901L96.5938 43.3387Z" fill="#FAB748"/>
<path d="M110.224 58.6357L118.827 59.2925L112.737 65.3818L107.742 63.3912L110.224 58.6357Z" fill="#FAB748"/>
<path d="M82.029 59.0522L81.043 46.5053L91.1275 38.9209L92.1135 51.4688L82.029 59.0522Z" fill="#FAB748"/>
<path d="M89.5469 65.1423L95.0227 53.7998L107.566 52.2891L102.09 63.6316L89.5469 65.1423Z" fill="#FAB748"/>
<path d="M92.9766 74.1637L103.43 67.0947L115.04 72.0627L104.585 79.1317L92.9766 74.1637Z" fill="#FAB748"/>
<path d="M82.029 59.0522L81.043 46.5053L91.1275 38.9209L92.1135 51.4688L82.029 59.0522Z" fill="#FAB748"/>
<path d="M89.5469 65.1423L95.0227 53.7998L107.566 52.2891L102.09 63.6316L89.5469 65.1423Z" fill="#FAB748"/>
<path d="M92.9766 74.1637L103.43 67.0947L115.04 72.0627L104.585 79.1317L92.9766 74.1637Z" fill="#FAB748"/>
<path d="M52.5613 55.3751L51.0547 42.8779L62.4372 48.3424L63.9437 60.8383L52.5613 55.3751Z" fill="#FAB748"/>
<path d="M45.1758 69.2513L37.5703 59.2003L50.1686 58.2285L57.7728 68.2791L45.1758 69.2513Z" fill="#FAB748"/>
<path d="M45.7879 84.9392L34.1445 80.0512L44.5488 72.9102L56.1922 77.7972L45.7879 84.9392Z" fill="#FAB748"/>
<path d="M68.8711 67.3511L67.6953 57.5801L73.016 65.8714L68.8711 67.3511Z" fill="#FAB748"/>
<path d="M74.0117 65.7499L77.8333 56.6758L78.3495 66.5029L74.0117 65.7499Z" fill="#FAB748"/>
<path d="M79.3398 66.9213L87.2047 60.9658L82.7193 69.7337L79.3398 66.9213Z" fill="#FAB748"/>
<path d="M83.3672 70.5897L93.1676 69.3477L84.8826 74.7068L83.3672 70.5897Z" fill="#FAB748"/>
<path d="M65.2166 71.2272L59.3867 63.2832L68.1035 67.9148L65.2166 71.2272Z" fill="#FAB748"/>
<path d="M63.9416 76.4246L54.9375 72.3736L64.8144 72.126L63.9416 76.4246Z" fill="#FAB748"/>
<path d="M60.3355 78.9239L68.1893 95.0231L57.582 118.599L74.9653 102.31L83.0359 118.599V93.029L89.5465 76.1602L74.9653 88.3444L60.3355 78.9239Z" fill="#FAB748"/>
</svg>
