<svg width="190" height="52" viewBox="0 0 190 52" fill="none" xmlns="http://www.w3.org/2000/svg">
<path d="M30.0904 26.7597C30.2838 28.7566 28.8563 30.5361 26.9007 30.7342C24.9459 30.9323 23.2037 29.4735 23.0098 27.4765C22.8159 25.4789 24.244 23.6995 26.199 23.5014C28.1539 23.3033 29.8965 24.7621 30.0904 26.7597Z" fill="#462683"/>
<path d="M25.3843 16.2147L21.3438 10.1339L24.1455 3.35449L28.1859 9.43529L25.3843 16.2147Z" fill="#462683"/>
<path d="M19.6869 7.82757L16.9688 6.40484L17.3076 1.39746L20.8003 4.91383L19.6869 7.82757Z" fill="#462683"/>
<path d="M11.2234 13.8354L8.15991 13.979L6.02344 9.50586L10.7798 10.7717L11.2234 13.8354Z" fill="#462683"/>
<path d="M6.8421 23.4329L4.20233 25.1613L0 22.3413L4.86707 20.9678L6.8421 23.4329Z" fill="#462683"/>
<path d="M28.1875 4.10526L30.9816 0L32.2928 4.78868L29.8625 6.70968L28.1875 4.10526Z" fill="#462683"/>
<path d="M39.1406 7.79071L43.7933 5.5918L42.503 10.4348L39.3099 10.9036L39.1406 7.79071Z" fill="#462683"/>
<path d="M47.1123 16.7744L51.9979 17.1555L48.5397 20.6884L45.7031 19.5334L47.1123 16.7744Z" fill="#462683"/>
<path d="M30.9435 17.0535L30.3828 9.73523L36.1169 5.31152L36.6775 12.6303L30.9435 17.0535Z" fill="#462683"/>
<path d="M35.3047 20.688L38.3819 14.0269L45.431 13.1396L42.3538 19.8008L35.3047 20.688Z" fill="#462683"/>
<path d="M37.2188 25.9113L43.1834 21.8066L49.8082 24.6913L43.8428 28.7959L37.2188 25.9113Z" fill="#462683"/>
<path d="M30.9435 17.0535L30.3828 9.73523L36.1169 5.31152L36.6775 12.6303L30.9435 17.0535Z" fill="#462683"/>
<path d="M35.3047 20.688L38.3819 14.0269L45.431 13.1396L42.3538 19.8008L35.3047 20.688Z" fill="#462683"/>
<path d="M37.2188 25.9113L43.1834 21.8066L49.8082 24.6913L43.8428 28.7959L37.2188 25.9113Z" fill="#462683"/>
<path d="M14.0044 14.9409L13.1406 7.54883L19.6664 10.7811L20.5301 18.1725L14.0044 14.9409Z" fill="#462683"/>
<path d="M9.80393 23.2038L5.47656 17.0857L12.6447 16.4941L16.9713 22.6121L9.80393 23.2038Z" fill="#462683"/>
<path d="M10.0743 32.1504L3.28125 29.3103L9.35138 25.1611L16.1444 28.0007L10.0743 32.1504Z" fill="#462683"/>
<path d="M23.384 22.0858L22.7188 16.2148L25.7293 21.1967L23.384 22.0858Z" fill="#462683"/>
<path d="M26.2734 21.0774L28.4435 15.6562L28.7366 21.5272L26.2734 21.0774Z" fill="#462683"/>
<path d="M29.2812 21.7799L33.9339 18.1719L31.2804 23.4837L29.2812 21.7799Z" fill="#462683"/>
<path d="M31.75 23.9168L37.2237 23.2041L32.5964 26.2794L31.75 23.9168Z" fill="#462683"/>
<path d="M21.2669 24.323L17.7891 19.5703L22.9891 22.3413L21.2669 24.323Z" fill="#462683"/>
<path d="M20.5676 27.398L15.3281 25.0268L21.0755 24.8818L20.5676 27.398Z" fill="#462683"/>
<path d="M18.5483 28.7385L23.0538 38.1773L16.9688 51.9999L26.9409 42.4495L31.5707 51.9999V37.0082L35.3056 27.1182L26.9409 34.2617L18.5483 28.7385Z" fill="#462683"/>
<path d="M76.064 24L73.056 18.608L75.248 17.344L79.056 24H76.064ZM71.152 19.488V17.328H74.64V19.488H71.152ZM75.392 18.688L72.992 18.4L76.112 12.8H78.848L75.392 18.688ZM65.2 24H62.208L66.016 17.344L68.208 18.608L65.2 24ZM71.92 24H69.376V12.8H71.92V24ZM70.128 19.488H66.624V17.328H70.128V19.488ZM65.888 18.688L62.416 12.8H65.152L68.256 18.4L65.888 18.688ZM85.3364 24V22.32L85.1764 21.952V18.944C85.1764 18.4107 85.011 17.9947 84.6804 17.696C84.3604 17.3973 83.8644 17.248 83.1924 17.248C82.7337 17.248 82.2804 17.3227 81.8324 17.472C81.395 17.6107 81.0217 17.8027 80.7124 18.048L79.8164 16.304C80.2857 15.9733 80.851 15.7173 81.5124 15.536C82.1737 15.3547 82.8457 15.264 83.5284 15.264C84.8404 15.264 85.859 15.5733 86.5844 16.192C87.3097 16.8107 87.6724 17.776 87.6724 19.088V24H85.3364ZM82.7124 24.128C82.0404 24.128 81.4644 24.016 80.9844 23.792C80.5044 23.5573 80.1364 23.2427 79.8804 22.848C79.6244 22.4533 79.4964 22.0107 79.4964 21.52C79.4964 21.008 79.619 20.56 79.8644 20.176C80.1204 19.792 80.5204 19.4933 81.0644 19.28C81.6084 19.056 82.3177 18.944 83.1924 18.944H85.4804V20.4H83.4644C82.8777 20.4 82.4724 20.496 82.2484 20.688C82.035 20.88 81.9284 21.12 81.9284 21.408C81.9284 21.728 82.051 21.984 82.2964 22.176C82.5524 22.3573 82.899 22.448 83.3364 22.448C83.7524 22.448 84.1257 22.352 84.4564 22.16C84.787 21.9573 85.027 21.664 85.1764 21.28L85.5604 22.432C85.379 22.9867 85.0484 23.408 84.5684 23.696C84.0884 23.984 83.4697 24.128 82.7124 24.128ZM89.8406 24V15.392H92.3206V18.752H96.0646V15.392H98.5606V24H96.0646V20.784H92.3206V24H89.8406ZM97.4886 25.712V23.424L98.0486 24H96.0646V21.952H99.8086V25.712H97.4886ZM106.524 24V22.32L106.364 21.952V18.944C106.364 18.4107 106.199 17.9947 105.868 17.696C105.548 17.3973 105.052 17.248 104.38 17.248C103.921 17.248 103.468 17.3227 103.02 17.472C102.583 17.6107 102.209 17.8027 101.9 18.048L101.004 16.304C101.473 15.9733 102.039 15.7173 102.7 15.536C103.361 15.3547 104.033 15.264 104.716 15.264C106.028 15.264 107.047 15.5733 107.772 16.192C108.497 16.8107 108.86 17.776 108.86 19.088V24H106.524ZM103.9 24.128C103.228 24.128 102.652 24.016 102.172 23.792C101.692 23.5573 101.324 23.2427 101.068 22.848C100.812 22.4533 100.684 22.0107 100.684 21.52C100.684 21.008 100.807 20.56 101.052 20.176C101.308 19.792 101.708 19.4933 102.252 19.28C102.796 19.056 103.505 18.944 104.38 18.944H106.668V20.4H104.652C104.065 20.4 103.66 20.496 103.436 20.688C103.223 20.88 103.116 21.12 103.116 21.408C103.116 21.728 103.239 21.984 103.484 22.176C103.74 22.3573 104.087 22.448 104.524 22.448C104.94 22.448 105.313 22.352 105.644 22.16C105.975 21.9573 106.215 21.664 106.364 21.28L106.748 22.432C106.567 22.9867 106.236 23.408 105.756 23.696C105.276 23.984 104.657 24.128 103.9 24.128ZM120.711 24V22.32L120.551 21.952V18.944C120.551 18.4107 120.386 17.9947 120.055 17.696C119.735 17.3973 119.239 17.248 118.567 17.248C118.109 17.248 117.655 17.3227 117.207 17.472C116.77 17.6107 116.397 17.8027 116.087 18.048L115.191 16.304C115.661 15.9733 116.226 15.7173 116.887 15.536C117.549 15.3547 118.221 15.264 118.903 15.264C120.215 15.264 121.234 15.5733 121.959 16.192C122.685 16.8107 123.047 17.776 123.047 19.088V24H120.711ZM118.087 24.128C117.415 24.128 116.839 24.016 116.359 23.792C115.879 23.5573 115.511 23.2427 115.255 22.848C114.999 22.4533 114.871 22.0107 114.871 21.52C114.871 21.008 114.994 20.56 115.239 20.176C115.495 19.792 115.895 19.4933 116.439 19.28C116.983 19.056 117.693 18.944 118.567 18.944H120.855V20.4H118.839C118.253 20.4 117.847 20.496 117.623 20.688C117.41 20.88 117.303 21.12 117.303 21.408C117.303 21.728 117.426 21.984 117.671 22.176C117.927 22.3573 118.274 22.448 118.711 22.448C119.127 22.448 119.501 22.352 119.831 22.16C120.162 21.9573 120.402 21.664 120.551 21.28L120.935 22.432C120.754 22.9867 120.423 23.408 119.943 23.696C119.463 23.984 118.845 24.128 118.087 24.128ZM131.136 22.88V17.44H128.32L128.272 18.544C128.25 19.0027 128.224 19.44 128.192 19.856C128.16 20.272 128.096 20.6507 128 20.992C127.914 21.3227 127.786 21.6053 127.616 21.84C127.445 22.064 127.216 22.2187 126.928 22.304L124.464 21.952C124.773 21.952 125.024 21.8613 125.216 21.68C125.408 21.488 125.557 21.2267 125.664 20.896C125.77 20.5547 125.85 20.1707 125.904 19.744C125.957 19.3067 125.994 18.848 126.016 18.368L126.128 15.392H133.632V22.88H131.136ZM124.176 25.856V21.952H134.864V25.856H132.544V24H126.496V25.856H124.176ZM141.586 24V22.32L141.426 21.952V18.944C141.426 18.4107 141.261 17.9947 140.93 17.696C140.61 17.3973 140.114 17.248 139.442 17.248C138.984 17.248 138.53 17.3227 138.082 17.472C137.645 17.6107 137.272 17.8027 136.962 18.048L136.066 16.304C136.536 15.9733 137.101 15.7173 137.762 15.536C138.424 15.3547 139.096 15.264 139.778 15.264C141.09 15.264 142.109 15.5733 142.834 16.192C143.56 16.8107 143.922 17.776 143.922 19.088V24H141.586ZM138.962 24.128C138.29 24.128 137.714 24.016 137.234 23.792C136.754 23.5573 136.386 23.2427 136.13 22.848C135.874 22.4533 135.746 22.0107 135.746 21.52C135.746 21.008 135.869 20.56 136.114 20.176C136.37 19.792 136.77 19.4933 137.314 19.28C137.858 19.056 138.568 18.944 139.442 18.944H141.73V20.4H139.714C139.128 20.4 138.722 20.496 138.498 20.688C138.285 20.88 138.178 21.12 138.178 21.408C138.178 21.728 138.301 21.984 138.546 22.176C138.802 22.3573 139.149 22.448 139.586 22.448C140.002 22.448 140.376 22.352 140.706 22.16C141.037 21.9573 141.277 21.664 141.426 21.28L141.81 22.432C141.629 22.9867 141.298 23.408 140.818 23.696C140.338 23.984 139.72 24.128 138.962 24.128ZM146.091 24V15.392H148.699L151.947 21.28H150.907L154.379 15.392H156.715L156.747 24H154.491V17.952L154.875 18.208L151.915 23.168H150.859L147.883 18.032L148.347 17.92V24H146.091ZM165.058 22.88V17.44H162.242L162.194 18.544C162.172 19.0027 162.146 19.44 162.114 19.856C162.082 20.272 162.018 20.6507 161.922 20.992C161.836 21.3227 161.708 21.6053 161.538 21.84C161.367 22.064 161.138 22.2187 160.85 22.304L158.386 21.952C158.695 21.952 158.946 21.8613 159.138 21.68C159.33 21.488 159.479 21.2267 159.586 20.896C159.692 20.5547 159.772 20.1707 159.826 19.744C159.879 19.3067 159.916 18.848 159.938 18.368L160.049 15.392H167.554V22.88H165.058ZM158.098 25.856V21.952H168.786V25.856H166.466V24H160.418V25.856H158.098ZM175.508 24V22.32L175.348 21.952V18.944C175.348 18.4107 175.183 17.9947 174.852 17.696C174.532 17.3973 174.036 17.248 173.364 17.248C172.906 17.248 172.452 17.3227 172.004 17.472C171.567 17.6107 171.194 17.8027 170.884 18.048L169.988 16.304C170.458 15.9733 171.023 15.7173 171.684 15.536C172.346 15.3547 173.018 15.264 173.7 15.264C175.012 15.264 176.031 15.5733 176.756 16.192C177.482 16.8107 177.844 17.776 177.844 19.088V24H175.508ZM172.884 24.128C172.212 24.128 171.636 24.016 171.156 23.792C170.676 23.5573 170.308 23.2427 170.052 22.848C169.796 22.4533 169.668 22.0107 169.668 21.52C169.668 21.008 169.791 20.56 170.036 20.176C170.292 19.792 170.692 19.4933 171.236 19.28C171.78 19.056 172.49 18.944 173.364 18.944H175.652V20.4H173.636C173.05 20.4 172.644 20.496 172.42 20.688C172.207 20.88 172.1 21.12 172.1 21.408C172.1 21.728 172.223 21.984 172.468 22.176C172.724 22.3573 173.071 22.448 173.508 22.448C173.924 22.448 174.298 22.352 174.628 22.16C174.959 21.9573 175.199 21.664 175.348 21.28L175.732 22.432C175.551 22.9867 175.22 23.408 174.74 23.696C174.26 23.984 173.642 24.128 172.884 24.128ZM185.085 24.128C184.359 24.128 183.725 23.968 183.181 23.648C182.637 23.328 182.21 22.8427 181.901 22.192C181.602 21.5307 181.453 20.6987 181.453 19.696C181.453 18.6827 181.597 17.8507 181.885 17.2C182.173 16.5493 182.589 16.064 183.133 15.744C183.677 15.424 184.327 15.264 185.085 15.264C185.895 15.264 186.621 15.4507 187.26 15.824C187.911 16.1867 188.423 16.6987 188.797 17.36C189.181 18.0213 189.373 18.8 189.373 19.696C189.373 20.6027 189.181 21.3867 188.797 22.048C188.423 22.7093 187.911 23.2213 187.26 23.584C186.621 23.9467 185.895 24.128 185.085 24.128ZM179.997 27.104V15.392H182.381V17.152L182.333 19.712L182.493 22.256V27.104H179.997ZM184.653 22.08C185.069 22.08 185.437 21.984 185.757 21.792C186.087 21.6 186.349 21.328 186.541 20.976C186.743 20.6133 186.845 20.1867 186.845 19.696C186.845 19.1947 186.743 18.768 186.541 18.416C186.349 18.064 186.087 17.792 185.757 17.6C185.437 17.408 185.069 17.312 184.653 17.312C184.237 17.312 183.863 17.408 183.533 17.6C183.202 17.792 182.941 18.064 182.749 18.416C182.557 18.768 182.461 19.1947 182.461 19.696C182.461 20.1867 182.557 20.6133 182.749 20.976C182.941 21.328 183.202 21.6 183.533 21.792C183.863 21.984 184.237 22.08 184.653 22.08Z" fill="white"/>
<path d="M71.072 28.8H73.664V40H71.072V28.8ZM65.984 40H63.392V28.8H65.984V40ZM71.264 35.408H65.792V33.216H71.264V35.408ZM80.3101 40.128C79.3928 40.128 78.5768 39.936 77.8621 39.552C77.1581 39.168 76.5981 38.6453 76.1821 37.984C75.7768 37.312 75.5741 36.5493 75.5741 35.696C75.5741 34.832 75.7768 34.0693 76.1821 33.408C76.5981 32.736 77.1581 32.2133 77.8621 31.84C78.5768 31.456 79.3928 31.264 80.3101 31.264C81.2168 31.264 82.0275 31.456 82.7421 31.84C83.4568 32.2133 84.0168 32.7307 84.4221 33.392C84.8275 34.0533 85.0301 34.8213 85.0301 35.696C85.0301 36.5493 84.8275 37.312 84.4221 37.984C84.0168 38.6453 83.4568 39.168 82.7421 39.552C82.0275 39.936 81.2168 40.128 80.3101 40.128ZM80.3101 38.08C80.7261 38.08 81.0995 37.984 81.4301 37.792C81.7608 37.6 82.0221 37.328 82.2141 36.976C82.4061 36.6133 82.5021 36.1867 82.5021 35.696C82.5021 35.1947 82.4061 34.768 82.2141 34.416C82.0221 34.064 81.7608 33.792 81.4301 33.6C81.0995 33.408 80.7261 33.312 80.3101 33.312C79.8941 33.312 79.5208 33.408 79.1901 33.6C78.8595 33.792 78.5928 34.064 78.3901 34.416C78.1981 34.768 78.1021 35.1947 78.1021 35.696C78.1021 36.1867 78.1981 36.6133 78.3901 36.976C78.5928 37.328 78.8595 37.6 79.1901 37.792C79.5208 37.984 79.8941 38.08 80.3101 38.08ZM86.7469 40V31.392H91.1469C92.2242 31.392 93.0669 31.5893 93.6749 31.984C94.2829 32.368 94.5869 32.912 94.5869 33.616C94.5869 34.32 94.2989 34.8747 93.7229 35.28C93.1575 35.6747 92.4055 35.872 91.4669 35.872L91.7229 35.296C92.7682 35.296 93.5469 35.488 94.0589 35.872C94.5815 36.256 94.8429 36.816 94.8429 37.552C94.8429 38.3093 94.5549 38.9067 93.9789 39.344C93.4029 39.7813 92.5229 40 91.3389 40H86.7469ZM89.0349 38.304H91.1309C91.5895 38.304 91.9309 38.2293 92.1549 38.08C92.3895 37.92 92.5069 37.68 92.5069 37.36C92.5069 37.0293 92.4002 36.7893 92.1869 36.64C91.9735 36.48 91.6375 36.4 91.1789 36.4H89.0349V38.304ZM89.0349 34.928H90.9229C91.3602 34.928 91.6855 34.848 91.8989 34.688C92.1229 34.528 92.2349 34.2987 92.2349 34C92.2349 33.6907 92.1229 33.4613 91.8989 33.312C91.6855 33.1627 91.3602 33.088 90.9229 33.088H89.0349V34.928ZM105.564 40V31.392H108.044V40H105.564ZM101.228 34.144C102.359 34.1547 103.207 34.4107 103.772 34.912C104.348 35.4027 104.636 36.1013 104.636 37.008C104.636 37.9573 104.311 38.6987 103.66 39.232C103.009 39.7547 102.087 40.016 100.892 40.016L96.7 40V31.392H99.18V34.144H101.228ZM100.668 38.24C101.148 38.2507 101.516 38.1493 101.772 37.936C102.028 37.7227 102.156 37.4027 102.156 36.976C102.156 36.5493 102.028 36.2453 101.772 36.064C101.516 35.872 101.148 35.7707 100.668 35.76L99.18 35.744V38.24H100.668ZM114.658 40.128C113.677 40.128 112.813 39.936 112.066 39.552C111.33 39.168 110.759 38.6453 110.354 37.984C109.949 37.312 109.746 36.5493 109.746 35.696C109.746 34.832 109.943 34.0693 110.338 33.408C110.743 32.736 111.293 32.2133 111.986 31.84C112.679 31.456 113.463 31.264 114.338 31.264C115.181 31.264 115.938 31.4453 116.61 31.808C117.293 32.16 117.831 32.672 118.226 33.344C118.621 34.0053 118.818 34.8 118.818 35.728C118.818 35.824 118.813 35.936 118.802 36.064C118.791 36.1813 118.781 36.2933 118.77 36.4H111.778V34.944H117.458L116.498 35.376C116.498 34.928 116.407 34.5387 116.226 34.208C116.045 33.8773 115.794 33.6213 115.474 33.44C115.154 33.248 114.781 33.152 114.354 33.152C113.927 33.152 113.549 33.248 113.218 33.44C112.898 33.6213 112.647 33.8827 112.466 34.224C112.285 34.5547 112.194 34.9493 112.194 35.408V35.792C112.194 36.2613 112.295 36.6773 112.498 37.04C112.711 37.392 113.005 37.664 113.378 37.856C113.762 38.0373 114.21 38.128 114.722 38.128C115.181 38.128 115.581 38.0587 115.922 37.92C116.274 37.7813 116.594 37.5733 116.882 37.296L118.21 38.736C117.815 39.184 117.319 39.5307 116.722 39.776C116.125 40.0107 115.437 40.128 114.658 40.128ZM124.175 39.984L124.303 37.936C124.367 37.9467 124.431 37.9573 124.495 37.968C124.559 37.968 124.617 37.968 124.671 37.968C124.969 37.968 125.204 37.8827 125.375 37.712C125.545 37.5413 125.673 37.312 125.759 37.024C125.844 36.7253 125.903 36.3893 125.935 36.016C125.977 35.6427 126.009 35.2533 126.031 34.848L126.159 31.392H133.519V40H131.023V32.832L131.583 33.44H127.807L128.335 32.8L128.223 34.96C128.191 35.728 128.127 36.432 128.031 37.072C127.945 37.712 127.801 38.2667 127.599 38.736C127.396 39.1947 127.124 39.552 126.783 39.808C126.441 40.0533 126.004 40.176 125.471 40.176C125.279 40.176 125.076 40.16 124.863 40.128C124.649 40.096 124.42 40.048 124.175 39.984ZM135.919 40V31.392H138.399V34.56H140.927V36.72H138.399V40H135.919ZM144.063 40.128C143.177 40.128 142.388 39.936 141.695 39.552C141.001 39.168 140.457 38.6453 140.063 37.984C139.668 37.312 139.471 36.5493 139.471 35.696C139.471 34.832 139.668 34.0693 140.063 33.408C140.457 32.736 141.001 32.2133 141.695 31.84C142.388 31.456 143.177 31.264 144.063 31.264C144.948 31.264 145.732 31.456 146.415 31.84C147.108 32.2133 147.652 32.736 148.047 33.408C148.441 34.0693 148.639 34.832 148.639 35.696C148.639 36.5493 148.441 37.312 148.047 37.984C147.652 38.656 147.108 39.184 146.415 39.568C145.732 39.9413 144.948 40.128 144.063 40.128ZM144.063 38.08C144.468 38.08 144.825 37.984 145.135 37.792C145.455 37.6 145.705 37.328 145.887 36.976C146.079 36.6133 146.175 36.1867 146.175 35.696C146.175 35.1947 146.079 34.768 145.887 34.416C145.705 34.064 145.455 33.792 145.135 33.6C144.825 33.408 144.468 33.312 144.063 33.312C143.668 33.312 143.305 33.408 142.975 33.6C142.655 33.792 142.399 34.064 142.207 34.416C142.025 34.768 141.935 35.1947 141.935 35.696C141.935 36.1867 142.025 36.6133 142.207 36.976C142.399 37.328 142.655 37.6 142.975 37.792C143.305 37.984 143.668 38.08 144.063 38.08ZM156.167 38.88V33.44H153.351L153.303 34.544C153.282 35.0027 153.255 35.44 153.223 35.856C153.191 36.272 153.127 36.6507 153.031 36.992C152.946 37.3227 152.818 37.6053 152.647 37.84C152.476 38.064 152.247 38.2187 151.959 38.304L149.495 37.952C149.804 37.952 150.055 37.8613 150.247 37.68C150.439 37.488 150.588 37.2267 150.695 36.896C150.802 36.5547 150.882 36.1707 150.935 35.744C150.988 35.3067 151.026 34.848 151.047 34.368L151.159 31.392H158.663V38.88H156.167ZM149.207 41.856V37.952H159.895V41.856H157.575V40H151.527V41.856H149.207ZM161.466 40V31.392H163.946V36.512L168.138 31.392H170.426V40H167.946V34.88L163.77 40H161.466Z" fill="white"/>
</svg>
