<svg width="1087" height="1000" viewBox="0 0 1087 1000" fill="none" xmlns="http://www.w3.org/2000/svg">
<path opacity="0.1" d="M561.197 83.7643C552.203 86.4895 546.692 89.3348 545.117 92.0762C543.552 89.3348 538.052 86.4895 529.068 83.7643C519.883 80.9781 512.54 78.3562 505.015 75.9471C483.151 68.9472 466.901 63.7421 462.879 59.3845C461.366 57.746 463.203 54.4015 474.269 52.2886C481.153 50.9725 490.779 50.3129 502.937 50.3129C511.645 50.3129 518.349 50.7489 523.466 51.6535C528.109 52.4745 530.88 53.579 532.538 54.6693C530.138 59.0295 495.975 57.7443 508.153 54.6689C508.153 54.6689 492.558 53.5064 489.823 57.2115C481.856 57.2115 476.743 58.5988 476.743 58.5988C476.743 58.5988 477.925 60.043 489.203 60.043C488.632 61.9905 489.85 62.9979 506.054 62.9979C506.054 62.9979 495.164 60.3318 515.439 59.6436C527.157 59.2457 539.177 61.0303 539.107 63.1481C539.036 65.3131 533.646 67.7232 520.81 67.7232C507.975 67.7232 501.721 66.9783 501.721 66.9783C501.721 66.9783 501.299 71.9825 538.873 70.2732C538.873 70.2732 516.785 72.8894 545.141 78.9863C573.52 72.8894 551.442 70.2732 551.442 70.2732C589.01 71.9825 588.606 66.9783 588.606 66.9783C588.606 66.9783 582.35 67.7232 569.514 67.7232C556.679 67.7232 551.297 65.3131 551.234 63.1481C551.172 61.0303 563.199 59.2457 574.915 59.6436C595.189 60.3318 584.288 62.9979 584.288 62.9979C600.492 62.9979 601.714 61.9905 601.15 60.043C612.427 60.043 613.615 58.5988 613.615 58.5988C613.615 58.5988 608.507 57.2115 600.54 57.2115C597.819 53.5064 582.219 54.6689 582.219 54.6689C594.387 57.7443 560.219 59.0295 557.835 54.6693C559.496 53.579 562.271 52.4745 566.918 51.6535C572.038 50.7489 578.744 50.3129 587.452 50.3129C599.609 50.3129 609.233 50.9725 616.112 52.2886C627.171 54.4015 628.996 57.746 627.477 59.3845C623.439 63.7421 607.169 68.9472 585.28 75.9471C577.745 78.3562 570.392 80.9781 561.197 83.7643V83.7643ZM576.003 104.433C567.696 105.444 560.609 106.91 554.825 108.718C549.473 110.39 546.258 112.314 545.076 114.414C543.903 112.314 540.694 110.39 535.349 108.718C529.572 106.91 522.489 105.444 514.187 104.433C522.685 103.431 529.899 102.007 535.705 100.299C540.926 98.7623 544.005 97.0448 545.111 95.2289C546.212 97.0448 549.284 98.7623 554.5 100.299C560.3 102.007 567.508 103.431 576.003 104.433V104.433ZM597.889 141.955C633.584 155.126 664.292 166.463 677.879 177.191C683.417 181.562 687.01 191.137 671.753 197.685C661.763 201.979 645.218 204.197 622.807 204.197C606.755 204.197 594.064 202.726 584.149 199.735C575.384 197.094 570.027 193.639 566.769 190.334C569.368 178.121 626.244 181.566 608.863 190.338C608.863 190.338 637.349 193.862 637.092 183.032C650.352 183.032 656.684 179.263 656.684 179.263C656.684 179.263 652.61 175.487 634.559 175.487C633.152 170.624 630.123 168.207 605.183 168.207C605.183 168.207 624.707 174.75 592.821 176.517C574.12 177.551 554.442 172.993 554.292 167.852C554.146 162.885 561.695 157.664 580.307 157.664C598.918 157.664 608.564 159.242 608.564 159.242C608.564 159.242 605.448 149.153 553.842 152.465C553.842 152.465 583.698 147.447 545.035 136.855C506.332 147.447 536.169 152.465 536.169 152.465C484.577 149.153 481.423 159.242 481.423 159.242C481.423 159.242 491.076 157.664 509.686 157.664C528.298 157.664 535.826 162.885 535.663 167.852C535.494 172.993 515.799 177.551 497.102 176.517C465.224 174.75 484.772 168.207 484.772 168.207C459.83 168.207 456.793 170.624 455.368 175.487C437.316 175.487 433.229 179.263 433.229 179.263C433.229 179.263 439.547 183.032 452.808 183.032C452.51 193.862 481.009 190.338 481.009 190.338C463.661 181.566 520.55 178.121 523.104 190.334C519.832 193.639 514.463 197.094 505.689 199.735C495.763 202.726 483.067 204.197 467.014 204.197C444.603 204.197 428.066 201.979 418.093 197.685C402.86 191.137 406.489 181.562 412.042 177.191C425.669 166.463 456.419 155.126 492.163 141.955C503.211 137.885 513.54 133.69 525.583 129.478C536.715 125.586 543.262 121.741 545.069 118.232C546.862 121.741 553.396 125.586 564.514 129.478C576.541 133.69 586.855 137.885 597.889 141.955V141.955ZM567.932 217.925C556.352 221.832 549.247 226.908 544.859 231.933C540.489 226.908 533.405 221.832 521.838 217.925C511.05 214.274 497.692 212.028 481.877 211.14C497.938 210.258 511.669 208.054 522.739 204.614C534.117 201.067 540.914 196.695 544.932 192.591C548.934 196.695 555.717 201.067 567.08 204.614C578.138 208.054 591.861 210.258 607.918 211.14C592.1 212.028 578.734 214.274 567.932 217.925V217.925ZM682.488 225.736C705.671 233.778 712.122 246.871 710.507 253.454C706.079 271.532 676.236 294.276 633.24 327.026C617.621 338.929 602.038 352.266 581.741 366.903C561.212 381.707 548.309 397.701 544.524 413.669C540.797 397.701 527.954 381.707 507.48 366.903C487.237 352.266 471.703 338.929 456.129 327.026C413.254 294.276 383.494 271.532 379.133 253.454C377.543 246.871 384.041 233.778 407.254 225.736C421.446 220.81 440.351 218.367 463.707 218.367C480.436 218.367 493.199 219.979 502.855 223.349C511.694 226.435 516.915 230.624 520.01 234.806C514.601 252.014 446.622 246.86 472.112 234.806C472.112 234.806 442.1 230.348 434.652 244.748C418.795 244.748 407.62 250.277 407.62 250.277C407.62 250.277 408.95 256.129 431.733 256.129C429.38 264.158 431.246 268.388 464.506 268.388C464.506 268.388 443.62 257.31 484.866 254.507C508.566 252.897 532.626 260.183 532.336 269.016C532.032 278.261 520.5 288.805 493.466 288.805C466.435 288.805 453.641 285.519 453.641 285.519C453.641 285.519 450.122 308.16 531.307 300.284C531.307 300.284 483.207 312.4 544.656 342.091C606.215 312.4 558.159 300.284 558.159 300.284C639.316 308.16 635.88 285.519 635.88 285.519C635.88 285.519 623.076 288.805 596.043 288.805C569.01 288.805 557.516 278.261 557.246 269.016C556.988 260.183 581.075 252.897 604.769 254.507C646.006 257.31 625.079 268.388 625.079 268.388C658.338 268.388 660.22 264.158 657.896 256.129C680.679 256.129 682.031 250.277 682.031 250.277C682.031 250.277 670.877 244.748 655.02 244.748C647.625 230.348 617.596 234.806 617.596 234.806C643.043 246.86 575.045 252.014 569.698 234.806C572.808 230.624 578.044 226.435 586.897 223.349C596.565 219.979 609.334 218.367 626.063 218.367C649.417 218.367 668.314 220.81 682.488 225.736V225.736ZM626.071 493.163H624.74C602.383 500.528 583.432 511.55 568.401 525.777C555.469 538.008 547.406 552.21 544.239 568.02C541.13 552.21 533.123 538.008 520.236 525.777C505.254 511.55 486.344 500.528 464.015 493.163H462.685C485.563 486.211 504.899 476.491 520.286 465.085C533.821 455.054 541.694 444.081 544.488 432.742C547.244 444.081 555.076 455.054 568.575 465.085C583.919 476.491 603.217 486.211 626.071 493.163V493.163ZM606.676 705.423C693.968 796.611 689.842 846.455 670.96 864.429C638.683 895.053 563.26 848.147 543.865 770.401C524.183 848.147 448.591 895.053 416.425 864.429C397.609 846.455 393.669 796.611 481.298 705.423C518.045 667.199 538.667 631.347 544.179 600.322C549.579 631.347 570.071 667.199 606.676 705.423V705.423ZM533.439 46.5134C539.445 45.5113 543.054 44.2606 545.208 43.0723C547.357 44.2606 550.962 45.5113 556.964 46.5134C562.747 47.478 569.918 48.0894 578.331 48.3337C569.984 48.5787 562.912 49.1977 557.199 50.1917C551.137 51.2473 547.443 52.5995 545.187 53.9209C542.937 52.5995 539.249 51.2473 533.19 50.1917C527.481 49.1977 520.41 48.5787 512.065 48.3337C520.478 48.0894 527.652 47.478 533.439 46.5134V46.5134ZM477.261 44.5449C468.39 42.6482 469.315 39.8103 471.896 38.4888C478.368 35.1726 494.751 31.5532 514.508 27.1901C520.776 25.8059 526.697 24.3611 533.71 22.8919C540.275 21.5166 544.17 20.1418 545.252 18.8721C546.329 20.1418 550.22 21.5166 556.78 22.8919C563.788 24.3611 569.703 25.8059 575.967 27.1901C595.708 31.5532 612.076 35.1726 618.536 38.4888C621.112 39.8103 622.027 42.6482 613.149 44.5449C607.423 45.7698 598.449 46.397 586.552 46.397C578.031 46.397 571.347 45.9815 566.159 45.1315C561.537 44.3744 558.729 43.3765 557.027 42.4138C558.662 38.7712 589.773 39.8118 579.813 42.4142C579.813 42.4142 594.984 43.4415 595.614 40.2514C602.867 40.2514 606.661 39.1171 606.661 39.1171C606.661 39.1171 604.744 37.9692 594.762 37.9692C594.329 36.4721 592.809 35.7192 578.87 35.7192C578.87 35.7192 589.361 37.7437 571.642 38.2836C561.293 38.5988 550.476 37.2032 550.43 35.6084C550.384 34.0431 554.707 32.3736 565.273 32.3736C575.838 32.3736 581.23 32.8817 581.23 32.8817C581.23 32.8817 579.982 29.5956 550.286 30.685C550.286 30.685 567.533 29.0307 545.24 25.4531C522.934 29.0307 540.175 30.685 540.175 30.685C510.483 29.5956 509.223 32.8817 509.223 32.8817C509.223 32.8817 514.617 32.3736 525.182 32.3736C535.748 32.3736 540.064 34.0431 540.013 35.6084C539.96 37.2032 529.139 38.5988 518.791 38.2836C501.074 37.7437 511.573 35.7192 511.573 35.7192C497.633 35.7192 496.111 36.4721 495.672 37.9692C485.69 37.9692 483.769 39.1171 483.769 39.1171C483.769 39.1171 487.559 40.2514 494.813 40.2514C495.43 43.4415 510.605 42.4142 510.605 42.4142C500.654 39.8118 531.77 38.7712 533.391 42.4138C531.685 43.3765 528.874 44.3744 524.249 45.1315C519.058 45.9815 512.373 46.397 503.851 46.397C491.954 46.397 482.982 45.7698 477.261 44.5449V44.5449ZM526.202 13.7398H526.513C531.92 13.3454 536.463 12.7743 539.986 12.0726C542.871 11.4978 544.611 10.8615 545.268 10.1898C545.923 10.8615 547.661 11.4978 550.544 12.0726C554.064 12.7743 558.605 13.3454 564.011 13.7398H564.321C559.176 14.1237 554.792 14.678 551.222 15.3579C547.939 15.9832 545.973 16.6987 545.255 17.4748C544.54 16.6987 542.577 15.9832 539.296 15.3579C535.729 14.678 531.346 14.1237 526.202 13.7398V13.7398ZM534.967 5.59586C523.366 3.40678 525.192 2.4068 528.142 2.07425C532.915 1.53671 542.601 2.37486 545.28 3.98431C547.964 2.37486 557.654 1.53671 562.424 2.07425C565.373 2.4068 567.196 3.40678 555.587 5.59586C549.793 6.68828 546.273 7.82915 545.271 8.92517C544.273 7.82915 540.757 6.68828 534.967 5.59586V5.59586ZM598.372 77.4025C620.574 70.1029 637.055 64.6873 641.133 59.9119C643.324 57.3435 639.355 53.4787 625.883 50.9463C618.276 49.5177 608.249 48.6369 596.496 48.3337C608.039 48.0316 617.334 47.1649 623.622 45.7949C634.294 43.4662 634.447 40.1418 630.262 38.072C623.014 34.4891 605.99 30.7953 585.498 26.3473C579.212 24.9832 572.822 23.5972 566.26 22.1161C556.017 19.8065 553.967 17.5537 560.425 16.0611C564.91 15.027 572.87 14.477 582.907 14.5028C597.47 14.54 605.629 15.958 607.288 17.3748C608.83 18.6878 604.987 20.4242 588.962 20.9249C583.594 21.0569 580.133 20.5327 578.555 20.2097C575.607 19.6055 574.905 18.8306 576.926 18.4439C578.458 18.1507 581.681 18.1306 584.467 18.1803C588.492 18.4784 586.604 19.2374 583.402 19.3794C593.443 19.3574 594.726 18.5753 594.324 18.0801C599.491 17.9299 600.917 17.6625 600.866 17.5237C600.815 17.3853 598.19 16.9718 594.009 16.866C592.867 15.7858 588.778 15.5988 582.765 15.5677C582.765 15.5677 590.581 16.3509 583.216 16.7344C583.215 16.7344 583.214 16.7346 583.213 16.7346C574.52 16.6737 570.09 17.2163 568.068 17.5967C563.45 18.4644 563.963 19.8636 569.44 21.0049C574.695 22.1011 582.973 22.6289 591.521 22.4062L591.702 22.4007C596.334 22.2568 600.301 22.0307 603.658 21.7453C603.659 21.7455 603.659 21.7459 603.659 21.7464C604.4 23.7101 586.429 23.7645 586.429 23.7645C587.96 24.9659 599.833 24.5845 599.833 24.5845C600.767 25.5199 590.574 25.6056 590.574 25.6056C594.689 26.5751 601.236 26.4234 601.236 26.4234C602.227 29.2419 625.286 30.1065 625.286 30.1065C625.286 30.1065 616.09 28.8173 615.069 26.4884C614.077 24.2261 621.532 21.8638 618.303 17.6944C618.303 17.6944 618.298 17.6948 618.297 17.695C618.215 17.5389 618.085 17.3841 617.895 17.2313C616.783 16.339 613.685 15.4228 608.726 14.686L608.733 14.6864C615.674 14.707 619.233 13.9227 619.14 13.7398C619.048 13.5574 614.757 12.7855 607.923 12.8054L607.914 12.8058C612.148 12.0948 614.331 11.23 614.587 10.4079C614.63 10.2689 614.615 10.1285 614.553 9.98799C614.554 9.98799 614.561 9.98863 614.561 9.98863C613.916 6.42999 605.462 4.57156 604.724 2.88786C604.004 1.24499 610.671 0.37236 610.671 0.37236C610.671 0.37236 592.289 0.95474 592.985 2.93502C592.985 2.93502 587.333 2.82503 584.272 3.53413C584.272 3.53413 593.087 3.59759 592.805 4.29865C592.805 4.29865 582.301 4.01097 581.488 4.92633C581.488 4.92633 597.321 4.96841 597.91 6.52518C597.91 6.52539 597.91 6.5256 597.91 6.52602C594.711 6.2948 591.023 6.11309 586.803 5.9978L586.634 5.99356C578.907 5.81586 571.694 6.23853 567.273 7.13252C562.538 8.09019 562.359 9.30257 566.936 10.077C568.972 10.4214 573.399 10.9192 581.726 10.8632C581.727 10.8632 581.729 10.8634 581.73 10.8634C589.024 11.219 581.855 11.9566 581.855 11.9566C587.703 11.927 591.576 11.7495 592.017 10.7421C595.956 10.645 598.183 10.2679 598.137 10.1426C598.091 10.0174 596.56 9.77749 591.584 9.64358C591.668 9.20484 590.017 8.52388 580.684 8.50505C583.726 8.62754 585.872 9.29031 582.233 9.55411C579.63 9.59832 576.582 9.58055 575.024 9.32077C572.987 8.98102 573.367 8.31105 575.864 7.79699C577.185 7.52537 580.121 7.08959 585.065 7.19896C599.998 7.61613 604.807 9.10648 604.358 10.2778C603.856 11.5869 596.906 12.9486 582.522 12.985C572.517 13.0114 564.097 12.4354 559.475 11.4193C553.153 10.0297 554.978 8.08577 564.065 6.23812C575.851 3.84151 578.031 1.88766 570.109 0.720771C566.85 0.240772 551.536 -0.961862 545.284 1.48911C539.042 -0.961862 523.723 0.240772 520.462 0.720771C512.537 1.88766 514.709 3.84151 526.487 6.23812C535.567 8.08577 537.385 10.0297 531.057 11.4193C526.432 12.4354 518.009 13.0114 508.004 12.985C493.621 12.9486 486.675 11.5869 486.179 10.2778C485.734 9.10648 490.549 7.61613 505.483 7.19896C510.427 7.08959 513.361 7.52537 514.682 7.79699C517.177 8.31105 517.555 8.98102 515.516 9.32077C513.957 9.58055 510.909 9.59832 508.306 9.55411C504.668 9.29031 506.817 8.62754 509.859 8.50505C500.526 8.52388 498.872 9.20484 498.955 9.64358C493.978 9.77749 492.446 10.0174 492.4 10.1426C492.353 10.2679 494.579 10.645 498.518 10.7421C498.956 11.7495 502.828 11.927 508.675 11.9566C508.675 11.9566 501.509 11.219 508.804 10.8634C508.806 10.8634 508.807 10.8632 508.808 10.8632C517.135 10.9192 521.564 10.4214 523.601 10.077C528.181 9.30257 528.007 8.09019 523.275 7.13252C518.857 6.23853 511.646 5.81586 503.918 5.99356L503.749 5.9978C499.529 6.11309 495.84 6.2948 492.641 6.52602C492.641 6.5256 492.641 6.52539 492.641 6.52518C493.235 4.96841 509.069 4.92633 509.069 4.92633C508.259 4.01097 497.754 4.29865 497.754 4.29865C497.474 3.59759 506.289 3.53413 506.289 3.53413C503.231 2.82503 497.578 2.93502 497.578 2.93502C498.281 0.95474 479.902 0.37236 479.902 0.37236C479.902 0.37236 486.566 1.24499 485.84 2.88786C485.096 4.57156 476.635 6.42999 475.977 9.98863C475.977 9.98863 475.984 9.98799 475.985 9.98799C475.922 10.1285 475.907 10.2689 475.949 10.4079C476.202 11.23 478.382 12.0948 482.613 12.8058L482.604 12.8054C475.77 12.7855 471.476 13.5574 471.384 13.7398C471.291 13.9227 474.845 14.707 481.787 14.6864L481.795 14.686C476.833 15.4228 473.731 16.339 472.616 17.2313C472.425 17.3841 472.294 17.5389 472.212 17.695C472.211 17.6948 472.207 17.6944 472.207 17.6944C468.961 21.8638 476.408 24.2261 475.408 26.4884C474.378 28.8173 465.177 30.1065 465.177 30.1065C465.177 30.1065 488.24 29.2419 489.24 26.4234C489.24 26.4234 495.788 26.5751 499.906 25.6056C499.906 25.6056 489.713 25.5199 490.651 24.5845C490.651 24.5845 502.523 24.9659 504.058 23.7645C504.058 23.7645 486.086 23.7101 486.835 21.7464C486.836 21.7459 486.836 21.7455 486.836 21.7453C490.192 22.0307 494.158 22.2568 498.79 22.4007L498.971 22.4062C507.518 22.6289 515.798 22.1011 521.057 21.0049C526.538 19.8636 527.056 18.4644 522.442 17.5967C520.421 17.2163 515.994 16.6737 507.3 16.7346C507.299 16.7346 507.298 16.7344 507.296 16.7344C499.933 16.3509 507.752 15.5677 507.752 15.5677C501.739 15.5988 497.649 15.7858 496.503 16.866C492.322 16.9718 489.695 17.3853 489.644 17.5237C489.592 17.6625 491.017 17.9299 496.184 18.0801C495.779 18.5753 497.061 19.3574 507.101 19.3794C503.9 19.2374 502.014 18.4784 506.04 18.1803C508.826 18.1306 512.05 18.1507 513.58 18.4439C515.6 18.8306 514.895 19.6055 511.945 20.2097C510.366 20.5327 506.903 21.0569 501.535 20.9249C485.512 20.4242 481.675 18.6878 483.222 17.3748C484.887 15.958 493.051 14.54 507.614 14.5028C517.651 14.477 525.609 15.027 530.09 16.0611C536.543 17.5537 534.484 19.8065 524.232 22.1161C517.666 23.5972 511.27 24.9832 504.98 26.3473C484.471 30.7953 467.433 34.4891 460.172 38.072C455.979 40.1418 456.119 43.4662 466.784 45.7949C473.067 47.1649 482.358 48.0316 493.901 48.3337C482.146 48.6369 472.117 49.5177 464.504 50.9463C451.021 53.4787 447.039 57.3435 449.221 59.9119C453.28 64.6873 469.742 70.1029 491.918 77.4025C499.31 79.8351 507.143 82.4117 515.51 85.2873C529.378 90.0479 531.891 95.0472 521.494 98.5732C513.954 101.125 500.91 102.52 484.874 102.454C461.633 102.359 450.957 98.823 450.682 95.4603C450.434 92.4834 458.638 88.7397 482.343 87.6991C490.169 87.427 494.709 88.5129 496.738 89.1911C500.588 90.4788 501.062 92.1678 497.756 93.0265C495.223 93.6856 490.361 93.7309 486.222 93.619C480.499 92.9497 484.089 91.2757 488.945 90.9677C474.136 91.0149 471.301 92.7337 471.296 93.8458C463.317 94.1862 460.79 94.7971 460.671 95.1161C460.552 95.4358 463.98 96.4006 470.253 96.6494C470.636 99.2434 476.811 99.7027 486.214 99.7794C486.214 99.7794 474.9 97.8747 486.694 96.9604C486.696 96.9604 486.698 96.96 486.699 96.96C500.03 97.1042 507.206 95.8286 510.515 94.9482C517.916 92.9808 517.784 89.9256 510.425 87.5339C503.612 85.3173 492.378 84.2769 480.2 84.7137L479.941 84.7243C473.28 85.0084 467.427 85.4569 462.319 86.0285C462.319 86.0277 462.319 86.027 462.319 86.0264C463.78 82.1974 488.542 82.0946 488.542 82.0946C487.494 79.867 471.05 80.5655 471.05 80.5655C470.828 78.8664 484.547 78.713 484.547 78.713C479.983 77.0056 471.191 77.2694 471.191 77.2694C472.867 72.5486 444.839 71.1744 444.839 71.1744C444.839 71.1744 454.744 73.2359 453.011 77.1563C451.211 81.2292 437.18 85.7905 434.513 94.7239C434.513 94.7239 434.521 94.7227 434.523 94.7222C434.356 95.0808 434.265 95.4389 434.268 95.7935C434.291 97.903 437.396 100.137 443.901 101.987L443.89 101.985C432.861 101.934 425.533 103.954 425.289 104.433C425.045 104.915 430.428 106.987 441.742 106.933L441.755 106.932C433.321 108.891 427.791 111.345 425.501 113.754C425.109 114.168 424.812 114.589 424.595 115.013C424.593 115.012 424.586 115.011 424.586 115.011C416.909 126.564 428.194 133.3 425.284 139.884C422.224 146.806 405.456 150.701 405.456 150.701C405.456 150.701 446.053 148.085 449.031 139.695C449.031 139.695 460.197 140.14 467.602 137.301C467.602 137.301 450.23 137.05 452.223 134.333C452.223 134.333 472.282 135.439 475.274 131.974C475.274 131.974 444.855 131.817 446.985 126.232C446.985 126.231 446.986 126.23 446.986 126.229C452.503 127.035 459.085 127.675 466.828 128.082L467.13 128.098C481.46 128.73 495.532 127.234 504.574 124.149C513.906 120.969 514.955 117.114 507.462 114.745C504.199 113.713 497.025 112.246 482.732 112.411C482.731 112.411 482.728 112.41 482.726 112.41C470.754 111.377 483.785 109.278 483.785 109.278C473.949 109.361 467.2 109.862 464.95 112.766C458.038 113.051 453.556 114.172 453.415 114.547C453.275 114.924 455.52 115.652 463.998 116.062C463.153 117.417 465.001 119.569 481.676 119.629C476.4 119.237 473.507 117.152 480.255 116.336C484.873 116.2 490.195 116.255 492.658 117.057C495.918 118.118 494.577 120.254 489.521 121.93C486.805 122.83 480.873 124.295 471.931 123.925C445.347 122.527 439.748 117.726 442.897 114.143C446.249 110.323 460.135 106.545 483.842 106.446C500.177 106.378 513.045 107.837 520.241 110.599C530.715 114.629 527.142 120.81 509.713 127.277C498.361 131.493 487.176 135.49 476.037 139.471C438.753 152.8 406.6 164.29 391.095 175.825C381.9 182.667 379.504 193.946 397.627 202.067C408.503 206.933 425.554 210.047 447.327 211.14C424.787 212.232 405.063 215.445 389.376 220.712C361.026 230.239 349.363 245.266 351.093 255.598C354.452 275.56 383.776 299.514 426.222 334.18C441.191 346.392 457.526 359.734 475.496 375.113C506.715 401.789 511.685 431.606 484.484 453.827C463.945 470.57 429.137 479.988 387.379 479.538C326.928 478.878 304.937 455.443 309.541 434.159C313.436 416.095 338.434 394.309 395.907 388.435C414.659 386.913 424.575 393.022 428.913 396.87C437.239 404.284 437.221 414.206 428.526 419.33C421.798 423.297 409.8 423.575 399.721 422.903C386.338 418.873 396.73 408.947 408.759 407.139C372.913 407.412 364.08 417.566 362.758 424.271C342.664 426.347 335.6 430.072 334.866 432.036C334.132 434.003 341.369 440.021 356.768 441.574C354.461 458.177 369.674 461.174 393.658 461.677C393.658 461.677 366.981 449.337 397.689 443.545C397.696 443.533 397.702 443.533 397.705 443.533C431.093 444.442 449.944 436.456 458.699 430.999C477.918 419.056 478.907 401.095 462.49 387.5C447.721 375.267 422.292 369.648 393.653 372.002L393.042 372.06C377.263 373.601 363.133 376.032 350.518 379.162C350.522 379.153 350.522 379.153 350.522 379.153C358.356 358.61 415.133 358.069 415.133 358.069C414.492 346.556 376.661 350.135 376.661 350.135C377.857 341.484 408.771 340.719 408.771 340.719C400.003 332.213 380.23 333.511 380.23 333.511C388.291 310.803 329.331 304.416 329.331 304.416C329.331 304.416 348.302 314.038 339.939 332.958C330.83 353.564 291.974 377.861 270.635 429.621C270.635 429.621 270.659 429.609 270.663 429.609C269.608 431.809 268.739 434.015 268.097 436.225C264.265 449.528 268.003 464.015 281.397 476.366L281.371 476.352C252.817 475.991 229.411 489.834 227.72 493.163C226.003 496.542 235.806 511.333 266.361 510.929H266.401C239.47 525.307 218.64 543.892 206.337 562.778C204.171 566.111 202.247 569.514 200.535 572.949C200.53 572.949 200.508 572.93 200.508 572.93C143.823 675.853 157.614 745.427 123.876 821.752C83.7112 912.617 0 969.424 0 969.424C0 969.424 168.206 930.791 207.748 819.401C207.748 819.401 245.597 824.905 278.633 790.692C278.633 790.692 219.868 787.761 234.262 756.819C234.262 756.819 298.795 769.211 315.924 731.04C315.924 731.04 216.93 729.421 238.59 672.632C238.599 672.607 238.599 672.607 238.599 672.607C253.865 680.462 273.06 686.782 296.609 690.88L297.569 691.008C341.79 697.39 388.526 682.425 420.11 652.762C451.085 623.679 456.916 590.311 437.15 570.754C428.764 562.471 409.966 550.877 369.816 552.158C369.807 552.158 369.803 552.158 369.797 552.158C337.874 544.132 376.647 528.191 376.647 528.191C349.621 528.83 330.376 532.59 319.461 554.964C299.549 557.222 284.796 566.13 283.664 569.162C282.529 572.203 287.514 578.175 311.097 581.543C306.216 592.867 307.672 611.34 356.839 611.859C341.867 608.447 336.719 590.624 357.447 583.826C370.928 582.693 386.18 583.153 392.354 589.822C400.636 598.795 394.236 617.343 377.016 632.312C367.573 640.515 347.297 654.152 320.556 650.663C242.662 637.746 237.507 595.481 254.643 565.892C271.914 536.075 316.467 508.131 380.156 507.439C424.367 506.917 459.605 518.324 477.798 539.715C505.192 571.905 491.82 623.808 433.43 682.45C339.542 776.713 297.655 874.824 342.127 945.932C362.561 978.609 486.007 1071.17 543.63 897.874C600.617 1071.17 724.403 978.609 744.956 945.932C789.693 874.824 748.169 776.713 654.628 682.45C596.456 623.808 583.275 571.905 610.786 539.715C629.059 518.324 664.339 506.917 708.548 507.439C772.235 508.131 816.683 536.075 833.843 565.892C850.872 595.481 845.56 637.746 767.618 650.663C740.865 654.152 720.64 640.515 711.226 632.312C694.062 617.343 687.73 598.795 696.047 589.822C702.246 583.153 717.495 582.693 730.972 583.826C751.676 590.624 746.466 608.447 731.479 611.859C780.649 611.34 782.171 592.867 777.33 581.543C800.926 578.175 805.935 572.203 804.81 569.162C803.689 566.13 788.968 557.222 769.067 554.964C758.234 532.59 739.004 528.83 711.979 528.191C711.979 528.191 750.694 544.132 718.741 552.158C718.735 552.158 718.73 552.158 718.723 552.158C678.579 550.877 659.737 562.471 651.317 570.754C631.482 590.311 637.191 623.679 668.055 652.762C699.53 682.425 746.21 697.39 790.456 691.008L791.418 690.88C814.982 686.782 834.2 680.462 849.495 672.607C849.495 672.607 849.495 672.607 849.505 672.632C870.955 729.421 771.957 731.04 771.957 731.04C788.944 769.211 853.523 756.819 853.523 756.819C867.803 787.761 809.028 790.692 809.028 790.692C841.936 824.905 879.805 819.401 879.805 819.401C918.936 930.791 1087 969.424 1087 969.424C1087 969.424 1003.5 912.617 963.67 821.752C930.213 745.427 944.259 675.853 887.955 572.93C887.955 572.93 887.932 572.949 887.929 572.949C886.227 569.514 884.316 566.111 882.16 562.778C869.929 543.892 849.168 525.307 822.289 510.929H822.329C852.88 511.333 862.742 496.542 861.037 493.163C859.358 489.834 835.999 475.991 807.447 476.352L807.422 476.366C820.861 464.015 824.649 449.528 820.867 436.225C820.234 434.015 819.374 431.809 818.327 429.609C818.332 429.609 818.356 429.621 818.356 429.621C797.208 377.861 758.441 353.564 749.409 332.958C741.115 314.038 760.12 304.416 760.12 304.416C760.12 304.416 701.138 310.803 709.115 333.511C709.115 333.511 689.346 332.213 680.548 340.719C680.548 340.719 711.459 341.484 712.623 350.135C712.623 350.135 674.806 346.556 674.122 358.069C674.122 358.069 730.895 358.61 738.655 379.153C738.655 379.153 738.655 379.153 738.658 379.162C726.055 376.032 711.935 373.601 696.161 372.06L695.549 372.002C666.92 369.648 641.469 375.267 626.655 387.5C610.189 401.095 611.11 419.056 630.284 430.999C639.021 436.456 657.843 444.442 691.234 443.533C691.237 443.533 691.244 443.533 691.249 443.545C721.936 449.337 695.213 461.677 695.213 461.677C719.2 461.174 734.424 458.177 732.178 441.574C747.581 440.021 754.841 434.003 754.114 432.036C753.388 430.072 746.336 426.347 726.25 424.271C724.954 417.566 716.16 407.412 680.314 407.139C692.339 408.947 702.69 418.873 689.292 422.903C679.213 423.575 667.216 423.297 660.503 419.33C651.827 414.206 651.845 404.284 660.197 396.87C664.55 393.022 674.489 386.913 693.234 388.435C750.686 394.309 775.604 416.095 779.431 434.159C783.959 455.443 761.879 478.878 701.425 479.538C659.666 479.988 624.895 470.57 604.417 453.827C577.298 431.606 582.378 401.789 613.694 375.113C631.723 359.734 648.106 346.392 663.121 334.18C705.695 299.514 735.106 275.56 738.539 255.598C740.307 245.266 728.697 230.239 700.385 220.712C684.718 215.445 665.004 212.232 642.469 211.14C664.246 210.047 681.309 206.933 692.203 202.067C710.353 193.946 708.001 182.667 698.831 175.825C683.368 164.29 651.258 152.8 614.023 139.471C602.899 135.49 591.728 131.493 580.391 127.277C562.988 120.81 559.437 114.629 569.925 110.599C577.131 107.837 590.005 106.378 606.339 106.446C630.046 106.545 643.919 110.323 647.256 114.143C650.392 117.726 644.776 122.527 618.186 123.925C609.243 124.295 603.317 122.83 600.603 121.93C595.554 120.254 594.222 118.118 597.485 117.057C599.95 116.255 605.273 116.2 609.89 116.336C616.635 117.152 613.736 119.237 608.457 119.629C625.133 119.569 626.987 117.417 626.147 116.062C634.627 115.652 636.876 114.924 636.736 114.547C636.597 114.172 632.118 113.051 625.208 112.766C622.97 109.862 616.222 109.361 606.386 109.278C606.386 109.278 619.409 111.377 607.433 112.41C607.432 112.41 607.429 112.411 607.428 112.411C593.136 112.246 585.956 113.713 582.688 114.745C575.187 117.114 576.223 120.969 585.542 124.149C594.573 127.234 608.64 128.73 622.972 128.098L623.274 128.082C631.019 127.675 637.603 127.035 643.123 126.229C643.123 126.23 643.124 126.231 643.124 126.232C645.233 131.817 614.814 131.974 614.814 131.974C617.793 135.439 637.856 134.333 637.856 134.333C639.84 137.05 622.466 137.301 622.466 137.301C629.86 140.14 641.028 139.695 641.028 139.695C643.976 148.085 684.563 150.701 684.563 150.701C684.563 150.701 667.81 146.806 664.776 139.884C661.89 133.3 673.199 126.564 665.565 115.011C665.565 115.011 665.557 115.012 665.556 115.013C665.34 114.589 665.044 114.168 664.653 113.754C662.372 111.345 656.852 108.891 648.426 106.932L648.438 106.933C659.751 106.987 665.143 104.915 664.9 104.433C664.659 103.954 657.337 101.934 646.309 101.985L646.298 101.987C652.809 100.137 655.921 97.903 655.953 95.7935C655.957 95.4389 655.868 95.0808 655.702 94.7222C655.704 94.7227 655.713 94.7239 655.713 94.7239C653.078 85.7905 639.064 81.2292 637.279 77.1563C635.561 73.2359 645.473 71.1744 645.473 71.1744C645.473 71.1744 617.44 72.5486 619.098 77.2694C619.098 77.2694 610.307 77.0056 605.738 78.713C605.738 78.713 619.456 78.8664 619.228 80.5655C619.228 80.5655 602.786 79.867 601.73 82.0946C601.73 82.0946 626.492 82.1974 627.938 86.0264C627.938 86.027 627.938 86.0277 627.939 86.0285C622.833 85.4569 616.981 85.0084 610.321 84.7243L610.062 84.7137C597.886 84.2769 586.648 85.3173 579.826 87.5339C572.458 89.9256 572.316 92.9808 579.709 94.9482C583.015 95.8286 590.186 97.1042 603.518 96.96C603.519 96.96 603.522 96.9604 603.523 96.9604C615.313 97.8747 603.992 99.7794 603.992 99.7794C613.395 99.7027 619.572 99.2434 619.965 96.6494C626.239 96.4006 629.67 95.4358 629.552 95.1161C629.434 94.7971 626.909 94.1862 618.932 93.8458C618.931 92.7337 616.103 91.0149 601.294 90.9677C606.149 91.2757 609.732 92.9497 604.006 93.619C599.868 93.7309 595.006 93.6856 592.475 93.0265C589.173 92.1678 589.653 90.4788 593.507 89.1911C595.539 88.5129 600.083 87.427 607.908 87.6991C631.609 88.7397 639.799 92.4834 639.539 95.4603C639.253 98.823 628.564 102.359 605.322 102.454C589.286 102.52 576.247 101.125 568.717 98.5732C558.333 95.0472 560.865 90.0479 574.749 85.2873C583.128 82.4117 590.97 79.8351 598.372 77.4025V77.4025Z" fill="white"/>
</svg>
