<svg width="600" height="600" viewBox="0 0 600 600" fill="none" xmlns="http://www.w3.org/2000/svg">
<path d="M506.16 330.587C511.092 298.187 507.565 264.827 498.961 233.387C491.233 205.175 481.489 176.207 458.809 156.395C431.329 132.395 397.02 129.263 362.196 133.331C293.28 141.359 273.6 111.839 222.612 113.627C171.624 115.415 126.9 136.883 112.584 180.719C98.2685 224.555 120.636 270.179 109.896 296.111C99.1565 322.043 68.7485 347.999 86.6405 385.571C104.532 423.143 143.892 452.663 235.2 459.815C326.508 466.967 406.057 470.555 457.945 423.143C486.001 397.451 500.905 365.075 506.16 330.587Z" fill="#462683"/>
<path d="M506.039 331.038C510.971 298.638 507.443 265.278 498.839 233.838C491.111 205.626 481.367 176.658 458.687 156.846C431.207 132.846 396.899 129.714 362.075 133.782C293.159 141.81 273.479 112.29 222.491 114.078C171.503 115.866 126.779 137.334 112.463 181.17C98.1474 225.006 120.515 270.63 109.775 296.562C99.0354 322.494 68.6274 348.45 86.5194 386.022C104.411 423.594 143.771 453.114 235.079 460.266C326.387 467.418 405.935 471.006 457.823 423.594C485.879 397.902 500.783 365.526 506.039 331.038Z" fill="#FAB748"/>
<path d="M191.305 159.694C190.957 159.695 190.622 159.56 190.371 159.318C190.12 159.076 189.973 158.746 189.961 158.398V142.246C189.961 141.89 190.103 141.548 190.355 141.296C190.607 141.044 190.948 140.902 191.305 140.902C191.661 140.902 192.003 141.044 192.255 141.296C192.507 141.548 192.649 141.89 192.649 142.246V158.398C192.636 158.746 192.489 159.076 192.239 159.318C191.988 159.56 191.653 159.695 191.305 159.694Z" fill="#462683"/>
<path d="M199.356 151.643H183.252C183.066 151.661 182.878 151.639 182.7 151.58C182.523 151.521 182.359 151.425 182.221 151.299C182.082 151.173 181.972 151.02 181.896 150.848C181.82 150.677 181.781 150.492 181.781 150.305C181.781 150.118 181.82 149.933 181.896 149.761C181.972 149.59 182.082 149.437 182.221 149.311C182.359 149.185 182.523 149.089 182.7 149.03C182.878 148.971 183.066 148.949 183.252 148.967H199.356C199.542 148.949 199.73 148.971 199.908 149.03C200.086 149.089 200.249 149.185 200.387 149.311C200.526 149.437 200.636 149.59 200.712 149.761C200.788 149.933 200.827 150.118 200.827 150.305C200.827 150.492 200.788 150.677 200.712 150.848C200.636 151.02 200.526 151.173 200.387 151.299C200.249 151.425 200.086 151.521 199.908 151.58C199.73 151.639 199.542 151.661 199.356 151.643Z" fill="#462683"/>
<path d="M479.352 352.03C478.995 352.03 478.654 351.889 478.401 351.637C478.149 351.385 478.008 351.043 478.008 350.686V338.158C478.008 337.802 478.149 337.46 478.401 337.208C478.654 336.956 478.995 336.814 479.352 336.814C479.708 336.814 480.05 336.956 480.302 337.208C480.554 337.46 480.696 337.802 480.696 338.158V350.686C480.696 351.043 480.554 351.385 480.302 351.637C480.05 351.889 479.708 352.03 479.352 352.03Z" fill="#462683"/>
<path d="M485.618 345.768H473.09C472.734 345.768 472.392 345.626 472.14 345.374C471.888 345.122 471.746 344.781 471.746 344.424C471.746 344.068 471.888 343.726 472.14 343.474C472.392 343.222 472.734 343.08 473.09 343.08H485.618C485.975 343.08 486.316 343.222 486.568 343.474C486.82 343.726 486.962 344.068 486.962 344.424C486.962 344.781 486.82 345.122 486.568 345.374C486.316 345.626 485.975 345.768 485.618 345.768Z" fill="#462683"/>
<path d="M110.403 365.447C110.046 365.447 109.704 365.305 109.452 365.053C109.2 364.801 109.059 364.46 109.059 364.103V356.051C109.059 355.695 109.2 355.353 109.452 355.101C109.704 354.849 110.046 354.707 110.403 354.707C110.759 354.707 111.101 354.849 111.353 355.101C111.605 355.353 111.747 355.695 111.747 356.051V364.103C111.747 364.46 111.605 364.801 111.353 365.053C111.101 365.305 110.759 365.447 110.403 365.447Z" fill="#462683"/>
<path d="M114.374 361.414H106.322C106.136 361.432 105.948 361.411 105.77 361.351C105.593 361.292 105.43 361.197 105.291 361.071C105.153 360.945 105.042 360.791 104.966 360.62C104.891 360.449 104.852 360.264 104.852 360.076C104.852 359.889 104.891 359.704 104.966 359.533C105.042 359.362 105.153 359.208 105.291 359.082C105.43 358.956 105.593 358.861 105.77 358.801C105.948 358.742 106.136 358.721 106.322 358.738H114.374C114.561 358.721 114.749 358.742 114.926 358.801C115.104 358.861 115.267 358.956 115.406 359.082C115.544 359.208 115.655 359.362 115.73 359.533C115.806 359.704 115.845 359.889 115.845 360.076C115.845 360.264 115.806 360.449 115.73 360.62C115.655 360.791 115.544 360.945 115.406 361.071C115.267 361.197 115.104 361.292 114.926 361.351C114.749 361.411 114.561 361.432 114.374 361.414Z" fill="#462683"/>
<path d="M142.549 173.568C142.195 173.565 141.856 173.422 141.606 173.17C141.357 172.918 141.217 172.578 141.217 172.224V164.172C141.199 163.986 141.221 163.798 141.28 163.62C141.339 163.443 141.435 163.279 141.561 163.141C141.687 163.002 141.84 162.892 142.011 162.816C142.183 162.74 142.368 162.701 142.555 162.701C142.742 162.701 142.927 162.74 143.098 162.816C143.27 162.892 143.423 163.002 143.549 163.141C143.675 163.279 143.771 163.443 143.83 163.62C143.889 163.798 143.911 163.986 143.893 164.172V172.224C143.893 172.58 143.751 172.922 143.499 173.174C143.247 173.426 142.905 173.568 142.549 173.568Z" fill="#462683"/>
<path d="M146.58 169.536H138.528C138.171 169.536 137.829 169.394 137.577 169.142C137.325 168.89 137.184 168.548 137.184 168.192C137.184 167.835 137.325 167.493 137.577 167.241C137.829 166.989 138.171 166.848 138.528 166.848H146.58C146.936 166.848 147.278 166.989 147.53 167.241C147.782 167.493 147.924 167.835 147.924 168.192C147.924 168.548 147.782 168.89 147.53 169.142C147.278 169.394 146.936 169.536 146.58 169.536Z" fill="#462683"/>
<path d="M348.746 394.068C348.392 394.065 348.053 393.922 347.803 393.67C347.554 393.419 347.414 393.079 347.414 392.724V384.672C347.446 384.339 347.6 384.03 347.848 383.805C348.095 383.58 348.418 383.455 348.752 383.455C349.087 383.455 349.409 383.58 349.656 383.805C349.904 384.03 350.058 384.339 350.09 384.672V392.724C350.09 393.081 349.948 393.423 349.696 393.675C349.444 393.927 349.102 394.068 348.746 394.068Z" fill="#462683"/>
<path d="M352.802 389.999H344.75C344.394 389.999 344.052 389.857 343.8 389.605C343.548 389.353 343.406 389.011 343.406 388.655C343.406 388.298 343.548 387.956 343.8 387.704C344.052 387.452 344.394 387.311 344.75 387.311H352.802C353.159 387.311 353.501 387.452 353.753 387.704C354.005 387.956 354.146 388.298 354.146 388.655C354.146 389.011 354.005 389.353 353.753 389.605C353.501 389.857 353.159 389.999 352.802 389.999Z" fill="#462683"/>
<path d="M471.303 217.848C470.33 217.848 469.378 217.559 468.569 217.019C467.76 216.478 467.13 215.71 466.757 214.811C466.385 213.912 466.288 212.922 466.477 211.968C466.667 211.014 467.136 210.137 467.824 209.449C468.512 208.761 469.389 208.292 470.343 208.102C471.297 207.913 472.287 208.01 473.186 208.382C474.085 208.755 474.853 209.385 475.394 210.194C475.934 211.003 476.223 211.955 476.223 212.928C476.22 214.232 475.7 215.481 474.778 216.403C473.856 217.325 472.607 217.845 471.303 217.848ZM471.303 210.648C470.859 210.648 470.425 210.779 470.056 211.026C469.687 211.273 469.399 211.623 469.23 212.033C469.06 212.443 469.015 212.894 469.102 213.33C469.188 213.765 469.402 214.165 469.716 214.479C470.03 214.792 470.43 215.006 470.865 215.093C471.3 215.179 471.751 215.135 472.162 214.965C472.572 214.795 472.922 214.508 473.169 214.139C473.415 213.769 473.547 213.336 473.547 212.892C473.537 212.303 473.297 211.741 472.877 211.328C472.457 210.915 471.892 210.684 471.303 210.684V210.648Z" fill="#462683"/>
<path d="M366.638 155.219C365.311 155.219 364.014 154.825 362.911 154.088C361.808 153.351 360.948 152.304 360.44 151.078C359.933 149.852 359.8 148.503 360.059 147.202C360.317 145.901 360.956 144.706 361.894 143.767C362.833 142.829 364.028 142.19 365.329 141.932C366.63 141.673 367.979 141.806 369.205 142.313C370.43 142.821 371.478 143.681 372.215 144.784C372.952 145.887 373.346 147.184 373.346 148.511C373.346 150.29 372.639 151.996 371.381 153.254C370.123 154.512 368.417 155.219 366.638 155.219ZM366.638 144.491C365.84 144.491 365.06 144.728 364.396 145.171C363.733 145.615 363.216 146.245 362.911 146.983C362.607 147.72 362.528 148.531 362.684 149.314C362.841 150.096 363.226 150.815 363.791 151.378C364.356 151.941 365.076 152.324 365.858 152.479C366.641 152.633 367.452 152.551 368.189 152.244C368.926 151.937 369.554 151.419 369.996 150.754C370.438 150.089 370.672 149.309 370.67 148.511C370.67 147.982 370.565 147.458 370.363 146.97C370.16 146.481 369.863 146.037 369.488 145.664C369.113 145.29 368.669 144.995 368.18 144.793C367.691 144.592 367.167 144.489 366.638 144.491Z" fill="#462683"/>
<path d="M250.345 375.287C249.018 375.287 247.721 374.894 246.618 374.157C245.515 373.42 244.655 372.372 244.147 371.146C243.64 369.92 243.507 368.572 243.766 367.27C244.024 365.969 244.663 364.774 245.601 363.836C246.54 362.898 247.735 362.259 249.036 362C250.337 361.741 251.686 361.874 252.912 362.382C254.137 362.889 255.185 363.749 255.922 364.852C256.659 365.955 257.053 367.252 257.053 368.579C257.05 370.357 256.342 372.062 255.084 373.319C253.827 374.576 252.123 375.284 250.345 375.287ZM250.345 364.547C249.547 364.547 248.768 364.784 248.105 365.227C247.442 365.67 246.925 366.299 246.62 367.036C246.314 367.773 246.235 368.584 246.39 369.366C246.546 370.148 246.93 370.866 247.494 371.43C248.058 371.994 248.776 372.378 249.558 372.534C250.34 372.689 251.151 372.609 251.888 372.304C252.624 371.999 253.254 371.482 253.697 370.819C254.14 370.156 254.377 369.377 254.377 368.579C254.377 368.05 254.272 367.525 254.07 367.036C253.867 366.547 253.57 366.102 253.196 365.728C252.821 365.354 252.377 365.057 251.888 364.854C251.399 364.651 250.874 364.547 250.345 364.547Z" fill="#462683"/>
<path d="M191.305 159.694C190.957 159.695 190.622 159.56 190.371 159.318C190.12 159.076 189.973 158.746 189.961 158.398V142.246C189.961 141.89 190.103 141.548 190.355 141.296C190.607 141.044 190.948 140.902 191.305 140.902C191.661 140.902 192.003 141.044 192.255 141.296C192.507 141.548 192.649 141.89 192.649 142.246V158.398C192.636 158.746 192.489 159.076 192.239 159.318C191.988 159.56 191.653 159.695 191.305 159.694Z" fill="white"/>
<path d="M199.36 151.643H183.256C183.07 151.661 182.882 151.639 182.704 151.58C182.527 151.521 182.363 151.425 182.225 151.299C182.086 151.173 181.976 151.02 181.9 150.848C181.824 150.677 181.785 150.492 181.785 150.305C181.785 150.118 181.824 149.933 181.9 149.761C181.976 149.59 182.086 149.437 182.225 149.311C182.363 149.185 182.527 149.089 182.704 149.03C182.882 148.971 183.07 148.949 183.256 148.967H199.36C199.546 148.949 199.734 148.971 199.912 149.03C200.09 149.089 200.253 149.185 200.391 149.311C200.53 149.437 200.64 149.59 200.716 149.761C200.792 149.933 200.831 150.118 200.831 150.305C200.831 150.492 200.792 150.677 200.716 150.848C200.64 151.02 200.53 151.173 200.391 151.299C200.253 151.425 200.09 151.521 199.912 151.58C199.734 151.639 199.546 151.661 199.36 151.643Z" fill="white"/>
<path d="M479.356 352.03C478.999 352.03 478.657 351.889 478.405 351.637C478.153 351.385 478.012 351.043 478.012 350.686V338.158C478.012 337.802 478.153 337.46 478.405 337.208C478.657 336.956 478.999 336.814 479.356 336.814C479.712 336.814 480.054 336.956 480.306 337.208C480.558 337.46 480.7 337.802 480.7 338.158V350.686C480.7 351.043 480.558 351.385 480.306 351.637C480.054 351.889 479.712 352.03 479.356 352.03Z" fill="white"/>
<path d="M485.618 345.766H473.09C472.734 345.766 472.392 345.625 472.14 345.372C471.888 345.12 471.746 344.779 471.746 344.422C471.746 344.066 471.888 343.724 472.14 343.472C472.392 343.22 472.734 343.078 473.09 343.078H485.618C485.975 343.078 486.316 343.22 486.568 343.472C486.82 343.724 486.962 344.066 486.962 344.422C486.962 344.779 486.82 345.12 486.568 345.372C486.316 345.625 485.975 345.766 485.618 345.766Z" fill="white"/>
<path d="M110.403 365.447C110.046 365.447 109.704 365.305 109.452 365.053C109.2 364.801 109.059 364.46 109.059 364.103V356.051C109.059 355.695 109.2 355.353 109.452 355.101C109.704 354.849 110.046 354.707 110.403 354.707C110.759 354.707 111.101 354.849 111.353 355.101C111.605 355.353 111.747 355.695 111.747 356.051V364.103C111.747 364.46 111.605 364.801 111.353 365.053C111.101 365.305 110.759 365.447 110.403 365.447Z" fill="white"/>
<path d="M114.374 361.414H106.322C106.136 361.432 105.948 361.411 105.77 361.351C105.593 361.292 105.43 361.197 105.291 361.071C105.153 360.945 105.042 360.791 104.966 360.62C104.891 360.449 104.852 360.264 104.852 360.076C104.852 359.889 104.891 359.704 104.966 359.533C105.042 359.362 105.153 359.208 105.291 359.082C105.43 358.956 105.593 358.861 105.77 358.801C105.948 358.742 106.136 358.721 106.322 358.738H114.374C114.561 358.721 114.749 358.742 114.926 358.801C115.104 358.861 115.267 358.956 115.406 359.082C115.544 359.208 115.655 359.362 115.73 359.533C115.806 359.704 115.845 359.889 115.845 360.076C115.845 360.264 115.806 360.449 115.73 360.62C115.655 360.791 115.544 360.945 115.406 361.071C115.267 361.197 115.104 361.292 114.926 361.351C114.749 361.411 114.561 361.432 114.374 361.414Z" fill="white"/>
<path d="M142.549 173.566C142.195 173.563 141.856 173.42 141.606 173.168C141.357 172.916 141.217 172.576 141.217 172.222V164.17C141.199 163.984 141.221 163.796 141.28 163.618C141.339 163.441 141.435 163.277 141.561 163.139C141.687 163 141.84 162.89 142.011 162.814C142.183 162.738 142.368 162.699 142.555 162.699C142.742 162.699 142.927 162.738 143.098 162.814C143.27 162.89 143.423 163 143.549 163.139C143.675 163.277 143.771 163.441 143.83 163.618C143.889 163.796 143.911 163.984 143.893 164.17V172.222C143.893 172.579 143.751 172.92 143.499 173.172C143.247 173.424 142.905 173.566 142.549 173.566Z" fill="white"/>
<path d="M146.584 169.534H138.532C138.175 169.534 137.833 169.392 137.581 169.14C137.329 168.888 137.188 168.546 137.188 168.19C137.188 167.833 137.329 167.491 137.581 167.239C137.833 166.987 138.175 166.846 138.532 166.846H146.584C146.94 166.846 147.282 166.987 147.534 167.239C147.786 167.491 147.927 167.833 147.927 168.19C147.927 168.546 147.786 168.888 147.534 169.14C147.282 169.392 146.94 169.534 146.584 169.534Z" fill="white"/>
<path d="M348.746 394.066C348.392 394.063 348.053 393.92 347.803 393.668C347.554 393.417 347.414 393.077 347.414 392.722V384.67C347.446 384.337 347.6 384.028 347.848 383.803C348.095 383.578 348.418 383.453 348.752 383.453C349.087 383.453 349.409 383.578 349.656 383.803C349.904 384.028 350.058 384.337 350.09 384.67V392.722C350.09 393.079 349.948 393.421 349.696 393.673C349.444 393.925 349.102 394.066 348.746 394.066Z" fill="white"/>
<path d="M352.802 389.999H344.75C344.394 389.999 344.052 389.857 343.8 389.605C343.548 389.353 343.406 389.011 343.406 388.655C343.406 388.298 343.548 387.956 343.8 387.704C344.052 387.452 344.394 387.311 344.75 387.311H352.802C353.159 387.311 353.501 387.452 353.753 387.704C354.005 387.956 354.146 388.298 354.146 388.655C354.146 389.011 354.005 389.353 353.753 389.605C353.501 389.857 353.159 389.999 352.802 389.999Z" fill="white"/>
<path d="M471.303 217.846C470.33 217.846 469.378 217.557 468.569 217.017C467.76 216.476 467.13 215.708 466.757 214.809C466.385 213.91 466.288 212.92 466.477 211.966C466.667 211.012 467.136 210.135 467.824 209.447C468.512 208.759 469.389 208.29 470.343 208.1C471.297 207.911 472.287 208.008 473.186 208.38C474.085 208.753 474.853 209.383 475.394 210.192C475.934 211.002 476.223 211.953 476.223 212.926C476.22 214.23 475.7 215.479 474.778 216.401C473.856 217.323 472.607 217.843 471.303 217.846ZM471.303 210.646C470.859 210.646 470.425 210.777 470.056 211.024C469.687 211.271 469.399 211.621 469.23 212.031C469.06 212.441 469.015 212.892 469.102 213.328C469.188 213.763 469.402 214.163 469.716 214.477C470.03 214.79 470.43 215.004 470.865 215.091C471.3 215.177 471.751 215.133 472.162 214.963C472.572 214.793 472.922 214.506 473.169 214.137C473.415 213.768 473.547 213.334 473.547 212.89C473.537 212.301 473.297 211.739 472.877 211.326C472.457 210.913 471.892 210.682 471.303 210.682V210.646Z" fill="white"/>
<path d="M366.638 155.219C365.311 155.219 364.014 154.825 362.911 154.088C361.808 153.351 360.948 152.304 360.44 151.078C359.933 149.852 359.8 148.503 360.059 147.202C360.317 145.901 360.956 144.706 361.894 143.767C362.833 142.829 364.028 142.19 365.329 141.932C366.63 141.673 367.979 141.806 369.205 142.313C370.43 142.821 371.478 143.681 372.215 144.784C372.952 145.887 373.346 147.184 373.346 148.511C373.346 150.29 372.639 151.996 371.381 153.254C370.123 154.512 368.417 155.219 366.638 155.219ZM366.638 144.491C365.84 144.491 365.06 144.728 364.396 145.171C363.733 145.615 363.216 146.245 362.911 146.983C362.607 147.72 362.528 148.531 362.684 149.314C362.841 150.096 363.226 150.815 363.791 151.378C364.356 151.941 365.076 152.324 365.858 152.479C366.641 152.633 367.452 152.551 368.189 152.244C368.926 151.937 369.554 151.419 369.996 150.754C370.438 150.089 370.672 149.309 370.67 148.511C370.67 147.982 370.565 147.458 370.363 146.97C370.16 146.481 369.863 146.037 369.488 145.664C369.113 145.29 368.669 144.995 368.18 144.793C367.691 144.592 367.167 144.489 366.638 144.491Z" fill="white"/>
<path d="M250.345 375.287C249.018 375.287 247.721 374.894 246.618 374.157C245.515 373.42 244.655 372.372 244.147 371.146C243.64 369.92 243.507 368.572 243.766 367.27C244.024 365.969 244.663 364.774 245.601 363.836C246.54 362.898 247.735 362.259 249.036 362C250.337 361.741 251.686 361.874 252.912 362.382C254.137 362.889 255.185 363.749 255.922 364.852C256.659 365.955 257.053 367.252 257.053 368.579C257.05 370.357 256.342 372.062 255.084 373.319C253.827 374.576 252.123 375.284 250.345 375.287ZM250.345 364.547C249.547 364.547 248.768 364.784 248.105 365.227C247.442 365.67 246.925 366.299 246.62 367.036C246.314 367.773 246.235 368.584 246.39 369.366C246.546 370.148 246.93 370.866 247.494 371.43C248.058 371.994 248.776 372.378 249.558 372.534C250.34 372.689 251.151 372.609 251.888 372.304C252.624 371.999 253.254 371.482 253.697 370.819C254.14 370.156 254.377 369.377 254.377 368.579C254.377 368.05 254.272 367.525 254.07 367.036C253.867 366.547 253.57 366.102 253.196 365.728C252.821 365.354 252.377 365.057 251.888 364.854C251.399 364.651 250.874 364.547 250.345 364.547Z" fill="white"/>
<path d="M255.911 138.659L254.027 132.863L252.143 138.659H246.035L250.967 142.247L249.083 148.055L254.027 144.467L258.959 148.055L257.075 142.247L262.019 138.659H255.911Z" fill="#462683"/>
<path d="M276.29 138.659L274.394 132.863L272.51 138.659H266.402L271.346 142.247L269.462 148.055L274.394 144.467L279.338 148.055L277.454 142.247L282.386 138.659H276.29Z" fill="#462683"/>
<path d="M296.653 138.659L294.769 132.863L292.885 138.659H286.777L291.709 142.247L289.825 148.055L294.769 144.467L299.701 148.055L297.817 142.247L302.761 138.659H296.653Z" fill="#462683"/>
<path d="M317.028 138.659L315.144 132.863L313.248 138.659H307.152L312.084 142.247L310.2 148.055L315.144 144.467L320.076 148.055L318.192 142.247L323.124 138.659H317.028Z" fill="#462683"/>
<path d="M343.5 138.659H337.392L335.508 132.863L333.624 138.659H327.516L332.46 142.247L330.576 148.055L335.508 144.467L340.452 148.055L338.556 142.247L343.5 138.659Z" fill="#462683"/>
<path d="M255.911 138.659L254.027 132.863L252.143 138.659H246.035L250.967 142.247L249.083 148.055L254.027 144.467L258.959 148.055L257.075 142.247L262.019 138.659H255.911Z" fill="white"/>
<path d="M276.286 138.659L274.39 132.863L272.506 138.659H266.398L271.342 142.247L269.458 148.055L274.39 144.467L279.334 148.055L277.45 142.247L282.382 138.659H276.286Z" fill="white"/>
<path d="M296.649 138.659L294.765 132.863L292.881 138.659H286.773L291.705 142.247L289.821 148.055L294.765 144.467L299.697 148.055L297.813 142.247L302.757 138.659H296.649Z" fill="white"/>
<path d="M317.028 138.659L315.144 132.863L313.248 138.659H307.152L312.084 142.247L310.2 148.055L315.144 144.467L320.076 148.055L318.192 142.247L323.124 138.659H317.028Z" fill="white"/>
<path d="M343.5 138.659H337.392L335.508 132.863L333.624 138.659H327.516L332.46 142.247L330.576 148.055L335.508 144.467L340.452 148.055L338.556 142.247L343.5 138.659Z" fill="white"/>
<path d="M518.402 379.668C513.278 376.152 505.61 375.564 505.61 375.564C512.985 374.611 520.478 375.212 527.606 377.328C527.606 377.328 520.406 372.048 515.33 372.048C510.254 372.048 502.034 371.46 502.034 371.46C505.106 367.944 516.35 363.84 516.35 363.84C512.422 363.82 508.496 364.017 504.59 364.428C500.99 365.016 499.994 369.12 499.994 369.12C499.994 369.12 498.962 366.72 491.294 365.016C483.626 363.312 481.586 369.12 481.586 369.12H488.786C491.342 369.12 494.918 372.636 494.918 372.636C494.918 372.636 486.746 372.636 483.674 374.4C481.034 375.912 477.674 382.188 476.75 383.916C478.852 373.105 481.838 362.486 485.678 352.164L485.882 352.008C488.42 350.262 490.826 348.333 493.082 346.236L501.722 360.636L501.002 348.384C501.002 348.384 508.202 350.556 510.374 352.716C512.546 354.876 519.026 362.076 519.026 362.076C519.026 362.076 516.146 351.276 512.534 347.676C509.381 344.777 506.007 342.129 502.442 339.756C502.442 339.756 510.374 339.756 513.242 341.196C516.11 342.636 524.774 348.396 524.774 348.396C524.774 348.396 519.014 338.316 514.682 336.144C510.35 333.972 498.83 333.984 498.83 333.984C498.83 333.984 503.882 329.664 507.482 329.664H517.574C517.574 329.664 514.682 322.464 503.882 324.624C493.082 326.784 491.63 329.664 491.63 329.664C491.63 329.664 490.178 324.624 485.138 323.892C480.098 323.16 468.566 323.172 468.566 323.172C468.566 323.172 484.418 328.224 488.738 332.544C488.738 332.544 477.206 333.264 470.006 333.264C462.806 333.264 452.714 339.756 452.714 339.756C452.714 339.756 467.846 335.424 483.698 337.596C483.698 337.596 472.898 338.316 465.698 342.636C458.498 346.956 451.298 357.036 451.298 357.036C455.584 352.986 460.777 350.019 466.442 348.384C475.082 346.224 487.334 343.344 487.334 343.344C487.334 343.344 475.082 353.436 473.642 358.476C472.037 363.166 470.113 367.741 467.882 372.168C467.882 372.168 478.214 358.968 484.022 353.568C477.079 372.585 473.147 392.57 472.37 412.8C470.234 404.052 463.97 385.956 447.698 376.896C450.782 377.736 455.234 378.96 458.822 379.992C464.966 381.756 469.562 387.024 469.562 387.024C469.562 387.024 464.45 378.816 459.338 375.3C454.226 371.784 446.558 371.196 446.558 371.196C453.929 370.237 461.419 370.838 468.542 372.96C468.542 372.96 461.342 367.68 456.266 367.68C451.19 367.68 442.97 367.092 442.97 367.092C446.042 363.576 457.298 359.472 457.298 359.472C453.367 359.453 449.437 359.645 445.526 360.048C441.926 360.636 440.93 364.74 440.93 364.74C440.93 364.74 439.91 362.4 432.242 360.636C424.574 358.872 422.522 364.74 422.522 364.74H429.722C432.29 364.74 435.866 368.268 435.866 368.268C435.866 368.268 427.682 368.268 424.61 370.02C421.538 371.772 417.41 379.992 417.41 379.992C417.41 379.992 423.542 375.3 425.594 374.124C427.646 372.948 433.262 372.924 433.262 372.924C430.694 374.876 428.286 377.031 426.062 379.368C423.506 382.296 421.466 391.104 421.466 391.104C421.466 391.104 426.062 385.236 427.598 383.472C429.134 381.708 434.246 379.956 434.246 379.956L433.73 389.928L439.874 378.192C441.458 379.882 443.167 381.45 444.986 382.884C448.586 385.824 457.766 399.312 457.766 399.312C456.173 395.684 454.806 391.961 453.674 388.164C452.834 384.78 446.798 378.564 444.698 376.56C465.542 386.34 471.098 410.964 472.058 416.652H463.418L465.326 433.452H480.542L482.438 416.652H473.498C474.75 408.702 477.271 401.004 480.962 393.852C480.71 394.824 480.554 395.46 480.554 395.46C480.554 395.46 485.162 389.592 486.698 387.84C488.234 386.088 493.346 384.312 493.346 384.312L492.83 394.284L498.962 382.56C500.55 384.246 502.259 385.814 504.074 387.252C507.674 390.18 516.866 403.668 516.866 403.668C515.272 400.045 513.906 396.325 512.774 392.532C511.754 388.416 503.054 380.208 503.054 380.208C503.054 380.208 511.754 382.608 517.886 384.312C524.018 386.016 528.626 391.356 528.626 391.356C528.626 391.356 523.55 383.196 518.402 379.668ZM473.462 411.288C473.844 402.201 474.907 393.156 476.642 384.228C477.602 383.496 482.798 379.56 484.646 378.504C486.698 377.304 492.314 377.304 492.314 377.304C489.747 379.257 487.339 381.412 485.114 383.748C483.825 385.546 482.844 387.545 482.21 389.664C478.078 396.314 475.13 403.63 473.498 411.288H473.462Z" fill="#462683"/>
<path d="M518.402 379.668C513.278 376.152 505.61 375.564 505.61 375.564C512.985 374.611 520.478 375.212 527.606 377.328C527.606 377.328 520.406 372.048 515.33 372.048C510.254 372.048 502.034 371.46 502.034 371.46C505.106 367.944 516.35 363.84 516.35 363.84C512.422 363.82 508.496 364.017 504.59 364.428C500.99 365.016 499.994 369.12 499.994 369.12C499.994 369.12 498.962 366.72 491.294 365.016C483.626 363.312 481.586 369.12 481.586 369.12H488.786C491.342 369.12 494.918 372.636 494.918 372.636C494.918 372.636 486.746 372.636 483.674 374.4C481.034 375.912 477.674 382.188 476.75 383.916C478.852 373.105 481.838 362.486 485.678 352.164L485.882 352.008C488.42 350.262 490.826 348.333 493.082 346.236L501.722 360.636L501.002 348.384C501.002 348.384 508.202 350.556 510.374 352.716C512.546 354.876 519.026 362.076 519.026 362.076C519.026 362.076 516.146 351.276 512.534 347.676C509.381 344.777 506.007 342.129 502.442 339.756C502.442 339.756 510.374 339.756 513.242 341.196C516.11 342.636 524.774 348.396 524.774 348.396C524.774 348.396 519.014 338.316 514.682 336.144C510.35 333.972 498.83 333.984 498.83 333.984C498.83 333.984 503.882 329.664 507.482 329.664H517.574C517.574 329.664 514.682 322.464 503.882 324.624C493.082 326.784 491.63 329.664 491.63 329.664C491.63 329.664 490.178 324.624 485.138 323.892C480.098 323.16 468.566 323.172 468.566 323.172C468.566 323.172 484.418 328.224 488.738 332.544C488.738 332.544 477.206 333.264 470.006 333.264C462.806 333.264 452.714 339.756 452.714 339.756C452.714 339.756 467.846 335.424 483.698 337.596C483.698 337.596 472.898 338.316 465.698 342.636C458.498 346.956 451.298 357.036 451.298 357.036C455.584 352.986 460.777 350.019 466.442 348.384C475.082 346.224 487.334 343.344 487.334 343.344C487.334 343.344 475.082 353.436 473.642 358.476C472.037 363.166 470.113 367.741 467.882 372.168C467.882 372.168 478.214 358.968 484.022 353.568C477.079 372.585 473.147 392.57 472.37 412.8C470.234 404.052 463.97 385.956 447.698 376.896C450.782 377.736 455.234 378.96 458.822 379.992C464.966 381.756 469.562 387.024 469.562 387.024C469.562 387.024 464.45 378.816 459.338 375.3C454.226 371.784 446.558 371.196 446.558 371.196C453.929 370.237 461.419 370.838 468.542 372.96C468.542 372.96 461.342 367.68 456.266 367.68C451.19 367.68 442.97 367.092 442.97 367.092C446.042 363.576 457.298 359.472 457.298 359.472C453.367 359.453 449.437 359.645 445.526 360.048C441.926 360.636 440.93 364.74 440.93 364.74C440.93 364.74 439.91 362.4 432.242 360.636C424.574 358.872 422.522 364.74 422.522 364.74H429.722C432.29 364.74 435.866 368.268 435.866 368.268C435.866 368.268 427.682 368.268 424.61 370.02C421.538 371.772 417.41 379.992 417.41 379.992C417.41 379.992 423.542 375.3 425.594 374.124C427.646 372.948 433.262 372.924 433.262 372.924C430.694 374.876 428.286 377.031 426.062 379.368C423.506 382.296 421.466 391.104 421.466 391.104C421.466 391.104 426.062 385.236 427.598 383.472C429.134 381.708 434.246 379.956 434.246 379.956L433.73 389.928L439.874 378.192C441.458 379.882 443.167 381.45 444.986 382.884C448.586 385.824 457.766 399.312 457.766 399.312C456.173 395.684 454.806 391.961 453.674 388.164C452.834 384.78 446.798 378.564 444.698 376.56C465.542 386.34 471.098 410.964 472.058 416.652H463.418L465.326 433.452H480.542L482.438 416.652H473.498C474.75 408.702 477.271 401.004 480.962 393.852C480.71 394.824 480.554 395.46 480.554 395.46C480.554 395.46 485.162 389.592 486.698 387.84C488.234 386.088 493.346 384.312 493.346 384.312L492.83 394.284L498.962 382.56C500.55 384.246 502.259 385.814 504.074 387.252C507.674 390.18 516.866 403.668 516.866 403.668C515.272 400.045 513.906 396.325 512.774 392.532C511.754 388.416 503.054 380.208 503.054 380.208C503.054 380.208 511.754 382.608 517.886 384.312C524.018 386.016 528.626 391.356 528.626 391.356C528.626 391.356 523.55 383.196 518.402 379.668ZM473.462 411.288C473.844 402.201 474.907 393.156 476.642 384.228C477.602 383.496 482.798 379.56 484.646 378.504C486.698 377.304 492.314 377.304 492.314 377.304C489.747 379.257 487.339 381.412 485.114 383.748C483.825 385.546 482.844 387.545 482.21 389.664C478.078 396.314 475.13 403.63 473.498 411.288H473.462Z" fill="#462683"/>
<path d="M184.321 379.668C179.197 376.152 171.529 375.564 171.529 375.564C178.904 374.611 186.396 375.212 193.525 377.328C193.525 377.328 186.325 372.048 181.249 372.048C176.173 372.048 167.953 371.46 167.953 371.46C171.025 367.944 182.269 363.84 182.269 363.84C178.341 363.82 174.415 364.017 170.509 364.428C166.909 365.016 165.913 369.12 165.913 369.12C165.913 369.12 164.881 366.72 157.213 365.016C149.545 363.312 147.493 369.12 147.493 369.12H154.693C157.249 369.12 160.825 372.636 160.825 372.636C160.825 372.636 152.653 372.636 149.581 374.4C146.941 375.912 143.581 382.188 142.657 383.916C144.753 373.104 147.739 362.484 151.585 352.164L151.789 352.008C154.323 350.258 156.729 348.329 158.989 346.236L167.629 360.636L166.909 348.384C166.909 348.384 174.109 350.556 176.281 352.716C178.453 354.876 184.933 362.076 184.933 362.076C184.933 362.076 182.041 351.276 178.441 347.676C175.288 344.777 171.914 342.129 168.349 339.756C168.349 339.756 176.281 339.756 179.149 341.196C182.017 342.636 190.681 348.396 190.681 348.396C190.681 348.396 184.921 338.316 180.589 336.144C176.257 333.972 164.737 333.984 164.737 333.984C164.737 333.984 169.777 329.664 173.389 329.664H183.481C183.481 329.664 180.589 322.464 169.777 324.624C158.965 326.784 157.537 329.664 157.537 329.664C157.537 329.664 156.085 324.624 151.045 323.892C146.005 323.16 134.473 323.172 134.473 323.172C134.473 323.172 150.325 328.224 154.645 332.544C154.645 332.544 143.113 333.264 135.913 333.264C128.713 333.264 118.609 339.756 118.609 339.756C118.609 339.756 133.753 335.424 149.605 337.596C149.605 337.596 138.805 338.316 131.605 342.636C124.405 346.956 117.205 357.036 117.205 357.036C121.491 352.986 126.683 350.019 132.349 348.384C140.989 346.224 153.241 343.344 153.241 343.344C153.241 343.344 140.989 353.436 139.549 358.476C137.944 363.166 136.019 367.741 133.789 372.168C133.789 372.168 144.121 358.968 149.929 353.568C142.977 372.584 139.038 392.568 138.253 412.8C136.117 404.052 129.853 385.956 113.581 376.896C116.665 377.736 121.117 378.96 124.705 379.992C130.849 381.756 135.505 387.024 135.505 387.024C135.505 387.024 130.393 378.816 125.281 375.3C120.169 371.784 112.501 371.196 112.501 371.196C119.847 370.264 127.308 370.881 134.401 373.008C134.401 373.008 127.201 367.728 122.125 367.728C117.049 367.728 108.853 367.2 108.853 367.2C111.925 363.684 123.169 359.58 123.169 359.58C119.241 359.561 115.316 359.753 111.409 360.156C107.833 360.684 106.801 364.8 106.801 364.8C106.801 364.8 105.781 362.46 98.101 360.696C90.421 358.932 88.405 364.8 88.405 364.8H95.605C98.161 364.8 101.749 368.328 101.749 368.328C101.749 368.328 93.565 368.328 90.493 370.08C87.421 371.832 83.293 380.052 83.293 380.052C83.293 380.052 89.425 375.36 91.477 374.184C93.529 373.008 99.145 372.984 99.145 372.984C96.5765 374.936 94.1688 377.091 91.945 379.428C89.389 382.356 87.349 391.164 87.349 391.164C87.349 391.164 91.945 385.296 93.481 383.532C95.017 381.768 100.129 380.016 100.129 380.016L99.601 390L105.745 378.264C107.325 379.958 109.034 381.526 110.857 382.956C114.457 385.896 123.637 399.384 123.637 399.384C122.044 395.756 120.677 392.033 119.545 388.236C118.705 384.852 112.669 378.636 110.557 376.632C131.413 386.412 136.957 411.036 137.929 416.724H129.289L131.197 433.524H146.413L148.309 416.724H139.369C140.621 408.774 143.141 401.076 146.833 393.924C146.581 394.896 146.425 395.532 146.425 395.532C146.425 395.532 151.033 389.664 152.569 387.912C154.105 386.16 159.217 384.384 159.217 384.384L158.701 394.356L164.833 382.632C166.421 384.318 168.13 385.886 169.945 387.324C173.545 390.252 182.737 403.74 182.737 403.74C181.143 400.117 179.776 396.397 178.645 392.604C177.625 388.488 168.925 380.28 168.925 380.28C168.925 380.28 177.625 382.68 183.757 384.384C189.889 386.088 194.557 391.428 194.557 391.428C194.557 391.428 189.433 383.196 184.321 379.668ZM139.381 411.288C139.762 402.201 140.825 393.156 142.561 384.228C143.521 383.496 148.717 379.56 150.565 378.504C152.617 377.304 158.233 377.304 158.233 377.304C155.665 379.257 153.258 381.412 151.033 383.748C149.744 385.546 148.763 387.545 148.129 389.664C143.984 396.311 141.024 403.628 139.381 411.288Z" fill="#462683"/>
<path d="M184.321 379.668C179.197 376.152 171.529 375.564 171.529 375.564C178.904 374.611 186.396 375.212 193.525 377.328C193.525 377.328 186.325 372.048 181.249 372.048C176.173 372.048 167.953 371.46 167.953 371.46C171.025 367.944 182.269 363.84 182.269 363.84C178.341 363.82 174.415 364.017 170.509 364.428C166.909 365.016 165.913 369.12 165.913 369.12C165.913 369.12 164.881 366.72 157.213 365.016C149.545 363.312 147.493 369.12 147.493 369.12H154.693C157.249 369.12 160.825 372.636 160.825 372.636C160.825 372.636 152.653 372.636 149.581 374.4C146.941 375.912 143.581 382.188 142.657 383.916C144.753 373.104 147.739 362.484 151.585 352.164L151.789 352.008C154.323 350.258 156.729 348.329 158.989 346.236L167.629 360.636L166.909 348.384C166.909 348.384 174.109 350.556 176.281 352.716C178.453 354.876 184.933 362.076 184.933 362.076C184.933 362.076 182.041 351.276 178.441 347.676C175.288 344.777 171.914 342.129 168.349 339.756C168.349 339.756 176.281 339.756 179.149 341.196C182.017 342.636 190.681 348.396 190.681 348.396C190.681 348.396 184.921 338.316 180.589 336.144C176.257 333.972 164.737 333.984 164.737 333.984C164.737 333.984 169.777 329.664 173.389 329.664H183.481C183.481 329.664 180.589 322.464 169.777 324.624C158.965 326.784 157.537 329.664 157.537 329.664C157.537 329.664 156.085 324.624 151.045 323.892C146.005 323.16 134.473 323.172 134.473 323.172C134.473 323.172 150.325 328.224 154.645 332.544C154.645 332.544 143.113 333.264 135.913 333.264C128.713 333.264 118.609 339.756 118.609 339.756C118.609 339.756 133.753 335.424 149.605 337.596C149.605 337.596 138.805 338.316 131.605 342.636C124.405 346.956 117.205 357.036 117.205 357.036C121.491 352.986 126.683 350.019 132.349 348.384C140.989 346.224 153.241 343.344 153.241 343.344C153.241 343.344 140.989 353.436 139.549 358.476C137.944 363.166 136.019 367.741 133.789 372.168C133.789 372.168 144.121 358.968 149.929 353.568C142.977 372.584 139.038 392.568 138.253 412.8C136.117 404.052 129.853 385.956 113.581 376.896C116.665 377.736 121.117 378.96 124.705 379.992C130.849 381.756 135.505 387.024 135.505 387.024C135.505 387.024 130.393 378.816 125.281 375.3C120.169 371.784 112.501 371.196 112.501 371.196C119.847 370.264 127.308 370.881 134.401 373.008C134.401 373.008 127.201 367.728 122.125 367.728C117.049 367.728 108.853 367.2 108.853 367.2C111.925 363.684 123.169 359.58 123.169 359.58C119.241 359.561 115.316 359.753 111.409 360.156C107.833 360.684 106.801 364.8 106.801 364.8C106.801 364.8 105.781 362.46 98.101 360.696C90.421 358.932 88.405 364.8 88.405 364.8H95.605C98.161 364.8 101.749 368.328 101.749 368.328C101.749 368.328 93.565 368.328 90.493 370.08C87.421 371.832 83.293 380.052 83.293 380.052C83.293 380.052 89.425 375.36 91.477 374.184C93.529 373.008 99.145 372.984 99.145 372.984C96.5765 374.936 94.1688 377.091 91.945 379.428C89.389 382.356 87.349 391.164 87.349 391.164C87.349 391.164 91.945 385.296 93.481 383.532C95.017 381.768 100.129 380.016 100.129 380.016L99.601 390L105.745 378.264C107.325 379.958 109.034 381.526 110.857 382.956C114.457 385.896 123.637 399.384 123.637 399.384C122.044 395.756 120.677 392.033 119.545 388.236C118.705 384.852 112.669 378.636 110.557 376.632C131.413 386.412 136.957 411.036 137.929 416.724H129.289L131.197 433.524H146.413L148.309 416.724H139.369C140.621 408.774 143.141 401.076 146.833 393.924C146.581 394.896 146.425 395.532 146.425 395.532C146.425 395.532 151.033 389.664 152.569 387.912C154.105 386.16 159.217 384.384 159.217 384.384L158.701 394.356L164.833 382.632C166.421 384.318 168.13 385.886 169.945 387.324C173.545 390.252 182.737 403.74 182.737 403.74C181.143 400.117 179.776 396.397 178.645 392.604C177.625 388.488 168.925 380.28 168.925 380.28C168.925 380.28 177.625 382.68 183.757 384.384C189.889 386.088 194.557 391.428 194.557 391.428C194.557 391.428 189.433 383.196 184.321 379.668ZM139.381 411.288C139.762 402.201 140.825 393.156 142.561 384.228C143.521 383.496 148.717 379.56 150.565 378.504C152.617 377.304 158.233 377.304 158.233 377.304C155.665 379.257 153.258 381.412 151.033 383.748C149.744 385.546 148.763 387.545 148.129 389.664C143.984 396.311 141.024 403.628 139.381 411.288Z" fill="#462683"/>
<path d="M159.996 466.978C178.771 466.978 193.992 460.972 193.992 453.562C193.992 446.153 178.771 440.146 159.996 440.146C141.221 440.146 126 446.153 126 453.562C126 460.972 141.221 466.978 159.996 466.978Z" fill="#462683"/>
<path opacity="0.5" d="M159.996 466.978C178.771 466.978 193.992 460.972 193.992 453.562C193.992 446.153 178.771 440.146 159.996 440.146C141.221 440.146 126 446.153 126 453.562C126 460.972 141.221 466.978 159.996 466.978Z" fill="white"/>
<path d="M135.673 236.639C134.085 237.61 132.752 238.948 131.785 240.539C130.489 242.939 122.917 264.743 120.541 269.711C118.165 274.679 117.085 276.407 120.109 278.111C123.133 279.815 127.033 277.247 129.625 272.495C132.217 267.743 136.969 254.555 137.833 251.531C138.697 248.507 141.721 237.071 135.673 236.639Z" fill="#462683" stroke="#263238" stroke-linecap="round" stroke-linejoin="round"/>
<path d="M182.46 432.779L184.248 445.583L183.048 446.171L179.484 439.331L182.46 432.779Z" fill="#263238" stroke="#263238" stroke-linecap="round" stroke-linejoin="round"/>
<path d="M145.551 355.402C145.551 355.402 149.427 373.846 153.291 385.75C157.155 397.654 169.659 425.35 170.559 430.15C171.459 434.95 170.259 434.95 170.259 438.778C170.259 442.606 164.907 446.818 164.607 448.894C164.307 450.97 168.471 451.294 172.347 450.094C176.223 448.894 178.887 445.63 178.887 442.894C178.887 440.158 182.487 435.454 182.487 432.778C182.487 430.102 178.023 429.802 177.687 424.738C177.351 419.674 175.599 401.53 172.623 390.814C169.647 380.098 166.623 374.446 164.295 371.47C161.967 368.494 158.943 361.642 159.495 359.266C160.047 356.89 145.551 355.402 145.551 355.402Z" fill="#DFADAD" stroke="#263238" stroke-linecap="round" stroke-linejoin="round"/>
<path d="M178.885 442.895C178.885 440.219 182.485 435.455 182.485 432.779C182.485 431.651 181.693 430.943 180.745 430.127C179.425 433.667 176.737 439.799 172.657 443.195C170.125 445.319 168.457 445.283 167.401 444.671C166.081 446.363 164.773 447.851 164.629 448.847C164.329 450.935 168.493 451.247 172.369 450.047C176.245 448.847 178.885 445.583 178.885 442.895Z" fill="#263238" stroke="#263238" stroke-linecap="round" stroke-linejoin="round"/>
<path d="M152.401 359.566C152.401 359.566 151.201 369.382 151.201 375.634C151.201 381.886 147.601 423.106 146.401 430.99C145.285 438.646 143.125 442.006 141.937 446.17C140.749 450.334 139.537 454.81 137.473 455.998C135.409 457.186 137.473 458.398 141.073 458.074C144.673 457.75 148.273 455.998 148.513 452.722C148.753 449.446 151.645 446.566 153.577 445.282C157.177 442.882 152.689 435.754 157.741 420.274C159.973 413.482 165.481 404.506 166.669 394.09C167.857 383.674 165.781 374.146 165.781 371.77C165.781 369.394 167.869 360.454 167.869 360.454L152.401 359.566Z" fill="#DFADAD" stroke="#263238" stroke-linecap="round" stroke-linejoin="round"/>
<path d="M154.502 445.787C158.366 444.311 155.558 440.987 155.234 437.387C152.126 440.399 147.974 448.187 145.55 450.587C144.863 451.253 144.001 451.711 143.065 451.908C142.129 452.106 141.156 452.034 140.258 451.703C139.514 453.695 138.65 455.303 137.522 455.951C135.434 457.151 137.522 458.351 141.122 458.027C144.722 457.703 148.322 455.951 148.562 452.675C148.802 449.399 152.33 446.615 154.502 445.787Z" fill="#263238" stroke="#263238" stroke-linecap="round" stroke-linejoin="round"/>
<path d="M155.076 442.894L156 455.998H153.6L151.512 447.07C151.512 447.07 153.6 442.606 155.076 442.894Z" fill="#263238" stroke="#263238" stroke-linecap="round" stroke-linejoin="round"/>
<path d="M149.712 234.48L140.64 237.936C140.64 237.936 135.672 249.828 133.944 258.468C132.216 267.108 134.592 275.976 136.344 281.376C138.096 286.776 140.232 317.904 141.144 329.784C142.056 341.664 143.664 358.8 143.664 358.8C143.664 358.8 147.552 361.836 155.34 363.348C163.128 364.86 174.144 362.484 174.144 362.484C174.144 362.484 180.624 343.68 181.92 332.652C183.216 321.624 172.404 303.696 168.948 295.92C165.492 288.144 164.148 275.604 164.844 271.92C165.54 268.236 173.7 240.372 170.844 239.064C167.988 237.756 157.932 234 149.712 234.48Z" fill="#263238" stroke="#263238" stroke-linecap="round" stroke-linejoin="round"/>
<path d="M149.714 226.92C149.714 226.92 148.85 232.92 148.202 235.56C147.554 238.2 142.586 247.236 144.53 251.16C146.474 255.084 152.93 255.048 155.774 248.352C157.523 243.73 158.338 238.807 158.174 233.868L159.254 227.388C159.254 227.388 152.318 229.728 149.714 226.92Z" fill="#DFADAD" stroke="#263238" stroke-linecap="round" stroke-linejoin="round"/>
<path d="M176.089 217.415C175.579 216.55 174.793 215.881 173.857 215.516C172.922 215.15 171.891 215.109 170.929 215.399C174.841 212.171 177.313 206.939 173.485 199.475C168.685 190.175 157.501 192.347 157.501 192.347C155.394 192.252 153.301 192.722 151.437 193.71C149.574 194.697 148.009 196.166 146.905 197.963C143.017 204.227 145.177 212.867 148.417 215.255C151.417 217.439 160.825 219.803 166.513 217.955C163.189 221.399 161.041 226.355 164.113 230.675C164.719 231.629 165.542 232.426 166.513 233.003C167.485 233.58 168.578 233.921 169.706 233.997C170.833 234.073 171.963 233.882 173.003 233.441C174.043 232.999 174.965 232.319 175.693 231.455C179.545 226.919 178.465 221.519 176.089 217.415Z" fill="#263238" stroke="#263238" stroke-linecap="round" stroke-linejoin="round"/>
<path d="M149.184 215.734C149.184 215.734 146.58 211.438 145.92 214.402C145.26 217.366 146.508 219.598 147.372 220.15C147.876 220.475 148.484 220.599 149.076 220.498" fill="#DFADAD"/>
<path d="M149.184 215.734C149.184 215.734 146.58 211.438 145.92 214.402C145.26 217.366 146.508 219.598 147.372 220.15C147.876 220.475 148.484 220.599 149.076 220.498" stroke="#263238" stroke-linecap="round" stroke-linejoin="round"/>
<path d="M149.055 208.092C149.055 208.092 145.155 224.088 150.567 229.692C155.979 235.296 162.015 226.236 166.983 219.324L168.495 214.788C167.27 212.536 165.899 210.367 164.391 208.296C162.832 206.264 161.593 204.006 160.719 201.6C160.719 201.6 155.103 208.8 149.055 208.092Z" fill="#DFADAD" stroke="#263238" stroke-linecap="round" stroke-linejoin="round"/>
<path d="M165.675 219.42C165.675 219.42 170.175 217.176 169.143 220.032C168.111 222.888 165.879 224.124 164.859 224.124C164.255 224.126 163.671 223.908 163.215 223.512" fill="#DFADAD"/>
<path d="M165.675 219.42C165.675 219.42 170.175 217.176 169.143 220.032C168.111 222.888 165.879 224.124 164.859 224.124C164.255 224.126 163.671 223.908 163.215 223.512" stroke="#263238" stroke-linecap="round" stroke-linejoin="round"/>
<path d="M158.113 213.899C158.95 213.236 159.977 212.858 161.044 212.821C162.111 212.785 163.161 213.091 164.041 213.695" stroke="#263238" stroke-width="0.5" stroke-miterlimit="10"/>
<path d="M155.04 211.656C155.04 211.656 152.796 209.256 150.348 210.228" stroke="#263238" stroke-width="0.5" stroke-miterlimit="10"/>
<path d="M154.227 221.867L155.655 222.491" stroke="#263238" stroke-width="0.5" stroke-miterlimit="10"/>
<path d="M151.98 224.123C152.768 224.605 153.644 224.925 154.556 225.065C155.469 225.205 156.401 225.162 157.296 224.939" stroke="#263238" stroke-width="0.5" stroke-miterlimit="10"/>
<path d="M155.184 216.275C154.972 216.97 154.555 217.584 153.988 218.038C153.42 218.491 152.729 218.762 152.004 218.815C151.28 218.869 150.556 218.701 149.929 218.336C149.301 217.97 148.799 217.423 148.488 216.767C148.176 216.11 148.071 215.375 148.186 214.658C148.3 213.941 148.629 213.275 149.129 212.748C149.628 212.221 150.276 211.857 150.986 211.705C151.697 211.553 152.436 211.619 153.108 211.895C153.963 212.201 154.662 212.835 155.052 213.656C155.441 214.477 155.488 215.419 155.184 216.275V216.275Z" stroke="#263238" stroke-width="0.5" stroke-miterlimit="10"/>
<path d="M163.562 218.531C163.349 219.226 162.931 219.84 162.362 220.293C161.794 220.746 161.102 221.016 160.377 221.068C159.652 221.12 158.929 220.951 158.301 220.584C157.674 220.217 157.173 219.669 156.863 219.012C156.553 218.354 156.45 217.618 156.566 216.901C156.682 216.184 157.013 215.518 157.514 214.993C158.016 214.467 158.665 214.105 159.376 213.955C160.087 213.804 160.826 213.873 161.498 214.151C162.351 214.46 163.047 215.094 163.434 215.915C163.821 216.736 163.867 217.677 163.562 218.531V218.531Z" stroke="#263238" stroke-width="0.5" stroke-miterlimit="10"/>
<path d="M155.246 215.326L156.95 215.818" stroke="#263238" stroke-width="0.5" stroke-miterlimit="10"/>
<path d="M163.633 217.787L167.101 218.195" stroke="#263238" stroke-width="0.5" stroke-miterlimit="10"/>
<path d="M148.201 235.559C144.774 242.587 142.157 249.983 140.401 257.603C138.241 268.403 138.457 288.515 138.889 296.291C139.321 304.067 138.889 326.291 138.889 326.291L128.953 321.971C128.953 321.971 129.385 307.919 131.113 298.847C132.53 290.425 133.109 281.883 132.841 273.347C132.625 268.379 130.441 261.239 131.761 254.543C133.081 247.847 135.001 237.251 135.649 236.543C136.297 235.835 148.201 235.559 148.201 235.559Z" fill="#462683" stroke="#263238" stroke-linecap="round" stroke-linejoin="round"/>
<path d="M158.15 235.127C158.15 235.127 154.262 250.475 151.886 264.527C149.51 278.579 155.342 325.727 155.342 325.727C159.545 325.49 163.73 324.985 167.87 324.215C177.386 322.703 181.922 319.895 181.922 319.895C181.922 319.895 176.306 305.627 172.622 298.295C168.938 290.963 166.142 285.095 166.142 285.095C165.435 279.477 165.801 273.776 167.222 268.295C169.622 259.427 176.09 241.283 173.486 239.111C170.882 236.939 158.15 235.127 158.15 235.127Z" fill="#462683" stroke="#263238" stroke-linecap="round" stroke-linejoin="round"/>
<path d="M167.223 246.154C167.223 246.154 164.823 256.954 163.983 261.922C163.143 266.89 161.391 274.246 161.391 274.246C161.391 274.246 146.259 274.894 142.587 274.678C138.915 274.462 135.027 274.462 135.027 274.462L136.323 281.374C136.323 281.374 148.419 285.694 155.991 286.99C163.563 288.286 167.655 290.242 168.951 287.866C170.247 285.49 174.579 261.058 176.151 251.77C177.723 242.482 178.743 240.322 172.251 238.57" fill="#462683"/>
<path d="M167.223 246.154C167.223 246.154 164.823 256.954 163.983 261.922C163.143 266.89 161.391 274.246 161.391 274.246C161.391 274.246 146.259 274.894 142.587 274.678C138.915 274.462 135.027 274.462 135.027 274.462L136.323 281.374C136.323 281.374 148.419 285.694 155.991 286.99C163.563 288.286 167.655 290.242 168.951 287.866C170.247 285.49 174.579 261.058 176.151 251.77C177.723 242.482 178.743 240.322 172.251 238.57" stroke="#263238" stroke-linecap="round" stroke-linejoin="round"/>
<path d="M152.317 268.631C152.317 268.631 160.525 267.551 161.173 267.335C161.821 267.119 170.245 270.791 170.245 270.791C170.245 270.791 169.813 271.871 169.165 272.087C168.517 272.303 163.333 269.687 163.333 269.687L162.469 269.903L168.949 274.223C168.949 274.223 169.813 275.303 168.949 275.735C168.085 276.167 161.173 271.631 161.173 271.631L167.173 277.463C166.82 277.705 166.402 277.835 165.973 277.835C165.545 277.835 165.127 277.705 164.773 277.463C163.693 276.599 161.317 274.223 161.317 274.223C161.317 274.223 163.909 277.247 162.613 277.463C161.317 277.679 158.941 274.007 158.941 274.007L155.053 273.359L150.949 272.927L152.317 268.631Z" fill="#DFADAD" stroke="#263238" stroke-linecap="round" stroke-linejoin="round"/>
<path d="M139.79 268.798C139.79 268.798 134.342 262.558 134.006 261.97C133.67 261.382 124.91 258.562 124.91 258.562C124.715 259.11 124.715 259.707 124.91 260.255C125.258 260.843 130.91 262.33 130.91 262.33L131.414 263.062L123.686 262.019C123.686 262.019 122.33 262.258 122.69 263.146C123.05 264.034 131.246 265.21 131.246 265.21L122.846 265.595C122.953 266.005 123.18 266.374 123.499 266.655C123.817 266.935 124.213 267.113 124.634 267.166C126.014 267.226 129.362 267.023 129.362 267.023C129.362 267.023 125.414 267.575 126.254 268.595C127.094 269.615 131.294 268.427 131.294 268.427L134.642 270.514L138.002 272.914L139.79 268.798Z" fill="#DFADAD" stroke="#263238" stroke-linecap="round" stroke-linejoin="round"/>
<path d="M124.431 267.768C124.431 267.768 145.611 268.416 148.431 268.416C149.735 268.378 151.039 268.45 152.331 268.632L150.819 279.216C145.505 279.756 140.163 279.972 134.823 279.864C123.363 279.864 118.179 280.512 118.611 276.192C119.043 271.872 124.431 267.768 124.431 267.768Z" fill="#462683" stroke="#263238" stroke-linecap="round" stroke-linejoin="round"/>
<path d="M220.824 475.92C239.6 475.92 254.82 469.913 254.82 462.504C254.82 455.094 239.6 449.088 220.824 449.088C202.049 449.088 186.828 455.094 186.828 462.504C186.828 469.913 202.049 475.92 220.824 475.92Z" fill="#462683"/>
<path opacity="0.5" d="M220.824 475.92C239.6 475.92 254.82 469.913 254.82 462.504C254.82 455.094 239.6 449.088 220.824 449.088C202.049 449.088 186.828 455.094 186.828 462.504C186.828 469.913 202.049 475.92 220.824 475.92Z" fill="white"/>
<path d="M212.941 188.399C212.941 188.399 205.885 188.843 201.349 197.399C196.813 205.955 198.949 221.399 200.581 226.199C202.213 230.999 209.665 253.739 213.949 269.639C218.233 285.539 225.949 299.699 239.761 299.195C253.573 298.691 272.161 292.271 266.161 268.991C260.161 245.711 247.129 236.135 244.561 230.195C241.993 224.255 241.441 218.111 240.301 205.187C239.161 192.263 230.317 185.123 221.461 182.543C212.605 179.963 212.941 188.399 212.941 188.399Z" fill="#263238" stroke="#263238" stroke-linecap="round" stroke-linejoin="round"/>
<path d="M238.934 225.73C241.19 227.818 242.078 227.878 242.078 227.878" stroke="white" stroke-width="0.5" stroke-linecap="round" stroke-linejoin="round"/>
<path d="M218.977 190.02C218.977 190.02 219.169 199.296 229.009 213.492C231.476 217.149 234.19 220.633 237.133 223.92" stroke="white" stroke-width="0.5" stroke-linecap="round" stroke-linejoin="round"/>
<path d="M221.246 196.26C221.246 196.26 230.15 217.08 240.374 222.948" stroke="white" stroke-width="0.5" stroke-linecap="round" stroke-linejoin="round"/>
<path d="M247.754 249.072C247.754 249.072 262.322 265.872 262.514 277.872C262.706 289.872 255.134 294.912 254.378 294.912" stroke="white" stroke-width="0.5" stroke-linecap="round" stroke-linejoin="round"/>
<path d="M255.074 251.566C259.118 259.39 263.594 270.166 262.514 277.846" stroke="white" stroke-width="0.5" stroke-linecap="round" stroke-linejoin="round"/>
<path d="M249.266 241.5C249.266 241.5 250.706 243.684 252.65 247.092" stroke="white" stroke-width="0.5" stroke-linecap="round" stroke-linejoin="round"/>
<path d="M205.536 206.867C205.536 206.867 199.98 218.183 200.58 226.151" stroke="white" stroke-width="0.5" stroke-linecap="round" stroke-linejoin="round"/>
<path d="M202.883 213.492C202.883 213.492 202.703 220.488 204.779 224.292" stroke="white" stroke-width="0.5" stroke-linecap="round" stroke-linejoin="round"/>
<path d="M253.032 320.603C253.032 320.603 250.344 326.603 250.344 328.319C250.344 330.035 250.68 337.379 251.688 336.035C252.696 334.691 251.688 329.663 253.032 329.327C254.376 328.991 255.432 329.999 254.04 334.019C252.648 338.039 251.64 342.071 254.376 340.019C257.112 337.967 257.052 335.315 258.06 329.279C258.673 325.713 258.558 322.06 257.724 318.539L253.032 320.603Z" fill="#DFADAD" stroke="#263238" stroke-linecap="round" stroke-linejoin="round"/>
<path d="M244.307 232.043L249.671 281.351L259.403 318.923L251.003 322.619C251.003 322.619 239.939 291.755 237.251 286.055C234.563 280.355 233.555 275.651 233.555 273.299C233.555 270.947 244.307 232.043 244.307 232.043Z" fill="#462683" stroke="#263238" stroke-linecap="round" stroke-linejoin="round"/>
<path d="M195.672 369.6C195.672 369.6 197.004 376.308 197.34 379.656C197.676 383.004 196.668 395.088 198.348 406.5C200.028 417.912 208.8 451.44 208.8 451.44C208.8 451.44 200.076 459.144 200.076 462.84C200.076 466.536 202.764 465.864 207.12 463.176C211.476 460.488 215.844 454.452 216.18 450.432C216.516 446.412 212.82 422.916 214.164 412.524C215.508 402.132 213.492 384.012 213.492 376.632V369.252L195.672 369.6Z" fill="#DFADAD" stroke="#263238" stroke-linecap="round" stroke-linejoin="round"/>
<path d="M205.391 459.144C204.191 458.568 204.875 456.264 205.619 454.452C203.123 457.02 200.027 460.644 200.027 462.852C200.027 466.536 202.715 465.876 207.071 463.188C210.664 460.788 213.511 457.429 215.291 453.492C211.535 457.584 206.927 459.912 205.391 459.144Z" fill="#263238" stroke="#263238" stroke-linecap="round" stroke-linejoin="round"/>
<path d="M212.1 371.928C212.1 371.928 211.764 384.012 213.108 389.04C214.452 394.068 222.84 419.904 224.184 427.62C225.615 435.712 226.509 443.89 226.86 452.1C226.86 457.476 231.9 469.548 235.26 470.22C238.62 470.892 240.636 470.892 239.628 465.528C238.62 460.164 232.248 451.764 232.248 451.764C232.248 451.764 235.584 417.6 234.24 406.8C232.896 396 229.2 385.344 229.2 384.348C229.2 383.352 230.88 370.92 230.88 370.92L212.1 371.928Z" fill="#DFADAD" stroke="#263238" stroke-linecap="round" stroke-linejoin="round"/>
<path d="M237.131 459.359C236.723 461.051 235.931 462.503 234.575 462.503C231.227 462.503 227.867 456.803 227.867 456.803L227.699 457.091C229.271 462.791 232.727 469.715 235.247 470.219C238.607 470.891 240.623 470.891 239.615 465.527C239.092 463.361 238.255 461.283 237.131 459.359Z" fill="#263238" stroke="#263238" stroke-linecap="round" stroke-linejoin="round"/>
<path d="M210.433 226.008C210.433 226.008 186.613 231.036 186.277 232.38C185.941 233.724 193.993 275.652 193.993 277.332C193.993 279.012 184.597 300.816 183.925 314.232C183.253 327.648 188.293 372.264 188.293 372.264C188.293 372.264 198.349 376.632 208.081 376.632C217.813 376.632 234.241 374.232 234.241 374.232C234.241 374.232 242.293 348.396 242.965 326.592C243.637 304.788 233.905 277.62 233.905 277.62C233.905 277.62 244.309 233.676 244.309 232.02C244.309 230.364 222.169 224.664 210.433 226.008Z" fill="#263238" stroke="#263238" stroke-linecap="round" stroke-linejoin="round"/>
<path d="M233.906 277.668C233.906 277.668 244.31 233.724 244.31 232.068C244.31 230.412 222.17 224.688 210.434 226.068C210.434 226.068 186.614 231.096 186.278 232.44C185.942 233.784 193.994 275.712 193.994 277.392C193.994 278.592 189.194 290.004 186.242 301.32C190.639 303.642 195.258 305.515 200.03 306.912C210.434 309.936 214.43 305.568 214.43 305.568C214.43 305.568 213.422 307.968 219.458 308.592C224.81 309.18 233.858 308.976 240.962 304.728C239.271 295.549 236.912 286.505 233.906 277.668Z" fill="#462683" stroke="#263238" stroke-linecap="round" stroke-linejoin="round"/>
<path d="M215.004 295.104C214.524 298.392 214.164 300.576 214.164 300.576" stroke="#263238" stroke-linecap="round" stroke-linejoin="round"/>
<path d="M216.852 250.799C217.684 258.77 217.901 266.794 217.5 274.799C217.176 278.831 216.6 283.619 216.012 287.999" stroke="#263238" stroke-linecap="round" stroke-linejoin="round"/>
<path d="M213.251 223.416C213.251 223.416 206.783 225.576 203.903 228.096C201.023 230.616 196.355 234.924 196.355 234.924L208.223 235.644L216.851 250.8L222.959 236.064H230.159C232.166 236.085 234.139 236.578 235.919 237.504C235.919 237.504 227.651 226.356 222.971 224.196C219.898 222.904 216.492 222.63 213.251 223.416Z" fill="white" stroke="#263238" stroke-linecap="round" stroke-linejoin="round"/>
<path d="M209.305 219.107C209.305 219.107 210.385 234.203 213.253 238.163C216.121 242.123 220.081 231.695 220.081 227.015C220.081 222.335 220.441 215.867 220.441 215.867L209.305 219.107Z" fill="#DFADAD" stroke="#263238" stroke-linecap="round" stroke-linejoin="round"/>
<path d="M186.275 232.379C186.275 232.379 171.875 280.379 171.875 283.703C171.875 287.027 175.895 290.747 179.927 288.395C183.959 286.043 191.999 263.579 191.999 263.579L186.275 232.379Z" fill="#462683" stroke="#263238" stroke-linecap="round" stroke-linejoin="round"/>
<path d="M167.484 262.907L183.588 294.107L205.728 296.447L192.648 258.551L167.484 262.907Z" fill="white" stroke="#263238" stroke-linecap="round" stroke-linejoin="round"/>
<path d="M186.949 282.694L192.949 271.63L199.993 269.23L201.001 270.574L196.969 272.974C196.969 272.974 202.009 273.298 203.353 273.298C204.697 273.298 204.349 275.314 204.349 275.314L203.689 276.658C203.689 276.658 204.349 281.014 204.349 282.358C204.349 283.702 189.589 288.058 189.589 288.058L186.949 282.694Z" fill="#DFADAD" stroke="#263238" stroke-linecap="round" stroke-linejoin="round"/>
<path d="M187.549 279.383L192.097 291.671C192.097 291.671 183.553 295.667 177.409 295.667C171.265 295.667 168.073 287.663 170.473 283.667C172.873 279.671 187.549 279.383 187.549 279.383Z" fill="#462683" stroke="#263238" stroke-linecap="round" stroke-linejoin="round"/>
<path d="M215.374 192.119L204.178 205.631C204.178 205.631 203.794 215.963 208.906 223.907C215.926 234.851 225.07 213.107 225.07 213.107L215.374 192.119Z" fill="#DFADAD" stroke="#263238" stroke-linecap="round" stroke-linejoin="round"/>
<path d="M210.818 208.919C210.938 209.891 210.638 210.731 210.158 210.791C209.678 210.851 209.186 210.107 209.066 209.147C208.946 208.187 209.234 207.335 209.726 207.275C210.218 207.215 210.698 207.959 210.818 208.919Z" fill="#263238"/>
<path d="M217.202 209.436C217.202 210.408 216.794 211.2 216.302 211.2C215.81 211.2 215.438 210.396 215.438 209.424C215.438 208.452 215.846 207.66 216.326 207.66C216.806 207.66 217.202 208.464 217.202 209.436Z" fill="#263238"/>
<path d="M210.422 217.992C212.206 218.559 214.13 218.508 215.882 217.848" stroke="#263238" stroke-width="0.5" stroke-linecap="round" stroke-linejoin="round"/>
<path d="M214.344 205.199C214.984 204.702 215.782 204.451 216.592 204.49C217.402 204.53 218.171 204.858 218.76 205.415" stroke="#263238" stroke-width="0.5" stroke-linecap="round" stroke-linejoin="round"/>
<path d="M211.033 205.691C210.826 205.396 210.555 205.152 210.24 204.976C209.926 204.801 209.576 204.698 209.216 204.676C208.856 204.654 208.496 204.714 208.163 204.85C207.829 204.986 207.531 205.196 207.289 205.463" stroke="#263238" stroke-width="0.5" stroke-linecap="round" stroke-linejoin="round"/>
<path d="M212.137 207.912C212.41 208.94 212.334 210.029 211.921 211.008C211.261 213.012 210.373 214.116 211.033 214.608C211.655 214.906 212.336 215.058 213.025 215.052" stroke="#263238" stroke-width="0.5" stroke-linecap="round" stroke-linejoin="round"/>
<path d="M427.465 465.18C453.153 465.18 473.977 459.173 473.977 451.764C473.977 444.354 453.153 438.348 427.465 438.348C401.777 438.348 380.953 444.354 380.953 451.764C380.953 459.173 401.777 465.18 427.465 465.18Z" fill="#462683"/>
<path opacity="0.5" d="M427.465 465.18C453.153 465.18 473.977 459.173 473.977 451.764C473.977 444.354 453.153 438.348 427.465 438.348C401.777 438.348 380.953 444.354 380.953 451.764C380.953 459.173 401.777 465.18 427.465 465.18Z" fill="white"/>
<path d="M421.897 210.804C421.897 210.804 419.593 207.84 418.489 209.112C417.385 210.384 420.889 218.256 422.389 217.584C423.889 216.912 421.897 210.804 421.897 210.804Z" fill="#DFADAD" stroke="#263238" stroke-linecap="round" stroke-linejoin="round"/>
<path d="M440.317 211.199C440.317 211.199 442.501 208.319 443.653 209.639C444.805 210.959 441.673 218.699 440.113 217.967C438.553 217.235 440.317 211.199 440.317 211.199Z" fill="#DFADAD" stroke="#263238" stroke-linecap="round" stroke-linejoin="round"/>
<path d="M424.585 230.051C424.585 230.051 420.661 231.755 420.217 234.755C419.773 237.755 421.417 301.955 421.417 301.955L448.333 303.407L447.133 233.927C443.91 231.65 440.221 230.117 436.333 229.439C432.413 228.894 428.426 229.102 424.585 230.051Z" fill="white" stroke="#263238" stroke-linecap="round" stroke-linejoin="round"/>
<path d="M410.989 299.424L452.209 300.9C452.209 300.9 455.941 331.488 457.717 351.492C459.493 371.496 462.157 389.988 461.881 403.896C461.605 417.804 461.941 438.624 462.013 439.356C462.085 440.088 466.381 443.124 469.105 445.464C471.829 447.804 477.589 450.024 475.681 451.356C473.773 452.688 471.301 453.048 466.945 452.268C462.589 451.488 457.537 448.512 456.217 447.828L454.885 447.144L454.813 449.136L449.845 447.144C449.845 447.144 449.005 446.196 448.333 441.504C447.661 436.812 446.617 422.244 446.077 416.064C445.537 409.884 439.813 365.508 437.677 355.2C435.541 344.892 431.137 326.976 431.137 326.976C431.137 326.976 414.337 385.104 412.249 392.4C410.161 399.696 401.281 439.068 401.137 440.316C400.993 441.564 398.737 444.408 398.797 445.116C398.857 445.824 396.565 448.452 394.753 450.768C392.941 453.084 385.321 455.196 383.305 455.292C381.289 455.388 380.425 451.212 384.433 448.092C387.14 445.896 389.709 443.535 392.125 441.024C392.125 441.024 394.021 411.408 393.937 401.988C393.853 392.568 399.421 361.536 400.453 359.004C401.485 356.472 407.221 321.708 407.221 321.708L410.989 299.424Z" fill="#263238" stroke="#263238" stroke-linecap="round" stroke-linejoin="round"/>
<path d="M424.332 237.373C424.332 237.373 428.7 264.037 429.204 266.857C429.708 269.677 422.94 325.453 422.94 325.453C419.458 325.958 415.904 325.579 412.608 324.349C406.608 322.297 401.184 320.053 401.184 320.053L412.632 284.725L402.288 237.421C405.004 235.878 407.897 234.669 410.904 233.821C415.339 232.538 419.863 231.587 424.44 230.977L424.332 237.373Z" fill="#462683" stroke="#263238" stroke-linecap="round" stroke-linejoin="round"/>
<path d="M428.702 242.688L431.642 246.888L427.766 297.444L433.85 304.38L436.826 297.672L433.946 247.632L436.97 242.172L432.674 235.74L428.702 242.688Z" fill="#263238" stroke="#263238" stroke-linecap="round" stroke-linejoin="round"/>
<path d="M440.017 230.207C440.017 230.207 437.125 251.627 437.197 253.307C437.269 254.987 436.537 269.087 436.597 270.407C436.657 271.727 442.597 325.415 442.597 325.415C446.373 326.114 450.239 326.171 454.033 325.583C460.657 324.623 467.713 320.291 467.713 320.291L454.393 285.011L459.493 235.487C459.493 235.487 443.869 230.951 440.017 230.207Z" fill="#462683" stroke="#263238" stroke-linecap="round" stroke-linejoin="round"/>
<path d="M432.435 239.795L426.939 245.075C426.939 245.075 423.339 232.871 423.339 230.987C423.275 229.909 423.503 228.834 424 227.876C424.496 226.917 425.242 226.11 426.159 225.539C428.211 224.411 436.431 225.335 438.387 226.271C440.343 227.207 441.855 231.707 441.855 231.707L437.463 245.999L432.435 239.795Z" fill="white" stroke="#263238" stroke-linecap="round" stroke-linejoin="round"/>
<path d="M425.559 221.412C425.559 221.412 426.219 228.168 427.887 231.552C429.555 234.936 431.883 240.18 432.435 239.796C432.987 239.412 437.451 232.284 437.571 230.772C437.691 229.26 438.015 223.26 438.015 223.26L425.559 221.412Z" fill="#DFADAD" stroke="#263238" stroke-linecap="round" stroke-linejoin="round"/>
<path d="M425.916 198.9C425.916 198.9 422.184 201.12 421.656 203.208C421.128 205.296 421.488 216.012 423.732 220.668C425.976 225.324 430.152 229.152 432.204 229.176C434.256 229.2 438.996 225.996 439.656 221.268C440.396 217.008 440.746 212.69 440.7 208.368C440.46 205.2 443.04 206.616 439.116 202.464C435.192 198.312 428.208 196.872 425.916 198.9Z" fill="#DFADAD" stroke="#263238" stroke-linecap="round" stroke-linejoin="round"/>
<path d="M428.774 213.672C428.774 214.416 428.462 215.028 428.09 215.028C427.718 215.028 427.418 214.416 427.418 213.672C427.418 212.928 427.718 212.328 428.09 212.328C428.462 212.328 428.774 212.928 428.774 213.672Z" fill="#263238"/>
<path d="M435.168 213.672C435.168 214.416 434.868 215.028 434.496 215.028C434.124 215.028 433.824 214.416 433.824 213.672C433.824 212.928 434.124 212.328 434.496 212.328C434.868 212.328 435.168 212.928 435.168 213.672Z" fill="#263238"/>
<path d="M425.738 211.487C425.896 211.244 426.103 211.037 426.345 210.879C426.587 210.721 426.86 210.615 427.145 210.567C427.431 210.52 427.723 210.532 428.004 210.604C428.284 210.675 428.546 210.804 428.774 210.983" stroke="#263238" stroke-width="0.5" stroke-linecap="round" stroke-linejoin="round"/>
<path d="M432.984 211.2C432.984 211.2 434.328 209.004 436.692 211.536" stroke="#263238" stroke-width="0.5" stroke-linecap="round" stroke-linejoin="round"/>
<path d="M432.481 213.504L432.817 219.408L430.117 219.072" stroke="#263238" stroke-width="0.5" stroke-linecap="round" stroke-linejoin="round"/>
<path d="M429.277 221.268C431.229 221.966 433.372 221.902 435.277 221.088" stroke="#263238" stroke-width="0.5" stroke-linecap="round" stroke-linejoin="round"/>
<path d="M423.253 198.696C423.253 198.696 419.581 197.388 418.969 201.096C418.357 204.804 421.513 211.608 421.513 211.608C421.513 211.608 422.017 209.916 422.881 207.852C423.745 205.788 425.605 204.648 424.897 201.648C424.189 198.648 423.253 198.696 423.253 198.696Z" fill="#263238" stroke="#263238" stroke-linecap="round" stroke-linejoin="round"/>
<path d="M423.913 200.94C423.913 200.94 425.761 203.952 430.933 204.684C436.105 205.416 438.745 204.684 439.333 205.608C439.921 206.532 439.981 211.8 439.981 211.8C439.981 211.8 441.709 212.364 441.817 210.3C442.013 208.665 442.752 207.143 443.917 205.98C444.469 205.416 447.253 203.712 444.193 199.02C441.133 194.328 437.269 192.84 430.597 192.852C423.925 192.864 419.905 196.26 423.913 200.94Z" fill="#263238" stroke="#263238" stroke-linecap="round" stroke-linejoin="round"/>
<path d="M459.459 235.488C459.459 235.488 469.059 268.62 469.671 272.088C470.283 275.556 466.383 277.548 462.303 276.072C458.223 274.596 455.547 253.272 455.547 253.272L459.459 235.488Z" fill="#462683" stroke="#263238" stroke-linecap="round" stroke-linejoin="round"/>
<path d="M465.602 264.911C465.602 264.911 450.158 262.211 446.138 262.223C442.118 262.235 422.822 263.999 422.822 263.999L422.102 270.695C422.102 270.695 451.55 277.331 457.358 278.063C463.166 278.795 468.938 278.531 469.538 274.811C470.138 271.091 468.794 269.363 468.794 269.363" fill="#462683"/>
<path d="M465.602 264.911C465.602 264.911 450.158 262.211 446.138 262.223C442.118 262.235 422.822 263.999 422.822 263.999L422.102 270.695C422.102 270.695 451.55 277.331 457.358 278.063C463.166 278.795 468.938 278.531 469.538 274.811C470.138 271.091 468.794 269.363 468.794 269.363" stroke="#263238" stroke-linecap="round" stroke-linejoin="round"/>
<path d="M402.289 237.42C402.289 237.42 402.685 256.62 403.129 266.976C403.573 277.332 406.465 281.136 411.745 281.124C417.025 281.112 412.741 251.364 412.741 251.364" fill="#462683"/>
<path d="M402.289 237.42C402.289 237.42 402.685 256.62 403.129 266.976C403.573 277.332 406.465 281.136 411.745 281.124C417.025 281.112 412.741 251.364 412.741 251.364" stroke="#263238" stroke-linecap="round" stroke-linejoin="round"/>
<path d="M422.819 263.999C422.819 263.999 418.967 262.031 416.711 262.031C414.455 262.031 407.843 266.267 407.867 267.011C407.891 267.755 411.467 268.739 415.967 268.211C418.385 267.9 420.833 267.9 423.251 268.211L422.819 263.999Z" fill="#DFADAD" stroke="#263238" stroke-linecap="round" stroke-linejoin="round"/>
<path d="M448.801 258.996C450.689 258.563 452.613 258.31 454.549 258.24C457.057 258.24 460.033 263.184 460.033 263.184L450.265 263.952L448.801 258.996Z" fill="#DFADAD" stroke="#263238" stroke-linecap="round" stroke-linejoin="round"/>
<path d="M408.711 268.991L446.703 257.999C446.703 257.999 447.423 257.255 448.755 258.983C449.648 260.487 450.152 262.191 450.219 263.939C450.219 263.939 427.791 274.391 420.879 277.379C413.967 280.367 411.663 285.083 407.955 280.631C404.247 276.179 406.599 272.447 406.599 272.447" fill="#462683"/>
<path d="M408.711 268.991L446.703 257.999C446.703 257.999 447.423 257.255 448.755 258.983C449.648 260.487 450.152 262.191 450.219 263.939C450.219 263.939 427.791 274.391 420.879 277.379C413.967 280.367 411.663 285.083 407.955 280.631C404.247 276.179 406.599 272.447 406.599 272.447" stroke="#263238" stroke-linecap="round" stroke-linejoin="round"/>
<path d="M379.164 476.82C397.939 476.82 413.16 470.814 413.16 463.404C413.16 455.995 397.939 449.988 379.164 449.988C360.388 449.988 345.168 455.995 345.168 463.404C345.168 470.814 360.388 476.82 379.164 476.82Z" fill="#462683"/>
<path opacity="0.5" d="M379.164 476.82C397.939 476.82 413.16 470.814 413.16 463.404C413.16 455.995 397.939 449.988 379.164 449.988C360.388 449.988 345.168 455.995 345.168 463.404C345.168 470.814 360.388 476.82 379.164 476.82Z" fill="white"/>
<path d="M392.458 203.615C395.089 200.833 396.791 197.302 397.33 193.511C397.87 187.727 391.198 184.667 386.686 184.847C383.87 185.015 381.167 186.018 378.922 187.727C378.922 187.727 368.398 187.199 360.514 193.199C352.63 199.199 353.65 217.031 354.19 223.703C354.46 228.821 354.34 233.952 353.83 239.051C359.404 241.284 365.22 242.858 371.158 243.743C380.362 245.003 392.818 242.843 394.078 242.543C395.338 242.243 390.478 241.091 389.746 234.059C389.014 227.027 390.826 218.891 391.558 215.099C392.29 211.307 391.018 203.915 391.018 203.915L392.458 203.615Z" fill="#263238" stroke="#263238" stroke-linecap="round" stroke-linejoin="round"/>
<path d="M391.501 187.74C391.501 187.74 389.665 194.076 388.645 196.536" stroke="white" stroke-width="0.5" stroke-linecap="round" stroke-linejoin="round"/>
<path d="M384.001 190.404C384.001 190.404 385.633 195.708 379.909 204.912C374.185 214.116 362.545 223.92 362.137 230.664" stroke="white" stroke-width="0.5" stroke-linecap="round" stroke-linejoin="round"/>
<path d="M364.727 215.328C364.727 215.328 357.527 227.388 360.647 234.744" stroke="white" stroke-width="0.5" stroke-linecap="round" stroke-linejoin="round"/>
<path d="M382.535 236.1C382.535 236.1 392.279 241.152 393.719 241.692C395.159 242.232 396.431 243.504 397.511 246.744C398.591 249.984 404.555 273.456 405.095 275.988C405.635 278.52 400.583 281.04 397.331 281.22C394.079 281.4 389.927 278.52 389.927 276.348C389.927 274.176 382.535 236.1 382.535 236.1Z" fill="#462683" stroke="#263238" stroke-linecap="round" stroke-linejoin="round"/>
<path d="M386.508 274.367C388.493 271.748 390.663 269.274 393 266.963C395.16 265.163 399.672 263.711 402.384 265.163C405.096 266.615 404.556 269.123 403.464 269.495C402.372 269.867 399.672 269.855 397.872 270.935C396.072 272.015 393.18 274.007 391.2 274.535C389.642 274.821 388.041 274.764 386.508 274.367Z" fill="#DFADAD" stroke="#263238" stroke-linecap="round" stroke-linejoin="round"/>
<path d="M357.18 451.955L357.012 461.675H358.152L359.604 455.027L357.18 451.955Z" fill="#263238" stroke="#263238" stroke-linecap="round" stroke-linejoin="round"/>
<path d="M394.368 369.467C394.368 369.467 392.58 393.623 387.888 409.283C383.196 424.943 373.8 449.303 373.572 453.107C373.572 453.107 379.392 458.699 381.396 459.815C383.4 460.931 384.996 460.715 383.64 461.831C382.284 462.947 378.492 463.619 375.588 462.503C372.684 461.387 370.44 458.027 368.88 457.139C367.32 456.251 365.28 455.123 365.076 453.107C364.872 451.091 367.98 448.187 367.98 448.187C367.98 448.187 375.36 431.639 374.472 421.127C373.584 410.615 375.804 398.771 378.072 394.511C379.514 391.713 380.719 388.799 381.672 385.799L375.36 370.799C375.36 370.799 388.104 367.007 394.368 369.467Z" fill="#DFADAD" stroke="#263238" stroke-linecap="round" stroke-linejoin="round"/>
<path d="M381.394 459.815C381.071 459.623 380.759 459.415 380.458 459.191C379.258 459.743 376.306 460.871 374.014 458.927C371.446 456.743 368.698 452.819 366.082 450.395C365.45 451.159 365.094 452.115 365.074 453.107C365.29 455.123 367.306 456.239 368.878 457.139C370.45 458.039 372.67 461.387 375.586 462.503C378.502 463.619 382.294 462.947 383.638 461.831C384.982 460.715 383.41 460.943 381.394 459.815Z" fill="#263238" stroke="#263238" stroke-linecap="round" stroke-linejoin="round"/>
<path d="M391.2 367.2C391.2 367.2 395.568 380.28 395.568 383.64C395.568 387 374.436 434.628 372.42 439.32C370.404 444.012 367.38 452.736 367.38 452.736C368.027 455.314 369.577 457.574 371.748 459.108C375.432 461.796 376.776 464.148 375.096 464.82C373.416 465.492 365.712 466.164 363.696 463.476C361.68 460.788 359.676 455.076 357.696 453.408C355.716 451.74 357.696 448.044 359.04 447.036C360.383 445.805 361.616 444.46 362.724 443.016C362.724 443.016 367.752 432.276 367.752 422.88C367.752 413.484 369.432 404.436 374.472 396.72C377.242 392.654 379.495 388.261 381.18 383.64L375.804 372.564C375.804 372.564 384.528 366.564 391.2 367.2Z" fill="#DFADAD" stroke="#263238" stroke-linecap="round" stroke-linejoin="round"/>
<path d="M371.998 459.311C370.042 460.259 368.662 460.967 364.402 456.131C362.143 453.583 360.028 450.911 358.066 448.127C356.986 449.663 356.134 452.147 357.694 453.443C359.71 455.123 361.714 460.823 363.694 463.511C365.674 466.199 373.426 465.527 375.094 464.855C376.762 464.183 375.514 461.927 371.998 459.311Z" fill="#263238" stroke="#263238" stroke-linecap="round" stroke-linejoin="round"/>
<path d="M373.199 234C373.199 234 350.999 237.42 350.267 238.692C349.535 239.964 357.131 281.64 357.851 284.892C358.571 288.144 353.519 296.628 350.651 313.044C347.783 329.46 351.215 333.444 356.087 345.156C360.959 356.868 374.591 374.4 374.591 374.4L395.891 370.608C395.891 370.608 400.763 332.532 398.411 314.124C397.065 303.204 393.893 292.588 389.027 282.72L389.567 272.964C389.567 272.964 395.567 269.268 395.795 264.564C396.023 259.86 392.639 253.104 389.567 246.972C386.495 240.84 377.999 234 373.199 234Z" fill="#462683" stroke="#263238" stroke-linecap="round" stroke-linejoin="round"/>
<path d="M374.773 231.227C374.773 231.227 370.081 231.767 369.361 232.667C368.641 233.567 366.469 245.999 366.469 245.999C366.469 245.999 374.953 243.479 375.853 243.479C376.753 243.479 384.157 252.143 384.157 252.143V244.559L390.649 249.431C389.392 245.813 387.822 242.311 385.957 238.967C383.077 233.999 378.745 231.407 374.773 231.227Z" fill="white" stroke="#263238" stroke-linecap="round" stroke-linejoin="round"/>
<path d="M375.133 220.404C375.133 220.404 373.693 234.3 374.593 235.92C375.493 237.54 381.625 246.936 381.625 246.936C381.625 246.936 380.905 239.736 380.905 235.2C381.157 231.288 381.824 227.415 382.897 223.644L375.133 220.404Z" fill="#DFADAD" stroke="#263238" stroke-linecap="round" stroke-linejoin="round"/>
<path d="M387.767 197.471C387.767 197.471 384.335 205.955 380.903 209.027C378.988 210.78 376.869 212.295 374.591 213.539C374.591 213.539 374.231 219.539 375.131 220.403C376.031 221.267 383.435 228.875 385.931 227.795C388.427 226.715 392.255 219.671 392.615 214.079C392.669 209.812 392.123 205.558 390.995 201.443L387.767 197.471Z" fill="#DFADAD" stroke="#263238" stroke-linecap="round" stroke-linejoin="round"/>
<path d="M390.277 207.971C389.808 208.175 389.417 208.524 389.16 208.966C388.903 209.409 388.794 209.922 388.849 210.431C388.849 212.471 390.685 214.103 390.685 215.123C390.685 216.143 388.441 216.767 388.441 216.767" stroke="#263238" stroke-width="0.5" stroke-linecap="round" stroke-linejoin="round"/>
<path d="M387.011 208.991C387.011 208.991 385.979 206.591 382.715 207.359" stroke="#263238" stroke-width="0.5" stroke-linecap="round" stroke-linejoin="round"/>
<path d="M387.826 220.032C387.112 220.192 386.37 220.183 385.66 220.006C384.949 219.829 384.29 219.488 383.734 219.012" stroke="#263238" stroke-width="0.5" stroke-linecap="round" stroke-linejoin="round"/>
<path d="M384.961 210.528C384.961 211.38 384.733 212.064 384.457 212.064C384.181 212.064 383.941 211.38 383.941 210.528C383.941 209.676 384.169 208.992 384.457 208.992C384.745 208.992 384.961 209.688 384.961 210.528Z" fill="#263238"/>
<path d="M390.278 211.2C390.278 212.04 390.05 212.736 389.762 212.736C389.474 212.736 389.258 212.04 389.258 211.2C389.258 210.36 389.486 209.664 389.762 209.664C390.038 209.664 390.278 210.396 390.278 211.2Z" fill="#263238"/>
<path d="M354.373 238.272C352.256 238.2 350.166 238.765 348.373 239.892C345.841 241.692 346.393 248.736 347.653 256.32C348.913 263.904 355.777 285.012 357.397 288.624C358.17 290.345 359.407 291.817 360.969 292.876C362.53 293.936 364.355 294.541 366.241 294.624C369.673 294.624 392.233 282.528 392.233 282.528L390.241 276.936C390.241 276.936 370.981 281.76 369.601 282C368.221 282.24 361.837 249.876 361.837 249.876" fill="#462683"/>
<path d="M354.373 238.272C352.256 238.2 350.166 238.765 348.373 239.892C345.841 241.692 346.393 248.736 347.653 256.32C348.913 263.904 355.777 285.012 357.397 288.624C358.17 290.345 359.407 291.817 360.969 292.876C362.53 293.936 364.355 294.541 366.241 294.624C369.673 294.624 392.233 282.528 392.233 282.528L390.241 276.936C390.241 276.936 370.981 281.76 369.601 282C368.221 282.24 361.837 249.876 361.837 249.876" stroke="#263238" stroke-linecap="round" stroke-linejoin="round"/>
<path d="M374.95 278.159C374.95 278.159 367.546 277.967 366.466 277.967C365.386 277.967 360.334 283.751 359.062 285.167C357.79 286.583 359.242 286.967 359.794 287.159C360.346 287.351 363.754 285.887 363.754 285.887C363.754 285.887 360.694 291.887 361.414 292.931C362.134 293.975 363.934 294.731 364.666 294.011C365.647 293.185 366.826 292.626 368.086 292.391C368.773 292.422 369.457 292.29 370.082 292.007C370.708 291.723 371.258 291.295 371.686 290.759C373.138 289.139 375.478 282.647 375.478 282.647L379.078 281.555V278.879L374.95 278.159Z" fill="#DFADAD" stroke="#263238" stroke-linecap="round" stroke-linejoin="round"/>
<path d="M374.23 277.968L376.21 290.064C376.21 290.064 400.943 283.212 404.003 281.76C407.063 280.308 405.274 272.556 402.922 270.576C400.57 268.596 374.23 277.968 374.23 277.968Z" fill="#462683" stroke="#263238" stroke-linecap="round" stroke-linejoin="round"/>
<path d="M374.591 374.4L395.891 370.608C395.891 370.608 400.763 332.532 398.411 314.124C397.923 310.348 397.222 306.602 396.311 302.904C391.045 305.039 385.494 306.385 379.835 306.9C365.855 308.448 356.507 304.428 352.943 302.496C352.103 305.58 351.287 309.072 350.543 313.032C347.663 329.46 351.107 333.432 355.979 345.144C360.851 356.856 374.591 374.4 374.591 374.4Z" fill="#263238" stroke="#263238" stroke-linecap="round" stroke-linejoin="round"/>
<path d="M378.324 329.82C381.937 335.979 384.63 342.634 386.316 349.572" stroke="white" stroke-width="0.75" stroke-linecap="round" stroke-linejoin="round"/>
<path d="M371.785 320.711C373.292 322.382 374.672 324.163 375.913 326.039" stroke="white" stroke-width="0.75" stroke-linecap="round" stroke-linejoin="round"/>
<path d="M303.347 483.072C333.607 483.072 358.139 477.066 358.139 469.656C358.139 462.247 333.607 456.24 303.347 456.24C273.086 456.24 248.555 462.247 248.555 469.656C248.555 477.066 273.086 483.072 303.347 483.072Z" fill="#462683"/>
<path opacity="0.5" d="M303.347 483.072C333.607 483.072 358.139 477.066 358.139 469.656C358.139 462.247 333.607 456.24 303.347 456.24C273.086 456.24 248.555 462.247 248.555 469.656C248.555 477.066 273.086 483.072 303.347 483.072Z" fill="white"/>
<path d="M299.193 195.42C299.193 195.42 297.177 191.736 295.701 193.02C294.225 194.304 296.625 203.7 298.461 203.148C300.297 202.596 299.193 195.42 299.193 195.42Z" fill="#DFADAD" stroke="#263238" stroke-linecap="round" stroke-linejoin="round"/>
<path d="M261.852 322.957C273.112 327.691 285 330.767 297.144 332.089C316.644 334.057 339.36 319.993 339.36 319.993C339.36 319.993 316.644 284.941 316.404 284.197C316.164 283.453 289.008 282.469 289.008 282.469L261.852 322.957Z" fill="#263238" stroke="#263238" stroke-linecap="round" stroke-linejoin="round"/>
<path d="M278.398 293.771C278.398 293.771 269.338 332.352 269.338 346.104C269.338 359.855 269.338 370.919 268.666 381.995C267.994 393.071 264.31 414.527 265.654 425.604C266.998 436.679 268.666 458.483 268.666 458.483C268.666 458.483 256.93 467.867 256.93 471.227C256.93 474.587 263.974 473.627 270.01 469.883C276.046 466.139 277.726 463.511 277.726 463.511L279.07 464.855L281.086 462.839L281.758 455.459L288.466 395.075L297.862 335.075L314.29 407.195L328.69 457.187L332.05 458.531L332.722 461.543L336.07 463.559L339.43 463.895L342.778 466.907C342.778 466.907 353.518 470.267 355.534 469.595C357.55 468.923 357.538 466.247 352.174 462.215C346.81 458.183 337.774 455.843 337.774 455.843C337.774 455.843 336.766 421.955 334.426 402.167C332.086 382.38 329.05 365.603 329.05 351.515C329.05 337.427 324.37 296.399 324.37 296.399L278.398 293.771Z" fill="#263238" stroke="#263238" stroke-linecap="round" stroke-linejoin="round"/>
<path d="M301.56 218.292L276.516 227.892L278.52 296.772C278.52 296.772 287.028 301.02 302.004 300.804C316.98 300.588 327.204 299.964 327.204 299.964L333.144 224.76L308.988 219.168C308.988 219.168 304.464 217.62 301.56 218.292Z" fill="white" stroke="#263238" stroke-linecap="round" stroke-linejoin="round"/>
<path d="M301.787 230.364L304.463 237.3L296.867 291.192L300.887 300.144L307.595 289.86L306.707 237.744L309.839 230.808L306.251 223.656L301.787 230.364Z" fill="#263238" stroke="#263238" stroke-linecap="round" stroke-linejoin="round"/>
<path d="M301.595 215.136L297.539 219.936L298.283 234.864L306.755 228.048L313.571 237.996C313.571 237.996 316.331 224.916 315.227 220.86C314.123 216.804 310.259 214.224 308.231 214.596C306.203 214.968 301.595 215.136 301.595 215.136Z" fill="white" stroke="#263238" stroke-linecap="round" stroke-linejoin="round"/>
<path d="M300.492 208.141C300.492 208.141 300.492 208.429 300.564 208.921C300.792 211.381 301.5 218.941 301.968 221.401C302.52 224.353 306.384 227.665 307.86 227.113C309.336 226.561 312.84 222.133 313.2 220.669C313.56 219.205 315.048 212.377 315.048 212.377C315.048 212.377 310.248 214.585 308.232 214.585C306.216 214.585 300.492 208.141 300.492 208.141Z" fill="#DFADAD" stroke="#263238" stroke-linecap="round" stroke-linejoin="round"/>
<path d="M319.773 198.515C319.773 198.515 322.773 195.563 323.805 197.219C324.837 198.875 319.869 207.191 318.261 206.135C316.653 205.079 319.773 198.515 319.773 198.515Z" fill="#DFADAD" stroke="#263238" stroke-linecap="round" stroke-linejoin="round"/>
<path d="M306 182.532C306 182.532 301.404 184.5 300.408 186.804C299.412 189.108 297.78 201.204 299.424 206.844C301.068 212.484 305.016 217.356 307.308 217.644C309.6 217.932 315.528 215.016 317.172 209.76C318.816 204.504 320.448 198.96 320.772 195.36C321.096 191.76 323.724 193.716 320.112 188.46C316.5 183.204 308.916 180.564 306 182.532Z" fill="#DFADAD" stroke="#263238" stroke-linecap="round" stroke-linejoin="round"/>
<path d="M307.438 198.001C307.438 198.901 307.114 199.633 306.67 199.645C306.226 199.657 305.83 198.937 305.806 198.037C305.782 197.137 306.13 196.405 306.586 196.393C307.042 196.381 307.414 197.065 307.438 198.001Z" fill="#263238"/>
<path d="M313.836 198.395C313.836 199.295 313.512 200.039 313.068 200.051C312.624 200.063 312.228 199.343 312.204 198.443C312.18 197.543 312.528 196.799 312.972 196.787C313.416 196.775 313.812 197.495 313.836 198.395Z" fill="#263238"/>
<path d="M304.152 193.897C304.575 193.274 305.204 192.82 305.929 192.616C306.653 192.412 307.427 192.47 308.112 192.781" stroke="#263238" stroke-width="0.5" stroke-linecap="round" stroke-linejoin="round"/>
<path d="M311.641 193.416C311.641 193.416 313.729 192.408 316.057 195.12" stroke="#263238" stroke-width="0.5" stroke-linecap="round" stroke-linejoin="round"/>
<path d="M306.156 206.855C307.722 207.6 309.492 207.798 311.184 207.419" stroke="#263238" stroke-width="0.5" stroke-linecap="round" stroke-linejoin="round"/>
<path d="M310.907 195.684C310.907 195.684 312.023 203.472 311.183 203.892C310.343 204.312 308.543 203.328 308.543 203.328" stroke="#263238" stroke-width="0.5" stroke-linecap="round" stroke-linejoin="round"/>
<path d="M301.041 178.799C301.041 178.799 294.777 180.083 294.957 183.395C295.137 186.707 297.357 192.611 297.357 192.611C297.357 192.611 299.565 193.895 299.193 195.371C298.821 196.847 299.013 199.979 300.309 198.875C301.605 197.771 300.861 193.715 301.413 193.163C302.046 192.767 302.576 192.227 302.959 191.587C303.343 190.946 303.57 190.224 303.621 189.479C303.621 187.271 302.325 185.243 302.697 184.679C303.069 184.115 309.513 184.859 312.645 186.335C315.777 187.811 320.013 190.199 318.909 192.599C318.56 193.17 318.407 193.839 318.474 194.504C318.542 195.169 318.825 195.794 319.281 196.283C319.281 196.283 317.985 199.787 318.909 200.711C319.833 201.635 320.937 197.579 320.937 197.579C321.556 197.454 322.121 197.138 322.552 196.675C322.982 196.212 323.257 195.626 323.337 194.999C324.15 192.061 324.399 188.995 324.069 185.963C323.517 183.023 317.433 178.043 310.809 177.863C304.185 177.683 301.041 178.799 301.041 178.799Z" fill="#263238" stroke="#263238" stroke-linecap="round" stroke-linejoin="round"/>
<path d="M301.775 181.98C301.775 181.98 309.335 188.604 315.779 191.184C322.223 193.764 330.515 188.976 330.887 185.292C331.259 181.608 324.995 176.268 323.339 176.076C321.683 175.884 324.251 173.676 318.179 171.84C312.107 170.004 298.643 171.108 297.911 174.792C297.179 178.476 301.775 181.98 301.775 181.98Z" fill="#263238" stroke="#263238" stroke-linecap="round" stroke-linejoin="round"/>
<path d="M298.426 219.407C298.426 219.407 297.538 261.899 292.426 276.431C287.314 290.963 280.798 305.507 275.206 310.655C269.614 315.803 259.774 332.123 259.774 332.123C259.774 332.123 256.414 325.631 256.414 323.627C256.414 321.623 272.014 307.295 273.418 305.951C274.822 304.607 275.434 297.683 275.434 287.399C275.434 277.115 272.974 228.803 272.974 227.903C272.974 227.003 294.178 218.291 298.426 219.407Z" fill="#462683" stroke="#263238" stroke-linecap="round" stroke-linejoin="round"/>
<path d="M272.938 227.904L272.446 228.648C269.388 234.307 266.675 240.146 264.322 246.132C260.17 256.236 249.226 272.976 251.578 276.324C253.93 279.672 259.978 281.688 263.65 277.668C267.322 273.648 276.394 256.536 276.394 256.536C276.394 256.536 275.17 231.48 272.938 227.904Z" fill="#462683" stroke="#263238" stroke-linecap="round" stroke-linejoin="round"/>
<path d="M314.758 219.852C314.758 219.852 315.202 249.156 316.09 269.28C316.978 289.404 319.69 297.012 321.91 300.816C324.13 304.62 340.474 329.892 340.474 329.892C340.474 329.892 344.278 322.056 343.822 318.924C343.366 315.792 331.522 295.896 331.522 294.78C331.522 293.664 336.67 227.688 335.77 225.9C334.87 224.112 314.758 219.852 314.758 219.852Z" fill="#462683" stroke="#263238" stroke-linecap="round" stroke-linejoin="round"/>
<path d="M293.733 222.096L287.241 238.2L292.389 243.336L286.797 249.6L289.929 273.528" stroke="#263238" stroke-linecap="round" stroke-linejoin="round"/>
<path d="M317.879 222.312L323.927 236.629L317.219 240.648L323.927 251.173L317.435 268.165" stroke="#263238" stroke-linecap="round" stroke-linejoin="round"/>
<path d="M278.41 307.523L279.538 310.451L271.57 316.595L269.062 310.907L278.41 307.523Z" fill="white" stroke="#263238" stroke-linecap="round" stroke-linejoin="round"/>
<path d="M262.642 271.632L278.398 307.524L266.662 316.584C266.662 316.584 249.598 280.68 249.598 277.668C249.598 274.656 253.294 268.608 254.962 267.6" fill="#462683"/>
<path d="M262.642 271.632L278.398 307.524L266.662 316.584C266.662 316.584 249.598 280.68 249.598 277.668C249.598 274.656 253.294 268.608 254.962 267.6" stroke="#263238" stroke-linecap="round" stroke-linejoin="round"/>
<path d="M279.538 310.451L282.274 311.819L274.75 322.067L271.57 316.595L279.538 310.451Z" fill="#DFADAD" stroke="#263238" stroke-linecap="round" stroke-linejoin="round"/>
<path d="M321.287 308.039L319.871 310.847L327.191 317.759L330.251 312.347L321.287 308.039Z" fill="white" stroke="#263238" stroke-linecap="round" stroke-linejoin="round"/>
<path d="M335.77 225.9C335.77 225.9 339.226 229.584 339.682 232.992C340.138 236.4 352.21 276.504 352.666 278.328C353.122 280.152 348.562 283.128 344.002 283.8C339.442 284.472 333.754 266.712 333.754 266.712L335.77 225.9Z" fill="#462683" stroke="#263238" stroke-linecap="round" stroke-linejoin="round"/>
<path d="M340.557 273.9L321.285 308.04L332.085 318.228C332.085 318.228 352.689 284.22 352.989 281.22C353.289 278.22 350.229 271.836 348.657 270.672" fill="#462683"/>
<path d="M340.557 273.9L321.285 308.04L332.085 318.228C332.085 318.228 352.689 284.22 352.989 281.22C353.289 278.22 350.229 271.836 348.657 270.672" stroke="#263238" stroke-linecap="round" stroke-linejoin="round"/>
<path d="M319.872 310.848L317.016 311.928L323.472 322.884L327.192 317.76L319.872 310.848Z" fill="#DFADAD" stroke="#263238" stroke-linecap="round" stroke-linejoin="round"/>
</svg>
