<svg width="600" height="600" viewBox="0 0 600 600" fill="none" xmlns="http://www.w3.org/2000/svg">
<path d="M367.201 74.2558C367.201 74.2558 290.113 53.6038 220.861 102C151.609 150.396 122.461 237.804 97.0452 307.956C71.6292 378.108 96.2292 445.392 155.017 472.212C213.805 499.032 247.513 449.736 325.693 441.132C403.873 432.528 426.001 442.104 486.913 392.244C547.825 342.384 549.817 236.136 491.281 162.384C432.745 88.6318 367.201 74.2558 367.201 74.2558Z" fill="#5A3A97"/>
<path d="M367.201 74.2558C367.201 74.2558 290.113 53.6038 220.861 102C151.609 150.396 122.461 237.804 97.0452 307.956C71.6292 378.108 96.2292 445.392 155.017 472.212C213.805 499.032 247.513 449.736 325.693 441.132C403.873 432.528 426.001 442.104 486.913 392.244C547.825 342.384 549.817 236.136 491.281 162.384C432.745 88.6318 367.201 74.2558 367.201 74.2558Z" fill="#FAB748"/>
<path d="M311.998 532.8C443.221 532.8 549.598 523.667 549.598 512.4C549.598 501.133 443.221 492 311.998 492C180.776 492 74.3984 501.133 74.3984 512.4C74.3984 523.667 180.776 532.8 311.998 532.8Z" fill="#5A3A97"/>
<path opacity="0.4" d="M311.998 532.8C443.221 532.8 549.598 523.667 549.598 512.4C549.598 501.133 443.221 492 311.998 492C180.776 492 74.3984 501.133 74.3984 512.4C74.3984 523.667 180.776 532.8 311.998 532.8Z" fill="#FAB748"/>
<path d="M94.9922 489.78H508.884" stroke="#263238" stroke-miterlimit="10"/>
<path d="M94.9922 383.448H508.884" stroke="#263238" stroke-miterlimit="10"/>
<path d="M94.9922 375.276H508.884" stroke="#263238" stroke-miterlimit="10"/>
<path d="M252.672 342.888H150.672V101.832H252.672V342.888ZM362.16 101.832H260.16V342.888H362.16V101.832ZM471.66 101.832H369.6V342.888H471.6L471.66 101.832Z" fill="white"/>
<path d="M252.672 342.888H150.672V339.696C164.484 327.108 197.772 302.616 252.672 296.244V342.888ZM471.66 265.68C446.892 281.784 412.212 289.044 369.66 292.236V342.888H471.66V265.68ZM362.16 292.8C337.152 294.372 309.576 294.72 279.816 294.72C272.988 294.72 266.46 295.02 260.16 295.548V342.924H362.16V292.8ZM252.672 249.204V140.988C224.928 123.912 190.632 110.328 166.368 101.832H150.672V277.656C180.336 267.6 221.196 261.6 252.672 249.168V249.204ZM362.16 233.136C339.912 241.53 316.852 247.59 293.352 251.22C291.69 251.331 290.085 251.873 288.696 252.792C278.592 260.652 320.928 263.22 325.488 263.184C337.763 263.059 350.016 262.097 362.16 260.304V233.136ZM299.46 202.668C302.292 181.692 284.724 162.312 260.16 145.836V246C281.172 236.4 296.688 223.2 299.46 202.632V202.668ZM471.66 171C439.452 195.636 405.66 215.808 369.66 230.232V259.104C404.724 253.104 438.696 240.684 471.66 225.096V171ZM354.684 198.288C357.169 198.637 359.694 198.576 362.16 198.108V101.832H280.8C290.592 128.124 318.192 193.02 354.684 198.252V198.288ZM426.204 101.868H369.6V195.564C394.356 183.18 414.78 134.784 426.204 101.832V101.868Z" fill="#5A3A97"/>
<path opacity="0.48" d="M252.672 342.888H150.672V339.696C164.484 327.108 197.772 302.616 252.672 296.244V342.888ZM471.66 265.68C446.892 281.784 412.212 289.044 369.66 292.236V342.888H471.66V265.68ZM362.16 292.8C337.152 294.372 309.576 294.72 279.816 294.72C272.988 294.72 266.46 295.02 260.16 295.548V342.924H362.16V292.8ZM252.672 249.204V140.988C224.928 123.912 190.632 110.328 166.368 101.832H150.672V277.656C180.336 267.6 221.196 261.6 252.672 249.168V249.204ZM362.16 233.136C339.912 241.53 316.852 247.59 293.352 251.22C291.69 251.331 290.085 251.873 288.696 252.792C278.592 260.652 320.928 263.22 325.488 263.184C337.763 263.059 350.016 262.097 362.16 260.304V233.136ZM299.46 202.668C302.292 181.692 284.724 162.312 260.16 145.836V246C281.172 236.4 296.688 223.2 299.46 202.632V202.668ZM471.66 171C439.452 195.636 405.66 215.808 369.66 230.232V259.104C404.724 253.104 438.696 240.684 471.66 225.096V171ZM354.684 198.288C357.169 198.637 359.694 198.576 362.16 198.108V101.832H280.8C290.592 128.124 318.192 193.02 354.684 198.252V198.288ZM426.204 101.868H369.6V195.564C394.356 183.18 414.78 134.784 426.204 101.832V101.868Z" fill="white"/>
<path d="M152.052 333.492C152.052 333.492 152.052 329.34 146.22 323.508C140.388 317.676 136.62 314.352 136.62 314.352C136.62 314.352 133.704 323.952 139.116 329.748C143.095 333.849 147.41 337.61 152.016 340.992L152.052 333.492Z" fill="#5A3A97"/>
<path d="M143.591 359.496C143.591 359.496 143.591 355.332 137.771 349.5C131.951 343.668 128.171 340.344 128.171 340.344C128.171 340.344 125.255 349.944 130.667 355.74C134.646 359.841 138.961 363.602 143.567 366.984L143.591 359.496Z" fill="#5A3A97"/>
<path d="M151.682 340.584C151.682 340.584 152.126 336.444 158.534 331.272C164.942 326.1 169.022 323.172 169.022 323.172C169.022 323.172 170.906 333 164.918 338.22C160.528 341.866 155.84 345.138 150.902 348L151.682 340.584Z" fill="#5A3A97"/>
<path d="M141.47 371.279C141.47 371.279 142.346 367.211 149.258 362.735C156.17 358.259 160.538 355.787 160.538 355.787C160.538 355.787 161.39 365.759 154.874 370.331C150.121 373.503 145.112 376.273 139.898 378.611L141.47 371.279Z" fill="#5A3A97"/>
<path d="M143.391 404.759C143.391 404.759 143.391 400.595 149.223 394.763C155.055 388.931 158.823 385.607 158.823 385.607C158.823 385.607 161.727 395.207 156.315 401.015C152.337 405.114 148.022 408.871 143.415 412.247L143.391 404.759Z" fill="#5A3A97"/>
<path d="M143.293 412.919C143.293 412.919 143.881 408.803 138.949 402.203C134.017 395.603 130.765 391.787 130.765 391.787C130.765 391.787 126.529 400.847 131.053 407.387C134.41 412.007 138.147 416.338 142.225 420.335L143.293 412.919Z" fill="#5A3A97"/>
<path d="M137.547 437.135C137.547 437.135 137.547 432.971 143.379 427.151C149.211 421.331 152.979 417.995 152.979 417.995C152.979 417.995 155.883 427.595 150.483 433.391C146.501 437.494 142.182 441.255 137.571 444.635L137.547 437.135Z" fill="#5A3A97"/>
<path d="M141.444 459.084C141.444 459.084 140.388 455.064 144.54 447.948C148.692 440.832 151.488 436.668 151.488 436.668C151.488 436.668 156.732 445.188 152.976 452.196C150.173 457.165 146.962 461.894 143.376 466.332L141.444 459.084Z" fill="#5A3A97"/>
<path d="M152.58 332.399C152.283 336.733 151.751 341.048 150.984 345.323C148.68 357.215 142.92 364.895 140.616 375.647C138.312 386.399 144.924 400.247 143.16 414.047C141.396 427.847 135.96 435.539 137.544 444.755C139.128 453.971 147.144 478.919 147.144 478.919" stroke="#263238" stroke-width="0.5" stroke-linecap="round" stroke-linejoin="round"/>
<path d="M151.633 343.355L157.909 338.531" stroke="#263238" stroke-width="0.5" stroke-linecap="round" stroke-linejoin="round"/>
<path d="M151.921 337.8L149.293 333.132" stroke="#263238" stroke-width="0.5" stroke-linecap="round" stroke-linejoin="round"/>
<path d="M140.965 375.192C140.965 375.192 146.221 371.244 151.633 367.308" stroke="#263238" stroke-width="0.5" stroke-linecap="round" stroke-linejoin="round"/>
<path d="M143.594 366.983C140.974 361.916 137.842 357.131 134.246 352.703" stroke="#263238" stroke-width="0.5" stroke-linecap="round" stroke-linejoin="round"/>
<path d="M143.594 410.676C146.585 405.149 150.36 400.085 154.802 395.64" stroke="#263238" stroke-width="0.5" stroke-linecap="round" stroke-linejoin="round"/>
<path d="M142.575 416.519C140.979 412.769 139.076 409.157 136.887 405.719C133.815 401.195 133.371 400.607 133.371 400.607" stroke="#263238" stroke-width="0.5" stroke-linecap="round" stroke-linejoin="round"/>
<path d="M137.547 444.791C138.881 441.476 140.465 438.266 142.287 435.191C144.107 432.348 146.158 429.659 148.419 427.151" stroke="#263238" stroke-width="0.5" stroke-linecap="round" stroke-linejoin="round"/>
<path d="M143.342 466.331C143.033 463.174 143.576 459.992 144.914 457.115C147.098 452.879 149.582 447.335 150.614 445.115" stroke="#263238" stroke-width="0.5" stroke-linecap="round" stroke-linejoin="round"/>
<path d="M113.894 389.1C113.894 389.1 113.45 386.496 116.462 382.212C119.474 377.928 121.478 375.42 121.478 375.42C121.478 375.42 124.346 381.108 121.586 385.356C119.531 388.342 117.231 391.151 114.71 393.756L113.894 389.1Z" fill="#5A3A97"/>
<path d="M122.015 404.484C122.015 404.484 121.571 401.88 124.583 397.584C127.595 393.288 129.599 390.804 129.599 390.804C129.599 390.804 132.467 396.492 129.707 400.74C127.652 403.725 125.352 406.535 122.831 409.14L122.015 404.484Z" fill="#5A3A97"/>
<path d="M114.889 393.504C114.889 393.504 114.169 390.96 109.585 388.404C105.001 385.848 102.133 384.468 102.133 384.468C102.133 384.468 102.013 390.84 106.345 393.468C109.497 395.279 112.792 396.828 116.197 398.1L114.889 393.504Z" fill="#5A3A97"/>
<path d="M124.633 411.6C124.633 411.6 123.601 409.2 118.801 407.136C114.001 405.072 110.965 404.004 110.965 404.004C110.965 404.004 111.517 410.352 116.101 412.5C119.422 413.985 122.862 415.189 126.385 416.1L124.633 411.6Z" fill="#5A3A97"/>
<path d="M127.059 432.852C127.059 432.852 126.615 430.236 122.331 427.212C118.047 424.188 115.323 422.508 115.323 422.508C115.323 422.508 114.543 428.832 118.563 431.904C121.506 434.038 124.62 435.924 127.875 437.544L127.059 432.852Z" fill="#5A3A97"/>
<path d="M128.006 438C128.006 438 127.19 435.48 129.578 430.8C131.966 426.12 133.574 423.384 133.574 423.384C133.574 423.384 137.174 428.604 135.086 433.188C133.48 436.454 131.605 439.58 129.482 442.536L128.006 438Z" fill="#5A3A97"/>
<path d="M135.325 459.011C135.325 459.011 135.625 456.383 139.729 453.119C143.833 449.855 146.449 448.031 146.449 448.031C146.449 448.031 147.649 454.295 143.749 457.631C140.938 459.933 137.939 461.996 134.785 463.799L135.325 459.011Z" fill="#5A3A97"/>
<path d="M134.246 452.52C134.246 452.52 133.79 449.904 129.446 446.892C125.102 443.88 122.45 442.188 122.45 442.188C122.45 442.188 121.658 448.5 125.69 451.572C128.631 453.708 131.746 455.595 135.002 457.212L134.246 452.52Z" fill="#5A3A97"/>
<path d="M134.184 466.703C134.184 466.703 134.412 464.063 131.028 460.055C127.644 456.047 125.448 453.731 125.448 453.731C125.448 453.731 123.048 459.647 126.204 463.631C128.504 466.447 131.037 469.065 133.776 471.455L134.184 466.703Z" fill="#5A3A97"/>
<path d="M113.449 388.487C114.102 391.174 114.904 393.822 115.849 396.419C118.585 403.619 123.049 407.819 125.641 414.311C128.233 420.803 125.641 430.211 128.221 438.671C130.801 447.131 135.037 451.367 135.073 457.319C135.109 463.271 132.769 479.783 132.769 479.783" stroke="#263238" stroke-width="0.5" stroke-linecap="round" stroke-linejoin="round"/>
<path d="M115.225 395.232L110.773 392.892" stroke="#263238" stroke-width="0.5" stroke-linecap="round" stroke-linejoin="round"/>
<path d="M114.445 391.787L115.585 388.571" stroke="#263238" stroke-width="0.5" stroke-linecap="round" stroke-linejoin="round"/>
<path d="M125.376 414C125.376 414 121.644 412.092 117.828 410.208" stroke="#263238" stroke-width="0.5" stroke-linecap="round" stroke-linejoin="round"/>
<path d="M122.832 409.2C123.923 405.737 125.366 402.395 127.14 399.228" stroke="#263238" stroke-width="0.5" stroke-linecap="round" stroke-linejoin="round"/>
<path d="M127.574 436.583C125.095 433.449 122.172 430.692 118.898 428.399" stroke="#263238" stroke-width="0.5" stroke-linecap="round" stroke-linejoin="round"/>
<path d="M128.855 440.136C129.448 437.609 130.251 435.136 131.255 432.744C132.695 429.564 132.899 429.144 132.899 429.144" stroke="#263238" stroke-width="0.5" stroke-linecap="round" stroke-linejoin="round"/>
<path d="M134.871 461.82C136.319 460.019 137.925 458.353 139.671 456.84C140.777 456.023 141.816 455.12 142.779 454.14" stroke="#263238" stroke-width="0.5" stroke-linecap="round" stroke-linejoin="round"/>
<path d="M135.072 457.32C133.879 455.388 132.539 453.551 131.064 451.824C129.612 450.243 128.035 448.783 126.348 447.456" stroke="#263238" stroke-width="0.5" stroke-linecap="round" stroke-linejoin="round"/>
<path d="M133.778 471.455C133.626 469.445 132.943 467.511 131.798 465.851C129.962 463.451 127.802 460.223 126.926 458.951" stroke="#263238" stroke-width="0.5" stroke-linecap="round" stroke-linejoin="round"/>
<path d="M120.852 476.903H158.976V504.851C158.976 505.806 158.596 506.722 157.921 507.397C157.246 508.072 156.33 508.451 155.376 508.451H124.512C123.557 508.451 122.641 508.072 121.966 507.397C121.291 506.722 120.912 505.806 120.912 504.851V476.903H120.852Z" fill="#263238"/>
<path d="M158.643 481.871H120.855C120.066 481.871 119.309 481.558 118.751 481C118.192 480.441 117.879 479.685 117.879 478.895C117.877 478.503 117.953 478.115 118.102 477.753C118.251 477.39 118.47 477.061 118.746 476.783C119.023 476.506 119.351 476.285 119.713 476.135C120.075 475.985 120.463 475.907 120.855 475.907H158.643C159.036 475.906 159.425 475.982 159.788 476.131C160.152 476.281 160.482 476.501 160.759 476.779C161.037 477.057 161.257 477.387 161.407 477.75C161.556 478.113 161.633 478.502 161.631 478.895C161.631 479.287 161.554 479.675 161.403 480.037C161.253 480.399 161.033 480.727 160.755 481.004C160.477 481.28 160.148 481.499 159.785 481.648C159.423 481.797 159.035 481.873 158.643 481.871Z" fill="#263238"/>
<path d="M344.521 253.5C344.521 253.5 335.821 254.7 334.621 259.5C333.421 264.3 327.721 296.7 325.321 303C322.921 309.3 321.721 313.5 323.821 316.8C325.921 320.1 331.021 316.8 334.021 310.5C337.021 304.2 340.021 268.8 342.121 264C343.463 260.646 344.272 257.104 344.521 253.5Z" fill="#DFADAD" stroke="#263238" stroke-linecap="round" stroke-linejoin="round"/>
<path d="M338.318 287.328C339.746 276.876 341.054 266.448 342.122 264C343.463 260.646 344.273 257.104 344.522 253.5C344.522 253.5 335.822 254.7 334.622 259.5C333.938 262.248 331.766 274.068 329.594 284.844C332.274 286.327 335.258 287.177 338.318 287.328Z" fill="#5A3A97" stroke="#263238" stroke-linecap="round" stroke-linejoin="round"/>
<path d="M342.118 472.8L343.018 499.8C343.018 499.8 332.218 506.4 326.818 508.8C321.418 511.2 330.718 512.7 334.018 512.7C337.318 512.7 343.318 510.3 346.918 510.3C350.518 510.3 353.818 511.2 353.818 506.1C353.818 501 353.218 472.5 353.218 472.5L342.118 472.8Z" fill="#DFADAD" stroke="#263238" stroke-linecap="round" stroke-linejoin="round"/>
<path d="M353.818 506.1C353.818 505.692 353.818 505.116 353.818 504.432C348.905 505.661 343.887 506.42 338.83 506.7L335.65 504.144C332.578 505.896 329.194 507.744 326.83 508.8C321.43 511.2 330.73 512.7 334.03 512.7C337.33 512.7 343.33 510.3 346.93 510.3C350.53 510.3 353.818 511.2 353.818 506.1Z" fill="#5A3A97" stroke="#263238" stroke-linecap="round" stroke-linejoin="round"/>
<path d="M371.82 474.6C371.82 474.6 375.72 500.7 378.72 506.4C381.72 512.1 387.12 517.2 389.52 518.1C391.92 519 395.82 516 392.52 509.7C389.22 503.4 383.52 498 382.02 494.1C380.52 490.2 383.52 473.7 383.52 473.7L371.82 474.6Z" fill="#DFADAD" stroke="#263238" stroke-linecap="round" stroke-linejoin="round"/>
<path d="M389.518 518.099C391.918 518.999 395.818 515.999 392.518 509.699C391.814 508.377 391.037 507.095 390.19 505.859C387.922 506.489 385.571 506.773 383.218 506.699C381.406 506.519 378.826 503.807 377.074 501.695C377.468 503.313 378.018 504.889 378.718 506.399C381.718 512.099 387.118 517.199 389.518 518.099Z" fill="#5A3A97" stroke="#263238" stroke-linecap="round" stroke-linejoin="round"/>
<path d="M334.321 316.2C334.321 316.2 332.521 332.4 331.321 343.8C329.856 356.846 329.355 369.981 329.821 383.1C330.421 397.8 333.121 430.8 334.921 439.8C336.374 447.216 337.177 454.745 337.321 462.3C337.321 466.5 337.921 474.3 337.921 474.3C340.577 475.808 343.567 476.633 346.621 476.7C349.544 476.696 352.459 476.394 355.321 475.8C355.321 475.8 356.521 450.3 355.321 439.2C354.121 428.1 354.721 389.1 355.021 383.1C355.321 377.1 356.221 357.9 356.221 357.9C356.221 357.9 360.421 387.3 362.821 402C365.221 416.7 367.321 476.7 367.321 476.7C370.744 477.639 374.272 478.143 377.821 478.2C381.443 478.084 385.008 477.269 388.321 475.8C388.321 475.8 386.221 429.3 386.221 417.9C386.221 406.5 390.421 353.7 388.021 344.1C385.621 334.5 380.521 318.6 380.521 318.6L334.321 316.2Z" fill="#263238" stroke="#263238" stroke-linecap="round" stroke-linejoin="round"/>
<path d="M349.691 345.792L355.151 360.54" stroke="white" stroke-linecap="round" stroke-linejoin="round"/>
<path d="M375.119 246.6C366.119 243.9 359.819 247.2 359.819 247.2C359.819 247.2 349.019 251.4 344.519 253.5C340.607 255.324 340.043 262.764 339.167 270C337.715 273.264 333.587 282.84 332.819 288.216C332.639 289.541 332.724 290.889 333.071 292.181C333.417 293.472 334.016 294.682 334.835 295.74C333.635 302.256 332.615 308.232 332.219 311.1C331.319 317.7 332.219 319.8 338.819 321C345.419 322.2 380.519 321.6 381.419 320.4C382.319 319.2 380.519 312.9 385.619 303.9C390.719 294.9 399.419 264 399.419 260.1C399.419 256.2 384.119 249.3 375.119 246.6Z" fill="#5A3A97" stroke="#263238" stroke-linecap="round" stroke-linejoin="round"/>
<path d="M390.589 284.544L383.797 278.184" stroke="#263238" stroke-linecap="round" stroke-linejoin="round"/>
<path d="M379.981 296.004C379.981 296.004 372.349 299.82 365.977 299.4" stroke="#263238" stroke-linecap="round" stroke-linejoin="round"/>
<path d="M361.32 246C361.32 246 356.82 248.7 356.52 251.1C356.22 253.5 349.02 260.4 349.02 260.4C349.02 260.4 356.22 256.8 358.32 256.2C360.42 255.6 367.32 249.6 365.22 246.3C363.12 243 361.32 246 361.32 246Z" fill="#5A3A97" stroke="#263238" stroke-linecap="round" stroke-linejoin="round"/>
<path d="M355.621 237.6C355.621 237.6 359.221 245.1 359.221 249V267.9L369.121 245.7C370.321 243 370.321 230.7 370.321 230.7C370.321 230.7 359.521 238.2 355.621 237.6Z" fill="#DFADAD" stroke="#263238" stroke-linecap="round" stroke-linejoin="round"/>
<path d="M347.821 199.5C347.821 199.5 344.221 203.7 344.221 208.5C344.221 213.3 344.149 221.448 342.001 223.2C339.853 224.952 339.373 224.952 340.573 226.8C341.577 228.003 342.947 228.846 344.473 229.2C344.473 229.2 347.773 238.2 350.173 240C352.573 241.8 367.573 236.1 367.573 236.1C367.573 236.1 378.073 224.7 375.673 213.9C373.273 203.1 359.821 187.5 347.821 199.5Z" fill="#DFADAD" stroke="#263238" stroke-linecap="round" stroke-linejoin="round"/>
<path d="M348.958 219.504C348.958 220.704 348.527 221.664 348.011 221.664C347.495 221.664 347.062 220.692 347.062 219.504C347.062 218.316 347.483 217.332 348.011 217.332C348.539 217.332 348.958 218.304 348.958 219.504Z" fill="#263238"/>
<path d="M346.523 213.012C346.523 213.012 348.143 209.76 351.923 213.552" stroke="#263238" stroke-linecap="round" stroke-linejoin="round"/>
<path d="M347.605 230.855C348.399 230.901 349.192 230.78 349.936 230.501C350.68 230.222 351.358 229.791 351.925 229.235" stroke="#263238" stroke-linecap="round" stroke-linejoin="round"/>
<path d="M371.522 242.1L364.922 251.4C365.497 254.428 366.726 257.294 368.522 259.8C371.522 264 373.322 269.1 373.622 267C373.922 264.9 373.322 260.1 373.922 257.4C374.522 254.7 377.222 247.2 377.222 247.2L371.522 242.1Z" fill="#5A3A97" stroke="#263238" stroke-linecap="round" stroke-linejoin="round"/>
<path d="M389.52 276.6C389.52 276.6 394.476 312.144 394.02 316.2C393.024 325.032 406.02 329.4 407.82 323.7C409.62 318 402.708 267.804 402.384 264.816C401.76 259.212 396.3 255.12 392.4 254.22" fill="#5A3A97"/>
<path d="M389.52 276.6C389.52 276.6 394.476 312.144 394.02 316.2C393.024 325.032 406.02 329.4 407.82 323.7C409.62 318 402.708 267.804 402.384 264.816C401.76 259.212 396.3 255.12 392.4 254.22" stroke="#263238" stroke-linecap="round" stroke-linejoin="round"/>
<path d="M407.82 323.7C408.924 320.196 406.74 299.868 404.82 284.04C400.02 284.33 395.328 285.579 391.02 287.712C392.436 298.512 394.308 313.632 394.02 316.2C393.024 325.032 406.02 329.4 407.82 323.7Z" fill="#DFADAD" stroke="#263238" stroke-linecap="round" stroke-linejoin="round"/>
<path d="M407.819 323.699C407.819 323.699 406.619 314.999 402.719 313.199C398.819 311.399 388.619 312.899 381.719 311.399C375.319 309.884 368.789 308.98 362.219 308.699C357.119 308.699 346.319 308.399 346.019 309.599C345.719 310.799 351.719 314.099 357.119 314.699C361.613 315.014 366.124 315.014 370.619 314.699C372.119 314.699 391.019 322.799 397.319 325.499C403.619 328.199 406.619 327.299 407.819 323.699Z" fill="#DFADAD" stroke="#263238" stroke-linecap="round" stroke-linejoin="round"/>
<path d="M354.961 310.056L360.889 312.24H364.009" stroke="#263238" stroke-linecap="round" stroke-linejoin="round"/>
<path d="M350.22 305.412C346.8 305.412 344.652 304.356 343.968 298.896C343.81 298.132 343.846 297.341 344.072 296.595C344.299 295.849 344.708 295.171 345.264 294.624C347.304 292.74 350.772 293.424 351.156 293.424C351.482 293.511 351.762 293.72 351.938 294.007C352.115 294.295 352.175 294.639 352.106 294.969C352.037 295.299 351.844 295.591 351.567 295.783C351.29 295.975 350.949 296.054 350.616 296.004C349.968 295.872 347.928 295.68 347.016 296.496C346.86 296.652 346.392 297.084 346.56 298.5C347.1 302.844 347.904 302.928 352.08 302.628C352.258 302.604 352.44 302.616 352.614 302.665C352.787 302.714 352.949 302.797 353.089 302.911C353.229 303.024 353.344 303.165 353.427 303.325C353.51 303.485 353.56 303.66 353.573 303.84C353.586 304.019 353.563 304.2 353.503 304.37C353.444 304.54 353.351 304.696 353.229 304.829C353.107 304.962 352.959 305.068 352.794 305.141C352.63 305.215 352.452 305.254 352.272 305.256C351.6 305.364 350.868 305.412 350.22 305.412Z" fill="white" stroke="#263238" stroke-linecap="round" stroke-linejoin="round"/>
<path d="M359.999 308.4H354.503C353.64 308.4 352.807 308.076 352.172 307.491C351.536 306.906 351.143 306.104 351.071 305.244L349.871 291.168H364.631L363.431 305.244C363.359 306.104 362.966 306.906 362.33 307.491C361.695 308.076 360.863 308.4 359.999 308.4Z" fill="white" stroke="#263238" stroke-linecap="round" stroke-linejoin="round"/>
<path d="M365.749 309.348H348.025L345.805 307.5H367.957L365.749 309.348Z" fill="white" stroke="#263238" stroke-linecap="round" stroke-linejoin="round"/>
<path d="M334.62 302.7C334.62 302.7 326.22 304.2 322.704 309.84C321.804 311.28 321.42 319.8 324.72 322.5C328.02 325.2 332.82 317.7 335.22 313.5C337.62 309.3 340.02 304.2 340.02 304.2L334.62 302.7Z" fill="#DFADAD" stroke="#263238" stroke-linecap="round" stroke-linejoin="round"/>
<path d="M350.82 190.8C350.82 190.8 339.42 190.2 341.22 200.4C343.02 210.6 358.02 205.8 361.02 215.1C364.02 224.4 355.92 246 357.42 246.9C358.92 247.8 377.52 244.5 379.92 240.6C382.32 236.7 386.52 225.9 384.12 210C381.72 194.1 367.92 185.7 350.82 190.8Z" fill="#263238" stroke="#263238" stroke-linecap="round" stroke-linejoin="round"/>
<path d="M333.661 301.199C333.661 301.199 334.921 293.447 336.421 291.599C337.921 289.751 347.041 296.555 347.041 296.555C347.041 296.555 348.241 298.955 346.825 299.483C346.336 299.616 345.823 299.632 345.327 299.53C344.831 299.428 344.366 299.211 343.969 298.895C343.969 298.895 344.221 304.799 342.421 306.299C340.621 307.799 334.321 306.599 333.121 304.799C331.921 302.999 333.661 301.199 333.661 301.199Z" fill="#DFADAD" stroke="#263238" stroke-linecap="round" stroke-linejoin="round"/>
<path d="M337.234 295.02L343.966 298.896" stroke="#263238" stroke-linecap="round" stroke-linejoin="round"/>
<path d="M335.062 298.212C335.062 298.212 339.791 301.272 343.367 301.536" stroke="#263238" stroke-linecap="round" stroke-linejoin="round"/>
<path d="M333.66 301.2C336.481 303.05 339.747 304.107 343.116 304.26" stroke="#263238" stroke-linecap="round" stroke-linejoin="round"/>
<path d="M284.578 260.664C284.578 260.664 289.234 260.94 290.878 266.964C292.522 272.988 293.278 300.096 293.062 303.384C292.846 306.672 294.982 312.984 297.166 314.892C299.35 316.8 303.466 318.72 301.282 320.088C299.098 321.456 295.282 322.008 290.05 318.72C284.818 315.432 282.382 308.868 281.29 302.292C280.198 295.716 282.382 282.024 279.922 273.492C277.462 264.96 281.014 260.664 284.578 260.664Z" fill="#DFADAD" stroke="#263238" stroke-linecap="round" stroke-linejoin="round"/>
<path d="M298.128 505.919C298.147 506.962 297.84 507.985 297.252 508.847C296.376 509.735 276.708 507.971 274.656 507.971C272.604 507.971 272.316 505.571 272.316 504.155C272.316 502.739 298.128 505.919 298.128 505.919Z" fill="#263238" stroke="#263238" stroke-linecap="round" stroke-linejoin="round"/>
<path d="M294.613 397.067C294.613 397.067 290.209 416.435 288.745 422.591C287.281 428.747 289.621 444.599 286.981 458.387C284.341 472.175 282.001 490.367 282.001 493.007C282.001 495.647 298.717 504.743 298.129 505.919C297.541 507.095 286.129 505.619 283.465 505.331C280.801 505.043 276.421 505.619 274.369 504.743C272.317 503.867 274.069 499.463 274.369 497.111C275.464 487.368 276.053 477.575 276.133 467.771C276.133 454.571 273.733 436.091 274.657 429.635C275.267 424.084 275.564 418.503 275.545 412.919C275.545 412.031 273.145 397.067 273.145 397.067C273.145 397.067 286.105 395.903 294.613 397.067Z" fill="#DFADAD" stroke="#263238" stroke-linecap="round" stroke-linejoin="round"/>
<path d="M286.689 497.111L283.461 505.331L289.029 506.507L292.257 500.927L286.689 497.111Z" fill="#5A3A97" stroke="#263238" stroke-linecap="round" stroke-linejoin="round"/>
<path d="M232.895 495.683C232.895 495.683 229.187 504.791 228.875 508.031C228.563 511.271 230.579 515.231 234.587 513.431C238.595 511.631 239.687 498.467 239.687 495.431C239.687 492.395 235.667 490.283 232.895 495.683Z" fill="#263238" stroke="#263238" stroke-linecap="round" stroke-linejoin="round"/>
<path d="M255.599 400.296C255.599 400.296 265.871 417.9 264.107 421.716C262.343 425.532 254.423 433.152 250.907 445.476C247.391 457.8 236.507 486.852 233.603 495.06C230.699 503.268 228.023 510.9 232.715 512.076C237.407 513.252 240.047 494.772 241.523 490.656C242.999 486.54 265.283 455.46 270.323 447.528C275.363 439.596 281.123 424.944 281.123 419.928C281.123 414.912 278.195 398.22 278.195 398.22C278.195 398.22 265.559 395.316 255.599 400.296Z" fill="#DFADAD" stroke="#263238" stroke-linecap="round" stroke-linejoin="round"/>
<path d="M230.949 502.392L238.281 504.156L239.745 499.464L232.113 497.412L230.949 502.392Z" fill="#5A3A97" stroke="#263238" stroke-linecap="round" stroke-linejoin="round"/>
<path d="M249.131 316.979C241.292 327.145 236.602 339.386 235.643 352.187C234.167 373.307 254.411 402.648 254.411 402.648C254.411 402.648 283.463 397.368 294.899 401.448C294.899 401.448 303.707 377.388 300.179 354.804C297.796 340.618 292.826 326.992 285.515 314.604L249.131 316.979Z" fill="#263238" stroke="#263238" stroke-linecap="round" stroke-linejoin="round"/>
<path d="M269.016 350.399C269.016 350.399 275.712 370.511 279.624 388.943" stroke="white" stroke-linecap="round" stroke-linejoin="round"/>
<path d="M270.684 342C270.684 342 274.044 352.056 275.712 358.2" stroke="white" stroke-linecap="round" stroke-linejoin="round"/>
<path d="M276.083 199.608C276.083 199.608 279.683 199.056 283.211 203.712C286.739 208.368 286.499 215.712 287.867 218.22C289.235 220.728 290.603 220.692 290.879 222.6C291.155 224.508 287.279 226.2 287.279 226.2C287.279 226.2 286.463 234.96 284.819 238.2C283.175 241.44 279.335 241.488 277.415 240.936C275.495 240.384 271.415 238.752 271.415 238.752C271.415 238.752 270.047 250.248 270.599 252.72C271.151 255.192 281.279 258.72 283.475 259.836C285.671 260.952 287.579 264.216 286.751 269.436C285.923 274.656 288.119 280.116 288.671 283.392C289.223 286.668 292.511 292.164 289.763 297.36C287.015 302.556 285.107 303.936 285.107 305.856C285.107 307.776 287.303 315.456 285.935 317.352C284.567 319.248 254.735 319.812 251.699 319.812C248.663 319.812 247.055 312.696 246.503 311.052C245.951 309.408 239.651 284.496 237.467 278.472C235.283 272.448 235.007 260.94 240.203 258.756C245.399 256.572 255.263 254.64 257.459 248.616C259.084 243.768 259.46 238.588 258.551 233.556C257.999 231.912 251.975 229.728 250.331 213.564C248.687 197.4 266.783 190.8 276.083 199.608Z" fill="#DFADAD" stroke="#263238" stroke-linecap="round" stroke-linejoin="round"/>
<path d="M285.022 231.408C284.962 232.512 284.422 233.376 283.822 233.34C283.222 233.304 282.766 232.392 282.826 231.288C282.886 230.184 283.426 229.32 284.026 229.356C284.626 229.392 285.082 230.304 285.022 231.408Z" fill="#263238"/>
<path d="M283.2 215.58L284.532 219.18C284.145 219.527 283.687 219.787 283.19 219.94C282.693 220.093 282.168 220.137 281.652 220.068" stroke="#263238" stroke-linecap="round" stroke-linejoin="round"/>
<path d="M278.809 214.031C278.809 214.031 281.209 211.631 283.921 211.811" stroke="#263238" stroke-linecap="round" stroke-linejoin="round"/>
<path d="M260.757 224.52C261.561 224.679 262.39 224.657 263.184 224.454C263.977 224.252 264.716 223.875 265.345 223.35C265.974 222.825 266.478 222.167 266.82 221.423C267.162 220.678 267.333 219.867 267.321 219.048C267.873 212.472 268.797 208.164 274.269 207.624C279.741 207.084 279.645 208.092 285.669 206.172C291.693 204.252 294.705 191.664 288.405 188.1C282.105 184.536 276.081 190.572 271.977 192.48C267.873 194.388 262.665 187.824 256.641 191.94C250.617 196.056 252.813 201.252 250.893 204.528C248.973 207.804 244.317 213.564 247.065 220.128C249.813 226.692 257.469 236.556 260.265 234.372C263.061 232.188 260.757 224.52 260.757 224.52Z" fill="#5A3A97" stroke="#263238" stroke-linecap="round" stroke-linejoin="round"/>
<path d="M267.384 212.22L260.688 211.38L260.484 213.888L266.964 215.148L267.384 212.22Z" fill="white" stroke="#263238" stroke-linecap="round" stroke-linejoin="round"/>
<path d="M265.405 227.255C265.405 227.255 263.773 222.335 260.485 222.599C257.197 222.863 258.841 230.003 261.577 232.739C264.313 235.475 267.325 231.635 267.325 231.635" fill="#DFADAD"/>
<path d="M265.405 227.255C265.405 227.255 263.773 222.335 260.485 222.599C257.197 222.863 258.841 230.003 261.577 232.739C264.313 235.475 267.325 231.635 267.325 231.635" stroke="#263238" stroke-linecap="round" stroke-linejoin="round"/>
<path d="M249.253 220.968C249.253 220.968 244.321 217.956 241.585 220.968C238.849 223.98 239.401 233.556 243.781 236.292C244.764 236.976 245.924 237.365 247.121 237.413C248.319 237.461 249.505 237.165 250.541 236.561C251.576 235.957 252.417 235.07 252.965 234.004C253.513 232.938 253.744 231.737 253.633 230.544C253.617 228.729 253.219 226.938 252.464 225.288C251.709 223.638 250.615 222.166 249.253 220.968Z" fill="#5A3A97" stroke="#263238" stroke-linecap="round" stroke-linejoin="round"/>
<path d="M286.799 269.435C287.627 264.227 285.707 260.939 283.523 259.835C282.671 259.415 280.655 258.635 278.447 257.675C277.559 262.907 274.727 271.319 265.715 271.883C256.115 272.483 248.051 262.655 244.343 257.243C242.843 257.759 241.427 258.239 240.251 258.743C239.937 258.876 239.638 259.045 239.363 259.247C242.519 263.699 247.199 271.511 247.919 279.551C248.233 281.968 247.757 284.422 246.56 286.546C245.364 288.67 243.513 290.35 241.283 291.335C243.683 300.167 246.215 310.031 246.551 311.039C247.103 312.683 245.915 318.623 248.951 318.623C251.987 318.623 284.639 319.259 286.007 317.339C287.375 315.419 285.179 307.739 285.179 305.843C285.179 303.947 287.099 302.555 289.835 297.347C292.571 292.139 289.295 286.667 288.743 283.379C288.191 280.091 285.947 274.631 286.799 269.435Z" fill="#5A3A97" stroke="#263238" stroke-linecap="round" stroke-linejoin="round"/>
<path d="M239.999 260.124C239.999 260.124 234.251 259.847 231.791 266.963C229.331 274.079 220.559 326.664 221.111 329.676C221.663 332.688 231.515 328.031 232.607 325.571C233.699 323.111 244.607 283.943 244.607 283.943" fill="#DFADAD"/>
<path d="M239.999 260.124C239.999 260.124 234.251 259.847 231.791 266.963C229.331 274.079 220.559 326.664 221.111 329.676C221.663 332.688 231.515 328.031 232.607 325.571C233.699 323.111 244.607 283.943 244.607 283.943" stroke="#263238" stroke-linecap="round" stroke-linejoin="round"/>
<path d="M227.891 317.076C227.891 317.076 254.459 305.304 258.839 300.924C263.219 296.544 262.127 292.704 263.495 290.784C264.781 289.305 265.983 287.754 267.095 286.14C268.199 284.22 269.291 284.496 269.291 286.404C269.291 288.312 267.599 289.692 267.599 290.52V291.336C267.599 291.336 274.439 288.6 276.083 288.048C277.727 287.496 280.199 284.448 280.475 286.404C280.751 288.36 277.451 289.692 277.187 292.164C276.923 294.636 277.187 297.636 275.543 299.556C273.899 301.476 268.151 304.212 265.403 305.028C262.655 305.844 246.203 316.26 238.847 322.008C231.491 327.756 224.603 332.412 221.591 331.044C218.579 329.676 222.419 320.364 222.419 320.364" fill="#DFADAD"/>
<path d="M227.891 317.076C227.891 317.076 254.459 305.304 258.839 300.924C263.219 296.544 262.127 292.704 263.495 290.784C264.781 289.305 265.983 287.754 267.095 286.14C268.199 284.22 269.291 284.496 269.291 286.404C269.291 288.312 267.599 289.692 267.599 290.52V291.336C267.599 291.336 274.439 288.6 276.083 288.048C277.727 287.496 280.199 284.448 280.475 286.404C280.751 288.36 277.451 289.692 277.187 292.164C276.923 294.636 277.187 297.636 275.543 299.556C273.899 301.476 268.151 304.212 265.403 305.028C262.655 305.844 246.203 316.26 238.847 322.008C231.491 327.756 224.603 332.412 221.591 331.044C218.579 329.676 222.419 320.364 222.419 320.364" stroke="#263238" stroke-linecap="round" stroke-linejoin="round"/>
<path d="M307.451 318.143C307.451 318.143 308.975 314.352 308.651 312.828C308.327 311.304 305.675 312.132 305.051 314.028C304.427 315.924 304.643 316.656 305.243 316.656C305.843 316.656 307.451 318.143 307.451 318.143Z" fill="#DFADAD" stroke="#263238" stroke-linecap="round" stroke-linejoin="round"/>
<path d="M291.973 317.688C292.866 318.668 293.829 319.582 294.853 320.424C296.677 321.948 300.625 322.404 300.625 322.404C300.625 322.404 296.521 318.804 295.765 318C295.009 317.196 291.973 317.688 291.973 317.688Z" fill="white" stroke="#263238" stroke-linecap="round" stroke-linejoin="round"/>
<path d="M307.2 317.628C307.2 317.628 306 321.336 304.8 322.428C303.6 323.52 299.64 322.272 297.216 320.604C294.792 318.936 293.616 317.256 294.936 317.256C296.256 317.256 307.2 317.628 307.2 317.628Z" fill="#DFADAD" stroke="#263238" stroke-linecap="round" stroke-linejoin="round"/>
<path d="M297.43 317.844C299.449 319.818 301.692 321.55 304.114 323.004" stroke="#263238" stroke-linecap="round" stroke-linejoin="round"/>
<path d="M302.086 316.8C302.086 316.8 303.658 320.724 305.482 321.6" stroke="#263238" stroke-linecap="round" stroke-linejoin="round"/>
<path d="M293.997 313.776C290.649 313.776 288.549 312.744 287.889 307.404C287.725 306.663 287.749 305.892 287.958 305.163C288.168 304.434 288.557 303.768 289.089 303.228C291.081 301.392 294.465 302.028 294.849 302.112C295.166 302.2 295.438 302.405 295.609 302.686C295.78 302.967 295.838 303.303 295.771 303.625C295.704 303.947 295.517 304.232 295.247 304.421C294.978 304.61 294.647 304.69 294.321 304.644C293.685 304.512 291.693 304.32 290.829 305.124C290.673 305.268 290.205 305.7 290.385 307.08C290.913 311.328 291.693 311.412 295.785 311.112C295.961 311.088 296.14 311.1 296.311 311.148C296.482 311.196 296.641 311.278 296.778 311.39C296.916 311.502 297.029 311.641 297.111 311.798C297.193 311.956 297.242 312.128 297.254 312.305C297.266 312.482 297.242 312.66 297.183 312.827C297.124 312.995 297.031 313.148 296.91 313.278C296.789 313.408 296.643 313.512 296.481 313.583C296.318 313.654 296.143 313.691 295.965 313.692C295.293 313.74 294.621 313.776 293.997 313.776Z" fill="white" stroke="#263238" stroke-linecap="round" stroke-linejoin="round"/>
<path d="M303.49 316.728H298.114C297.271 316.728 296.459 316.411 295.839 315.839C295.218 315.268 294.836 314.484 294.766 313.644L293.566 299.88H307.966L306.766 313.644C306.696 314.471 306.322 315.243 305.718 315.812C305.113 316.381 304.32 316.707 303.49 316.728Z" fill="white" stroke="#263238" stroke-linecap="round" stroke-linejoin="round"/>
<path d="M309.168 317.627H291.84L289.668 315.815H311.328L309.168 317.627Z" fill="white" stroke="#263238" stroke-linecap="round" stroke-linejoin="round"/>
</svg>
