<svg width="600" height="600" viewBox="0 0 600 600" fill="none" xmlns="http://www.w3.org/2000/svg">
<path d="M524.689 457.883C528.193 445.067 539.605 402.047 547.357 358.475C556.597 306.455 564.685 234.803 527.701 204.743C490.717 174.683 442.165 210.527 416.737 198.971C391.309 187.415 390.157 129.611 321.937 112.283C253.717 94.9554 215.593 155.039 185.545 187.403C155.497 219.767 121.945 197.807 78.0487 232.487C34.6087 266.783 71.4487 422.087 103.573 457.883H524.689Z" fill="#5A3A97"/>
<path d="M524.689 457.883C528.193 445.067 539.605 402.047 547.357 358.475C556.597 306.455 564.685 234.803 527.701 204.743C490.717 174.683 442.165 210.527 416.737 198.971C391.309 187.415 390.157 129.611 321.937 112.283C253.717 94.9554 215.593 155.039 185.545 187.403C155.497 219.767 121.945 197.807 78.0487 232.487C34.6087 266.783 71.4487 422.087 103.573 457.883H524.689Z" fill="#FAB748"/>
<path d="M536.655 214.451H442.455C441.997 214.454 441.56 214.637 441.236 214.961C440.913 215.284 440.73 215.722 440.727 216.179V458.579C440.727 459.039 440.908 459.479 441.232 459.805C441.556 460.131 441.995 460.316 442.455 460.319H536.655C537.116 460.319 537.559 460.136 537.885 459.809C538.211 459.483 538.395 459.041 538.395 458.579V216.179C538.391 215.72 538.207 215.28 537.881 214.957C537.555 214.633 537.114 214.451 536.655 214.451ZM534.927 456.851H444.195V217.919H534.927V456.851Z" fill="white"/>
<path d="M450.767 267.791H528.347C528.575 267.791 528.801 267.746 529.011 267.659C529.222 267.571 529.413 267.443 529.574 267.281C529.734 267.119 529.861 266.927 529.947 266.716C530.033 266.505 530.077 266.279 530.075 266.051V225.095C530.077 224.868 530.033 224.642 529.947 224.432C529.861 224.222 529.734 224.031 529.573 223.87C529.412 223.709 529.221 223.582 529.01 223.496C528.8 223.409 528.575 223.366 528.347 223.367H450.767C450.539 223.366 450.313 223.409 450.102 223.495C449.891 223.581 449.699 223.708 449.538 223.869C449.376 224.03 449.248 224.221 449.16 224.431C449.072 224.642 449.027 224.867 449.027 225.095V266.051C449.027 266.513 449.211 266.955 449.537 267.282C449.863 267.608 450.306 267.791 450.767 267.791ZM452.495 226.799H526.607V264.287H452.495V226.799Z" fill="white"/>
<path d="M450.767 325.967H528.347C528.575 325.969 528.8 325.925 529.01 325.839C529.221 325.752 529.412 325.625 529.573 325.464C529.734 325.304 529.861 325.112 529.947 324.902C530.033 324.692 530.077 324.466 530.075 324.239V283.283C530.077 283.055 530.033 282.829 529.947 282.618C529.861 282.407 529.734 282.215 529.574 282.053C529.413 281.892 529.222 281.763 529.011 281.676C528.801 281.588 528.575 281.543 528.347 281.543H450.767C450.306 281.543 449.863 281.726 449.537 282.053C449.211 282.379 449.027 282.822 449.027 283.283V324.239C449.027 324.467 449.072 324.693 449.16 324.903C449.248 325.113 449.376 325.304 449.538 325.465C449.699 325.626 449.891 325.753 450.102 325.839C450.313 325.925 450.539 325.969 450.767 325.967ZM452.495 285.011H526.607V322.511H452.495V285.011Z" fill="white"/>
<path d="M450.767 384.154H528.347C528.806 384.154 529.245 383.972 529.569 383.648C529.893 383.324 530.075 382.885 530.075 382.426V341.458C530.075 341 529.893 340.561 529.569 340.237C529.245 339.913 528.806 339.73 528.347 339.73H450.767C450.308 339.73 449.867 339.912 449.541 340.236C449.215 340.56 449.031 340.999 449.027 341.458V382.426C449.031 382.886 449.215 383.325 449.541 383.649C449.867 383.973 450.308 384.154 450.767 384.154ZM452.495 343.198H526.607V380.686H452.495V343.198Z" fill="white"/>
<path d="M450.768 442.343H528.348C528.576 442.343 528.802 442.298 529.012 442.21C529.222 442.123 529.414 441.995 529.574 441.833C529.735 441.671 529.862 441.479 529.948 441.268C530.034 441.057 530.078 440.831 530.076 440.603V399.599C530.078 399.372 530.034 399.146 529.948 398.936C529.861 398.726 529.734 398.534 529.573 398.374C529.413 398.213 529.222 398.086 529.011 397.999C528.801 397.913 528.575 397.87 528.348 397.871H450.768C450.54 397.87 450.314 397.913 450.103 397.999C449.892 398.085 449.7 398.212 449.538 398.373C449.377 398.534 449.248 398.725 449.161 398.935C449.073 399.146 449.028 399.371 449.028 399.599V440.555C449.022 440.788 449.062 441.019 449.146 441.236C449.231 441.452 449.358 441.65 449.52 441.817C449.683 441.983 449.877 442.116 450.091 442.206C450.305 442.297 450.535 442.343 450.768 442.343ZM452.496 401.387H526.608V438.875H452.496V401.387Z" fill="white"/>
<path d="M418.655 128.398H164.927C164.477 128.398 164.045 128.574 163.722 128.888C163.399 129.201 163.212 129.629 163.199 130.078V256.462C163.199 256.69 163.244 256.916 163.332 257.127C163.419 257.337 163.548 257.528 163.71 257.689C163.871 257.849 164.063 257.976 164.274 258.062C164.485 258.149 164.711 258.192 164.939 258.19H418.655C418.883 258.192 419.108 258.148 419.318 258.062C419.529 257.976 419.72 257.849 419.881 257.688C420.041 257.527 420.169 257.336 420.255 257.126C420.341 256.915 420.385 256.69 420.383 256.462V130.078C420.374 129.628 420.187 129.198 419.864 128.884C419.54 128.57 419.106 128.395 418.655 128.398ZM416.915 131.866V249.13H166.655V131.818L416.915 131.866Z" fill="white"/>
<path d="M475.714 378.336L470.254 460.8C470.224 461.219 470.037 461.611 469.73 461.898C469.423 462.185 469.018 462.346 468.598 462.348C468.377 462.348 468.158 462.304 467.955 462.217C467.751 462.131 467.567 462.004 467.414 461.845C467.261 461.686 467.141 461.498 467.062 461.291C466.983 461.085 466.946 460.865 466.954 460.644L469.198 378.336H475.714Z" fill="#263238" stroke="#263238" stroke-linecap="round" stroke-linejoin="round"/>
<path d="M489.684 378.336L495.144 460.8C495.171 461.218 495.356 461.61 495.661 461.898C495.966 462.185 496.369 462.346 496.788 462.348C497.009 462.348 497.228 462.304 497.433 462.217C497.637 462.131 497.821 462.005 497.976 461.846C498.13 461.687 498.251 461.499 498.332 461.292C498.412 461.086 498.45 460.865 498.444 460.644L496.176 378.384L489.684 378.336Z" fill="#263238" stroke="#263238" stroke-linecap="round" stroke-linejoin="round"/>
<path d="M434.938 378.336L440.397 460.8C440.425 461.218 440.61 461.61 440.915 461.898C441.22 462.185 441.622 462.346 442.041 462.348C442.263 462.348 442.482 462.304 442.686 462.217C442.891 462.131 443.075 462.005 443.23 461.846C443.384 461.687 443.505 461.499 443.585 461.292C443.666 461.086 443.704 460.865 443.697 460.644L441.417 378.384L434.938 378.336Z" fill="#263238" stroke="#263238" stroke-linecap="round" stroke-linejoin="round"/>
<path d="M412.632 378.336L407.172 460.8C407.142 461.219 406.954 461.611 406.647 461.898C406.34 462.185 405.936 462.346 405.516 462.348C405.295 462.346 405.076 462.301 404.873 462.214C404.669 462.127 404.485 462.001 404.331 461.842C404.177 461.684 404.056 461.496 403.975 461.291C403.894 461.085 403.855 460.865 403.86 460.644L406.14 378.384L412.632 378.336Z" fill="#263238" stroke="#263238" stroke-linecap="round" stroke-linejoin="round"/>
<path d="M507.754 295.198C507.754 295.198 453.274 293.158 448.666 293.158C444.058 293.158 442.99 295.198 442.99 295.198L435.214 350.026C435.214 350.026 411.034 343.126 406.294 344.026C401.554 344.926 408.634 379.33 408.634 379.33H435.994L436.486 377.266H498.262L514.666 299.122C513.67 295.546 507.754 295.198 507.754 295.198Z" fill="white" stroke="#263238" stroke-linecap="round" stroke-linejoin="round"/>
<path d="M487.02 329.494C487.02 329.494 492.564 365.494 486.204 369.694C485.22 370.342 479.88 373.414 474.888 372.91C470.88 372.502 442.56 372.91 442.56 372.91C442.56 372.91 438.624 365.422 437.832 359.902C437.04 354.382 443.232 330.694 443.232 330.694L487.02 329.494Z" fill="white" stroke="#263238" stroke-linecap="round" stroke-linejoin="round"/>
<path d="M440.641 348.779C440.641 348.779 399.649 353.039 397.717 354.191C395.785 355.343 386.917 363.083 388.441 368.111C389.965 373.139 386.125 373.523 389.641 374.303C393.157 375.083 442.993 375.071 442.993 375.071" fill="#5A3A97"/>
<path d="M440.641 348.779C440.641 348.779 399.649 353.039 397.717 354.191C395.785 355.343 386.917 363.083 388.441 368.111C389.965 373.139 386.125 373.523 389.641 374.303C393.157 375.083 442.993 375.071 442.993 375.071" stroke="#263238" stroke-linecap="round" stroke-linejoin="round"/>
<path d="M403.354 379.271H500.758V371.999H403.354V379.271Z" fill="white" stroke="#263238" stroke-linecap="round" stroke-linejoin="round"/>
<path d="M477.755 350.326H419.075C419.075 350.326 415.991 353.806 415.595 361.126C415.199 368.446 415.991 370.018 421.403 371.926C426.815 373.834 474.887 372.862 474.887 372.862" fill="#5A3A97"/>
<path d="M477.755 350.326H419.075C419.075 350.326 415.991 353.806 415.595 361.126C415.199 368.446 415.991 370.018 421.403 371.926C426.815 373.834 474.887 372.862 474.887 372.862" stroke="#263238" stroke-linecap="round" stroke-linejoin="round"/>
<path d="M431.52 443.447L425.376 428.891L415.308 430.799L423.012 443.783L418.572 452.675L408.972 458.951C408.972 458.951 407.856 460.055 412.656 459.683C417.456 459.311 427.416 459.683 427.416 459.683L433.692 452.303C433.692 452.303 435.972 448.547 431.52 443.447Z" fill="#DFADAD" stroke="#263238" stroke-linecap="round" stroke-linejoin="round"/>
<path d="M434.209 449.807L434.461 459.323H432.961L430.957 454.571L434.209 449.807Z" fill="#263238" stroke="#263238" stroke-linecap="round" stroke-linejoin="round"/>
<path d="M427.428 459.731L433.704 452.351C433.704 452.351 435.324 449.603 433.092 445.643C428.628 453.275 422.688 455.567 422.688 455.567L416.495 454.079L408.984 458.999C408.984 458.999 407.868 460.103 412.668 459.731C417.468 459.359 427.428 459.731 427.428 459.731Z" fill="#263238" stroke="#263238" stroke-linecap="round" stroke-linejoin="round"/>
<path d="M407.386 369.275L427.966 431.495L413.362 434.087L384.562 369.287C384.562 369.287 382.246 359.615 388.426 356.531C394.606 353.447 412.786 351.887 412.786 351.887" fill="#5A3A97"/>
<path d="M407.386 369.275L427.966 431.495L413.362 434.087L384.562 369.287C384.562 369.287 382.246 359.615 388.426 356.531C394.606 353.447 412.786 351.887 412.786 351.887" stroke="#263238" stroke-linecap="round" stroke-linejoin="round"/>
<path d="M473.401 379.258C473.401 379.258 466.309 344.806 471.061 343.954C475.813 343.102 499.981 349.954 499.981 349.954L507.757 295.198C507.757 295.198 515.965 293.902 516.829 301.198C517.693 308.494 500.761 379.258 500.761 379.258H473.401Z" fill="#263238" stroke="#263238" stroke-linecap="round" stroke-linejoin="round"/>
<path d="M389.891 277.822L386.231 271.822C385.878 271.247 385.382 270.775 384.79 270.451C384.199 270.126 383.533 269.962 382.859 269.974L379.415 270.034L373.523 268.27C373.149 268.161 372.751 268.165 372.379 268.283C372.007 268.4 371.679 268.626 371.435 268.93L371.219 269.206L376.643 271.606L371.231 273.598L365.483 270.682C365.257 270.566 364.996 270.534 364.748 270.591C364.5 270.648 364.28 270.791 364.127 270.994C363.953 271.22 363.875 271.506 363.911 271.79C363.947 272.073 364.094 272.331 364.319 272.506L372.359 278.71C372.611 278.906 372.902 279.046 373.213 279.12C373.523 279.195 373.846 279.202 374.159 279.142L383.051 277.354L385.535 280.066L389.891 277.822Z" fill="#DFADAD" stroke="#263238" stroke-linecap="round" stroke-linejoin="round"/>
<path d="M451.881 265.512L418.917 299.988L387.453 274.56L383.109 277.716L417.729 316.944L447.741 300.78L451.881 265.512Z" fill="white" stroke="#263238" stroke-linecap="round" stroke-linejoin="round"/>
<path d="M501.202 274.318L518.482 327.418L503.578 327.85L488.758 302.926C488.758 302.926 497.086 277.786 501.202 274.318Z" fill="white" stroke="#263238" stroke-linecap="round" stroke-linejoin="round"/>
<path d="M482.398 265.2L501.203 274.38L485.458 318.408L487.318 330.684L443.23 330.756L448.486 310.98L444.886 298.308C444.419 296.663 444.394 294.925 444.814 293.268L451.87 265.572L470.398 262.596L482.398 265.2Z" fill="white" stroke="#263238" stroke-linecap="round" stroke-linejoin="round"/>
<path d="M481.498 262.619C481.498 262.619 485.194 265.115 485.314 267.335C485.374 268.643 485.314 270.935 485.194 272.687C485.128 274.056 484.815 275.402 484.27 276.659L477.61 284.699L469.906 278.615L463.51 281.879C463.51 281.879 462.31 272.075 465.106 265.235C467.902 258.395 480.07 260.903 481.498 262.619Z" fill="white" stroke="#263238" stroke-linecap="round" stroke-linejoin="round"/>
<path d="M486.792 243.599C486.792 243.599 485.28 249.035 484.572 252.635C483.864 256.235 482.436 263.435 482.568 266.135C482.7 268.835 471.336 280.331 469.908 278.615C468.48 276.899 466.98 266.927 466.98 266.927L468.396 250.799C468.396 250.799 483.204 234.395 486.792 243.599Z" fill="#DFADAD" stroke="#263238" stroke-linecap="round" stroke-linejoin="round"/>
<path d="M463.041 235.199C463.041 235.199 461.013 238.547 461.013 239.999C461.013 241.451 461.721 244.295 461.601 245.123C461.481 245.951 459.465 248.723 459.201 249.659C459.069 250.04 459.08 250.456 459.232 250.829C459.385 251.203 459.668 251.508 460.029 251.687C460.519 251.938 460.996 252.214 461.457 252.515C461.457 252.515 462.057 259.907 463.017 261.815C463.977 263.723 464.805 264.563 467.661 264.803C470.517 265.043 477.321 262.055 478.269 259.667C479.217 257.279 479.349 254.423 479.469 250.967C479.589 247.511 477.201 242.567 475.413 237.851C473.625 233.135 466.137 230.543 463.041 235.199Z" fill="#DFADAD" stroke="#263238" stroke-linecap="round" stroke-linejoin="round"/>
<path d="M493.824 259.607C498.881 259.607 502.98 255.508 502.98 250.451C502.98 245.394 498.881 241.295 493.824 241.295C488.767 241.295 484.668 245.394 484.668 250.451C484.668 255.508 488.767 259.607 493.824 259.607Z" fill="#263238" stroke="#263238" stroke-linecap="round" stroke-linejoin="round"/>
<path d="M462.996 234.683C462.996 234.683 466.68 231.503 473.304 237.827C479.928 244.151 477.408 253.295 481.836 255.191C486.264 257.087 494.46 247.607 495.408 242.879C496.356 238.151 493.512 228.347 484.668 226.451C475.824 224.555 464.988 225.851 462.996 234.683Z" fill="#263238" stroke="#263238" stroke-linecap="round" stroke-linejoin="round"/>
<path d="M462.996 234.682C462.917 233.939 463.01 233.187 463.265 232.484C463.521 231.781 463.933 231.146 464.471 230.627C465.009 230.107 465.658 229.717 466.37 229.486C467.081 229.256 467.835 229.19 468.576 229.294C474.576 229.618 475.2 239.086 478.356 242.878C481.512 246.67 483.096 246.034 483.096 246.034C483.096 246.034 477.732 247.606 474.252 245.71C470.772 243.814 469.092 233.122 462.996 234.682Z" fill="#263238" stroke="#263238" stroke-linecap="round" stroke-linejoin="round"/>
<path d="M472.798 228.191C475.955 230.142 478.461 232.986 479.998 236.363C482.722 242.135 482.722 246.899 489.19 246.563C489.19 246.563 486.13 247.247 481.366 244.859C476.602 242.471 475.582 235.679 472.522 232.955C470.853 231.375 468.693 230.414 466.402 230.231" stroke="white" stroke-width="0.5" stroke-linecap="round" stroke-linejoin="round"/>
<path d="M495.408 242.879C495.408 242.879 495.132 251.543 488.484 253.367" stroke="white" stroke-width="0.5" stroke-linecap="round" stroke-linejoin="round"/>
<path d="M476.854 251.722C476.854 251.722 483.19 243.43 484.678 249.622C486.166 255.814 481.078 257.326 478.678 256.618C476.278 255.91 476.614 254.626 476.614 254.626" fill="#DFADAD"/>
<path d="M476.854 251.722C476.854 251.722 483.19 243.43 484.678 249.622C486.166 255.814 481.078 257.326 478.678 256.618C476.278 255.91 476.614 254.626 476.614 254.626" stroke="#263238" stroke-linecap="round" stroke-linejoin="round"/>
<path d="M462.754 322.68C462.754 322.68 450.658 324.36 448.642 324.36C446.626 324.36 441.586 330.744 441.586 330.744H463.762L462.754 322.68Z" fill="#DFADAD" stroke="#263238" stroke-linecap="round" stroke-linejoin="round"/>
<path d="M514.137 314.543L518.481 324.335C518.676 324.911 518.732 325.526 518.644 326.128C518.557 326.73 518.328 327.303 517.977 327.8C517.627 328.297 517.163 328.704 516.625 328.988C516.087 329.272 515.49 329.425 514.881 329.435L462.441 329.735L462.777 322.679L503.433 316.247" fill="white"/>
<path d="M514.137 314.543L518.481 324.335C518.676 324.911 518.732 325.526 518.644 326.128C518.557 326.73 518.328 327.303 517.977 327.8C517.627 328.297 517.163 328.704 516.625 328.988C516.087 329.272 515.49 329.425 514.881 329.435L462.441 329.735L462.777 322.679L503.433 316.247" stroke="#263238" stroke-linecap="round" stroke-linejoin="round"/>
<path d="M443.951 449.807L444.203 459.323H442.703L440.699 454.571L443.951 449.807Z" fill="#263238" stroke="#263238" stroke-linecap="round" stroke-linejoin="round"/>
<path d="M441.263 443.448L439.331 429.6L429.275 430.248L432.755 443.88L428.315 452.772L418.715 459.048C418.715 459.048 417.611 460.152 422.411 459.78C427.211 459.408 437.171 459.78 437.171 459.78L443.447 452.4C443.447 452.4 445.715 448.548 441.263 443.448Z" fill="#DFADAD" stroke="#263238" stroke-linecap="round" stroke-linejoin="round"/>
<path d="M437.171 459.731L443.447 452.351C443.447 452.351 445.067 449.603 442.823 445.643C438.359 453.275 432.419 455.567 432.419 455.567L426.239 454.079L418.715 458.999C418.715 458.999 417.611 460.103 422.411 459.731C427.211 459.359 437.171 459.731 437.171 459.731Z" fill="#263238" stroke="#263238" stroke-linecap="round" stroke-linejoin="round"/>
<path d="M436.656 358.559L440.964 432.143L427.32 432.467L414 365.615C414 365.615 414.252 352.883 418.32 351.419C422.388 349.955 433.188 351.527 433.188 351.527" fill="#5A3A97"/>
<path d="M436.656 358.559L440.964 432.143L427.32 432.467L414 365.615C414 365.615 414.252 352.883 418.32 351.419C422.388 349.955 433.188 351.527 433.188 351.527" stroke="#263238" stroke-linecap="round" stroke-linejoin="round"/>
<path d="M377.015 200.172L393.947 247.632C393.947 247.632 391.715 258.372 384.995 257.928C378.275 257.484 376.487 248.076 374.699 246.732C372.911 245.388 370.223 235.092 370.223 235.092L377.015 200.172Z" fill="white" stroke="#263238" stroke-linecap="round" stroke-linejoin="round"/>
<path d="M333.215 190.656L305.688 200.592L316.248 276.924H365.915L377.015 200.172L347.304 190.872L333.215 190.656Z" fill="white" stroke="#263238" stroke-linecap="round" stroke-linejoin="round"/>
<path d="M335.867 203.737L339.839 209.725L336.395 260.508L341.459 273.733L346.655 260.868L342.203 210.48L345.779 201.829L340.823 195.312L335.867 203.737Z" fill="#5A3A97" stroke="#263238" stroke-linecap="round" stroke-linejoin="round"/>
<path d="M341.365 201.264L334.273 206.58L329.605 192.72L332.857 185.7L347.365 185.352L350.905 188.532L350.197 206.22L341.365 201.264Z" fill="white" stroke="#263238" stroke-linecap="round" stroke-linejoin="round"/>
<path d="M348.863 182.1L347.759 191.016L339.815 201.264L333.875 190.872V174.156C333.875 174.156 344.279 176.76 348.863 182.1Z" fill="white" stroke="#263238" stroke-linecap="round" stroke-linejoin="round"/>
<path d="M329.797 163.572C329.797 155.472 335.701 148.908 342.997 148.908C350.293 148.908 354.337 155.832 354.337 163.932C354.337 166.548 353.797 171.036 353.581 173.424C353.209 177.504 351.973 179.232 349.561 182.892C341.653 194.892 335.161 177.288 331.837 171.372C330.491 168.993 329.788 166.305 329.797 163.572Z" fill="#DFADAD" stroke="#263238" stroke-linecap="round" stroke-linejoin="round"/>
<path d="M348.734 166.115L349.85 174.479L345.926 174.371" fill="white"/>
<path d="M348.734 166.115L349.85 174.479L345.926 174.371" stroke="#263238" stroke-linecap="round" stroke-linejoin="round"/>
<path d="M357.49 164.664L338.626 164.748C338.395 165.482 338.359 166.263 338.523 167.015C338.688 167.766 339.046 168.462 339.562 169.032C340.762 170.232 345.646 169.812 346.426 169.5C347.206 169.188 347.626 165.756 347.626 165.756H349.03C349.03 165.756 349.186 169.356 351.202 169.656C353.218 169.956 355.846 169.86 356.35 169.5C358.582 168 357.49 164.664 357.49 164.664Z" fill="white" stroke="#263238" stroke-linecap="round" stroke-linejoin="round"/>
<path d="M332.125 172.728C332.125 172.728 336.373 181.428 337.381 184.44C338.389 187.452 343.381 189.804 348.433 188.124C353.485 186.444 352.117 178.968 352.117 178.968C352.117 178.968 346.753 174.384 345.757 175.368C344.761 176.352 339.385 180.732 339.049 179.724C338.713 178.716 336.373 172.692 336.373 172.692L335.281 168.42L337.525 166.98C337.849 166.71 338.06 166.328 338.115 165.91C338.171 165.492 338.067 165.069 337.825 164.724L336.769 163.2C336.639 163.013 336.547 162.802 336.5 162.58C336.453 162.357 336.45 162.127 336.493 161.904C336.769 160.596 337.525 157.884 339.277 157.104C341.677 156.108 344.593 157.56 347.281 158.232C349.969 158.904 352.885 156.48 352.885 156.48L354.085 160.464C356.746 157.967 358.636 154.76 359.533 151.224C360.877 145.524 347.137 143.184 342.733 143.184C338.329 143.184 331.345 145.584 329.329 151.896C327.313 158.208 330.937 171.6 332.125 172.728Z" fill="#263238" stroke="#263238" stroke-linecap="round" stroke-linejoin="round"/>
<path d="M342.998 151.26C342.998 151.26 345.494 155.004 342.218 155.784C338.942 156.564 332.558 153.756 329.75 154.848" stroke="white" stroke-width="0.5" stroke-linecap="round" stroke-linejoin="round"/>
<path d="M337.38 159.516C337.38 159.516 332.244 158.892 330.18 161.076" stroke="white" stroke-width="0.5" stroke-linecap="round" stroke-linejoin="round"/>
<path d="M349.742 178.44C349.742 178.44 345.962 180.408 344.09 178.068" stroke="white" stroke-width="0.5" stroke-linecap="round" stroke-linejoin="round"/>
<path d="M332.759 170.075C332.759 170.075 329.051 165.995 329.051 170.447C329.051 174.899 330.167 174.899 332.387 176.447C334.607 177.995 335.363 176.075 335.363 176.075" fill="#DFADAD"/>
<path d="M332.759 170.075C332.759 170.075 329.051 165.995 329.051 170.447C329.051 174.899 330.167 174.899 332.387 176.447C334.607 177.995 335.363 176.075 335.363 176.075" stroke="#263238" stroke-linecap="round" stroke-linejoin="round"/>
<path d="M382.274 446.688H382.442L382.118 445.056L365.918 276.936H316.25L299.918 446.676H300.098L310.634 447.576C310.634 447.576 322.322 408.336 322.322 405.408C322.322 402.48 325.658 375.408 325.658 375.408L342.23 317.148L356.882 375.408C356.882 375.408 360.218 402.54 360.218 405.408C360.218 408.276 371.918 447.6 371.918 447.6L381.83 446.748H382.274V446.688Z" fill="#263238" stroke="#263238" stroke-linecap="round" stroke-linejoin="round"/>
<path d="M362.208 286.824L351.156 302.604" stroke="white" stroke-width="0.5" stroke-linecap="round" stroke-linejoin="round"/>
<path d="M356.294 290.375L349.586 301.427" stroke="white" stroke-width="0.5" stroke-linecap="round" stroke-linejoin="round"/>
<path d="M324.73 289.596L334.582 300.24" stroke="white" stroke-width="0.5" stroke-linecap="round" stroke-linejoin="round"/>
<path d="M323.941 293.531L338.137 307.739" stroke="white" stroke-width="0.5" stroke-linecap="round" stroke-linejoin="round"/>
<path d="M319.199 278.543H362.999" stroke="white" stroke-width="0.5" stroke-linecap="round" stroke-linejoin="round"/>
<path d="M300.096 446.676C300.096 446.676 293.772 451.656 290.124 453.024C286.476 454.392 279.66 458.028 279.66 458.028C279.66 458.028 279.66 460.308 285.576 460.308H308.796L308.4 446.676H300.096Z" fill="#263238" stroke="#263238" stroke-linecap="round" stroke-linejoin="round"/>
<path d="M308.711 457.823C299.439 458.247 290.149 458.098 280.895 457.379L279.695 458.027C279.695 458.027 279.695 460.307 285.611 460.307H308.831L308.711 457.823Z" fill="white" stroke="#263238" stroke-linecap="round" stroke-linejoin="round"/>
<path d="M381.313 446.676C381.313 446.676 387.649 451.656 391.285 453.024C394.921 454.392 401.761 458.028 401.761 458.028C401.761 458.028 401.761 460.308 395.833 460.308H372.625L373.045 446.676H381.313Z" fill="#263238" stroke="#263238" stroke-linecap="round" stroke-linejoin="round"/>
<path d="M372.697 457.823C381.969 458.247 391.259 458.098 400.513 457.379L401.713 458.027C401.713 458.027 401.713 460.307 395.785 460.307H372.625L372.697 457.823Z" fill="white" stroke="#263238" stroke-linecap="round" stroke-linejoin="round"/>
<path d="M305.686 200.592L287.398 249.42H304.942L311.494 236.1L305.686 200.592Z" fill="white" stroke="#263238" stroke-linecap="round" stroke-linejoin="round"/>
<path d="M385.694 241.86C378.374 238.836 354.89 237.336 353.666 237.336C352.442 237.336 314.27 234.192 311.138 233.736C308.006 233.28 304.418 240.456 304.418 240.456L320.978 240L341.126 244.032C341.126 244.032 381.926 258.804 384.998 257.916C385.417 257.776 385.796 257.537 386.102 257.22" fill="white"/>
<path d="M385.694 241.86C378.374 238.836 354.89 237.336 353.666 237.336C352.442 237.336 314.27 234.192 311.138 233.736C308.006 233.28 304.418 240.456 304.418 240.456L320.978 240L341.126 244.032C341.126 244.032 381.926 258.804 384.998 257.916C385.417 257.776 385.796 257.537 386.102 257.22" stroke="#263238" stroke-linecap="round" stroke-linejoin="round"/>
<path d="M300.385 239.567L363.505 233.303L363.961 238.667L309.337 255.239C309.337 255.239 299.497 257.471 291.877 256.127C284.257 254.783 287.857 247.175 289.645 242.699" fill="white"/>
<path d="M300.385 239.567L363.505 233.303L363.961 238.667L309.337 255.239C309.337 255.239 299.497 257.471 291.877 256.127C284.257 254.783 287.857 247.175 289.645 242.699" stroke="#263238" stroke-linecap="round" stroke-linejoin="round"/>
<path d="M363.516 233.304L375.6 232.848L379.176 240.012L363.96 238.68L363.516 233.304Z" fill="#DFADAD" stroke="#263238" stroke-linecap="round" stroke-linejoin="round"/>
<path d="M444 338.592L454.308 461.316C454.335 461.499 454.399 461.674 454.497 461.831C454.594 461.988 454.723 462.124 454.874 462.23C455.026 462.335 455.198 462.409 455.379 462.446C455.56 462.482 455.747 462.482 455.928 462.444C456.237 462.367 456.508 462.182 456.691 461.922C456.874 461.662 456.956 461.344 456.924 461.028L449.904 338.628L444 338.592Z" fill="#263238" stroke="#263238" stroke-linecap="round" stroke-linejoin="round"/>
<path d="M513.277 338.592L523.621 461.724C523.647 461.907 523.71 462.084 523.807 462.242C523.904 462.4 524.032 462.536 524.185 462.642C524.337 462.748 524.509 462.821 524.691 462.857C524.873 462.894 525.06 462.892 525.241 462.852C525.55 462.775 525.821 462.59 526.004 462.33C526.187 462.07 526.27 461.752 526.237 461.436L519.193 338.592H513.277Z" fill="#263238" stroke="#263238" stroke-linecap="round" stroke-linejoin="round"/>
<path d="M227.39 338.592L222.002 460.248C221.972 460.567 222.057 460.886 222.242 461.148C222.427 461.41 222.699 461.597 223.01 461.676C223.188 461.722 223.374 461.729 223.555 461.696C223.737 461.664 223.909 461.593 224.06 461.488C224.211 461.383 224.338 461.247 224.433 461.089C224.527 460.931 224.586 460.755 224.606 460.572L233.33 338.592H227.39Z" fill="#263238" stroke="#263238" stroke-linecap="round" stroke-linejoin="round"/>
<path d="M163.538 338.593L158.114 459.793C158.087 460.113 158.175 460.433 158.362 460.694C158.549 460.956 158.822 461.142 159.134 461.221C159.312 461.265 159.498 461.27 159.678 461.237C159.858 461.204 160.03 461.133 160.181 461.028C160.331 460.924 160.458 460.789 160.553 460.632C160.648 460.474 160.708 460.299 160.73 460.117L169.418 338.545L163.538 338.593Z" fill="#263238" stroke="#263238" stroke-linecap="round" stroke-linejoin="round"/>
<path d="M526.767 331.789H159.699V342.325H526.767V331.789Z" fill="#5A3A97" stroke="#263238" stroke-linecap="round" stroke-linejoin="round"/>
<path d="M526.767 331.789H159.699V335.401H526.767V331.789Z" fill="#263238" stroke="#263238" stroke-linecap="round" stroke-linejoin="round"/>
<path d="M526.754 331.789H434.906V342.325H526.754V331.789Z" fill="#263238" stroke="#263238" stroke-linecap="round" stroke-linejoin="round"/>
<path d="M530.03 328.285H156.422V332.305H530.03V328.285Z" fill="#5A3A97" stroke="#263238" stroke-linecap="round" stroke-linejoin="round"/>
<path d="M530.018 328.285H438.734V332.305H530.018V328.285Z" fill="#263238" stroke="#263238" stroke-linecap="round" stroke-linejoin="round"/>
<path d="M239.644 327.924H289.78C289.971 327.926 290.158 327.871 290.318 327.766C290.478 327.661 290.604 327.512 290.68 327.336L304.564 295.68C304.627 295.532 304.653 295.37 304.639 295.209C304.624 295.048 304.57 294.893 304.48 294.759C304.391 294.624 304.27 294.514 304.127 294.438C303.984 294.362 303.825 294.323 303.664 294.324H253.528C253.34 294.324 253.156 294.379 252.998 294.481C252.841 294.583 252.716 294.729 252.64 294.9L238.804 326.556C238.739 326.701 238.711 326.859 238.721 327.016C238.731 327.174 238.78 327.327 238.862 327.462C238.945 327.597 239.06 327.709 239.196 327.79C239.332 327.87 239.486 327.917 239.644 327.924Z" fill="white" stroke="#263238" stroke-linecap="round" stroke-linejoin="round"/>
<path d="M244.347 325.452H287.127C287.287 325.452 287.443 325.406 287.577 325.318C287.712 325.231 287.818 325.107 287.883 324.96L299.727 297.948C299.791 297.821 299.821 297.679 299.814 297.536C299.807 297.394 299.764 297.255 299.687 297.135C299.611 297.014 299.505 296.915 299.38 296.847C299.254 296.779 299.113 296.745 298.971 296.748H256.191C256.027 296.747 255.867 296.794 255.73 296.884C255.594 296.974 255.487 297.102 255.423 297.252L243.603 324.288C243.547 324.413 243.523 324.55 243.534 324.687C243.544 324.823 243.588 324.955 243.662 325.07C243.735 325.186 243.836 325.281 243.956 325.347C244.075 325.414 244.21 325.45 244.347 325.452Z" fill="#5A3A97" stroke="#263238" stroke-linecap="round" stroke-linejoin="round"/>
<path d="M290.472 325.824H215.148V328.284H290.472V325.824Z" fill="white" stroke="#263238" stroke-linecap="round" stroke-linejoin="round"/>
<path d="M290.485 325.824H253.969V328.284H290.485V325.824Z" fill="white" stroke="#263238" stroke-linecap="round" stroke-linejoin="round"/>
<path d="M314.679 308.701H301.395V328.333H314.679V308.701Z" fill="white" stroke="#263238" stroke-linecap="round" stroke-linejoin="round"/>
<path d="M314.091 325.656H312.699C312.409 325.656 312.132 325.541 311.927 325.336C311.722 325.131 311.607 324.854 311.607 324.564C311.607 324.274 311.722 323.997 311.927 323.792C312.132 323.587 312.409 323.472 312.699 323.472H314.091C314.641 323.469 315.167 323.249 315.555 322.86C315.944 322.472 316.164 321.946 316.167 321.396V316.596C316.164 316.046 315.944 315.52 315.555 315.131C315.167 314.743 314.641 314.523 314.091 314.52H312.303C312.16 314.52 312.018 314.492 311.885 314.437C311.753 314.382 311.632 314.301 311.531 314.2C311.429 314.099 311.349 313.978 311.294 313.846C311.239 313.713 311.211 313.571 311.211 313.428C311.211 313.285 311.239 313.143 311.294 313.01C311.349 312.878 311.429 312.757 311.531 312.656C311.632 312.554 311.753 312.474 311.885 312.419C312.018 312.364 312.16 312.336 312.303 312.336H314.091C314.65 312.336 315.204 312.446 315.721 312.66C316.238 312.874 316.708 313.188 317.103 313.584C317.499 313.979 317.813 314.449 318.027 314.966C318.241 315.483 318.351 316.036 318.351 316.596V321.396C318.351 321.955 318.241 322.509 318.027 323.026C317.813 323.543 317.499 324.013 317.103 324.408C316.708 324.804 316.238 325.118 315.721 325.332C315.204 325.546 314.65 325.656 314.091 325.656Z" fill="white" stroke="#263238" stroke-linecap="round" stroke-linejoin="round"/>
<path d="M418.468 327.924H368.332C368.142 327.923 367.958 327.867 367.8 327.763C367.642 327.658 367.518 327.51 367.444 327.336L353.56 295.68C353.496 295.533 353.47 295.372 353.484 295.212C353.498 295.052 353.551 294.898 353.639 294.764C353.727 294.629 353.847 294.519 353.988 294.442C354.129 294.366 354.287 294.325 354.448 294.324H404.584C404.773 294.323 404.959 294.377 405.119 294.479C405.278 294.582 405.405 294.728 405.484 294.9L419.368 326.556C419.431 326.705 419.456 326.868 419.442 327.029C419.427 327.19 419.373 327.346 419.284 327.481C419.195 327.616 419.073 327.728 418.931 327.805C418.789 327.882 418.63 327.923 418.468 327.924Z" fill="white" stroke="#263238" stroke-linecap="round" stroke-linejoin="round"/>
<path d="M367.633 328.285H442.957V325.825H367.633V328.285Z" fill="white" stroke="#263238" stroke-linecap="round" stroke-linejoin="round"/>
<path d="M367.634 328.285H419.57V325.825H367.634V328.285Z" fill="white" stroke="#263238" stroke-linecap="round" stroke-linejoin="round"/>
<path d="M387.288 307.465C387.56 307.979 387.674 308.562 387.616 309.14C387.558 309.718 387.33 310.266 386.962 310.716C386.594 311.166 386.101 311.497 385.545 311.667C384.99 311.838 384.396 311.841 383.839 311.675C383.282 311.51 382.786 311.184 382.413 310.738C382.04 310.292 381.808 309.746 381.744 309.168C381.681 308.59 381.789 308.006 382.056 307.49C382.323 306.974 382.736 306.548 383.244 306.265C383.94 305.889 384.756 305.805 385.514 306.03C386.272 306.255 386.91 306.771 387.288 307.465Z" fill="white" stroke="#263238" stroke-linecap="round" stroke-linejoin="round"/>
<path d="M152.842 214.282L156.538 250.798L173.338 299.434L167.59 302.722L147.862 258.202L138.01 219.982C138.01 219.982 137.182 208.486 141.298 206.782C145.414 205.078 151.198 206.89 152.842 214.282Z" fill="#DFADAD" stroke="#263238" stroke-linecap="round" stroke-linejoin="round"/>
<path d="M173.385 299.482C173.385 299.482 177.081 307.294 177.501 309.346C177.921 311.398 178.341 315.586 176.721 317.458C174.765 319.714 172.977 317.974 172.977 317.974C172.977 317.974 168.045 316.774 168.045 312.634C168.045 308.494 167.637 302.77 167.637 302.77L173.385 299.482Z" fill="white" stroke="#263238" stroke-linecap="round" stroke-linejoin="round"/>
<path d="M169.355 311.734L176.279 313.534" stroke="#263238" stroke-linecap="round" stroke-linejoin="round"/>
<path d="M171.01 307.066L172.978 310.162C172.978 310.162 168.395 317.998 170.855 315.946C173.315 313.894 177.91 311.398 177.502 309.346C176.808 307.193 175.891 305.118 174.767 303.154" fill="white"/>
<path d="M171.01 307.066L172.978 310.162C172.978 310.162 168.395 317.998 170.855 315.946C173.315 313.894 177.91 311.398 177.502 309.346C176.808 307.193 175.891 305.118 174.767 303.154" stroke="#263238" stroke-linecap="round" stroke-linejoin="round"/>
<path d="M133.197 170.4C133.197 170.4 128.973 165.84 119.229 168.768C109.485 171.696 107.229 187.296 107.529 195.084C107.829 202.872 115.329 211.656 113.061 215.556C110.793 219.456 102.333 228.552 102.981 238.356C103.629 248.16 111.753 255.9 123.453 252.324C135.153 248.748 133.197 234.432 130.869 229.2C128.541 223.968 133.473 221.724 135.093 210.348C136.713 198.972 126.321 189.552 126.321 181.428C126.321 173.304 134.721 174.612 134.721 174.612L133.197 170.4Z" fill="#263238" stroke="#263238" stroke-linecap="round" stroke-linejoin="round"/>
<path d="M118.557 201.238C120.093 204.406 121.881 207.79 123.657 211.438C129.585 223.534 124.953 227.902 115.941 234.598C106.929 241.294 108.993 249.526 111.309 250.798" stroke="white" stroke-width="0.5" stroke-linecap="round" stroke-linejoin="round"/>
<path d="M130.104 173.604C130.104 173.604 118.008 174.636 114.912 182.352C113.04 187.044 114.48 192.3 117.24 198.42" stroke="white" stroke-width="0.5" stroke-linecap="round" stroke-linejoin="round"/>
<path d="M121.258 247.787C122.188 248.137 123.181 248.292 124.174 248.243" stroke="white" stroke-width="0.5" stroke-linecap="round" stroke-linejoin="round"/>
<path d="M133.2 172.799C133.2 172.799 121.872 174.851 119.304 183.083C116.736 191.315 131.916 203.483 132.684 212.435C133.452 221.387 122.64 226.619 118.8 233.567C116.1 238.439 116.4 243.803 119.244 246.503" stroke="white" stroke-width="0.5" stroke-linecap="round" stroke-linejoin="round"/>
<path d="M162.263 338.482C162.263 338.482 159.467 362.626 156.659 370.33C153.851 378.034 147.563 438.574 147.215 442.078C146.867 445.582 156.311 453.622 160.163 456.082C164.015 458.542 162.263 459.226 158.063 459.574C153.863 459.922 148.967 459.226 146.867 455.374C144.767 451.522 139.859 450.478 139.859 450.478L139.163 458.878H137.759L136.715 448.378C136.358 445.994 136.722 443.558 137.759 441.382C139.511 437.53 140.159 429.478 140.159 418.582C140.159 407.686 138.059 390.226 139.103 381.826C140.147 373.426 144.359 367.126 144.359 360.13C144.359 353.134 144.707 342.634 144.707 342.634L162.263 338.482Z" fill="#DFADAD" stroke="#263238" stroke-linecap="round" stroke-linejoin="round"/>
<path d="M136.714 448.378C136.435 446.572 136.587 444.726 137.158 442.99C139.33 446.662 145.558 451.642 150.358 453.622C152.96 454.749 155.798 455.227 158.626 455.014C159.19 455.434 159.718 455.794 160.162 456.082C164.014 458.482 162.262 459.226 158.062 459.574C153.862 459.922 148.966 459.226 146.866 455.374C144.766 451.522 139.858 450.478 139.858 450.478L139.162 458.878H137.758L136.714 448.378Z" fill="#263238" stroke="#263238" stroke-linecap="round" stroke-linejoin="round"/>
<path d="M141.958 342.335C141.958 342.335 135.958 360.179 130.414 375.575C124.87 390.971 111.514 426.323 110.11 432.623C108.706 438.923 108.01 450.479 104.11 456.431C100.21 462.383 96.4064 465.179 97.1024 454.679C97.7984 444.179 104.11 436.475 105.502 428.423C106.894 420.371 107.602 391.331 112.498 378.383C117.394 365.435 122.65 354.935 123.298 351.083C123.777 347.25 124.009 343.39 123.994 339.527L141.958 342.335Z" fill="#DFADAD" stroke="#263238" stroke-linecap="round" stroke-linejoin="round"/>
<path d="M97.8244 450.18C97.8761 452.159 98.4923 454.083 99.6004 455.724C101.616 457.98 104.868 453.6 106.56 450.924C106.007 452.854 105.2 454.702 104.16 456.42C100.308 462.36 96.4564 465.168 97.1524 454.668C97.2681 453.157 97.4927 451.658 97.8244 450.18Z" fill="#263238" stroke="#263238" stroke-linecap="round" stroke-linejoin="round"/>
<path d="M139.199 201.479C139.199 201.479 137.099 203.231 135.695 215.135C134.291 227.039 143.051 264.131 143.051 264.131C143.051 264.131 128.003 288.779 124.499 301.031C120.995 313.283 118.895 359.183 118.895 359.183C118.895 359.183 126.251 361.991 141.299 363.035C156.347 364.079 164.399 360.239 164.399 360.239C164.399 360.239 165.095 294.731 165.095 284.639C165.095 274.547 165.803 251.591 166.847 248.795C167.891 245.999 171.047 238.643 171.047 235.847C171.047 233.051 149.999 203.231 149.999 203.231L139.199 201.479Z" fill="white" stroke="#263238" stroke-linecap="round" stroke-linejoin="round"/>
<path d="M124.463 301.032C127.223 291.432 138.647 265.896 142.727 261.504C148.931 263.568 160.247 265.608 165.299 264.096C165.143 267.696 165.059 281.136 165.059 284.58C165.059 294.732 164.363 360.18 164.363 360.18C164.363 360.18 156.311 364.032 141.263 362.976C126.215 361.92 118.859 359.124 118.859 359.124C118.859 359.124 120.959 313.284 124.463 301.032Z" fill="#263238" stroke="#263238" stroke-linecap="round" stroke-linejoin="round"/>
<path d="M146.961 160.223C146.961 160.223 150.717 152.039 158.145 152.039C165.573 152.039 168.873 158.639 167.229 164.411C165.585 170.183 172.173 168.539 173.001 172.259C173.829 175.979 167.637 178.439 164.337 178.439C161.037 178.439 146.961 160.223 146.961 160.223Z" fill="#263238" stroke="#263238" stroke-linecap="round" stroke-linejoin="round"/>
<path d="M157.809 159.382C160.017 158.182 162.609 157.318 163.809 159.19C166.125 162.79 158.925 165.622 161.241 169.486C163.557 173.35 169.221 172.318 168.957 173.602C168.693 174.886 165.105 175.654 165.105 175.654" stroke="white" stroke-width="0.5" stroke-linecap="round" stroke-linejoin="round"/>
<path d="M154.031 161.999C154.031 161.999 154.739 161.387 155.795 160.643" stroke="white" stroke-width="0.5" stroke-linecap="round" stroke-linejoin="round"/>
<path d="M166.007 179.267C165.482 178.876 165.068 178.355 164.807 177.755C164.207 173.327 162.911 168.971 160.463 166.523C156.76 163.036 152.037 160.828 146.987 160.223C145.492 160.002 143.966 160.142 142.535 160.631C136.163 162.863 130.691 167.267 131.867 177.887C133.163 189.587 142.271 192.515 142.271 192.515L142.919 199.715L152.015 203.939L152.339 196.139C152.339 196.139 158.507 198.731 160.739 198.407C162.971 198.083 163.667 195.155 164.639 190.931C164.996 189.003 165.173 187.047 165.167 185.087L167.891 182.375C169.439 180.803 167.915 180.419 166.007 179.267Z" fill="#DFADAD" stroke="#263238" stroke-linecap="round" stroke-linejoin="round"/>
<path d="M131.842 177.887C130.642 167.267 136.138 162.863 142.51 160.631C143.94 160.142 145.466 160.002 146.962 160.223C150.404 160.683 153.719 161.834 156.706 163.607C154.882 163.235 157.99 168.599 155.134 172.007C152.633 175.17 149.444 177.723 145.81 179.471C145.81 179.471 142.57 176.867 141.586 180.443C140.602 184.019 140.938 186.611 143.542 187.271C146.146 187.931 147.142 187.271 147.142 187.271C147.142 187.271 145.414 191.363 142.342 193.055V192.467C142.342 192.467 133.198 189.599 131.842 177.887Z" fill="#263238" stroke="#263238" stroke-linecap="round" stroke-linejoin="round"/>
<path d="M156.659 201.826L154.919 211.282L136.367 201.478L138.119 192.73L156.659 201.826Z" fill="white" stroke="#263238" stroke-linecap="round" stroke-linejoin="round"/>
<path d="M147.695 281.555C149.617 281.966 151.566 282.231 153.527 282.347C155.051 282.251 157.127 280.535 158.663 281.267C160.199 281.999 162.347 286.619 162.347 286.619C162.347 286.619 164.387 287.651 163.799 288.743C163.211 289.835 160.691 290.843 160.691 290.843C160.691 290.843 158.291 293.111 156.899 293.339C155.507 293.567 147.023 287.339 147.023 287.339L147.695 281.555Z" fill="#DFADAD" stroke="#263238" stroke-linecap="round" stroke-linejoin="round"/>
<path d="M148.596 286.042C148.877 285.705 149.079 285.309 149.186 284.883C149.294 284.458 149.305 284.013 149.219 283.583C149.133 283.153 148.951 282.747 148.688 282.396C148.424 282.045 148.085 281.757 147.696 281.554L124.38 259.714L149.772 220.234C150.905 218.147 151.18 215.7 150.539 213.413C149.898 211.126 148.391 209.179 146.338 207.985C144.285 206.79 141.847 206.443 139.542 207.016C137.238 207.589 135.247 209.038 133.992 211.054L111.984 254.794C110.84 255.905 110.178 257.421 110.142 259.015C110.106 260.609 110.699 262.153 111.792 263.314L111.876 263.398C114.084 266.806 138.372 284.626 145.476 286.954C146.028 287.129 146.619 287.136 147.175 286.973C147.73 286.811 148.225 286.487 148.596 286.042Z" fill="white" stroke="#263238" stroke-linecap="round" stroke-linejoin="round"/>
<path d="M240.853 225.6C240.853 225.6 243.865 234.924 243.865 236.736C243.843 238.045 243.743 239.351 243.565 240.648L246.217 244.764C246.373 245.029 246.421 245.343 246.352 245.642C246.282 245.941 246.101 246.202 245.845 246.372L241.753 248.772C241.753 248.772 241.153 258.372 240.553 259.572C239.953 260.772 229.753 260.484 229.753 260.484L226.441 266.796L209.281 260.184L213.793 247.836L212.857 229.2C212.857 229.2 223.393 219.888 240.853 225.6Z" fill="#DFADAD" stroke="#263238" stroke-linecap="round" stroke-linejoin="round"/>
<path d="M229.105 248.28C229.105 248.28 226.117 251.088 223.873 251.28C221.629 251.472 214.333 249.78 213.769 249.036C213.205 248.292 208.165 237.816 208.345 232.764C208.525 227.712 208.729 220.236 214.141 217.812C219.553 215.388 228.169 216.12 232.657 213.324C237.145 210.528 244.249 208.272 247.993 213.132C251.737 217.992 248.929 224.724 245.941 227.532C242.953 230.34 239.209 231.132 239.581 232.332C239.953 233.532 242.197 234.948 240.889 236.82C239.581 238.692 234.889 240.42 234.889 241.116C234.889 241.812 236.017 244.488 234.709 244.86C233.401 245.232 232.081 242.244 230.773 242.244C229.465 242.244 226.681 245.856 229.105 248.28Z" fill="#263238" stroke="#263238" stroke-linecap="round" stroke-linejoin="round"/>
<path d="M221.294 239.701C220.755 240.304 220.295 240.974 219.926 241.693" stroke="white" stroke-width="0.5" stroke-linecap="round" stroke-linejoin="round"/>
<path d="M245.87 220.32C245.633 222.38 244.882 224.347 243.687 226.041C242.492 227.735 240.891 229.102 239.03 230.016C234.23 232.5 227.834 234.528 223.586 237.648" stroke="white" stroke-width="0.5" stroke-linecap="round" stroke-linejoin="round"/>
<path d="M239.58 232.393C239.58 232.393 235.32 235.993 230.76 239.701C227.648 242.109 224.189 244.031 220.5 245.401" stroke="white" stroke-width="0.5" stroke-linecap="round" stroke-linejoin="round"/>
<path d="M228.805 248.785L231.205 249.385C231.059 250.507 231.145 251.647 231.457 252.735C231.768 253.822 232.299 254.834 233.017 255.709" fill="white"/>
<path d="M228.805 248.785L231.205 249.385C231.059 250.507 231.145 251.647 231.457 252.735C231.768 253.822 232.299 254.834 233.017 255.709" stroke="#263238" stroke-linecap="round" stroke-linejoin="round"/>
<path d="M231.59 242.341L248.534 238.141" stroke="#263238" stroke-linecap="round" stroke-linejoin="round"/>
<path d="M244.176 237.805L248.04 237.973C248.04 237.973 249.372 242.341 245.352 242.845" stroke="#263238" stroke-linecap="round" stroke-linejoin="round"/>
<path d="M227.09 445.273C227.09 445.273 242.69 455.125 245.438 455.125C248.186 455.125 249.554 457.597 248.186 457.873C246.818 458.149 238.322 458.413 232.586 458.689C226.85 458.965 222.986 458.413 219.71 458.413C216.434 458.413 212.582 458.689 210.938 457.873C209.294 457.057 212.042 447.733 212.042 446.089C212.042 444.445 225.17 444.169 227.09 445.273Z" fill="#263238" stroke="#263238" stroke-linecap="round" stroke-linejoin="round"/>
<path d="M247.202 455.533C241.142 457.525 231.314 456.217 225.41 455.677C220.742 455.257 213.41 455.161 210.422 455.137C210.302 456.541 210.422 457.609 210.89 457.873C212.534 458.689 216.374 458.413 219.662 458.413C222.95 458.413 226.778 458.965 232.538 458.689C238.298 458.413 246.782 458.137 248.138 457.873C249.206 457.657 248.702 456.241 247.202 455.533Z" fill="white" stroke="#263238" stroke-linecap="round" stroke-linejoin="round"/>
<path d="M239.413 377.592L227.101 439.332L229.669 445.74C227.826 448.409 225.045 450.285 221.881 450.996C218.362 451.688 214.787 452.057 211.201 452.1C211.201 452.1 209.833 445.248 210.661 444.42C211.489 443.592 211.753 440.316 211.753 440.316L218.869 378.132L239.413 377.592Z" fill="#5A3A97" stroke="#263238" stroke-linecap="round" stroke-linejoin="round"/>
<path d="M276.936 443.184C276.936 443.184 286.536 451.128 290.916 452.496C295.296 453.864 299.952 455.232 299.952 456.6C299.952 457.968 289.548 459.336 281.604 458.52C273.66 457.704 261.6 454.14 258.864 454.14C256.128 454.14 256.668 447.012 256.668 445.92C256.668 444.828 270.096 436.056 276.936 443.184Z" fill="#263238" stroke="#263238" stroke-linecap="round" stroke-linejoin="round"/>
<path d="M300.001 456.601C300.001 456.109 299.389 455.617 298.417 455.125C290.576 456.174 282.627 456.117 274.801 454.957C266.917 453.829 260.317 452.317 256.945 451.477C257.233 452.953 257.797 454.141 258.913 454.141C261.649 454.141 273.709 457.741 281.653 458.521C289.597 459.301 300.001 457.969 300.001 456.601Z" fill="white" stroke="#263238" stroke-linecap="round" stroke-linejoin="round"/>
<path d="M229.287 349.921C237.501 349.292 245.757 349.477 253.935 350.473C267.903 352.117 299.115 354.073 299.655 357.601C300.195 361.129 275.439 435.277 275.439 437.185C275.439 439.093 277.623 441.025 278.175 442.117C278.523 442.896 278.711 443.736 278.727 444.589C278.727 444.589 272.019 451.789 266.811 453.745C261.603 455.701 257.211 453.865 256.131 453.865C255.051 453.865 255.039 446.473 255.867 442.909C256.695 439.345 258.051 430.309 258.327 429.493C258.603 428.677 273.603 375.949 273.603 375.949C273.603 375.949 232.803 382.525 208.431 379.777C184.059 377.029 181.587 373.213 180.219 367.453C178.851 361.693 181.587 350.197 181.587 350.197L229.287 349.921Z" fill="#5A3A97" stroke="#263238" stroke-linecap="round" stroke-linejoin="round"/>
<path d="M226.203 367.668C225.65 368.469 225.032 369.223 224.355 369.924" stroke="#263238" stroke-linecap="round" stroke-linejoin="round"/>
<path d="M233.666 352.932C232.092 356.875 230.276 360.719 228.23 364.44" stroke="#263238" stroke-linecap="round" stroke-linejoin="round"/>
<path d="M230.4 355.68C227.095 361.132 222.091 365.348 216.156 367.68" stroke="#263238" stroke-linecap="round" stroke-linejoin="round"/>
<path d="M292.586 370.8C293.522 370.44 294.422 370.068 295.274 369.684L292.586 370.8Z" fill="white"/>
<path d="M292.586 370.8C293.522 370.44 294.422 370.068 295.274 369.684" stroke="#263238" stroke-linecap="round" stroke-linejoin="round"/>
<path d="M273.602 375.948C278.872 374.93 284.081 373.612 289.202 372L273.602 375.948Z" fill="white"/>
<path d="M273.602 375.948C278.872 374.93 284.081 373.612 289.202 372" stroke="#263238" stroke-linecap="round" stroke-linejoin="round"/>
<path d="M305.269 284.976C305.845 282.684 306.805 282.864 306.037 282.108C304.981 281.052 304.129 282.3 301.069 284.016C298.009 285.732 294.961 287.832 294.961 287.832C295.028 287.196 295.292 286.596 295.717 286.116C296.491 284.851 296.905 283.399 296.917 281.916C296.917 280.716 295.957 280.956 295.573 282.108C295.189 283.26 291.757 285.348 291.565 286.308C291.373 287.268 290.689 291.036 290.689 291.036C289.597 292.68 289.597 300.348 289.597 300.348L267.361 317.052L256.129 330.252C256.129 330.252 261.061 338.196 263.797 337.104C266.533 336.012 267.901 334.908 274.477 329.424C280.045 324.78 294.001 303.36 294.001 303.36C296.432 301.834 298.732 300.108 300.877 298.2C303.352 295.401 304.814 291.851 305.029 288.12C304.977 287.067 305.058 286.01 305.269 284.976Z" fill="#DFADAD" stroke="#263238" stroke-linecap="round" stroke-linejoin="round"/>
<path d="M202.383 259.633C202.383 259.633 204.495 251.713 213.471 253.297C222.447 254.881 229.311 262.273 230.895 264.913C232.479 267.553 201.855 263.857 201.855 263.857L202.383 259.633Z" fill="white" stroke="#263238" stroke-linecap="round" stroke-linejoin="round"/>
<path d="M254.127 328.801C254.127 328.801 252.039 331.057 254.127 334.609C255.555 337.069 258.075 338.953 262.899 338.125C267.411 337.333 274.191 326.125 274.191 318.241C274.191 310.357 268.383 309.841 266.271 311.377C264.159 312.913 254.127 328.801 254.127 328.801Z" fill="white" stroke="#263238" stroke-linecap="round" stroke-linejoin="round"/>
<path d="M206.269 258.708C206.269 258.708 184.909 268.848 181.897 270.708C178.885 272.568 176.965 296.448 176.965 300.564C176.965 304.68 179.977 344.964 180.793 351.78C181.609 358.596 207.913 363.288 216.685 360.816C225.457 358.344 234.001 352.116 234.001 349.92C234.001 347.724 233.173 329.112 233.725 325.548C234.277 321.984 239.197 306.924 239.197 306.924L254.149 330.78C254.149 330.78 255.721 333.708 261.277 331.404C269.221 328.116 269.881 315.408 269.881 315.408C269.881 315.408 261.121 300.072 258.649 292.404C256.177 284.736 255.049 278.976 253.993 277.608C252.937 276.24 228.241 264.732 223.861 261.72C221.381 259.852 218.49 258.604 215.43 258.08C212.37 257.556 209.229 257.771 206.269 258.708Z" fill="white" stroke="#263238" stroke-linecap="round" stroke-linejoin="round"/>
<path d="M239.139 306.924L232.023 296.508" stroke="#263238" stroke-linecap="round" stroke-linejoin="round"/>
<path d="M237.985 305.436L225.445 299.256" stroke="#263238" stroke-linecap="round" stroke-linejoin="round"/>
<path d="M200.82 384.001L211.764 461.785C211.789 461.965 211.852 462.138 211.948 462.293C212.044 462.448 212.171 462.581 212.321 462.683C212.471 462.786 212.641 462.856 212.82 462.89C212.999 462.923 213.183 462.919 213.36 462.877C213.668 462.801 213.938 462.618 214.123 462.361C214.308 462.103 214.395 461.788 214.368 461.473L206.652 382.717L200.82 384.001Z" fill="#263238" stroke="#263238" stroke-linecap="round" stroke-linejoin="round"/>
<path d="M169.382 384.613L151.094 461.005C151.052 461.182 151.047 461.366 151.081 461.545C151.114 461.724 151.184 461.894 151.287 462.044C151.39 462.195 151.523 462.322 151.678 462.418C151.832 462.514 152.005 462.576 152.186 462.601C152.499 462.648 152.818 462.578 153.083 462.406C153.348 462.234 153.541 461.97 153.626 461.665L174.866 387.529L169.382 384.613Z" fill="#263238" stroke="#263238" stroke-linecap="round" stroke-linejoin="round"/>
<path d="M202.596 383.664L190.956 461.34C190.929 461.519 190.939 461.702 190.986 461.877C191.033 462.052 191.115 462.215 191.227 462.357C191.34 462.499 191.481 462.616 191.64 462.701C191.8 462.786 191.976 462.838 192.156 462.852C192.472 462.869 192.783 462.772 193.032 462.578C193.281 462.384 193.452 462.106 193.512 461.796L208.284 386.1L202.596 383.664Z" fill="#263238" stroke="#263238" stroke-linecap="round" stroke-linejoin="round"/>
<path d="M243.805 384.001L254.749 461.785C254.774 461.966 254.836 462.139 254.932 462.293C255.028 462.448 255.155 462.581 255.306 462.684C255.456 462.787 255.626 462.857 255.805 462.89C255.984 462.924 256.168 462.919 256.345 462.877C256.652 462.801 256.923 462.618 257.107 462.361C257.292 462.104 257.379 461.789 257.353 461.473L249.601 382.693L243.805 384.001Z" fill="#263238" stroke="#263238" stroke-linecap="round" stroke-linejoin="round"/>
<path d="M152.066 303.276L165.386 389.88H260.114C260.114 389.88 261.518 364.92 257.342 356.1C253.166 347.28 201.602 366.192 199.742 365.7C198.362 365.352 200.402 320.64 202.934 303.168C203.111 301.938 203.022 300.684 202.672 299.492C202.322 298.299 201.72 297.196 200.906 296.257C200.092 295.318 199.086 294.565 197.955 294.049C196.825 293.534 195.596 293.267 194.354 293.268H160.634C159.382 293.266 158.144 293.536 157.006 294.059C155.869 294.582 154.858 295.346 154.043 296.297C153.229 297.248 152.631 298.365 152.289 299.569C151.948 300.774 151.872 302.039 152.066 303.276Z" fill="#5A3A97" stroke="#263238" stroke-linecap="round" stroke-linejoin="round"/>
<path d="M257.341 356.1C253.165 347.28 201.601 366.192 199.741 365.7C198.361 365.352 200.401 320.64 202.933 303.168C203.155 301.954 203.106 300.705 202.79 299.512C202.474 298.319 201.899 297.21 201.106 296.264C200.313 295.319 199.321 294.559 198.201 294.04C197.082 293.521 195.861 293.256 194.627 293.262C193.393 293.268 192.175 293.546 191.06 294.077C189.946 294.607 188.962 295.376 188.178 296.33C187.395 297.284 186.831 298.399 186.528 299.595C186.224 300.791 186.188 302.04 186.421 303.252L199.741 389.856H260.113C260.113 389.856 261.517 364.92 257.341 356.1Z" fill="#263238" stroke="#263238" stroke-linecap="round" stroke-linejoin="round"/>
<path d="M305.269 284.977C305.269 284.977 303.745 286.501 301.453 289.177L305.269 284.977Z" fill="white"/>
<path d="M305.269 284.977C305.269 284.977 303.745 286.501 301.453 289.177" stroke="#263238" stroke-linecap="round" stroke-linejoin="round"/>
<path d="M305.031 288.072C305.031 288.072 303.171 291.852 302.031 293.568L305.031 288.072Z" fill="white"/>
<path d="M305.031 288.072C305.031 288.072 303.171 291.852 302.031 293.568" stroke="#263238" stroke-linecap="round" stroke-linejoin="round"/>
<path d="M48.4322 331.849C50.4242 332.713 55.2842 332.605 55.2962 332.605C55.3082 332.605 54.2522 329.425 54.1562 329.233C53.0882 326.989 49.7042 323.305 46.9562 323.677C46.5013 323.751 46.0671 323.92 45.6821 324.173C45.2971 324.427 44.9699 324.758 44.7219 325.147C44.4738 325.535 44.3105 325.972 44.2427 326.428C44.1749 326.884 44.204 327.349 44.3282 327.793C44.7842 329.689 46.7282 331.105 48.4322 331.849Z" fill="#263238"/>
<path d="M112.214 315.277C109.454 314.977 106.214 318.757 105.17 321.025C105.086 321.217 104.078 324.433 104.126 324.433C103.598 325.021 103.046 325.633 102.458 326.377C101.378 327.697 100.178 329.209 98.9658 330.937C97.6603 332.789 96.4585 334.712 95.3658 336.697C94.1341 338.923 93.0982 341.251 92.2698 343.657C92.275 343.684 92.275 343.713 92.2698 343.741C92.2698 342.937 92.2698 340.657 92.2698 340.489C91.9458 338.029 89.8698 333.469 87.1578 332.965C86.706 332.892 86.2439 332.914 85.8013 333.031C85.3588 333.147 84.9455 333.355 84.5883 333.641C84.231 333.927 83.9377 334.285 83.7271 334.692C83.5165 335.098 83.3935 335.544 83.3658 336.001C83.1978 337.957 84.5658 339.913 85.9938 341.137C87.5538 342.529 91.8738 343.873 92.2218 343.981C91.4371 346.475 90.8276 349.021 90.3978 351.601C90.1218 353.089 89.9058 354.589 89.7018 356.101C89.7018 355.393 89.7018 354.769 89.7018 354.685C89.3898 352.225 87.3018 347.665 84.6018 347.161C84.1464 347.089 83.6812 347.115 83.2363 347.235C82.7913 347.355 82.3766 347.567 82.0191 347.858C81.6615 348.149 81.3691 348.512 81.1607 348.923C80.9524 349.334 80.8328 349.784 80.8098 350.245C80.6538 352.201 82.0098 354.157 83.4498 355.393C84.8898 356.629 88.5018 357.865 89.4498 358.165C89.3778 358.753 89.2938 359.365 89.2218 359.905C88.8978 362.689 88.5738 365.473 88.1778 368.185C88.0338 369.145 87.8658 370.081 87.6978 371.017C87.6978 370.393 87.6978 369.877 87.6978 369.817C87.3738 367.357 85.2978 362.797 82.5858 362.293C82.1304 362.223 81.6655 362.25 81.2212 362.372C80.7769 362.494 80.3631 362.707 80.0067 362.999C79.6504 363.291 79.3593 363.655 79.1524 364.066C78.9455 364.478 78.8274 364.928 78.8058 365.389C78.6498 367.333 80.0058 369.289 81.4458 370.525C83.2375 371.709 85.2003 372.611 87.2658 373.201C87.0618 374.161 86.8578 375.109 86.6178 376.033C86.4378 376.657 86.3178 377.233 86.1018 377.881C85.8858 378.529 85.7058 379.081 85.5138 379.705C85.0938 380.845 84.6738 382.033 84.2418 383.137C83.9418 383.917 83.6418 384.649 83.3538 385.381C83.4978 384.433 83.7498 382.561 83.7618 382.405C83.7279 380.224 83.1372 378.089 82.0458 376.201C82.0755 375.962 82.0755 375.72 82.0458 375.481C81.9914 375.019 81.8392 374.574 81.5995 374.175C81.3598 373.777 81.0379 373.434 80.6553 373.169C80.2728 372.905 79.8383 372.725 79.3807 372.641C78.9232 372.558 78.4531 372.572 78.0018 372.685C75.3138 373.393 73.6218 378.097 73.4898 380.569C73.4898 380.713 73.5858 382.309 73.6578 383.317C73.5258 382.729 73.3938 382.117 73.2498 381.565C72.9738 380.365 72.6498 379.165 72.3258 377.965C72.1338 377.353 71.9538 376.765 71.7618 376.129C71.5698 375.493 71.3298 374.929 71.1138 374.257C70.5858 372.805 69.9858 371.365 69.3378 369.925C70.3698 369.673 74.0418 368.725 75.5178 367.609C76.9938 366.493 78.5418 364.633 78.5298 362.677C78.544 362.211 78.4587 361.747 78.2795 361.317C78.1003 360.887 77.8313 360.499 77.4906 360.181C77.1498 359.863 76.7451 359.622 76.3035 359.473C75.8619 359.323 75.3936 359.27 74.9298 359.317C72.1698 359.617 69.7698 364.009 69.2778 366.433C69.2778 366.589 69.0738 368.365 69.0018 369.349C68.6178 368.485 68.2218 367.621 67.8018 366.757C66.6018 364.285 65.2338 361.801 63.9258 359.329L62.7258 357.049C63.0978 356.965 67.5258 355.957 69.1338 354.649C70.7418 353.341 72.1578 351.685 72.1458 349.717C72.1581 349.251 72.0714 348.789 71.8916 348.359C71.7117 347.93 71.4427 347.544 71.1024 347.226C70.7621 346.908 70.3582 346.667 69.9174 346.517C69.4767 346.367 69.0092 346.312 68.5458 346.357C65.7858 346.657 63.3978 351.049 62.8938 353.473C62.8938 353.665 62.6178 356.221 62.5938 356.881C61.7298 355.213 60.8778 353.533 60.1098 351.853C59.0554 349.582 58.1495 347.245 57.3978 344.857C57.5658 344.857 62.1978 343.777 63.8538 342.457C65.3178 341.329 66.8778 339.481 66.8538 337.525C66.868 337.059 66.7827 336.595 66.6035 336.165C66.4243 335.735 66.1553 335.347 65.8146 335.029C65.4738 334.711 65.0691 334.47 64.6275 334.321C64.1859 334.171 63.7176 334.118 63.2538 334.165C60.4938 334.465 58.1058 338.857 57.6018 341.281C57.6018 341.473 57.3138 344.233 57.3018 344.737C57.3018 344.593 57.2058 344.461 57.1578 344.317C56.4758 341.902 56.006 339.433 55.7538 336.937C55.6098 335.557 55.5378 334.237 55.4898 332.941C56.3658 332.833 60.2898 332.305 62.0058 331.309C63.7218 330.313 65.3418 328.681 65.6058 326.737C65.6682 326.28 65.634 325.815 65.5053 325.373C65.3766 324.93 65.1563 324.52 64.8587 324.168C64.5611 323.816 64.1929 323.531 63.7779 323.33C63.3629 323.13 62.9104 323.019 62.4498 323.005C59.6658 323.005 56.8098 327.109 56.0418 329.461C56.0418 329.593 55.7298 330.937 55.5378 331.921C55.5378 331.345 55.5378 330.721 55.5378 330.181C55.5378 328.081 55.6698 326.161 55.8018 324.469C55.8858 323.497 55.9818 322.621 56.0778 321.805C56.8818 321.253 60.0858 318.997 61.0698 317.377C62.0538 315.757 62.8218 313.513 62.1018 311.689C61.9472 311.255 61.7031 310.86 61.3854 310.527C61.0678 310.194 60.6836 309.932 60.258 309.758C59.8324 309.584 59.3748 309.501 58.9151 309.515C58.4554 309.529 58.0038 309.64 57.5898 309.841C55.1178 311.113 54.4698 316.069 54.8778 318.517C54.8778 318.721 55.8498 321.961 55.8858 321.937C55.7778 322.717 55.6698 323.557 55.5738 324.481C55.4058 326.185 55.2378 328.081 55.1778 330.217C55.1054 332.482 55.1615 334.75 55.3458 337.009C55.5225 339.543 55.9241 342.057 56.5458 344.521C56.551 344.548 56.551 344.577 56.5458 344.605C56.1138 343.921 54.8298 342.049 54.7098 341.917C53.0898 340.045 48.8538 337.369 46.3098 338.461C45.8903 338.651 45.5157 338.927 45.2103 339.272C44.905 339.617 44.6757 340.022 44.5376 340.462C44.3994 340.901 44.3555 341.364 44.4086 341.822C44.4617 342.279 44.6107 342.721 44.8458 343.117C45.7938 344.833 48.0498 345.685 49.8858 345.949C51.9498 346.249 56.2938 344.989 56.6418 344.893C57.3555 347.38 58.2335 349.817 59.2698 352.189C59.8698 353.569 60.4698 354.949 61.1778 356.317C60.7818 355.729 60.4218 355.213 60.3738 355.117C58.7538 353.245 54.5178 350.569 51.9738 351.661C51.5614 351.871 51.1982 352.166 50.9082 352.526C50.6181 352.887 50.4078 353.305 50.291 353.753C50.1742 354.201 50.1537 354.668 50.2307 355.125C50.3077 355.581 50.4805 356.016 50.7378 356.401C51.6738 358.117 53.9418 358.969 55.7658 359.233C57.5898 359.497 61.3458 358.513 62.3298 358.225C62.5938 358.753 62.8458 359.281 63.1098 359.797C64.3098 362.305 65.6418 364.801 66.8058 367.285C67.2138 368.161 67.5858 369.037 68.0058 369.913L67.2978 368.905C65.6778 367.033 61.4418 364.369 58.8978 365.449C58.479 365.641 58.1053 365.92 57.8011 366.266C57.497 366.613 57.269 367.019 57.1321 367.459C56.9952 367.899 56.9523 368.363 57.0064 368.821C57.0604 369.279 57.2101 369.72 57.4458 370.117C58.3938 371.833 60.6498 372.685 62.4738 372.949C64.6423 372.957 66.7994 372.634 68.8698 371.989C69.2298 372.901 69.5898 373.813 69.8898 374.701C70.0938 375.325 70.3218 375.901 70.4778 376.537C70.6338 377.173 70.8258 377.737 70.9938 378.385C71.2818 379.585 71.5818 380.785 71.8338 381.985C72.0138 382.789 72.1698 383.569 72.3258 384.385C71.9178 383.509 71.1258 381.805 71.0178 381.673C69.6978 379.573 65.9178 376.297 63.2298 376.981C62.7874 377.108 62.3769 377.327 62.0246 377.624C61.6724 377.92 61.3863 378.288 61.185 378.702C60.9836 379.116 60.8714 379.567 60.8557 380.027C60.84 380.488 60.9211 380.946 61.0938 381.373C61.7658 383.209 63.8658 384.397 65.6298 384.973C67.5858 385.561 71.8938 384.973 72.4338 384.973C72.6978 386.257 72.9258 387.517 73.1418 388.705C73.8618 392.821 74.3418 396.289 74.5938 398.701C74.5938 399.133 74.6898 399.517 74.7258 399.901H66.3258L69.3738 459.385H83.6058L86.6538 399.901H78.8658L79.0458 399.553C80.1138 397.321 81.5898 394.129 83.1858 390.217C83.7018 389.017 84.2178 387.661 84.7338 386.293C85.2618 386.401 89.5338 387.265 91.5138 386.809C93.3258 386.401 95.5098 385.381 96.3138 383.605C96.519 383.192 96.6347 382.74 96.6534 382.28C96.6721 381.819 96.5934 381.359 96.4224 380.931C96.2513 380.503 95.9918 380.116 95.6609 379.795C95.3299 379.474 94.935 379.226 94.5018 379.069C91.8738 378.181 87.8658 381.169 86.3898 383.161C86.3058 383.281 85.5018 384.661 85.0098 385.561L85.6458 383.881C86.0658 382.741 86.4498 381.577 86.8458 380.341L87.3858 378.505C87.5898 377.893 87.7218 377.233 87.8898 376.585C88.2378 375.085 88.5258 373.549 88.7898 371.989C89.7858 372.349 93.3738 373.597 95.2218 373.465C97.0698 373.333 99.3858 372.661 100.454 371.065C100.724 370.686 100.912 370.254 101.003 369.797C101.094 369.34 101.087 368.87 100.983 368.416C100.879 367.962 100.679 367.536 100.397 367.165C100.116 366.794 99.7588 366.487 99.3498 366.265C96.9498 365.065 92.4618 367.345 90.7098 369.085C90.6018 369.205 89.5098 370.597 88.8858 371.377C89.0298 370.441 89.1738 369.505 89.2938 368.545C89.6418 365.797 89.8938 363.001 90.1698 360.217C90.2538 359.365 90.3498 358.513 90.4338 357.661C90.7938 357.793 95.0178 359.365 97.0938 359.221C98.9298 359.089 101.246 358.417 102.314 356.821C102.585 356.442 102.772 356.01 102.863 355.553C102.954 355.097 102.947 354.626 102.843 354.172C102.739 353.718 102.539 353.292 102.257 352.921C101.976 352.55 101.619 352.243 101.21 352.021C98.8098 350.761 94.3338 353.101 92.5698 354.841C92.4378 354.973 90.8298 356.989 90.4458 357.517C90.6498 355.645 90.8658 353.785 91.1538 351.949C91.5233 349.476 92.0564 347.031 92.7498 344.629C92.9178 344.629 97.3098 346.345 99.4458 346.201C101.282 346.069 103.598 345.385 104.666 343.801C104.938 343.422 105.127 342.99 105.219 342.533C105.312 342.076 105.305 341.605 105.201 341.151C105.096 340.696 104.896 340.269 104.613 339.899C104.331 339.528 103.972 339.222 103.562 339.001C101.162 337.729 96.6858 340.069 94.9218 341.821C94.7898 341.953 93.0618 344.125 92.7738 344.533L92.8818 344.113C93.6437 341.72 94.6154 339.399 95.7858 337.177C96.4218 335.977 97.0938 334.777 97.7658 333.697C98.5578 334.093 102.182 335.857 104.102 335.929C106.022 336.001 108.326 335.581 109.574 334.069C109.87 333.724 110.092 333.321 110.224 332.886C110.357 332.451 110.397 331.993 110.343 331.542C110.289 331.09 110.141 330.655 109.91 330.264C109.678 329.872 109.368 329.533 108.998 329.269C106.682 327.733 102.038 329.569 100.106 331.117C99.9978 331.201 99.0138 332.173 98.3178 332.893C98.6298 332.401 98.9418 331.885 99.2538 331.429C100.454 329.677 101.582 328.153 102.638 326.797C103.238 326.041 103.838 325.369 104.33 324.745C105.302 324.745 109.226 324.601 110.942 323.797C112.658 322.993 114.542 321.541 114.938 319.633C115.104 319.167 115.162 318.67 115.109 318.179C115.055 317.687 114.892 317.215 114.63 316.796C114.368 316.377 114.014 316.022 113.596 315.759C113.177 315.496 112.705 315.331 112.214 315.277ZM81.6738 389.377C80.0058 393.217 78.4698 396.349 77.3778 398.521L76.7658 399.721H76.5858C76.5858 399.301 76.4658 398.833 76.3938 398.317C76.0578 395.917 75.5298 392.389 74.7018 388.249C74.4498 386.941 74.1498 385.549 73.8258 384.121C75.1227 383.597 76.3888 383 77.6178 382.333C79.2872 383.782 81.1488 384.993 83.1498 385.933C82.6578 387.097 82.1538 388.273 81.6738 389.377Z" fill="#263238"/>
<path d="M97.6804 332.917C97.6804 332.917 98.5684 329.689 98.5924 329.473C98.9404 327.013 98.1604 322.081 95.6524 320.869C95.2357 320.682 94.7847 320.585 94.3281 320.582C93.8716 320.58 93.4195 320.672 93.0007 320.854C92.5819 321.036 92.2055 321.303 91.8956 321.638C91.5856 321.973 91.3489 322.369 91.2004 322.801C90.5284 324.637 91.3804 326.893 92.4004 328.453C93.6004 330.325 97.6804 332.917 97.6804 332.917Z" fill="#263238"/>
<path d="M549.514 459.096H61.4141V465.072H549.514V459.096Z" fill="#263238"/>
</svg>
