<svg width="600" height="600" viewBox="0 0 600 600" fill="none" xmlns="http://www.w3.org/2000/svg">
<g clip-path="url(#clip0_3406_27721)">
<path d="M564.235 500.455C568.35 485.405 581.751 434.886 590.854 383.719C601.705 322.631 611.203 238.489 567.772 203.189C524.341 167.89 467.326 209.982 437.466 196.411C407.605 182.841 406.252 114.961 326.141 94.6126C246.029 74.2641 201.26 144.821 165.974 182.827C130.688 220.832 91.2879 195.044 39.7403 235.77C-11.2718 276.044 31.9899 458.419 69.7134 500.455H564.235Z" fill="#5A3A97"/>
<path d="M564.235 500.455C568.35 485.405 581.751 434.886 590.854 383.719C601.705 322.631 611.203 238.489 567.772 203.189C524.341 167.89 467.326 209.982 437.466 196.411C407.605 182.841 406.252 114.961 326.141 94.6126C246.029 74.2641 201.26 144.821 165.974 182.827C130.688 220.832 91.2879 195.044 39.7403 235.77C-11.2718 276.044 31.9899 458.419 69.7134 500.455H564.235Z" fill="#FAB748"/>
<path d="M578.286 214.59H467.666C467.129 214.594 466.615 214.808 466.235 215.188C465.855 215.568 465.64 216.082 465.637 216.619V501.272C465.637 501.812 465.85 502.329 466.23 502.712C466.61 503.095 467.126 503.312 467.666 503.316H578.286C578.828 503.316 579.348 503.1 579.731 502.717C580.114 502.334 580.329 501.814 580.329 501.272V216.619C580.326 216.08 580.109 215.563 579.726 215.183C579.343 214.803 578.826 214.59 578.286 214.59ZM576.257 499.243H469.709V218.662H576.257V499.243Z" fill="white"/>
<path d="M477.426 277.226H568.529C568.797 277.226 569.062 277.173 569.309 277.07C569.556 276.968 569.781 276.817 569.969 276.627C570.158 276.437 570.307 276.212 570.408 275.964C570.509 275.716 570.56 275.451 570.558 275.183V227.088C570.56 226.821 570.509 226.556 570.408 226.309C570.306 226.062 570.157 225.838 569.968 225.649C569.779 225.46 569.555 225.311 569.308 225.209C569.061 225.108 568.796 225.057 568.529 225.059H477.426C477.158 225.057 476.893 225.108 476.645 225.209C476.397 225.31 476.172 225.459 475.982 225.648C475.792 225.837 475.641 226.061 475.539 226.308C475.436 226.555 475.383 226.82 475.383 227.088V275.183C475.383 275.725 475.598 276.245 475.981 276.628C476.364 277.011 476.884 277.226 477.426 277.226ZM479.455 229.089H566.486V273.111H479.455V229.089Z" fill="white"/>
<path d="M477.426 345.543H568.529C568.796 345.545 569.061 345.493 569.308 345.392C569.555 345.291 569.779 345.141 569.968 344.952C570.157 344.764 570.306 344.539 570.408 344.292C570.509 344.045 570.56 343.78 570.558 343.513V295.418C570.56 295.151 570.509 294.885 570.408 294.637C570.307 294.39 570.158 294.164 569.969 293.974C569.781 293.784 569.556 293.634 569.309 293.531C569.062 293.428 568.797 293.375 568.529 293.375H477.426C476.884 293.375 476.364 293.59 475.981 293.973C475.598 294.357 475.383 294.876 475.383 295.418V343.513C475.383 343.781 475.436 344.046 475.539 344.293C475.641 344.54 475.792 344.765 475.982 344.953C476.172 345.142 476.397 345.291 476.645 345.392C476.893 345.493 477.158 345.545 477.426 345.543ZM479.455 297.448H566.486V341.484H479.455V297.448Z" fill="white"/>
<path d="M477.426 413.875H568.529C569.067 413.875 569.584 413.661 569.964 413.28C570.345 412.9 570.558 412.384 570.558 411.845V363.736C570.558 363.198 570.345 362.682 569.964 362.301C569.584 361.921 569.067 361.707 568.529 361.707H477.426C476.887 361.707 476.369 361.92 475.986 362.301C475.603 362.681 475.387 363.197 475.383 363.736V411.845C475.387 412.385 475.603 412.901 475.986 413.281C476.369 413.661 476.887 413.875 477.426 413.875ZM479.455 365.78H566.486V409.802H479.455V365.78Z" fill="white"/>
<path d="M477.427 482.206H568.53C568.798 482.206 569.063 482.154 569.31 482.051C569.557 481.948 569.781 481.797 569.97 481.607C570.159 481.417 570.308 481.192 570.409 480.944C570.51 480.696 570.561 480.431 570.559 480.163V432.012C570.561 431.745 570.51 431.48 570.409 431.233C570.307 430.986 570.158 430.761 569.969 430.573C569.78 430.384 569.556 430.234 569.309 430.133C569.062 430.032 568.797 429.981 568.53 429.982H477.427C477.159 429.981 476.894 430.032 476.646 430.133C476.398 430.234 476.173 430.383 475.983 430.572C475.793 430.76 475.642 430.985 475.539 431.232C475.437 431.479 475.384 431.744 475.384 432.012V480.107C475.376 480.38 475.423 480.652 475.523 480.906C475.622 481.16 475.771 481.392 475.962 481.588C476.152 481.784 476.38 481.94 476.632 482.046C476.883 482.152 477.154 482.207 477.427 482.206ZM479.456 434.111H566.487V478.134H479.456V434.111Z" fill="white"/>
<path d="M439.716 113.537H141.76C141.231 113.537 140.723 113.743 140.344 114.111C139.965 114.48 139.745 114.982 139.73 115.51V263.924C139.73 264.192 139.783 264.457 139.886 264.704C139.989 264.951 140.14 265.176 140.33 265.364C140.52 265.553 140.745 265.702 140.993 265.803C141.241 265.904 141.506 265.955 141.774 265.953H439.716C439.983 265.955 440.247 265.904 440.494 265.803C440.741 265.702 440.966 265.552 441.155 265.363C441.343 265.174 441.493 264.95 441.594 264.703C441.695 264.456 441.747 264.191 441.745 263.924V115.51C441.734 114.98 441.514 114.477 441.135 114.107C440.755 113.738 440.245 113.533 439.716 113.537ZM437.672 117.61V255.314H143.789V117.553L437.672 117.61Z" fill="white"/>
<path d="M506.726 407.041L500.314 503.879C500.279 504.372 500.058 504.832 499.698 505.169C499.337 505.507 498.863 505.695 498.369 505.697C498.11 505.697 497.853 505.645 497.614 505.544C497.375 505.443 497.159 505.294 496.979 505.107C496.798 504.92 496.658 504.699 496.565 504.457C496.472 504.214 496.429 503.956 496.439 503.696L499.074 407.041H506.726Z" fill="#263238" stroke="#263238" stroke-linecap="round" stroke-linejoin="round"/>
<path d="M523.129 407.041L529.541 503.879C529.573 504.371 529.79 504.831 530.148 505.168C530.506 505.506 530.979 505.695 531.471 505.697C531.731 505.697 531.989 505.645 532.229 505.544C532.468 505.443 532.685 505.295 532.867 505.108C533.048 504.921 533.19 504.7 533.284 504.458C533.379 504.215 533.423 503.956 533.416 503.696L530.753 407.097L523.129 407.041Z" fill="#263238" stroke="#263238" stroke-linecap="round" stroke-linejoin="round"/>
<path d="M458.836 407.041L465.248 503.879C465.28 504.371 465.497 504.831 465.855 505.168C466.213 505.506 466.686 505.695 467.178 505.697C467.438 505.697 467.696 505.645 467.936 505.544C468.175 505.443 468.392 505.295 468.574 505.108C468.755 504.921 468.897 504.7 468.991 504.458C469.086 504.215 469.13 503.956 469.123 503.696L466.445 407.097L458.836 407.041Z" fill="#263238" stroke="#263238" stroke-linecap="round" stroke-linejoin="round"/>
<path d="M432.645 407.041L426.234 503.879C426.198 504.372 425.978 504.832 425.617 505.169C425.257 505.507 424.782 505.695 424.289 505.697C424.029 505.696 423.773 505.642 423.534 505.54C423.295 505.438 423.079 505.29 422.898 505.104C422.717 504.918 422.575 504.697 422.48 504.456C422.385 504.214 422.339 503.956 422.344 503.696L425.022 407.097L432.645 407.041Z" fill="#263238" stroke="#263238" stroke-linecap="round" stroke-linejoin="round"/>
<path d="M544.35 309.411C544.35 309.411 480.373 307.016 474.962 307.016C469.551 307.016 468.297 309.411 468.297 309.411L459.165 373.796C459.165 373.796 430.77 365.694 425.204 366.751C419.638 367.807 427.952 408.208 427.952 408.208H460.081L460.659 405.785H533.203L552.467 314.019C551.297 309.82 544.35 309.411 544.35 309.411Z" fill="white" stroke="#263238" stroke-linecap="round" stroke-linejoin="round"/>
<path d="M520.001 349.686C520.001 349.686 526.511 391.961 519.042 396.893C517.887 397.654 511.616 401.261 505.754 400.67C501.047 400.19 467.791 400.67 467.791 400.67C467.791 400.67 463.168 391.876 462.238 385.394C461.308 378.912 468.58 351.095 468.58 351.095L520.001 349.686Z" fill="white" stroke="#263238" stroke-linecap="round" stroke-linejoin="round"/>
<path d="M465.537 372.33C465.537 372.33 417.399 377.333 415.13 378.685C412.862 380.038 402.448 389.127 404.237 395.032C406.027 400.936 401.518 401.387 405.647 402.303C409.776 403.219 468.299 403.205 468.299 403.205" fill="#5A3A97"/>
<path d="M465.537 372.33C465.537 372.33 417.399 377.333 415.13 378.685C412.862 380.038 402.448 389.127 404.237 395.032C406.027 400.936 401.518 401.387 405.647 402.303C409.776 403.219 468.299 403.205 468.299 403.205" stroke="#263238" stroke-linecap="round" stroke-linejoin="round"/>
<path d="M421.75 408.139H536.133V399.599H421.75V408.139Z" fill="white" stroke="#263238" stroke-linecap="round" stroke-linejoin="round"/>
<path d="M509.121 374.148H440.212C440.212 374.148 436.591 378.235 436.126 386.831C435.661 395.427 436.591 397.273 442.946 399.514C449.301 401.754 505.753 400.613 505.753 400.613" fill="#5A3A97"/>
<path d="M509.121 374.148H440.212C440.212 374.148 436.591 378.235 436.126 386.831C435.661 395.427 436.591 397.273 442.946 399.514C449.301 401.754 505.753 400.613 505.753 400.613" stroke="#263238" stroke-linecap="round" stroke-linejoin="round"/>
<path d="M454.825 483.5L447.61 466.406L435.787 468.647L444.834 483.894L439.62 494.336L428.347 501.706C428.347 501.706 427.036 503.003 432.673 502.566C438.31 502.129 450.006 502.566 450.006 502.566L457.376 493.899C457.376 493.899 460.053 489.489 454.825 483.5Z" fill="#DFADAD" stroke="#263238" stroke-linecap="round" stroke-linejoin="round"/>
<path d="M457.983 490.971L458.279 502.145H456.517L454.164 496.565L457.983 490.971Z" fill="#263238" stroke="#263238" stroke-linecap="round" stroke-linejoin="round"/>
<path d="M450.022 502.622L457.391 493.955C457.391 493.955 459.294 490.728 456.673 486.078C451.431 495.04 444.455 497.732 444.455 497.732L437.184 495.985L428.362 501.762C428.362 501.762 427.052 503.059 432.689 502.622C438.325 502.185 450.022 502.622 450.022 502.622Z" fill="#263238" stroke="#263238" stroke-linecap="round" stroke-linejoin="round"/>
<path d="M426.485 396.399L450.653 469.465L433.503 472.509L399.683 396.413C399.683 396.413 396.963 385.056 404.22 381.434C411.478 377.812 432.827 375.98 432.827 375.98" fill="#5A3A97"/>
<path d="M426.485 396.399L450.653 469.465L433.503 472.509L399.683 396.413C399.683 396.413 396.963 385.056 404.22 381.434C411.478 377.812 432.827 375.98 432.827 375.98" stroke="#263238" stroke-linecap="round" stroke-linejoin="round"/>
<path d="M504.005 408.124C504.005 408.124 495.677 367.666 501.257 366.666C506.837 365.665 535.218 373.712 535.218 373.712L544.349 309.411C544.349 309.411 553.988 307.889 555.003 316.457C556.017 325.025 536.134 408.124 536.134 408.124H504.005Z" fill="#263238" stroke="#263238" stroke-linecap="round" stroke-linejoin="round"/>
<path d="M405.941 289.007L401.643 281.961C401.229 281.286 400.646 280.731 399.951 280.35C399.257 279.97 398.475 279.777 397.683 279.791L393.639 279.861L386.72 277.79C386.28 277.662 385.813 277.667 385.376 277.805C384.939 277.943 384.554 278.207 384.268 278.565L384.014 278.889L390.384 281.707L384.028 284.046L377.278 280.622C377.012 280.486 376.707 280.448 376.415 280.515C376.124 280.582 375.866 280.75 375.686 280.989C375.481 281.254 375.39 281.59 375.432 281.923C375.474 282.256 375.647 282.558 375.911 282.764L385.353 290.05C385.649 290.28 385.99 290.444 386.355 290.531C386.719 290.619 387.098 290.628 387.467 290.557L397.909 288.457L400.826 291.642L405.941 289.007Z" fill="#DFADAD" stroke="#263238" stroke-linecap="round" stroke-linejoin="round"/>
<path d="M478.736 274.551L440.026 315.036L403.078 285.176L397.977 288.882L438.631 334.948L473.875 315.966L478.736 274.551Z" fill="white" stroke="#263238" stroke-linecap="round" stroke-linejoin="round"/>
<path d="M536.652 284.893L556.944 347.249L539.442 347.756L522.039 318.487C522.039 318.487 531.819 288.965 536.652 284.893Z" fill="white" stroke="#263238" stroke-linecap="round" stroke-linejoin="round"/>
<path d="M514.574 274.185L536.655 284.965L518.167 336.668L520.351 351.084L468.578 351.168L474.75 327.945L470.523 313.064C469.974 311.133 469.945 309.091 470.438 307.145L478.724 274.622L500.482 271.127L514.574 274.185Z" fill="white" stroke="#263238" stroke-linecap="round" stroke-linejoin="round"/>
<path d="M513.518 271.154C513.518 271.154 517.858 274.085 517.999 276.692C518.07 278.228 517.999 280.919 517.858 282.977C517.781 284.584 517.413 286.165 516.773 287.641L508.952 297.083L499.905 289.938L492.394 293.771C492.394 293.771 490.985 282.258 494.269 274.226C497.552 266.194 511.841 269.139 513.518 271.154Z" fill="white" stroke="#263238" stroke-linecap="round" stroke-linejoin="round"/>
<path d="M519.734 248.818C519.734 248.818 517.959 255.201 517.127 259.429C516.296 263.656 514.619 272.112 514.774 275.282C514.929 278.453 501.584 291.953 499.907 289.938C498.23 287.922 496.469 276.212 496.469 276.212L498.132 257.273C498.132 257.273 515.521 238.009 519.734 248.818Z" fill="#DFADAD" stroke="#263238" stroke-linecap="round" stroke-linejoin="round"/>
<path d="M491.844 238.952C491.844 238.952 489.463 242.884 489.463 244.589C489.463 246.294 490.294 249.634 490.153 250.606C490.012 251.579 487.645 254.834 487.335 255.933C487.179 256.38 487.192 256.869 487.371 257.307C487.55 257.746 487.883 258.104 488.307 258.314C488.882 258.609 489.442 258.934 489.984 259.287C489.984 259.287 490.689 267.967 491.816 270.208C492.943 272.448 493.916 273.435 497.269 273.717C500.623 273.999 508.613 270.49 509.726 267.685C510.84 264.881 510.995 261.527 511.136 257.469C511.277 253.411 508.472 247.605 506.373 242.067C504.273 236.529 495.48 233.485 491.844 238.952Z" fill="#DFADAD" stroke="#263238" stroke-linecap="round" stroke-linejoin="round"/>
<path d="M527.99 267.615C533.928 267.615 538.742 262.802 538.742 256.863C538.742 250.925 533.928 246.111 527.99 246.111C522.052 246.111 517.238 250.925 517.238 256.863C517.238 262.802 522.052 267.615 527.99 267.615Z" fill="#263238" stroke="#263238" stroke-linecap="round" stroke-linejoin="round"/>
<path d="M491.789 238.347C491.789 238.347 496.115 234.613 503.894 242.039C511.673 249.466 508.713 260.204 513.913 262.43C519.113 264.657 528.738 253.524 529.851 247.972C530.964 242.42 527.624 230.907 517.239 228.68C506.853 226.454 494.128 227.976 491.789 238.347Z" fill="#263238" stroke="#263238" stroke-linecap="round" stroke-linejoin="round"/>
<path d="M491.786 238.347C491.694 237.473 491.802 236.591 492.102 235.765C492.402 234.94 492.887 234.194 493.518 233.584C494.15 232.974 494.912 232.516 495.748 232.245C496.583 231.974 497.469 231.897 498.338 232.02C505.384 232.4 506.117 243.518 509.823 247.971C513.529 252.424 515.389 251.677 515.389 251.677C515.389 251.677 509.09 253.524 505.004 251.297C500.917 249.071 498.944 236.515 491.786 238.347Z" fill="#263238" stroke="#263238" stroke-linecap="round" stroke-linejoin="round"/>
<path d="M503.3 230.725C507.007 233.015 509.95 236.355 511.755 240.321C514.954 247.099 514.954 252.694 522.549 252.299C522.549 252.299 518.956 253.102 513.361 250.298C507.767 247.494 506.569 239.518 502.976 236.319C501.016 234.464 498.48 233.335 495.789 233.12" stroke="white" stroke-width="0.5" stroke-linecap="round" stroke-linejoin="round"/>
<path d="M529.85 247.971C529.85 247.971 529.526 258.145 521.719 260.287" stroke="white" stroke-width="0.5" stroke-linecap="round" stroke-linejoin="round"/>
<path d="M508.062 258.356C508.062 258.356 515.503 248.619 517.25 255.89C518.998 263.161 513.023 264.937 510.204 264.105C507.386 263.274 507.781 261.766 507.781 261.766" fill="#DFADAD"/>
<path d="M508.062 258.356C508.062 258.356 515.503 248.619 517.25 255.89C518.998 263.161 513.023 264.937 510.204 264.105C507.386 263.274 507.781 261.766 507.781 261.766" stroke="#263238" stroke-linecap="round" stroke-linejoin="round"/>
<path d="M491.506 341.682C491.506 341.682 477.302 343.654 474.934 343.654C472.567 343.654 466.648 351.151 466.648 351.151H492.69L491.506 341.682Z" fill="#DFADAD" stroke="#263238" stroke-linecap="round" stroke-linejoin="round"/>
<path d="M551.848 332.129L556.949 343.628C557.178 344.305 557.243 345.026 557.14 345.733C557.038 346.44 556.769 347.113 556.357 347.697C555.945 348.28 555.401 348.758 554.769 349.092C554.138 349.426 553.436 349.606 552.722 349.617L491.141 349.969L491.535 341.683L539.278 334.13" fill="white"/>
<path d="M551.848 332.129L556.949 343.628C557.178 344.305 557.243 345.026 557.14 345.733C557.038 346.44 556.769 347.113 556.357 347.697C555.945 348.28 555.401 348.758 554.769 349.092C554.138 349.426 553.436 349.606 552.722 349.617L491.141 349.969L491.535 341.683L539.278 334.13" stroke="#263238" stroke-linecap="round" stroke-linejoin="round"/>
<path d="M469.424 490.971L469.72 502.145H467.959L465.605 496.565L469.424 490.971Z" fill="#263238" stroke="#263238" stroke-linecap="round" stroke-linejoin="round"/>
<path d="M466.267 483.502L463.998 467.24L452.19 468.001L456.276 484.009L451.062 494.451L439.789 501.821C439.789 501.821 438.492 503.118 444.129 502.681C449.766 502.244 461.462 502.681 461.462 502.681L468.832 494.015C468.832 494.015 471.495 489.491 466.267 483.502Z" fill="#DFADAD" stroke="#263238" stroke-linecap="round" stroke-linejoin="round"/>
<path d="M461.462 502.622L468.832 493.955C468.832 493.955 470.734 490.728 468.099 486.078C462.857 495.04 455.882 497.732 455.882 497.732L448.624 495.985L439.789 501.762C439.789 501.762 438.492 503.059 444.129 502.622C449.766 502.185 461.462 502.622 461.462 502.622Z" fill="#263238" stroke="#263238" stroke-linecap="round" stroke-linejoin="round"/>
<path d="M460.859 383.816L465.918 470.227L449.896 470.607L434.254 392.102C434.254 392.102 434.55 377.151 439.327 375.432C444.104 373.713 456.787 375.559 456.787 375.559" fill="#5A3A97"/>
<path d="M460.859 383.816L465.918 470.227L449.896 470.607L434.254 392.102C434.254 392.102 434.55 377.151 439.327 375.432C444.104 373.713 456.787 375.559 456.787 375.559" stroke="#263238" stroke-linecap="round" stroke-linejoin="round"/>
<path d="M390.82 197.822L410.703 253.555C410.703 253.555 408.082 266.167 400.191 265.646C392.299 265.124 390.2 254.077 388.1 252.498C386 250.92 382.844 238.829 382.844 238.829L390.82 197.822Z" fill="white" stroke="#263238" stroke-linecap="round" stroke-linejoin="round"/>
<path d="M339.385 186.646L307.059 198.314L319.459 287.952H377.785L390.82 197.821L355.929 186.9L339.385 186.646Z" fill="white" stroke="#263238" stroke-linecap="round" stroke-linejoin="round"/>
<path d="M342.5 202.006L347.164 209.037L343.12 268.674L349.067 284.203L355.168 269.096L349.94 209.925L354.14 199.765L348.32 192.113L342.5 202.006Z" fill="#5A3A97" stroke="#263238" stroke-linecap="round" stroke-linejoin="round"/>
<path d="M348.954 199.102L340.626 205.344L335.145 189.068L338.963 180.825L356 180.416L360.157 184.15L359.326 204.922L348.954 199.102Z" fill="white" stroke="#263238" stroke-linecap="round" stroke-linejoin="round"/>
<path d="M357.761 176.598L356.464 187.068L347.136 199.103L340.16 186.899V167.27C340.16 167.27 352.378 170.327 357.761 176.598Z" fill="white" stroke="#263238" stroke-linecap="round" stroke-linejoin="round"/>
<path d="M335.375 154.841C335.375 145.329 342.308 137.621 350.876 137.621C359.444 137.621 364.193 145.752 364.193 155.264C364.193 158.336 363.559 163.606 363.305 166.411C362.868 171.202 361.417 173.231 358.584 177.529C349.298 191.621 341.674 170.948 337.771 164.001C336.191 161.207 335.365 158.051 335.375 154.841Z" fill="#DFADAD" stroke="#263238" stroke-linecap="round" stroke-linejoin="round"/>
<path d="M357.61 157.828L358.921 167.65L354.312 167.523" fill="white"/>
<path d="M357.61 157.828L358.921 167.65L354.312 167.523" stroke="#263238" stroke-linecap="round" stroke-linejoin="round"/>
<path d="M367.896 156.125L345.744 156.224C345.472 157.085 345.43 158.003 345.623 158.886C345.816 159.768 346.237 160.585 346.843 161.254C348.252 162.664 353.988 162.17 354.904 161.804C355.82 161.438 356.313 157.407 356.313 157.407H357.962C357.962 157.407 358.145 161.635 360.512 161.987C362.88 162.339 365.966 162.227 366.558 161.804C369.179 160.043 367.896 156.125 367.896 156.125Z" fill="white" stroke="#263238" stroke-linecap="round" stroke-linejoin="round"/>
<path d="M338.108 165.592C338.108 165.592 343.096 175.809 344.28 179.346C345.463 182.883 351.326 185.645 357.258 183.672C363.191 181.699 361.584 172.92 361.584 172.92C361.584 172.92 355.285 167.537 354.116 168.692C352.946 169.848 346.633 174.992 346.238 173.808C345.844 172.624 343.096 165.55 343.096 165.55L341.814 160.533L344.449 158.842C344.829 158.526 345.077 158.077 345.142 157.586C345.207 157.096 345.085 156.598 344.801 156.193L343.561 154.403C343.408 154.184 343.301 153.937 343.245 153.675C343.189 153.414 343.187 153.144 343.237 152.882C343.561 151.346 344.449 148.161 346.506 147.245C349.325 146.075 352.749 147.78 355.905 148.569C359.062 149.359 362.486 146.512 362.486 146.512L363.895 151.191C367.02 148.258 369.24 144.493 370.293 140.34C371.871 133.646 355.736 130.898 350.565 130.898C345.393 130.898 337.192 133.717 334.824 141.129C332.457 148.541 336.712 164.268 338.108 165.592Z" fill="#263238" stroke="#263238" stroke-linecap="round" stroke-linejoin="round"/>
<path d="M350.874 140.383C350.874 140.383 353.805 144.779 349.958 145.695C346.111 146.611 338.614 143.314 335.316 144.596" stroke="white" stroke-width="0.5" stroke-linecap="round" stroke-linejoin="round"/>
<path d="M344.275 150.077C344.275 150.077 338.244 149.345 335.82 151.909" stroke="white" stroke-width="0.5" stroke-linecap="round" stroke-linejoin="round"/>
<path d="M358.793 172.3C358.793 172.3 354.355 174.611 352.156 171.863" stroke="white" stroke-width="0.5" stroke-linecap="round" stroke-linejoin="round"/>
<path d="M338.85 162.478C338.85 162.478 334.496 157.687 334.496 162.915C334.496 168.143 335.807 168.143 338.414 169.961C341.021 171.779 341.908 169.524 341.908 169.524" fill="#DFADAD"/>
<path d="M338.85 162.478C338.85 162.478 334.496 157.687 334.496 162.915C334.496 168.143 335.807 168.143 338.414 169.961C341.021 171.779 341.908 169.524 341.908 169.524" stroke="#263238" stroke-linecap="round" stroke-linejoin="round"/>
<path d="M396.997 487.307H397.194L396.814 485.39L377.79 287.965H319.464L300.285 487.293H300.497L312.869 488.349C312.869 488.349 326.594 442.269 326.594 438.831C326.594 435.393 330.512 403.602 330.512 403.602L349.973 335.186L367.179 403.602C367.179 403.602 371.096 435.463 371.096 438.831C371.096 442.199 384.836 488.378 384.836 488.378L396.475 487.377H396.997V487.307Z" fill="#263238" stroke="#263238" stroke-linecap="round" stroke-linejoin="round"/>
<path d="M373.436 299.576L360.457 318.107" stroke="white" stroke-width="0.5" stroke-linecap="round" stroke-linejoin="round"/>
<path d="M366.491 303.746L358.613 316.725" stroke="white" stroke-width="0.5" stroke-linecap="round" stroke-linejoin="round"/>
<path d="M329.422 302.832L340.991 315.331" stroke="white" stroke-width="0.5" stroke-linecap="round" stroke-linejoin="round"/>
<path d="M328.496 307.453L345.167 324.138" stroke="white" stroke-width="0.5" stroke-linecap="round" stroke-linejoin="round"/>
<path d="M322.93 289.852H374.365" stroke="white" stroke-width="0.5" stroke-linecap="round" stroke-linejoin="round"/>
<path d="M300.494 487.293C300.494 487.293 293.068 493.141 288.784 494.747C284.5 496.354 276.496 500.624 276.496 500.624C276.496 500.624 276.496 503.301 283.443 503.301H310.711L310.246 487.293H300.494Z" fill="#263238" stroke="#263238" stroke-linecap="round" stroke-linejoin="round"/>
<path d="M310.613 500.385C299.724 500.882 288.815 500.708 277.948 499.863L276.539 500.624C276.539 500.624 276.539 503.302 283.486 503.302H310.754L310.613 500.385Z" fill="white" stroke="#263238" stroke-linecap="round" stroke-linejoin="round"/>
<path d="M395.867 487.293C395.867 487.293 403.307 493.141 407.577 494.747C411.847 496.354 419.879 500.624 419.879 500.624C419.879 500.624 419.879 503.301 412.917 503.301H385.664L386.157 487.293H395.867Z" fill="#263238" stroke="#263238" stroke-linecap="round" stroke-linejoin="round"/>
<path d="M385.749 500.385C396.637 500.882 407.546 500.708 418.413 499.863L419.822 500.624C419.822 500.624 419.822 503.302 412.861 503.302H385.664L385.749 500.385Z" fill="white" stroke="#263238" stroke-linecap="round" stroke-linejoin="round"/>
<path d="M307.058 198.312L285.582 255.652H306.184L313.878 240.01L307.058 198.312Z" fill="white" stroke="#263238" stroke-linecap="round" stroke-linejoin="round"/>
<path d="M401.01 246.774C392.414 243.222 364.836 241.461 363.399 241.461C361.962 241.461 317.136 237.769 313.458 237.233C309.78 236.698 305.566 245.125 305.566 245.125L325.013 244.589L348.673 249.324C348.673 249.324 396.585 266.671 400.192 265.628C400.684 265.464 401.129 265.184 401.489 264.811" fill="white"/>
<path d="M401.01 246.774C392.414 243.222 364.836 241.461 363.399 241.461C361.962 241.461 317.136 237.769 313.458 237.233C309.78 236.698 305.566 245.125 305.566 245.125L325.013 244.589L348.673 249.324C348.673 249.324 396.585 266.671 400.192 265.628C400.684 265.464 401.129 265.184 401.489 264.811" stroke="#263238" stroke-linecap="round" stroke-linejoin="round"/>
<path d="M300.833 244.082L374.956 236.727L375.491 243.026L311.345 262.486C311.345 262.486 299.79 265.107 290.842 263.529C281.894 261.951 286.121 253.017 288.221 247.76" fill="white"/>
<path d="M300.833 244.082L374.956 236.727L375.491 243.026L311.345 262.486C311.345 262.486 299.79 265.107 290.842 263.529C281.894 261.951 286.121 253.017 288.221 247.76" stroke="#263238" stroke-linecap="round" stroke-linejoin="round"/>
<path d="M374.969 236.727L389.159 236.191L393.359 244.604L375.49 243.04L374.969 236.727Z" fill="#DFADAD" stroke="#263238" stroke-linecap="round" stroke-linejoin="round"/>
<path d="M469.48 360.369L481.585 504.485C481.617 504.7 481.693 504.906 481.807 505.091C481.921 505.275 482.072 505.434 482.25 505.558C482.429 505.682 482.63 505.769 482.843 505.812C483.056 505.855 483.275 505.855 483.488 505.81C483.85 505.72 484.168 505.503 484.383 505.197C484.598 504.892 484.695 504.519 484.657 504.147L476.414 360.411L469.48 360.369Z" fill="#263238" stroke="#263238" stroke-linecap="round" stroke-linejoin="round"/>
<path d="M550.832 360.369L562.979 504.964C563.009 505.18 563.083 505.387 563.197 505.573C563.311 505.758 563.462 505.919 563.641 506.043C563.819 506.167 564.022 506.253 564.235 506.296C564.449 506.338 564.669 506.336 564.882 506.289C565.244 506.199 565.562 505.982 565.777 505.676C565.992 505.371 566.089 504.998 566.051 504.626L557.779 360.369H550.832Z" fill="#263238" stroke="#263238" stroke-linecap="round" stroke-linejoin="round"/>
<path d="M215.111 360.369L208.784 503.231C208.749 503.606 208.849 503.981 209.066 504.288C209.283 504.596 209.603 504.816 209.968 504.908C210.177 504.962 210.396 504.97 210.608 504.932C210.821 504.894 211.023 504.811 211.201 504.688C211.379 504.565 211.528 504.405 211.639 504.219C211.749 504.034 211.819 503.827 211.842 503.612L222.087 360.369H215.111Z" fill="#263238" stroke="#263238" stroke-linecap="round" stroke-linejoin="round"/>
<path d="M140.129 360.371L133.759 502.697C133.728 503.074 133.831 503.449 134.051 503.756C134.27 504.063 134.591 504.282 134.957 504.374C135.166 504.426 135.384 504.432 135.596 504.393C135.808 504.354 136.009 504.271 136.186 504.148C136.363 504.025 136.513 503.867 136.624 503.682C136.735 503.498 136.806 503.292 136.831 503.078L147.034 360.314L140.129 360.371Z" fill="#263238" stroke="#263238" stroke-linecap="round" stroke-linejoin="round"/>
<path d="M566.677 352.381H135.625V364.753H566.677V352.381Z" fill="#5A3A97" stroke="#263238" stroke-linecap="round" stroke-linejoin="round"/>
<path d="M566.677 352.381H135.625V356.622H566.677V352.381Z" fill="#263238" stroke="#263238" stroke-linecap="round" stroke-linejoin="round"/>
<path d="M566.659 352.381H458.801V364.753H566.659V352.381Z" fill="#263238" stroke="#263238" stroke-linecap="round" stroke-linejoin="round"/>
<path d="M570.506 348.264H131.773V352.984H570.506V348.264Z" fill="#5A3A97" stroke="#263238" stroke-linecap="round" stroke-linejoin="round"/>
<path d="M570.493 348.264H463.297V352.984H570.493V348.264Z" fill="#263238" stroke="#263238" stroke-linecap="round" stroke-linejoin="round"/>
<path d="M229.504 347.842H288.379C288.604 347.843 288.824 347.779 289.012 347.656C289.2 347.533 289.347 347.357 289.436 347.151L305.74 309.977C305.815 309.803 305.846 309.613 305.829 309.424C305.812 309.235 305.748 309.053 305.643 308.895C305.538 308.737 305.395 308.607 305.228 308.518C305.06 308.429 304.873 308.383 304.683 308.385H245.808C245.588 308.385 245.372 308.449 245.187 308.569C245.002 308.689 244.855 308.86 244.765 309.061L228.518 346.235C228.442 346.405 228.408 346.59 228.42 346.776C228.432 346.961 228.489 347.141 228.587 347.299C228.684 347.457 228.818 347.589 228.978 347.684C229.138 347.779 229.318 347.833 229.504 347.842Z" fill="white" stroke="#263238" stroke-linecap="round" stroke-linejoin="round"/>
<path d="M235.024 344.938H285.261C285.449 344.938 285.633 344.883 285.79 344.781C285.948 344.678 286.072 344.532 286.149 344.36L300.057 312.64C300.133 312.49 300.168 312.324 300.16 312.156C300.152 311.989 300.101 311.826 300.011 311.685C299.922 311.543 299.798 311.426 299.65 311.347C299.503 311.267 299.337 311.227 299.169 311.231H248.932C248.74 311.229 248.552 311.285 248.392 311.39C248.231 311.495 248.106 311.646 248.03 311.823L234.15 343.571C234.085 343.718 234.057 343.879 234.069 344.039C234.081 344.199 234.133 344.354 234.219 344.49C234.306 344.625 234.425 344.737 234.565 344.815C234.706 344.893 234.863 344.936 235.024 344.938Z" fill="#5A3A97" stroke="#263238" stroke-linecap="round" stroke-linejoin="round"/>
<path d="M289.192 345.375H200.738V348.264H289.192V345.375Z" fill="white" stroke="#263238" stroke-linecap="round" stroke-linejoin="round"/>
<path d="M289.205 345.375H246.324V348.264H289.205V345.375Z" fill="white" stroke="#263238" stroke-linecap="round" stroke-linejoin="round"/>
<path d="M317.615 325.268H302.016V348.322H317.615V325.268Z" fill="white" stroke="#263238" stroke-linecap="round" stroke-linejoin="round"/>
<path d="M316.925 345.179H315.29C314.95 345.179 314.624 345.044 314.384 344.803C314.143 344.563 314.008 344.237 314.008 343.897C314.008 343.556 314.143 343.23 314.384 342.99C314.624 342.749 314.95 342.614 315.29 342.614H316.925C317.57 342.611 318.188 342.353 318.645 341.896C319.101 341.44 319.359 340.822 319.363 340.176V334.54C319.359 333.894 319.101 333.276 318.645 332.82C318.188 332.364 317.57 332.106 316.925 332.102H314.825C314.657 332.102 314.49 332.069 314.335 332.004C314.179 331.94 314.038 331.845 313.919 331.726C313.799 331.607 313.705 331.466 313.641 331.31C313.576 331.155 313.543 330.988 313.543 330.819C313.543 330.651 313.576 330.484 313.641 330.329C313.705 330.173 313.799 330.032 313.919 329.913C314.038 329.794 314.179 329.699 314.335 329.635C314.49 329.57 314.657 329.537 314.825 329.537H316.925C317.582 329.537 318.232 329.667 318.839 329.918C319.446 330.169 319.998 330.538 320.462 331.002C320.927 331.467 321.295 332.018 321.547 332.625C321.798 333.232 321.928 333.883 321.928 334.54V340.176C321.928 340.833 321.798 341.484 321.547 342.091C321.295 342.698 320.927 343.249 320.462 343.714C319.998 344.178 319.446 344.547 318.839 344.798C318.232 345.05 317.582 345.179 316.925 345.179Z" fill="white" stroke="#263238" stroke-linecap="round" stroke-linejoin="round"/>
<path d="M439.499 347.842H380.623C380.401 347.841 380.184 347.775 379.999 347.652C379.814 347.529 379.668 347.355 379.581 347.151L363.276 309.977C363.202 309.804 363.172 309.615 363.188 309.427C363.204 309.239 363.267 309.059 363.37 308.901C363.473 308.743 363.614 308.613 363.78 308.523C363.945 308.433 364.131 308.386 364.319 308.385H423.195C423.417 308.384 423.635 308.447 423.823 308.567C424.01 308.687 424.159 308.859 424.251 309.061L440.556 346.235C440.63 346.41 440.66 346.601 440.642 346.791C440.625 346.98 440.562 347.162 440.457 347.321C440.352 347.48 440.21 347.611 440.043 347.702C439.876 347.792 439.689 347.84 439.499 347.842Z" fill="white" stroke="#263238" stroke-linecap="round" stroke-linejoin="round"/>
<path d="M379.804 348.264H468.258V345.375H379.804V348.264Z" fill="white" stroke="#263238" stroke-linecap="round" stroke-linejoin="round"/>
<path d="M379.804 348.264H440.793V345.375H379.804V348.264Z" fill="white" stroke="#263238" stroke-linecap="round" stroke-linejoin="round"/>
<path d="M402.883 323.817C403.202 324.42 403.336 325.104 403.267 325.784C403.199 326.463 402.932 327.107 402.5 327.635C402.067 328.163 401.488 328.551 400.836 328.751C400.183 328.952 399.486 328.955 398.832 328.761C398.178 328.567 397.595 328.184 397.158 327.66C396.72 327.136 396.447 326.495 396.372 325.816C396.298 325.138 396.425 324.453 396.738 323.846C397.052 323.24 397.537 322.739 398.134 322.408C398.951 321.967 399.909 321.867 400.799 322.131C401.689 322.395 402.439 323.002 402.883 323.817Z" fill="white" stroke="#263238" stroke-linecap="round" stroke-linejoin="round"/>
<path d="M127.572 214.39L131.912 257.271L151.64 314.385L144.89 318.246L121.724 265.966L110.154 221.084C110.154 221.084 109.182 207.584 114.015 205.583C118.849 203.582 125.641 205.71 127.572 214.39Z" fill="#DFADAD" stroke="#263238" stroke-linecap="round" stroke-linejoin="round"/>
<path d="M151.695 314.441C151.695 314.441 156.036 323.615 156.529 326.025C157.022 328.435 157.515 333.352 155.613 335.551C153.316 338.2 151.216 336.157 151.216 336.157C151.216 336.157 145.424 334.748 145.424 329.886C145.424 325.024 144.945 318.303 144.945 318.303L151.695 314.441Z" fill="white" stroke="#263238" stroke-linecap="round" stroke-linejoin="round"/>
<path d="M146.965 328.828L155.096 330.942" stroke="#263238" stroke-linecap="round" stroke-linejoin="round"/>
<path d="M148.906 323.346L151.217 326.982C151.217 326.982 145.834 336.183 148.723 333.774C151.612 331.364 157.009 328.433 156.53 326.023C155.714 323.495 154.637 321.058 153.317 318.752" fill="white"/>
<path d="M148.906 323.346L151.217 326.982C151.217 326.982 145.834 336.183 148.723 333.774C151.612 331.364 157.009 328.433 156.53 326.023C155.714 323.495 154.637 321.058 153.317 318.752" stroke="#263238" stroke-linecap="round" stroke-linejoin="round"/>
<path d="M104.501 162.859C104.501 162.859 99.5407 157.505 88.0982 160.943C76.6557 164.381 74.0065 182.701 74.3588 191.846C74.7111 200.992 83.5184 211.307 80.8551 215.887C78.1917 220.466 68.2571 231.148 69.018 242.661C69.779 254.174 79.3191 263.263 93.0585 259.064C106.798 254.864 104.501 238.053 101.767 231.909C99.0334 225.765 104.825 223.13 106.728 209.771C108.63 196.412 96.4264 185.35 96.4264 175.81C96.4264 166.27 106.291 167.806 106.291 167.806L104.501 162.859Z" fill="#263238" stroke="#263238" stroke-linecap="round" stroke-linejoin="round"/>
<path d="M87.3077 199.07C89.1115 202.791 91.2112 206.764 93.2967 211.048C100.258 225.253 94.8186 230.382 84.2357 238.245C73.6528 246.109 76.0766 255.775 78.7963 257.269" stroke="white" stroke-width="0.5" stroke-linecap="round" stroke-linejoin="round"/>
<path d="M100.872 166.619C100.872 166.619 86.6676 167.831 83.0319 176.892C80.8336 182.402 82.5246 188.574 85.7657 195.761" stroke="white" stroke-width="0.5" stroke-linecap="round" stroke-linejoin="round"/>
<path d="M90.4844 253.736C91.5772 254.147 92.7426 254.329 93.9087 254.272" stroke="white" stroke-width="0.5" stroke-linecap="round" stroke-linejoin="round"/>
<path d="M104.508 165.676C104.508 165.676 91.2054 168.085 88.1898 177.752C85.1741 187.419 103 201.708 103.902 212.221C104.804 222.733 92.1073 228.877 87.5979 237.036C84.4273 242.758 84.7796 249.057 88.1193 252.227" stroke="white" stroke-width="0.5" stroke-linecap="round" stroke-linejoin="round"/>
<path d="M138.634 360.238C138.634 360.238 135.351 388.591 132.054 397.638C128.756 406.685 121.372 477.777 120.963 481.892C120.555 486.007 131.645 495.449 136.168 498.337C140.692 501.226 138.634 502.029 133.702 502.438C128.77 502.847 123.021 502.029 120.555 497.506C118.089 492.983 112.325 491.757 112.325 491.757L111.508 501.621H109.859L108.633 489.29C108.214 486.491 108.641 483.63 109.859 481.075C111.916 476.552 112.677 467.096 112.677 454.301C112.677 441.505 110.211 421.002 111.437 411.138C112.663 401.273 117.61 393.875 117.61 385.66C117.61 377.444 118.018 365.114 118.018 365.114L138.634 360.238Z" fill="#DFADAD" stroke="#263238" stroke-linecap="round" stroke-linejoin="round"/>
<path d="M108.632 489.292C108.305 487.171 108.483 485.003 109.153 482.965C111.704 487.277 119.018 493.125 124.654 495.45C127.711 496.773 131.042 497.334 134.363 497.085C135.026 497.578 135.646 498.001 136.167 498.339C140.691 501.157 138.633 502.031 133.701 502.44C128.769 502.848 123.02 502.031 120.554 497.508C118.088 492.984 112.324 491.758 112.324 491.758L111.507 501.622H109.858L108.632 489.292Z" fill="#263238" stroke="#263238" stroke-linecap="round" stroke-linejoin="round"/>
<path d="M114.792 364.764C114.792 364.764 107.746 385.719 101.236 403.798C94.7252 421.878 79.0411 463.392 77.3923 470.791C75.7436 478.189 74.9263 491.759 70.3465 498.749C65.7666 505.738 61.2996 509.021 62.1169 496.691C62.9342 484.361 70.3465 475.314 71.9811 465.858C73.6157 456.403 74.4472 422.301 80.1966 407.096C85.946 391.891 92.1182 379.561 92.8792 375.037C93.4411 370.536 93.7141 366.003 93.6965 361.467L114.792 364.764Z" fill="#DFADAD" stroke="#263238" stroke-linecap="round" stroke-linejoin="round"/>
<path d="M62.9636 491.406C63.0243 493.731 63.7479 495.99 65.0492 497.917C67.4166 500.566 71.2355 495.422 73.2224 492.28C72.5723 494.546 71.6246 496.717 70.4041 498.734C65.8806 505.709 61.3572 509.007 62.1745 496.677C62.3104 494.903 62.5741 493.142 62.9636 491.406Z" fill="#263238" stroke="#263238" stroke-linecap="round" stroke-linejoin="round"/>
<path d="M111.554 199.354C111.554 199.354 109.088 201.411 107.439 215.39C105.791 229.369 116.078 272.927 116.078 272.927C116.078 272.927 98.4066 301.871 94.2918 316.259C90.177 330.646 87.7109 384.547 87.7109 384.547C87.7109 384.547 96.3492 387.845 114.02 389.071C131.691 390.297 141.147 385.787 141.147 385.787C141.147 385.787 141.964 308.86 141.964 297.009C141.964 285.158 142.796 258.201 144.022 254.917C145.248 251.634 148.954 242.996 148.954 239.712C148.954 236.429 124.237 201.411 124.237 201.411L111.554 199.354Z" fill="white" stroke="#263238" stroke-linecap="round" stroke-linejoin="round"/>
<path d="M94.2488 316.26C97.4899 304.987 110.905 274.999 115.696 269.842C122.982 272.266 136.27 274.661 142.203 272.886C142.02 277.113 141.921 292.896 141.921 296.94C141.921 308.862 141.104 385.718 141.104 385.718C141.104 385.718 131.648 390.242 113.977 389.002C96.3062 387.762 87.668 384.478 87.668 384.478C87.668 384.478 90.134 330.648 94.2488 316.26Z" fill="#263238" stroke="#263238" stroke-linecap="round" stroke-linejoin="round"/>
<path d="M120.664 150.907C120.664 150.907 125.075 141.297 133.798 141.297C142.52 141.297 146.396 149.047 144.465 155.825C142.534 162.604 150.271 160.673 151.243 165.041C152.215 169.41 144.944 172.299 141.069 172.299C137.194 172.299 120.664 150.907 120.664 150.907Z" fill="#263238" stroke="#263238" stroke-linecap="round" stroke-linejoin="round"/>
<path d="M133.402 149.922C135.995 148.513 139.039 147.498 140.448 149.696C143.168 153.924 134.713 157.25 137.433 161.787C140.152 166.325 146.804 165.113 146.494 166.621C146.184 168.128 141.97 169.03 141.97 169.03" stroke="white" stroke-width="0.5" stroke-linecap="round" stroke-linejoin="round"/>
<path d="M128.969 152.993C128.969 152.993 129.8 152.274 131.04 151.4" stroke="white" stroke-width="0.5" stroke-linecap="round" stroke-linejoin="round"/>
<path d="M143.033 173.27C142.416 172.811 141.93 172.199 141.624 171.494C140.919 166.294 139.397 161.179 136.523 158.304C132.174 154.211 126.628 151.618 120.698 150.906C118.942 150.647 117.149 150.812 115.47 151.385C107.987 154.006 101.561 159.178 102.942 171.649C104.464 185.389 115.16 188.827 115.16 188.827L115.921 197.282L126.602 202.242L126.983 193.083C126.983 193.083 134.226 196.127 136.847 195.746C139.468 195.366 140.285 191.927 141.427 186.967C141.846 184.704 142.053 182.406 142.047 180.104L145.246 176.92C147.063 175.074 145.274 174.623 143.033 173.27Z" fill="#DFADAD" stroke="#263238" stroke-linecap="round" stroke-linejoin="round"/>
<path d="M102.913 171.649C101.504 159.178 107.958 154.006 115.441 151.385C117.121 150.812 118.913 150.647 120.669 150.906C124.712 151.447 128.604 152.798 132.111 154.88C129.97 154.443 133.619 160.742 130.265 164.744C127.329 168.46 123.584 171.457 119.316 173.509C119.316 173.509 115.511 170.451 114.356 174.651C113.2 178.85 113.595 181.894 116.653 182.669C119.711 183.444 120.88 182.669 120.88 182.669C120.88 182.669 118.851 187.474 115.244 189.461V188.771C115.244 188.771 104.506 185.403 102.913 171.649Z" fill="#263238" stroke="#263238" stroke-linecap="round" stroke-linejoin="round"/>
<path d="M132.056 199.764L130.012 210.868L108.227 199.355L110.284 189.082L132.056 199.764Z" fill="white" stroke="#263238" stroke-linecap="round" stroke-linejoin="round"/>
<path d="M121.531 293.391C123.787 293.873 126.077 294.184 128.38 294.321C130.17 294.208 132.607 292.193 134.411 293.053C136.215 293.912 138.737 299.338 138.737 299.338C138.737 299.338 141.133 300.549 140.442 301.832C139.752 303.114 136.793 304.298 136.793 304.298C136.793 304.298 133.974 306.961 132.34 307.229C130.705 307.497 120.742 300.183 120.742 300.183L121.531 293.391Z" fill="#DFADAD" stroke="#263238" stroke-linecap="round" stroke-linejoin="round"/>
<path d="M122.588 298.657C122.918 298.261 123.155 297.796 123.282 297.296C123.408 296.797 123.421 296.275 123.32 295.77C123.219 295.264 123.005 294.788 122.696 294.375C122.386 293.963 121.988 293.626 121.531 293.387L94.1511 267.74L123.969 221.378C125.3 218.927 125.623 216.054 124.87 213.368C124.117 210.683 122.347 208.396 119.937 206.994C117.526 205.591 114.663 205.183 111.957 205.856C109.25 206.529 106.912 208.23 105.439 210.598L79.5943 261.963C78.2506 263.267 77.4737 265.047 77.4315 266.919C77.3893 268.791 78.0852 270.604 79.3689 271.968L79.4675 272.066C82.0604 276.068 110.582 296.995 118.924 299.728C119.572 299.934 120.267 299.942 120.919 299.751C121.572 299.56 122.153 299.179 122.588 298.657Z" fill="white" stroke="#263238" stroke-linecap="round" stroke-linejoin="round"/>
<path d="M230.927 227.683C230.927 227.683 234.464 238.632 234.464 240.76C234.438 242.297 234.32 243.831 234.112 245.354L237.226 250.187C237.409 250.498 237.465 250.867 237.384 251.218C237.302 251.57 237.09 251.876 236.789 252.075L231.984 254.894C231.984 254.894 231.279 266.167 230.575 267.576C229.87 268.986 217.892 268.647 217.892 268.647L214.003 276.06L193.852 268.295L199.15 253.795L198.051 231.91C198.051 231.91 210.423 220.975 230.927 227.683Z" fill="#DFADAD" stroke="#263238" stroke-linecap="round" stroke-linejoin="round"/>
<path d="M217.126 254.317C217.126 254.317 213.618 257.615 210.982 257.84C208.347 258.066 199.779 256.079 199.117 255.205C198.455 254.331 192.536 242.029 192.748 236.097C192.959 230.164 193.199 221.385 199.554 218.538C205.909 215.692 216.027 216.551 221.298 213.268C226.568 209.985 234.91 207.335 239.307 213.042C243.703 218.75 240.406 226.655 236.897 229.953C233.388 233.25 228.992 234.18 229.429 235.589C229.865 236.998 232.501 238.661 230.965 240.86C229.429 243.058 223.919 245.087 223.919 245.904C223.919 246.722 225.243 249.864 223.707 250.301C222.171 250.738 220.621 247.229 219.085 247.229C217.549 247.229 214.28 251.471 217.126 254.317Z" fill="#263238" stroke="#263238" stroke-linecap="round" stroke-linejoin="round"/>
<path d="M207.954 244.242C207.321 244.95 206.781 245.736 206.348 246.581" stroke="white" stroke-width="0.5" stroke-linecap="round" stroke-linejoin="round"/>
<path d="M236.813 221.482C236.534 223.901 235.653 226.211 234.249 228.2C232.846 230.189 230.966 231.795 228.781 232.869C223.144 235.786 215.633 238.167 210.645 241.831" stroke="white" stroke-width="0.5" stroke-linecap="round" stroke-linejoin="round"/>
<path d="M229.429 235.66C229.429 235.66 224.427 239.888 219.072 244.242C215.418 247.07 211.355 249.327 207.023 250.936" stroke="white" stroke-width="0.5" stroke-linecap="round" stroke-linejoin="round"/>
<path d="M216.773 254.908L219.592 255.613C219.421 256.93 219.522 258.269 219.888 259.546C220.254 260.823 220.877 262.012 221.72 263.039" fill="white"/>
<path d="M216.773 254.908L219.592 255.613C219.421 256.93 219.522 258.269 219.888 259.546C220.254 260.823 220.877 262.012 221.72 263.039" stroke="#263238" stroke-linecap="round" stroke-linejoin="round"/>
<path d="M220.047 247.342L239.944 242.41" stroke="#263238" stroke-linecap="round" stroke-linejoin="round"/>
<path d="M234.824 242.016L239.362 242.213C239.362 242.213 240.926 247.342 236.205 247.934" stroke="#263238" stroke-linecap="round" stroke-linejoin="round"/>
<path d="M214.763 485.646C214.763 485.646 233.082 497.215 236.309 497.215C239.536 497.215 241.143 500.118 239.536 500.442C237.93 500.766 227.953 501.076 221.217 501.401C214.481 501.725 209.943 501.076 206.096 501.076C202.249 501.076 197.726 501.401 195.795 500.442C193.865 499.484 197.092 488.535 197.092 486.604C197.092 484.674 212.508 484.35 214.763 485.646Z" fill="#263238" stroke="#263238" stroke-linecap="round" stroke-linejoin="round"/>
<path d="M238.379 497.697C231.263 500.037 219.721 498.501 212.788 497.867C207.307 497.373 198.697 497.261 195.188 497.232C195.047 498.881 195.188 500.135 195.737 500.445C197.668 501.404 202.177 501.079 206.038 501.079C209.9 501.079 214.395 501.728 221.159 501.404C227.923 501.079 237.886 500.755 239.478 500.445C240.732 500.192 240.14 498.529 238.379 497.697Z" fill="white" stroke="#263238" stroke-linecap="round" stroke-linejoin="round"/>
<path d="M229.233 406.168L214.775 478.67L217.79 486.195C215.626 489.329 212.361 491.533 208.645 492.367C204.512 493.18 200.314 493.613 196.103 493.664C196.103 493.664 194.497 485.617 195.469 484.645C196.441 483.673 196.751 479.825 196.751 479.825L205.108 406.802L229.233 406.168Z" fill="#5A3A97" stroke="#263238" stroke-linecap="round" stroke-linejoin="round"/>
<path d="M273.297 483.195C273.297 483.195 284.57 492.524 289.714 494.13C294.857 495.737 300.325 497.343 300.325 498.95C300.325 500.556 288.107 502.163 278.779 501.205C269.45 500.246 255.288 496.061 252.075 496.061C248.862 496.061 249.496 487.691 249.496 486.408C249.496 485.126 265.265 474.825 273.297 483.195Z" fill="#263238" stroke="#263238" stroke-linecap="round" stroke-linejoin="round"/>
<path d="M300.382 498.949C300.382 498.371 299.663 497.793 298.521 497.215C289.313 498.447 279.978 498.381 270.789 497.018C261.531 495.694 253.78 493.918 249.82 492.932C250.159 494.665 250.821 496.06 252.131 496.06C255.344 496.06 269.506 500.288 278.835 501.203C288.164 502.119 300.382 500.555 300.382 498.949Z" fill="white" stroke="#263238" stroke-linecap="round" stroke-linejoin="round"/>
<path d="M217.34 373.674C226.986 372.936 236.682 373.153 246.285 374.322C262.688 376.253 299.34 378.55 299.974 382.693C300.609 386.836 271.537 473.909 271.537 476.149C271.537 478.39 274.102 480.659 274.75 481.941C275.159 482.855 275.38 483.843 275.398 484.844C275.398 484.844 267.521 493.299 261.405 495.596C255.29 497.893 250.132 495.737 248.864 495.737C247.595 495.737 247.581 487.056 248.554 482.871C249.526 478.686 251.118 468.075 251.443 467.117C251.767 466.158 269.381 404.239 269.381 404.239C269.381 404.239 221.469 411.962 192.849 408.735C164.229 405.507 161.326 401.026 159.719 394.262C158.113 387.498 161.326 373.998 161.326 373.998L217.34 373.674Z" fill="#5A3A97" stroke="#263238" stroke-linecap="round" stroke-linejoin="round"/>
<path d="M213.717 394.516C213.067 395.456 212.341 396.342 211.547 397.165" stroke="#263238" stroke-linecap="round" stroke-linejoin="round"/>
<path d="M222.481 377.211C220.632 381.842 218.5 386.355 216.098 390.725" stroke="#263238" stroke-linecap="round" stroke-linejoin="round"/>
<path d="M218.649 380.438C214.767 386.84 208.891 391.791 201.922 394.529" stroke="#263238" stroke-linecap="round" stroke-linejoin="round"/>
<path d="M291.676 398.193C292.775 397.771 293.832 397.334 294.832 396.883L291.676 398.193Z" fill="white"/>
<path d="M291.676 398.193C292.775 397.771 293.832 397.334 294.832 396.883" stroke="#263238" stroke-linecap="round" stroke-linejoin="round"/>
<path d="M269.379 404.24C275.569 403.044 281.685 401.496 287.698 399.604L269.379 404.24Z" fill="white"/>
<path d="M269.379 404.24C275.569 403.044 281.685 401.496 287.698 399.604" stroke="#263238" stroke-linecap="round" stroke-linejoin="round"/>
<path d="M306.565 297.41C307.241 294.718 308.369 294.93 307.467 294.042C306.227 292.802 305.226 294.267 301.633 296.283C298.04 298.298 294.46 300.764 294.46 300.764C294.539 300.016 294.849 299.311 295.348 298.749C296.257 297.263 296.744 295.558 296.757 293.816C296.757 292.407 295.63 292.689 295.179 294.042C294.728 295.395 290.698 297.847 290.472 298.974C290.247 300.101 289.444 304.526 289.444 304.526C288.161 306.457 288.161 315.461 288.161 315.461L262.049 335.077L248.859 350.578C248.859 350.578 254.651 359.907 257.864 358.624C261.077 357.342 262.683 356.046 270.406 349.606C276.944 344.152 293.333 318.998 293.333 318.998C296.188 317.206 298.888 315.179 301.407 312.939C304.314 309.651 306.031 305.483 306.283 301.102C306.223 299.864 306.317 298.624 306.565 297.41Z" fill="#DFADAD" stroke="#263238" stroke-linecap="round" stroke-linejoin="round"/>
<path d="M185.749 267.649C185.749 267.649 188.229 258.349 198.77 260.209C209.31 262.069 217.371 270.749 219.231 273.85C221.091 276.95 185.129 272.61 185.129 272.61L185.749 267.649Z" fill="white" stroke="#263238" stroke-linecap="round" stroke-linejoin="round"/>
<path d="M246.512 348.874C246.512 348.874 244.06 351.524 246.512 355.695C248.189 358.584 251.148 360.796 256.813 359.824C262.111 358.894 270.073 345.732 270.073 336.474C270.073 327.215 263.253 326.609 260.772 328.413C258.292 330.217 246.512 348.874 246.512 348.874Z" fill="white" stroke="#263238" stroke-linecap="round" stroke-linejoin="round"/>
<path d="M190.31 266.563C190.31 266.563 165.227 278.471 161.69 280.655C158.153 282.839 155.898 310.882 155.898 315.715C155.898 320.549 159.435 367.855 160.394 375.859C161.352 383.863 192.241 389.373 202.542 386.47C212.843 383.567 222.876 376.253 222.876 373.675C222.876 371.096 221.904 349.24 222.552 345.054C223.201 340.869 228.978 323.184 228.978 323.184L246.537 351.198C246.537 351.198 248.383 354.637 254.907 351.931C264.236 348.07 265.011 333.147 265.011 333.147C265.011 333.147 254.724 315.138 251.821 306.133C248.918 297.128 247.593 290.364 246.353 288.758C245.113 287.151 216.112 273.637 210.969 270.1C208.057 267.907 204.662 266.441 201.069 265.826C197.475 265.211 193.787 265.464 190.31 266.563Z" fill="white" stroke="#263238" stroke-linecap="round" stroke-linejoin="round"/>
<path d="M228.911 323.181L220.555 310.949" stroke="#263238" stroke-linecap="round" stroke-linejoin="round"/>
<path d="M227.558 321.435L212.832 314.178" stroke="#263238" stroke-linecap="round" stroke-linejoin="round"/>
<path d="M183.91 413.693L196.762 505.036C196.791 505.248 196.865 505.451 196.977 505.633C197.09 505.814 197.239 505.97 197.416 506.091C197.592 506.212 197.792 506.294 198.002 506.334C198.212 506.373 198.428 506.368 198.636 506.318C198.997 506.229 199.315 506.014 199.532 505.712C199.749 505.41 199.851 505.04 199.82 504.67L190.759 412.186L183.91 413.693Z" fill="#263238" stroke="#263238" stroke-linecap="round" stroke-linejoin="round"/>
<path d="M146.993 414.414L125.518 504.122C125.469 504.33 125.463 504.546 125.503 504.756C125.542 504.966 125.624 505.166 125.745 505.342C125.866 505.519 126.022 505.668 126.203 505.781C126.385 505.893 126.588 505.967 126.8 505.996C127.167 506.051 127.542 505.969 127.854 505.767C128.165 505.565 128.392 505.255 128.491 504.897L153.433 417.838L146.993 414.414Z" fill="#263238" stroke="#263238" stroke-linecap="round" stroke-linejoin="round"/>
<path d="M185.995 413.299L172.326 504.515C172.294 504.725 172.306 504.939 172.361 505.145C172.416 505.35 172.512 505.542 172.645 505.709C172.777 505.875 172.942 506.013 173.129 506.113C173.317 506.213 173.523 506.273 173.735 506.29C174.105 506.311 174.471 506.196 174.763 505.968C175.056 505.74 175.256 505.414 175.327 505.05L192.674 416.159L185.995 413.299Z" fill="#263238" stroke="#263238" stroke-linecap="round" stroke-linejoin="round"/>
<path d="M234.387 413.694L247.238 505.037C247.268 505.249 247.341 505.452 247.454 505.633C247.567 505.815 247.716 505.971 247.892 506.092C248.069 506.213 248.268 506.295 248.478 506.334C248.689 506.373 248.905 506.368 249.113 506.319C249.474 506.23 249.791 506.015 250.008 505.713C250.225 505.411 250.327 505.041 250.296 504.67L241.193 412.158L234.387 413.694Z" fill="#263238" stroke="#263238" stroke-linecap="round" stroke-linejoin="round"/>
<path d="M126.658 318.899L142.3 420.599H253.54C253.54 420.599 255.189 391.288 250.285 380.931C245.381 370.573 184.829 392.782 182.645 392.204C181.024 391.796 183.42 339.29 186.393 318.772C186.601 317.328 186.496 315.856 186.086 314.456C185.675 313.055 184.967 311.76 184.012 310.657C183.056 309.555 181.874 308.67 180.547 308.065C179.219 307.459 177.777 307.146 176.318 307.146H136.72C135.249 307.145 133.796 307.462 132.46 308.076C131.124 308.691 129.937 309.587 128.981 310.704C128.024 311.821 127.322 313.132 126.921 314.547C126.52 315.962 126.43 317.446 126.658 318.899Z" fill="#5A3A97" stroke="#263238" stroke-linecap="round" stroke-linejoin="round"/>
<path d="M250.285 380.932C245.381 370.575 184.829 392.783 182.644 392.206C181.024 391.797 183.419 339.291 186.393 318.773C186.653 317.348 186.595 315.882 186.224 314.481C185.853 313.08 185.178 311.777 184.247 310.667C183.316 309.556 182.151 308.664 180.836 308.055C179.521 307.446 178.088 307.133 176.638 307.141C175.189 307.148 173.759 307.475 172.45 308.098C171.141 308.72 169.986 309.624 169.066 310.744C168.146 311.864 167.484 313.173 167.127 314.578C166.771 315.983 166.728 317.449 167.003 318.872L182.644 420.572H253.54C253.54 420.572 255.189 391.29 250.285 380.932Z" fill="#263238" stroke="#263238" stroke-linecap="round" stroke-linejoin="round"/>
<path d="M306.567 297.41C306.567 297.41 304.777 299.2 302.086 302.342L306.567 297.41Z" fill="white"/>
<path d="M306.567 297.41C306.567 297.41 304.777 299.2 302.086 302.342" stroke="#263238" stroke-linecap="round" stroke-linejoin="round"/>
<path d="M306.289 301.045C306.289 301.045 304.104 305.484 302.766 307.499L306.289 301.045Z" fill="white"/>
<path d="M306.289 301.045C306.289 301.045 304.104 305.484 302.766 307.499" stroke="#263238" stroke-linecap="round" stroke-linejoin="round"/>
<path d="M4.96164 352.449C7.30087 353.464 13.008 353.337 13.0221 353.337C13.0362 353.337 11.7961 349.603 11.6834 349.377C10.4292 346.742 6.45536 342.416 3.22835 342.853C2.69415 342.94 2.18433 343.139 1.73221 343.436C1.28008 343.734 0.895828 344.123 0.604559 344.58C0.313289 345.036 0.12156 345.548 0.0418977 346.084C-0.0377644 346.619 -0.0035665 347.165 0.14226 347.686C0.677746 349.913 2.96061 351.576 4.96164 352.449Z" fill="#263238"/>
<path d="M79.8611 332.99C76.62 332.638 72.8152 337.077 71.5892 339.74C71.4906 339.966 70.3069 343.742 70.3632 343.742C69.7432 344.433 69.095 345.151 68.4045 346.025C67.1362 347.575 65.7271 349.351 64.3038 351.38C62.7708 353.555 61.3595 355.813 60.0763 358.144C58.6299 360.758 57.4134 363.493 56.4406 366.317C56.4467 366.35 56.4467 366.383 56.4406 366.416C56.4406 365.472 56.4406 362.794 56.4406 362.597C56.0601 359.708 53.6222 354.353 50.4375 353.761C49.9069 353.676 49.3643 353.702 48.8446 353.839C48.3249 353.976 47.8397 354.22 47.4201 354.556C47.0006 354.892 46.6561 355.312 46.4088 355.789C46.1616 356.266 46.017 356.79 45.9845 357.327C45.7872 359.624 47.3937 361.92 49.0706 363.358C50.9025 364.992 55.9756 366.571 56.3842 366.698C55.4628 369.627 54.7471 372.617 54.2423 375.646C53.9182 377.393 53.6645 379.155 53.425 380.93C53.425 380.099 53.425 379.366 53.425 379.267C53.0586 376.379 50.6066 371.024 47.436 370.432C46.9012 370.348 46.3549 370.378 45.8324 370.519C45.3099 370.66 44.8229 370.91 44.403 371.251C43.9832 371.593 43.6398 372.019 43.3951 372.501C43.1505 372.984 43.01 373.513 42.983 374.053C42.7998 376.35 44.3921 378.647 46.0832 380.099C47.7742 381.55 52.0158 383.002 53.129 383.354C53.0445 384.045 52.9458 384.763 52.8613 385.397C52.4808 388.667 52.1003 391.936 51.6353 395.121C51.4662 396.248 51.2689 397.347 51.0716 398.446C51.0716 397.713 51.0716 397.108 51.0716 397.037C50.6912 394.148 48.2533 388.793 45.0685 388.202C44.5338 388.12 43.9878 388.152 43.4661 388.295C42.9443 388.438 42.4585 388.689 42.04 389.032C41.6214 389.374 41.2796 389.801 41.0367 390.285C40.7937 390.768 40.6551 391.297 40.6296 391.837C40.4465 394.12 42.0388 396.417 43.7298 397.868C45.8339 399.259 48.1389 400.319 50.5643 401.011C50.3248 402.138 50.0852 403.252 49.8034 404.337C49.592 405.069 49.4511 405.746 49.1974 406.507C48.9438 407.268 48.7324 407.916 48.5069 408.649C48.0137 409.987 47.5205 411.382 47.0132 412.679C46.6609 413.595 46.3086 414.454 45.9704 415.314C46.1395 414.201 46.4355 412.003 46.4495 411.819C46.4098 409.259 45.7161 406.751 44.4344 404.534C44.4694 404.253 44.4694 403.969 44.4344 403.688C44.3705 403.146 44.1919 402.623 43.9103 402.155C43.6288 401.687 43.2509 401.285 42.8016 400.974C42.3524 400.663 41.8421 400.452 41.3048 400.354C40.7676 400.256 40.2155 400.273 39.6855 400.405C36.5289 401.236 34.542 406.76 34.387 409.663C34.387 409.832 34.4997 411.707 34.5843 412.89C34.4293 412.2 34.2743 411.481 34.1052 410.833C33.7811 409.424 33.4006 408.015 33.0201 406.605C32.7946 405.887 32.5833 405.196 32.3578 404.449C32.1323 403.702 31.8505 403.04 31.5968 402.251C30.9768 400.546 30.2722 398.855 29.5113 397.164C30.7232 396.868 35.0352 395.755 36.7685 394.444C38.5018 393.134 40.3196 390.949 40.3055 388.653C40.3223 388.105 40.2221 387.561 40.0116 387.056C39.8012 386.55 39.4853 386.096 39.0852 385.722C38.6851 385.349 38.2098 385.065 37.6912 384.89C37.1727 384.715 36.6227 384.652 36.078 384.707C32.8369 385.059 30.0186 390.217 29.4408 393.063C29.4408 393.246 29.2012 395.332 29.1167 396.488C28.6658 395.473 28.2007 394.458 27.7075 393.444C26.2983 390.541 24.6919 387.624 23.1559 384.721L21.7467 382.043C22.1836 381.945 27.3834 380.761 29.2717 379.225C31.16 377.689 32.8228 375.744 32.8087 373.433C32.8232 372.887 32.7214 372.344 32.5102 371.839C32.299 371.335 31.9831 370.882 31.5835 370.509C31.1838 370.136 30.7095 369.852 30.192 369.676C29.6744 369.5 29.1254 369.436 28.5812 369.488C25.3401 369.84 22.5359 374.998 21.944 377.844C21.944 378.07 21.6199 381.071 21.5917 381.846C20.5771 379.887 19.5766 377.915 18.6747 375.942C17.4366 373.275 16.3728 370.531 15.49 367.726C15.6873 367.726 21.1267 366.458 23.0713 364.908C24.7905 363.583 26.6225 361.413 26.5943 359.116C26.611 358.569 26.5108 358.025 26.3004 357.519C26.0899 357.014 25.7741 356.56 25.3739 356.186C24.9738 355.813 24.4986 355.529 23.98 355.354C23.4614 355.179 22.9114 355.116 22.3667 355.171C19.1256 355.523 16.3214 360.68 15.7295 363.527C15.7295 363.752 15.3913 366.994 15.3772 367.585C15.3772 367.416 15.2645 367.261 15.2081 367.092C14.4073 364.257 13.8556 361.357 13.5594 358.426C13.3903 356.805 13.3058 355.255 13.2494 353.733C14.2781 353.606 18.8861 352.986 20.9012 351.817C22.9163 350.647 24.8187 348.731 25.1287 346.448C25.2021 345.912 25.1619 345.366 25.0107 344.846C24.8596 344.327 24.6009 343.845 24.2515 343.431C23.902 343.018 23.4696 342.683 22.9822 342.448C22.4949 342.212 21.9635 342.082 21.4226 342.065C18.1533 342.065 14.7995 346.885 13.8976 349.647C13.8976 349.802 13.5312 351.38 13.3058 352.535C13.3058 351.859 13.3058 351.126 13.3058 350.492C13.3058 348.026 13.4608 345.771 13.6158 343.784C13.7144 342.643 13.8272 341.614 13.9399 340.656C14.884 340.008 18.6465 337.359 19.8021 335.456C20.9576 333.554 21.8594 330.919 21.0139 328.777C20.8324 328.268 20.5458 327.803 20.1728 327.413C19.7997 327.022 19.3486 326.714 18.8488 326.51C18.349 326.305 17.8117 326.208 17.2718 326.224C16.7319 326.241 16.2017 326.371 15.7154 326.607C12.8125 328.1 12.0516 333.92 12.5307 336.795C12.5307 337.034 13.6721 340.839 13.7144 340.811C13.5876 341.727 13.4608 342.713 13.348 343.798C13.1508 345.8 12.9535 348.026 12.883 350.534C12.7981 353.195 12.8639 355.857 13.0803 358.51C13.2879 361.487 13.7594 364.439 14.4895 367.332C14.4956 367.364 14.4956 367.398 14.4895 367.43C13.9822 366.627 12.4743 364.429 12.3334 364.274C10.431 362.075 5.45666 358.933 2.46921 360.215C1.97664 360.439 1.5367 360.763 1.1781 361.168C0.819507 361.573 0.550312 362.049 0.388082 362.565C0.225852 363.081 0.174234 363.625 0.236598 364.163C0.298963 364.7 0.473907 365.218 0.750014 365.683C1.86326 367.698 4.51251 368.699 6.66855 369.009C9.09233 369.361 14.1935 367.881 14.6022 367.769C15.4404 370.69 16.4713 373.552 17.6883 376.336C18.3929 377.957 19.0975 379.577 19.9289 381.184C19.4639 380.493 19.0411 379.887 18.9847 379.775C17.0823 377.576 12.108 374.434 9.12051 375.716C8.63626 375.963 8.20977 376.31 7.86917 376.733C7.52856 377.157 7.28155 377.647 7.14441 378.173C7.00728 378.699 6.98313 379.248 7.07356 379.784C7.164 380.32 7.36695 380.831 7.66906 381.283C8.76822 383.298 11.4316 384.298 13.5735 384.608C15.7154 384.918 20.1262 383.763 21.2817 383.424C21.5917 384.044 21.8876 384.665 22.1976 385.27C23.6068 388.216 25.171 391.147 26.5379 394.064C27.017 395.092 27.4539 396.121 27.9471 397.15L27.1157 395.966C25.2133 393.768 20.2389 390.639 17.2514 391.908C16.7596 392.134 16.3209 392.461 15.9637 392.868C15.6064 393.275 15.3387 393.752 15.178 394.269C15.0172 394.786 14.9669 395.331 15.0303 395.868C15.0938 396.406 15.2696 396.924 15.5463 397.389C16.6596 399.405 19.3088 400.405 21.4508 400.715C23.9973 400.725 26.5304 400.345 28.9617 399.588C29.3844 400.659 29.8072 401.73 30.1595 402.772C30.399 403.505 30.6668 404.182 30.85 404.928C31.0332 405.675 31.2586 406.338 31.4559 407.099C31.7941 408.508 32.1464 409.917 32.4423 411.326C32.6537 412.27 32.8369 413.186 33.0201 414.144C32.541 413.116 31.6109 411.115 31.4841 410.96C29.934 408.494 25.4951 404.647 22.3386 405.45C21.8191 405.6 21.337 405.857 20.9233 406.205C20.5097 406.553 20.1738 406.985 19.9373 407.471C19.7009 407.957 19.5692 408.487 19.5507 409.028C19.5323 409.568 19.6275 410.106 19.8302 410.607C20.6194 412.763 23.0854 414.159 25.1569 414.835C27.4539 415.525 32.5128 414.835 33.1469 414.835C33.457 416.343 33.7247 417.822 33.9783 419.218C34.8239 424.051 35.3875 428.123 35.6834 430.956C35.6834 431.463 35.7962 431.914 35.8385 432.365H25.9742L29.5535 502.218H46.2663L49.8456 432.365H40.7001L40.9115 431.956C42.1657 429.335 43.8989 425.587 45.7731 420.993C46.3791 419.584 46.985 417.992 47.591 416.385C48.211 416.512 53.2277 417.526 55.5528 416.991C57.6807 416.512 60.2454 415.314 61.1895 413.229C61.4305 412.744 61.5664 412.213 61.5883 411.672C61.6103 411.132 61.5178 410.592 61.317 410.089C61.1162 409.586 60.8115 409.132 60.4228 408.755C60.0342 408.378 59.5703 408.087 59.0616 407.902C55.9756 406.859 51.2689 410.368 49.5356 412.707C49.437 412.848 48.4928 414.469 47.9151 415.525L48.6619 413.553C49.1552 412.214 49.6061 410.847 50.0711 409.396L50.7052 407.24C50.9448 406.521 51.0998 405.746 51.2971 404.985C51.7058 403.223 52.044 401.42 52.354 399.588C53.5236 400.01 57.737 401.476 59.9072 401.321C62.0773 401.166 64.797 400.377 66.0512 398.503C66.3691 398.058 66.5889 397.55 66.696 397.014C66.8031 396.478 66.7951 395.925 66.6726 395.392C66.55 394.859 66.3157 394.359 65.985 393.923C65.6544 393.488 65.2351 393.127 64.7547 392.866C61.9364 391.457 56.666 394.134 54.6087 396.178C54.4818 396.318 53.1995 397.953 52.4667 398.869C52.6358 397.77 52.8049 396.671 52.9458 395.543C53.3545 392.316 53.6504 389.033 53.9745 385.764C54.0732 384.763 54.1859 383.763 54.2845 382.762C54.7073 382.917 59.6676 384.763 62.1055 384.594C64.2615 384.439 66.9812 383.65 68.2354 381.776C68.5533 381.331 68.7731 380.824 68.8802 380.287C68.9874 379.751 68.9794 379.198 68.8568 378.665C68.7342 378.132 68.4999 377.632 68.1693 377.196C67.8386 376.761 67.4193 376.4 66.9389 376.139C64.1206 374.659 58.8644 377.407 56.7929 379.451C56.6379 379.606 54.7496 381.973 54.2986 382.593C54.5382 380.395 54.7919 378.211 55.1301 376.055C55.5639 373.151 56.1901 370.279 57.0043 367.459C57.2015 367.459 62.3591 369.474 64.8675 369.305C67.0235 369.15 69.7432 368.346 70.9974 366.486C71.3175 366.042 71.5392 365.535 71.6476 364.998C71.756 364.461 71.7486 363.908 71.6258 363.374C71.5031 362.841 71.2679 362.339 70.936 361.904C70.604 361.469 70.183 361.109 69.7009 360.85C66.8826 359.356 61.6263 362.104 59.5549 364.161C59.3998 364.316 57.3706 366.867 57.0324 367.346L57.1593 366.853C58.054 364.042 59.1951 361.317 60.5695 358.708C61.3163 357.298 62.1055 355.889 62.8946 354.621C63.8247 355.086 68.0804 357.157 70.335 357.242C72.5897 357.327 75.2953 356.833 76.7609 355.058C77.1092 354.653 77.3693 354.18 77.5249 353.669C77.6804 353.158 77.7278 352.621 77.6642 352.09C77.6006 351.56 77.4273 351.049 77.1553 350.59C76.8833 350.13 76.5186 349.732 76.0845 349.421C73.3648 347.617 67.9113 349.773 65.6425 351.591C65.5157 351.69 64.3601 352.831 63.5428 353.677C63.9092 353.099 64.2756 352.493 64.642 351.958C66.0512 349.9 67.3758 348.111 68.6159 346.518C69.3204 345.63 70.025 344.841 70.6028 344.109C71.7442 344.109 76.3522 343.939 78.3673 342.995C80.3825 342.051 82.5949 340.346 83.0599 338.105C83.2548 337.559 83.3234 336.975 83.2608 336.398C83.1981 335.821 83.0057 335.266 82.698 334.774C82.3903 334.282 81.9753 333.866 81.484 333.557C80.9927 333.248 80.4379 333.054 79.8611 332.99ZM43.9976 420.007C42.0388 424.516 40.2351 428.194 38.9527 430.745L38.2341 432.154H38.0227C38.0227 431.661 37.8818 431.111 37.7972 430.505C37.4026 427.687 36.7826 423.544 35.8103 418.682C35.5143 417.146 35.1621 415.511 34.7816 413.834C36.3046 413.22 37.7914 412.519 39.2346 411.735C41.195 413.436 43.3811 414.859 45.7309 415.962C45.1531 417.329 44.5612 418.71 43.9976 420.007Z" fill="#263238"/>
<path d="M62.797 353.703C62.797 353.703 63.8398 349.913 63.868 349.659C64.2766 346.77 63.3607 340.979 60.4155 339.555C59.9261 339.336 59.3965 339.222 58.8604 339.219C58.3243 339.216 57.7934 339.324 57.3016 339.538C56.8098 339.751 56.3678 340.065 56.0038 340.458C55.6398 340.852 55.3618 341.317 55.1874 341.824C54.3983 343.98 55.3988 346.629 56.5966 348.461C58.0058 350.66 62.797 353.703 62.797 353.703Z" fill="#263238"/>
<path d="M593.389 501.877H20.207V508.895H593.389V501.877Z" fill="#263238"/>
</g>
<defs>
<clipPath id="clip0_3406_27721">
<rect width="600" height="600" fill="white"/>
</clipPath>
</defs>
</svg>
