<svg width="600" height="600" viewBox="0 0 600 600" fill="none" xmlns="http://www.w3.org/2000/svg">
<path d="M541.406 293.137C561.374 165.433 454.802 36.7209 314.954 20.7249C313.214 20.5329 311.462 20.3409 309.722 20.1729C211.982 10.4649 122.642 85.1169 97.0939 142.069C71.5459 199.021 4.69392 253.201 29.4739 358.729C54.2539 464.257 121.574 520.513 279.41 537.157C437.246 553.801 466.358 508.657 508.25 410.053C523.973 372.559 535.106 333.303 541.406 293.137Z" fill="#462683"/>
<path d="M541.406 293.137C561.374 165.433 454.802 36.7209 314.954 20.7249C313.214 20.5329 311.462 20.3409 309.722 20.1729C211.982 10.4649 122.642 85.1169 97.0939 142.069C71.5459 199.021 4.69392 253.201 29.4739 358.729C54.2539 464.257 121.574 520.513 279.41 537.157C437.246 553.801 466.358 508.657 508.25 410.053C523.973 372.559 535.106 333.303 541.406 293.137Z" fill="#FAB748"/>
<path d="M417.096 339.265C416.981 339.261 416.87 339.228 416.772 339.169C317.172 276.877 229.32 273.169 173.172 281.101C112.272 289.645 74.4237 313.225 74.0517 313.501C73.9853 313.544 73.9107 313.574 73.8325 313.588C73.7543 313.602 73.6741 313.599 73.5967 313.581C73.5193 313.564 73.4464 313.53 73.3823 313.483C73.3182 313.436 73.2643 313.377 73.2237 313.309C73.138 313.175 73.1089 313.013 73.1426 312.857C73.1763 312.702 73.2703 312.567 73.4037 312.481C73.7877 312.253 111.804 288.481 173.004 279.949C209.327 274.92 246.235 275.994 282.204 283.129C327.888 292.069 373.404 310.597 417.516 338.185C417.584 338.225 417.643 338.279 417.69 338.343C417.737 338.407 417.771 338.48 417.789 338.557C417.807 338.635 417.809 338.715 417.795 338.793C417.781 338.872 417.751 338.946 417.708 339.013C417.642 339.11 417.548 339.186 417.44 339.231C417.331 339.275 417.211 339.287 417.096 339.265Z" fill="#263238"/>
<path d="M253.764 323.737C243.456 315.265 274.164 282.625 274.164 282.625C260.724 280.225 262.548 280.705 262.548 280.705C262.548 280.705 227.604 314.401 227.244 333.601C226.884 352.801 280.512 370.681 280.512 370.681L300.636 361.849L318.216 355.333C318.216 355.333 264.084 332.209 253.764 323.737Z" fill="white"/>
<path d="M280.51 371.257H280.318C278.11 370.525 226.318 352.969 226.642 333.601C226.99 315.049 258.478 283.837 261.862 280.549C261.922 280.297 261.982 280.141 262.666 280.165C263.866 280.165 266.746 280.741 274.222 282.073C274.327 282.095 274.424 282.145 274.503 282.217C274.583 282.289 274.642 282.381 274.674 282.483C274.707 282.585 274.713 282.694 274.69 282.799C274.668 282.904 274.618 283.001 274.546 283.081C274.318 283.321 251.494 307.741 252.238 319.345C252.252 320.101 252.427 320.845 252.752 321.528C253.077 322.211 253.544 322.817 254.122 323.305C264.25 331.633 317.878 354.505 318.418 354.793C318.53 354.838 318.625 354.917 318.691 355.017C318.757 355.118 318.792 355.236 318.79 355.357C318.783 355.477 318.742 355.592 318.672 355.69C318.602 355.788 318.506 355.863 318.394 355.909L300.85 362.401L280.798 371.209C280.708 371.251 280.609 371.267 280.51 371.257ZM262.774 281.257C260.182 283.801 228.19 315.529 227.842 333.553C227.494 351.577 276.766 368.701 280.486 369.973L300.394 361.237L316.594 355.237C307.894 351.505 262.846 331.945 253.39 324.181C252.685 323.591 252.113 322.858 251.714 322.031C251.314 321.203 251.096 320.299 251.074 319.381C250.354 308.353 268.894 287.461 272.95 283.033C265.762 281.749 263.494 281.389 262.798 281.293L262.774 281.257Z" fill="#263238"/>
<path d="M225.18 407.557C225.099 407.558 225.019 407.543 224.945 407.512C224.871 407.481 224.804 407.435 224.748 407.377C224.692 407.321 224.647 407.255 224.616 407.182C224.586 407.109 224.57 407.03 224.57 406.951C224.57 406.872 224.586 406.793 224.616 406.72C224.647 406.647 224.692 406.581 224.748 406.525C225.072 406.225 257.76 375.577 316.056 355.249C350.702 343.245 387.113 337.12 423.78 337.129H424.656C470.94 337.129 518.904 346.441 567.228 364.813C567.377 364.869 567.499 364.981 567.565 365.127C567.631 365.272 567.637 365.437 567.582 365.587C567.526 365.736 567.413 365.858 567.268 365.924C567.123 365.991 566.957 365.997 566.808 365.941C457.02 324.205 370.104 337.705 316.512 356.341C258.432 376.573 225.9 407.065 225.576 407.377C225.472 407.486 225.33 407.551 225.18 407.557Z" fill="#263238"/>
<path d="M572.4 522C572.238 522 572.082 521.935 571.968 521.82C571.356 521.184 509.136 457.692 407.112 422.076C299.976 384.696 127.8 414.24 56.7117 463.632C56.5797 463.723 56.417 463.757 56.2594 463.728C56.1019 463.699 55.9625 463.608 55.8718 463.476C55.781 463.344 55.7465 463.181 55.7758 463.024C55.805 462.866 55.8957 462.727 56.0278 462.636C92.2437 437.436 153.96 417.324 221.124 408.696C291.408 399.66 359.364 404.136 407.544 420.948C509.856 456.648 572.244 520.344 572.868 520.98C572.924 521.036 572.969 521.102 572.999 521.175C573.03 521.249 573.045 521.327 573.045 521.406C573.045 521.485 573.03 521.564 572.999 521.637C572.969 521.71 572.924 521.776 572.868 521.832C572.805 521.891 572.732 521.936 572.651 521.965C572.571 521.994 572.485 522.006 572.4 522Z" fill="#263238"/>
<path d="M175.881 492.001C163.329 496.417 152.193 500.221 142.281 503.509C177.825 520.129 222.801 531.193 279.441 537.169C291.945 538.489 303.633 539.413 314.589 539.965C386.877 487.165 419.961 425.965 419.961 425.965C422.421 426.769 379.701 407.965 331.509 406.309C331.473 406.321 271.197 458.509 175.881 492.001Z" fill="white"/>
<path d="M219.682 591.529C219.56 591.531 219.44 591.496 219.339 591.427C219.238 591.358 219.161 591.259 219.118 591.145C219.09 591.071 219.076 590.992 219.077 590.912C219.079 590.833 219.097 590.755 219.129 590.682C219.162 590.609 219.208 590.544 219.266 590.489C219.324 590.435 219.392 590.393 219.466 590.365C290.998 563.965 341.554 520.633 371.362 488.893C401.17 457.153 416.794 430.321 419.098 426.229C413.938 424.033 375.514 408.493 331.69 406.933C327.946 410.101 267.874 460.321 176.086 492.565C82.7265 525.361 67.0185 524.965 47.1465 524.365C44.5185 524.293 41.8065 524.221 38.8305 524.221C38.6713 524.221 38.5187 524.157 38.4062 524.045C38.2937 523.932 38.2305 523.78 38.2305 523.621C38.2305 523.462 38.2937 523.309 38.4062 523.196C38.5187 523.084 38.6713 523.021 38.8305 523.021C41.8185 523.021 44.5425 523.093 47.2305 523.165C66.9945 523.717 82.5945 524.149 175.75 491.425C269.866 458.365 330.55 406.393 331.138 405.877C331.255 405.775 331.404 405.72 331.558 405.721C375.526 407.245 414.526 422.653 419.986 425.377H420.166C420.466 425.533 420.634 425.641 420.646 425.689C420.692 425.794 420.707 425.91 420.687 426.023C420.668 426.136 420.617 426.241 420.538 426.325C420.497 426.374 420.443 426.411 420.382 426.433C418.762 429.337 403.102 456.841 372.31 489.625C342.406 521.473 291.706 564.985 219.91 591.409L219.682 591.529Z" fill="#263238"/>
<path d="M449.614 438.324C472.078 447.408 497.338 425.377 495.538 401.905C493.798 379.105 465.238 366.757 447.31 359.221C399.754 339.241 368.746 342.685 368.746 342.685C368.746 342.685 416.974 333.732 467.29 339.924C510.838 345.288 556.162 371.641 574.594 412.801C584.506 434.929 584.902 459.505 582.994 483.277C580.858 510.169 572.386 521.365 572.386 521.365C572.386 521.365 511.714 472.548 449.614 438.324Z" fill="white"/>
<path d="M572.398 522C572.263 521.999 572.132 521.952 572.026 521.868C571.414 521.376 510.67 472.668 449.326 438.888C449.194 438.813 449.096 438.691 449.05 438.546C449.005 438.402 449.016 438.245 449.081 438.108C449.147 437.971 449.262 437.864 449.403 437.808C449.544 437.753 449.701 437.753 449.842 437.808C459.442 441.696 470.242 440.016 479.602 433.212C489.958 425.628 495.838 413.664 494.95 402.012C493.198 379.2 464.398 367.032 447.082 359.784C400.282 340.092 369.082 343.248 368.806 343.284C368.651 343.298 368.497 343.253 368.374 343.157C368.251 343.061 368.17 342.922 368.146 342.768C368.125 342.614 368.165 342.458 368.257 342.333C368.348 342.208 368.485 342.123 368.638 342.096C369.118 342 417.538 333.192 467.362 339.336C489.925 342.208 511.561 350.088 530.686 362.4C551.002 375.6 566.374 392.928 575.146 412.512C585.754 436.212 585.238 462.78 583.546 483.312C581.41 510.072 573.166 521.256 572.818 521.712C572.77 521.778 572.709 521.833 572.639 521.874C572.569 521.915 572.491 521.942 572.41 521.952L572.398 522ZM454.678 440.508C511.486 472.512 566.422 515.88 572.278 520.524C573.886 518.052 580.57 506.532 582.418 483.264C584.05 462.864 584.566 436.524 574.018 413.076C557.218 375.504 514.246 346.356 467.218 340.56C430.114 335.988 393.766 339.744 377.602 341.964C390.13 342.336 415.126 345.072 447.562 358.704C465.058 366.06 494.362 378.384 496.15 401.904C497.074 414 491.014 426.372 480.322 434.184C472.33 439.98 463.198 442.164 454.678 440.472V440.508Z" fill="#263238"/>
<path d="M369.6 351.468C369.129 351.468 368.677 351.283 368.34 350.954C368.004 350.624 367.81 350.175 367.8 349.704L363.168 119.184C363.159 118.707 363.339 118.245 363.67 117.901C364.001 117.556 364.455 117.358 364.932 117.348C365.41 117.338 365.871 117.519 366.216 117.85C366.56 118.181 366.759 118.635 366.768 119.112L371.4 349.632C371.407 349.869 371.366 350.105 371.28 350.325C371.195 350.546 371.066 350.748 370.902 350.919C370.738 351.09 370.542 351.226 370.324 351.321C370.107 351.415 369.873 351.465 369.636 351.468H369.6Z" fill="#263238"/>
<path d="M395.628 148.416L417.168 160.656L409.824 171.144L415.188 184.728L386.52 175.74L395.628 148.416Z" fill="white"/>
<path d="M415.197 185.328C415.138 185.34 415.077 185.34 415.017 185.328L386.397 176.316C386.322 176.293 386.252 176.254 386.192 176.203C386.132 176.151 386.084 176.088 386.049 176.016C386.014 175.943 385.996 175.863 385.996 175.782C385.996 175.701 386.014 175.621 386.049 175.548L395.157 148.224C395.186 148.141 395.232 148.065 395.292 148.001C395.352 147.937 395.425 147.886 395.505 147.852C395.587 147.817 395.675 147.799 395.763 147.799C395.852 147.799 395.94 147.817 396.021 147.852L417.561 160.092C417.634 160.135 417.697 160.192 417.747 160.26C417.796 160.328 417.831 160.406 417.849 160.488C417.867 160.569 417.868 160.652 417.851 160.733C417.835 160.813 417.801 160.889 417.753 160.956L410.553 171.18L415.797 184.476C415.838 184.581 415.848 184.695 415.827 184.806C415.806 184.916 415.754 185.018 415.677 185.1C415.621 185.173 415.548 185.232 415.465 185.272C415.381 185.311 415.29 185.331 415.197 185.328ZM387.297 175.356L414.177 183.756L409.281 171.336C409.246 171.244 409.233 171.145 409.244 171.047C409.254 170.949 409.288 170.855 409.341 170.772L416.313 160.824L395.997 149.292L387.297 175.356Z" fill="#263238"/>
<path d="M394.548 172.728L386.52 175.74L395.628 148.416L394.548 172.728Z" fill="#263238"/>
<path d="M386.519 176.401C386.423 176.403 386.328 176.381 386.242 176.338C386.156 176.295 386.083 176.232 386.027 176.154C385.971 176.076 385.936 175.985 385.923 175.89C385.91 175.795 385.921 175.699 385.955 175.609L395.063 148.285C395.077 148.206 395.106 148.131 395.15 148.063C395.193 147.996 395.249 147.938 395.315 147.892C395.38 147.847 395.455 147.814 395.533 147.797C395.611 147.78 395.692 147.779 395.771 147.793C395.849 147.807 395.925 147.837 395.992 147.88C396.059 147.923 396.118 147.979 396.163 148.045C396.209 148.111 396.241 148.185 396.258 148.263C396.275 148.341 396.277 148.422 396.263 148.501L395.183 172.825C395.178 172.941 395.139 173.053 395.071 173.147C395.002 173.241 394.908 173.313 394.799 173.353L386.771 176.365C386.69 176.393 386.604 176.405 386.519 176.401ZM394.799 152.677L387.455 174.745L393.935 172.345L394.799 152.677Z" fill="#263238"/>
<path d="M365.82 122.832L397.14 136.164L394.548 172.728L366.6 162.612L365.82 122.832Z" fill="white"/>
<path d="M394.547 173.329H394.343L366.383 163.201C366.271 163.157 366.173 163.082 366.103 162.984C366.033 162.886 365.992 162.769 365.987 162.649L365.219 122.869C365.218 122.77 365.241 122.672 365.287 122.584C365.333 122.496 365.401 122.421 365.483 122.365C365.571 122.318 365.67 122.293 365.771 122.293C365.871 122.293 365.97 122.318 366.059 122.365L397.379 135.601C397.496 135.648 397.595 135.732 397.66 135.84C397.725 135.948 397.753 136.075 397.739 136.201L395.147 172.801C395.143 172.893 395.117 172.982 395.071 173.062C395.025 173.141 394.961 173.208 394.883 173.257C394.781 173.315 394.664 173.34 394.547 173.329ZM367.199 162.181L394.019 171.901L396.527 136.549L366.443 123.757L367.199 162.181Z" fill="#263238"/>
<path d="M252.311 286.116C251.993 286.116 251.687 285.989 251.462 285.764C251.237 285.539 251.111 285.234 251.111 284.916L248.399 188.184C248.389 187.866 248.507 187.557 248.725 187.325C248.943 187.093 249.245 186.957 249.563 186.948C249.881 186.938 250.19 187.056 250.422 187.274C250.654 187.492 250.789 187.794 250.799 188.112L253.487 284.88C253.487 285.198 253.361 285.503 253.136 285.728C252.91 285.953 252.605 286.08 252.287 286.08L252.311 286.116Z" fill="#263238"/>
<path d="M262.607 200.34L271.931 206.568L268.643 209.832L272.063 214.98L258.875 211.836L262.607 200.34Z" fill="white"/>
<path d="M272.075 215.581H271.931L258.731 212.449C258.65 212.429 258.574 212.394 258.508 212.344C258.442 212.294 258.387 212.231 258.347 212.159C258.306 212.087 258.281 212.007 258.273 211.925C258.264 211.843 258.273 211.759 258.299 211.681L262.031 200.173C262.059 200.085 262.107 200.006 262.172 199.942C262.236 199.877 262.315 199.829 262.403 199.801C262.49 199.771 262.582 199.761 262.673 199.772C262.765 199.782 262.852 199.812 262.931 199.861L272.243 206.089C272.315 206.139 272.376 206.204 272.421 206.28C272.466 206.356 272.494 206.441 272.503 206.529C272.512 206.616 272.502 206.705 272.474 206.789C272.445 206.872 272.399 206.949 272.339 207.013L269.411 209.929L272.555 214.729C272.622 214.828 272.657 214.945 272.657 215.065C272.657 215.184 272.622 215.301 272.555 215.401C272.493 215.464 272.418 215.513 272.335 215.544C272.252 215.576 272.163 215.588 272.075 215.581ZM259.655 211.405L270.731 214.045L268.151 210.169C268.07 210.053 268.034 209.912 268.047 209.771C268.06 209.631 268.122 209.5 268.223 209.401L270.983 206.653L262.943 201.277L259.655 211.405Z" fill="#263238"/>
<path d="M262.235 210.552L258.875 211.836L262.607 200.34L262.235 210.552Z" fill="#263238"/>
<path d="M258.874 212.4C258.723 212.404 258.576 212.348 258.466 212.244C258.385 212.165 258.327 212.065 258.3 211.954C258.272 211.844 258.276 211.728 258.31 211.62L262.042 200.112C262.089 199.977 262.182 199.863 262.305 199.79C262.428 199.718 262.573 199.691 262.714 199.716C262.857 199.74 262.986 199.815 263.077 199.928C263.168 200.041 263.214 200.184 263.206 200.328L262.834 210.54C262.832 210.658 262.794 210.773 262.725 210.869C262.657 210.966 262.561 211.039 262.45 211.08L259.09 212.364C259.021 212.388 258.948 212.4 258.874 212.4ZM261.85 204.576L259.834 210.792L261.658 210.096L261.85 204.576Z" fill="#263238"/>
<path d="M250.02 189.697L263.316 195.469L262.236 210.553L250.464 206.389L250.02 189.697Z" fill="white"/>
<path d="M262.235 211.2C262.171 211.212 262.106 211.212 262.043 211.2L250.271 207.036C250.157 206.999 250.057 206.927 249.986 206.83C249.915 206.733 249.876 206.616 249.875 206.496L249.419 189.792C249.414 189.692 249.436 189.593 249.482 189.505C249.529 189.416 249.598 189.341 249.683 189.288C249.771 189.239 249.87 189.213 249.971 189.213C250.071 189.213 250.171 189.239 250.259 189.288L263.555 195.06C263.67 195.106 263.767 195.188 263.832 195.294C263.897 195.4 263.926 195.525 263.915 195.648L262.835 210.732C262.829 210.825 262.802 210.916 262.757 210.997C262.711 211.078 262.647 211.147 262.571 211.2C262.461 211.23 262.345 211.23 262.235 211.2ZM251.063 206.016L261.695 209.772L262.691 195.9L250.691 190.668L251.063 206.016Z" fill="#263238"/>
<path d="M333.131 298.333C332.975 298.33 332.826 298.267 332.714 298.158C332.603 298.048 332.537 297.901 332.531 297.745L330.551 235.009C330.548 234.851 330.606 234.699 330.714 234.585C330.822 234.47 330.97 234.403 331.127 234.397C331.207 234.39 331.287 234.4 331.362 234.426C331.438 234.452 331.507 234.493 331.566 234.547C331.624 234.601 331.671 234.667 331.703 234.74C331.735 234.814 331.751 234.893 331.751 234.973L333.731 297.709C333.734 297.787 333.722 297.866 333.695 297.94C333.667 298.014 333.626 298.082 333.572 298.14C333.519 298.198 333.454 298.245 333.383 298.278C333.311 298.311 333.234 298.329 333.155 298.333H333.131Z" fill="#263238"/>
<path d="M340.717 243.973L347.569 248.557L345.157 250.957L347.677 254.737L337.969 252.433L340.717 243.973Z" fill="white"/>
<path d="M347.676 255.348H347.544L337.824 253.044C337.664 253 337.527 252.897 337.44 252.756C337.407 252.68 337.391 252.598 337.391 252.516C337.391 252.434 337.407 252.352 337.44 252.276L340.188 243.804C340.218 243.715 340.268 243.634 340.335 243.567C340.401 243.5 340.482 243.45 340.572 243.42C340.659 243.391 340.752 243.382 340.844 243.394C340.936 243.407 341.023 243.44 341.1 243.492L347.952 248.076C348.028 248.124 348.092 248.189 348.137 248.266C348.183 248.343 348.21 248.43 348.216 248.52C348.222 248.607 348.211 248.695 348.182 248.778C348.153 248.86 348.107 248.936 348.048 249L345.984 251.052L348.228 254.436C348.295 254.535 348.331 254.652 348.331 254.772C348.331 254.892 348.295 255.009 348.228 255.108C348.166 255.194 348.082 255.262 347.985 255.304C347.888 255.346 347.781 255.361 347.676 255.348ZM338.736 252L346.332 253.8L344.652 251.292C344.575 251.174 344.542 251.033 344.557 250.893C344.572 250.753 344.635 250.623 344.736 250.524L346.632 248.64L341.04 244.908L338.736 252Z" fill="#263238"/>
<path d="M340.441 251.485L337.969 252.433L340.717 243.973L340.441 251.485Z" fill="#462683"/>
<path d="M337.969 253.032C337.813 253.031 337.663 252.971 337.549 252.864C337.467 252.787 337.409 252.689 337.382 252.581C337.354 252.472 337.358 252.358 337.393 252.252L340.141 243.78C340.168 243.621 340.257 243.479 340.388 243.386C340.52 243.292 340.684 243.255 340.843 243.282C341.002 243.309 341.144 243.398 341.237 243.53C341.33 243.662 341.368 243.825 341.341 243.984L341.065 251.508C341.059 251.625 341.02 251.739 340.952 251.835C340.884 251.93 340.79 252.004 340.681 252.048L338.209 252.996L337.969 253.032ZM339.961 248.244L338.929 251.424L339.853 251.064L339.961 248.244Z" fill="#263238"/>
<path d="M331.438 236.137L341.229 240.385L340.437 251.485L331.773 248.425L331.438 236.137Z" fill="white"/>
<path d="M340.439 252.085H340.235L331.571 249.025C331.451 248.975 331.35 248.887 331.283 248.775C331.216 248.662 331.187 248.531 331.199 248.401L330.863 236.113C330.863 236.013 330.887 235.913 330.933 235.824C330.979 235.734 331.046 235.656 331.127 235.597C331.216 235.55 331.315 235.525 331.415 235.525C331.516 235.525 331.615 235.55 331.703 235.597L341.495 239.845C341.611 239.891 341.708 239.974 341.773 240.08C341.838 240.186 341.867 240.31 341.855 240.433L341.063 251.545C341.057 251.636 341.03 251.725 340.984 251.804C340.938 251.883 340.875 251.95 340.799 252.001C340.689 252.062 340.565 252.091 340.439 252.085ZM332.399 247.993L339.935 250.657L340.643 240.757L332.099 237.061L332.399 247.993Z" fill="#263238"/>
<path d="M425.783 446.052C425.146 446.052 424.536 445.8 424.086 445.35C423.636 444.899 423.383 444.289 423.383 443.652L426.071 59.7125C426.071 59.076 426.324 58.4655 426.774 58.0154C427.224 57.5654 427.834 57.3125 428.471 57.3125C429.107 57.3125 429.718 57.5654 430.168 58.0154C430.618 58.4655 430.871 59.076 430.871 59.7125L428.183 443.713C428.167 444.339 427.907 444.934 427.459 445.371C427.011 445.808 426.409 446.053 425.783 446.052Z" fill="#263238"/>
<path d="M468.718 100.117L497.83 121.045L486.982 131.137L497.374 147.973L460.426 143.185L468.718 100.117Z" fill="white"/>
<path d="M497.376 148.561H497.304L460.356 143.761C460.275 143.753 460.196 143.728 460.126 143.686C460.055 143.645 459.995 143.589 459.948 143.521C459.852 143.385 459.814 143.217 459.84 143.053L468.12 99.9854C468.141 99.8864 468.185 99.794 468.25 99.7166C468.315 99.6391 468.398 99.5789 468.492 99.5414C468.587 99.5047 468.689 99.4922 468.789 99.5047C468.89 99.5173 468.986 99.5546 469.068 99.6134L498.18 120.553C498.253 120.604 498.313 120.67 498.357 120.747C498.401 120.823 498.426 120.909 498.432 120.997C498.438 121.087 498.424 121.176 498.391 121.259C498.357 121.342 498.306 121.417 498.24 121.477L487.752 131.233L497.892 147.601C497.954 147.698 497.987 147.81 497.987 147.925C497.987 148.04 497.954 148.153 497.892 148.249C497.841 148.342 497.767 148.42 497.676 148.475C497.586 148.53 497.482 148.56 497.376 148.561ZM461.148 142.669L496.212 147.205L486.48 131.449C486.406 131.332 486.375 131.192 486.393 131.054C486.41 130.916 486.475 130.789 486.576 130.693L496.884 121.093L469.128 101.149L461.148 142.669Z" fill="#263238"/>
<path d="M481.15 141.277L460.426 143.185L468.718 100.117L481.15 141.277Z" fill="#263238"/>
<path d="M460.427 143.784C460.343 143.783 460.26 143.765 460.183 143.729C460.107 143.694 460.039 143.644 459.983 143.58C459.921 143.511 459.875 143.429 459.85 143.339C459.825 143.25 459.821 143.156 459.839 143.064L468.119 99.9963C468.148 99.8656 468.218 99.7479 468.32 99.6613C468.422 99.5746 468.549 99.5236 468.683 99.5163C468.815 99.5102 468.946 99.5481 469.055 99.6241C469.163 99.7001 469.243 99.8098 469.283 99.9363L481.727 141.096C481.752 141.183 481.757 141.274 481.743 141.364C481.728 141.453 481.694 141.538 481.643 141.612C481.592 141.685 481.525 141.746 481.449 141.791C481.373 141.837 481.287 141.866 481.199 141.876L460.487 143.784H460.427ZM468.827 102.612L461.159 142.512L480.359 140.748L468.827 102.612Z" fill="#263238"/>
<path d="M429.563 64.7051L484.991 92.4731L481.151 141.277L429.203 118.165L429.563 64.7051Z" fill="white"/>
<path d="M481.198 141.877C481.114 141.894 481.029 141.894 480.946 141.877L428.962 118.705C428.855 118.657 428.765 118.58 428.701 118.482C428.637 118.384 428.603 118.27 428.602 118.153L428.962 64.7052C428.961 64.6016 428.987 64.4997 429.038 64.4093C429.088 64.3189 429.161 64.243 429.25 64.1892C429.338 64.1419 429.437 64.1172 429.538 64.1172C429.638 64.1172 429.737 64.1419 429.826 64.1892L485.266 91.9572C485.373 92.0104 485.462 92.0953 485.52 92.2004C485.578 92.3055 485.602 92.4258 485.59 92.5452L481.75 141.349C481.737 141.445 481.704 141.536 481.652 141.617C481.6 141.698 481.531 141.766 481.45 141.817C481.37 141.854 481.285 141.874 481.198 141.877ZM429.814 117.769L480.61 140.401L484.366 92.8452L430.15 65.6772L429.814 117.769Z" fill="#263238"/>
<path d="M282.934 75.5275H174.706C174.601 75.5294 174.497 75.5024 174.406 75.4495C174.315 75.3966 174.241 75.3198 174.19 75.2275C174.14 75.1377 174.113 75.0365 174.113 74.9335C174.113 74.8305 174.14 74.7292 174.19 74.6395C174.394 74.2795 179.098 65.9035 185.818 62.0635C189.958 59.6635 196.702 61.4755 202.102 62.9035C205.294 63.7435 208.594 64.6075 209.53 63.9835C210.341 63.1348 210.948 62.1131 211.306 60.9955C213.082 57.0115 216.106 50.3395 227.71 46.9315C233.89 45.1315 238.618 47.1355 242.41 48.7435C246.202 50.3515 248.686 51.3955 251.23 48.8635C252.404 47.6112 253.506 46.2931 254.53 44.9155C256.441 42.3562 258.547 39.9489 260.83 37.7155C260.888 37.6611 260.955 37.6186 261.029 37.5904C261.103 37.5622 261.182 37.5488 261.261 37.551C261.34 37.5532 261.418 37.571 261.49 37.6034C261.563 37.6357 261.628 37.682 261.682 37.7395C261.737 37.797 261.779 37.8647 261.807 37.9386C261.836 38.0126 261.849 38.0913 261.847 38.1704C261.844 38.2496 261.827 38.3275 261.794 38.3997C261.762 38.4719 261.716 38.5371 261.658 38.5915C259.416 40.7859 257.35 43.1532 255.478 45.6715C254.423 47.0894 253.285 48.4437 252.07 49.7275C248.974 52.8235 245.71 51.4555 241.942 49.8595C238.174 48.2635 233.818 46.4155 228.046 48.0955C216.922 51.3475 214.21 57.4555 212.446 61.4995C212.024 62.8372 211.258 64.0411 210.226 64.9915C208.846 65.9155 205.906 65.1475 201.826 64.0675C196.63 62.6995 190.15 60.9835 186.442 63.1195C181.27 66.0715 177.202 72.0715 175.798 74.3395H282.97C283.129 74.3395 283.282 74.4027 283.395 74.5152C283.507 74.6277 283.57 74.7803 283.57 74.9395C283.569 75.0204 283.551 75.1001 283.518 75.174C283.485 75.2478 283.437 75.3142 283.378 75.3691C283.318 75.4241 283.248 75.4664 283.172 75.4936C283.096 75.5208 283.015 75.5323 282.934 75.5275Z" fill="white"/>
<path d="M361.81 75.5275H295.102C294.943 75.5275 294.79 75.4643 294.678 75.3518C294.565 75.2393 294.502 75.0867 294.502 74.9275C294.502 74.7684 294.565 74.6158 294.678 74.5033C294.79 74.3907 294.943 74.3275 295.102 74.3275H361.03C360.13 71.1595 356.122 58.7275 347.35 55.5475C340.234 52.9555 336.55 57.0235 333.802 59.9995C332.954 61.1216 331.874 62.0468 330.634 62.7115C330.14 62.955 329.596 63.0817 329.044 63.0817C328.493 63.0817 327.949 62.955 327.454 62.7115C327.105 62.5033 326.802 62.2254 326.564 61.8951C326.327 61.5648 326.16 61.1891 326.074 60.7915C325.966 60.5635 311.674 26.1955 287.77 28.0435C281.16 28.3773 274.704 30.1593 268.858 33.2635C268.72 33.3413 268.556 33.3609 268.403 33.3182C268.25 33.2754 268.12 33.1738 268.042 33.0355C268.002 32.9674 267.976 32.8918 267.966 32.8134C267.956 32.7349 267.961 32.6552 267.983 32.579C268.004 32.5029 268.04 32.4317 268.09 32.37C268.139 32.3082 268.201 32.257 268.27 32.2195C274.267 29.029 280.891 27.1938 287.674 26.8435C312.538 24.9475 327.082 60.1075 327.274 60.4435C327.326 60.6885 327.425 60.9208 327.567 61.1269C327.71 61.3329 327.891 61.5086 328.102 61.6435C328.448 61.7835 328.819 61.8484 329.191 61.8339C329.564 61.8194 329.929 61.7259 330.262 61.5595C331.31 60.9388 332.231 60.1243 332.974 59.1595C335.746 56.1235 339.934 51.5275 347.818 54.3595C358.438 58.2235 362.278 74.0635 362.434 74.7595C362.456 74.8462 362.457 74.9367 362.438 75.024C362.42 75.1113 362.381 75.1932 362.326 75.2635C362.269 75.3468 362.191 75.4144 362.101 75.4605C362.011 75.5066 361.911 75.5296 361.81 75.5275Z" fill="white"/>
<path d="M522.984 224.988H453.456C453.352 224.987 453.249 224.959 453.158 224.907C453.068 224.854 452.993 224.779 452.94 224.688C452.89 224.598 452.863 224.497 452.863 224.394C452.863 224.291 452.89 224.19 452.94 224.1C453.06 223.896 455.688 219.204 459.468 217.044C461.868 215.688 465.624 216.684 468.672 217.488C470.208 217.896 472.128 218.4 472.548 218.124C472.944 217.676 473.245 217.154 473.436 216.588C474.432 214.344 476.112 210.588 482.664 208.668C486.168 207.648 488.832 208.776 490.968 209.676C493.104 210.576 494.328 211.02 495.54 209.796C496.183 209.117 496.784 208.399 497.34 207.648C498.597 205.936 500.029 204.359 501.612 202.944C501.726 202.833 501.879 202.771 502.038 202.771C502.197 202.771 502.35 202.833 502.464 202.944C502.52 202.999 502.564 203.064 502.595 203.136C502.625 203.208 502.641 203.286 502.641 203.364C502.641 203.442 502.625 203.52 502.595 203.592C502.564 203.664 502.52 203.729 502.464 203.784C500.941 205.152 499.562 206.672 498.348 208.32C497.761 209.112 497.128 209.869 496.452 210.588C494.604 212.436 492.636 211.596 490.56 210.72C488.484 209.844 486.156 208.86 483.06 209.76C477.06 211.512 475.56 214.824 474.588 216.96C474.348 217.754 473.891 218.465 473.268 219.012C472.404 219.588 470.736 219.144 468.468 218.532C465.648 217.788 462.132 216.864 460.176 217.98C457.939 219.45 456.054 221.397 454.656 223.68H523.056C523.215 223.68 523.368 223.743 523.481 223.856C523.593 223.968 523.656 224.121 523.656 224.28C523.656 224.439 523.593 224.592 523.481 224.704C523.368 224.817 523.215 224.88 523.056 224.88L522.984 224.988Z" fill="white"/>
<path d="M556.801 224.987H528.661C528.502 224.987 528.349 224.924 528.237 224.812C528.124 224.699 528.061 224.547 528.061 224.387C528.061 224.228 528.124 224.076 528.237 223.963C528.349 223.851 528.502 223.787 528.661 223.787H556.021C555.373 221.663 553.189 215.555 548.737 213.935C544.957 212.567 543.061 214.643 541.537 216.335C541.041 216.99 540.406 217.527 539.677 217.907C539.368 218.057 539.03 218.135 538.687 218.135C538.344 218.135 538.006 218.057 537.697 217.907C537.475 217.778 537.283 217.605 537.13 217.398C536.977 217.192 536.868 216.957 536.809 216.707C536.809 216.623 529.009 197.795 515.929 198.827C513.141 199.008 510.397 199.615 507.793 200.627C507.721 200.659 507.643 200.675 507.564 200.676C507.485 200.676 507.407 200.661 507.334 200.631C507.262 200.6 507.196 200.556 507.14 200.5C507.085 200.443 507.042 200.377 507.013 200.303C506.982 200.231 506.965 200.153 506.965 200.074C506.964 199.996 506.98 199.918 507.01 199.845C507.04 199.772 507.085 199.706 507.141 199.651C507.197 199.596 507.264 199.552 507.337 199.523C510.059 198.46 512.929 197.821 515.845 197.627C529.717 196.559 537.625 215.555 537.949 216.371C537.992 216.589 538.117 216.782 538.297 216.911C538.614 217.013 538.958 216.987 539.257 216.839C539.792 216.529 540.264 216.122 540.649 215.639C542.233 213.911 544.621 211.295 549.145 212.939C555.145 215.123 557.305 224.003 557.389 224.387C557.41 224.474 557.412 224.565 557.393 224.652C557.374 224.739 557.336 224.821 557.281 224.891C557.212 224.94 557.134 224.973 557.051 224.989C556.968 225.006 556.883 225.005 556.801 224.987Z" fill="white"/>
<path d="M322.141 256.211H261.601C261.494 256.21 261.39 256.182 261.298 256.129C261.205 256.077 261.128 256.002 261.073 255.911C261.02 255.82 260.992 255.716 260.992 255.611C260.992 255.506 261.02 255.402 261.073 255.311C262.026 253.615 263.367 252.168 264.985 251.087C266.473 250.235 268.741 250.835 270.565 251.315C271.242 251.548 271.949 251.681 272.665 251.711C272.832 251.469 272.969 251.207 273.073 250.931C273.525 249.729 274.272 248.66 275.245 247.821C276.218 246.983 277.385 246.402 278.641 246.131C280.332 245.688 282.129 245.902 283.669 246.731C284.989 247.283 285.505 247.427 286.069 246.851C286.438 246.474 286.783 246.073 287.101 245.651C288.331 243.847 289.972 242.362 291.89 241.319C293.808 240.276 295.946 239.704 298.129 239.651C306.529 239.015 311.149 250.307 311.329 250.787V250.895C311.425 251.003 311.533 251.015 311.749 250.895C312.02 250.707 312.263 250.481 312.469 250.223C313.381 249.227 314.869 247.547 317.713 248.567C321.313 249.899 322.645 255.227 322.705 255.455C322.725 255.544 322.724 255.637 322.703 255.727C322.683 255.816 322.642 255.899 322.585 255.971C322.533 256.041 322.466 256.099 322.39 256.141C322.313 256.182 322.228 256.206 322.141 256.211ZM262.657 255.011H321.337C320.881 253.595 319.633 250.559 317.329 249.707C315.277 248.963 314.269 250.067 313.381 251.039C313.058 251.455 312.649 251.795 312.181 252.035C311.967 252.136 311.733 252.189 311.497 252.189C311.26 252.189 311.026 252.136 310.813 252.035C310.505 251.847 310.279 251.552 310.177 251.207C309.901 250.535 305.377 240.311 298.177 240.851C296.16 240.888 294.181 241.412 292.41 242.377C290.638 243.342 289.126 244.72 288.001 246.395C287.654 246.871 287.277 247.323 286.873 247.751C285.673 248.951 284.389 248.411 283.141 247.883C281.851 247.176 280.344 246.979 278.917 247.331C277.835 247.557 276.827 248.053 275.988 248.773C275.149 249.492 274.505 250.412 274.117 251.447C273.961 251.954 273.661 252.405 273.253 252.743C272.653 253.151 271.681 252.887 270.217 252.503C268.753 252.119 266.617 251.555 265.537 252.155C264.386 252.893 263.405 253.867 262.657 255.011Z" fill="white"/>
<path d="M112.38 165.744H51.7917C51.6875 165.741 51.5856 165.712 51.4955 165.66C51.4054 165.607 51.3298 165.533 51.2757 165.444C51.223 165.353 51.1953 165.249 51.1953 165.144C51.1953 165.039 51.223 164.935 51.2757 164.844C52.2328 163.147 53.5773 161.699 55.1997 160.62C56.6877 159.768 58.9557 160.368 60.7797 160.848C61.4568 161.081 62.1642 161.215 62.8797 161.244C63.0471 161.002 63.1841 160.74 63.2877 160.464C63.7404 159.262 64.4873 158.193 65.4601 157.355C66.4328 156.516 67.6003 155.935 68.8557 155.664C70.5473 155.221 72.3439 155.435 73.8837 156.264C75.2037 156.816 75.7197 156.96 76.2837 156.384C76.6529 156.006 76.9976 155.606 77.3157 155.184C78.5457 153.38 80.1874 151.896 82.105 150.852C84.0227 149.809 86.1612 149.237 88.3437 149.184C96.7437 148.548 101.364 159.84 101.544 160.32C101.549 160.356 101.549 160.392 101.544 160.428C101.64 160.536 101.76 160.548 101.964 160.428C102.24 160.247 102.484 160.02 102.684 159.756C103.596 158.76 105.084 157.08 107.94 158.112C111.54 159.432 112.872 164.76 112.932 164.988C112.952 165.078 112.951 165.17 112.93 165.26C112.91 165.349 112.869 165.433 112.812 165.504C112.761 165.573 112.697 165.63 112.622 165.672C112.548 165.713 112.465 165.738 112.38 165.744ZM52.8957 164.544H111.6C111.144 163.128 109.896 160.092 107.58 159.24C105.528 158.496 104.52 159.6 103.632 160.572C103.314 160.992 102.903 161.333 102.432 161.568C102.216 161.669 101.98 161.721 101.742 161.721C101.503 161.721 101.268 161.669 101.052 161.568C100.743 161.385 100.519 161.087 100.428 160.74C100.14 160.068 95.7237 149.844 88.4277 150.384C86.4103 150.419 84.4313 150.942 82.6594 151.907C80.8876 152.873 79.3754 154.252 78.2517 155.928C77.8818 156.406 77.481 156.859 77.0517 157.284C75.8517 158.484 74.5797 157.944 73.3317 157.416C72.0422 156.711 70.5352 156.514 69.1077 156.864C68.0258 157.091 67.0185 157.586 66.1794 158.306C65.3403 159.026 64.6965 159.945 64.3077 160.98C64.1526 161.487 63.8522 161.938 63.4437 162.276C62.8437 162.684 61.8717 162.42 60.3957 162.036C58.9197 161.652 56.7957 161.076 55.7277 161.688C54.5947 162.432 53.63 163.405 52.8957 164.544Z" fill="white"/>
<path d="M183.336 127.2C184.702 130.766 185.801 134.428 186.624 138.156C187.164 141.852 188.712 143.856 188.292 144.948C187.872 146.04 186.516 148.548 186.516 149.328C187.449 152.612 188.628 155.821 190.044 158.928C191.136 161.256 187.992 161.94 187.032 163.308C186.072 164.676 185.832 167.832 185.388 171.804C184.944 175.776 186.204 177.972 185.256 180.024C184.308 182.076 178.128 182.352 175.524 181.668C174.107 181.35 172.789 180.691 171.684 179.748L170.868 183.18C166.836 180.055 162.474 177.379 157.86 175.2C152.18 172.936 146.37 171.012 140.46 169.44L141.144 161.772C141.144 161.772 133.884 150.972 131.004 141.912C128.124 132.852 133.332 122.592 136.344 118.62C139.356 114.648 154.344 111.636 161.964 111.504C169.584 111.372 181.824 117.252 182.364 117.384C182.904 117.516 187.572 116.292 187.704 118.08C187.654 119.513 187.281 120.916 186.612 122.184C186.612 122.184 192.504 119.448 191.952 122.592C191.4 125.736 184.56 127.548 183.336 127.2Z" fill="#DFADAD" stroke="#263238" stroke-linecap="round" stroke-linejoin="round"/>
<path d="M170.868 183.769C170.733 183.767 170.602 183.721 170.496 183.637C166.494 180.559 162.174 177.92 157.608 175.765C151.958 173.519 146.18 171.612 140.304 170.053C140.168 170.014 140.049 169.93 139.968 169.814C139.887 169.698 139.849 169.558 139.86 169.417L140.532 161.953C139.572 160.501 133.104 150.505 130.428 142.117C127.476 132.829 132.696 122.461 135.876 118.285C139.056 114.109 154.632 111.085 161.952 110.929C168.6 110.797 178.452 115.069 181.68 116.473C182.136 116.677 182.436 116.809 182.532 116.833L183.372 116.725C185.196 116.485 186.9 116.329 187.788 117.049C187.941 117.171 188.067 117.324 188.158 117.497C188.249 117.671 188.302 117.861 188.316 118.057C188.334 119.1 188.142 120.137 187.752 121.105C189.108 120.625 191.028 120.157 191.988 120.901C192.252 121.115 192.447 121.402 192.547 121.727C192.647 122.052 192.649 122.399 192.552 122.725C192.363 123.415 192.028 124.057 191.568 124.606C191.108 125.155 190.535 125.598 189.888 125.905C188.145 126.912 186.212 127.549 184.212 127.777C185.471 131.102 186.47 134.521 187.2 138.001C187.45 139.455 187.852 140.879 188.4 142.249C188.881 143.114 189.051 144.118 188.88 145.093C188.736 145.477 188.472 146.041 188.196 146.629C187.747 147.467 187.393 148.352 187.14 149.269C188.081 152.472 189.24 155.607 190.608 158.653C191.568 160.681 189.972 161.785 188.796 162.589C188.347 162.877 187.943 163.228 187.596 163.633C186.78 164.833 186.48 167.749 186.132 171.169L186.06 171.841C185.929 173.296 185.961 174.761 186.156 176.209C186.449 177.557 186.349 178.96 185.868 180.253C184.668 182.821 177.96 182.893 175.44 182.221C174.262 181.926 173.143 181.435 172.128 180.769L171.528 183.289C171.502 183.388 171.453 183.479 171.384 183.554C171.315 183.629 171.228 183.687 171.132 183.721C171.049 183.759 170.959 183.775 170.868 183.769ZM141.096 169.021C146.873 170.561 152.551 172.448 158.1 174.673C162.482 176.719 166.637 179.221 170.496 182.137L171.108 179.605C171.131 179.499 171.182 179.402 171.256 179.324C171.33 179.246 171.424 179.189 171.528 179.161C171.631 179.132 171.74 179.131 171.843 179.159C171.947 179.186 172.041 179.241 172.116 179.317C173.16 180.18 174.394 180.784 175.716 181.081C178.332 181.765 183.996 181.357 184.74 179.761C185.117 178.664 185.183 177.485 184.932 176.353C184.725 174.822 184.688 173.272 184.824 171.733L184.896 171.049C185.292 167.173 185.58 164.377 186.576 162.961C187.01 162.422 187.539 161.966 188.136 161.617C189.468 160.693 190.008 160.177 189.54 159.217C188.52 157.057 185.94 150.349 185.94 149.317C186.154 148.207 186.56 147.143 187.14 146.173C187.404 145.609 187.656 145.081 187.788 144.721C187.799 144.019 187.634 143.326 187.308 142.705C186.753 141.255 186.351 139.75 186.108 138.217C185.292 134.541 184.205 130.932 182.856 127.417C182.815 127.309 182.805 127.192 182.828 127.079C182.852 126.967 182.907 126.863 182.988 126.781C183.068 126.701 183.168 126.644 183.278 126.616C183.388 126.589 183.504 126.592 183.612 126.625C185.644 126.582 187.628 125.998 189.36 124.933C189.852 124.693 190.291 124.357 190.652 123.944C191.012 123.532 191.287 123.052 191.46 122.533C191.52 122.185 191.46 121.969 191.352 121.861C190.776 121.429 188.628 121.993 186.96 122.761C186.847 122.815 186.719 122.832 186.596 122.81C186.472 122.788 186.358 122.727 186.271 122.637C186.183 122.547 186.126 122.432 186.108 122.308C186.09 122.183 186.111 122.056 186.168 121.945C186.789 120.773 187.141 119.478 187.2 118.153C187.202 118.12 187.195 118.087 187.18 118.058C187.165 118.028 187.143 118.003 187.116 117.985C186.564 117.541 184.572 117.805 183.612 117.985C183.187 118.078 182.749 118.103 182.316 118.057C181.935 117.928 181.562 117.775 181.2 117.601C178.032 116.221 168.384 111.997 162 112.153C154.02 112.285 139.584 115.429 136.8 119.029C134.4 122.257 128.64 132.625 131.556 141.829C134.4 150.601 141.6 161.353 141.6 161.461C141.681 161.572 141.719 161.708 141.708 161.845L141.096 169.021Z" fill="#263238"/>
<path d="M184.737 151.694C185.168 151.694 185.517 150.646 185.517 149.354C185.517 148.061 185.168 147.014 184.737 147.014C184.306 147.014 183.957 148.061 183.957 149.354C183.957 150.646 184.306 151.694 184.737 151.694Z" fill="#263238"/>
<path d="M183.863 145.345C183.712 145.348 183.565 145.292 183.455 145.189C183.399 145.133 183.354 145.067 183.323 144.993C183.293 144.92 183.277 144.842 183.277 144.763C183.277 144.684 183.293 144.605 183.323 144.532C183.354 144.459 183.399 144.393 183.455 144.337C183.751 143.938 184.136 143.614 184.58 143.391C185.024 143.168 185.514 143.052 186.011 143.053C186.313 143.083 186.606 143.179 186.867 143.335C187.128 143.49 187.352 143.701 187.523 143.953C187.609 144.086 187.638 144.249 187.604 144.404C187.57 144.559 187.476 144.695 187.343 144.781C187.21 144.865 187.049 144.894 186.895 144.863C186.741 144.831 186.605 144.742 186.515 144.613C186.444 144.509 186.352 144.422 186.244 144.358C186.136 144.294 186.016 144.254 185.891 144.241C185.582 144.277 185.284 144.377 185.016 144.534C184.747 144.691 184.514 144.901 184.331 145.153C184.274 145.22 184.202 145.272 184.12 145.306C184.039 145.339 183.95 145.352 183.863 145.345Z" fill="#263238"/>
<path d="M185.256 180.001C186.204 177.949 184.98 175.753 185.388 171.781C185.796 167.809 186.072 164.665 187.032 163.285C184.296 162.337 178.632 166.441 177.996 165.481C177.36 164.521 176.796 147.397 177.168 144.793C177.54 142.189 181.14 142.201 182.652 138.913C184.164 135.625 179.052 131.917 178.812 129.733C178.572 127.549 183.336 127.129 183.336 127.129C184.536 127.537 191.412 125.761 191.964 122.605C192.516 119.449 186.624 122.197 186.624 122.197C187.292 120.929 187.666 119.526 187.716 118.093C187.584 116.305 182.916 117.541 182.376 117.397C181.836 117.253 169.632 111.397 161.976 111.517C154.32 111.637 139.368 114.661 136.356 118.633C133.344 122.605 128.136 132.877 131.016 141.925C133.416 149.629 139.092 158.605 140.7 161.125C141.177 161.466 141.698 161.74 142.248 161.941C147.085 163.397 152.192 163.725 157.176 162.901C164.028 161.701 169.512 159.205 168.552 157.285C167.592 155.365 167.04 147.421 169.236 143.725C171.432 140.029 173.892 145.645 173.34 152.353C172.788 159.061 171.288 163.309 170.88 167.557C170.472 171.805 171.696 179.749 171.696 179.749C172.8 180.693 174.119 181.352 175.536 181.669C178.128 182.401 184.296 182.065 185.256 180.001Z" fill="#263238"/>
<path d="M178.8 182.593C177.634 182.61 176.47 182.489 175.332 182.232C173.817 181.887 172.409 181.178 171.228 180.168C171.144 180.073 171.086 179.957 171.06 179.832C171.06 179.508 169.86 171.769 170.232 167.497C170.456 165.581 170.78 163.678 171.204 161.797C171.916 158.666 172.417 155.49 172.704 152.293C173.112 147.301 171.792 143.484 170.748 143.16C170.34 143.028 169.884 143.712 169.704 144.024C167.664 147.456 168.144 155.208 169.044 157.008C169.168 157.243 169.233 157.505 169.233 157.771C169.233 158.036 169.168 158.298 169.044 158.532C167.844 160.824 161.988 162.636 157.272 163.476C152.259 164.309 147.122 163.993 142.248 162.553H142.08C141.469 162.327 140.892 162.021 140.364 161.64C140.29 161.601 140.228 161.543 140.184 161.472C138.528 158.892 132.9 149.892 130.428 142.152C127.476 132.864 132.696 122.496 135.876 118.32C139.056 114.144 154.632 111.12 161.952 110.964C168.648 110.868 178.452 115.104 181.68 116.508C182.136 116.712 182.436 116.844 182.532 116.868L183.372 116.76C185.196 116.52 186.9 116.364 187.788 117.084C187.941 117.207 188.067 117.36 188.158 117.533C188.249 117.707 188.302 117.897 188.316 118.092C188.334 119.136 188.142 120.173 187.752 121.14C189.108 120.66 191.028 120.192 191.988 120.936C192.252 121.15 192.447 121.438 192.547 121.763C192.647 122.088 192.649 122.435 192.552 122.76C192.363 123.451 192.028 124.093 191.568 124.642C191.108 125.191 190.535 125.634 189.888 125.94C187.68 127.26 184.476 128.028 183.288 127.788C182.4 127.872 180.276 128.256 179.592 129.108C179.517 129.187 179.462 129.283 179.431 129.387C179.399 129.491 179.393 129.601 179.412 129.708C179.754 130.692 180.289 131.597 180.984 132.372C182.46 134.352 184.296 136.812 183.192 139.2C182.44 140.661 181.27 141.864 179.832 142.656C178.764 143.352 177.924 143.856 177.756 144.936C177.348 147.588 177.888 163.032 178.452 165.072C179.254 164.856 180.034 164.563 180.78 164.196C182.856 163.285 185.46 162.144 187.224 162.768C187.313 162.799 187.394 162.849 187.461 162.916C187.528 162.982 187.578 163.063 187.608 163.153C187.633 163.241 187.639 163.335 187.624 163.426C187.61 163.517 187.575 163.604 187.524 163.68C186.708 164.88 186.408 167.796 186.06 171.216L185.988 171.889C185.857 173.344 185.889 174.809 186.084 176.257C186.377 177.604 186.277 179.008 185.796 180.3C184.992 182.005 181.668 182.593 178.8 182.593ZM172.212 179.437C173.224 180.225 174.395 180.786 175.644 181.08C178.26 181.764 183.924 181.356 184.668 179.761C185.045 178.664 185.111 177.484 184.86 176.353C184.653 174.821 184.616 173.272 184.752 171.732L184.824 171.048C184.918 168.576 185.321 166.125 186.024 163.753C184.343 163.95 182.715 164.463 181.224 165.264C179.244 166.128 178.044 166.656 177.468 165.84C176.556 164.64 176.172 147.06 176.544 144.72C176.784 143.148 177.984 142.32 179.148 141.612C180.396 140.951 181.413 139.926 182.064 138.672C182.868 136.92 181.344 134.868 179.988 133.044C179.143 132.123 178.523 131.018 178.176 129.816C178.144 129.549 178.166 129.278 178.243 129.02C178.319 128.762 178.447 128.523 178.62 128.316C179.82 126.876 182.892 126.576 183.24 126.54C183.323 126.523 183.409 126.523 183.492 126.54C185.524 126.497 187.508 125.913 189.24 124.848C189.732 124.608 190.171 124.272 190.532 123.86C190.892 123.448 191.167 122.968 191.34 122.448C191.4 122.1 191.34 121.884 191.232 121.776C190.656 121.344 188.508 121.908 186.84 122.676C186.727 122.731 186.599 122.748 186.476 122.726C186.352 122.703 186.238 122.643 186.151 122.553C186.063 122.463 186.006 122.347 185.988 122.223C185.97 122.099 185.991 121.972 186.048 121.86C186.669 120.689 187.021 119.393 187.08 118.068C187.082 118.036 187.075 118.003 187.06 117.974C187.045 117.944 187.023 117.919 186.996 117.9C186.444 117.456 184.452 117.72 183.492 117.9C183.067 117.994 182.629 118.018 182.196 117.972C181.858 117.866 181.525 117.742 181.2 117.6C178.032 116.22 168.384 111.996 162 112.152C154.02 112.284 139.584 115.428 136.8 119.028C134.4 122.256 128.64 132.624 131.556 141.828C133.956 149.316 139.38 158.064 141.156 160.74C141.523 161.022 141.927 161.253 142.356 161.425H142.512C147.22 162.825 152.185 163.137 157.032 162.336C163.272 161.208 167.316 159.277 167.94 158.028C167.979 157.961 167.999 157.884 167.999 157.807C167.999 157.729 167.979 157.652 167.94 157.585C166.956 155.605 166.296 147.408 168.648 143.448C169.596 141.852 170.58 141.888 171.048 142.044C173.004 142.668 174.252 147.324 173.832 152.424C173.542 155.655 173.037 158.862 172.32 162.025C171.903 163.862 171.586 165.721 171.372 167.593C171.298 171.559 171.592 175.524 172.248 179.437H172.212Z" fill="#263238"/>
<path d="M172.617 181.897C172.617 181.897 173.241 179.089 162.321 173.941C151.401 168.793 139.845 166.597 138.441 167.221C137.037 167.845 135.477 170.821 135.477 170.821C142.768 172.116 149.854 174.376 156.549 177.541C166.065 182.341 174.177 186.589 174.177 186.589L172.617 181.897Z" fill="white"/>
<path d="M174.178 187.201C174.087 187.218 173.993 187.218 173.902 187.201C173.83 187.201 165.682 182.929 156.274 178.141C149.634 175.013 142.609 172.778 135.382 171.493C135.288 171.476 135.199 171.439 135.122 171.383C135.045 171.326 134.982 171.253 134.938 171.169C134.897 171.083 134.875 170.989 134.875 170.893C134.875 170.797 134.897 170.703 134.938 170.617C135.106 170.293 136.642 167.449 138.19 166.765C139.942 165.985 151.702 168.349 162.574 173.473C172.438 178.129 173.254 181.021 173.23 181.873L174.754 186.433C174.791 186.547 174.793 186.669 174.761 186.784C174.729 186.899 174.664 187.002 174.574 187.081C174.46 187.167 174.32 187.209 174.178 187.201ZM136.414 170.401C143.471 171.716 150.328 173.939 156.814 177.013C164.014 180.613 170.47 184.009 173.146 185.413L172.054 182.137C172.031 182.046 172.031 181.952 172.054 181.861C172.054 181.729 171.874 179.137 162.082 174.529C151.078 169.333 139.93 167.329 138.706 167.821C137.75 168.489 136.965 169.373 136.414 170.401Z" fill="#263238"/>
<path d="M178.714 189.601C177.341 186.897 175.078 184.748 172.306 183.517C167.314 181.021 162.07 175.537 141.718 171.025C137.854 170.173 136.57 170.401 135.478 170.869C133.262 172.37 131.352 174.28 129.85 176.497L128.398 178.621C128.398 178.621 141.67 178.465 150.874 181.273C160.078 184.081 181.474 192.349 181.474 192.349L178.714 189.601Z" fill="#462683"/>
<path d="M181.522 192.948C181.45 192.96 181.377 192.96 181.306 192.948C181.09 192.864 159.838 184.656 150.754 181.884C141.67 179.112 128.578 179.256 128.458 179.256C128.351 179.252 128.247 179.221 128.154 179.167C128.062 179.112 127.985 179.036 127.93 178.944C127.873 178.852 127.844 178.746 127.844 178.638C127.844 178.531 127.873 178.425 127.93 178.332L129.334 176.148C130.887 173.826 132.891 171.839 135.226 170.304C136.534 169.74 138.034 169.584 141.838 170.424C157.93 174.024 164.722 178.2 169.222 180.996C170.422 181.764 171.514 182.436 172.57 182.952C175.425 184.244 177.762 186.459 179.206 189.24L181.93 191.964C182.027 192.063 182.088 192.191 182.103 192.328C182.119 192.465 182.087 192.603 182.014 192.72C181.954 192.793 181.879 192.851 181.794 192.891C181.709 192.93 181.616 192.95 181.522 192.948ZM129.598 178.02C132.994 178.02 143.506 178.368 151.198 180.696C158.398 182.892 173.17 188.484 179.194 190.788L178.378 189.972C178.323 189.912 178.278 189.843 178.246 189.768C176.925 187.206 174.771 185.17 172.138 183.996C171.034 183.444 169.954 182.796 168.694 181.98C164.266 179.232 157.57 175.068 141.682 171.552C137.83 170.7 136.702 170.976 135.802 171.36C133.708 172.824 131.895 174.654 130.45 176.76L129.598 178.02Z" fill="#263238"/>
<path d="M226.09 323.869L239.014 336.613C239.474 337.347 239.778 338.169 239.906 339.026C240.034 339.882 239.984 340.756 239.758 341.593C239.194 343.081 228.862 351.193 226.822 352.129C224.782 353.065 223.69 350.281 223.498 349.537C223.306 348.793 222.394 346.765 222.214 346.213C222.034 345.661 217.042 340.117 215.566 335.869C214.829 333.957 214.271 331.98 213.898 329.965L226.09 323.869Z" fill="#DFADAD" stroke="#263238" stroke-linecap="round" stroke-linejoin="round"/>
<path d="M226.03 352.908C225.688 352.909 225.351 352.831 225.046 352.68C223.984 351.985 223.225 350.913 222.922 349.68C222.814 349.272 222.406 348.288 222.106 347.568C221.902 347.064 221.71 346.62 221.638 346.368C221.566 346.116 221.146 345.696 220.714 345.168C219.106 343.104 216.106 339.264 215.002 336.06C214.241 334.121 213.674 332.111 213.31 330.06C213.294 329.937 213.316 329.812 213.374 329.702C213.432 329.593 213.523 329.504 213.634 329.448L225.814 323.352C225.928 323.299 226.056 323.283 226.18 323.304C226.304 323.325 226.419 323.384 226.51 323.472C226.51 323.472 238.702 335.472 239.434 336.216C239.98 337.032 240.341 337.957 240.492 338.927C240.643 339.897 240.581 340.888 240.31 341.832C239.626 343.668 228.85 351.888 227.11 352.692C226.769 352.84 226.401 352.914 226.03 352.908ZM214.57 330.3C214.961 332.127 215.482 333.923 216.13 335.676C217.174 338.688 220.09 342.432 221.662 344.448C222.097 344.924 222.472 345.452 222.778 346.02C222.85 346.224 223.018 346.632 223.21 347.1C223.54 347.849 223.833 348.614 224.086 349.392C224.309 350.285 224.845 351.069 225.598 351.6C225.756 351.68 225.93 351.722 226.108 351.722C226.285 351.722 226.46 351.68 226.618 351.6C228.862 350.58 238.762 342.576 239.23 341.412C239.603 339.937 239.388 338.375 238.63 337.056L225.97 324.6L214.57 330.3Z" fill="#263238"/>
<path d="M80.53 332.4C81.4316 334.577 82.4573 336.701 83.602 338.76C84.19 339.336 89.77 345.312 90.346 346.848C90.922 348.384 90.346 353.592 92.47 357.444C94.594 361.296 93.238 362.832 90.922 362.064C88.606 361.296 86.878 356.676 86.878 356.676C86.878 356.676 89.002 364.38 89.386 365.724C89.77 367.068 95.554 368.616 94.582 369.96C93.61 371.304 83.41 371.892 81.106 371.7C78.802 371.508 74.554 366.108 73.21 365.34C71.866 364.572 68.41 349.932 67.426 347.232C66.442 344.532 64.918 332.832 64.918 332.832L80.53 332.4Z" fill="#DFADAD" stroke="#263238" stroke-linecap="round" stroke-linejoin="round"/>
<path d="M82.0772 372.373H81.0572C79.4492 372.229 77.4572 370.333 75.0572 367.873C74.4114 367.169 73.709 366.519 72.9572 365.929C71.9732 365.377 70.7492 361.381 68.3732 352.645C67.7492 350.329 67.1732 348.325 66.9092 347.509C65.9372 344.785 64.4372 333.421 64.3772 332.941C64.3653 332.859 64.3709 332.774 64.3936 332.693C64.4164 332.613 64.4557 332.538 64.5092 332.473C64.6236 332.347 64.7828 332.269 64.9532 332.257L80.5532 331.873C80.6726 331.869 80.7906 331.901 80.8914 331.965C80.9921 332.03 81.0709 332.123 81.1172 332.233C81.9562 334.344 82.9179 336.403 83.9972 338.401C83.9972 338.461 90.2012 344.905 90.8732 346.705C91.1117 347.606 91.2366 348.534 91.2452 349.465C91.2651 352.141 91.8499 354.783 92.9612 357.217C94.5332 360.097 94.1612 361.525 93.5972 362.221C93.2207 362.59 92.7402 362.833 92.2208 362.919C91.7013 363.005 91.168 362.929 90.6932 362.701C89.9468 362.366 89.2953 361.851 88.7972 361.201C89.3252 363.097 89.8412 365.005 89.9972 365.605C90.1052 365.965 91.4852 366.673 92.3132 367.105C93.8012 367.873 95.0852 368.545 95.3012 369.433C95.3386 369.592 95.3408 369.757 95.3076 369.917C95.2745 370.076 95.2067 370.227 95.1092 370.357C93.9452 372.001 85.2932 372.373 82.0772 372.373ZM65.6012 333.421C65.9492 335.929 67.1852 344.845 68.0012 347.077C68.3132 347.941 68.8292 349.873 69.5012 352.309C70.6292 356.461 72.7172 364.177 73.5452 364.885C74.3885 365.512 75.1646 366.223 75.8612 367.009C77.4572 368.617 79.8692 371.041 81.1652 371.149C83.9492 371.377 93.2972 370.645 94.1132 369.661C93.3955 369.044 92.5857 368.541 91.7132 368.173C90.2732 367.429 89.0372 366.781 88.7972 365.941C88.4132 364.585 86.2892 356.881 86.2892 356.881C86.2398 356.722 86.2557 356.55 86.3334 356.403C86.411 356.255 86.544 356.145 86.7032 356.095C86.8623 356.046 87.0345 356.062 87.1819 356.14C87.3293 356.217 87.4398 356.35 87.4892 356.509C87.9452 357.709 89.4932 360.985 91.1612 361.549C91.9052 361.789 92.5052 361.753 92.7572 361.441C93.0092 361.129 93.1052 359.821 91.9892 357.781C90.787 355.198 90.1528 352.387 90.1292 349.537C90.117 348.729 90.0164 347.924 89.8292 347.137C89.3492 345.829 84.1412 340.177 83.2292 339.253C82.056 337.279 81.0369 335.217 80.1812 333.085L65.6012 333.421Z" fill="#263238"/>
<path d="M87.5967 369.456C87.4985 369.456 87.4018 369.431 87.3153 369.385C87.2288 369.338 87.155 369.271 87.1005 369.189C87.046 369.107 87.0124 369.013 87.0027 368.916C86.993 368.818 87.0074 368.719 87.0447 368.628C85.5615 368.121 84.0291 367.771 82.4727 367.584C81.3936 367.51 80.3347 367.255 79.3407 366.828C78.5247 366.216 76.9407 362.268 76.2567 360.6C76.2441 360.537 76.2441 360.472 76.2567 360.408C76.1656 358.102 76.5033 355.799 77.2527 353.616C78.3447 350.7 77.8047 344.892 77.7927 344.832C77.7857 344.753 77.7941 344.674 77.8177 344.598C77.8413 344.523 77.8796 344.453 77.9303 344.392C77.981 344.331 78.0432 344.281 78.1132 344.245C78.1833 344.208 78.26 344.185 78.3387 344.178C78.4175 344.171 78.497 344.18 78.5725 344.203C78.648 344.227 78.7181 344.265 78.7788 344.316C78.8396 344.366 78.8897 344.429 78.9264 344.499C78.9631 344.569 78.9857 344.645 78.9927 344.724C78.9927 344.976 79.5687 350.868 78.3807 354.048C77.7065 356.045 77.3896 358.145 77.4447 360.252C78.1398 362.214 79.0323 364.099 80.1087 365.88C80.9651 366.106 81.8348 366.279 82.7127 366.396C86.3127 366.996 88.0527 367.38 88.3407 368.304C88.3911 368.476 88.3919 368.658 88.343 368.83C88.2942 369.002 88.1977 369.157 88.0647 369.276C88.0039 369.338 87.9307 369.385 87.85 369.416C87.7694 369.447 87.683 369.461 87.5967 369.456Z" fill="#263238"/>
<path d="M174.12 535.513C174.12 535.513 179.112 539.305 181.488 540.733C183.864 542.161 194.064 543.133 194.784 545.005C195.504 546.877 193.704 548.689 192.708 549.577C191.712 550.465 184.572 553.177 179.112 552.601C177.199 552.506 175.282 552.667 173.412 553.081C171.756 553.321 160.116 554.737 155.136 555.217C150.156 555.697 148.956 551.617 148.716 546.673C148.476 541.729 148.716 535.981 148.716 535.981L168.66 533.137L174.12 535.513Z" fill="white"/>
<path d="M154.368 555.853C153.061 555.911 151.779 555.483 150.768 554.653C149.16 553.261 148.368 550.825 148.152 546.733C147.924 541.777 148.152 536.053 148.152 535.993C148.159 535.854 148.214 535.721 148.309 535.618C148.403 535.515 148.53 535.448 148.668 535.429L168.612 532.573C168.718 532.543 168.83 532.543 168.936 532.573L174.396 534.973L174.528 535.045C174.528 535.045 179.508 538.837 181.836 540.229C183.655 540.964 185.551 541.492 187.488 541.801C192.072 542.797 194.88 543.493 195.384 544.813C196.284 547.213 193.92 549.349 193.14 550.045C191.94 551.113 184.74 553.813 179.088 553.213C177.589 553.101 176.082 553.202 174.612 553.513L173.532 553.681C171.756 553.945 160.092 555.361 155.22 555.829L154.368 555.853ZM149.304 536.509C149.304 537.997 149.124 542.581 149.304 546.637C149.484 550.321 150.18 552.565 151.5 553.717C152.001 554.115 152.582 554.401 153.203 554.557C153.824 554.712 154.471 554.732 155.1 554.617C159.96 554.161 171.588 552.733 173.352 552.481C173.688 552.481 174.036 552.385 174.396 552.313C175.974 551.985 177.59 551.884 179.196 552.013C184.632 552.589 191.472 549.901 192.336 549.133C194.04 547.609 194.664 546.337 194.244 545.221C193.944 544.417 189.732 543.517 187.224 542.965C185.162 542.637 183.148 542.061 181.224 541.249C178.956 539.893 174.456 536.449 173.868 536.029L168.624 533.749L149.304 536.509Z" fill="#263238"/>
<path d="M180.804 549.445C176.52 549.169 173.472 550.273 161.712 550.825C157.533 551.139 153.333 551.002 149.184 550.417C149.88 553.501 151.488 555.565 155.184 555.217C160.164 554.737 171.804 553.321 173.46 553.081C175.33 552.667 177.247 552.506 179.16 552.601C184.62 553.189 191.664 550.561 192.756 549.577C193.85 548.735 194.624 547.546 194.952 546.205C191.208 548.653 184.224 549.661 180.804 549.445Z" fill="white"/>
<path d="M154.342 555.852C151.282 555.852 149.398 554.112 148.594 550.548C148.571 550.452 148.573 550.352 148.6 550.257C148.628 550.163 148.679 550.077 148.75 550.008C148.817 549.937 148.899 549.883 148.992 549.852C149.084 549.82 149.182 549.812 149.278 549.828C153.388 550.404 157.548 550.536 161.686 550.224C167.566 549.948 171.286 549.528 174.022 549.216C176.282 548.88 178.568 548.756 180.85 548.844C184.186 549.048 191.002 548.064 194.578 545.712C194.673 545.651 194.784 545.617 194.897 545.615C195.01 545.614 195.121 545.644 195.218 545.703C195.315 545.762 195.393 545.847 195.443 545.949C195.493 546.05 195.514 546.164 195.502 546.276C195.186 547.778 194.332 549.114 193.102 550.032C191.902 551.1 184.702 553.8 179.05 553.2C177.552 553.088 176.045 553.189 174.574 553.5L173.494 553.668C171.718 553.932 160.054 555.348 155.182 555.816L154.342 555.852ZM149.998 551.16C150.826 553.8 152.398 554.88 155.074 554.616C159.934 554.16 171.562 552.732 173.326 552.48C173.662 552.48 174.01 552.384 174.37 552.312C175.948 551.984 177.564 551.883 179.17 552.012C184.606 552.588 191.446 549.9 192.31 549.132C192.849 548.664 193.329 548.133 193.738 547.548C189.644 549.302 185.219 550.153 180.766 550.044C178.556 549.957 176.341 550.082 174.154 550.416C171.418 550.728 167.662 551.148 161.746 551.424C157.83 551.684 153.899 551.596 149.998 551.16Z" fill="#263238"/>
<path d="M96.4766 340.189C96.4766 340.189 101.697 359.185 108.117 375.805C114.537 392.425 122.829 417.349 122.829 417.349L128.829 453.445C128.829 453.445 129.777 471.445 133.101 484.777C136.425 498.109 149.253 538.357 149.253 538.357C152.558 539.583 156.074 540.141 159.597 540.001C165.525 539.761 174.069 535.489 174.069 535.489C174.069 535.489 174.789 530.029 174.309 527.653C173.829 525.277 170.985 524.053 170.277 522.193C169.569 520.333 160.533 464.809 160.533 464.809C160.533 464.809 157.689 425.401 156.741 417.805C155.793 410.209 153.417 346.105 153.417 346.105L96.4766 340.189Z" fill="#263238"/>
<path d="M158.604 540.648C155.324 540.666 152.069 540.076 149.004 538.908C148.923 538.876 148.849 538.825 148.789 538.761C148.729 538.697 148.683 538.62 148.656 538.536C148.536 538.14 135.792 498.084 132.504 484.932C129.216 471.78 128.22 453.648 128.208 453.468L122.28 417.468C122.22 417.3 113.88 392.448 107.592 376.032C101.304 359.616 96.0003 340.536 95.9043 340.344C95.8784 340.251 95.8759 340.153 95.8968 340.059C95.9177 339.965 95.9615 339.878 96.0243 339.804C96.0862 339.73 96.1659 339.672 96.2561 339.636C96.3463 339.6 96.444 339.588 96.5403 339.6L153.528 345.528C153.673 345.543 153.807 345.609 153.906 345.715C154.006 345.821 154.063 345.959 154.068 346.104C154.068 346.74 156.468 410.268 157.38 417.756C158.292 425.244 161.16 464.4 161.184 464.796C164.784 486.996 170.376 520.62 170.892 522C171.295 522.796 171.864 523.496 172.56 524.052C173.705 524.942 174.544 526.167 174.96 527.556C175.452 529.956 174.756 535.356 174.732 535.584C174.721 535.683 174.686 535.777 174.629 535.859C174.573 535.941 174.497 536.007 174.408 536.052C174.048 536.22 165.672 540.384 159.684 540.624L158.604 540.648ZM149.676 537.9C152.865 539.036 156.242 539.553 159.624 539.424C164.76 539.22 172.044 535.824 173.568 535.116C173.912 532.692 173.98 530.236 173.772 527.796C173.396 526.653 172.686 525.65 171.732 524.916C170.896 524.244 170.223 523.39 169.764 522.42C169.056 520.524 160.92 470.616 159.996 464.94C159.996 464.484 157.128 425.4 156.192 417.9C155.28 410.64 153.132 353.208 152.88 346.668L97.2963 340.884C98.4003 344.748 103.116 361.2 108.672 375.6C115.02 392.04 123.324 416.928 123.408 417.18L129.408 453.36C129.408 453.6 130.404 471.564 133.68 484.644C136.8 497.184 148.548 534.336 149.676 537.9Z" fill="#263238"/>
<path d="M55.4607 505.477C55.4607 505.477 37.3527 508.981 32.8287 510.421C28.3047 511.861 28.3047 514.525 29.3367 519.469C30.3687 524.413 32.4207 526.873 33.2487 527.485C34.0767 528.097 34.6887 535.885 36.9447 540.853C39.2007 545.821 44.3967 555.673 49.0767 558.133C53.7567 560.593 58.9527 560.605 59.5767 559.777C60.2007 558.949 58.3767 553.201 58.3767 553.201L53.6487 537.973C53.6487 537.973 59.1567 522.961 59.9967 522.145C60.8367 521.329 64.9287 516.997 64.9287 516.997L55.4607 505.477Z" fill="white"/>
<path d="M57.2384 560.869C54.3087 560.779 51.4372 560.028 48.8384 558.673C43.5344 555.901 38.0384 544.525 36.4424 541.105C35.2096 538.011 34.3163 534.792 33.7784 531.505C33.5994 530.278 33.2979 529.072 32.8784 527.905C31.8704 527.149 29.8184 524.497 28.7864 519.565C27.8144 514.897 27.5264 511.465 32.6864 509.821C37.1984 508.381 54.6464 505.021 55.3784 504.865C55.4838 504.844 55.593 504.852 55.6943 504.888C55.7956 504.924 55.8854 504.986 55.9544 505.069L65.4224 516.589C65.5186 516.698 65.5716 516.839 65.5716 516.985C65.5716 517.131 65.5186 517.271 65.4224 517.381C65.2424 517.561 61.2944 521.725 60.4664 522.541C59.8664 523.273 56.3984 532.309 54.2984 537.973L58.9784 552.997C59.8544 555.757 60.7784 559.237 60.1184 560.113C59.7125 560.424 59.2488 560.651 58.7544 560.78C58.2599 560.91 57.7446 560.94 57.2384 560.869ZM55.1984 506.137C52.6544 506.629 37.0904 509.737 32.9864 510.937C29.1104 512.137 28.8224 514.105 29.9024 519.337C30.8624 523.933 32.7224 526.357 33.5864 526.993C34.0784 527.365 34.3064 528.349 34.8944 531.277C35.4205 534.468 36.2854 537.593 37.4744 540.601C40.6184 547.465 45.3824 555.529 49.3424 557.593C54.0224 559.993 58.5824 559.825 59.0864 559.393C59.2664 558.901 58.5464 555.865 57.7424 553.393L53.0384 538.153C52.9963 538.028 52.9963 537.893 53.0384 537.769C54.3464 534.169 58.7024 522.565 59.5544 521.713C60.2144 521.053 63.0824 518.041 64.1144 516.973L55.1984 506.137Z" fill="#263238"/>
<path d="M49.077 558.132C53.877 560.604 58.953 560.604 59.577 559.776C59.7452 559.22 59.7452 558.627 59.577 558.072C55.377 557.868 48.285 556.872 45.369 552.372C41.661 546.612 37.965 534.276 36.321 527.484C35.037 522.204 33.633 513.804 33.069 510.336L32.817 510.42C28.293 511.86 28.293 514.524 29.325 519.468C30.357 524.412 32.409 526.872 33.237 527.484C34.065 528.096 34.677 535.884 36.933 540.852C39.189 545.82 44.397 555.672 49.077 558.132Z" fill="white"/>
<path d="M57.2384 560.87C54.3087 560.78 51.4372 560.029 48.8384 558.674C43.5344 555.902 38.0384 544.526 36.4424 541.106C35.2096 538.012 34.3163 534.793 33.7784 531.506C33.5994 530.279 33.2979 529.073 32.8784 527.906C31.8704 527.15 29.8184 524.498 28.7864 519.566C27.8144 514.898 27.5264 511.466 32.6864 509.822L32.9504 509.738C33.0327 509.713 33.1193 509.707 33.2043 509.719C33.2894 509.732 33.3706 509.762 33.4424 509.81C33.5845 509.904 33.6837 510.051 33.7184 510.218C34.2584 513.602 35.6744 522.05 36.9464 527.318C38.3984 533.318 42.1304 546.134 45.9224 552.026C48.5264 556.082 54.8264 557.21 59.6504 557.45C59.7879 557.456 59.9191 557.51 60.0218 557.602C60.1245 557.693 60.1925 557.818 60.2144 557.954C60.4064 559.154 60.3704 559.742 60.0944 560.114C59.8184 560.486 58.6664 560.87 57.2384 560.87ZM32.6024 511.13C29.1224 512.33 28.8824 514.346 29.9264 519.35C30.8864 523.946 32.7464 526.37 33.6104 527.006C34.1024 527.378 34.3304 528.362 34.9184 531.29C35.4445 534.481 36.3094 537.606 37.4984 540.614C40.6424 547.478 45.4064 555.542 49.3664 557.606C54.0224 560.006 58.5584 559.838 59.1104 559.406C59.1104 559.406 59.1104 559.214 59.1104 558.65C54.0704 558.338 47.7104 557.042 44.9264 552.65C41.0504 546.65 37.2584 533.618 35.7944 527.582C34.5344 522.65 33.2144 514.874 32.6024 511.13Z" fill="#263238"/>
<path d="M114.995 345.41C114.995 345.41 121.883 354.434 122.603 355.622C123.323 356.81 128.291 401.918 128.771 406.43C129.037 410.065 129.037 413.714 128.771 417.35C128.771 417.35 112.079 434.006 101.159 447.602C90.2393 461.198 54.6953 504.866 54.6953 504.866L70.2953 529.154C70.2953 529.154 89.7953 513.554 103.775 500.198C125.903 479.114 146.723 456.818 148.175 455.63C149.627 454.442 159.203 444.266 159.911 441.422C160.619 438.578 168.239 398.654 170.855 385.838C173.471 373.022 177.023 338.354 177.023 338.354L111.731 340.01" fill="#263238"/>
<path d="M70.2601 529.694H70.1641C69.997 529.659 69.8504 529.56 69.7561 529.418L54.1561 505.13C54.0802 505.03 54.0391 504.907 54.0391 504.782C54.0391 504.656 54.0802 504.534 54.1561 504.434C54.5161 503.99 89.8201 460.538 100.62 447.158C110.868 434.462 126.372 418.838 128.112 417.086C128.373 413.563 128.373 410.025 128.112 406.502C127.296 398.714 122.7 357.686 122.004 355.886C121.476 355.022 116.844 348.89 114.468 345.782C114.414 345.72 114.373 345.648 114.348 345.57C114.323 345.492 114.314 345.41 114.322 345.328C114.33 345.247 114.355 345.168 114.394 345.096C114.434 345.024 114.488 344.962 114.553 344.912C114.618 344.862 114.692 344.825 114.771 344.805C114.851 344.785 114.933 344.781 115.014 344.794C115.095 344.807 115.173 344.836 115.242 344.88C115.311 344.924 115.37 344.982 115.416 345.05C115.704 345.422 122.328 354.11 123.048 355.322C123.912 356.75 129.252 405.878 129.312 406.37C129.574 410.041 129.574 413.726 129.312 417.398C129.301 417.543 129.237 417.68 129.132 417.782C128.964 417.95 112.332 434.582 101.532 447.914C91.2361 460.67 58.6681 500.714 55.3321 504.854L70.3081 528.206C73.5001 525.626 90.7081 511.634 103.224 499.694C119.076 484.61 134.052 469.094 142.104 460.754C145.392 457.346 147.204 455.474 147.636 455.114C149.316 453.71 158.532 443.774 159.18 441.218C159.552 439.706 161.916 427.55 164.412 414.674C166.62 403.346 168.9 391.622 170.112 385.658C172.512 374.006 175.692 343.826 176.208 338.858L111.6 340.502C111.521 340.505 111.443 340.493 111.369 340.465C111.295 340.438 111.227 340.397 111.169 340.343C111.111 340.29 111.064 340.225 111.031 340.154C110.998 340.082 110.979 340.005 110.976 339.926C110.976 339.766 111.037 339.613 111.146 339.497C111.255 339.381 111.405 339.311 111.564 339.302L176.856 337.646C176.942 337.64 177.028 337.654 177.107 337.688C177.186 337.721 177.256 337.772 177.312 337.838C177.372 337.899 177.417 337.973 177.444 338.054C177.471 338.135 177.479 338.221 177.468 338.306C177.468 338.654 173.868 373.106 171.288 385.85C170.088 391.85 167.796 403.526 165.6 414.854C163.092 427.742 160.728 439.922 160.332 441.458C159.552 444.59 149.532 455.03 148.404 455.99C148.02 456.302 145.896 458.498 142.968 461.534C134.916 469.934 119.916 485.414 104.052 500.522C90.2161 513.722 70.7401 529.322 70.5361 529.514C70.4656 529.602 70.3689 529.665 70.2601 529.694Z" fill="#263238"/>
<path d="M129.85 176.4C129.85 176.4 118.306 182.484 112.222 185.448C106.138 188.412 85.8215 194.508 83.8055 197.784C81.7895 201.06 82.0895 206.184 82.0895 206.184C82.0895 206.184 62.1695 261.024 61.6895 270.588C61.2095 280.152 63.1535 334.572 63.1535 334.572C63.1535 334.572 64.6295 336.768 72.4775 336.528C80.3255 336.288 83.5055 334.812 83.5055 334.812C83.5055 334.812 87.4295 279.9 88.1615 276.708C88.6396 274.693 89.2982 272.725 90.1295 270.828L98.6975 253.668C98.6975 253.668 101.65 271.32 101.65 272.052C101.65 272.784 85.4615 338.976 85.4615 338.976C85.4615 338.976 85.4615 343.392 114.142 347.376C142.822 351.36 167.83 353.748 169.054 353.748C170.278 353.748 176.902 342.72 176.902 342.72C176.902 342.72 178.618 348.84 178.102 349.584C177.586 350.328 183.01 348.384 184.234 347.376L189.13 343.452C189.13 343.452 181.534 301.284 181.534 298.104C181.534 294.924 183.502 283.392 183.502 283.392L211.93 335.364C211.93 335.364 211.93 336.096 218.794 332.172C222.6 330.093 226.071 327.452 229.09 324.336L206.05 267.708C206.05 267.708 200.661 205.188 200.17 202.008C199.678 198.828 200.902 198.084 197.962 196.608C195.022 195.132 181.509 192.348 181.509 192.348C181.509 192.348 159.262 183.828 150.91 181.272C142.558 178.716 129.85 176.4 129.85 176.4Z" fill="#462683"/>
<path d="M169.042 354.349C167.614 354.349 141.958 351.781 114.058 347.965C86.158 344.149 84.85 339.865 84.85 339.037C84.8442 338.989 84.8442 338.94 84.85 338.893C90.358 316.345 100.834 273.337 101.014 272.065C101.014 271.513 99.526 262.525 98.374 255.649L90.646 271.201C89.866 273.048 89.2476 274.959 88.798 276.913C88.078 280.009 84.19 334.369 84.154 334.909C84.1479 335.016 84.1122 335.121 84.0508 335.209C83.9894 335.298 83.9047 335.369 83.806 335.413C83.674 335.485 80.422 336.937 72.538 337.189C64.654 337.441 62.938 335.209 62.71 334.957C62.6476 334.864 62.6104 334.756 62.602 334.645C62.602 334.105 60.646 280.093 61.138 270.613C61.63 261.133 80.278 209.653 81.538 206.161C81.538 205.309 81.394 200.653 83.35 197.497C84.67 195.361 91.858 192.601 101.854 188.929C105.994 187.405 109.906 185.965 112.006 184.945C118.006 182.017 129.502 175.969 129.622 175.897C129.746 175.85 129.882 175.85 130.006 175.897C130.138 175.897 142.858 178.213 151.15 180.697C159.442 183.181 181.558 191.713 181.786 191.797C182.242 191.881 195.31 194.593 198.286 196.081C200.59 197.281 200.686 198.133 200.686 199.765C200.673 200.483 200.717 201.201 200.818 201.913C201.298 205.057 206.386 263.941 206.698 267.565L229.714 324.109C229.754 324.211 229.764 324.322 229.745 324.43C229.726 324.538 229.678 324.638 229.606 324.721C226.55 327.898 223.025 330.59 219.154 332.701C212.614 336.433 212.05 336.109 211.714 335.917C211.613 335.85 211.531 335.759 211.474 335.653L183.874 285.253C183.334 288.577 182.206 295.777 182.206 298.153C182.206 300.529 187.174 328.825 189.802 343.393C189.819 343.499 189.808 343.608 189.77 343.709C189.732 343.81 189.669 343.899 189.586 343.969L184.678 347.893C183.97 348.457 178.678 350.989 177.754 350.197C177.675 350.144 177.608 350.076 177.557 349.996C177.506 349.916 177.472 349.827 177.457 349.733C177.442 349.639 177.447 349.544 177.472 349.452C177.496 349.36 177.539 349.275 177.598 349.201C177.463 347.499 177.145 345.818 176.65 344.185C172.594 350.953 170.026 354.349 169.042 354.349ZM86.062 339.061C86.242 339.397 88.69 343.285 114.214 346.777C143.146 350.737 167.938 353.149 169.042 353.149C169.774 352.789 173.386 347.401 176.374 342.349C176.436 342.248 176.525 342.167 176.631 342.116C176.738 342.065 176.857 342.046 176.974 342.061C177.09 342.076 177.198 342.125 177.286 342.202C177.373 342.279 177.436 342.38 177.466 342.493C178.153 344.603 178.596 346.785 178.786 348.997C180.569 348.506 182.279 347.784 183.874 346.849L188.494 343.141C187.714 338.797 180.946 301.141 180.946 298.045C180.946 294.949 182.842 283.705 182.914 283.237C182.935 283.114 182.993 283 183.081 282.912C183.17 282.824 183.283 282.765 183.406 282.745C183.528 282.72 183.656 282.736 183.768 282.79C183.881 282.845 183.973 282.934 184.03 283.045L212.302 334.801C214.467 333.965 216.544 332.92 218.506 331.681C222.134 329.665 225.465 327.157 228.406 324.229L205.51 267.949C205.503 267.893 205.503 267.836 205.51 267.781C205.51 267.157 200.11 205.249 199.63 202.129C199.518 201.334 199.47 200.531 199.486 199.729C199.486 198.361 199.486 198.001 197.758 197.125C194.914 195.709 181.582 192.949 181.45 192.913C181.126 192.805 159.034 184.345 150.802 181.825C143.146 179.485 131.662 177.337 129.994 177.025C128.494 177.817 118.138 183.253 112.522 185.989C110.374 187.045 106.438 188.485 102.262 190.021C95.218 192.601 85.582 196.141 84.37 198.097C82.462 201.181 82.738 206.125 82.738 206.173C82.7505 206.252 82.7505 206.333 82.738 206.413C82.546 206.965 62.842 261.277 62.338 270.637C61.87 279.757 63.67 330.577 63.802 334.357C64.222 334.729 66.202 336.157 72.502 335.953C76.0512 335.968 79.5827 335.451 82.978 334.417C83.362 329.161 86.914 279.697 87.622 276.601C88.1101 274.545 88.7807 272.537 89.626 270.601L98.218 253.417C98.2747 253.304 98.3655 253.212 98.4775 253.154C98.5896 253.095 98.7171 253.074 98.842 253.093C98.9664 253.113 99.0816 253.171 99.1718 253.259C99.262 253.347 99.3229 253.461 99.346 253.585C99.838 256.537 102.298 271.321 102.298 272.065C102.298 272.809 89.902 323.377 86.062 339.061Z" fill="#263238"/>
<path d="M98.6977 253.728L90.5977 210.336L94.0297 262.068L98.6977 253.728Z" fill="#263238"/>
<path d="M94.0288 262.669H93.8968C93.7711 262.637 93.6585 262.566 93.5746 262.467C93.4907 262.368 93.4398 262.246 93.4288 262.117L89.9968 210.385C89.9894 210.232 90.0395 210.082 90.1372 209.964C90.2349 209.846 90.3732 209.769 90.5248 209.749C90.6765 209.73 90.8296 209.769 90.954 209.858C91.0783 209.947 91.165 210.079 91.1968 210.229L99.2848 253.621C99.309 253.761 99.2835 253.905 99.2128 254.029L94.5568 262.357C94.504 262.45 94.4274 262.529 94.3347 262.583C94.242 262.638 94.1365 262.668 94.0288 262.669ZM91.8688 220.429L94.4968 260.029L98.0968 253.657L91.8688 220.429Z" fill="#263238"/>
<path d="M139.87 241.585C139.783 241.585 139.697 241.565 139.618 241.528C139.539 241.491 139.469 241.436 139.414 241.369C138.122 239.815 137.004 238.125 136.078 236.329C136.026 236.191 136.026 236.04 136.078 235.903C136.13 235.765 136.231 235.652 136.361 235.584C136.491 235.516 136.642 235.498 136.784 235.533C136.927 235.569 137.051 235.656 137.134 235.777C138.023 237.486 139.093 239.096 140.326 240.577C140.382 240.631 140.426 240.697 140.457 240.769C140.487 240.841 140.503 240.918 140.503 240.997C140.503 241.075 140.487 241.152 140.457 241.224C140.426 241.297 140.382 241.362 140.326 241.417C140.265 241.474 140.194 241.518 140.115 241.547C140.037 241.576 139.954 241.589 139.87 241.585Z" fill="#263238"/>
<path d="M135.454 234.253C135.337 234.253 135.223 234.219 135.125 234.155C135.027 234.091 134.949 234 134.902 233.893C129.298 221.233 128.734 203.425 128.734 203.245C128.733 203.166 128.747 203.088 128.776 203.014C128.804 202.941 128.847 202.874 128.902 202.817C128.956 202.76 129.022 202.715 129.094 202.683C129.166 202.651 129.244 202.634 129.322 202.633C129.48 202.636 129.63 202.698 129.744 202.807C129.857 202.916 129.925 203.064 129.934 203.221C129.934 203.389 130.498 220.957 135.934 233.413C135.968 233.484 135.987 233.562 135.991 233.641C135.994 233.72 135.981 233.799 135.953 233.873C135.925 233.947 135.882 234.014 135.828 234.071C135.773 234.128 135.707 234.174 135.634 234.205C135.577 234.23 135.517 234.246 135.454 234.253Z" fill="#263238"/>
<path d="M131.782 233.496C131.677 233.496 131.574 233.468 131.484 233.415C131.393 233.362 131.318 233.287 131.266 233.196C128.499 228.303 126.416 223.055 125.074 217.596C125.056 217.519 125.054 217.439 125.067 217.361C125.081 217.283 125.109 217.208 125.152 217.141C125.194 217.074 125.249 217.016 125.314 216.971C125.379 216.925 125.452 216.893 125.53 216.876C125.606 216.859 125.685 216.857 125.763 216.87C125.84 216.884 125.914 216.913 125.98 216.955C126.046 216.997 126.103 217.053 126.147 217.118C126.191 217.182 126.222 217.255 126.238 217.332C127.556 222.677 129.598 227.817 132.31 232.608C132.384 232.747 132.402 232.91 132.36 233.062C132.317 233.214 132.218 233.344 132.082 233.424C131.991 233.477 131.887 233.502 131.782 233.496Z" fill="#263238"/>
<path d="M125.842 291.66C125.708 291.657 125.579 291.611 125.473 291.529C125.367 291.447 125.29 291.333 125.254 291.204C125.218 291.048 125.244 290.884 125.327 290.747C125.41 290.611 125.543 290.512 125.698 290.472C135.214 288.072 147.394 285.12 154.018 283.692C150.934 283.836 146.626 284.148 142.618 284.484C142.459 284.497 142.302 284.446 142.18 284.342C142.058 284.239 141.983 284.091 141.97 283.932C141.958 283.773 142.009 283.615 142.112 283.494C142.216 283.372 142.363 283.297 142.522 283.284C158.89 281.904 158.962 282.432 159.058 283.092C159.154 283.752 158.566 283.992 156.178 284.472C150.298 285.672 136.51 289.02 125.986 291.672L125.842 291.66Z" fill="#263238"/>
<path d="M114.383 294.53C114.305 294.539 114.225 294.533 114.148 294.511C114.072 294.49 114 294.454 113.938 294.405C113.876 294.356 113.823 294.295 113.785 294.226C113.746 294.157 113.721 294.08 113.711 294.002C113.702 293.923 113.708 293.843 113.729 293.767C113.751 293.69 113.787 293.619 113.836 293.556C113.885 293.494 113.946 293.442 114.015 293.403C114.084 293.364 114.161 293.339 114.239 293.33L119.411 292.022C119.566 291.986 119.728 292.012 119.863 292.095C119.998 292.178 120.094 292.312 120.131 292.466C120.151 292.541 120.155 292.62 120.144 292.698C120.133 292.775 120.107 292.849 120.067 292.916C120.026 292.983 119.973 293.042 119.91 293.088C119.847 293.134 119.775 293.167 119.699 293.186L114.527 294.494L114.383 294.53Z" fill="#263238"/>
<path d="M183.513 283.393C183.513 283.393 177.873 274.081 177.381 271.873C176.889 269.665 172.965 245.641 172.965 245.641C172.965 245.641 175.665 283.885 176.649 289.033C177.448 292.437 179.138 295.568 181.545 298.105L183.513 283.393Z" fill="#263238"/>
<path d="M181.548 298.704C181.469 298.705 181.391 298.689 181.319 298.658C181.246 298.627 181.181 298.582 181.128 298.524C178.627 295.908 176.878 292.666 176.064 289.14C175.08 284.016 172.464 247.248 172.368 245.688C172.358 245.609 172.364 245.529 172.386 245.453C172.407 245.377 172.443 245.305 172.492 245.243C172.541 245.18 172.602 245.128 172.671 245.089C172.741 245.05 172.817 245.025 172.896 245.016C172.974 245.007 173.054 245.013 173.131 245.034C173.207 245.056 173.279 245.092 173.341 245.141C173.403 245.19 173.455 245.251 173.494 245.32C173.533 245.389 173.558 245.465 173.568 245.544C173.568 245.784 177.492 269.544 177.972 271.74C178.356 273.468 182.472 280.512 183.972 283.08C184.047 283.198 184.076 283.338 184.056 283.476L182.1 298.176C182.084 298.288 182.037 298.393 181.965 298.48C181.893 298.566 181.798 298.632 181.692 298.668C181.646 298.687 181.597 298.699 181.548 298.704ZM174.54 258.888C175.416 270.456 176.652 285.828 177.24 288.888C177.891 291.759 179.225 294.43 181.128 296.676L182.892 283.476C182.076 282.12 177.276 274.08 176.796 271.956C176.556 270.936 175.548 264.9 174.54 258.888Z" fill="#263238"/>
<path d="M171.503 240.853C171.366 240.853 171.233 240.807 171.126 240.722C171.019 240.637 170.945 240.518 170.915 240.385C170.915 240.385 170.447 238.357 169.919 235.297C169.905 235.218 169.908 235.137 169.925 235.059C169.943 234.981 169.976 234.908 170.022 234.842C170.069 234.777 170.127 234.722 170.195 234.679C170.263 234.637 170.338 234.608 170.417 234.595C170.496 234.581 170.576 234.583 170.654 234.601C170.732 234.619 170.806 234.652 170.871 234.698C170.936 234.744 170.992 234.803 171.034 234.871C171.077 234.938 171.105 235.014 171.119 235.093C171.647 238.117 172.103 240.097 172.103 240.109C172.122 240.185 172.126 240.265 172.114 240.343C172.102 240.421 172.075 240.496 172.034 240.563C171.992 240.63 171.938 240.688 171.873 240.734C171.809 240.779 171.736 240.812 171.659 240.829L171.503 240.853Z" fill="#263238"/>
<path d="M169.931 232.178C169.786 232.176 169.646 232.124 169.536 232.03C169.426 231.935 169.354 231.805 169.331 231.662C168.292 225.245 167.998 218.73 168.455 212.246C169.655 199.958 179.579 197.282 179.687 197.258C179.763 197.238 179.843 197.233 179.921 197.244C179.999 197.255 180.074 197.281 180.142 197.322C180.21 197.362 180.27 197.415 180.317 197.478C180.365 197.541 180.399 197.613 180.419 197.69C180.456 197.844 180.431 198.006 180.351 198.143C180.27 198.279 180.14 198.379 179.987 198.422C179.615 198.518 170.807 200.93 169.643 212.366C169.205 218.754 169.499 225.172 170.519 231.494C170.54 231.651 170.499 231.81 170.405 231.937C170.311 232.065 170.171 232.151 170.015 232.178H169.931Z" fill="#263238"/>
<path d="M168.551 229.573C168.433 229.571 168.318 229.535 168.22 229.469C168.122 229.403 168.046 229.31 167.999 229.201C166.557 223.534 165.729 217.729 165.527 211.885C165.527 211.726 165.591 211.573 165.703 211.461C165.816 211.348 165.968 211.285 166.127 211.285C166.286 211.285 166.439 211.348 166.552 211.461C166.664 211.573 166.727 211.726 166.727 211.885C166.92 217.622 167.724 223.323 169.127 228.889C169.151 228.965 169.159 229.044 169.152 229.123C169.144 229.202 169.12 229.279 169.082 229.348C169.044 229.418 168.992 229.479 168.93 229.528C168.867 229.577 168.796 229.613 168.719 229.633L168.551 229.573Z" fill="#263238"/>
</svg>
