<svg width="460" height="460" viewBox="0 0 460 460" fill="none" xmlns="http://www.w3.org/2000/svg">
<path d="M351.783 102.259C351.783 102.259 309.656 64.5852 250.39 73.086C191.124 81.5868 144.811 127.532 106.3 163.761C67.7884 199.991 61.882 250.398 90.4848 286.121C119.088 321.845 156.154 301.467 208.337 320.998C260.519 340.53 271.449 353.658 325.894 341.597C380.34 329.536 415.539 262.983 402.089 197.645C388.638 132.306 351.783 102.259 351.783 102.259Z" fill="#462683"/>
<path d="M351.783 102.259C351.783 102.259 309.656 64.5852 250.39 73.086C191.124 81.5868 144.811 127.532 106.3 163.761C67.7884 199.991 61.882 250.398 90.4848 286.121C119.088 321.845 156.154 301.467 208.337 320.998C260.519 340.53 271.449 353.658 325.894 341.597C380.34 329.536 415.539 262.983 402.089 197.645C388.638 132.306 351.783 102.259 351.783 102.259Z" fill="#FAB748"/>
<path d="M359.161 222.925C354.984 220.652 353.08 222.548 351.562 220.652C350.044 218.757 355.748 213.808 344.34 208.867C344.34 208.867 343.586 198.232 328.001 197.827C312.416 197.422 316.602 208.472 312.425 211.13C308.248 213.789 307.108 209.612 302.922 212.271C298.736 214.93 300.64 220.248 297.227 221.011C293.814 221.775 289.241 217.589 285.064 220.248C280.888 222.906 280.878 225.188 278.983 225.188C277.088 225.188 273.279 223.67 271.007 225.188C268.734 226.706 266.066 228.61 266.066 228.61H362.206C362.206 228.61 363.347 225.206 359.161 222.925Z" fill="#462683"/>
<path d="M359.161 222.925C354.984 220.652 353.08 222.548 351.562 220.652C350.044 218.757 355.748 213.808 344.34 208.867C344.34 208.867 343.586 198.232 328.001 197.827C312.416 197.422 316.602 208.472 312.425 211.13C308.248 213.789 307.108 209.612 302.922 212.271C298.736 214.93 300.64 220.248 297.227 221.011C293.814 221.775 289.241 217.589 285.064 220.248C280.888 222.906 280.878 225.188 278.983 225.188C277.088 225.188 273.279 223.67 271.007 225.188C268.734 226.706 266.066 228.61 266.066 228.61H362.206C362.206 228.61 363.347 225.206 359.161 222.925Z" fill="white"/>
<path d="M334.429 90.003C328.596 86.8106 325.937 89.4694 323.812 86.8106C321.687 84.1518 329.654 77.2794 313.72 70.3518C313.72 70.3518 312.662 55.4846 290.885 54.951C269.109 54.4174 274.96 69.8182 269.118 73.535C263.276 77.2518 261.675 71.4098 255.843 75.1266C250.01 78.8434 252.65 86.2862 247.875 87.3442C243.101 88.4022 236.716 82.5602 230.92 86.2862C225.124 90.0122 225.078 93.1862 222.419 93.1862C219.76 93.1862 214.452 91.061 211.269 93.1862C208.085 95.3114 204.359 97.961 204.359 97.961H338.679C338.679 97.961 340.271 93.1862 334.429 90.003Z" fill="#462683"/>
<path d="M334.429 90.003C328.596 86.8106 325.937 89.4694 323.812 86.8106C321.687 84.1518 329.654 77.2794 313.72 70.3518C313.72 70.3518 312.662 55.4846 290.885 54.951C269.109 54.4174 274.96 69.8182 269.118 73.535C263.276 77.2518 261.675 71.4098 255.843 75.1266C250.01 78.8434 252.65 86.2862 247.875 87.3442C243.101 88.4022 236.716 82.5602 230.92 86.2862C225.124 90.0122 225.078 93.1862 222.419 93.1862C219.76 93.1862 214.452 91.061 211.269 93.1862C208.085 95.3114 204.359 97.961 204.359 97.961H338.679C338.679 97.961 340.271 93.1862 334.429 90.003Z" fill="white"/>
<path d="M180.983 157.89C176.806 155.609 174.902 157.513 173.384 155.609C171.866 153.704 177.561 148.773 166.162 143.833C166.162 143.833 165.398 133.188 149.823 132.793C134.247 132.397 138.424 143.437 134.238 146.096C130.052 148.755 128.92 144.578 124.743 147.237C120.567 149.895 122.462 155.213 119.039 155.977C115.617 156.74 111.063 152.554 106.877 155.213C102.691 157.872 102.7 160.153 100.796 160.153C98.8913 160.153 95.1009 158.635 92.8193 160.153C90.5377 161.671 87.8789 163.576 87.8789 163.576H184.001C184.001 163.576 185.16 160.172 180.983 157.89Z" fill="#462683"/>
<path d="M180.983 157.89C176.806 155.609 174.902 157.513 173.384 155.609C171.866 153.704 177.561 148.773 166.162 143.833C166.162 143.833 165.398 133.188 149.823 132.793C134.247 132.397 138.424 143.437 134.238 146.096C130.052 148.755 128.92 144.578 124.743 147.237C120.567 149.895 122.462 155.213 119.039 155.977C115.617 156.74 111.063 152.554 106.877 155.213C102.691 157.872 102.7 160.153 100.796 160.153C98.8913 160.153 95.1009 158.635 92.8193 160.153C90.5377 161.671 87.8789 163.576 87.8789 163.576H184.001C184.001 163.576 185.16 160.172 180.983 157.89Z" fill="white"/>
<path d="M222.897 330.803H223.615C225.059 330.748 228.215 330.646 229.079 330.646C230.165 330.646 231.987 333.011 230.349 335.191C228.711 337.372 227.589 339.92 225.261 340.463C222.934 341.006 223.256 342.468 221.581 344.281C219.907 346.093 215.399 346.47 213.035 345.918C210.67 345.366 212.851 333.554 213.219 333.038C213.587 332.523 217.616 335.173 222.897 330.803Z" fill="white" stroke="#263238" stroke-width="0.761667" stroke-linecap="round" stroke-linejoin="round"/>
<path d="M225.26 340.445C227.624 339.902 228.71 337.353 230.348 335.173C230.681 334.757 230.897 334.259 230.971 333.732C231.046 333.204 230.977 332.666 230.771 332.174C230.154 334.371 228.937 336.352 227.256 337.896C225.619 339.175 224.349 338.448 223.438 339.534C222.528 340.619 221.598 342.809 216.888 342.809C215.234 342.84 213.583 342.639 211.984 342.211C211.984 344.171 212.251 345.716 213.07 345.891C215.434 346.443 219.979 346.075 221.617 344.253C223.254 342.432 222.896 340.987 225.26 340.445Z" fill="white" stroke="#263238" stroke-width="0.761667" stroke-linecap="round" stroke-linejoin="round"/>
<path d="M253.994 337.538C253.994 337.538 253.451 344.088 253.81 345.358C254.169 346.627 257.812 347.906 259.818 347.538C261.823 347.17 265.457 344.631 265.457 344.631C265.457 344.631 273.461 341.54 276.369 339.718C279.276 337.897 280.187 335.716 278.006 335.173C275.826 334.631 268.549 333.168 266.368 332.625C264.188 332.082 264.179 334.079 259.45 335.173C254.721 336.268 253.994 337.538 253.994 337.538Z" fill="white" stroke="#263238" stroke-width="0.761667" stroke-linecap="round" stroke-linejoin="round"/>
<path d="M276.92 337.538C272.65 339.968 268.214 342.096 263.645 343.904C260.465 345.213 256.903 345.246 253.699 343.996C253.696 344.453 253.736 344.909 253.819 345.358C254.187 346.627 257.821 347.906 259.827 347.538C261.832 347.17 265.466 344.631 265.466 344.631C265.466 344.631 273.47 341.54 276.377 339.718C278.861 338.163 279.883 336.351 278.769 335.514C278.333 336.333 277.697 337.029 276.92 337.538Z" fill="white" stroke="#263238" stroke-width="0.761667" stroke-linecap="round" stroke-linejoin="round"/>
<path d="M221.949 209.198C221.949 209.198 219.879 220.799 219.143 227.304C218.407 233.808 216.678 249.973 216.678 257.71C216.678 265.447 216.199 279.495 216.199 279.495C216.199 279.495 215.491 285.126 214.267 290.213C213.044 295.301 212.51 304.979 212.685 309.727C212.86 314.474 212.86 327.648 212.86 327.648C212.763 329.18 212.763 330.716 212.86 332.248C213.034 334.005 213.384 336.112 215.141 336.112C216.898 336.112 220.063 336.112 221.296 335.063C222.883 333.536 223.825 331.459 223.927 329.258C224.102 326.627 224.847 317.657 224.985 315.55C225.123 313.443 231.315 287.435 232.014 281.989C232.713 276.542 233.072 273.552 233.072 273.552L239.567 239.457L241.508 239.807C241.508 239.807 252.548 281.28 252.548 284.095C252.548 286.911 251.316 299.735 252.723 306.939C254.131 314.143 253.919 338.725 253.919 338.725C254.626 339.494 255.539 340.044 256.55 340.307C258.133 340.657 262.705 339.599 264.462 336.793C266.22 333.987 266.919 328.881 266.919 327.473C266.919 326.066 268.501 297.251 268.501 289.864C268.501 282.476 267.802 273.525 267.802 272.816C267.802 272.108 266.045 238.73 265.52 235.74C264.996 232.75 259.016 208.499 259.016 208.499C259.016 208.499 240.754 213.945 221.949 209.198Z" fill="#263238" stroke="#263238" stroke-width="0.761667" stroke-linecap="round" stroke-linejoin="round"/>
<path d="M206.485 183.364C206.485 183.364 204.203 189.169 203.854 192.15C203.504 195.131 205.436 200.587 207.193 201.645C208.951 202.703 214.747 200.412 215.63 199.004C216.513 197.597 220.543 188.461 220.543 188.461C215.484 188.056 210.628 186.295 206.485 183.364Z" fill="#DFADAD" stroke="#263238" stroke-width="0.761667" stroke-linecap="round" stroke-linejoin="round"/>
<path d="M262.08 186.916L255.152 217.635H259.67L266.303 186.309L262.08 186.916Z" fill="#263238" stroke="#263238" stroke-width="0.761667" stroke-linecap="round" stroke-linejoin="round"/>
<path d="M267.718 162.71C267.718 162.71 271.03 162.112 271.932 162.71C272.833 163.308 272.852 166.326 272.852 167.531C272.852 168.736 271.932 172.048 272.254 173.557C272.576 175.066 277.682 182.187 279.789 186.713C281.895 191.239 279.191 198.452 276.78 201.433C274.37 204.414 269.54 193.705 268.031 190.089C266.522 186.474 264.121 164.182 264.121 164.182L267.718 162.71Z" fill="#DFADAD" stroke="#263238" stroke-width="0.761667" stroke-linecap="round" stroke-linejoin="round"/>
<path d="M274.158 181.46C274.158 181.46 278.942 189.639 279.117 192.279C279.291 194.92 278.059 200.559 276.835 202.473C275.611 204.386 272.447 202.74 270.156 201.507C268.035 200.444 266.354 198.669 265.409 196.493C264.351 194.211 261.508 188.489 261.508 188.489C261.508 188.489 269.245 186.382 274.158 181.46Z" fill="#DFADAD" stroke="#263238" stroke-width="0.761667" stroke-linecap="round" stroke-linejoin="round"/>
<path d="M231.084 147.199C228.871 147.718 226.743 148.548 224.763 149.665C221.773 151.422 217.026 154.937 215.444 157.743C213.861 160.549 209.123 172.683 206.832 177.256C204.542 181.828 203.852 183.401 203.852 183.401C203.852 183.401 206.612 187.449 210.347 189.032C214.082 190.614 220.54 190.964 220.54 190.964C220.54 190.964 221.46 208.885 221.948 211.526C222.436 214.166 228.452 215.739 237.238 216.126C246.024 216.512 258.325 213.32 259.907 211.526C261.49 209.732 259.383 190.964 259.383 190.964C262.241 190.543 265.062 189.897 267.819 189.032C271.334 187.799 275.906 181.819 275.906 181.819C275.906 181.819 269.576 166.354 268.344 163.723C267.111 161.091 267.994 160.043 263.072 156.519C259.93 154.308 256.574 152.418 253.053 150.879C253.053 150.879 245.693 147.365 239.52 146.666C233.347 145.967 231.084 147.199 231.084 147.199Z" fill="white" stroke="#263238" stroke-width="0.761667" stroke-linecap="round" stroke-linejoin="round"/>
<path d="M256.569 123.28C256.569 123.28 258.501 124.338 258.501 125.396C258.501 126.454 256.395 128.735 256.395 128.735C256.583 130.367 256.583 132.016 256.395 133.648C256.045 135.405 257.802 137.328 256.395 138.57C254.987 139.812 250.773 139.803 250.773 139.803L249.541 147.54L233.726 145.424L233.201 140.502C233.201 140.502 228.979 136.988 227.571 133.142C226.163 129.296 226.347 128.22 226.651 125.782C226.955 123.344 229.641 118.22 234.931 116.996C239.559 115.89 244.389 115.95 248.989 117.171C252.705 118.164 256.569 123.28 256.569 123.28Z" fill="#DFADAD" stroke="#263238" stroke-width="0.761667" stroke-linecap="round" stroke-linejoin="round"/>
<path d="M249.52 135.432V135.387V135.432Z" fill="white" stroke="#263238" stroke-width="0.761667" stroke-linecap="round" stroke-linejoin="round"/>
<path d="M244.977 139.435C246.9 138.652 248.501 137.242 249.521 135.433C249.457 135.562 249.181 135.921 248.316 135.921C247.258 135.921 244.793 133.989 244.093 132.241C243.394 130.493 245.151 128.367 246.375 128.367C247.598 128.367 249.365 130.833 250.772 129.95C252.18 129.067 252.005 125.212 252.005 125.212C252.353 123.435 252.883 121.7 253.588 120.032C252.288 118.736 250.717 117.743 248.988 117.125C244.388 115.905 239.558 115.845 234.93 116.95C229.659 118.174 227.018 123.271 226.65 125.736C226.282 128.202 226.126 129.251 227.57 133.096C229.015 136.942 233.201 140.456 233.201 140.456C236.181 140.668 241.637 140.843 244.977 139.435Z" fill="#263238" stroke="#263238" stroke-width="0.761667" stroke-linecap="round" stroke-linejoin="round"/>
<path d="M225.996 149.094C225.996 149.094 229.152 143.997 230.734 143.298C232.317 142.599 243.743 142.599 246.025 142.948C248.306 143.298 252.354 146.113 253.053 147.696C253.752 149.278 254.286 150.502 254.286 150.502V151.56C254.286 151.56 246.733 148.045 239.566 148.045C235.023 148.063 230.488 148.413 225.996 149.094Z" fill="white" stroke="#263238" stroke-width="0.761667" stroke-linecap="round" stroke-linejoin="round"/>
<path d="M254.287 151.561C252.813 154.715 251.135 157.769 249.264 160.705C247.28 163.94 245.733 167.424 244.664 171.065L250.184 171.635C250.184 171.635 254.02 161.515 256.32 158.212C257.255 156.803 258.281 155.457 259.393 154.183C259.393 154.183 257.204 151.423 254.287 151.561Z" fill="#263238" stroke="#263238" stroke-width="0.761667" stroke-linecap="round" stroke-linejoin="round"/>
<path d="M225.997 149.095C225.997 149.095 225.077 155.535 225.482 158.985C225.693 161.919 225.693 164.864 225.482 167.798L221.452 169.142C221.452 169.142 220.302 158.019 220.689 155.526C221.075 153.032 221.452 151.312 221.452 151.312C221.452 151.312 224.01 149.04 225.997 149.095Z" fill="#263238" stroke="#263238" stroke-width="0.761667" stroke-linecap="round" stroke-linejoin="round"/>
<path d="M217.81 208.075C217.81 208.075 215.133 208.995 214.13 213.595C213.127 218.195 215.86 223.191 221.416 225.491C226.973 227.791 235.998 228.941 244.416 229.327C252.834 229.714 259.753 228.941 262.816 223.568C265.88 218.195 264.73 212.445 261.087 211.488C257.444 210.532 253.414 212.638 239.421 211.295C232.154 210.704 224.934 209.628 217.81 208.075Z" fill="#462683" stroke="#263238" stroke-width="0.761667" stroke-linecap="round" stroke-linejoin="round"/>
<path d="M251.648 214.709C248.106 218.84 247.223 228.877 254.307 228.877H254.666C258.346 228.141 261.189 226.586 262.882 223.614C265.264 219.438 265.09 215.031 263.185 212.832L260.333 210.909C258.697 210.879 257.074 211.202 255.575 211.858C254.076 212.514 252.736 213.487 251.648 214.709Z" fill="#462683" stroke="#263238" stroke-width="0.761667" stroke-linecap="round" stroke-linejoin="round"/>
<path d="M255.925 220.118C255.925 220.118 255.787 223.053 259.265 221.958C260.085 221.63 260.795 221.079 261.316 220.366C261.836 219.654 262.146 218.809 262.209 217.928C262.238 217.712 262.253 217.494 262.255 217.275C262.301 215.803 261.786 214.515 260.737 214.212C258.327 213.54 252.457 217.947 252.457 221.158C252.457 224.368 256.201 225.436 259.541 223.292C262.881 221.148 263.819 218.885 263.552 213.54" stroke="#263238" stroke-width="0.761667" stroke-linecap="round" stroke-linejoin="round"/>
<path d="M218.58 164.928C218.58 164.928 233.916 166.271 242.169 166.455C250.421 166.639 254.442 165.885 256.889 168.571C259.336 171.257 262.409 200.017 263.789 205.196C265.169 210.376 262.869 211.912 257.082 214.019C251.295 216.126 242.123 216.126 231.57 214.019C221.018 211.912 216.418 210.339 215.268 205.739C214.118 201.139 214.891 186.364 214.891 178.139C214.891 169.914 214.164 165.121 218.58 164.928Z" fill="#462683" stroke="#263238" stroke-width="0.761667" stroke-linecap="round" stroke-linejoin="round"/>
<path d="M254.839 194.892C257.259 194.634 259.638 194.081 261.923 193.245C260.451 183.125 258.584 170.319 256.965 168.571C254.471 165.885 250.442 166.648 242.245 166.455C234.047 166.262 218.656 164.928 218.656 164.928C214.24 165.121 214.976 169.914 214.976 178.157C214.976 181.571 214.838 186.088 214.773 190.55C215.859 191.203 228.454 198.029 254.839 194.892Z" fill="#462683" stroke="#263238" stroke-width="0.761667" stroke-linecap="round" stroke-linejoin="round"/>
<path d="M218.151 189.621C218.399 192.402 218.325 195.202 217.931 197.965C217.549 200.287 217.33 202.633 217.277 204.985L221.003 206.521C221.003 206.521 221.666 200.597 222.107 197.965C222.408 195.487 222.555 192.992 222.549 190.495L218.151 189.621Z" fill="#263238" stroke="#263238" stroke-width="0.761667" stroke-linecap="round" stroke-linejoin="round"/>
<path d="M246.687 192.279C246.687 192.279 246.466 196.235 246.034 199.087C245.601 201.939 244.93 208.692 244.93 208.692H249.318C249.318 208.692 250.854 201.939 250.854 199.308C250.854 196.677 251.075 192.059 251.075 192.059L246.687 192.279Z" fill="#263238" stroke="#263238" stroke-width="0.761667" stroke-linecap="round" stroke-linejoin="round"/>
<path d="M263.836 205.159C262.493 199.979 259.429 171.22 256.936 168.533C256.551 168.126 256.108 167.779 255.62 167.503C254.02 168.018 251.664 169.288 252.713 172.177C254.25 176.39 255.786 197.109 255.013 203.622C254.24 210.136 250.027 213.218 253.863 214.745L254.075 214.828C255.112 214.619 256.133 214.336 257.129 213.981C262.879 211.911 265.179 210.375 263.836 205.159Z" fill="#462683" stroke="#263238" stroke-width="0.761667" stroke-linecap="round" stroke-linejoin="round"/>
<path d="M239.52 239.429L232.004 237.414" stroke="white" stroke-width="0.761667" stroke-linecap="round" stroke-linejoin="round"/>
<path d="M223.164 114.659C223.164 114.659 225.289 126.619 225.289 128.008C225.289 129.397 225.639 129.765 231.269 130.115C236.9 130.464 244.618 130.823 249.016 128.542C253.414 126.26 261.142 120.979 262.724 117.502C264.306 114.024 263.248 113.463 259.044 113.463H253.772C253.772 113.463 252.54 108.366 249.172 106.784C245.805 105.201 240.561 102.036 234.94 104.502C229.319 106.968 225.124 108.136 223.164 114.659Z" fill="#462683" stroke="#263238" stroke-width="0.761667" stroke-linecap="round" stroke-linejoin="round"/>
<path d="M252.529 125.726C252.145 126.091 251.85 126.537 251.664 127.033C255.997 124.411 261.425 120.344 262.704 117.465C264.286 113.95 263.228 113.426 259.024 113.426H253.752C253.752 113.426 255.335 118.523 255.335 120.28C255.335 122.037 254.636 123.619 252.529 125.726Z" fill="#263238" stroke="#263238" stroke-width="0.761667" stroke-linecap="round" stroke-linejoin="round"/>
<path d="M228.499 128.469C228.499 128.469 227.027 123.326 229.722 122.838C232.418 122.351 235.362 128.965 235.362 128.965C233.063 129.23 230.735 129.061 228.499 128.469Z" fill="#263238" stroke="#263238" stroke-width="0.761667" stroke-linecap="round" stroke-linejoin="round"/>
<path d="M302.063 361.992H336.655C335.992 357.76 333.269 358.505 332.91 351.945C332.726 348.643 335.781 344.585 335.523 340.225C335.302 336.646 331.779 332.984 331.503 328.899C331.263 325.219 334.263 321.116 333.977 317.142C333.701 313.388 330.123 309.782 329.81 305.872C329.497 301.962 332.45 297.932 332.101 294.077C331.751 290.223 328.117 286.717 327.731 282.89C327.344 279.063 330.187 274.776 329.745 271.041C329.285 267.075 325.541 263.681 325.035 260.001C324.474 255.925 327.123 251.583 326.507 248.041C325.743 243.735 321.741 240.625 320.895 237.451C319.322 231.536 319.524 225.832 317.666 225.491C315.807 225.151 315.237 230.68 313.737 236.927C312.983 240.064 309.064 243.247 308.42 247.553C307.895 251.04 310.665 255.281 310.214 259.329C309.809 262.963 306.157 266.45 305.807 270.369C305.467 274.049 308.429 278.171 308.144 282.044C307.859 285.917 304.317 289.404 304.077 293.24C303.838 297.077 306.883 301.088 306.672 304.869C306.46 308.65 302.992 312.404 302.808 316.13C302.615 320.077 305.733 324.051 305.568 327.713C305.402 331.761 301.971 335.477 301.888 339.019C301.731 343.325 304.887 347.299 304.795 350.575C304.583 357.677 301.327 356.205 301.207 361.927L302.063 361.992Z" fill="#462683"/>
<path opacity="0.5" d="M302.063 361.992H336.655C335.992 357.76 333.269 358.505 332.91 351.945C332.726 348.643 335.781 344.585 335.523 340.225C335.302 336.646 331.779 332.984 331.503 328.899C331.263 325.219 334.263 321.116 333.977 317.142C333.701 313.388 330.123 309.782 329.81 305.872C329.497 301.962 332.45 297.932 332.101 294.077C331.751 290.223 328.117 286.717 327.731 282.89C327.344 279.063 330.187 274.776 329.745 271.041C329.285 267.075 325.541 263.681 325.035 260.001C324.474 255.925 327.123 251.583 326.507 248.041C325.743 243.735 321.741 240.625 320.895 237.451C319.322 231.536 319.524 225.832 317.666 225.491C315.807 225.151 315.237 230.68 313.737 236.927C312.983 240.064 309.064 243.247 308.42 247.553C307.895 251.04 310.665 255.281 310.214 259.329C309.809 262.963 306.157 266.45 305.807 270.369C305.467 274.049 308.429 278.171 308.144 282.044C307.859 285.917 304.317 289.404 304.077 293.24C303.838 297.077 306.883 301.088 306.672 304.869C306.46 308.65 302.992 312.404 302.808 316.13C302.615 320.077 305.733 324.051 305.568 327.713C305.402 331.761 301.971 335.477 301.888 339.019C301.731 343.325 304.887 347.299 304.795 350.575C304.583 357.677 301.327 356.205 301.207 361.927L302.063 361.992Z" fill="white"/>
<path d="M316.914 236.853V360.39" stroke="#263238" stroke-width="0.761667" stroke-miterlimit="10"/>
<path d="M322.314 249.807L316.683 254.674L312.074 248.528" stroke="#263238" stroke-width="0.761667" stroke-miterlimit="10"/>
<path d="M322.314 271.307L316.683 276.174L312.074 270.028" stroke="#263238" stroke-width="0.761667" stroke-miterlimit="10"/>
<path d="M322.314 291.529L316.683 296.396L312.074 290.25" stroke="#263238" stroke-width="0.761667" stroke-miterlimit="10"/>
<path d="M322.314 315.596L316.683 320.463L312.074 314.317" stroke="#263238" stroke-width="0.761667" stroke-miterlimit="10"/>
<path d="M322.314 339.912L316.683 344.778L312.074 338.633" stroke="#263238" stroke-width="0.761667" stroke-miterlimit="10"/>
<path d="M103.958 340.859H148.836C147.971 335.339 144.447 336.333 143.978 327.823C143.748 323.545 147.713 318.236 147.364 312.615C147.088 308.015 142.515 303.222 142.156 297.895C141.834 293.111 145.735 287.775 145.358 282.641C144.999 277.765 140.372 273.083 139.958 268.023C139.544 262.963 143.38 257.709 142.929 252.714C142.478 247.718 137.759 243.118 137.262 238.196C136.747 233.127 140.445 227.671 139.884 222.823C139.277 217.68 134.428 213.237 133.766 208.499C133.03 203.218 136.471 197.578 135.67 193.015C134.677 187.431 129.488 183.392 128.393 179.279C126.351 171.597 126.608 164.201 124.198 163.722C121.631 163.207 121.052 170.457 119.101 178.562C118.126 182.637 113.038 186.759 112.201 192.362C111.53 196.879 115.118 202.381 114.529 207.643C114.004 212.353 109.276 216.843 108.816 221.995C108.383 226.807 112.22 232.115 111.842 237.147C111.474 242.042 106.884 246.706 106.562 251.674C106.24 256.642 110.242 261.849 109.938 266.753C109.634 271.657 105.154 276.533 104.924 281.372C104.676 286.487 108.714 291.648 108.521 296.395C108.3 301.658 103.857 306.515 103.691 311.115C103.489 316.691 107.592 321.843 107.463 326.093C107.187 335.293 102.964 333.407 102.863 340.813L103.958 340.859Z" fill="#462683"/>
<path d="M123.25 178.497V338.779" stroke="#263238" stroke-width="0.761667" stroke-miterlimit="10"/>
<path d="M130.263 195.307L122.949 201.618L116.969 193.642" stroke="#263238" stroke-width="0.761667" stroke-miterlimit="10"/>
<path d="M130.263 223.2L122.949 229.511L116.969 221.544" stroke="#263238" stroke-width="0.761667" stroke-miterlimit="10"/>
<path d="M130.263 249.438L122.949 255.749L116.969 247.782" stroke="#263238" stroke-width="0.761667" stroke-miterlimit="10"/>
<path d="M130.263 280.664L122.949 286.975L116.969 278.999" stroke="#263238" stroke-width="0.761667" stroke-miterlimit="10"/>
<path d="M130.263 312.21L122.949 318.521L116.969 310.554" stroke="#263238" stroke-width="0.761667" stroke-miterlimit="10"/>
<path d="M76.8099 347.878H110.04C109.405 343.812 106.793 344.53 106.443 338.228C106.268 335.054 109.203 331.134 108.955 326.967C108.743 323.535 105.357 320.012 105.1 316.083C104.861 312.541 107.749 308.613 107.464 304.795C107.207 301.179 103.784 297.72 103.471 293.966C103.159 290.213 106.001 286.33 105.67 282.632C105.339 278.934 101.843 275.53 101.475 271.886C101.107 268.243 103.83 264.094 103.407 260.506C102.965 256.697 99.3683 253.404 98.8807 249.898C98.3379 245.988 100.886 241.812 100.288 238.435C99.5615 234.304 95.6883 231.314 94.9063 228.26C93.3975 222.584 93.5815 217.1 91.8059 216.742C90.0303 216.383 89.4691 221.737 88.0247 227.736C87.2979 230.753 83.5351 233.808 82.9187 237.938C82.4219 241.296 85.0807 245.363 84.6483 249.254C84.2527 252.741 80.7475 256.09 80.4071 259.88C80.0851 263.45 82.9279 267.378 82.6519 271.104C82.3759 274.83 78.9719 278.179 78.7419 281.859C78.5119 285.539 81.4467 289.394 81.2443 293.028C81.0419 296.662 77.7023 300.268 77.5643 303.847C77.3803 307.638 80.3243 311.456 80.2231 314.97C80.0667 318.862 76.7731 322.431 76.6535 325.835C76.5063 329.975 79.5423 333.784 79.4135 336.93C79.2111 343.766 76.0831 342.349 75.9727 347.842L76.8099 347.878Z" fill="#462683"/>
<path opacity="0.5" d="M76.8099 347.878H110.04C109.405 343.812 106.793 344.53 106.443 338.228C106.268 335.054 109.203 331.134 108.955 326.967C108.743 323.535 105.357 320.012 105.1 316.083C104.861 312.541 107.749 308.613 107.464 304.795C107.207 301.179 103.784 297.72 103.471 293.966C103.159 290.213 106.001 286.33 105.67 282.632C105.339 278.934 101.843 275.53 101.475 271.886C101.107 268.243 103.83 264.094 103.407 260.506C102.965 256.697 99.3683 253.404 98.8807 249.898C98.3379 245.988 100.886 241.812 100.288 238.435C99.5615 234.304 95.6883 231.314 94.9063 228.26C93.3975 222.584 93.5815 217.1 91.8059 216.742C90.0303 216.383 89.4691 221.737 88.0247 227.736C87.2979 230.753 83.5351 233.808 82.9187 237.938C82.4219 241.296 85.0807 245.363 84.6483 249.254C84.2527 252.741 80.7475 256.09 80.4071 259.88C80.0851 263.45 82.9279 267.378 82.6519 271.104C82.3759 274.83 78.9719 278.179 78.7419 281.859C78.5119 285.539 81.4467 289.394 81.2443 293.028C81.0419 296.662 77.7023 300.268 77.5643 303.847C77.3803 307.638 80.3243 311.456 80.2231 314.97C80.0667 318.862 76.7731 322.431 76.6535 325.835C76.5063 329.975 79.5423 333.784 79.4135 336.93C79.2111 343.766 76.0831 342.349 75.9727 347.842L76.8099 347.878Z" fill="white"/>
<path d="M91.0781 227.672V346.343" stroke="#263238" stroke-width="0.761667" stroke-miterlimit="10"/>
<path d="M96.2684 240.111L90.8588 244.784L86.4336 238.878" stroke="#263238" stroke-width="0.761667" stroke-miterlimit="10"/>
<path d="M96.2684 260.764L90.8588 265.438L86.4336 259.531" stroke="#263238" stroke-width="0.761667" stroke-miterlimit="10"/>
<path d="M96.2684 280.194L90.8588 284.867L86.4336 278.961" stroke="#263238" stroke-width="0.761667" stroke-miterlimit="10"/>
<path d="M96.2684 303.305L90.8588 307.978L86.4336 302.081" stroke="#263238" stroke-width="0.761667" stroke-miterlimit="10"/>
<path d="M96.2684 326.663L90.8588 331.337L86.4336 325.439" stroke="#263238" stroke-width="0.761667" stroke-miterlimit="10"/>
<path d="M332.393 371.743H377.28C376.415 366.223 372.892 367.216 372.423 358.716C372.183 354.428 376.149 349.129 375.808 343.499C375.523 338.899 370.951 334.115 370.601 328.779C370.279 323.995 374.18 318.659 373.803 313.525C373.444 308.649 368.807 303.976 368.402 298.906C367.997 293.837 371.825 288.593 371.374 283.598C370.923 278.602 366.203 274.011 365.707 269.08C365.21 264.149 368.89 258.564 368.319 253.716C367.721 248.564 362.864 244.12 362.211 239.382C361.475 234.102 364.915 228.462 364.106 223.908C363.121 218.324 357.923 214.285 356.828 210.163C354.795 202.49 355.053 195.094 352.643 194.606C350.076 194.1 349.487 201.35 347.546 209.455C346.561 213.521 341.483 217.652 340.646 223.255C339.974 227.781 343.562 233.283 342.973 238.536C342.449 243.246 337.711 247.736 337.251 252.888C336.818 257.709 340.664 263.008 340.287 268.05C339.919 272.935 335.328 277.599 335.006 282.567C334.684 287.535 338.686 292.742 338.383 297.655C338.079 302.568 333.599 307.426 333.359 312.265C333.12 317.38 337.159 322.55 336.957 327.298C336.745 332.551 332.292 337.418 332.136 342.018C331.933 347.602 336.037 352.754 335.908 357.004C335.632 366.204 331.409 364.318 331.262 371.724L332.393 371.743Z" fill="#462683"/>
<path d="M351.672 209.392V369.674" stroke="#263238" stroke-width="0.761667" stroke-miterlimit="10"/>
<path d="M358.668 226.19L351.363 232.501L345.383 224.534" stroke="#263238" stroke-width="0.761667" stroke-miterlimit="10"/>
<path d="M358.668 254.094L351.363 260.405L345.383 252.429" stroke="#263238" stroke-width="0.761667" stroke-miterlimit="10"/>
<path d="M358.668 280.332L351.363 286.634L345.383 278.667" stroke="#263238" stroke-width="0.761667" stroke-miterlimit="10"/>
<path d="M358.668 311.549L351.363 317.86L345.383 309.893" stroke="#263238" stroke-width="0.761667" stroke-miterlimit="10"/>
<path d="M358.668 343.104L351.363 349.415L345.383 341.438" stroke="#263238" stroke-width="0.761667" stroke-miterlimit="10"/>
<path d="M164.674 243.504L159.047 243.316L155.667 344.653L161.295 344.841L164.674 243.504Z" fill="#263238" stroke="#263238" stroke-width="0.761667" stroke-linecap="round" stroke-linejoin="round"/>
<path d="M187.466 215.068L184.402 215.804V225.943L187.797 226.936L187.466 215.068Z" fill="#462683" stroke="#263238" stroke-width="0.761667" stroke-linecap="round" stroke-linejoin="round"/>
<path d="M128.082 209.475L128.229 243.837L185.214 249.743L184.671 260.617L205.656 242.613L187.468 215.068L187.422 225.952L128.082 209.475Z" fill="white" stroke="#263238" stroke-width="0.761667" stroke-linecap="round" stroke-linejoin="round"/>
<path d="M128.08 209.475L123.48 209.99L124.06 245.345L128.228 243.837L128.08 209.475Z" fill="#462683" stroke="#263238" stroke-width="0.761667" stroke-linecap="round" stroke-linejoin="round"/>
<path d="M124.062 245.346L182.62 251.142L185.215 249.743L128.23 243.837L124.062 245.346Z" fill="#462683" stroke="#263238" stroke-width="0.761667" stroke-linecap="round" stroke-linejoin="round"/>
<path d="M182.62 251.142L182.473 260.737L184.671 260.618L185.214 249.743L182.62 251.142Z" fill="#462683" stroke="#263238" stroke-width="0.761667" stroke-linecap="round" stroke-linejoin="round"/>
<path d="M69.9648 349.499C69.9648 349.499 149.25 310.39 269.807 330.354C364.264 345.994 395.36 386.401 395.36 386.401" fill="white"/>
<path d="M69.9648 349.499C69.9648 349.499 149.25 310.39 269.807 330.354C364.264 345.994 395.36 386.401 395.36 386.401" stroke="#263238" stroke-width="0.761667" stroke-linecap="round" stroke-linejoin="round"/>
<path d="M205.573 332.166L190.715 326.158C117.299 329.838 71.2993 352.838 71.2993 352.838L65.3193 354.2C60.4589 356.441 55.7615 359.021 51.2617 361.919L73.0841 362.268L110.482 359.83L83.6457 369.564L109.654 363.869L152.719 362.241L127.521 355.745L166.519 351.679L129.94 352.489L159.38 346.481L197.45 340.299L183.65 339.48L187.063 338.348L205.573 332.166Z" fill="#FAB748"/>
<path d="M298.081 338.101L306.361 343.161L286.121 342.701L295.321 347.761L289.801 349.601L303.141 356.041L290.261 357.881L302.681 368.001L234.141 368.461L253.461 375.821L246.101 379.041L293.021 386.401L344.081 399.281L322.461 387.321C322.461 387.321 371.681 400.661 373.521 401.581C375.361 402.501 385.941 406.641 387.321 407.101C388.701 407.561 370.761 393.301 370.761 393.301L389.161 397.901L370.761 377.201L379.041 378.121L373.061 373.061L385.021 378.121C385.021 378.121 351.901 351.441 298.081 338.101Z" fill="#FAB748"/>
</svg>
