<svg width="600" height="600" viewBox="0 0 600 600" fill="none" xmlns="http://www.w3.org/2000/svg">
<g clip-path="url(#clip0_3406_28099)">
<path d="M569.88 342.998C576.493 299.557 571.763 254.829 560.227 212.676C549.865 174.85 536.801 136.01 506.392 109.447C469.548 77.2685 423.548 73.0692 376.857 78.5235C284.457 89.2872 258.071 49.7076 189.707 52.1049C121.344 54.5022 61.3796 83.2859 42.1852 142.06C22.9907 200.834 52.9811 262.005 38.5812 296.774C24.1813 331.543 -16.5888 366.344 7.40024 416.719C31.3893 467.095 84.162 506.674 206.585 516.263C329.008 525.853 435.664 530.663 505.234 467.095C542.85 432.648 562.833 389.239 569.88 342.998Z" fill="#462683"/>
<path d="M569.88 342.998C576.493 299.557 571.763 254.829 560.227 212.676C549.865 174.85 536.801 136.01 506.392 109.447C469.548 77.2685 423.548 73.0692 376.857 78.5235C284.457 89.2872 258.071 49.7076 189.707 52.1049C121.344 54.5022 61.3796 83.2859 42.1852 142.06C22.9907 200.834 52.9811 262.005 38.5812 296.774C24.1813 331.543 -16.5888 366.344 7.40024 416.719C31.3893 467.095 84.162 506.674 206.585 516.263C329.008 525.853 435.664 530.663 505.234 467.095C542.85 432.648 562.833 389.239 569.88 342.998Z" fill="#FAB748"/>
<path d="M147.732 113.87C147.265 113.87 146.816 113.689 146.48 113.365C146.144 113.041 145.946 112.599 145.93 112.132V90.4758C145.93 89.9979 146.12 89.5396 146.457 89.2016C146.795 88.8637 147.254 88.6738 147.732 88.6738C148.21 88.6738 148.668 88.8637 149.006 89.2016C149.344 89.5396 149.534 89.9979 149.534 90.4758V112.132C149.517 112.599 149.32 113.041 148.984 113.365C148.648 113.689 148.199 113.87 147.732 113.87Z" fill="#462683"/>
<path d="M158.521 103.073H136.929C136.679 103.096 136.427 103.067 136.189 102.988C135.951 102.909 135.732 102.78 135.546 102.612C135.361 102.443 135.212 102.237 135.111 102.007C135.009 101.778 134.957 101.53 134.957 101.279C134.957 101.028 135.009 100.779 135.111 100.55C135.212 100.32 135.361 100.114 135.546 99.9456C135.732 99.7767 135.951 99.6485 136.189 99.5691C136.427 99.4897 136.679 99.4609 136.929 99.4846H158.521C158.771 99.4609 159.023 99.4897 159.261 99.5691C159.499 99.6485 159.718 99.7767 159.904 99.9456C160.089 100.114 160.238 100.32 160.339 100.55C160.441 100.779 160.493 101.028 160.493 101.279C160.493 101.53 160.441 101.778 160.339 102.007C160.238 102.237 160.089 102.443 159.904 102.612C159.718 102.78 159.499 102.909 159.261 102.988C159.023 103.067 158.771 103.096 158.521 103.073Z" fill="#462683"/>
<path d="M533.931 371.749C533.453 371.749 532.995 371.559 532.657 371.221C532.319 370.883 532.129 370.425 532.129 369.947V353.15C532.129 352.672 532.319 352.213 532.657 351.875C532.995 351.537 533.453 351.348 533.931 351.348C534.409 351.348 534.867 351.537 535.205 351.875C535.543 352.213 535.733 352.672 535.733 353.15V369.947C535.733 370.425 535.543 370.883 535.205 371.221C534.867 371.559 534.409 371.749 533.931 371.749Z" fill="#462683"/>
<path d="M542.334 363.352H525.536C525.058 363.352 524.6 363.162 524.262 362.824C523.924 362.486 523.734 362.028 523.734 361.55C523.734 361.072 523.924 360.614 524.262 360.276C524.6 359.938 525.058 359.748 525.536 359.748H542.334C542.811 359.748 543.27 359.938 543.608 360.276C543.946 360.614 544.136 361.072 544.136 361.55C544.136 362.028 543.946 362.486 543.608 362.824C543.27 363.162 542.811 363.352 542.334 363.352Z" fill="#462683"/>
<path d="M39.259 389.738C38.7811 389.738 38.3228 389.548 37.9848 389.21C37.6469 388.872 37.457 388.414 37.457 387.936V377.14C37.457 376.662 37.6469 376.204 37.9848 375.866C38.3228 375.528 38.7811 375.338 39.259 375.338C39.7369 375.338 40.1953 375.528 40.5332 375.866C40.8712 376.204 41.061 376.662 41.061 377.14V387.936C41.061 388.414 40.8712 388.872 40.5332 389.21C40.1953 389.548 39.7369 389.738 39.259 389.738Z" fill="#462683"/>
<path d="M44.5844 384.33H33.7885C33.5386 384.354 33.2866 384.325 33.0485 384.246C32.8104 384.166 32.5915 384.038 32.4058 383.869C32.2202 383.7 32.0718 383.495 31.9703 383.265C31.8688 383.036 31.8164 382.787 31.8164 382.536C31.8164 382.285 31.8688 382.037 31.9703 381.808C32.0718 381.578 32.2202 381.372 32.4058 381.203C32.5915 381.034 32.8104 380.906 33.0485 380.827C33.2866 380.747 33.5386 380.719 33.7885 380.742H44.5844C44.8342 380.719 45.0863 380.747 45.3244 380.827C45.5625 380.906 45.7814 381.034 45.967 381.203C46.1527 381.372 46.301 381.578 46.4025 381.808C46.504 382.037 46.5564 382.285 46.5564 382.536C46.5564 382.787 46.504 383.036 46.4025 383.265C46.301 383.495 46.1527 383.7 45.967 383.869C45.7814 384.038 45.5625 384.166 45.3244 384.246C45.0863 384.325 44.8342 384.354 44.5844 384.33Z" fill="#462683"/>
<path d="M82.3604 132.47C81.8852 132.466 81.431 132.274 81.0965 131.937C80.7621 131.599 80.5744 131.143 80.5745 130.668V119.872C80.5508 119.623 80.5795 119.371 80.6589 119.132C80.7383 118.894 80.8665 118.675 81.0354 118.49C81.2043 118.304 81.4101 118.156 81.6397 118.054C81.8692 117.953 82.1174 117.9 82.3684 117.9C82.6194 117.9 82.8676 117.953 83.0971 118.054C83.3267 118.156 83.5325 118.304 83.7014 118.49C83.8703 118.675 83.9985 118.894 84.0779 119.132C84.1573 119.371 84.186 119.623 84.1624 119.872V130.668C84.1624 131.146 83.9725 131.605 83.6346 131.943C83.2966 132.28 82.8383 132.47 82.3604 132.47Z" fill="#462683"/>
<path d="M87.7658 127.065H76.97C76.492 127.065 76.0337 126.875 75.6958 126.537C75.3578 126.199 75.168 125.741 75.168 125.263C75.168 124.785 75.3578 124.327 75.6958 123.989C76.0337 123.651 76.492 123.461 76.97 123.461H87.7658C88.2438 123.461 88.7021 123.651 89.0401 123.989C89.378 124.327 89.5678 124.785 89.5678 125.263C89.5678 125.741 89.378 126.199 89.0401 126.537C88.7021 126.875 88.2438 127.065 87.7658 127.065Z" fill="#462683"/>
<path d="M358.821 428.111C358.346 428.106 357.892 427.915 357.557 427.577C357.223 427.24 357.035 426.784 357.035 426.309V415.513C357.077 415.066 357.285 414.652 357.617 414.35C357.948 414.048 358.381 413.881 358.829 413.881C359.278 413.881 359.71 414.048 360.042 414.35C360.373 414.652 360.581 415.066 360.623 415.513V426.309C360.623 426.787 360.433 427.245 360.095 427.583C359.757 427.921 359.299 428.111 358.821 428.111Z" fill="#462683"/>
<path d="M364.262 422.655H353.466C352.988 422.655 352.53 422.465 352.192 422.127C351.854 421.789 351.664 421.331 351.664 420.853C351.664 420.375 351.854 419.917 352.192 419.579C352.53 419.241 352.988 419.051 353.466 419.051H364.262C364.74 419.051 365.198 419.241 365.536 419.579C365.874 419.917 366.064 420.375 366.064 420.853C366.064 421.331 365.874 421.789 365.536 422.127C365.198 422.465 364.74 422.655 364.262 422.655Z" fill="#462683"/>
<path d="M523.14 191.84C521.835 191.84 520.559 191.453 519.475 190.728C518.39 190.003 517.544 188.973 517.045 187.767C516.546 186.562 516.415 185.236 516.67 183.956C516.924 182.677 517.553 181.501 518.475 180.579C519.398 179.656 520.573 179.028 521.853 178.773C523.132 178.519 524.459 178.649 525.664 179.149C526.869 179.648 527.9 180.493 528.624 181.578C529.349 182.663 529.736 183.938 529.736 185.243C529.732 186.991 529.036 188.667 527.799 189.903C526.563 191.139 524.888 191.835 523.14 191.84ZM523.14 182.186C522.544 182.186 521.963 182.363 521.468 182.693C520.973 183.024 520.588 183.494 520.36 184.043C520.132 184.593 520.073 185.198 520.189 185.782C520.305 186.365 520.591 186.901 521.012 187.322C521.433 187.743 521.969 188.03 522.553 188.146C523.136 188.262 523.741 188.202 524.291 187.974C524.841 187.747 525.311 187.361 525.641 186.866C525.972 186.372 526.148 185.79 526.148 185.195C526.136 184.405 525.813 183.652 525.25 183.098C524.687 182.545 523.929 182.234 523.14 182.234V182.186Z" fill="#462683"/>
<path d="M382.81 107.869C381.031 107.869 379.293 107.341 377.814 106.353C376.335 105.365 375.182 103.96 374.501 102.317C373.82 100.673 373.642 98.8648 373.989 97.1201C374.336 95.3755 375.193 93.7729 376.451 92.5151C377.708 91.2573 379.311 90.4007 381.056 90.0537C382.8 89.7066 384.609 89.8848 386.252 90.5655C387.895 91.2462 389.3 92.399 390.288 93.878C391.277 95.3571 391.804 97.0959 391.804 98.8748C391.804 101.26 390.857 103.548 389.17 105.234C387.483 106.921 385.196 107.869 382.81 107.869ZM382.81 93.4849C381.74 93.4849 380.695 93.8023 379.805 94.3971C378.916 94.9918 378.223 95.837 377.814 96.8258C377.406 97.8145 377.299 98.9023 377.509 99.9514C377.719 101.001 378.236 101.964 378.993 102.719C379.751 103.475 380.716 103.988 381.766 104.195C382.815 104.402 383.903 104.292 384.89 103.881C385.878 103.469 386.721 102.774 387.313 101.883C387.905 100.991 388.219 99.9446 388.216 98.8748C388.216 98.1656 388.076 97.4634 387.804 96.8084C387.533 96.1534 387.134 95.5585 386.632 95.0578C386.13 94.5571 385.534 94.1604 384.878 93.8905C384.222 93.6206 383.519 93.4827 382.81 93.4849Z" fill="#462683"/>
<path d="M226.888 402.929C225.11 402.929 223.371 402.402 221.892 401.413C220.413 400.425 219.26 399.021 218.579 397.377C217.898 395.734 217.72 393.925 218.067 392.181C218.414 390.436 219.271 388.833 220.529 387.576C221.787 386.318 223.389 385.461 225.134 385.114C226.878 384.767 228.687 384.945 230.33 385.626C231.974 386.307 233.378 387.46 234.367 388.939C235.355 390.418 235.882 392.156 235.882 393.935C235.878 396.319 234.929 398.604 233.243 400.29C231.558 401.976 229.272 402.925 226.888 402.929ZM226.888 388.529C225.819 388.529 224.774 388.846 223.885 389.44C222.996 390.034 222.303 390.879 221.894 391.867C221.485 392.854 221.378 393.941 221.586 394.99C221.795 396.039 222.31 397.002 223.066 397.758C223.822 398.514 224.785 399.029 225.834 399.237C226.882 399.446 227.969 399.339 228.957 398.93C229.945 398.521 230.789 397.828 231.383 396.939C231.977 396.05 232.294 395.004 232.294 393.935C232.294 393.225 232.155 392.522 231.883 391.867C231.611 391.211 231.213 390.615 230.711 390.113C230.209 389.611 229.613 389.213 228.957 388.941C228.301 388.669 227.598 388.529 226.888 388.529Z" fill="#462683"/>
<path d="M147.728 113.872C147.261 113.872 146.812 113.691 146.476 113.367C146.14 113.043 145.942 112.601 145.926 112.134V90.4778C145.926 89.9999 146.116 89.5415 146.454 89.2036C146.792 88.8656 147.25 88.6758 147.728 88.6758C148.206 88.6758 148.664 88.8656 149.002 89.2036C149.34 89.5415 149.53 89.9999 149.53 90.4778V112.134C149.513 112.601 149.316 113.043 148.98 113.367C148.644 113.691 148.195 113.872 147.728 113.872Z" fill="white"/>
<path d="M158.525 103.078H136.933C136.683 103.102 136.431 103.073 136.193 102.994C135.955 102.915 135.736 102.786 135.55 102.617C135.365 102.449 135.216 102.243 135.115 102.013C135.013 101.784 134.961 101.535 134.961 101.284C134.961 101.033 135.013 100.785 135.115 100.556C135.216 100.326 135.365 100.12 135.55 99.9514C135.736 99.7825 135.955 99.6543 136.193 99.5749C136.431 99.4956 136.683 99.4668 136.933 99.4905H158.525C158.775 99.4668 159.027 99.4956 159.265 99.5749C159.503 99.6543 159.722 99.7825 159.907 99.9514C160.093 100.12 160.241 100.326 160.343 100.556C160.444 100.785 160.497 101.033 160.497 101.284C160.497 101.535 160.444 101.784 160.343 102.013C160.241 102.243 160.093 102.449 159.907 102.617C159.722 102.786 159.503 102.915 159.265 102.994C159.027 103.073 158.775 103.102 158.525 103.078Z" fill="white"/>
<path d="M533.935 371.749C533.457 371.749 532.999 371.559 532.661 371.221C532.323 370.883 532.133 370.425 532.133 369.947V353.15C532.133 352.672 532.323 352.213 532.661 351.875C532.999 351.537 533.457 351.348 533.935 351.348C534.413 351.348 534.871 351.537 535.209 351.875C535.547 352.213 535.737 352.672 535.737 353.15V369.947C535.737 370.425 535.547 370.883 535.209 371.221C534.871 371.559 534.413 371.749 533.935 371.749Z" fill="white"/>
<path d="M542.334 363.35H525.536C525.058 363.35 524.6 363.16 524.262 362.822C523.924 362.484 523.734 362.026 523.734 361.548C523.734 361.07 523.924 360.612 524.262 360.274C524.6 359.936 525.058 359.746 525.536 359.746H542.334C542.811 359.746 543.27 359.936 543.608 360.274C543.946 360.612 544.136 361.07 544.136 361.548C544.136 362.026 543.946 362.484 543.608 362.822C543.27 363.16 542.811 363.35 542.334 363.35Z" fill="white"/>
<path d="M39.2551 389.74C38.7772 389.74 38.3189 389.55 37.9809 389.212C37.643 388.874 37.4531 388.416 37.4531 387.938V377.142C37.4531 376.664 37.643 376.206 37.9809 375.868C38.3189 375.53 38.7772 375.34 39.2551 375.34C39.733 375.34 40.1914 375.53 40.5293 375.868C40.8673 376.206 41.0571 376.664 41.0571 377.142V387.938C41.0571 388.416 40.8673 388.874 40.5293 389.212C40.1914 389.55 39.733 389.74 39.2551 389.74Z" fill="white"/>
<path d="M44.5805 384.332H33.7846C33.5347 384.356 33.2827 384.327 33.0446 384.248C32.8065 384.168 32.5876 384.04 32.4019 383.871C32.2163 383.702 32.0679 383.497 31.9664 383.267C31.8649 383.038 31.8125 382.789 31.8125 382.538C31.8125 382.287 31.8649 382.039 31.9664 381.81C32.0679 381.58 32.2163 381.374 32.4019 381.205C32.5876 381.036 32.8065 380.908 33.0446 380.829C33.2827 380.749 33.5347 380.721 33.7846 380.744H44.5805C44.8303 380.721 45.0824 380.749 45.3205 380.829C45.5586 380.908 45.7775 381.036 45.9631 381.205C46.1488 381.374 46.2971 381.58 46.3986 381.81C46.5001 382.039 46.5525 382.287 46.5525 382.538C46.5525 382.789 46.5001 383.038 46.3986 383.267C46.2971 383.497 46.1488 383.702 45.9631 383.871C45.7775 384.04 45.5586 384.168 45.3205 384.248C45.0824 384.327 44.8303 384.356 44.5805 384.332Z" fill="white"/>
<path d="M82.3565 132.468C81.8813 132.464 81.4271 132.272 81.0926 131.935C80.7582 131.597 80.5705 131.142 80.5705 130.666V119.871C80.5469 119.621 80.5756 119.369 80.655 119.13C80.7344 118.892 80.8626 118.673 81.0315 118.488C81.2004 118.302 81.4062 118.154 81.6358 118.052C81.8653 117.951 82.1135 117.898 82.3645 117.898C82.6155 117.898 82.8637 117.951 83.0932 118.052C83.3228 118.154 83.5286 118.302 83.6975 118.488C83.8664 118.673 83.9946 118.892 84.074 119.13C84.1534 119.369 84.1821 119.621 84.1585 119.871V130.666C84.1585 131.144 83.9686 131.603 83.6307 131.941C83.2927 132.279 82.8344 132.468 82.3565 132.468Z" fill="white"/>
<path d="M87.7658 127.063H76.97C76.492 127.063 76.0337 126.873 75.6958 126.535C75.3578 126.197 75.168 125.739 75.168 125.261C75.168 124.783 75.3578 124.325 75.6958 123.987C76.0337 123.649 76.492 123.459 76.97 123.459H87.7658C88.2438 123.459 88.7021 123.649 89.0401 123.987C89.378 124.325 89.5678 124.783 89.5678 125.261C89.5678 125.739 89.378 126.197 89.0401 126.535C88.7021 126.873 88.2438 127.063 87.7658 127.063Z" fill="white"/>
<path d="M358.817 428.111C358.342 428.106 357.888 427.915 357.553 427.577C357.219 427.24 357.031 426.784 357.031 426.309V415.513C357.074 415.066 357.281 414.652 357.613 414.35C357.944 414.048 358.377 413.881 358.825 413.881C359.274 413.881 359.706 414.048 360.038 414.35C360.37 414.652 360.577 415.066 360.619 415.513V426.309C360.619 426.787 360.429 427.245 360.091 427.583C359.753 427.921 359.295 428.111 358.817 428.111Z" fill="white"/>
<path d="M364.258 422.657H353.462C352.984 422.657 352.526 422.467 352.188 422.129C351.85 421.791 351.66 421.333 351.66 420.855C351.66 420.377 351.85 419.918 352.188 419.581C352.526 419.243 352.984 419.053 353.462 419.053H364.258C364.736 419.053 365.194 419.243 365.532 419.581C365.87 419.918 366.06 420.377 366.06 420.855C366.06 421.333 365.87 421.791 365.532 422.129C365.194 422.467 364.736 422.657 364.258 422.657Z" fill="white"/>
<path d="M523.14 191.84C521.835 191.84 520.559 191.453 519.475 190.728C518.39 190.003 517.544 188.973 517.045 187.767C516.546 186.562 516.415 185.236 516.67 183.956C516.924 182.677 517.553 181.501 518.475 180.579C519.398 179.656 520.573 179.028 521.853 178.773C523.132 178.519 524.459 178.649 525.664 179.149C526.869 179.648 527.9 180.493 528.624 181.578C529.349 182.663 529.736 183.938 529.736 185.243C529.732 186.991 529.036 188.667 527.799 189.903C526.563 191.139 524.888 191.835 523.14 191.84ZM523.14 182.186C522.544 182.186 521.963 182.363 521.468 182.693C520.973 183.024 520.588 183.494 520.36 184.043C520.132 184.593 520.073 185.198 520.189 185.782C520.305 186.365 520.591 186.901 521.012 187.322C521.433 187.743 521.969 188.03 522.553 188.146C523.136 188.262 523.741 188.202 524.291 187.974C524.841 187.747 525.311 187.361 525.641 186.866C525.972 186.372 526.148 185.79 526.148 185.195C526.136 184.405 525.813 183.652 525.25 183.098C524.687 182.545 523.929 182.234 523.14 182.234V182.186Z" fill="white"/>
<path d="M382.806 107.869C381.028 107.869 379.289 107.341 377.81 106.353C376.331 105.365 375.178 103.96 374.497 102.317C373.816 100.673 373.638 98.8648 373.985 97.1201C374.332 95.3755 375.189 93.7729 376.447 92.5151C377.705 91.2573 379.307 90.4007 381.052 90.0537C382.796 89.7066 384.605 89.8848 386.248 90.5655C387.892 91.2462 389.296 92.399 390.285 93.878C391.273 95.3571 391.8 97.0959 391.8 98.8748C391.8 101.26 390.853 103.548 389.166 105.234C387.479 106.921 385.192 107.869 382.806 107.869ZM382.806 93.4849C381.736 93.4849 380.691 93.8023 379.801 94.3971C378.912 94.9918 378.219 95.837 377.81 96.8258C377.402 97.8145 377.296 98.9023 377.505 99.9514C377.715 101.001 378.232 101.964 378.989 102.719C379.747 103.475 380.712 103.988 381.762 104.195C382.811 104.402 383.899 104.292 384.886 103.881C385.874 103.469 386.717 102.774 387.309 101.883C387.901 100.991 388.216 99.9446 388.212 98.8748C388.212 98.1656 388.072 97.4634 387.801 96.8084C387.529 96.1534 387.13 95.5585 386.628 95.0578C386.126 94.5571 385.53 94.1604 384.874 93.8905C384.218 93.6206 383.516 93.4827 382.806 93.4849Z" fill="white"/>
<path d="M226.888 402.931C225.11 402.931 223.371 402.404 221.892 401.415C220.413 400.427 219.26 399.022 218.579 397.379C217.898 395.736 217.72 393.927 218.067 392.183C218.414 390.438 219.271 388.835 220.529 387.578C221.787 386.32 223.389 385.463 225.134 385.116C226.878 384.769 228.687 384.947 230.33 385.628C231.974 386.309 233.378 387.461 234.367 388.941C235.355 390.42 235.882 392.158 235.882 393.937C235.878 396.321 234.929 398.606 233.243 400.292C231.558 401.978 229.272 402.927 226.888 402.931ZM226.888 388.531C225.819 388.531 224.774 388.848 223.885 389.442C222.996 390.036 222.303 390.881 221.894 391.868C221.485 392.856 221.378 393.943 221.586 394.992C221.795 396.041 222.31 397.004 223.066 397.76C223.822 398.516 224.785 399.031 225.834 399.239C226.882 399.448 227.969 399.341 228.957 398.932C229.945 398.523 230.789 397.83 231.383 396.941C231.977 396.052 232.294 395.006 232.294 393.937C232.294 393.227 232.155 392.524 231.883 391.868C231.611 391.213 231.213 390.617 230.711 390.115C230.209 389.613 229.613 389.214 228.957 388.943C228.301 388.671 227.598 388.531 226.888 388.531Z" fill="white"/>
<path d="M234.351 85.6656L231.825 77.8945L229.299 85.6656H221.109L227.722 90.4763L225.196 98.2635L231.825 93.4528L238.437 98.2635L235.911 90.4763L242.54 85.6656H234.351Z" fill="#462683"/>
<path d="M261.672 85.6656L259.13 77.8945L256.603 85.6656H248.414L255.043 90.4763L252.517 98.2635L259.13 93.4528L265.758 98.2635L263.232 90.4763L269.845 85.6656H261.672Z" fill="#462683"/>
<path d="M288.976 85.6656L286.45 77.8945L283.924 85.6656H275.734L282.347 90.4763L279.821 98.2635L286.45 93.4528L293.062 98.2635L290.536 90.4763L297.165 85.6656H288.976Z" fill="#462683"/>
<path d="M316.296 85.6656L313.77 77.8945L311.228 85.6656H303.055L309.667 90.4763L307.141 98.2635L313.77 93.4528L320.383 98.2635L317.857 90.4763L324.469 85.6656H316.296Z" fill="#462683"/>
<path d="M351.786 85.6656H343.597L341.071 77.8945L338.545 85.6656H330.355L336.984 90.4763L334.458 98.2635L341.071 93.4528L347.7 98.2635L345.158 90.4763L351.786 85.6656Z" fill="#462683"/>
<path d="M234.351 85.6656L231.825 77.8945L229.299 85.6656H221.109L227.722 90.4763L225.196 98.2635L231.825 93.4528L238.437 98.2635L235.911 90.4763L242.54 85.6656H234.351Z" fill="white"/>
<path d="M261.668 85.6656L259.126 77.8945L256.6 85.6656H248.41L255.039 90.4763L252.513 98.2635L259.126 93.4528L265.754 98.2635L263.228 90.4763L269.841 85.6656H261.668Z" fill="white"/>
<path d="M288.972 85.6656L286.446 77.8945L283.92 85.6656H275.73L282.343 90.4763L279.817 98.2635L286.446 93.4528L293.059 98.2635L290.533 90.4763L297.161 85.6656H288.972Z" fill="white"/>
<path d="M316.296 85.6656L313.77 77.8945L311.228 85.6656H303.055L309.667 90.4763L307.141 98.2635L313.77 93.4528L320.383 98.2635L317.857 90.4763L324.469 85.6656H316.296Z" fill="white"/>
<path d="M351.786 85.6656H343.597L341.071 77.8945L338.545 85.6656H330.355L336.984 90.4763L334.458 98.2635L341.071 93.4528L347.7 98.2635L345.158 90.4763L351.786 85.6656Z" fill="white"/>
<path d="M586.294 408.803C579.424 404.089 569.143 403.3 569.143 403.3C579.031 402.023 589.076 402.828 598.634 405.665C598.634 405.665 588.981 398.586 582.175 398.586C575.369 398.586 564.348 397.798 564.348 397.798C568.467 393.084 583.543 387.581 583.543 387.581C578.276 387.555 573.012 387.818 567.775 388.37C562.948 389.158 561.613 394.66 561.613 394.66C561.613 394.66 560.229 391.443 549.948 389.158C539.667 386.873 536.932 394.66 536.932 394.66H546.586C550.013 394.66 554.807 399.375 554.807 399.375C554.807 399.375 543.85 399.375 539.732 401.74C536.192 403.767 531.687 412.182 530.448 414.498C533.266 400.004 537.27 385.765 542.418 371.926L542.692 371.717C546.094 369.376 549.321 366.79 552.345 363.978L563.93 383.285L562.964 366.858C562.964 366.858 572.618 369.77 575.53 372.666C578.442 375.562 587.13 385.216 587.13 385.216C587.13 385.216 583.269 370.736 578.426 365.909C574.199 362.023 569.675 358.472 564.895 355.29C564.895 355.29 575.53 355.29 579.375 357.221C583.221 359.151 594.837 366.874 594.837 366.874C594.837 366.874 587.114 353.359 581.306 350.447C575.498 347.535 560.052 347.551 560.052 347.551C560.052 347.551 566.826 341.759 571.653 341.759H585.184C585.184 341.759 581.306 332.105 566.826 335.001C552.345 337.898 550.399 341.759 550.399 341.759C550.399 341.759 548.452 335.002 541.694 334.02C534.937 333.039 519.475 333.055 519.475 333.055C519.475 333.055 540.729 339.828 546.521 345.62C546.521 345.62 531.059 346.586 521.406 346.586C511.752 346.586 498.221 355.29 498.221 355.29C498.221 355.29 518.51 349.482 539.764 352.394C539.764 352.394 525.283 353.359 515.63 359.151C505.976 364.944 496.323 378.459 496.323 378.459C502.069 373.028 509.031 369.051 516.627 366.858C528.212 363.962 544.639 360.101 544.639 360.101C544.639 360.101 528.212 373.632 526.281 380.389C524.129 386.678 521.549 392.811 518.558 398.747C518.558 398.747 532.411 381.049 540.198 373.809C530.888 399.306 525.617 426.101 524.575 453.225C521.712 441.496 513.313 417.234 491.496 405.086C495.631 406.212 501.6 407.854 506.411 409.237C514.648 411.602 520.811 418.666 520.811 418.666C520.811 418.666 513.957 407.661 507.103 402.946C500.249 398.232 489.967 397.444 489.967 397.444C499.85 396.158 509.892 396.964 519.443 399.809C519.443 399.809 509.789 392.73 502.984 392.73C496.178 392.73 485.157 391.941 485.157 391.941C489.276 387.227 504.367 381.725 504.367 381.725C499.096 381.699 493.827 381.957 488.584 382.497C483.757 383.285 482.422 388.788 482.422 388.788C482.422 388.788 481.054 385.65 470.773 383.285C460.492 380.92 457.741 388.788 457.741 388.788H467.394C470.837 388.788 475.632 393.518 475.632 393.518C475.632 393.518 464.659 393.518 460.54 395.867C456.421 398.216 450.887 409.237 450.887 409.237C450.887 409.237 459.108 402.946 461.86 401.37C464.611 399.793 472.141 399.761 472.141 399.761C468.697 402.378 465.469 405.267 462.487 408.401C459.06 412.326 456.325 424.136 456.325 424.136C456.325 424.136 462.487 416.268 464.546 413.903C466.606 411.538 473.46 409.189 473.46 409.189L472.768 422.559L481.006 406.824C483.13 409.089 485.421 411.192 487.86 413.115C492.687 417.057 504.995 435.141 504.995 435.141C502.859 430.277 501.026 425.285 499.508 420.194C498.382 415.657 490.289 407.323 487.474 404.636C515.421 417.748 522.87 450.764 524.157 458.39H512.573L515.131 480.915H535.532L538.074 458.39H526.088C527.767 447.73 531.146 437.409 536.095 427.82C535.757 429.124 535.548 429.976 535.548 429.976C535.548 429.976 541.727 422.109 543.786 419.76C545.845 417.411 552.699 415.029 552.699 415.029L552.008 428.4L560.229 412.68C562.359 414.94 564.649 417.043 567.083 418.971C571.91 422.897 584.234 440.981 584.234 440.981C582.097 436.123 580.265 431.137 578.748 426.05C577.38 420.532 565.716 409.527 565.716 409.527C565.716 409.527 577.38 412.745 585.602 415.029C593.824 417.314 600.002 424.474 600.002 424.474C600.002 424.474 593.196 413.533 586.294 408.803ZM526.04 451.198C526.551 439.015 527.976 426.887 530.303 414.917C531.59 413.935 538.557 408.658 541.035 407.242C543.786 405.633 551.316 405.633 551.316 405.633C547.873 408.252 544.645 411.141 541.662 414.273C539.934 416.683 538.618 419.364 537.769 422.205C532.228 431.121 528.276 440.931 526.088 451.198H526.04Z" fill="#462683"/>
<path d="M586.294 408.803C579.424 404.089 569.143 403.3 569.143 403.3C579.031 402.023 589.076 402.828 598.634 405.665C598.634 405.665 588.981 398.586 582.175 398.586C575.369 398.586 564.348 397.798 564.348 397.798C568.467 393.084 583.543 387.581 583.543 387.581C578.276 387.555 573.012 387.818 567.775 388.37C562.948 389.158 561.613 394.66 561.613 394.66C561.613 394.66 560.229 391.443 549.948 389.158C539.667 386.873 536.932 394.66 536.932 394.66H546.586C550.013 394.66 554.807 399.375 554.807 399.375C554.807 399.375 543.85 399.375 539.732 401.74C536.192 403.767 531.687 412.182 530.448 414.498C533.266 400.004 537.27 385.765 542.418 371.926L542.692 371.717C546.094 369.376 549.321 366.79 552.345 363.978L563.93 383.285L562.964 366.858C562.964 366.858 572.618 369.77 575.53 372.666C578.442 375.562 587.13 385.216 587.13 385.216C587.13 385.216 583.269 370.736 578.426 365.909C574.199 362.023 569.675 358.472 564.895 355.29C564.895 355.29 575.53 355.29 579.375 357.221C583.221 359.151 594.837 366.874 594.837 366.874C594.837 366.874 587.114 353.359 581.306 350.447C575.498 347.535 560.052 347.551 560.052 347.551C560.052 347.551 566.826 341.759 571.653 341.759H585.184C585.184 341.759 581.306 332.105 566.826 335.001C552.345 337.898 550.399 341.759 550.399 341.759C550.399 341.759 548.452 335.002 541.694 334.02C534.937 333.039 519.475 333.055 519.475 333.055C519.475 333.055 540.729 339.828 546.521 345.62C546.521 345.62 531.059 346.586 521.406 346.586C511.752 346.586 498.221 355.29 498.221 355.29C498.221 355.29 518.51 349.482 539.764 352.394C539.764 352.394 525.283 353.359 515.63 359.151C505.976 364.944 496.323 378.459 496.323 378.459C502.069 373.028 509.031 369.051 516.627 366.858C528.212 363.962 544.639 360.101 544.639 360.101C544.639 360.101 528.212 373.632 526.281 380.389C524.129 386.678 521.549 392.811 518.558 398.747C518.558 398.747 532.411 381.049 540.198 373.809C530.888 399.306 525.617 426.101 524.575 453.225C521.712 441.496 513.313 417.234 491.496 405.086C495.631 406.212 501.6 407.854 506.411 409.237C514.648 411.602 520.811 418.666 520.811 418.666C520.811 418.666 513.957 407.661 507.103 402.946C500.249 398.232 489.967 397.444 489.967 397.444C499.85 396.158 509.892 396.964 519.443 399.809C519.443 399.809 509.789 392.73 502.984 392.73C496.178 392.73 485.157 391.941 485.157 391.941C489.276 387.227 504.367 381.725 504.367 381.725C499.096 381.699 493.827 381.957 488.584 382.497C483.757 383.285 482.422 388.788 482.422 388.788C482.422 388.788 481.054 385.65 470.773 383.285C460.492 380.92 457.741 388.788 457.741 388.788H467.394C470.837 388.788 475.632 393.518 475.632 393.518C475.632 393.518 464.659 393.518 460.54 395.867C456.421 398.216 450.887 409.237 450.887 409.237C450.887 409.237 459.108 402.946 461.86 401.37C464.611 399.793 472.141 399.761 472.141 399.761C468.697 402.378 465.469 405.267 462.487 408.401C459.06 412.326 456.325 424.136 456.325 424.136C456.325 424.136 462.487 416.268 464.546 413.903C466.606 411.538 473.46 409.189 473.46 409.189L472.768 422.559L481.006 406.824C483.13 409.089 485.421 411.192 487.86 413.115C492.687 417.057 504.995 435.141 504.995 435.141C502.859 430.277 501.026 425.285 499.508 420.194C498.382 415.657 490.289 407.323 487.474 404.636C515.421 417.748 522.87 450.764 524.157 458.39H512.573L515.131 480.915H535.532L538.074 458.39H526.088C527.767 447.73 531.146 437.409 536.095 427.82C535.757 429.124 535.548 429.976 535.548 429.976C535.548 429.976 541.727 422.109 543.786 419.76C545.845 417.411 552.699 415.029 552.699 415.029L552.008 428.4L560.229 412.68C562.359 414.94 564.649 417.043 567.083 418.971C571.91 422.897 584.234 440.981 584.234 440.981C582.097 436.123 580.265 431.137 578.748 426.05C577.38 420.532 565.716 409.527 565.716 409.527C565.716 409.527 577.38 412.745 585.602 415.029C593.824 417.314 600.002 424.474 600.002 424.474C600.002 424.474 593.196 413.533 586.294 408.803ZM526.04 451.198C526.551 439.015 527.976 426.887 530.303 414.917C531.59 413.935 538.557 408.658 541.035 407.242C543.786 405.633 551.316 405.633 551.316 405.633C547.873 408.252 544.645 411.141 541.662 414.273C539.934 416.683 538.618 419.364 537.769 422.205C532.228 431.121 528.276 440.931 526.088 451.198H526.04Z" fill="#462683"/>
<path d="M138.365 408.803C131.495 404.089 121.214 403.3 121.214 403.3C131.102 402.023 141.148 402.828 150.706 405.665C150.706 405.665 141.052 398.586 134.247 398.586C127.441 398.586 116.42 397.798 116.42 397.798C120.539 393.084 135.614 387.581 135.614 387.581C130.348 387.555 125.084 387.818 119.847 388.37C115.02 389.158 113.685 394.66 113.685 394.66C113.685 394.66 112.301 391.443 102.02 389.158C91.7388 386.873 88.9876 394.66 88.9876 394.66H98.6411C102.068 394.66 106.863 399.375 106.863 399.375C106.863 399.375 95.906 399.375 91.7871 401.74C88.2475 403.767 83.7425 412.182 82.5036 414.498C85.3141 400.002 89.3179 385.763 94.474 371.926L94.7475 371.717C98.1456 369.371 101.372 366.784 104.401 363.978L115.985 383.285L115.02 366.858C115.02 366.858 124.674 369.77 127.586 372.666C130.498 375.562 139.186 385.216 139.186 385.216C139.186 385.216 135.309 370.736 130.482 365.909C126.255 362.023 121.73 358.472 116.951 355.29C116.951 355.29 127.586 355.29 131.431 357.221C135.276 359.151 146.893 366.874 146.893 366.874C146.893 366.874 139.17 353.359 133.362 350.447C127.554 347.535 112.108 347.551 112.108 347.551C112.108 347.551 118.865 341.759 123.708 341.759H137.239C137.239 341.759 133.362 332.105 118.865 335.001C104.369 337.898 102.454 341.759 102.454 341.759C102.454 341.759 100.507 335.002 93.75 334.02C86.9925 333.039 71.5308 333.055 71.5308 333.055C71.5308 333.055 92.7846 339.828 98.5768 345.62C98.5768 345.62 83.115 346.586 73.4615 346.586C63.8079 346.586 50.2608 355.29 50.2608 355.29C50.2608 355.29 70.5654 349.482 91.8193 352.394C91.8193 352.394 77.339 353.359 67.6854 359.151C58.0319 364.944 48.3783 378.459 48.3783 378.459C54.125 373.028 61.0867 369.051 68.683 366.858C80.2672 363.962 96.6943 360.101 96.6943 360.101C96.6943 360.101 80.2672 373.632 78.3365 380.389C76.1846 386.678 73.6043 392.811 70.6137 398.747C70.6137 398.747 84.4665 381.049 92.2537 373.809C82.9329 399.305 77.651 426.1 76.5989 453.225C73.735 441.496 65.3364 417.234 43.5194 405.086C47.6543 406.212 53.6234 407.854 58.4341 409.237C66.6718 411.602 72.9144 418.666 72.9144 418.666C72.9144 418.666 66.0604 407.661 59.2064 402.946C52.3524 398.232 42.0714 397.444 42.0714 397.444C51.9213 396.195 61.9236 397.022 71.4342 399.873C71.4342 399.873 61.7807 392.794 54.9749 392.794C48.1692 392.794 37.1802 392.086 37.1802 392.086C41.2991 387.372 56.3747 381.869 56.3747 381.869C51.1088 381.844 45.8454 382.102 40.6072 382.642C35.8126 383.35 34.429 388.868 34.429 388.868C34.429 388.868 33.0614 385.731 22.7643 383.366C12.4672 381.001 9.76416 388.868 9.76416 388.868H19.4177C22.8447 388.868 27.6554 393.599 27.6554 393.599C27.6554 393.599 16.6825 393.599 12.5637 395.948C8.44486 398.297 2.91016 409.318 2.91016 409.318C2.91016 409.318 11.1318 403.027 13.883 401.45C16.6343 399.873 24.164 399.841 24.164 399.841C20.7203 402.458 17.4921 405.348 14.5105 408.481C11.0835 412.407 8.34832 424.216 8.34832 424.216C8.34832 424.216 14.5105 416.349 16.5699 413.984C18.6293 411.618 25.4834 409.269 25.4834 409.269L24.7754 422.656L33.0131 406.92C35.1318 409.191 37.4234 411.295 39.8671 413.211C44.6939 417.153 57.0022 435.237 57.0022 435.237C54.866 430.373 53.0336 425.382 51.5158 420.291C50.3895 415.753 42.2966 407.419 39.4649 404.732C67.428 417.845 74.8612 450.86 76.1645 458.486H64.5802L67.1384 481.011H87.5396L90.0816 458.486H78.0952C79.7743 447.827 83.1531 437.506 88.1027 427.917C87.7648 429.22 87.5556 430.073 87.5556 430.073C87.5556 430.073 93.7339 422.205 95.7933 419.856C97.8528 417.507 104.707 415.126 104.707 415.126L104.015 428.496L112.237 412.777C114.366 415.037 116.657 417.139 119.091 419.068C123.917 422.994 136.242 441.078 136.242 441.078C134.104 436.22 132.272 431.233 130.755 426.147C129.388 420.628 117.723 409.623 117.723 409.623C117.723 409.623 129.388 412.841 137.609 415.126C145.831 417.411 152.09 424.57 152.09 424.57C152.09 424.57 145.219 413.533 138.365 408.803ZM78.1113 451.198C78.6227 439.015 80.0479 426.887 82.3749 414.917C83.6621 413.935 90.6287 408.658 93.1064 407.242C95.8577 405.633 103.387 405.633 103.387 405.633C99.9449 408.252 96.7168 411.141 93.7339 414.273C92.0059 416.683 90.6902 419.364 89.8403 422.205C84.2827 431.118 80.3141 440.928 78.1113 451.198Z" fill="#462683"/>
<path d="M138.365 408.803C131.495 404.089 121.214 403.3 121.214 403.3C131.102 402.023 141.148 402.828 150.706 405.665C150.706 405.665 141.052 398.586 134.247 398.586C127.441 398.586 116.42 397.798 116.42 397.798C120.539 393.084 135.614 387.581 135.614 387.581C130.348 387.555 125.084 387.818 119.847 388.37C115.02 389.158 113.685 394.66 113.685 394.66C113.685 394.66 112.301 391.443 102.02 389.158C91.7388 386.873 88.9876 394.66 88.9876 394.66H98.6411C102.068 394.66 106.863 399.375 106.863 399.375C106.863 399.375 95.906 399.375 91.7871 401.74C88.2475 403.767 83.7425 412.182 82.5036 414.498C85.3141 400.002 89.3179 385.763 94.474 371.926L94.7475 371.717C98.1456 369.371 101.372 366.784 104.401 363.978L115.985 383.285L115.02 366.858C115.02 366.858 124.674 369.77 127.586 372.666C130.498 375.562 139.186 385.216 139.186 385.216C139.186 385.216 135.309 370.736 130.482 365.909C126.255 362.023 121.73 358.472 116.951 355.29C116.951 355.29 127.586 355.29 131.431 357.221C135.276 359.151 146.893 366.874 146.893 366.874C146.893 366.874 139.17 353.359 133.362 350.447C127.554 347.535 112.108 347.551 112.108 347.551C112.108 347.551 118.865 341.759 123.708 341.759H137.239C137.239 341.759 133.362 332.105 118.865 335.001C104.369 337.898 102.454 341.759 102.454 341.759C102.454 341.759 100.507 335.002 93.75 334.02C86.9925 333.039 71.5308 333.055 71.5308 333.055C71.5308 333.055 92.7846 339.828 98.5768 345.62C98.5768 345.62 83.115 346.586 73.4615 346.586C63.8079 346.586 50.2608 355.29 50.2608 355.29C50.2608 355.29 70.5654 349.482 91.8193 352.394C91.8193 352.394 77.339 353.359 67.6854 359.151C58.0319 364.944 48.3783 378.459 48.3783 378.459C54.125 373.028 61.0867 369.051 68.683 366.858C80.2672 363.962 96.6943 360.101 96.6943 360.101C96.6943 360.101 80.2672 373.632 78.3365 380.389C76.1846 386.678 73.6043 392.811 70.6137 398.747C70.6137 398.747 84.4665 381.049 92.2537 373.809C82.9329 399.305 77.651 426.1 76.5989 453.225C73.735 441.496 65.3364 417.234 43.5194 405.086C47.6543 406.212 53.6234 407.854 58.4341 409.237C66.6718 411.602 72.9144 418.666 72.9144 418.666C72.9144 418.666 66.0604 407.661 59.2064 402.946C52.3524 398.232 42.0714 397.444 42.0714 397.444C51.9213 396.195 61.9236 397.022 71.4342 399.873C71.4342 399.873 61.7807 392.794 54.9749 392.794C48.1692 392.794 37.1802 392.086 37.1802 392.086C41.2991 387.372 56.3747 381.869 56.3747 381.869C51.1088 381.844 45.8454 382.102 40.6072 382.642C35.8126 383.35 34.429 388.868 34.429 388.868C34.429 388.868 33.0614 385.731 22.7643 383.366C12.4672 381.001 9.76416 388.868 9.76416 388.868H19.4177C22.8447 388.868 27.6554 393.599 27.6554 393.599C27.6554 393.599 16.6825 393.599 12.5637 395.948C8.44486 398.297 2.91016 409.318 2.91016 409.318C2.91016 409.318 11.1318 403.027 13.883 401.45C16.6343 399.873 24.164 399.841 24.164 399.841C20.7203 402.458 17.4921 405.348 14.5105 408.481C11.0835 412.407 8.34832 424.216 8.34832 424.216C8.34832 424.216 14.5105 416.349 16.5699 413.984C18.6293 411.618 25.4834 409.269 25.4834 409.269L24.7754 422.656L33.0131 406.92C35.1318 409.191 37.4234 411.295 39.8671 413.211C44.6939 417.153 57.0022 435.237 57.0022 435.237C54.866 430.373 53.0336 425.382 51.5158 420.291C50.3895 415.753 42.2966 407.419 39.4649 404.732C67.428 417.845 74.8612 450.86 76.1645 458.486H64.5802L67.1384 481.011H87.5396L90.0816 458.486H78.0952C79.7743 447.827 83.1531 437.506 88.1027 427.917C87.7648 429.22 87.5556 430.073 87.5556 430.073C87.5556 430.073 93.7339 422.205 95.7933 419.856C97.8528 417.507 104.707 415.126 104.707 415.126L104.015 428.496L112.237 412.777C114.366 415.037 116.657 417.139 119.091 419.068C123.917 422.994 136.242 441.078 136.242 441.078C134.104 436.22 132.272 431.233 130.755 426.147C129.388 420.628 117.723 409.623 117.723 409.623C117.723 409.623 129.388 412.841 137.609 415.126C145.831 417.411 152.09 424.57 152.09 424.57C152.09 424.57 145.219 413.533 138.365 408.803ZM78.1113 451.198C78.6227 439.015 80.0479 426.887 82.3749 414.917C83.6621 413.935 90.6287 408.658 93.1064 407.242C95.8577 405.633 103.387 405.633 103.387 405.633C99.9449 408.252 96.7168 411.141 93.7339 414.273C92.0059 416.683 90.6902 419.364 89.8403 422.205C84.2827 431.118 80.3141 440.928 78.1113 451.198Z" fill="#462683"/>
<path d="M105.753 525.87C130.926 525.87 151.334 517.817 151.334 507.882C151.334 497.948 130.926 489.895 105.753 489.895C80.5791 489.895 60.1719 497.948 60.1719 507.882C60.1719 517.817 80.5791 525.87 105.753 525.87Z" fill="#462683"/>
<path opacity="0.5" d="M105.753 525.87C130.926 525.87 151.334 517.817 151.334 507.882C151.334 497.948 130.926 489.895 105.753 489.895C80.5791 489.895 60.1719 497.948 60.1719 507.882C60.1719 517.817 80.5791 525.87 105.753 525.87Z" fill="white"/>
<path d="M73.1382 217.037C71.0088 218.34 69.2216 220.133 67.9252 222.266C66.1876 225.484 56.0353 254.718 52.8496 261.379C49.664 268.04 48.2159 270.357 52.2704 272.642C56.3249 274.926 61.5539 271.483 65.0292 265.112C68.5045 258.74 74.8758 241.058 76.0342 237.004C77.1927 232.949 81.2471 217.616 73.1382 217.037Z" fill="#462683" stroke="#263238" stroke-linecap="round" stroke-linejoin="round"/>
<path d="M135.869 480.014L138.266 497.181L136.657 497.969L131.879 488.798L135.869 480.014Z" fill="#263238" stroke="#263238" stroke-linecap="round" stroke-linejoin="round"/>
<path d="M86.3828 376.271C86.3828 376.271 91.5796 401.001 96.7604 416.961C101.941 432.922 118.706 470.056 119.913 476.491C121.119 482.927 119.511 482.927 119.511 488.059C119.511 493.192 112.335 498.839 111.933 501.623C111.53 504.406 117.113 504.841 122.31 503.232C127.507 501.623 131.079 497.246 131.079 493.578C131.079 489.91 135.906 483.603 135.906 480.015C135.906 476.427 129.92 476.025 129.47 469.235C129.019 462.445 126.67 438.118 122.68 423.751C118.69 409.383 114.636 401.805 111.514 397.815C108.393 393.825 104.338 384.638 105.079 381.452C105.819 378.267 86.3828 376.271 86.3828 376.271Z" fill="#DFADAD" stroke="#263238" stroke-linecap="round" stroke-linejoin="round"/>
<path d="M131.072 493.58C131.072 489.992 135.899 483.605 135.899 480.017C135.899 478.504 134.837 477.555 133.566 476.461C131.796 481.207 128.192 489.429 122.722 493.982C119.327 496.83 117.09 496.782 115.675 495.961C113.905 498.23 112.151 500.225 111.958 501.56C111.556 504.36 117.139 504.778 122.336 503.169C127.532 501.56 131.072 497.184 131.072 493.58Z" fill="#263238" stroke="#263238" stroke-linecap="round" stroke-linejoin="round"/>
<path d="M95.5639 381.852C95.5639 381.852 93.955 395.013 93.955 403.395C93.955 411.778 89.1282 467.044 87.5193 477.615C86.023 487.88 83.1269 492.385 81.5341 497.968C79.9413 503.551 78.3163 509.552 75.5489 511.145C72.7816 512.738 75.5489 514.363 80.3757 513.928C85.2024 513.494 90.0292 511.145 90.351 506.752C90.6728 502.36 94.5503 498.499 97.1407 496.777C101.967 493.559 95.9501 484.002 102.724 463.247C105.716 454.141 113.101 442.106 114.694 428.14C116.287 414.175 113.503 401.4 113.503 398.214C113.503 395.029 116.303 383.042 116.303 383.042L95.5639 381.852Z" fill="#DFADAD" stroke="#263238" stroke-linecap="round" stroke-linejoin="round"/>
<path d="M98.3877 497.454C103.568 495.475 99.8036 491.018 99.3692 486.191C95.202 490.23 89.6352 500.672 86.3851 503.89C85.4638 504.782 84.3088 505.397 83.0533 505.661C81.7979 505.926 80.4932 505.831 79.2898 505.386C78.2922 508.057 77.1338 510.213 75.6214 511.081C72.8219 512.69 75.6214 514.299 80.4482 513.865C85.275 513.431 90.1018 511.081 90.4235 506.689C90.7453 502.297 95.4756 498.564 98.3877 497.454Z" fill="#263238" stroke="#263238" stroke-linecap="round" stroke-linejoin="round"/>
<path d="M99.1496 493.577L100.388 511.146H97.1706L94.3711 499.176C94.3711 499.176 97.1706 493.19 99.1496 493.577Z" fill="#263238" stroke="#263238" stroke-linecap="round" stroke-linejoin="round"/>
<path d="M91.9582 214.14L79.7948 218.774C79.7948 218.774 73.1338 234.719 70.817 246.303C68.5001 257.887 71.6858 269.777 74.0348 277.017C76.3838 284.257 79.2477 325.993 80.4705 341.921C81.6933 357.85 83.8492 380.825 83.8492 380.825C83.8492 380.825 89.0622 384.896 99.5041 386.923C109.946 388.95 124.716 385.764 124.716 385.764C124.716 385.764 133.404 360.553 135.142 345.766C136.879 330.98 122.383 306.943 117.749 296.517C113.116 286.092 111.314 269.278 112.247 264.339C113.18 259.399 124.121 222.04 120.291 220.287C116.462 218.533 102.979 213.497 91.9582 214.14Z" fill="#263238" stroke="#263238" stroke-linecap="round" stroke-linejoin="round"/>
<path d="M91.9618 204.006C91.9618 204.006 90.8034 212.05 89.9346 215.59C89.0658 219.13 82.4048 231.245 85.0113 236.506C87.6177 241.767 96.2737 241.719 100.087 232.741C102.431 226.544 103.525 219.944 103.305 213.322L104.753 204.633C104.753 204.633 95.4532 207.771 91.9618 204.006Z" fill="#DFADAD" stroke="#263238" stroke-linecap="round" stroke-linejoin="round"/>
<path d="M127.331 191.261C126.646 190.101 125.593 189.205 124.338 188.715C123.084 188.225 121.702 188.17 120.412 188.558C125.657 184.23 128.972 177.215 123.839 167.208C117.404 154.739 102.408 157.651 102.408 157.651C99.5838 157.523 96.7764 158.154 94.278 159.478C91.7797 160.802 89.6815 162.771 88.2017 165.18C82.9888 173.579 85.8848 185.163 90.2289 188.365C94.2512 191.293 106.865 194.463 114.491 191.985C110.035 196.603 107.155 203.248 111.274 209.04C112.086 210.318 113.189 211.388 114.491 212.161C115.794 212.935 117.26 213.391 118.772 213.493C120.284 213.595 121.798 213.339 123.193 212.747C124.587 212.156 125.823 211.244 126.8 210.086C131.964 204.004 130.516 196.764 127.331 191.261Z" fill="#263238" stroke="#263238" stroke-linecap="round" stroke-linejoin="round"/>
<path d="M91.2538 189.008C91.2538 189.008 87.7625 183.248 86.8775 187.222C85.9926 191.196 87.6659 194.189 88.8243 194.929C89.5008 195.365 90.3159 195.531 91.109 195.396" fill="#DFADAD"/>
<path d="M91.2538 189.008C91.2538 189.008 87.7625 183.248 86.8775 187.222C85.9926 191.196 87.6659 194.189 88.8243 194.929C89.5008 195.365 90.3159 195.531 91.109 195.396" stroke="#263238" stroke-linecap="round" stroke-linejoin="round"/>
<path d="M91.0764 178.759C91.0764 178.759 85.8474 200.206 93.1037 207.72C100.36 215.233 108.453 203.086 115.114 193.819L117.141 187.737C115.5 184.718 113.661 181.81 111.638 179.032C109.548 176.309 107.888 173.281 106.715 170.055C106.715 170.055 99.1854 179.708 91.0764 178.759Z" fill="#DFADAD" stroke="#263238" stroke-linecap="round" stroke-linejoin="round"/>
<path d="M113.361 193.95C113.361 193.95 119.394 190.941 118.011 194.77C116.627 198.6 113.634 200.257 112.267 200.257C111.457 200.259 110.674 199.967 110.062 199.436" fill="#DFADAD"/>
<path d="M113.361 193.95C113.361 193.95 119.394 190.941 118.011 194.77C116.627 198.6 113.634 200.257 112.267 200.257C111.457 200.259 110.674 199.967 110.062 199.436" stroke="#263238" stroke-linecap="round" stroke-linejoin="round"/>
<path d="M103.223 186.547C104.344 185.657 105.721 185.151 107.152 185.102C108.582 185.052 109.991 185.463 111.171 186.273" stroke="#263238" stroke-width="0.5" stroke-miterlimit="10"/>
<path d="M99.1034 183.538C99.1034 183.538 96.0947 180.32 92.8125 181.623" stroke="#263238" stroke-width="0.5" stroke-miterlimit="10"/>
<path d="M98.0117 197.23L99.9263 198.067" stroke="#263238" stroke-width="0.5" stroke-miterlimit="10"/>
<path d="M95 200.256C96.0561 200.902 97.2301 201.331 98.4538 201.519C99.6775 201.707 100.926 201.649 102.128 201.35" stroke="#263238" stroke-width="0.5" stroke-miterlimit="10"/>
<path d="M99.2953 189.732C99.0113 190.664 98.4521 191.488 97.6912 192.096C96.9303 192.704 96.0033 193.067 95.032 193.139C94.0607 193.21 93.0906 192.986 92.249 192.496C91.4074 192.006 90.7338 191.272 90.3167 190.392C89.8996 189.512 89.7584 188.526 89.9118 187.565C90.0652 186.603 90.5059 185.71 91.1761 185.003C91.8463 184.297 92.7146 183.809 93.6669 183.605C94.6192 183.401 95.6109 183.49 96.5119 183.86C97.6587 184.271 98.5957 185.12 99.1175 186.221C99.6393 187.322 99.7033 188.584 99.2953 189.732V189.732Z" stroke="#263238" stroke-width="0.5" stroke-miterlimit="10"/>
<path d="M110.528 192.758C110.243 193.689 109.682 194.513 108.92 195.12C108.158 195.727 107.23 196.089 106.258 196.159C105.286 196.228 104.316 196.002 103.475 195.51C102.634 195.018 101.962 194.283 101.546 193.402C101.131 192.521 100.992 191.534 101.148 190.572C101.304 189.611 101.747 188.718 102.42 188.013C103.092 187.308 103.962 186.823 104.915 186.622C105.869 186.42 106.86 186.512 107.761 186.885C108.904 187.3 109.838 188.15 110.356 189.25C110.875 190.351 110.937 191.612 110.528 192.758V192.758Z" stroke="#263238" stroke-width="0.5" stroke-miterlimit="10"/>
<path d="M99.3789 188.459L101.664 189.119" stroke="#263238" stroke-width="0.5" stroke-miterlimit="10"/>
<path d="M110.625 191.762L115.275 192.309" stroke="#263238" stroke-width="0.5" stroke-miterlimit="10"/>
<path d="M89.9361 215.588C85.3407 225.011 81.8321 234.927 79.478 245.144C76.582 259.624 76.8716 286.59 77.4508 297.016C78.03 307.441 77.4508 337.239 77.4508 337.239L64.1289 331.447C64.1289 331.447 64.7081 312.606 67.025 300.443C68.9244 289.15 69.7005 277.698 69.3418 266.253C69.0522 259.592 66.124 250.019 67.8938 241.041C69.6636 232.063 72.2379 217.856 73.1067 216.907C73.9755 215.958 89.9361 215.588 89.9361 215.588Z" fill="#462683" stroke="#263238" stroke-linecap="round" stroke-linejoin="round"/>
<path d="M103.275 215.008C103.275 215.008 98.062 235.586 94.8763 254.426C91.6907 273.267 99.51 336.482 99.51 336.482C105.147 336.165 110.757 335.487 116.307 334.454C129.066 332.427 135.148 328.662 135.148 328.662C135.148 328.662 127.618 309.532 122.679 299.702C117.739 289.871 113.99 282.003 113.99 282.003C113.042 274.471 113.534 266.827 115.438 259.478C118.656 247.589 127.328 223.262 123.837 220.349C120.346 217.437 103.275 215.008 103.275 215.008Z" fill="#462683" stroke="#263238" stroke-linecap="round" stroke-linejoin="round"/>
<path d="M115.441 229.795C115.441 229.795 112.223 244.276 111.097 250.937C109.971 257.598 107.622 267.46 107.622 267.46C107.622 267.46 87.333 268.329 82.4097 268.039C77.4864 267.75 72.2734 267.75 72.2734 267.75L74.0111 277.017C74.0111 277.017 90.229 282.809 100.381 284.547C110.534 286.285 116.02 288.907 117.758 285.722C119.495 282.536 125.304 249.778 127.411 237.325C129.519 224.872 130.887 221.976 122.182 219.627" fill="#462683"/>
<path d="M115.441 229.795C115.441 229.795 112.223 244.276 111.097 250.937C109.971 257.598 107.622 267.46 107.622 267.46C107.622 267.46 87.333 268.329 82.4097 268.039C77.4864 267.75 72.2734 267.75 72.2734 267.75L74.0111 277.017C74.0111 277.017 90.229 282.809 100.381 284.547C110.534 286.285 116.02 288.907 117.758 285.722C119.495 282.536 125.304 249.778 127.411 237.325C129.519 224.872 130.887 221.976 122.182 219.627" stroke="#263238" stroke-linecap="round" stroke-linejoin="round"/>
<path d="M95.4553 259.932C95.4553 259.932 106.46 258.484 107.329 258.194C108.198 257.904 119.493 262.828 119.493 262.828C119.493 262.828 118.913 264.276 118.045 264.565C117.176 264.855 110.225 261.347 110.225 261.347L109.067 261.637L117.755 267.429C117.755 267.429 118.913 268.877 117.755 269.456C116.597 270.036 107.329 263.954 107.329 263.954L115.374 271.773C114.9 272.098 114.339 272.271 113.765 272.271C113.191 272.271 112.63 272.098 112.156 271.773C110.708 270.615 107.522 267.429 107.522 267.429C107.522 267.429 110.997 271.484 109.26 271.773C107.522 272.063 104.337 267.14 104.337 267.14L99.1236 266.271L93.6211 265.692L95.4553 259.932Z" fill="#DFADAD" stroke="#263238" stroke-linecap="round" stroke-linejoin="round"/>
<path d="M78.6571 260.154C78.6571 260.154 71.3526 251.787 70.9021 250.999C70.4516 250.211 58.7065 246.43 58.7065 246.43C58.445 247.163 58.445 247.965 58.7065 248.698C59.1731 249.487 66.7511 251.482 66.7511 251.482L67.4269 252.463L57.0654 251.063C57.0654 251.063 55.2473 251.385 55.73 252.576C56.2126 253.766 67.2016 255.343 67.2016 255.343L55.9391 255.858C56.0825 256.409 56.3874 256.904 56.8147 257.279C57.242 257.655 57.772 257.894 58.3364 257.966C60.1867 258.046 64.6756 257.773 64.6756 257.773C64.6756 257.773 59.3822 258.513 60.5085 259.88C61.6347 261.248 67.266 259.655 67.266 259.655L71.7549 262.455L76.2598 265.672L78.6571 260.154Z" fill="#DFADAD" stroke="#263238" stroke-linecap="round" stroke-linejoin="round"/>
<path d="M58.0671 258.771C58.0671 258.771 86.4646 259.64 90.2456 259.64C91.9937 259.589 93.7429 259.686 95.4746 259.93L93.4474 274.121C86.3226 274.845 79.1604 275.135 72.0004 274.989C56.6352 274.989 49.6846 275.858 50.2638 270.066C50.843 264.274 58.0671 258.771 58.0671 258.771Z" fill="#462683" stroke="#263238" stroke-linecap="round" stroke-linejoin="round"/>
<path d="M187.307 537.854C212.481 537.854 232.888 529.801 232.888 519.867C232.888 509.932 212.481 501.879 187.307 501.879C162.134 501.879 141.727 509.932 141.727 519.867C141.727 529.801 162.134 537.854 187.307 537.854Z" fill="#462683"/>
<path opacity="0.5" d="M187.307 537.854C212.481 537.854 232.888 529.801 232.888 519.867C232.888 509.932 212.481 501.879 187.307 501.879C162.134 501.879 141.727 509.932 141.727 519.867C141.727 529.801 162.134 537.854 187.307 537.854Z" fill="white"/>
<path d="M176.738 152.357C176.738 152.357 167.277 152.952 161.196 164.424C155.114 175.896 157.978 196.602 160.166 203.038C162.354 209.474 172.346 239.963 178.089 261.281C183.833 282.599 194.179 301.585 212.697 300.909C231.216 300.233 256.138 291.625 248.094 260.412C240.049 229.199 222.576 216.36 219.133 208.396C215.69 200.432 214.95 192.194 213.421 174.866C211.893 157.538 200.035 147.965 188.161 144.505C176.287 141.046 176.738 152.357 176.738 152.357Z" fill="#263238" stroke="#263238" stroke-linecap="round" stroke-linejoin="round"/>
<path d="M211.586 202.41C214.611 205.21 215.801 205.29 215.801 205.29" stroke="white" stroke-width="0.5" stroke-linecap="round" stroke-linejoin="round"/>
<path d="M184.824 154.529C184.824 154.529 185.082 166.966 198.275 186C201.583 190.903 205.222 195.575 209.167 199.981" stroke="white" stroke-width="0.5" stroke-linecap="round" stroke-linejoin="round"/>
<path d="M187.871 162.895C187.871 162.895 199.809 190.809 213.517 198.677" stroke="white" stroke-width="0.5" stroke-linecap="round" stroke-linejoin="round"/>
<path d="M223.41 233.705C223.41 233.705 242.942 256.23 243.2 272.319C243.457 288.408 233.305 295.166 232.291 295.166" stroke="white" stroke-width="0.5" stroke-linecap="round" stroke-linejoin="round"/>
<path d="M233.227 237.049C238.649 247.539 244.65 261.987 243.202 272.284" stroke="white" stroke-width="0.5" stroke-linecap="round" stroke-linejoin="round"/>
<path d="M225.438 223.553C225.438 223.553 227.368 226.481 229.975 231.05" stroke="white" stroke-width="0.5" stroke-linecap="round" stroke-linejoin="round"/>
<path d="M166.807 177.117C166.807 177.117 159.358 192.289 160.162 202.973" stroke="white" stroke-width="0.5" stroke-linecap="round" stroke-linejoin="round"/>
<path d="M163.247 186C163.247 186 163.006 195.38 165.79 200.48" stroke="white" stroke-width="0.5" stroke-linecap="round" stroke-linejoin="round"/>
<path d="M230.491 329.613C230.491 329.613 226.887 337.658 226.887 339.958C226.887 342.259 227.337 352.106 228.689 350.304C230.04 348.502 228.689 341.76 230.491 341.31C232.293 340.859 233.709 342.211 231.842 347.601C229.976 352.991 228.624 358.397 232.293 355.645C235.961 352.894 235.881 349.338 237.232 341.246C238.054 336.464 237.901 331.566 236.782 326.846L230.491 329.613Z" fill="#DFADAD" stroke="#263238" stroke-linecap="round" stroke-linejoin="round"/>
<path d="M218.787 210.873L225.979 276.984L239.027 327.359L227.765 332.315C227.765 332.315 212.931 290.933 209.327 283.291C205.723 275.648 204.371 269.341 204.371 266.188C204.371 263.034 218.787 210.873 218.787 210.873Z" fill="#462683" stroke="#263238" stroke-linecap="round" stroke-linejoin="round"/>
<path d="M153.578 395.304C153.578 395.304 155.364 404.298 155.815 408.787C156.265 413.276 154.914 429.478 157.166 444.779C159.419 460.08 171.18 505.033 171.18 505.033C171.18 505.033 159.483 515.362 159.483 520.318C159.483 525.273 163.087 524.372 168.927 520.768C174.768 517.164 180.624 509.071 181.075 503.682C181.525 498.292 176.57 466.789 178.372 452.856C180.174 438.922 177.471 414.628 177.471 404.733V394.838L153.578 395.304Z" fill="#DFADAD" stroke="#263238" stroke-linecap="round" stroke-linejoin="round"/>
<path d="M166.614 515.361C165.005 514.589 165.922 511.5 166.919 509.07C163.573 512.513 159.422 517.372 159.422 520.333C159.422 525.272 163.026 524.387 168.866 520.783C173.683 517.565 177.501 513.062 179.887 507.783C174.851 513.27 168.673 516.391 166.614 515.361Z" fill="#263238" stroke="#263238" stroke-linecap="round" stroke-linejoin="round"/>
<path d="M175.609 398.426C175.609 398.426 175.158 414.628 176.96 421.369C178.762 428.11 190.009 462.75 191.811 473.096C193.729 483.945 194.928 494.91 195.398 505.918C195.398 513.126 202.156 529.312 206.661 530.213C211.166 531.114 213.869 531.114 212.517 523.922C211.166 516.73 202.622 505.467 202.622 505.467C202.622 505.467 207.095 459.661 205.293 445.181C203.491 430.701 198.536 416.413 198.536 415.078C198.536 413.743 200.788 397.074 200.788 397.074L175.609 398.426Z" fill="#DFADAD" stroke="#263238" stroke-linecap="round" stroke-linejoin="round"/>
<path d="M209.17 515.652C208.623 517.92 207.561 519.867 205.743 519.867C201.254 519.867 196.749 512.225 196.749 512.225L196.523 512.611C198.631 520.253 203.265 529.537 206.644 530.212C211.149 531.113 213.852 531.113 212.5 523.921C211.798 521.017 210.676 518.231 209.17 515.652Z" fill="#263238" stroke="#263238" stroke-linecap="round" stroke-linejoin="round"/>
<path d="M173.37 202.782C173.37 202.782 141.433 209.524 140.982 211.326C140.532 213.128 151.328 269.343 151.328 271.596C151.328 273.848 138.73 303.083 137.829 321.07C136.928 339.058 143.685 398.878 143.685 398.878C143.685 398.878 157.168 404.734 170.216 404.734C183.265 404.734 205.291 401.517 205.291 401.517C205.291 401.517 216.087 366.876 216.988 337.642C217.889 308.408 204.84 271.982 204.84 271.982C204.84 271.982 218.79 213.063 218.79 210.843C218.79 208.623 189.105 200.98 173.37 202.782Z" fill="#263238" stroke="#263238" stroke-linecap="round" stroke-linejoin="round"/>
<path d="M204.844 272.047C204.844 272.047 218.793 213.128 218.793 210.908C218.793 208.688 189.109 201.013 173.373 202.863C173.373 202.863 141.436 209.605 140.986 211.407C140.535 213.209 151.331 269.424 151.331 271.677C151.331 273.286 144.895 288.587 140.938 303.759C146.833 306.872 153.026 309.384 159.424 311.257C173.373 315.311 178.731 309.455 178.731 309.455C178.731 309.455 177.38 312.672 185.473 313.509C192.648 314.297 204.78 314.024 214.304 308.328C212.036 296.021 208.874 283.895 204.844 272.047Z" fill="#462683" stroke="#263238" stroke-linecap="round" stroke-linejoin="round"/>
<path d="M179.501 295.424C178.858 299.832 178.375 302.761 178.375 302.761" stroke="#263238" stroke-linecap="round" stroke-linejoin="round"/>
<path d="M181.978 236.021C183.094 246.709 183.384 257.467 182.847 268.2C182.412 273.606 181.64 280.026 180.852 285.898" stroke="#263238" stroke-linecap="round" stroke-linejoin="round"/>
<path d="M177.158 199.307C177.158 199.307 168.485 202.203 164.624 205.582C160.763 208.961 154.504 214.737 154.504 214.737L170.416 215.702L181.984 236.023L190.174 216.265H199.827C202.517 216.294 205.163 216.956 207.55 218.196C207.55 218.196 196.465 203.249 190.19 200.353C186.069 198.621 181.502 198.254 177.158 199.307Z" fill="white" stroke="#263238" stroke-linecap="round" stroke-linejoin="round"/>
<path d="M171.859 193.528C171.859 193.528 173.307 213.768 177.153 219.077C180.998 224.387 186.308 210.405 186.308 204.13C186.308 197.856 186.79 189.184 186.79 189.184L171.859 193.528Z" fill="#DFADAD" stroke="#263238" stroke-linecap="round" stroke-linejoin="round"/>
<path d="M140.983 211.322C140.983 211.322 121.676 275.679 121.676 280.136C121.676 284.593 127.066 289.58 132.472 286.427C137.878 283.273 148.657 253.154 148.657 253.154L140.983 211.322Z" fill="#462683" stroke="#263238" stroke-linecap="round" stroke-linejoin="round"/>
<path d="M115.789 252.254L137.381 294.086L167.065 297.224L149.528 246.414L115.789 252.254Z" fill="white" stroke="#263238" stroke-linecap="round" stroke-linejoin="round"/>
<path d="M141.887 278.785L149.931 263.95L159.376 260.732L160.727 262.534L155.321 265.752C155.321 265.752 162.079 266.187 163.881 266.187C165.683 266.187 165.216 268.89 165.216 268.89L164.331 270.692C164.331 270.692 165.216 276.532 165.216 278.334C165.216 280.136 145.426 285.976 145.426 285.976L141.887 278.785Z" fill="#DFADAD" stroke="#263238" stroke-linecap="round" stroke-linejoin="round"/>
<path d="M142.691 274.346L148.789 290.821C148.789 290.821 137.334 296.179 129.096 296.179C120.858 296.179 116.579 285.447 119.796 280.09C123.014 274.732 142.691 274.346 142.691 274.346Z" fill="#462683" stroke="#263238" stroke-linecap="round" stroke-linejoin="round"/>
<path d="M179.997 157.344L164.985 175.46C164.985 175.46 164.47 189.313 171.325 199.964C180.737 214.638 192.997 185.484 192.997 185.484L179.997 157.344Z" fill="#DFADAD" stroke="#263238" stroke-linecap="round" stroke-linejoin="round"/>
<path d="M173.893 179.869C174.054 181.172 173.652 182.298 173.008 182.379C172.365 182.459 171.705 181.462 171.544 180.175C171.383 178.887 171.769 177.745 172.429 177.665C173.089 177.584 173.732 178.582 173.893 179.869Z" fill="#263238"/>
<path d="M182.447 180.561C182.447 181.864 181.9 182.926 181.24 182.926C180.581 182.926 180.082 181.848 180.082 180.545C180.082 179.242 180.629 178.18 181.273 178.18C181.916 178.18 182.447 179.258 182.447 180.561Z" fill="#263238"/>
<path d="M173.359 192.035C175.752 192.795 178.331 192.727 180.68 191.842" stroke="#263238" stroke-width="0.5" stroke-linecap="round" stroke-linejoin="round"/>
<path d="M178.617 174.884C179.476 174.217 180.545 173.88 181.631 173.933C182.717 173.986 183.748 174.426 184.538 175.173" stroke="#263238" stroke-width="0.5" stroke-linecap="round" stroke-linejoin="round"/>
<path d="M174.172 175.54C173.894 175.145 173.531 174.818 173.109 174.582C172.687 174.347 172.218 174.209 171.736 174.18C171.254 174.15 170.771 174.23 170.324 174.413C169.877 174.595 169.476 174.876 169.152 175.235" stroke="#263238" stroke-width="0.5" stroke-linecap="round" stroke-linejoin="round"/>
<path d="M175.655 178.52C176.021 179.897 175.919 181.357 175.366 182.671C174.481 185.357 173.29 186.838 174.175 187.497C175.008 187.897 175.922 188.1 176.846 188.093" stroke="#263238" stroke-width="0.5" stroke-linecap="round" stroke-linejoin="round"/>
<path d="M464.366 523.456C498.807 523.456 526.728 515.403 526.728 505.468C526.728 495.534 498.807 487.48 464.366 487.48C429.924 487.48 402.004 495.534 402.004 505.468C402.004 515.403 429.924 523.456 464.366 523.456Z" fill="#462683"/>
<path opacity="0.5" d="M464.366 523.456C498.807 523.456 526.728 515.403 526.728 505.468C526.728 495.534 498.807 487.48 464.366 487.48C429.924 487.48 402.004 495.534 402.004 505.468C402.004 515.403 429.924 523.456 464.366 523.456Z" fill="white"/>
<path d="M456.9 182.397C456.9 182.397 453.811 178.423 452.33 180.128C450.85 181.834 455.548 192.388 457.559 191.487C459.571 190.586 456.9 182.397 456.9 182.397Z" fill="#DFADAD" stroke="#263238" stroke-linecap="round" stroke-linejoin="round"/>
<path d="M481.594 182.927C481.594 182.927 484.522 179.065 486.067 180.835C487.612 182.605 483.412 192.983 481.321 192.001C479.229 191.02 481.594 182.927 481.594 182.927Z" fill="#DFADAD" stroke="#263238" stroke-linecap="round" stroke-linejoin="round"/>
<path d="M460.505 208.203C460.505 208.203 455.244 210.487 454.649 214.51C454.054 218.532 456.258 304.609 456.258 304.609L492.346 306.556L490.737 213.399C486.416 210.346 481.47 208.29 476.257 207.382C471.002 206.651 465.656 206.93 460.505 208.203Z" fill="white" stroke="#263238" stroke-linecap="round" stroke-linejoin="round"/>
<path d="M442.275 301.217L497.541 303.196C497.541 303.196 502.545 344.207 504.926 371.028C507.307 397.849 510.879 422.642 510.509 441.29C510.139 459.937 510.59 487.852 510.686 488.833C510.783 489.815 516.543 493.885 520.195 497.023C523.847 500.16 531.57 503.137 529.012 504.923C526.454 506.709 523.139 507.191 517.299 506.145C511.458 505.1 504.685 501.11 502.915 500.192L501.129 499.275L501.033 501.946L494.372 499.275C494.372 499.275 493.245 498.004 492.344 491.713C491.443 485.423 490.044 465.89 489.32 457.604C488.596 449.318 480.921 389.82 478.057 376C475.193 362.179 469.289 338.158 469.289 338.158C469.289 338.158 446.764 416.094 443.964 425.876C441.165 435.658 429.259 488.447 429.065 490.121C428.872 491.794 425.848 495.607 425.928 496.556C426.009 497.506 422.935 501.029 420.506 504.134C418.077 507.24 407.86 510.071 405.157 510.2C402.454 510.329 401.295 504.73 406.669 500.546C410.298 497.602 413.742 494.437 416.982 491.07C416.982 491.07 419.525 451.362 419.412 438.732C419.299 426.101 426.765 384.495 428.148 381.1C429.532 377.705 437.223 331.095 437.223 331.095L442.275 301.217Z" fill="#263238" stroke="#263238" stroke-linecap="round" stroke-linejoin="round"/>
<path d="M460.165 218.019C460.165 218.019 466.022 253.769 466.697 257.55C467.373 261.331 458.299 336.114 458.299 336.114C453.63 336.792 448.866 336.283 444.446 334.634C436.401 331.883 429.129 328.874 429.129 328.874L444.478 281.507L430.609 218.083C434.251 216.015 438.13 214.394 442.161 213.257C448.108 211.537 454.174 210.262 460.31 209.443L460.165 218.019Z" fill="#462683" stroke="#263238" stroke-linecap="round" stroke-linejoin="round"/>
<path d="M466.024 225.144L469.966 230.775L464.77 298.559L472.927 307.859L476.917 298.865L473.055 231.773L477.11 224.452L471.35 215.828L466.024 225.144Z" fill="#263238" stroke="#263238" stroke-linecap="round" stroke-linejoin="round"/>
<path d="M481.196 208.41C481.196 208.41 477.318 237.129 477.415 239.382C477.511 241.634 476.53 260.539 476.61 262.309C476.691 264.079 484.655 336.062 484.655 336.062C489.717 336.999 494.901 337.075 499.988 336.287C508.869 335 518.33 329.192 518.33 329.192L500.471 281.89L507.308 215.489C507.308 215.489 486.36 209.408 481.196 208.41Z" fill="#462683" stroke="#263238" stroke-linecap="round" stroke-linejoin="round"/>
<path d="M471.03 221.268L463.661 228.347C463.661 228.347 458.834 211.984 458.834 209.458C458.749 208.013 459.055 206.572 459.721 205.286C460.386 204.001 461.386 202.918 462.615 202.154C465.367 200.641 476.388 201.88 479.01 203.135C481.633 204.39 483.66 210.424 483.66 210.424L477.771 229.586L471.03 221.268Z" fill="white" stroke="#263238" stroke-linecap="round" stroke-linejoin="round"/>
<path d="M461.809 196.619C461.809 196.619 462.694 205.677 464.93 210.215C467.166 214.752 470.288 221.783 471.028 221.268C471.768 220.753 477.753 211.196 477.914 209.169C478.075 207.142 478.509 199.097 478.509 199.097L461.809 196.619Z" fill="#DFADAD" stroke="#263238" stroke-linecap="round" stroke-linejoin="round"/>
<path d="M462.292 166.434C462.292 166.434 457.288 169.411 456.58 172.21C455.872 175.01 456.355 189.377 459.364 195.62C462.372 201.863 467.971 206.995 470.723 207.027C473.474 207.059 479.829 202.764 480.714 196.424C481.707 190.714 482.176 184.924 482.114 179.128C481.792 174.881 485.251 176.779 479.99 171.213C474.729 165.646 465.365 163.715 462.292 166.434Z" fill="#DFADAD" stroke="#263238" stroke-linecap="round" stroke-linejoin="round"/>
<path d="M466.123 186.241C466.123 187.239 465.704 188.06 465.206 188.06C464.707 188.06 464.305 187.239 464.305 186.241C464.305 185.244 464.707 184.439 465.206 184.439C465.704 184.439 466.123 185.244 466.123 186.241Z" fill="#263238"/>
<path d="M474.697 186.241C474.697 187.239 474.294 188.06 473.796 188.06C473.297 188.06 472.895 187.239 472.895 186.241C472.895 185.244 473.297 184.439 473.796 184.439C474.294 184.439 474.697 185.244 474.697 186.241Z" fill="#263238"/>
<path d="M462.051 183.314C462.263 182.989 462.54 182.711 462.865 182.499C463.189 182.287 463.555 182.144 463.938 182.081C464.32 182.017 464.712 182.034 465.088 182.13C465.464 182.226 465.816 182.399 466.121 182.638" stroke="#263238" stroke-width="0.5" stroke-linecap="round" stroke-linejoin="round"/>
<path d="M471.766 182.927C471.766 182.927 473.568 179.983 476.737 183.377" stroke="#263238" stroke-width="0.5" stroke-linecap="round" stroke-linejoin="round"/>
<path d="M471.091 186.018L471.542 193.933L467.922 193.483" stroke="#263238" stroke-width="0.5" stroke-linecap="round" stroke-linejoin="round"/>
<path d="M466.793 196.427C469.409 197.363 472.282 197.277 474.838 196.186" stroke="#263238" stroke-width="0.5" stroke-linecap="round" stroke-linejoin="round"/>
<path d="M458.717 166.161C458.717 166.161 453.793 164.408 452.973 169.379C452.152 174.351 456.384 183.473 456.384 183.473C456.384 183.473 457.059 181.205 458.218 178.438C459.376 175.67 461.87 174.142 460.921 170.119C459.972 166.097 458.717 166.161 458.717 166.161Z" fill="#263238" stroke="#263238" stroke-linecap="round" stroke-linejoin="round"/>
<path d="M459.606 169.17C459.606 169.17 462.084 173.209 469.018 174.19C475.953 175.172 479.492 174.19 480.281 175.429C481.069 176.668 481.15 183.731 481.15 183.731C481.15 183.731 483.466 184.487 483.611 181.72C483.873 179.528 484.865 177.488 486.427 175.928C487.167 175.172 490.9 172.887 486.797 166.596C482.694 160.305 477.513 158.31 468.568 158.326C459.622 158.342 454.232 162.896 459.606 169.17Z" fill="#263238" stroke="#263238" stroke-linecap="round" stroke-linejoin="round"/>
<path d="M507.265 215.492C507.265 215.492 520.136 259.915 520.957 264.564C521.777 269.214 516.548 271.885 511.078 269.906C505.607 267.927 502.02 239.336 502.02 239.336L507.265 215.492Z" fill="#462683" stroke="#263238" stroke-linecap="round" stroke-linejoin="round"/>
<path d="M515.495 254.942C515.495 254.942 494.789 251.322 489.399 251.338C484.009 251.354 458.137 253.719 458.137 253.719L457.172 262.697C457.172 262.697 496.655 271.594 504.442 272.576C512.229 273.557 519.968 273.203 520.773 268.216C521.577 263.228 519.775 260.911 519.775 260.911" fill="#462683"/>
<path d="M515.495 254.942C515.495 254.942 494.789 251.322 489.399 251.338C484.009 251.354 458.137 253.719 458.137 253.719L457.172 262.697C457.172 262.697 496.655 271.594 504.442 272.576C512.229 273.557 519.968 273.203 520.773 268.216C521.577 263.228 519.775 260.911 519.775 260.911" stroke="#263238" stroke-linecap="round" stroke-linejoin="round"/>
<path d="M430.609 218.082C430.609 218.082 431.14 243.825 431.736 257.71C432.331 271.595 436.208 276.695 443.288 276.679C450.367 276.663 444.623 236.778 444.623 236.778" fill="#462683"/>
<path d="M430.609 218.082C430.609 218.082 431.14 243.825 431.736 257.71C432.331 271.595 436.208 276.695 443.288 276.679C450.367 276.663 444.623 236.778 444.623 236.778" stroke="#263238" stroke-linecap="round" stroke-linejoin="round"/>
<path d="M458.137 253.721C458.137 253.721 452.972 251.082 449.948 251.082C446.923 251.082 438.058 256.762 438.09 257.759C438.122 258.757 442.917 260.076 448.95 259.368C452.192 258.951 455.474 258.951 458.716 259.368L458.137 253.721Z" fill="#DFADAD" stroke="#263238" stroke-linecap="round" stroke-linejoin="round"/>
<path d="M492.973 247.01C495.504 246.429 498.084 246.089 500.679 245.996C504.042 245.996 508.032 252.625 508.032 252.625L494.936 253.655L492.973 247.01Z" fill="#DFADAD" stroke="#263238" stroke-linecap="round" stroke-linejoin="round"/>
<path d="M439.22 260.412L490.159 245.674C490.159 245.674 491.124 244.677 492.91 246.994C494.108 249.01 494.783 251.295 494.873 253.639C494.873 253.639 464.802 267.652 455.535 271.659C446.267 275.665 443.178 281.988 438.207 276.019C433.235 270.05 436.388 265.046 436.388 265.046" fill="#462683"/>
<path d="M439.22 260.412L490.159 245.674C490.159 245.674 491.124 244.677 492.91 246.994C494.108 249.01 494.783 251.295 494.873 253.639C494.873 253.639 464.802 267.652 455.535 271.659C446.267 275.665 443.178 281.988 438.207 276.019C433.235 270.05 436.388 265.046 436.388 265.046" stroke="#263238" stroke-linecap="round" stroke-linejoin="round"/>
<path d="M399.604 539.065C424.778 539.065 445.185 531.012 445.185 521.078C445.185 511.143 424.778 503.09 399.604 503.09C374.431 503.09 354.023 511.143 354.023 521.078C354.023 531.012 374.431 539.065 399.604 539.065Z" fill="#462683"/>
<path opacity="0.5" d="M399.604 539.065C424.778 539.065 445.185 531.012 445.185 521.078C445.185 511.143 424.778 503.09 399.604 503.09C374.431 503.09 354.023 511.143 354.023 521.078C354.023 531.012 374.431 539.065 399.604 539.065Z" fill="white"/>
<path d="M417.431 172.76C420.958 169.029 423.24 164.295 423.963 159.212C424.687 151.457 415.742 147.355 409.692 147.596C405.916 147.821 402.292 149.165 399.282 151.457C399.282 151.457 385.172 150.75 374.602 158.794C364.031 166.839 365.398 190.747 366.123 199.693C366.484 206.555 366.323 213.434 365.64 220.271C373.113 223.264 380.91 225.375 388.873 226.562C401.213 228.251 417.914 225.355 419.603 224.953C421.293 224.551 414.776 223.006 413.795 213.578C412.813 204.15 415.243 193.241 416.224 188.157C417.206 183.073 415.5 173.162 415.5 173.162L417.431 172.76Z" fill="#263238" stroke="#263238" stroke-linecap="round" stroke-linejoin="round"/>
<path d="M416.146 151.475C416.146 151.475 413.684 159.97 412.316 163.268" stroke="white" stroke-width="0.5" stroke-linecap="round" stroke-linejoin="round"/>
<path d="M406.088 155.047C406.088 155.047 408.276 162.158 400.602 174.499C392.927 186.839 377.32 199.984 376.773 209.026" stroke="white" stroke-width="0.5" stroke-linecap="round" stroke-linejoin="round"/>
<path d="M380.248 188.463C380.248 188.463 370.594 204.633 374.778 214.495" stroke="white" stroke-width="0.5" stroke-linecap="round" stroke-linejoin="round"/>
<path d="M404.125 216.314C404.125 216.314 417.189 223.088 419.12 223.812C421.051 224.536 422.756 226.242 424.204 230.586C425.652 234.93 433.649 266.4 434.373 269.795C435.097 273.19 428.323 276.569 423.963 276.81C419.603 277.051 414.036 273.19 414.036 270.278C414.036 267.366 404.125 216.314 404.125 216.314Z" fill="#462683" stroke="#263238" stroke-linecap="round" stroke-linejoin="round"/>
<path d="M409.449 267.62C412.111 264.108 415.02 260.791 418.154 257.693C421.05 255.279 427.099 253.333 430.735 255.279C434.371 257.226 433.647 260.589 432.183 261.088C430.719 261.586 427.099 261.57 424.686 263.018C422.272 264.466 418.395 267.137 415.74 267.845C413.652 268.228 411.505 268.151 409.449 267.62Z" fill="#DFADAD" stroke="#263238" stroke-linecap="round" stroke-linejoin="round"/>
<path d="M370.128 505.725L369.902 518.757H371.431L373.378 509.843L370.128 505.725Z" fill="#263238" stroke="#263238" stroke-linecap="round" stroke-linejoin="round"/>
<path d="M419.99 395.128C419.99 395.128 417.593 427.516 411.302 448.513C405.011 469.509 392.413 502.17 392.107 507.27C392.107 507.27 399.91 514.768 402.597 516.264C405.284 517.761 407.424 517.471 405.606 518.967C403.788 520.464 398.704 521.365 394.81 519.868C390.917 518.372 387.908 513.867 385.816 512.676C383.725 511.486 380.99 509.973 380.716 507.27C380.443 504.567 384.61 500.674 384.61 500.674C384.61 500.674 394.504 478.487 393.314 464.393C392.123 450.298 395.1 434.418 398.141 428.707C400.075 424.955 401.689 421.048 402.967 417.026L394.504 396.914C394.504 396.914 411.591 391.83 419.99 395.128Z" fill="#DFADAD" stroke="#263238" stroke-linecap="round" stroke-linejoin="round"/>
<path d="M402.592 516.263C402.159 516.007 401.74 515.727 401.337 515.426C399.728 516.166 395.77 517.679 392.697 515.072C389.254 512.144 385.57 506.883 382.062 503.633C381.214 504.657 380.738 505.939 380.711 507.269C381.001 509.972 383.704 511.468 385.811 512.675C387.919 513.882 390.895 518.371 394.805 519.867C398.715 521.363 403.799 520.462 405.601 518.966C407.403 517.47 405.295 517.775 402.592 516.263Z" fill="#263238" stroke="#263238" stroke-linecap="round" stroke-linejoin="round"/>
<path d="M415.743 392.089C415.743 392.089 421.599 409.626 421.599 414.131C421.599 418.636 393.266 482.494 390.563 488.785C387.86 495.076 383.805 506.773 383.805 506.773C384.673 510.229 386.751 513.26 389.662 515.316C394.601 518.92 396.403 522.074 394.151 522.975C391.898 523.876 381.569 524.777 378.866 521.173C376.163 517.569 373.476 509.91 370.821 507.674C368.167 505.437 370.821 500.482 372.623 499.13C374.424 497.481 376.076 495.677 377.563 493.741C377.563 493.741 384.304 479.341 384.304 466.743C384.304 454.145 386.557 442.014 393.314 431.668C397.027 426.218 400.048 420.327 402.308 414.131L395.1 399.281C395.1 399.281 406.797 391.236 415.743 392.089Z" fill="#DFADAD" stroke="#263238" stroke-linecap="round" stroke-linejoin="round"/>
<path d="M389.992 515.589C387.369 516.86 385.519 517.809 379.807 511.325C376.778 507.909 373.942 504.326 371.312 500.594C369.864 502.653 368.722 505.984 370.813 507.721C373.516 509.974 376.203 517.616 378.858 521.22C381.513 524.824 391.906 523.923 394.143 523.022C396.379 522.121 394.706 519.096 389.992 515.589Z" fill="#263238" stroke="#263238" stroke-linecap="round" stroke-linejoin="round"/>
<path d="M391.606 213.5C391.606 213.5 361.841 218.085 360.86 219.791C359.879 221.496 370.063 277.374 371.028 281.734C371.994 286.095 365.22 297.47 361.375 319.48C357.529 341.49 362.131 346.832 368.663 362.535C375.195 378.238 393.473 401.744 393.473 401.744L422.031 396.66C422.031 396.66 428.563 345.609 425.41 320.928C423.605 306.287 419.352 292.053 412.828 278.822L413.552 265.742C413.552 265.742 421.597 260.786 421.902 254.479C422.208 248.172 417.671 239.114 413.552 230.892C409.433 222.671 398.042 213.5 391.606 213.5Z" fill="#462683" stroke="#263238" stroke-linecap="round" stroke-linejoin="round"/>
<path d="M393.716 209.779C393.716 209.779 387.425 210.503 386.459 211.71C385.494 212.917 382.582 229.585 382.582 229.585C382.582 229.585 393.957 226.206 395.164 226.206C396.37 226.206 406.298 237.823 406.298 237.823V227.654L415.002 234.187C413.317 229.336 411.212 224.641 408.711 220.157C404.85 213.496 399.041 210.021 393.716 209.779Z" fill="white" stroke="#263238" stroke-linecap="round" stroke-linejoin="round"/>
<path d="M394.199 195.271C394.199 195.271 392.268 213.903 393.475 216.075C394.682 218.247 402.903 230.845 402.903 230.845C402.903 230.845 401.938 221.191 401.938 215.11C402.275 209.865 403.171 204.671 404.609 199.616L394.199 195.271Z" fill="#DFADAD" stroke="#263238" stroke-linecap="round" stroke-linejoin="round"/>
<path d="M411.136 164.521C411.136 164.521 406.535 175.897 401.933 180.015C399.367 182.366 396.525 184.397 393.47 186.065C393.47 186.065 392.988 194.11 394.194 195.268C395.401 196.426 405.328 206.627 408.675 205.179C412.021 203.731 417.154 194.287 417.636 186.789C417.709 181.068 416.978 175.365 415.464 169.847L411.136 164.521Z" fill="#DFADAD" stroke="#263238" stroke-linecap="round" stroke-linejoin="round"/>
<path d="M414.509 178.602C413.879 178.875 413.354 179.343 413.01 179.937C412.665 180.53 412.52 181.218 412.594 181.9C412.594 184.635 415.056 186.823 415.056 188.191C415.056 189.558 412.047 190.395 412.047 190.395" stroke="#263238" stroke-width="0.5" stroke-linecap="round" stroke-linejoin="round"/>
<path d="M410.127 179.966C410.127 179.966 408.743 176.748 404.367 177.777" stroke="#263238" stroke-width="0.5" stroke-linecap="round" stroke-linejoin="round"/>
<path d="M411.221 194.77C410.263 194.985 409.268 194.973 408.316 194.735C407.363 194.498 406.479 194.042 405.734 193.402" stroke="#263238" stroke-width="0.5" stroke-linecap="round" stroke-linejoin="round"/>
<path d="M407.375 182.028C407.375 183.171 407.07 184.088 406.7 184.088C406.33 184.088 406.008 183.171 406.008 182.028C406.008 180.886 406.313 179.969 406.7 179.969C407.086 179.969 407.375 180.902 407.375 182.028Z" fill="#263238"/>
<path d="M414.5 182.929C414.5 184.055 414.195 184.988 413.809 184.988C413.422 184.988 413.133 184.055 413.133 182.929C413.133 181.802 413.438 180.869 413.809 180.869C414.179 180.869 414.5 181.851 414.5 182.929Z" fill="#263238"/>
<path d="M366.361 219.227C363.522 219.131 360.721 219.888 358.316 221.399C354.921 223.812 355.661 233.257 357.351 243.425C359.04 253.593 368.243 281.894 370.415 286.737C371.453 289.045 373.111 291.019 375.204 292.439C377.298 293.86 379.745 294.671 382.273 294.782C386.874 294.782 417.122 278.564 417.122 278.564L414.451 271.066C414.451 271.066 388.628 277.534 386.778 277.856C384.928 278.178 376.368 234.785 376.368 234.785" fill="#462683"/>
<path d="M366.361 219.227C363.522 219.131 360.721 219.888 358.316 221.399C354.921 223.812 355.661 233.257 357.351 243.425C359.04 253.593 368.243 281.894 370.415 286.737C371.453 289.045 373.111 291.019 375.204 292.439C377.298 293.86 379.745 294.671 382.273 294.782C386.874 294.782 417.122 278.564 417.122 278.564L414.451 271.066C414.451 271.066 388.628 277.534 386.778 277.856C384.928 278.178 376.368 234.785 376.368 234.785" stroke="#263238" stroke-linecap="round" stroke-linejoin="round"/>
<path d="M393.956 272.705C393.956 272.705 384.029 272.447 382.581 272.447C381.133 272.447 374.359 280.202 372.653 282.101C370.948 283.999 372.895 284.514 373.635 284.772C374.375 285.029 378.944 283.066 378.944 283.066C378.944 283.066 374.842 291.111 375.807 292.511C376.772 293.91 379.186 294.924 380.167 293.959C381.482 292.851 383.062 292.103 384.753 291.787C385.673 291.828 386.59 291.652 387.428 291.271C388.267 290.891 389.004 290.318 389.579 289.598C391.526 287.426 394.664 278.722 394.664 278.722L399.49 277.258V273.67L393.956 272.705Z" fill="#DFADAD" stroke="#263238" stroke-linecap="round" stroke-linejoin="round"/>
<path d="M392.988 272.447L395.643 288.665C395.643 288.665 428.803 279.478 432.906 277.531C437.008 275.585 434.611 265.191 431.458 262.536C428.304 259.882 392.988 272.447 392.988 272.447Z" fill="#462683" stroke="#263238" stroke-linecap="round" stroke-linejoin="round"/>
<path d="M393.476 401.741L422.034 396.657C422.034 396.657 428.567 345.605 425.413 320.924C424.758 315.861 423.818 310.839 422.598 305.881C415.537 308.743 408.094 310.548 400.507 311.239C381.763 313.314 369.229 307.924 364.451 305.334C363.325 309.469 362.231 314.151 361.233 319.46C357.372 341.486 361.989 346.812 368.522 362.515C375.054 378.218 393.476 401.741 393.476 401.741Z" fill="#263238" stroke="#263238" stroke-linecap="round" stroke-linejoin="round"/>
<path d="M398.477 341.973C403.321 350.23 406.931 359.153 409.192 368.456" stroke="white" stroke-width="0.75" stroke-linecap="round" stroke-linejoin="round"/>
<path d="M389.711 329.756C391.731 331.996 393.581 334.384 395.246 336.899" stroke="white" stroke-width="0.75" stroke-linecap="round" stroke-linejoin="round"/>
<path d="M297.952 547.448C338.524 547.448 371.415 539.395 371.415 529.46C371.415 519.526 338.524 511.473 297.952 511.473C257.379 511.473 224.488 519.526 224.488 529.46C224.488 539.395 257.379 547.448 297.952 547.448Z" fill="#462683"/>
<path opacity="0.5" d="M297.952 547.448C338.524 547.448 371.415 539.395 371.415 529.46C371.415 519.526 338.524 511.473 297.952 511.473C257.379 511.473 224.488 519.526 224.488 529.46C224.488 539.395 257.379 547.448 297.952 547.448Z" fill="white"/>
<path d="M292.383 161.77C292.383 161.77 289.68 156.83 287.701 158.552C285.722 160.273 288.94 172.871 291.401 172.131C293.863 171.391 292.383 161.77 292.383 161.77Z" fill="#DFADAD" stroke="#263238" stroke-linecap="round" stroke-linejoin="round"/>
<path d="M242.316 332.768C257.414 339.116 273.353 343.24 289.635 345.011C315.78 347.65 346.237 328.793 346.237 328.793C346.237 328.793 315.78 281.797 315.458 280.799C315.136 279.802 278.726 278.482 278.726 278.482L242.316 332.768Z" fill="#263238" stroke="#263238" stroke-linecap="round" stroke-linejoin="round"/>
<path d="M264.502 293.639C264.502 293.639 252.355 345.366 252.355 363.804C252.355 382.242 252.355 397.076 251.454 411.927C250.553 426.777 245.614 455.545 247.416 470.395C249.218 485.245 251.454 514.48 251.454 514.48C251.454 514.48 235.719 527.061 235.719 531.566C235.719 536.071 245.163 534.784 253.256 529.764C261.349 524.745 263.601 521.221 263.601 521.221L265.403 523.023L268.106 520.32L269.007 510.425L278.001 429.464L290.599 349.018L312.625 445.714L331.932 512.742L336.437 514.544L337.338 518.582L341.827 521.285L346.332 521.736L350.821 525.774C350.821 525.774 365.221 530.279 367.924 529.378C370.627 528.477 370.611 524.889 363.419 519.483C356.227 514.077 344.112 510.94 344.112 510.94C344.112 510.94 342.76 465.504 339.623 438.973C336.486 412.442 332.415 389.949 332.415 371.06C332.415 352.171 326.14 297.162 326.14 297.162L264.502 293.639Z" fill="#263238" stroke="#263238" stroke-linecap="round" stroke-linejoin="round"/>
<path d="M295.559 192.438L261.98 205.309L264.667 297.661C264.667 297.661 276.075 303.357 296.154 303.067C316.233 302.778 329.941 301.941 329.941 301.941L337.906 201.11L305.518 193.612C305.518 193.612 299.452 191.537 295.559 192.438Z" fill="white" stroke="#263238" stroke-linecap="round" stroke-linejoin="round"/>
<path d="M295.862 208.625L299.45 217.924L289.266 290.181L294.656 302.184L303.649 288.395L302.459 218.52L306.658 209.22L301.847 199.631L295.862 208.625Z" fill="#263238" stroke="#263238" stroke-linecap="round" stroke-linejoin="round"/>
<path d="M295.602 188.207L290.164 194.643L291.162 214.658L302.521 205.519L311.659 218.857C311.659 218.857 315.36 201.32 313.88 195.882C312.399 190.444 307.219 186.984 304.5 187.483C301.78 187.982 295.602 188.207 295.602 188.207Z" fill="white" stroke="#263238" stroke-linecap="round" stroke-linejoin="round"/>
<path d="M294.121 178.828C294.121 178.828 294.121 179.214 294.218 179.874C294.523 183.172 295.473 193.308 296.1 196.607C296.84 200.565 302.021 205.005 304 204.265C305.979 203.525 310.677 197.588 311.16 195.625C311.642 193.662 313.637 184.508 313.637 184.508C313.637 184.508 307.202 187.468 304.499 187.468C301.796 187.468 294.121 178.828 294.121 178.828Z" fill="#DFADAD" stroke="#263238" stroke-linecap="round" stroke-linejoin="round"/>
<path d="M319.977 165.92C319.977 165.92 323.999 161.962 325.383 164.182C326.766 166.402 320.105 177.552 317.949 176.136C315.793 174.721 319.977 165.92 319.977 165.92Z" fill="#DFADAD" stroke="#263238" stroke-linecap="round" stroke-linejoin="round"/>
<path d="M301.507 144.492C301.507 144.492 295.345 147.131 294.009 150.22C292.674 153.309 290.486 169.527 292.69 177.089C294.894 184.651 300.188 191.183 303.261 191.569C306.334 191.956 314.282 188.046 316.486 180.999C318.69 173.952 320.878 166.518 321.313 161.692C321.747 156.865 325.271 159.487 320.428 152.44C315.585 145.393 305.417 141.854 301.507 144.492Z" fill="#DFADAD" stroke="#263238" stroke-linecap="round" stroke-linejoin="round"/>
<path d="M303.44 165.232C303.44 166.439 303.005 167.42 302.41 167.437C301.815 167.453 301.284 166.487 301.252 165.281C301.219 164.074 301.686 163.092 302.297 163.076C302.909 163.06 303.408 163.977 303.44 165.232Z" fill="#263238"/>
<path d="M312.018 165.76C312.018 166.966 311.583 167.964 310.988 167.98C310.393 167.996 309.862 167.031 309.83 165.824C309.798 164.617 310.264 163.62 310.859 163.604C311.455 163.588 311.986 164.553 312.018 165.76Z" fill="#263238"/>
<path d="M299.031 159.73C299.598 158.894 300.441 158.286 301.413 158.012C302.384 157.738 303.421 157.817 304.341 158.233" stroke="#263238" stroke-width="0.5" stroke-linecap="round" stroke-linejoin="round"/>
<path d="M309.074 159.086C309.074 159.086 311.874 157.734 314.995 161.37" stroke="#263238" stroke-width="0.5" stroke-linecap="round" stroke-linejoin="round"/>
<path d="M301.719 177.104C303.818 178.101 306.192 178.367 308.46 177.86" stroke="#263238" stroke-width="0.5" stroke-linecap="round" stroke-linejoin="round"/>
<path d="M308.088 162.125C308.088 162.125 309.584 172.567 308.458 173.13C307.331 173.693 304.918 172.374 304.918 172.374" stroke="#263238" stroke-width="0.5" stroke-linecap="round" stroke-linejoin="round"/>
<path d="M294.858 139.488C294.858 139.488 286.459 141.21 286.7 145.651C286.942 150.091 289.918 158.007 289.918 158.007C289.918 158.007 292.879 159.729 292.38 161.708C291.881 163.687 292.139 167.886 293.876 166.406C295.614 164.925 294.616 159.487 295.356 158.747C296.205 158.216 296.915 157.492 297.43 156.633C297.944 155.774 298.248 154.806 298.317 153.808C298.317 150.847 296.579 148.128 297.078 147.372C297.577 146.616 306.217 147.613 310.416 149.592C314.615 151.571 320.295 154.773 318.815 157.991C318.347 158.756 318.142 159.653 318.232 160.545C318.322 161.437 318.702 162.275 319.313 162.93C319.313 162.93 317.576 167.628 318.815 168.867C320.053 170.106 321.534 164.668 321.534 164.668C322.364 164.5 323.121 164.076 323.698 163.456C324.276 162.835 324.644 162.049 324.751 161.209C325.842 157.269 326.175 153.158 325.733 149.094C324.993 145.152 316.836 138.475 307.954 138.233C299.073 137.992 294.858 139.488 294.858 139.488Z" fill="#263238" stroke="#263238" stroke-linecap="round" stroke-linejoin="round"/>
<path d="M295.845 143.752C295.845 143.752 305.981 152.633 314.621 156.092C323.261 159.551 334.379 153.132 334.878 148.192C335.377 143.253 326.978 136.093 324.758 135.836C322.537 135.578 325.98 132.618 317.839 130.156C309.698 127.695 291.646 129.175 290.665 134.114C289.683 139.054 295.845 143.752 295.845 143.752Z" fill="#263238" stroke="#263238" stroke-linecap="round" stroke-linejoin="round"/>
<path d="M291.352 193.933C291.352 193.933 290.161 250.905 283.307 270.389C276.453 289.873 267.717 309.373 260.219 316.276C252.722 323.178 239.528 345.059 239.528 345.059C239.528 345.059 235.023 336.355 235.023 333.668C235.023 330.981 255.939 311.771 257.822 309.969C259.704 308.167 260.525 298.883 260.525 285.095C260.525 271.306 257.227 206.531 257.227 205.324C257.227 204.117 285.656 192.437 291.352 193.933Z" fill="#462683" stroke="#263238" stroke-linecap="round" stroke-linejoin="round"/>
<path d="M257.18 205.326L256.52 206.324C252.42 213.911 248.783 221.739 245.628 229.766C240.061 243.313 225.387 265.757 228.541 270.246C231.694 274.735 239.803 277.438 244.727 272.048C249.65 266.658 261.813 243.715 261.813 243.715C261.813 243.715 260.172 210.121 257.18 205.326Z" fill="#462683" stroke="#263238" stroke-linecap="round" stroke-linejoin="round"/>
<path d="M313.254 194.527C313.254 194.527 313.849 233.817 315.04 260.799C316.23 287.781 319.867 297.981 322.843 303.081C325.82 308.182 347.733 342.066 347.733 342.066C347.733 342.066 352.833 331.559 352.222 327.36C351.611 323.161 335.731 296.485 335.731 294.989C335.731 293.492 342.633 205.034 341.426 202.636C340.219 200.239 313.254 194.527 313.254 194.527Z" fill="#462683" stroke="#263238" stroke-linecap="round" stroke-linejoin="round"/>
<path d="M285.061 197.539L276.357 219.131L283.259 226.017L275.762 234.416L279.961 266.498" stroke="#263238" stroke-linecap="round" stroke-linejoin="round"/>
<path d="M317.44 197.828L325.549 217.023L316.555 222.412L325.549 236.523L316.844 259.305" stroke="#263238" stroke-linecap="round" stroke-linejoin="round"/>
<path d="M264.518 312.076L266.03 316.002L255.347 324.24L251.984 316.613L264.518 312.076Z" fill="white" stroke="#263238" stroke-linecap="round" stroke-linejoin="round"/>
<path d="M243.376 263.955L264.501 312.078L248.766 324.225C248.766 324.225 225.887 276.086 225.887 272.048C225.887 268.009 230.842 259.9 233.079 258.549" fill="#462683"/>
<path d="M243.376 263.955L264.501 312.078L248.766 324.225C248.766 324.225 225.887 276.086 225.887 272.048C225.887 268.009 230.842 259.9 233.079 258.549" stroke="#263238" stroke-linecap="round" stroke-linejoin="round"/>
<path d="M266.031 316L269.699 317.834L259.611 331.574L255.348 324.238L266.031 316Z" fill="#DFADAD" stroke="#263238" stroke-linecap="round" stroke-linejoin="round"/>
<path d="M322.008 312.768L320.109 316.532L329.924 325.8L334.027 318.544L322.008 312.768Z" fill="white" stroke="#263238" stroke-linecap="round" stroke-linejoin="round"/>
<path d="M341.422 202.639C341.422 202.639 346.055 207.578 346.667 212.147C347.278 216.717 363.464 270.487 364.075 272.933C364.687 275.378 358.573 279.368 352.459 280.269C346.345 281.17 338.719 257.358 338.719 257.358L341.422 202.639Z" fill="#462683" stroke="#263238" stroke-linecap="round" stroke-linejoin="round"/>
<path d="M347.843 266.994L322.004 312.768L336.484 326.428C336.484 326.428 364.109 280.831 364.512 276.808C364.914 272.786 360.811 264.227 358.703 262.666" fill="#462683"/>
<path d="M347.843 266.994L322.004 312.768L336.484 326.428C336.484 326.428 364.109 280.831 364.512 276.808C364.914 272.786 360.811 264.227 358.703 262.666" stroke="#263238" stroke-linecap="round" stroke-linejoin="round"/>
<path d="M320.103 316.533L316.273 317.981L324.929 332.671L329.917 325.801L320.103 316.533Z" fill="#DFADAD" stroke="#263238" stroke-linecap="round" stroke-linejoin="round"/>
</g>
<defs>
<clipPath id="clip0_3406_28099">
<rect width="600" height="600" fill="white"/>
</clipPath>
</defs>
</svg>
