<svg width="600" height="600" viewBox="0 0 600 600" fill="none" xmlns="http://www.w3.org/2000/svg">
<g clip-path="url(#clip0_3406_27369)">
<path d="M548.468 287.118C569.406 153.214 457.659 18.2516 311.02 1.47891C309.196 1.27758 307.359 1.07626 305.534 0.900101C203.048 -9.27929 109.37 68.9976 82.5817 128.715C55.7932 188.432 -14.305 245.243 11.6783 355.895C37.6615 466.548 108.25 525.535 273.75 542.987C439.25 560.44 469.776 513.104 513.702 409.712C530.189 370.397 541.862 329.235 548.468 287.118Z" fill="#462683"/>
<path d="M548.468 287.118C569.406 153.214 457.659 18.2516 311.02 1.47891C309.196 1.27758 307.359 1.07626 305.534 0.900101C203.048 -9.27929 109.37 68.9976 82.5817 128.715C55.7932 188.432 -14.305 245.243 11.6783 355.895C37.6615 466.548 108.25 525.535 273.75 542.987C439.25 560.44 469.776 513.104 513.702 409.712C530.189 370.397 541.862 329.235 548.468 287.118Z" fill="#FAB748"/>
<path d="M418.122 335.487C418.002 335.483 417.885 335.449 417.782 335.387C313.346 270.07 221.228 266.182 162.354 274.499C98.4966 283.458 58.8108 308.183 58.4208 308.472C58.3511 308.518 58.2729 308.549 58.1909 308.563C58.1089 308.578 58.0248 308.576 57.9437 308.557C57.8625 308.538 57.786 308.503 57.7188 308.454C57.6516 308.405 57.595 308.343 57.5526 308.271C57.4627 308.131 57.4321 307.96 57.4675 307.798C57.5029 307.635 57.6013 307.493 57.7413 307.403C58.144 307.164 98.0059 282.237 162.178 273.291C200.264 268.018 238.965 269.145 276.68 276.625C324.582 286 372.308 305.427 418.562 334.355C418.634 334.397 418.696 334.454 418.746 334.521C418.795 334.588 418.83 334.665 418.849 334.746C418.867 334.827 418.87 334.911 418.855 334.993C418.84 335.075 418.809 335.153 418.764 335.223C418.694 335.325 418.597 335.405 418.483 335.452C418.368 335.499 418.243 335.511 418.122 335.487Z" fill="#263238"/>
<path d="M246.857 319.206C236.048 310.322 268.247 276.097 268.247 276.097C254.154 273.581 256.067 274.084 256.067 274.084C256.067 274.084 219.426 309.416 219.049 329.549C218.671 349.681 274.903 368.429 274.903 368.429L296.004 359.168L314.438 352.336C314.438 352.336 257.678 328.089 246.857 319.206Z" fill="white"/>
<path d="M274.903 369.031H274.702C272.387 368.264 218.08 349.855 218.42 329.547C218.784 310.094 251.801 277.367 255.35 273.919C255.413 273.655 255.476 273.491 256.193 273.516C257.451 273.516 260.471 274.12 268.31 275.517C268.42 275.541 268.521 275.593 268.605 275.669C268.688 275.744 268.75 275.84 268.784 275.947C268.819 276.055 268.824 276.169 268.801 276.279C268.777 276.389 268.725 276.49 268.65 276.574C268.411 276.825 244.478 302.431 245.258 314.599C245.273 315.392 245.456 316.172 245.797 316.889C246.138 317.605 246.628 318.24 247.234 318.751C257.854 327.483 314.086 351.466 314.652 351.768C314.769 351.816 314.869 351.898 314.938 352.004C315.008 352.109 315.044 352.233 315.042 352.359C315.035 352.485 314.992 352.606 314.918 352.709C314.845 352.811 314.744 352.891 314.627 352.938L296.231 359.745L275.205 368.981C275.111 369.025 275.007 369.043 274.903 369.031ZM256.306 274.661C253.588 277.329 220.043 310.597 219.678 329.497C219.313 348.396 270.977 366.351 274.878 367.685L295.753 358.525L312.739 352.234C303.617 348.32 256.382 327.811 246.466 319.67C245.727 319.052 245.127 318.283 244.709 317.415C244.29 316.547 244.061 315.6 244.038 314.636C243.283 303.073 262.723 281.166 266.976 276.523C259.439 275.177 257.061 274.8 256.331 274.699L256.306 274.661Z" fill="#263238"/>
<path d="M216.885 407.096C216.801 407.097 216.717 407.081 216.639 407.048C216.561 407.016 216.491 406.968 216.432 406.907C216.373 406.849 216.326 406.779 216.294 406.702C216.263 406.626 216.246 406.543 216.246 406.46C216.246 406.377 216.263 406.295 216.294 406.218C216.326 406.142 216.373 406.072 216.432 406.014C216.772 405.699 251.047 373.563 312.174 352.248C348.503 339.661 386.681 333.239 425.129 333.248H426.047C474.579 333.248 524.872 343.012 575.542 362.276C575.699 362.335 575.826 362.453 575.896 362.605C575.965 362.757 575.972 362.931 575.913 363.088C575.855 363.245 575.737 363.372 575.584 363.442C575.432 363.511 575.258 363.517 575.102 363.459C459.983 319.697 368.846 333.852 312.652 353.393C251.752 374.607 217.64 406.58 217.3 406.907C217.192 407.022 217.043 407.09 216.885 407.096Z" fill="#263238"/>
<path d="M580.967 527.097C580.797 527.097 580.634 527.029 580.514 526.908C579.872 526.242 514.631 459.667 407.653 422.321C295.314 383.126 114.778 414.105 40.2382 465.895C40.0997 465.99 39.9291 466.026 39.7639 465.996C39.5987 465.965 39.4525 465.87 39.3574 465.731C39.2623 465.593 39.2261 465.422 39.2567 465.257C39.2874 465.092 39.3825 464.946 39.5209 464.851C77.4955 438.427 142.208 417.338 212.634 408.291C286.33 398.817 357.586 403.51 408.106 421.138C515.386 458.572 580.803 525.361 581.457 526.028C581.516 526.086 581.563 526.156 581.595 526.232C581.627 526.309 581.643 526.391 581.643 526.474C581.643 526.557 581.627 526.64 581.595 526.716C581.563 526.793 581.516 526.863 581.457 526.921C581.392 526.982 581.315 527.03 581.23 527.06C581.146 527.09 581.056 527.103 580.967 527.097Z" fill="#263238"/>
<path d="M165.192 495.638C152.031 500.269 140.354 504.257 129.961 507.705C167.231 525.132 214.391 536.733 273.781 542.999C286.892 544.383 299.148 545.352 310.636 545.931C386.434 490.567 421.124 426.396 421.124 426.396C423.704 427.239 378.909 407.522 328.377 405.785C328.34 405.798 265.137 460.52 165.192 495.638Z" fill="white"/>
<path d="M211.122 600C210.994 600.003 210.868 599.966 210.762 599.893C210.656 599.821 210.575 599.718 210.531 599.598C210.5 599.52 210.486 599.437 210.488 599.354C210.49 599.271 210.508 599.188 210.542 599.112C210.576 599.036 210.625 598.968 210.686 598.911C210.746 598.853 210.818 598.809 210.896 598.78C285.901 571.098 338.912 525.662 370.167 492.381C401.423 459.099 417.805 430.964 420.221 426.674C414.811 424.371 374.521 408.077 328.569 406.441C324.643 409.763 261.654 462.421 165.409 496.231C67.516 530.619 51.0452 530.204 30.2083 529.575C27.4527 529.499 24.609 529.424 21.4885 529.424C21.3217 529.424 21.1616 529.358 21.0436 529.24C20.9257 529.122 20.8594 528.962 20.8594 528.795C20.8594 528.628 20.9257 528.468 21.0436 528.35C21.1616 528.232 21.3217 528.166 21.4885 528.166C24.6216 528.166 27.4779 528.241 30.2964 528.317C51.0201 528.895 67.3776 529.348 165.057 495.035C263.743 460.37 327.374 405.875 327.99 405.334C328.112 405.227 328.269 405.169 328.431 405.17C374.534 406.768 415.427 422.924 421.152 425.78H421.341C421.656 425.944 421.832 426.057 421.844 426.107C421.893 426.218 421.908 426.339 421.887 426.458C421.867 426.576 421.813 426.686 421.731 426.774C421.688 426.826 421.631 426.865 421.568 426.888C419.869 429.933 403.449 458.772 371.161 493.148C339.805 526.543 286.643 572.167 211.361 599.874L211.122 600Z" fill="#263238"/>
<path d="M452.22 439.359C475.775 448.884 502.262 425.782 500.374 401.17C498.55 377.263 468.603 364.316 449.805 356.414C399.939 335.464 367.426 339.075 367.426 339.075C367.426 339.075 417.996 329.688 470.755 336.181C516.417 341.805 563.942 369.437 583.269 412.596C593.662 435.798 594.078 461.567 592.077 486.494C589.837 514.691 580.954 526.431 580.954 526.431C580.954 526.431 517.336 475.245 452.22 439.359Z" fill="white"/>
<path d="M580.965 527.095C580.823 527.093 580.686 527.044 580.575 526.956C579.933 526.44 516.239 475.367 451.917 439.947C451.778 439.868 451.675 439.74 451.627 439.588C451.58 439.437 451.591 439.272 451.66 439.129C451.729 438.985 451.849 438.873 451.997 438.815C452.145 438.756 452.31 438.756 452.458 438.815C462.524 442.891 473.848 441.13 483.663 433.995C494.522 426.043 500.687 413.498 499.756 401.28C497.919 377.361 467.721 364.602 449.564 357.002C400.491 336.354 367.776 339.663 367.487 339.701C367.324 339.715 367.162 339.668 367.034 339.567C366.905 339.467 366.82 339.321 366.795 339.16C366.773 338.998 366.814 338.835 366.911 338.703C367.007 338.572 367.15 338.483 367.311 338.455C367.814 338.354 418.585 329.119 470.828 335.561C494.487 338.572 517.174 346.835 537.227 359.745C558.53 373.586 574.648 391.755 583.846 412.29C594.969 437.141 594.428 464.999 592.654 486.528C590.414 514.587 581.77 526.315 581.405 526.793C581.355 526.861 581.291 526.919 581.217 526.962C581.144 527.006 581.062 527.034 580.977 527.044L580.965 527.095ZM457.529 441.646C517.095 475.204 574.699 520.677 580.839 525.547C582.525 522.955 589.534 510.876 591.471 486.478C593.182 465.087 593.724 437.468 582.663 412.882C565.048 373.485 519.989 342.922 470.677 336.844C431.772 332.05 393.659 335.989 376.71 338.317C389.846 338.707 416.056 341.576 450.067 355.869C468.413 363.583 499.139 376.505 501.014 401.167C501.983 413.851 495.629 426.823 484.418 435.015C476.038 441.092 466.462 443.382 457.529 441.608V441.646Z" fill="#263238"/>
<path d="M368.319 348.284C367.825 348.284 367.35 348.09 366.997 347.744C366.645 347.398 366.441 346.928 366.431 346.434L361.575 104.72C361.565 104.22 361.754 103.736 362.101 103.375C362.448 103.014 362.924 102.805 363.424 102.795C363.925 102.785 364.409 102.975 364.77 103.321C365.131 103.668 365.339 104.144 365.349 104.645L370.206 346.358C370.213 346.607 370.17 346.854 370.081 347.085C369.991 347.317 369.856 347.529 369.684 347.708C369.512 347.887 369.306 348.03 369.078 348.129C368.85 348.228 368.605 348.28 368.357 348.284H368.319Z" fill="#263238"/>
<path d="M395.605 135.371L418.191 148.205L410.49 159.203L416.115 173.446L386.055 164.022L395.605 135.371Z" fill="white"/>
<path d="M416.127 174.077C416.065 174.089 416.001 174.089 415.938 174.077L385.929 164.627C385.849 164.602 385.776 164.562 385.713 164.508C385.651 164.453 385.6 164.387 385.564 164.312C385.527 164.236 385.508 164.152 385.508 164.067C385.508 163.982 385.527 163.898 385.564 163.822L395.114 135.171C395.144 135.084 395.192 135.004 395.255 134.937C395.318 134.87 395.394 134.816 395.479 134.781C395.564 134.744 395.656 134.725 395.749 134.725C395.842 134.725 395.935 134.744 396.02 134.781L418.606 147.615C418.682 147.66 418.748 147.72 418.8 147.791C418.852 147.863 418.889 147.944 418.908 148.03C418.926 148.115 418.927 148.202 418.91 148.286C418.892 148.371 418.857 148.451 418.807 148.521L411.258 159.242L416.756 173.183C416.799 173.293 416.809 173.413 416.787 173.528C416.765 173.644 416.71 173.751 416.63 173.837C416.571 173.914 416.495 173.976 416.407 174.017C416.32 174.059 416.224 174.079 416.127 174.077ZM386.872 163.62L415.058 172.428L409.924 159.405C409.887 159.309 409.873 159.205 409.884 159.102C409.895 158.999 409.93 158.9 409.987 158.814L417.297 148.383L395.995 136.291L386.872 163.62Z" fill="#263238"/>
<path d="M394.473 160.864L386.055 164.022L395.605 135.371L394.473 160.864Z" fill="#263238"/>
<path d="M386.056 164.716C385.955 164.718 385.856 164.696 385.766 164.651C385.676 164.606 385.598 164.539 385.54 164.457C385.482 164.376 385.444 164.281 385.431 164.181C385.418 164.081 385.429 163.98 385.464 163.886L395.014 135.235C395.029 135.152 395.06 135.073 395.106 135.003C395.151 134.932 395.21 134.871 395.279 134.823C395.348 134.775 395.425 134.742 395.507 134.724C395.589 134.706 395.674 134.704 395.757 134.719C395.839 134.734 395.918 134.765 395.989 134.81C396.06 134.856 396.121 134.915 396.168 134.983C396.216 135.052 396.25 135.13 396.268 135.212C396.286 135.294 396.288 135.379 396.273 135.461L395.14 160.967C395.135 161.088 395.094 161.206 395.023 161.304C394.951 161.403 394.852 161.478 394.738 161.52L386.32 164.678C386.235 164.707 386.145 164.72 386.056 164.716ZM394.738 139.84L387.037 162.98L393.832 160.463L394.738 139.84Z" fill="#263238"/>
<path d="M364.355 108.545L397.196 122.524L394.478 160.864L365.173 150.257L364.355 108.545Z" fill="white"/>
<path d="M394.475 161.495H394.261L364.943 150.875C364.825 150.829 364.724 150.75 364.65 150.647C364.576 150.544 364.534 150.422 364.528 150.296L363.723 108.584C363.722 108.48 363.746 108.378 363.794 108.285C363.843 108.193 363.913 108.114 364 108.056C364.092 108.006 364.196 107.98 364.301 107.98C364.407 107.98 364.511 108.006 364.603 108.056L397.444 121.935C397.568 121.984 397.671 122.072 397.74 122.185C397.808 122.299 397.837 122.432 397.822 122.564L395.104 160.941C395.1 161.037 395.073 161.131 395.025 161.214C394.977 161.298 394.909 161.368 394.827 161.419C394.72 161.48 394.597 161.506 394.475 161.495ZM365.799 149.805L393.921 159.997L396.551 122.929L365.006 109.516L365.799 149.805Z" fill="#263238"/>
<path d="M245.333 279.757C244.999 279.757 244.679 279.625 244.443 279.389C244.207 279.153 244.075 278.833 244.075 278.499L241.231 177.07C241.221 176.736 241.344 176.412 241.573 176.169C241.802 175.926 242.118 175.784 242.452 175.774C242.785 175.764 243.109 175.887 243.352 176.116C243.595 176.345 243.738 176.661 243.748 176.995L246.566 278.461C246.566 278.795 246.434 279.115 246.198 279.351C245.962 279.587 245.642 279.72 245.308 279.72L245.333 279.757Z" fill="#263238"/>
<path d="M256.132 189.816L265.909 196.347L262.461 199.769L266.047 205.167L252.219 201.871L256.132 189.816Z" fill="white"/>
<path d="M266.053 205.798H265.902L252.062 202.514C251.977 202.493 251.898 202.456 251.828 202.404C251.759 202.352 251.701 202.286 251.659 202.21C251.616 202.134 251.59 202.051 251.581 201.964C251.573 201.878 251.582 201.791 251.609 201.708L255.522 189.641C255.551 189.55 255.602 189.467 255.67 189.399C255.737 189.331 255.821 189.281 255.912 189.251C256.003 189.221 256.1 189.21 256.196 189.221C256.291 189.232 256.384 189.264 256.465 189.314L266.23 195.845C266.306 195.897 266.369 195.966 266.417 196.046C266.464 196.125 266.493 196.214 266.503 196.306C266.512 196.398 266.502 196.491 266.472 196.579C266.442 196.666 266.394 196.746 266.33 196.814L263.26 199.871L266.557 204.904C266.627 205.008 266.665 205.131 266.665 205.257C266.665 205.382 266.627 205.505 266.557 205.609C266.492 205.676 266.413 205.727 266.326 205.76C266.239 205.792 266.146 205.805 266.053 205.798ZM253.03 201.419L264.644 204.187L261.939 200.123C261.855 200.001 261.816 199.854 261.83 199.706C261.844 199.559 261.909 199.422 262.014 199.318L264.908 196.436L256.478 190.799L253.03 201.419Z" fill="#263238"/>
<path d="M255.742 200.524L252.219 201.871L256.132 189.816L255.742 200.524Z" fill="#263238"/>
<path d="M252.211 202.462C252.053 202.466 251.899 202.407 251.784 202.298C251.698 202.215 251.638 202.11 251.609 201.994C251.58 201.879 251.584 201.757 251.62 201.644L255.533 189.577C255.582 189.435 255.68 189.316 255.809 189.239C255.938 189.163 256.09 189.136 256.238 189.162C256.388 189.187 256.524 189.266 256.619 189.384C256.714 189.503 256.762 189.652 256.754 189.804L256.364 200.512C256.361 200.635 256.322 200.756 256.25 200.857C256.178 200.958 256.077 201.035 255.961 201.078L252.438 202.424C252.365 202.449 252.289 202.462 252.211 202.462ZM255.332 194.258L253.218 200.776L255.131 200.046L255.332 194.258Z" fill="#263238"/>
<path d="M242.93 178.656L256.871 184.709L255.739 200.525L243.395 196.159L242.93 178.656Z" fill="white"/>
<path d="M255.74 201.205C255.673 201.217 255.605 201.217 255.538 201.205L243.195 196.839C243.075 196.8 242.971 196.724 242.896 196.623C242.822 196.521 242.781 196.399 242.78 196.273L242.301 178.758C242.297 178.653 242.32 178.549 242.368 178.456C242.417 178.363 242.489 178.285 242.578 178.229C242.67 178.178 242.774 178.15 242.88 178.15C242.986 178.15 243.09 178.178 243.182 178.229L257.124 184.282C257.245 184.33 257.347 184.416 257.415 184.527C257.483 184.638 257.513 184.768 257.501 184.898L256.369 200.715C256.363 200.812 256.335 200.907 256.287 200.992C256.239 201.077 256.172 201.15 256.092 201.205C255.977 201.236 255.855 201.236 255.74 201.205ZM244.025 195.77L255.173 199.708L256.218 185.162L243.635 179.676L244.025 195.77Z" fill="#263238"/>
<path d="M330.076 292.566C329.913 292.563 329.756 292.497 329.639 292.383C329.522 292.268 329.454 292.113 329.447 291.95L327.371 226.167C327.368 226.002 327.429 225.843 327.542 225.723C327.655 225.603 327.811 225.532 327.975 225.526C328.059 225.519 328.143 225.529 328.222 225.556C328.301 225.583 328.374 225.627 328.435 225.684C328.497 225.74 328.546 225.809 328.579 225.886C328.613 225.963 328.63 226.046 328.629 226.13L330.706 291.912C330.709 291.994 330.696 292.077 330.668 292.155C330.639 292.232 330.595 292.303 330.539 292.364C330.483 292.425 330.416 292.474 330.341 292.509C330.266 292.543 330.184 292.563 330.102 292.566H330.076Z" fill="#263238"/>
<path d="M338.03 235.568L345.215 240.375L342.685 242.891L345.328 246.855L335.148 244.439L338.03 235.568Z" fill="white"/>
<path d="M345.327 247.495H345.189L334.997 245.079C334.83 245.033 334.686 244.925 334.594 244.777C334.56 244.698 334.543 244.612 334.543 244.526C334.543 244.439 334.56 244.354 334.594 244.274L337.476 235.391C337.507 235.297 337.56 235.212 337.63 235.142C337.7 235.072 337.785 235.02 337.878 234.988C337.97 234.957 338.068 234.948 338.164 234.961C338.26 234.974 338.352 235.009 338.432 235.063L345.617 239.87C345.697 239.92 345.763 239.988 345.812 240.069C345.86 240.15 345.888 240.242 345.894 240.336C345.9 240.427 345.888 240.519 345.858 240.606C345.828 240.692 345.78 240.772 345.717 240.839L343.553 242.991L345.906 246.539C345.977 246.643 346.014 246.766 346.014 246.891C346.014 247.017 345.977 247.139 345.906 247.243C345.841 247.334 345.753 247.405 345.651 247.449C345.55 247.493 345.438 247.509 345.327 247.495ZM335.953 243.985L343.918 245.872L342.157 243.242C342.076 243.118 342.041 242.971 342.057 242.824C342.074 242.677 342.14 242.541 342.245 242.437L344.233 240.461L338.369 236.548L335.953 243.985Z" fill="#263238"/>
<path d="M337.74 243.445L335.148 244.439L338.03 235.568L337.74 243.445Z" fill="#462683"/>
<path d="M335.15 245.066C334.987 245.065 334.83 245.002 334.71 244.89C334.625 244.81 334.564 244.707 334.535 244.593C334.506 244.48 334.51 244.36 334.546 244.249L337.428 235.365C337.456 235.198 337.55 235.05 337.688 234.952C337.826 234.854 337.997 234.815 338.164 234.843C338.331 234.871 338.48 234.965 338.577 235.103C338.675 235.241 338.714 235.412 338.686 235.579L338.397 243.468C338.391 243.592 338.35 243.71 338.279 243.811C338.207 243.911 338.108 243.989 337.994 244.035L335.402 245.029L335.15 245.066ZM337.239 240.046L336.157 243.38L337.126 243.003L337.239 240.046Z" fill="#263238"/>
<path d="M328.305 227.35L338.572 231.804L337.742 243.443L328.657 240.234L328.305 227.35Z" fill="white"/>
<path d="M337.744 244.075H337.53L328.445 240.866C328.319 240.813 328.213 240.721 328.143 240.603C328.073 240.486 328.042 240.349 328.055 240.212L327.703 227.327C327.703 227.222 327.728 227.118 327.776 227.024C327.824 226.93 327.894 226.848 327.98 226.786C328.073 226.737 328.177 226.711 328.282 226.711C328.387 226.711 328.491 226.737 328.584 226.786L338.851 231.241C338.972 231.289 339.075 231.375 339.143 231.486C339.211 231.597 339.241 231.728 339.229 231.857L338.398 243.509C338.392 243.604 338.363 243.697 338.315 243.78C338.267 243.863 338.201 243.934 338.122 243.987C338.006 244.05 337.876 244.081 337.744 244.075ZM329.314 239.784L337.216 242.578L337.958 232.197L328.999 228.322L329.314 239.784Z" fill="#263238"/>
<path d="M427.227 447.46C426.56 447.46 425.92 447.195 425.448 446.723C424.976 446.251 424.711 445.611 424.711 444.943L427.529 42.3603C427.529 41.6929 427.795 41.0528 428.267 40.5808C428.738 40.1089 429.379 39.8438 430.046 39.8438C430.713 39.8438 431.354 40.1089 431.825 40.5808C432.297 41.0528 432.563 41.6929 432.563 42.3603L429.744 445.006C429.728 445.663 429.455 446.287 428.985 446.745C428.515 447.204 427.884 447.46 427.227 447.46Z" fill="#263238"/>
<path d="M472.249 84.7266L502.775 106.671L491.4 117.253L502.297 134.906L463.555 129.886L472.249 84.7266Z" fill="white"/>
<path d="M502.297 135.524H502.221L463.479 130.491C463.394 130.482 463.312 130.455 463.238 130.412C463.164 130.368 463.1 130.309 463.051 130.239C462.951 130.097 462.91 129.92 462.938 129.748L471.62 84.589C471.642 84.4852 471.689 84.3884 471.757 84.3072C471.825 84.2259 471.912 84.1628 472.01 84.1234C472.109 84.0851 472.216 84.0719 472.322 84.085C472.427 84.0982 472.528 84.1374 472.614 84.1989L503.14 106.156C503.216 106.208 503.279 106.278 503.325 106.358C503.371 106.439 503.398 106.529 503.404 106.621C503.41 106.715 503.395 106.809 503.36 106.896C503.326 106.983 503.272 107.061 503.203 107.125L492.206 117.354L502.838 134.517C502.903 134.618 502.938 134.736 502.938 134.857C502.938 134.977 502.903 135.095 502.838 135.197C502.785 135.294 502.707 135.376 502.611 135.433C502.516 135.491 502.408 135.522 502.297 135.524ZM464.31 129.346L501.076 134.102L490.872 117.581C490.794 117.457 490.762 117.311 490.78 117.166C490.798 117.022 490.866 116.888 490.972 116.788L501.781 106.722L472.677 85.8095L464.31 129.346Z" fill="#263238"/>
<path d="M485.285 127.885L463.555 129.886L472.249 84.7266L485.285 127.885Z" fill="#263238"/>
<path d="M463.554 130.514C463.465 130.513 463.378 130.493 463.298 130.456C463.218 130.42 463.146 130.366 463.088 130.3C463.023 130.228 462.975 130.141 462.949 130.047C462.923 129.953 462.919 129.855 462.937 129.759L471.619 84.5997C471.649 84.4627 471.723 84.3393 471.83 84.2484C471.937 84.1575 472.071 84.1041 472.211 84.0964C472.349 84.09 472.486 84.1298 472.6 84.2094C472.714 84.2891 472.798 84.4042 472.84 84.5368L485.888 127.695C485.914 127.786 485.92 127.882 485.905 127.976C485.889 128.069 485.854 128.158 485.8 128.236C485.746 128.313 485.677 128.377 485.596 128.424C485.516 128.472 485.427 128.502 485.334 128.513L463.617 130.514H463.554ZM472.362 87.3427L464.321 129.18L484.454 127.33L472.362 87.3427Z" fill="#263238"/>
<path d="M431.19 47.5957L489.309 76.712L485.283 127.886L430.812 103.652L431.19 47.5957Z" fill="white"/>
<path d="M485.333 128.516C485.246 128.534 485.156 128.534 485.069 128.516L430.561 104.219C430.449 104.169 430.355 104.087 430.288 103.985C430.221 103.882 430.185 103.763 430.184 103.64L430.561 47.597C430.56 47.4884 430.588 47.3815 430.641 47.2867C430.694 47.1919 430.77 47.1124 430.863 47.056C430.956 47.0064 431.06 46.9805 431.165 46.9805C431.27 46.9805 431.374 47.0064 431.467 47.056L489.599 76.1723C489.712 76.2281 489.805 76.3171 489.866 76.4273C489.926 76.5375 489.952 76.6637 489.939 76.7889L485.912 127.963C485.9 128.063 485.865 128.159 485.81 128.243C485.756 128.328 485.683 128.4 485.598 128.453C485.515 128.492 485.425 128.513 485.333 128.516ZM431.454 103.238L484.717 126.969L488.655 77.1034L431.807 48.6162L431.454 103.238Z" fill="#263238"/>
<path d="M277.445 58.9438H163.962C163.851 58.9458 163.743 58.9175 163.647 58.862C163.552 58.8066 163.473 58.7261 163.421 58.6292C163.368 58.5351 163.34 58.4289 163.34 58.3209C163.34 58.213 163.368 58.1068 163.421 58.0127C163.634 57.6352 168.567 48.8525 175.613 44.826C179.954 42.3095 187.026 44.2095 192.688 45.7068C196.035 46.5876 199.495 47.4935 200.477 46.8392C201.326 45.9493 201.963 44.878 202.339 43.7062C204.201 39.5287 207.372 32.5327 219.539 28.9592C226.019 27.0718 230.977 29.1731 234.953 30.8592C238.929 32.5453 241.534 33.64 244.201 30.9851C245.432 29.672 246.588 28.2898 247.662 26.8454C249.665 24.1618 251.874 21.6377 254.268 19.2957C254.328 19.2387 254.399 19.1942 254.476 19.1646C254.554 19.135 254.637 19.121 254.719 19.1233C254.802 19.1256 254.884 19.1443 254.96 19.1782C255.036 19.2121 255.104 19.2606 255.161 19.3209C255.218 19.3812 255.263 19.4522 255.292 19.5297C255.322 19.6072 255.336 19.6898 255.333 19.7728C255.331 19.8558 255.312 19.9374 255.278 20.0132C255.245 20.0889 255.196 20.1573 255.136 20.2143C252.785 22.5153 250.618 24.9975 248.656 27.6381C247.549 29.1248 246.356 30.5449 245.082 31.891C241.836 35.1373 238.413 33.7029 234.462 32.0294C230.511 30.3559 225.944 28.4182 219.892 30.1798C208.227 33.5897 205.384 39.9943 203.534 44.2346C203.091 45.6373 202.288 46.8997 201.206 47.8962C199.759 48.865 196.677 48.0598 192.398 46.9273C186.95 45.4929 180.156 43.6936 176.267 45.9333C170.844 49.0286 166.579 55.32 165.107 57.6981H277.483C277.649 57.6981 277.81 57.7644 277.927 57.8824C278.045 58.0004 278.112 58.1604 278.112 58.3272C278.11 58.4121 278.092 58.4957 278.057 58.5731C278.022 58.6505 277.972 58.7201 277.91 58.7777C277.848 58.8353 277.774 58.8797 277.694 58.9083C277.614 58.9368 277.53 58.9489 277.445 58.9438Z" fill="white"/>
<path d="M360.149 58.9439H290.201C290.034 58.9439 289.874 58.8776 289.756 58.7596C289.639 58.6417 289.572 58.4816 289.572 58.3148C289.572 58.1479 289.639 57.9879 289.756 57.8699C289.874 57.7519 290.034 57.6856 290.201 57.6856H359.331C358.387 54.3638 354.184 41.3282 344.986 37.9937C337.525 35.2759 333.662 39.5414 330.781 42.6619C329.891 43.8384 328.758 44.8085 327.459 45.5056C326.94 45.7609 326.37 45.8937 325.791 45.8937C325.213 45.8937 324.643 45.7609 324.124 45.5056C323.758 45.2873 323.44 44.9959 323.191 44.6495C322.942 44.3032 322.767 43.9093 322.677 43.4924C322.564 43.2533 307.578 7.2165 282.513 9.15423C275.582 9.50417 268.812 11.3727 262.683 14.6277C262.538 14.7092 262.366 14.7298 262.206 14.685C262.045 14.6402 261.909 14.5336 261.827 14.3886C261.785 14.3171 261.758 14.2379 261.747 14.1557C261.737 14.0734 261.743 13.9898 261.765 13.91C261.787 13.8301 261.825 13.7555 261.877 13.6907C261.929 13.626 261.993 13.5723 262.066 13.533C268.354 10.1875 275.3 8.26321 282.413 7.89596C308.484 5.9079 323.734 42.7752 323.936 43.1275C323.989 43.3844 324.094 43.628 324.243 43.844C324.392 44.06 324.583 44.2442 324.804 44.3857C325.166 44.5325 325.555 44.6005 325.946 44.5854C326.336 44.5702 326.719 44.4721 327.069 44.2977C328.168 43.6468 329.133 42.7928 329.912 41.7811C332.819 38.5977 337.21 33.7785 345.477 36.7481C356.613 40.7997 360.639 57.4088 360.803 58.1386C360.825 58.2295 360.827 58.3244 360.807 58.4159C360.788 58.5075 360.747 58.5934 360.69 58.6671C360.629 58.7544 360.548 58.8253 360.454 58.8736C360.359 58.9219 360.255 58.9461 360.149 58.9439Z" fill="white"/>
<path d="M529.151 215.663H456.247C456.137 215.662 456.029 215.633 455.934 215.577C455.839 215.522 455.761 215.443 455.706 215.348C455.653 215.254 455.625 215.148 455.625 215.04C455.625 214.932 455.653 214.826 455.706 214.731C455.832 214.518 458.587 209.598 462.551 207.333C465.067 205.911 469.006 206.955 472.202 207.798C473.812 208.226 475.825 208.755 476.266 208.465C476.68 207.996 476.997 207.448 477.197 206.855C478.241 204.502 480.003 200.563 486.873 198.55C490.547 197.481 493.341 198.663 495.58 199.607C497.82 200.551 499.103 201.016 500.374 199.733C501.048 199.021 501.678 198.268 502.262 197.481C503.579 195.685 505.08 194.032 506.741 192.548C506.861 192.432 507.021 192.367 507.188 192.367C507.355 192.367 507.515 192.432 507.634 192.548C507.693 192.606 507.74 192.674 507.771 192.75C507.803 192.825 507.819 192.907 507.819 192.989C507.819 193.071 507.803 193.152 507.771 193.227C507.74 193.303 507.693 193.372 507.634 193.429C506.037 194.863 504.591 196.457 503.319 198.185C502.703 199.016 502.039 199.81 501.331 200.563C499.393 202.501 497.329 201.62 495.152 200.702C492.976 199.783 490.535 198.751 487.288 199.695C480.997 201.532 479.424 205.005 478.405 207.245C478.153 208.077 477.674 208.822 477.021 209.396C476.115 210 474.366 209.535 471.988 208.893C469.031 208.113 465.344 207.144 463.293 208.314C460.947 209.856 458.971 211.897 457.505 214.291H529.226C529.393 214.291 529.553 214.357 529.671 214.475C529.789 214.593 529.855 214.753 529.855 214.92C529.855 215.087 529.789 215.247 529.671 215.365C529.553 215.483 529.393 215.549 529.226 215.549L529.151 215.663Z" fill="white"/>
<path d="M564.608 215.662H535.101C534.934 215.662 534.774 215.595 534.656 215.477C534.538 215.359 534.472 215.199 534.472 215.033C534.472 214.866 534.538 214.706 534.656 214.588C534.774 214.47 534.934 214.403 535.101 214.403H563.79C563.11 212.176 560.82 205.772 556.152 204.073C552.189 202.639 550.2 204.815 548.602 206.59C548.082 207.277 547.416 207.84 546.652 208.238C546.329 208.395 545.974 208.476 545.614 208.476C545.254 208.476 544.9 208.395 544.576 208.238C544.344 208.102 544.141 207.921 543.981 207.704C543.821 207.488 543.707 207.242 543.645 206.98C543.645 206.892 535.466 187.149 521.751 188.231C518.828 188.421 515.95 189.057 513.22 190.119C513.144 190.152 513.062 190.169 512.98 190.169C512.897 190.17 512.815 190.154 512.739 190.122C512.663 190.091 512.594 190.044 512.536 189.985C512.478 189.926 512.432 189.856 512.402 189.779C512.369 189.703 512.352 189.622 512.352 189.539C512.351 189.456 512.367 189.375 512.399 189.298C512.43 189.222 512.477 189.153 512.536 189.095C512.595 189.037 512.665 188.992 512.742 188.961C515.596 187.847 518.605 187.176 521.663 186.973C536.208 185.853 544.501 205.772 544.84 206.627C544.886 206.856 545.016 207.058 545.205 207.194C545.538 207.3 545.899 207.273 546.212 207.118C546.772 206.793 547.267 206.366 547.671 205.86C549.332 204.048 551.836 201.305 556.58 203.029C562.871 205.319 565.136 214.63 565.224 215.033C565.247 215.124 565.248 215.218 565.229 215.31C565.209 215.401 565.169 215.487 565.111 215.561C565.038 215.612 564.956 215.647 564.87 215.664C564.783 215.681 564.694 215.681 564.608 215.662Z" fill="white"/>
<path d="M318.555 248.401H255.075C254.964 248.4 254.855 248.371 254.758 248.316C254.661 248.261 254.58 248.182 254.522 248.086C254.467 247.991 254.438 247.882 254.438 247.772C254.438 247.661 254.467 247.553 254.522 247.457C255.522 245.679 256.927 244.161 258.624 243.028C260.184 242.135 262.562 242.764 264.475 243.267C265.185 243.512 265.926 243.652 266.677 243.682C266.852 243.428 266.996 243.154 267.104 242.865C267.579 241.604 268.362 240.483 269.382 239.604C270.402 238.725 271.626 238.115 272.943 237.832C274.717 237.367 276.6 237.592 278.215 238.461C279.599 239.039 280.14 239.19 280.732 238.587C281.119 238.191 281.481 237.771 281.814 237.328C283.103 235.437 284.825 233.88 286.836 232.786C288.846 231.692 291.089 231.092 293.377 231.037C302.185 230.37 307.029 242.21 307.218 242.714V242.827C307.319 242.94 307.432 242.953 307.658 242.827C307.943 242.63 308.198 242.393 308.413 242.122C309.37 241.078 310.93 239.316 313.912 240.386C317.687 241.783 319.084 247.369 319.146 247.608C319.167 247.702 319.167 247.799 319.145 247.893C319.123 247.987 319.081 248.074 319.021 248.149C318.967 248.223 318.897 248.284 318.816 248.328C318.736 248.371 318.647 248.396 318.555 248.401ZM256.183 247.143H317.712C317.234 245.658 315.925 242.475 313.509 241.581C311.358 240.801 310.301 241.959 309.37 242.978C309.032 243.414 308.602 243.77 308.111 244.022C307.887 244.129 307.642 244.184 307.394 244.184C307.146 244.184 306.901 244.129 306.677 244.022C306.355 243.826 306.117 243.516 306.01 243.154C305.721 242.449 300.977 231.729 293.427 232.295C291.312 232.334 289.238 232.883 287.381 233.895C285.523 234.907 283.937 236.353 282.757 238.108C282.394 238.607 281.999 239.082 281.575 239.53C280.316 240.788 278.97 240.222 277.661 239.669C276.31 238.928 274.729 238.721 273.232 239.09C272.098 239.327 271.042 239.847 270.162 240.602C269.282 241.356 268.607 242.321 268.199 243.406C268.037 243.937 267.722 244.41 267.293 244.765C266.664 245.192 265.645 244.916 264.11 244.513C262.575 244.11 260.335 243.519 259.203 244.148C257.996 244.923 256.967 245.943 256.183 247.143Z" fill="white"/>
<path d="M98.6085 153.542H35.0785C34.9692 153.539 34.8624 153.508 34.7679 153.453C34.6734 153.398 34.5941 153.321 34.5374 153.227C34.4822 153.131 34.4531 153.023 34.4531 152.912C34.4531 152.802 34.4822 152.694 34.5374 152.598C35.541 150.818 36.9508 149.301 38.652 148.169C40.2122 147.275 42.5903 147.905 44.5029 148.408C45.2129 148.652 45.9546 148.792 46.7049 148.823C46.8804 148.569 47.0241 148.294 47.1327 148.005C47.6074 146.745 48.3906 145.624 49.4105 144.745C50.4305 143.866 51.6547 143.256 52.971 142.972C54.7447 142.507 56.6287 142.732 58.2432 143.601C59.6273 144.18 60.1683 144.331 60.7597 143.727C61.1469 143.331 61.5083 142.911 61.8418 142.469C63.1315 140.578 64.853 139.021 66.8638 137.927C68.8745 136.833 71.1169 136.233 73.4053 136.178C82.2132 135.511 87.0575 147.351 87.2463 147.854C87.2522 147.892 87.2522 147.93 87.2463 147.968C87.3469 148.081 87.4728 148.093 87.6867 147.968C87.9768 147.778 88.2321 147.539 88.4416 147.263C89.3979 146.219 90.9582 144.457 93.9529 145.539C97.7277 146.923 99.1243 152.51 99.1873 152.749C99.2082 152.843 99.2077 152.94 99.1859 153.034C99.1641 153.127 99.1216 153.215 99.0614 153.29C99.0087 153.362 98.9409 153.422 98.8627 153.466C98.7844 153.509 98.6977 153.535 98.6085 153.542ZM36.2361 152.283H97.7906C97.3124 150.799 96.0038 147.615 93.5754 146.722C91.4237 145.942 90.3668 147.099 89.4357 148.118C89.1026 148.559 88.6719 148.917 88.1774 149.163C87.9509 149.269 87.7039 149.323 87.4539 149.323C87.2039 149.323 86.9569 149.269 86.7304 149.163C86.4068 148.971 86.1718 148.659 86.0761 148.295C85.7741 147.59 81.1437 136.87 73.4934 137.436C71.378 137.473 69.3029 138.021 67.445 139.033C65.5872 140.045 64.0015 141.492 62.8233 143.249C62.4355 143.75 62.0151 144.225 61.565 144.671C60.3068 145.929 58.973 145.363 57.6644 144.809C56.3123 144.069 54.7321 143.863 53.2353 144.23C52.1008 144.468 51.0447 144.988 50.1648 145.742C49.285 146.497 48.6099 147.461 48.2022 148.546C48.0396 149.078 47.7246 149.551 47.2963 149.905C46.6671 150.333 45.6479 150.056 44.1003 149.654C42.5526 149.251 40.3254 148.647 39.2056 149.289C38.0176 150.069 37.006 151.089 36.2361 152.283Z" fill="white"/>
<path d="M173.012 113.123C174.444 116.861 175.597 120.701 176.459 124.611C177.026 128.486 178.649 130.587 178.208 131.732C177.768 132.877 176.346 135.507 176.346 136.325C177.324 139.769 178.561 143.134 180.046 146.391C181.191 148.832 177.894 149.549 176.887 150.984C175.881 152.418 175.629 155.728 175.163 159.892C174.698 164.057 176.019 166.36 175.025 168.512C174.031 170.663 167.551 170.953 164.82 170.235C163.334 169.902 161.952 169.211 160.794 168.222L159.938 171.821C155.71 168.543 151.136 165.738 146.299 163.453C140.343 161.079 134.25 159.062 128.054 157.414L128.771 149.373C128.771 149.373 121.159 138.049 118.139 128.549C115.119 119.049 120.58 108.291 123.738 104.126C126.896 99.9611 142.612 96.8028 150.602 96.6644C158.592 96.526 171.426 102.692 171.993 102.83C172.559 102.968 177.453 101.685 177.592 103.56C177.539 105.062 177.148 106.533 176.447 107.863C176.447 107.863 182.625 104.994 182.046 108.291C181.467 111.587 174.295 113.487 173.012 113.123Z" fill="#DFADAD" stroke="#263238" stroke-linecap="round" stroke-linejoin="round"/>
<path d="M159.94 172.439C159.799 172.437 159.662 172.388 159.55 172.3C155.354 169.073 150.824 166.305 146.037 164.046C140.113 161.691 134.054 159.691 127.892 158.057C127.75 158.016 127.625 157.928 127.54 157.806C127.456 157.685 127.415 157.538 127.427 157.39L128.131 149.563C127.125 148.041 120.343 137.559 117.537 128.764C114.441 119.025 119.915 108.154 123.249 103.775C126.584 99.3961 142.916 96.2253 150.592 96.0617C157.562 95.9233 167.893 100.403 171.277 101.875C171.756 102.089 172.07 102.227 172.171 102.252L173.052 102.139C174.964 101.888 176.751 101.724 177.682 102.479C177.842 102.607 177.974 102.767 178.07 102.949C178.165 103.131 178.221 103.331 178.236 103.536C178.255 104.63 178.054 105.717 177.644 106.732C179.066 106.229 181.079 105.738 182.086 106.518C182.363 106.742 182.567 107.044 182.672 107.384C182.777 107.725 182.779 108.089 182.677 108.431C182.48 109.155 182.128 109.828 181.645 110.403C181.163 110.979 180.562 111.443 179.884 111.765C178.056 112.821 176.03 113.489 173.932 113.728C175.252 117.215 176.3 120.799 177.065 124.448C177.328 125.973 177.749 127.466 178.324 128.903C178.828 129.81 179.006 130.862 178.827 131.885C178.676 132.287 178.399 132.879 178.11 133.495C177.639 134.374 177.267 135.302 177.003 136.263C177.989 139.622 179.204 142.91 180.639 146.103C181.646 148.23 179.972 149.387 178.739 150.23C178.269 150.532 177.845 150.901 177.481 151.325C176.625 152.583 176.311 155.641 175.946 159.227L175.87 159.931C175.732 161.457 175.766 162.993 175.971 164.512C176.278 165.925 176.174 167.397 175.669 168.752C174.411 171.445 167.377 171.52 164.734 170.815C163.499 170.507 162.325 169.992 161.262 169.293L160.632 171.935C160.606 172.039 160.554 172.135 160.481 172.214C160.409 172.293 160.318 172.353 160.217 172.388C160.131 172.428 160.035 172.445 159.94 172.439ZM128.723 156.975C134.78 158.589 140.734 160.568 146.552 162.901C151.148 165.046 155.504 167.67 159.55 170.727L160.192 168.072C160.216 167.962 160.269 167.86 160.347 167.778C160.425 167.696 160.523 167.637 160.632 167.607C160.741 167.577 160.855 167.576 160.963 167.605C161.071 167.633 161.17 167.691 161.249 167.77C162.344 168.676 163.637 169.309 165.024 169.62C167.767 170.337 173.706 169.91 174.486 168.236C174.881 167.086 174.951 165.849 174.687 164.663C174.47 163.057 174.432 161.432 174.574 159.818L174.65 159.101C175.065 155.037 175.367 152.105 176.411 150.62C176.866 150.055 177.421 149.578 178.047 149.211C179.444 148.242 180.01 147.701 179.519 146.694C178.45 144.43 175.744 137.396 175.744 136.314C175.968 135.15 176.394 134.034 177.003 133.017C177.279 132.426 177.544 131.872 177.682 131.495C177.693 130.759 177.52 130.032 177.179 129.381C176.597 127.86 176.175 126.283 175.92 124.675C175.065 120.821 173.925 117.036 172.511 113.35C172.467 113.238 172.457 113.115 172.482 112.997C172.506 112.878 172.564 112.77 172.649 112.683C172.733 112.599 172.838 112.54 172.953 112.511C173.069 112.482 173.19 112.485 173.303 112.52C175.434 112.475 177.515 111.862 179.33 110.746C179.846 110.494 180.307 110.141 180.685 109.709C181.063 109.277 181.351 108.774 181.532 108.229C181.595 107.864 181.532 107.638 181.419 107.525C180.815 107.072 178.563 107.663 176.814 108.468C176.695 108.525 176.561 108.543 176.432 108.52C176.302 108.497 176.183 108.433 176.091 108.339C176 108.244 175.94 108.123 175.92 107.993C175.901 107.863 175.923 107.73 175.983 107.613C176.634 106.384 177.004 105.026 177.065 103.637C177.067 103.602 177.06 103.568 177.044 103.537C177.029 103.506 177.006 103.48 176.977 103.46C176.399 102.995 174.31 103.272 173.303 103.46C172.857 103.559 172.398 103.584 171.944 103.536C171.545 103.4 171.154 103.241 170.774 103.058C167.452 101.611 157.336 97.1816 150.642 97.3452C142.274 97.4836 127.137 100.78 124.218 104.555C121.702 107.94 115.662 118.811 118.72 128.462C121.702 137.66 129.251 148.934 129.251 149.047C129.336 149.164 129.376 149.307 129.365 149.45L128.723 156.975Z" fill="#263238"/>
<path d="M174.482 138.808C174.934 138.808 175.3 137.709 175.3 136.354C175.3 134.999 174.934 133.9 174.482 133.9C174.03 133.9 173.664 134.999 173.664 136.354C173.664 137.709 174.03 138.808 174.482 138.808Z" fill="#263238"/>
<path d="M173.567 132.147C173.408 132.151 173.255 132.092 173.139 131.984C173.08 131.925 173.033 131.856 173.002 131.779C172.97 131.702 172.953 131.62 172.953 131.537C172.953 131.454 172.97 131.372 173.002 131.295C173.033 131.219 173.08 131.149 173.139 131.09C173.45 130.672 173.854 130.333 174.319 130.099C174.785 129.865 175.298 129.744 175.819 129.744C176.137 129.776 176.443 129.877 176.717 130.04C176.991 130.203 177.226 130.424 177.405 130.688C177.495 130.828 177.525 130.998 177.49 131.161C177.454 131.324 177.356 131.466 177.216 131.556C177.076 131.644 176.908 131.675 176.747 131.642C176.585 131.609 176.442 131.515 176.348 131.38C176.274 131.271 176.177 131.18 176.064 131.113C175.951 131.045 175.824 131.003 175.694 130.99C175.37 131.028 175.057 131.132 174.776 131.297C174.494 131.462 174.25 131.683 174.058 131.946C173.998 132.016 173.922 132.071 173.837 132.106C173.751 132.141 173.659 132.155 173.567 132.147Z" fill="#263238"/>
<path d="M175.024 168.487C176.018 166.335 174.735 164.033 175.163 159.868C175.59 155.703 175.88 152.406 176.886 150.959C174.018 149.965 168.079 154.269 167.412 153.262C166.745 152.255 166.153 134.3 166.543 131.569C166.934 128.839 170.708 128.852 172.294 125.404C173.879 121.956 168.519 118.068 168.267 115.778C168.016 113.488 173.011 113.048 173.011 113.048C174.269 113.476 181.479 111.613 182.058 108.304C182.637 104.995 176.459 107.876 176.459 107.876C177.16 106.546 177.551 105.075 177.604 103.573C177.465 101.698 172.571 102.994 172.004 102.843C171.438 102.692 158.642 96.5519 150.614 96.6777C142.586 96.8035 126.908 99.9744 123.75 104.139C120.591 108.304 115.131 119.075 118.15 128.562C120.667 136.64 126.619 146.052 128.305 148.695C128.805 149.051 129.351 149.339 129.928 149.55C135 151.076 140.355 151.42 145.581 150.557C152.765 149.298 158.516 146.681 157.509 144.668C156.502 142.655 155.924 134.325 158.226 130.45C160.529 126.574 163.108 132.463 162.53 139.497C161.951 146.53 160.378 150.985 159.95 155.439C159.522 159.893 160.806 168.223 160.806 168.223C161.964 169.212 163.346 169.903 164.832 170.236C167.55 171.004 174.018 170.651 175.024 168.487Z" fill="#263238"/>
<path d="M168.258 171.205C167.035 171.224 165.814 171.097 164.621 170.828C163.033 170.465 161.556 169.723 160.318 168.664C160.23 168.563 160.169 168.442 160.142 168.311C160.142 167.972 158.883 159.856 159.274 155.376C159.508 153.368 159.849 151.373 160.293 149.4C161.039 146.117 161.564 142.787 161.866 139.434C162.293 134.2 160.909 130.198 159.815 129.859C159.387 129.72 158.909 130.437 158.72 130.765C156.581 134.363 157.084 142.492 158.028 144.379C158.158 144.625 158.226 144.9 158.226 145.178C158.226 145.457 158.158 145.731 158.028 145.977C156.77 148.38 150.629 150.28 145.684 151.161C140.427 152.034 135.041 151.702 129.931 150.192H129.755C129.114 149.956 128.509 149.635 127.955 149.236C127.878 149.195 127.813 149.134 127.767 149.06C126.03 146.355 120.129 136.918 117.537 128.802C114.441 119.063 119.915 108.191 123.249 103.813C126.584 99.4337 142.916 96.2629 150.592 96.0993C157.613 95.9987 167.893 100.44 171.277 101.913C171.756 102.126 172.07 102.265 172.171 102.29L173.052 102.177C174.964 101.925 176.751 101.762 177.682 102.517C177.842 102.645 177.974 102.805 178.07 102.987C178.165 103.169 178.221 103.369 178.236 103.573C178.255 104.668 178.054 105.755 177.644 106.769C179.066 106.266 181.079 105.775 182.086 106.556C182.363 106.78 182.567 107.082 182.672 107.422C182.777 107.763 182.779 108.127 182.677 108.468C182.48 109.192 182.128 109.865 181.645 110.441C181.163 111.016 180.562 111.481 179.884 111.803C177.569 113.187 174.209 113.992 172.964 113.74C172.032 113.828 169.805 114.231 169.088 115.124C169.01 115.207 168.952 115.307 168.919 115.416C168.886 115.526 168.879 115.641 168.899 115.753C169.258 116.785 169.819 117.734 170.548 118.547C172.095 120.623 174.02 123.202 172.863 125.706C172.074 127.237 170.848 128.499 169.34 129.33C168.22 130.06 167.339 130.588 167.163 131.721C166.735 134.502 167.301 150.696 167.893 152.835C168.734 152.608 169.551 152.3 170.334 151.916C172.511 150.96 175.241 149.764 177.091 150.419C177.184 150.45 177.269 150.503 177.339 150.573C177.409 150.643 177.462 150.728 177.493 150.821C177.52 150.915 177.525 151.012 177.51 151.108C177.495 151.204 177.459 151.295 177.405 151.375C176.55 152.633 176.235 155.691 175.87 159.277L175.795 159.982C175.657 161.507 175.691 163.044 175.895 164.562C176.203 165.975 176.098 167.447 175.593 168.802C174.75 170.589 171.265 171.205 168.258 171.205ZM161.35 167.896C162.411 168.723 163.639 169.311 164.948 169.62C167.691 170.337 173.63 169.909 174.411 168.236C174.806 167.086 174.876 165.849 174.612 164.662C174.394 163.057 174.356 161.432 174.499 159.818L174.574 159.101C174.672 156.508 175.095 153.938 175.832 151.451C174.07 151.658 172.362 152.196 170.799 153.036C168.723 153.942 167.465 154.496 166.861 153.64C165.905 152.382 165.502 133.948 165.892 131.494C166.144 129.846 167.402 128.978 168.622 128.236C169.931 127.542 170.997 126.467 171.68 125.153C172.523 123.316 170.925 121.164 169.503 119.251C168.618 118.285 167.967 117.126 167.603 115.867C167.569 115.587 167.593 115.303 167.673 115.032C167.753 114.762 167.888 114.51 168.069 114.294C169.327 112.784 172.548 112.469 172.913 112.432C173 112.413 173.09 112.413 173.177 112.432C175.308 112.386 177.389 111.774 179.205 110.658C179.721 110.406 180.181 110.053 180.559 109.621C180.937 109.189 181.225 108.686 181.407 108.141C181.469 107.776 181.407 107.55 181.293 107.436C180.689 106.983 178.437 107.575 176.688 108.38C176.569 108.437 176.436 108.455 176.306 108.432C176.176 108.408 176.057 108.345 175.965 108.25C175.874 108.156 175.814 108.035 175.795 107.905C175.775 107.775 175.797 107.642 175.858 107.524C176.508 106.296 176.878 104.937 176.94 103.548C176.941 103.514 176.934 103.48 176.919 103.449C176.903 103.418 176.88 103.391 176.852 103.372C176.273 102.907 174.184 103.183 173.177 103.372C172.731 103.47 172.273 103.496 171.819 103.448C171.464 103.336 171.115 103.206 170.774 103.058C167.452 101.611 157.336 97.1814 150.642 97.345C142.274 97.4834 127.137 100.78 124.218 104.555C121.702 107.94 115.662 118.811 118.72 128.462C121.236 136.314 126.923 145.486 128.786 148.292C129.17 148.588 129.594 148.829 130.044 149.01H130.208C135.144 150.478 140.351 150.805 145.433 149.966C151.976 148.783 156.216 146.757 156.87 145.449C156.911 145.378 156.933 145.298 156.933 145.216C156.933 145.134 156.911 145.054 156.87 144.983C155.838 142.907 155.146 134.313 157.613 130.161C158.607 128.487 159.638 128.525 160.129 128.688C162.18 129.343 163.489 134.225 163.048 139.573C162.744 142.959 162.215 146.322 161.463 149.639C161.025 151.565 160.693 153.514 160.469 155.477C160.392 159.636 160.699 163.794 161.387 167.896H161.35Z" fill="#263238"/>
<path d="M161.772 170.476C161.772 170.476 162.426 167.531 150.976 162.133C139.525 156.735 127.408 154.433 125.936 155.087C124.464 155.741 122.828 158.862 122.828 158.862C130.473 160.22 137.903 162.589 144.923 165.908C154.901 170.941 163.407 175.395 163.407 175.395L161.772 170.476Z" fill="white"/>
<path d="M163.411 176.036C163.315 176.054 163.217 176.054 163.121 176.036C163.046 176.036 154.502 171.557 144.637 166.536C137.675 163.256 130.309 160.913 122.731 159.566C122.632 159.548 122.539 159.509 122.459 159.45C122.378 159.391 122.312 159.314 122.265 159.226C122.222 159.136 122.199 159.037 122.199 158.936C122.199 158.836 122.222 158.737 122.265 158.647C122.441 158.307 124.052 155.325 125.675 154.608C127.512 153.79 139.843 156.269 151.243 161.642C161.586 166.524 162.442 169.556 162.417 170.45L164.015 175.231C164.053 175.35 164.056 175.478 164.022 175.599C163.988 175.72 163.92 175.828 163.826 175.911C163.707 176 163.56 176.045 163.411 176.036ZM123.813 158.421C131.212 159.8 138.402 162.13 145.204 165.354C152.753 169.128 159.523 172.689 162.329 174.162L161.184 170.726C161.159 170.632 161.159 170.532 161.184 170.437C161.184 170.299 160.995 167.581 150.727 162.749C139.189 157.301 127.5 155.199 126.216 155.715C125.214 156.416 124.391 157.343 123.813 158.421Z" fill="#263238"/>
<path d="M168.169 178.554C166.729 175.719 164.356 173.466 161.45 172.174C156.216 169.557 150.717 163.807 129.377 159.076C125.325 158.182 123.979 158.422 122.834 158.912C120.51 160.487 118.507 162.489 116.933 164.814L115.41 167.041C115.41 167.041 129.327 166.877 138.978 169.821C148.628 172.766 171.063 181.435 171.063 181.435L168.169 178.554Z" fill="#462683"/>
<path d="M171.112 182.065C171.037 182.077 170.961 182.077 170.886 182.065C170.659 181.977 148.376 173.37 138.85 170.464C129.325 167.557 115.598 167.708 115.472 167.708C115.36 167.703 115.25 167.671 115.154 167.614C115.057 167.557 114.976 167.477 114.918 167.381C114.859 167.284 114.828 167.173 114.828 167.06C114.828 166.947 114.859 166.836 114.918 166.739L116.39 164.449C118.019 162.014 120.12 159.93 122.568 158.321C123.94 157.73 125.513 157.566 129.502 158.447C146.375 162.222 153.497 166.601 158.215 169.532C159.473 170.338 160.619 171.042 161.726 171.583C164.72 172.938 167.171 175.26 168.684 178.177L171.54 181.033C171.642 181.136 171.706 181.27 171.722 181.414C171.738 181.558 171.705 181.703 171.628 181.826C171.566 181.902 171.487 181.963 171.398 182.004C171.308 182.046 171.211 182.066 171.112 182.065ZM116.667 166.412C120.228 166.412 131.251 166.777 139.316 169.218C146.866 171.521 162.355 177.384 168.671 179.8L167.816 178.944C167.758 178.881 167.711 178.809 167.677 178.73C166.293 176.043 164.034 173.908 161.273 172.678C160.115 172.099 158.983 171.42 157.662 170.564C153.019 167.683 145.997 163.317 129.338 159.63C125.299 158.737 124.116 159.026 123.172 159.429C120.977 160.963 119.076 162.882 117.561 165.091L116.667 166.412Z" fill="#263238"/>
<path d="M217.843 319.342L231.394 332.705C231.876 333.475 232.194 334.336 232.329 335.234C232.463 336.133 232.41 337.049 232.174 337.926C231.583 339.487 220.749 347.993 218.61 348.974C216.471 349.955 215.326 347.036 215.125 346.256C214.923 345.476 213.967 343.35 213.778 342.771C213.59 342.192 208.355 336.379 206.808 331.924C206.034 329.919 205.449 327.847 205.059 325.734L217.843 319.342Z" fill="#DFADAD" stroke="#263238" stroke-linecap="round" stroke-linejoin="round"/>
<path d="M217.776 349.791C217.419 349.793 217.065 349.711 216.745 349.552C215.631 348.823 214.835 347.699 214.518 346.406C214.404 345.979 213.976 344.947 213.662 344.192C213.448 343.663 213.247 343.198 213.171 342.934C213.096 342.669 212.655 342.229 212.202 341.675C210.516 339.511 207.371 335.485 206.213 332.125C205.415 330.092 204.821 327.984 204.439 325.834C204.422 325.705 204.446 325.574 204.507 325.459C204.568 325.344 204.662 325.251 204.778 325.192L217.55 318.8C217.67 318.745 217.804 318.727 217.934 318.75C218.065 318.772 218.185 318.834 218.28 318.926C218.28 318.926 231.064 331.509 231.831 332.289C232.404 333.144 232.783 334.114 232.941 335.132C233.1 336.149 233.035 337.188 232.75 338.177C232.033 340.102 220.733 348.722 218.909 349.565C218.552 349.72 218.166 349.798 217.776 349.791ZM205.76 326.085C206.17 328.001 206.717 329.885 207.396 331.722C208.49 334.881 211.548 338.807 213.196 340.92C213.653 341.419 214.046 341.973 214.366 342.569C214.442 342.783 214.618 343.21 214.819 343.701C215.166 344.486 215.473 345.288 215.738 346.104C215.972 347.041 216.534 347.863 217.323 348.42C217.489 348.504 217.672 348.547 217.858 348.547C218.044 348.547 218.227 348.504 218.393 348.42C220.746 347.35 231.127 338.958 231.617 337.737C232.009 336.191 231.783 334.552 230.988 333.169L217.713 320.109L205.76 326.085Z" fill="#263238"/>
<path d="M65.2138 328.289C66.1592 330.572 67.2347 332.798 68.435 334.958C69.0515 335.562 74.9025 341.828 75.5065 343.439C76.1104 345.049 75.5065 350.51 77.7336 354.549C79.9607 358.588 78.5389 360.199 76.1104 359.393C73.682 358.588 71.8701 353.744 71.8701 353.744C71.8701 353.744 74.0972 361.822 74.4998 363.231C74.9025 364.64 80.9674 366.264 79.9482 367.673C78.929 369.082 68.2337 369.699 65.8178 369.497C63.4019 369.296 58.9476 363.634 57.5384 362.829C56.1291 362.023 52.5053 346.672 51.4735 343.841C50.4418 341.01 48.8438 328.742 48.8438 328.742L65.2138 328.289Z" fill="#DFADAD" stroke="#263238" stroke-linecap="round" stroke-linejoin="round"/>
<path d="M66.8354 370.201H65.7658C64.0797 370.05 61.991 368.062 59.4745 365.483C58.7973 364.744 58.0609 364.063 57.2725 363.444C56.2407 362.866 54.9573 358.676 52.4659 349.515C51.8116 347.087 51.2077 344.986 50.9308 344.13C49.9116 341.274 48.3388 329.358 48.2759 328.855C48.2634 328.768 48.2693 328.679 48.2932 328.595C48.317 328.51 48.3583 328.432 48.4143 328.364C48.5343 328.231 48.7012 328.15 48.8799 328.137L65.2373 327.735C65.3626 327.73 65.4863 327.764 65.592 327.831C65.6976 327.899 65.7802 327.997 65.8287 328.112C66.7085 330.325 67.7169 332.485 68.8486 334.58C68.8486 334.643 75.3538 341.4 76.0585 343.287C76.3086 344.232 76.4396 345.204 76.4485 346.181C76.4694 348.987 77.0826 351.757 78.2478 354.309C79.8962 357.329 79.5061 358.827 78.9147 359.556C78.52 359.942 78.0162 360.198 77.4715 360.288C76.9268 360.378 76.3677 360.298 75.8697 360.06C75.0871 359.708 74.404 359.168 73.8817 358.487C74.4353 360.475 74.9763 362.476 75.1399 363.105C75.2532 363.482 76.7002 364.225 77.5684 364.678C79.1286 365.483 80.475 366.187 80.7015 367.119C80.7407 367.285 80.743 367.458 80.7083 367.625C80.6735 367.793 80.6024 367.951 80.5001 368.087C79.2796 369.811 70.2075 370.201 66.8354 370.201ZM49.5593 329.358C49.9242 331.988 51.2202 341.337 52.0759 343.677C52.403 344.583 52.9441 346.609 53.6487 349.163C54.8315 353.517 57.0209 361.607 57.8891 362.35C58.7733 363.006 59.5871 363.753 60.3175 364.577C61.991 366.263 64.5201 368.805 65.8791 368.918C68.7983 369.157 78.6002 368.389 79.4558 367.358C78.7033 366.71 77.8542 366.183 76.9392 365.797C75.4293 365.017 74.1333 364.338 73.8817 363.457C73.479 362.035 71.2519 353.957 71.2519 353.957C71.2002 353.79 71.2168 353.61 71.2982 353.455C71.3796 353.301 71.5191 353.185 71.686 353.133C71.8528 353.081 72.0334 353.098 72.188 353.179C72.3425 353.261 72.4584 353.4 72.5101 353.567C72.9883 354.825 74.6115 358.26 76.3604 358.852C77.1406 359.103 77.7697 359.066 78.0339 358.739C78.2982 358.411 78.3988 357.04 77.2287 354.901C75.9681 352.192 75.3031 349.244 75.2783 346.257C75.2656 345.409 75.1601 344.565 74.9638 343.74C74.4605 342.368 68.9996 336.442 68.0433 335.473C66.8131 333.403 65.7446 331.241 64.8473 329.006L49.5593 329.358Z" fill="#263238"/>
<path d="M72.6246 367.143C72.5216 367.142 72.4203 367.116 72.3295 367.068C72.2388 367.019 72.1615 366.948 72.1043 366.863C72.0472 366.777 72.0119 366.678 72.0017 366.576C71.9915 366.473 72.0067 366.37 72.0458 366.275C70.4906 365.743 68.8838 365.376 67.2518 365.18C66.1203 365.103 65.01 364.834 63.9678 364.387C63.1121 363.745 61.4512 359.606 60.734 357.857C60.7208 357.79 60.7208 357.722 60.734 357.655C60.6384 355.237 60.9925 352.822 61.7784 350.534C62.9234 347.476 62.3572 341.386 62.3446 341.323C62.3372 341.24 62.3461 341.157 62.3708 341.078C62.3956 340.999 62.4357 340.925 62.4888 340.862C62.542 340.798 62.6072 340.745 62.6807 340.707C62.7541 340.668 62.8345 340.645 62.9171 340.637C62.9997 340.63 63.083 340.639 63.1622 340.664C63.2414 340.688 63.3149 340.728 63.3786 340.782C63.4422 340.835 63.4948 340.9 63.5333 340.973C63.5718 341.047 63.5954 341.127 63.6029 341.21C63.6029 341.474 64.2068 347.652 62.9611 350.987C62.2542 353.08 61.9219 355.283 61.9797 357.492C62.7085 359.548 63.6444 361.526 64.7731 363.393C65.671 363.63 66.583 363.811 67.5035 363.934C71.2783 364.563 73.1028 364.966 73.4048 365.935C73.4576 366.115 73.4584 366.306 73.4072 366.486C73.356 366.666 73.2548 366.829 73.1154 366.954C73.0515 367.018 72.9748 367.068 72.8902 367.101C72.8056 367.133 72.7151 367.148 72.6246 367.143Z" fill="#263238"/>
<path d="M163.347 541.263C163.347 541.263 168.581 545.239 171.073 546.736C173.564 548.234 184.259 549.253 185.014 551.216C185.769 553.179 183.882 555.079 182.838 556.01C181.793 556.941 174.307 559.785 168.581 559.181C166.576 559.081 164.566 559.25 162.605 559.684C160.868 559.936 148.663 561.42 143.441 561.924C138.219 562.427 136.961 558.149 136.71 552.965C136.458 547.781 136.71 541.754 136.71 541.754L157.622 538.771L163.347 541.263Z" fill="white"/>
<path d="M142.636 562.592C141.265 562.652 139.921 562.204 138.861 561.334C137.175 559.874 136.344 557.32 136.118 553.029C135.879 547.832 136.118 541.831 136.118 541.768C136.125 541.622 136.183 541.483 136.282 541.375C136.381 541.267 136.514 541.197 136.659 541.176L157.571 538.182C157.683 538.15 157.8 538.15 157.911 538.182L163.636 540.698L163.775 540.774C163.775 540.774 168.997 544.75 171.438 546.209C173.345 546.98 175.333 547.533 177.364 547.858C182.171 548.902 185.115 549.632 185.643 551.016C186.587 553.532 184.108 555.772 183.29 556.502C182.032 557.622 174.483 560.453 168.556 559.824C166.985 559.706 165.404 559.812 163.863 560.138L162.73 560.315C160.868 560.591 148.638 562.076 143.529 562.567L142.636 562.592ZM137.326 542.309C137.326 543.869 137.137 548.676 137.326 552.928C137.515 556.791 138.244 559.144 139.629 560.352C140.154 560.77 140.763 561.07 141.414 561.233C142.065 561.395 142.743 561.417 143.403 561.296C148.499 560.818 160.692 559.32 162.542 559.056C162.894 559.056 163.259 558.956 163.636 558.88C165.29 558.536 166.985 558.43 168.669 558.566C174.369 559.17 181.541 556.351 182.447 555.546C184.234 553.948 184.888 552.614 184.448 551.444C184.134 550.601 179.717 549.657 177.087 549.078C174.925 548.734 172.813 548.13 170.796 547.279C168.418 545.857 163.699 542.246 163.083 541.805L157.584 539.415L137.326 542.309Z" fill="#263238"/>
<path d="M170.355 555.87C165.863 555.581 162.667 556.738 150.336 557.317C145.954 557.646 141.55 557.503 137.199 556.889C137.929 560.123 139.615 562.287 143.491 561.922C148.712 561.419 160.918 559.934 162.654 559.683C164.615 559.249 166.625 559.079 168.631 559.179C174.356 559.796 181.742 557.04 182.887 556.008C184.034 555.126 184.846 553.879 185.19 552.473C181.264 555.04 173.941 556.096 170.355 555.87Z" fill="white"/>
<path d="M142.611 562.59C139.402 562.59 137.426 560.765 136.583 557.028C136.559 556.928 136.561 556.822 136.59 556.723C136.618 556.624 136.673 556.534 136.747 556.462C136.816 556.387 136.903 556.331 137 556.298C137.097 556.265 137.2 556.256 137.301 556.273C141.61 556.876 145.972 557.016 150.311 556.688C156.477 556.399 160.377 555.958 163.246 555.631C165.615 555.279 168.012 555.149 170.406 555.241C173.904 555.455 181.051 554.423 184.8 551.957C184.9 551.892 185.016 551.857 185.134 551.856C185.253 551.854 185.37 551.886 185.471 551.948C185.572 552.009 185.654 552.099 185.707 552.205C185.76 552.311 185.781 552.431 185.769 552.549C185.437 554.124 184.542 555.524 183.253 556.487C181.994 557.607 174.445 560.438 168.518 559.809C166.947 559.691 165.367 559.797 163.825 560.123L162.692 560.3C160.83 560.576 148.6 562.061 143.491 562.552L142.611 562.59ZM138.056 557.67C138.924 560.438 140.572 561.57 143.378 561.294C148.474 560.815 160.667 559.318 162.516 559.054C162.869 559.054 163.234 558.953 163.611 558.878C165.265 558.534 166.96 558.428 168.644 558.563C174.344 559.167 181.516 556.349 182.422 555.543C182.987 555.053 183.49 554.495 183.919 553.882C179.626 555.721 174.987 556.613 170.318 556.5C167.999 556.408 165.678 556.539 163.385 556.89C160.516 557.217 156.577 557.657 150.374 557.947C146.268 558.219 142.145 558.126 138.056 557.67Z" fill="#263238"/>
<path d="M81.9375 336.455C81.9375 336.455 87.411 356.374 94.1427 373.801C100.874 391.228 109.569 417.362 109.569 417.362L115.86 455.21C115.86 455.21 116.854 474.085 120.34 488.064C123.825 502.043 137.276 544.246 137.276 544.246C140.742 545.53 144.429 546.116 148.122 545.969C154.338 545.718 163.297 541.238 163.297 541.238C163.297 541.238 164.052 535.513 163.549 533.022C163.045 530.53 160.063 529.247 159.321 527.297C158.579 525.346 149.104 467.126 149.104 467.126C149.104 467.126 146.122 425.805 145.128 417.84C144.134 409.875 141.642 342.658 141.642 342.658L81.9375 336.455Z" fill="#263238"/>
<path d="M147.08 546.647C143.64 546.666 140.227 546.047 137.013 544.823C136.928 544.788 136.851 544.736 136.787 544.668C136.724 544.601 136.677 544.52 136.648 544.433C136.523 544.017 123.16 502.016 119.712 488.226C116.265 474.435 115.22 455.423 115.208 455.234L108.992 417.486C108.929 417.31 100.184 391.251 93.5906 374.038C86.9972 356.825 81.4357 336.818 81.335 336.617C81.3079 336.519 81.3052 336.417 81.3272 336.318C81.3491 336.219 81.395 336.128 81.4608 336.051C81.5257 335.972 81.6093 335.912 81.7039 335.874C81.7985 335.837 81.901 335.824 82.0019 335.837L141.757 342.053C141.909 342.068 142.049 342.137 142.154 342.248C142.258 342.359 142.318 342.505 142.323 342.657C142.323 343.324 144.84 409.936 145.796 417.788C146.752 425.639 149.76 466.697 149.785 467.112C153.56 490.39 159.423 525.647 159.964 527.094C160.386 527.928 160.983 528.662 161.713 529.245C162.914 530.178 163.793 531.463 164.23 532.919C164.746 535.436 164.016 541.098 163.991 541.337C163.979 541.441 163.942 541.54 163.883 541.625C163.823 541.711 163.744 541.781 163.651 541.828C163.273 542.004 154.491 546.37 148.212 546.622L147.08 546.647ZM137.718 543.766C141.062 544.956 144.602 545.499 148.149 545.364C153.534 545.15 161.172 541.589 162.77 540.847C163.13 538.304 163.202 535.729 162.984 533.171C162.59 531.973 161.845 530.921 160.845 530.151C159.968 529.446 159.262 528.551 158.781 527.534C158.039 525.546 149.508 473.215 148.539 467.263C148.539 466.785 145.532 425.803 144.55 417.939C143.594 410.326 141.342 350.106 141.078 343.248L82.7946 337.183C83.9522 341.235 88.8972 358.486 94.723 373.585C101.379 390.823 110.086 416.92 110.175 417.184L116.466 455.121C116.466 455.372 117.51 474.209 120.945 487.924C124.217 501.073 136.535 540.029 137.718 543.766Z" fill="#263238"/>
<path d="M38.9282 509.768C38.9282 509.768 19.9409 513.442 15.1973 514.952C10.4536 516.462 10.4536 519.255 11.5357 524.439C12.6178 529.623 14.7695 532.203 15.6377 532.844C16.5059 533.486 17.1476 541.652 19.5131 546.861C21.8787 552.071 27.327 562.401 32.2342 564.98C37.1415 567.56 42.5898 567.572 43.2441 566.704C43.8984 565.836 41.9858 559.809 41.9858 559.809L37.0282 543.841C37.0282 543.841 42.8037 528.101 43.6845 527.245C44.5653 526.389 48.856 521.847 48.856 521.847L38.9282 509.768Z" fill="white"/>
<path d="M40.792 567.85C37.7201 567.756 34.7091 566.969 31.9841 565.548C26.4226 562.641 20.6597 550.713 18.9862 547.127C17.6936 543.882 16.757 540.507 16.1929 537.061C16.0052 535.774 15.6891 534.509 15.2492 533.286C14.1922 532.493 12.0406 529.712 10.9585 524.541C9.93926 519.646 9.63728 516.048 15.0478 514.324C19.7789 512.814 38.0741 509.291 38.8417 509.127C38.9523 509.105 39.0667 509.114 39.1729 509.151C39.2792 509.189 39.3734 509.254 39.4457 509.341L49.3734 521.42C49.4743 521.535 49.5299 521.683 49.5299 521.836C49.5299 521.988 49.4743 522.136 49.3734 522.251C49.1847 522.439 45.045 526.806 44.1768 527.661C43.5476 528.429 39.9112 537.904 37.7092 543.843L42.6165 559.596C43.535 562.49 44.5039 566.139 43.8119 567.058C43.3863 567.384 42.9001 567.622 42.3816 567.758C41.8632 567.894 41.3228 567.925 40.792 567.85ZM38.653 510.461C35.9854 510.977 19.6657 514.236 15.3624 515.494C11.2982 516.752 10.9962 518.816 12.1286 524.302C13.1353 529.121 15.0856 531.663 15.9915 532.329C16.5074 532.72 16.7465 533.751 17.363 536.822C17.9147 540.167 18.8216 543.445 20.0683 546.598C23.365 553.796 28.3603 562.251 32.5126 564.415C37.4198 566.932 42.2013 566.756 42.7297 566.303C42.9185 565.787 42.1635 562.603 41.3205 560.011L36.3881 544.031C36.344 543.901 36.344 543.759 36.3881 543.629C37.7596 539.854 42.3271 527.686 43.2205 526.793C43.9125 526.101 46.9198 522.943 48.0019 521.823L38.653 510.461Z" fill="#263238"/>
<path d="M32.2351 564.98C37.2682 567.572 42.5906 567.572 43.2449 566.704C43.4213 566.121 43.4213 565.5 43.2449 564.917C38.841 564.703 31.4046 563.659 28.347 558.94C24.459 552.901 20.5835 539.966 18.8597 532.844C17.5134 527.308 16.0412 518.5 15.4498 514.863L15.1856 514.951C10.4419 516.461 10.4419 519.255 11.524 524.439C12.6061 529.623 14.7577 532.202 15.6259 532.844C16.4942 533.486 17.1359 541.652 19.5014 546.861C21.867 552.07 27.3278 562.401 32.2351 564.98Z" fill="white"/>
<path d="M40.792 567.852C37.7201 567.758 34.7091 566.97 31.9841 565.549C26.4226 562.643 20.6597 550.714 18.9862 547.128C17.6936 543.884 16.757 540.508 16.1929 537.062C16.0052 535.775 15.6891 534.511 15.2492 533.287C14.1922 532.494 12.0406 529.714 10.9585 524.542C9.93926 519.647 9.63728 516.049 15.0478 514.325L15.3246 514.237C15.4109 514.211 15.5018 514.204 15.591 514.217C15.6801 514.23 15.7653 514.263 15.8405 514.312C15.9896 514.411 16.0935 514.565 16.1299 514.74C16.6962 518.289 18.1809 527.147 19.5147 532.671C21.0372 538.962 24.9504 552.4 28.9265 558.578C31.657 562.831 38.2629 564.014 43.3211 564.266C43.4654 564.273 43.6029 564.329 43.7106 564.425C43.8183 564.521 43.8896 564.652 43.9125 564.794C44.1138 566.052 44.0761 566.669 43.7867 567.059C43.4973 567.449 42.2893 567.852 40.792 567.852ZM14.9598 515.696C11.3108 516.955 11.0591 519.069 12.1538 524.316C13.1604 529.135 15.1107 531.677 16.0167 532.343C16.5326 532.733 16.7717 533.765 17.3882 536.835C17.9399 540.181 18.8468 543.459 20.0935 546.612C23.3902 553.809 28.3855 562.265 32.5378 564.429C37.4198 566.946 42.1761 566.77 42.7549 566.317C42.7549 566.317 42.7549 566.115 42.7549 565.524C37.4702 565.197 30.8014 563.838 27.8822 559.233C23.818 552.941 19.8418 539.276 18.3067 532.947C16.9856 527.776 15.6015 519.622 14.9598 515.696Z" fill="#263238"/>
<path d="M101.353 341.928C101.353 341.928 108.575 351.39 109.33 352.636C110.085 353.881 115.295 401.18 115.798 405.911C116.076 409.723 116.076 413.549 115.798 417.361C115.798 417.361 98.2954 434.826 86.8452 449.082C75.3949 463.338 38.125 509.127 38.125 509.127L54.4825 534.594C54.4825 534.594 74.9294 518.237 89.5882 504.232C112.791 482.124 134.622 458.746 136.144 457.5C137.667 456.254 147.708 445.584 148.45 442.602C149.192 439.62 157.182 397.757 159.925 384.319C162.668 370.881 166.393 334.529 166.393 334.529L97.9305 336.266" fill="#263238"/>
<path d="M54.4462 535.16H54.3455C54.1704 535.123 54.0166 535.019 53.9177 534.87L37.5602 509.403C37.4806 509.298 37.4375 509.17 37.4375 509.038C37.4375 508.906 37.4806 508.778 37.5602 508.673C37.9377 508.208 74.9559 462.646 86.2803 448.616C97.026 435.304 113.283 418.921 115.107 417.084C115.38 413.39 115.38 409.68 115.107 405.986C114.252 397.82 109.432 354.8 108.703 352.912C108.149 352.006 103.292 345.576 100.801 342.317C100.744 342.253 100.701 342.177 100.675 342.096C100.649 342.014 100.64 341.928 100.648 341.842C100.656 341.757 100.682 341.674 100.724 341.599C100.765 341.523 100.822 341.458 100.89 341.405C100.958 341.353 101.036 341.315 101.119 341.293C101.202 341.272 101.289 341.268 101.374 341.282C101.458 341.295 101.539 341.326 101.612 341.372C101.684 341.418 101.747 341.479 101.795 341.55C102.097 341.94 109.042 351.05 109.797 352.321C110.703 353.818 116.303 405.332 116.366 405.847C116.64 409.697 116.64 413.561 116.366 417.411C116.354 417.564 116.287 417.707 116.177 417.814C116.001 417.99 98.5611 435.429 87.2366 449.409C76.4407 462.784 42.2913 504.773 38.7933 509.114L54.4965 533.6C57.8435 530.894 75.887 516.223 89.0108 503.703C105.633 487.887 121.336 471.617 129.779 462.872C133.226 459.299 135.126 457.336 135.579 456.958C137.341 455.486 147.004 445.068 147.684 442.388C148.074 440.802 150.553 428.056 153.17 414.555C155.485 402.677 157.876 390.383 159.147 384.13C161.663 371.912 164.998 340.267 165.539 335.057L97.7935 336.781C97.7109 336.784 97.6284 336.772 97.5508 336.743C97.4731 336.714 97.4019 336.671 97.3411 336.615C97.2804 336.559 97.2312 336.491 97.1966 336.416C97.162 336.341 97.1425 336.26 97.1392 336.177C97.1389 336.01 97.2027 335.849 97.3173 335.727C97.432 335.606 97.5889 335.532 97.7558 335.523L166.218 333.786C166.308 333.78 166.398 333.796 166.481 333.831C166.564 333.865 166.638 333.919 166.696 333.988C166.759 334.052 166.806 334.129 166.835 334.214C166.863 334.299 166.872 334.39 166.86 334.478C166.86 334.843 163.085 370.968 160.38 384.331C159.122 390.622 156.718 402.865 154.416 414.743C151.786 428.257 149.307 441.029 148.892 442.639C148.074 445.923 137.567 456.87 136.385 457.877C135.982 458.204 133.755 460.507 130.685 463.69C122.242 472.498 106.513 488.73 89.879 504.571C75.3712 518.412 54.9495 534.77 54.7356 534.971C54.6617 535.063 54.5603 535.129 54.4462 535.16Z" fill="#263238"/>
<path d="M116.932 164.713C116.932 164.713 104.828 171.092 98.4484 174.2C92.069 177.308 70.7665 183.7 68.6526 187.135C66.5387 190.57 66.8533 195.943 66.8533 195.943C66.8533 195.943 45.966 253.446 45.4627 263.474C44.9594 273.503 46.9978 330.565 46.9978 330.565C46.9978 330.565 48.5455 332.868 56.7746 332.616C65.0037 332.365 68.3381 330.817 68.3381 330.817C68.3381 330.817 72.4526 273.239 73.2201 269.892C73.7214 267.779 74.4121 265.715 75.2837 263.726L84.2677 245.733C84.2677 245.733 87.3631 264.242 87.3631 265.009C87.3631 265.777 70.389 335.183 70.389 335.183C70.389 335.183 70.389 339.814 100.462 343.991C130.534 348.168 156.757 350.672 158.04 350.672C159.323 350.672 166.269 339.109 166.269 339.109C166.269 339.109 168.068 345.526 167.527 346.306C166.986 347.086 172.674 345.048 173.957 343.991L179.091 339.876C179.091 339.876 171.126 295.661 171.126 292.326C171.126 288.992 173.19 276.9 173.19 276.9L202.998 331.396C202.998 331.396 202.998 332.163 210.195 328.049C214.187 325.869 217.826 323.099 220.991 319.832L196.832 260.455C196.832 260.455 191.183 194.899 190.667 191.564C190.151 188.23 191.434 187.45 188.352 185.902C185.269 184.354 171.101 181.435 171.101 181.435C171.101 181.435 147.773 172.502 139.015 169.821C130.257 167.141 116.932 164.713 116.932 164.713Z" fill="#462683"/>
<path d="M158.024 351.301C156.526 351.301 129.625 348.608 100.37 344.607C71.115 340.605 69.7435 336.113 69.7435 335.245C69.7374 335.195 69.7374 335.144 69.7435 335.094C75.5189 311.451 86.5036 266.355 86.6924 265.021C86.6924 264.442 85.1321 255.018 83.9242 247.808L75.8209 264.115C75.003 266.052 74.3547 268.056 73.8832 270.105C73.1282 273.351 69.0514 330.35 69.0137 330.917C69.0073 331.03 68.9699 331.139 68.9055 331.232C68.8411 331.325 68.7523 331.399 68.6488 331.445C68.5104 331.521 65.1005 333.043 56.8337 333.307C48.5668 333.572 46.7675 331.231 46.5284 330.967C46.4631 330.87 46.4241 330.757 46.4152 330.64C46.4152 330.074 44.3642 273.439 44.8801 263.499C45.396 253.558 64.9495 199.579 66.2707 195.917C66.2707 195.024 66.1197 190.142 68.1707 186.832C69.5548 184.593 77.0918 181.699 87.5732 177.848C91.9142 176.25 96.0161 174.74 98.2181 173.671C104.509 170.601 116.564 164.259 116.689 164.183C116.819 164.134 116.962 164.134 117.092 164.183C117.231 164.183 130.568 166.612 139.263 169.217C147.957 171.821 171.147 180.767 171.386 180.856C171.865 180.944 185.567 183.787 188.688 185.348C191.104 186.606 191.204 187.499 191.204 189.21C191.19 189.964 191.237 190.717 191.343 191.463C191.846 194.759 197.181 256.503 197.508 260.303L221.642 319.592C221.683 319.699 221.695 319.816 221.675 319.929C221.655 320.042 221.604 320.148 221.528 320.234C218.324 323.566 214.628 326.388 210.569 328.601C203.711 332.515 203.12 332.175 202.768 331.974C202.662 331.903 202.576 331.808 202.516 331.697L173.576 278.85C173.01 282.335 171.827 289.885 171.827 292.376C171.827 294.867 177.036 324.537 179.792 339.813C179.809 339.924 179.798 340.039 179.758 340.144C179.718 340.25 179.652 340.344 179.565 340.417L174.419 344.531C173.676 345.123 168.128 347.777 167.159 346.947C167.076 346.892 167.005 346.82 166.952 346.737C166.898 346.653 166.863 346.559 166.847 346.461C166.832 346.363 166.837 346.262 166.863 346.166C166.888 346.07 166.933 345.98 166.995 345.903C166.854 344.119 166.52 342.355 166.001 340.643C161.748 347.74 159.055 351.301 158.024 351.301ZM71.0143 335.27C71.2031 335.623 73.77 339.699 100.533 343.361C130.87 347.513 156.866 350.042 158.024 350.042C158.791 349.665 162.579 344.015 165.712 338.718C165.776 338.612 165.87 338.528 165.982 338.474C166.093 338.42 166.218 338.4 166.341 338.416C166.462 338.432 166.576 338.483 166.668 338.564C166.759 338.645 166.825 338.751 166.857 338.869C167.577 341.082 168.042 343.37 168.241 345.689C170.11 345.174 171.904 344.417 173.576 343.436L178.42 339.548C177.602 334.993 170.506 295.509 170.506 292.263C170.506 289.016 172.494 277.226 172.569 276.736C172.591 276.607 172.652 276.488 172.745 276.395C172.837 276.303 172.956 276.241 173.085 276.22C173.214 276.194 173.347 276.211 173.465 276.268C173.583 276.324 173.679 276.418 173.739 276.534L203.384 330.803C205.654 329.927 207.833 328.831 209.889 327.532C213.693 325.418 217.187 322.789 220.27 319.718L196.262 260.705C196.255 260.647 196.255 260.588 196.262 260.529C196.262 259.875 190.6 194.961 190.097 191.689C189.98 190.856 189.929 190.014 189.946 189.173C189.946 187.738 189.946 187.361 188.134 186.442C185.152 184.958 171.173 182.063 171.034 182.026C170.694 181.912 147.53 173.042 138.898 170.399C130.87 167.946 118.829 165.693 117.08 165.366C115.507 166.197 104.648 171.897 98.7592 174.766C96.5069 175.873 92.3797 177.383 88.001 178.993C80.6149 181.699 70.511 185.41 69.2402 187.461C67.2395 190.695 67.5289 195.879 67.5289 195.93C67.5421 196.013 67.5421 196.098 67.5289 196.181C67.3276 196.76 46.6668 253.709 46.1384 263.524C45.6477 273.087 47.535 326.374 47.6735 330.338C48.1139 330.728 50.19 332.225 56.7959 332.011C60.5175 332.028 64.2204 331.485 67.7806 330.401C68.1832 324.89 71.9077 273.024 72.6501 269.777C73.1619 267.622 73.8651 265.516 74.7514 263.486L83.7606 245.468C83.8201 245.349 83.9153 245.253 84.0328 245.192C84.1503 245.131 84.284 245.109 84.4149 245.128C84.5454 245.149 84.6662 245.21 84.7608 245.302C84.8554 245.395 84.9192 245.514 84.9434 245.644C85.4593 248.739 88.0387 264.241 88.0387 265.021C88.0387 265.801 75.0408 318.825 71.0143 335.27Z" fill="#263238"/>
<path d="M84.2628 245.794L75.7695 200.295L79.3682 254.539L84.2628 245.794Z" fill="#263238"/>
<path d="M79.3692 255.17H79.2308C79.0989 255.137 78.9809 255.063 78.8929 254.959C78.805 254.855 78.7515 254.727 78.74 254.591L75.1414 200.347C75.1336 200.187 75.1861 200.03 75.2886 199.906C75.3911 199.783 75.5361 199.702 75.695 199.68C75.8541 199.661 76.0146 199.702 76.145 199.795C76.2754 199.888 76.3662 200.027 76.3997 200.184L84.8804 245.683C84.9057 245.83 84.879 245.981 84.8049 246.111L79.9228 254.843C79.8675 254.941 79.7871 255.023 79.6899 255.081C79.5927 255.138 79.4821 255.169 79.3692 255.17ZM77.1043 210.879L79.8599 252.402L83.6347 245.72L77.1043 210.879Z" fill="#263238"/>
<path d="M127.439 233.061C127.348 233.061 127.257 233.041 127.174 233.002C127.092 232.963 127.019 232.905 126.961 232.835C125.606 231.205 124.433 229.433 123.463 227.55C123.408 227.406 123.408 227.247 123.463 227.103C123.518 226.959 123.623 226.84 123.76 226.769C123.896 226.698 124.054 226.679 124.203 226.716C124.353 226.753 124.483 226.844 124.57 226.971C125.502 228.764 126.625 230.451 127.917 232.004C127.976 232.061 128.022 232.13 128.054 232.206C128.086 232.281 128.102 232.362 128.102 232.444C128.102 232.527 128.086 232.608 128.054 232.683C128.022 232.759 127.976 232.827 127.917 232.885C127.853 232.945 127.778 232.991 127.696 233.021C127.614 233.052 127.526 233.065 127.439 233.061Z" fill="#263238"/>
<path d="M122.808 225.374C122.685 225.375 122.565 225.339 122.462 225.272C122.359 225.205 122.278 225.109 122.229 224.997C116.353 211.722 115.762 193.049 115.762 192.86C115.76 192.778 115.775 192.696 115.805 192.619C115.835 192.542 115.88 192.471 115.937 192.412C115.994 192.352 116.063 192.305 116.139 192.271C116.214 192.238 116.296 192.22 116.378 192.219C116.543 192.222 116.701 192.287 116.82 192.401C116.939 192.515 117.011 192.671 117.02 192.835C117.02 193.011 117.612 211.433 123.311 224.493C123.347 224.568 123.367 224.65 123.37 224.732C123.374 224.815 123.36 224.898 123.331 224.975C123.301 225.053 123.257 225.124 123.199 225.184C123.142 225.243 123.073 225.291 122.997 225.324C122.937 225.35 122.873 225.367 122.808 225.374Z" fill="#263238"/>
<path d="M118.956 224.581C118.846 224.581 118.738 224.551 118.643 224.496C118.549 224.441 118.47 224.362 118.415 224.267C115.514 219.136 113.329 213.633 111.922 207.909C111.904 207.828 111.901 207.744 111.915 207.663C111.929 207.581 111.959 207.502 112.004 207.432C112.048 207.362 112.106 207.301 112.174 207.254C112.242 207.206 112.319 207.172 112.4 207.154C112.48 207.136 112.564 207.134 112.645 207.148C112.726 207.162 112.803 207.192 112.872 207.237C112.941 207.281 113.001 207.339 113.047 207.407C113.094 207.475 113.126 207.552 113.143 207.633C114.524 213.237 116.667 218.626 119.51 223.65C119.588 223.796 119.607 223.967 119.562 224.126C119.517 224.286 119.413 224.422 119.27 224.506C119.175 224.561 119.066 224.587 118.956 224.581Z" fill="#263238"/>
<path d="M112.727 285.57C112.587 285.567 112.451 285.519 112.34 285.433C112.229 285.347 112.148 285.227 112.111 285.092C112.072 284.928 112.1 284.756 112.187 284.613C112.274 284.469 112.414 284.366 112.576 284.324C122.554 281.808 135.326 278.712 142.271 277.215C139.038 277.366 134.52 277.693 130.318 278.045C130.151 278.059 129.986 278.005 129.858 277.897C129.731 277.788 129.652 277.633 129.638 277.466C129.625 277.3 129.678 277.134 129.787 277.007C129.895 276.879 130.05 276.8 130.217 276.787C147.38 275.34 147.455 275.894 147.556 276.586C147.657 277.278 147.04 277.529 144.536 278.033C138.371 279.291 123.913 282.802 112.878 285.582L112.727 285.57Z" fill="#263238"/>
<path d="M100.713 288.576C100.63 288.586 100.547 288.579 100.467 288.557C100.386 288.535 100.312 288.497 100.246 288.445C100.181 288.394 100.126 288.33 100.085 288.257C100.044 288.185 100.018 288.105 100.008 288.022C99.9985 287.94 100.005 287.856 100.027 287.776C100.05 287.696 100.088 287.621 100.139 287.555C100.191 287.49 100.255 287.435 100.327 287.395C100.4 287.354 100.479 287.328 100.562 287.318L105.985 285.946C106.147 285.908 106.317 285.936 106.459 286.023C106.6 286.111 106.701 286.25 106.74 286.412C106.761 286.491 106.765 286.574 106.754 286.655C106.742 286.736 106.714 286.814 106.672 286.884C106.63 286.955 106.574 287.016 106.508 287.064C106.442 287.113 106.367 287.148 106.287 287.167L100.864 288.538L100.713 288.576Z" fill="#263238"/>
<path d="M173.201 276.9C173.201 276.9 167.287 267.135 166.771 264.82C166.255 262.505 162.141 237.314 162.141 237.314C162.141 237.314 164.972 277.415 166.004 282.813C166.841 286.383 168.613 289.666 171.137 292.326L173.201 276.9Z" fill="#263238"/>
<path d="M171.138 292.954C171.056 292.955 170.974 292.938 170.898 292.906C170.822 292.873 170.754 292.825 170.698 292.765C168.076 290.022 166.242 286.623 165.388 282.925C164.356 277.553 161.613 238.999 161.512 237.363C161.502 237.281 161.509 237.197 161.531 237.117C161.554 237.037 161.592 236.962 161.643 236.896C161.695 236.831 161.758 236.776 161.831 236.736C161.903 236.695 161.983 236.669 162.066 236.659C162.149 236.649 162.232 236.655 162.312 236.678C162.393 236.7 162.468 236.738 162.533 236.79C162.598 236.841 162.653 236.905 162.694 236.977C162.735 237.05 162.761 237.13 162.771 237.212C162.771 237.464 166.885 262.378 167.388 264.68C167.791 266.492 172.107 273.878 173.68 276.571C173.758 276.694 173.79 276.842 173.768 276.986L171.717 292.4C171.7 292.517 171.651 292.627 171.576 292.718C171.5 292.809 171.401 292.878 171.289 292.916C171.241 292.936 171.19 292.949 171.138 292.954ZM163.79 251.204C164.708 263.334 166.004 279.453 166.621 282.661C167.304 285.671 168.703 288.472 170.698 290.827L172.547 276.986C171.692 275.564 166.659 267.134 166.155 264.907C165.904 263.837 164.847 257.508 163.79 251.204Z" fill="#263238"/>
<path d="M160.604 232.294C160.46 232.294 160.321 232.246 160.209 232.157C160.097 232.067 160.018 231.943 159.987 231.803C159.987 231.803 159.496 229.676 158.943 226.468C158.929 226.385 158.931 226.301 158.95 226.219C158.968 226.137 159.003 226.06 159.051 225.992C159.1 225.923 159.161 225.865 159.232 225.82C159.303 225.776 159.382 225.746 159.465 225.732C159.547 225.718 159.632 225.72 159.714 225.739C159.795 225.757 159.873 225.792 159.941 225.84C160.009 225.889 160.067 225.95 160.112 226.021C160.157 226.092 160.187 226.171 160.201 226.254C160.755 229.425 161.233 231.501 161.233 231.513C161.253 231.594 161.257 231.677 161.245 231.759C161.232 231.841 161.204 231.919 161.16 231.99C161.117 232.06 161.059 232.121 160.992 232.169C160.924 232.217 160.848 232.251 160.767 232.268L160.604 232.294Z" fill="#263238"/>
<path d="M158.958 223.198C158.806 223.197 158.659 223.142 158.544 223.043C158.429 222.944 158.353 222.807 158.329 222.657C157.239 215.929 156.931 209.097 157.41 202.298C158.668 189.414 169.074 186.608 169.188 186.583C169.268 186.562 169.351 186.557 169.433 186.569C169.515 186.58 169.594 186.608 169.665 186.65C169.737 186.692 169.799 186.748 169.849 186.814C169.898 186.88 169.935 186.955 169.955 187.036C169.994 187.197 169.968 187.368 169.884 187.511C169.799 187.654 169.662 187.759 169.502 187.803C169.112 187.904 159.876 190.433 158.656 202.424C158.197 209.123 158.505 215.852 159.574 222.481C159.596 222.646 159.554 222.813 159.455 222.946C159.356 223.08 159.21 223.17 159.046 223.198H158.958Z" fill="#263238"/>
<path d="M157.507 220.467C157.383 220.465 157.262 220.427 157.16 220.358C157.057 220.288 156.977 220.191 156.928 220.077C155.416 214.135 154.547 208.048 154.336 201.92C154.336 201.753 154.402 201.593 154.52 201.475C154.638 201.357 154.798 201.291 154.965 201.291C155.132 201.291 155.292 201.357 155.41 201.475C155.528 201.593 155.594 201.753 155.594 201.92C155.796 207.936 156.639 213.913 158.111 219.75C158.136 219.829 158.144 219.913 158.136 219.995C158.128 220.078 158.103 220.158 158.063 220.231C158.023 220.304 157.969 220.368 157.904 220.419C157.838 220.471 157.763 220.508 157.683 220.53L157.507 220.467Z" fill="#263238"/>
</g>
<defs>
<clipPath id="clip0_3406_27369">
<rect width="600" height="600" fill="white"/>
</clipPath>
</defs>
</svg>
