<svg width="600" height="600" viewBox="0 0 600 600" fill="none" xmlns="http://www.w3.org/2000/svg">
<path d="M369.705 13.5289C369.705 13.5289 272.371 -12.5469 184.932 48.5591C97.493 109.665 60.6901 220.028 28.5993 308.604C-3.49159 397.18 27.5689 482.134 101.796 515.998C176.023 549.861 218.584 487.619 317.296 476.755C416.007 465.892 443.947 477.982 520.856 415.028C597.765 352.074 600.28 217.922 526.371 124.801C452.462 31.6803 369.705 13.5289 369.705 13.5289Z" fill="#5A3A97"/>
<path d="M369.705 13.5289C369.705 13.5289 272.371 -12.5469 184.932 48.5591C97.493 109.665 60.6901 220.028 28.5993 308.604C-3.49159 397.18 27.5689 482.134 101.796 515.998C176.023 549.861 218.584 487.619 317.296 476.755C416.007 465.892 443.947 477.982 520.856 415.028C597.765 352.074 600.28 217.922 526.371 124.801C452.462 31.6803 369.705 13.5289 369.705 13.5289Z" fill="#FAB748"/>
<path d="M299.999 592.497C465.684 592.497 599.999 580.965 599.999 566.74C599.999 552.514 465.684 540.982 299.999 540.982C134.314 540.982 0 552.514 0 566.74C0 580.965 134.314 592.497 299.999 592.497Z" fill="#5A3A97"/>
<path opacity="0.4" d="M299.999 592.497C465.684 592.497 599.999 580.965 599.999 566.74C599.999 552.514 465.684 540.982 299.999 540.982C134.314 540.982 0 552.514 0 566.74C0 580.965 134.314 592.497 299.999 592.497Z" fill="#FAB748"/>
<path d="M26.0078 538.18H548.598" stroke="#263238" stroke-miterlimit="10"/>
<path d="M26.0078 403.924H548.598" stroke="#263238" stroke-miterlimit="10"/>
<path d="M26.0078 393.605H548.598" stroke="#263238" stroke-miterlimit="10"/>
<path d="M225.096 352.711H96.3086V48.3477H225.096V352.711ZM363.338 48.3477H234.551V352.711H363.338V48.3477ZM501.596 48.3477H372.732V352.711H501.52L501.596 48.3477Z" fill="white"/>
<path d="M225.096 352.711H96.3086V348.68C113.748 332.786 155.778 301.862 225.096 293.817V352.711ZM501.596 255.226C470.323 275.559 426.535 284.726 372.808 288.756V352.711H501.596V255.226ZM363.338 289.468C331.763 291.453 296.945 291.893 259.369 291.893C250.748 291.893 242.505 292.271 234.551 292.938V352.756H363.338V289.468ZM225.096 234.423V97.7869C190.066 76.2264 146.763 59.0749 116.127 48.3477H96.3086V270.347C133.763 257.65 185.354 250.074 225.096 234.378V234.423ZM363.338 214.135C335.247 224.733 306.132 232.385 276.46 236.968C274.361 237.109 272.335 237.793 270.581 238.953C257.823 248.878 311.278 252.12 317.035 252.074C332.534 251.916 348.005 250.701 363.338 248.438V214.135ZM284.172 175.666C287.748 149.181 265.566 124.711 234.551 103.908V230.378C261.081 218.256 280.672 201.59 284.172 175.62V175.666ZM501.596 135.681C460.929 166.787 418.262 192.256 372.808 210.468V246.923C417.081 239.347 459.974 223.665 501.596 203.984V135.681ZM353.899 170.135C357.037 170.576 360.225 170.499 363.338 169.908V48.3477H260.611C272.975 81.5445 307.823 163.484 353.899 170.09V170.135ZM444.202 48.3931H372.732V166.696C403.99 151.06 429.778 89.9536 444.202 48.3477V48.3931Z" fill="#5A3A97"/>
<path opacity="0.48" d="M225.096 352.711H96.3086V348.68C113.748 332.786 155.778 301.862 225.096 293.817V352.711ZM501.596 255.226C470.323 275.559 426.535 284.726 372.808 288.756V352.711H501.596V255.226ZM363.338 289.468C331.763 291.453 296.945 291.893 259.369 291.893C250.748 291.893 242.505 292.271 234.551 292.938V352.756H363.338V289.468ZM225.096 234.423V97.7869C190.066 76.2264 146.763 59.0749 116.127 48.3477H96.3086V270.347C133.763 257.65 185.354 250.074 225.096 234.378V234.423ZM363.338 214.135C335.247 224.733 306.132 232.385 276.46 236.968C274.361 237.109 272.335 237.793 270.581 238.953C257.823 248.878 311.278 252.12 317.035 252.074C332.534 251.916 348.005 250.701 363.338 248.438V214.135ZM284.172 175.666C287.748 149.181 265.566 124.711 234.551 103.908V230.378C261.081 218.256 280.672 201.59 284.172 175.62V175.666ZM501.596 135.681C460.929 166.787 418.262 192.256 372.808 210.468V246.923C417.081 239.347 459.974 223.665 501.596 203.984V135.681ZM353.899 170.135C357.037 170.576 360.225 170.499 363.338 169.908V48.3477H260.611C272.975 81.5445 307.823 163.484 353.899 170.09V170.135ZM444.202 48.3931H372.732V166.696C403.99 151.06 429.778 89.9536 444.202 48.3477V48.3931Z" fill="white"/>
<path d="M98.0495 340.846C98.0495 340.846 98.0495 335.604 90.6859 328.24C83.3223 320.877 78.5647 316.68 78.5647 316.68C78.5647 316.68 74.8829 328.801 81.7162 336.119C86.7399 341.298 92.1882 346.046 98.0041 350.316L98.0495 340.846Z" fill="#5A3A97"/>
<path d="M87.3625 373.68C87.3625 373.68 87.3625 368.422 80.014 361.059C72.6656 353.695 67.8928 349.498 67.8928 349.498C67.8928 349.498 64.211 361.619 71.0444 368.937C76.068 374.116 81.5163 378.865 87.3322 383.134L87.3625 373.68Z" fill="#5A3A97"/>
<path d="M97.5786 349.801C97.5786 349.801 98.1392 344.574 106.23 338.044C114.321 331.513 119.472 327.816 119.472 327.816C119.472 327.816 121.851 340.225 114.291 346.816C108.748 351.42 102.828 355.551 96.5938 359.165L97.5786 349.801Z" fill="#5A3A97"/>
<path d="M84.688 388.559C84.688 388.559 85.794 383.422 94.5213 377.771C103.249 372.119 108.764 368.998 108.764 368.998C108.764 368.998 109.839 381.589 101.612 387.362C95.6109 391.366 89.286 394.863 82.7031 397.816L84.688 388.559Z" fill="#5A3A97"/>
<path d="M87.1133 430.83C87.1133 430.83 87.1133 425.573 94.4769 418.209C101.841 410.845 106.598 406.648 106.598 406.648C106.598 406.648 110.265 418.77 103.431 426.103C98.4088 431.278 92.9604 436.022 87.1436 440.285L87.1133 430.83Z" fill="#5A3A97"/>
<path d="M86.9895 441.133C86.9895 441.133 87.7319 435.936 81.5047 427.603C75.2774 419.269 71.1714 414.451 71.1714 414.451C71.1714 414.451 65.8229 425.891 71.535 434.148C75.773 439.981 80.4915 445.45 85.641 450.497L86.9895 441.133Z" fill="#5A3A97"/>
<path d="M79.7344 471.71C79.7344 471.71 79.7344 466.452 87.098 459.104C94.4616 451.755 99.2192 447.543 99.2192 447.543C99.2192 447.543 102.886 459.664 96.0677 466.982C91.0405 472.163 85.587 476.912 79.7647 481.179L79.7344 471.71Z" fill="#5A3A97"/>
<path d="M84.6555 499.422C84.6555 499.422 83.3221 494.346 88.5646 485.362C93.807 476.377 97.3373 471.119 97.3373 471.119C97.3373 471.119 103.958 481.877 99.2161 490.725C95.6764 497 91.6221 502.97 87.0949 508.574L84.6555 499.422Z" fill="#5A3A97"/>
<path d="M98.7129 339.469C98.3389 344.941 97.6662 350.388 96.6977 355.787C93.7886 370.802 86.5159 380.499 83.6068 394.075C80.6978 407.65 89.0462 425.135 86.819 442.559C84.5917 459.984 77.7281 469.696 79.7281 481.332C81.7281 492.968 91.8493 524.468 91.8493 524.468" stroke="#263238" stroke-width="0.5" stroke-linecap="round" stroke-linejoin="round"/>
<path d="M97.5195 353.3L105.444 347.209" stroke="#263238" stroke-width="0.5" stroke-linecap="round" stroke-linejoin="round"/>
<path d="M97.8846 346.287L94.5664 340.393" stroke="#263238" stroke-width="0.5" stroke-linecap="round" stroke-linejoin="round"/>
<path d="M84.0508 393.498C84.0508 393.498 90.6871 388.513 97.5204 383.543" stroke="#263238" stroke-width="0.5" stroke-linecap="round" stroke-linejoin="round"/>
<path d="M87.3655 383.134C84.0579 376.736 80.1029 370.694 75.5625 365.104" stroke="#263238" stroke-width="0.5" stroke-linecap="round" stroke-linejoin="round"/>
<path d="M87.3672 438.301C91.1442 431.324 95.9107 424.929 101.519 419.316" stroke="#263238" stroke-width="0.5" stroke-linecap="round" stroke-linejoin="round"/>
<path d="M86.086 445.679C84.0703 440.944 81.6682 436.383 78.9042 432.042C75.0254 426.33 74.4648 425.588 74.4648 425.588" stroke="#263238" stroke-width="0.5" stroke-linecap="round" stroke-linejoin="round"/>
<path d="M79.7344 481.376C81.4185 477.19 83.4192 473.138 85.7192 469.255C88.0174 465.665 90.607 462.269 93.4616 459.104" stroke="#263238" stroke-width="0.5" stroke-linecap="round" stroke-linejoin="round"/>
<path d="M87.048 508.573C86.6578 504.587 87.3432 500.568 89.0329 496.937C91.7904 491.588 94.9268 484.588 96.2298 481.785" stroke="#263238" stroke-width="0.5" stroke-linecap="round" stroke-linejoin="round"/>
<path d="M49.8689 411.06C49.8689 411.06 49.3083 407.772 53.1113 402.363C56.9143 396.954 59.4446 393.787 59.4446 393.787C59.4446 393.787 63.0658 400.969 59.581 406.333C56.986 410.102 54.0821 413.65 50.8992 416.939L49.8689 411.06Z" fill="#5A3A97"/>
<path d="M60.1228 430.484C60.1228 430.484 59.5622 427.196 63.3652 421.772C67.1683 416.347 69.6985 413.211 69.6985 413.211C69.6985 413.211 73.3197 420.393 69.8349 425.756C67.2399 429.526 64.336 433.074 61.1531 436.362L60.1228 430.484Z" fill="#5A3A97"/>
<path d="M51.126 416.62C51.126 416.62 50.2169 413.408 44.429 410.181C38.6412 406.953 35.0199 405.211 35.0199 405.211C35.0199 405.211 34.8684 413.256 40.3381 416.575C44.3176 418.861 48.478 420.817 52.7775 422.423L51.126 416.62Z" fill="#5A3A97"/>
<path d="M63.4294 439.468C63.4294 439.468 62.1264 436.438 56.0658 433.831C50.0052 431.225 46.1719 429.877 46.1719 429.877C46.1719 429.877 46.8688 437.892 52.6567 440.604C56.8504 442.479 61.1939 444 65.6415 445.15L63.4294 439.468Z" fill="#5A3A97"/>
<path d="M66.4928 466.301C66.4928 466.301 65.9322 462.998 60.5231 459.18C55.114 455.361 51.6746 453.24 51.6746 453.24C51.6746 453.24 50.6898 461.225 55.7655 465.104C59.4815 467.798 63.4141 470.18 67.5231 472.225L66.4928 466.301Z" fill="#5A3A97"/>
<path d="M67.6854 472.802C67.6854 472.802 66.6551 469.62 69.6703 463.711C72.6854 457.802 74.7157 454.348 74.7157 454.348C74.7157 454.348 79.2612 460.939 76.6248 466.726C74.5971 470.85 72.2304 474.798 69.5491 478.529L67.6854 472.802Z" fill="#5A3A97"/>
<path d="M76.9279 499.33C76.9279 499.33 77.3067 496.012 82.4885 491.891C87.6703 487.77 90.9733 485.467 90.9733 485.467C90.9733 485.467 92.4885 493.376 87.5643 497.588C84.0144 500.494 80.2286 503.099 76.2461 505.376L76.9279 499.33Z" fill="#5A3A97"/>
<path d="M75.5672 491.135C75.5672 491.135 74.9915 487.832 69.5066 484.029C64.0218 480.226 60.6733 478.09 60.6733 478.09C60.6733 478.09 59.6733 486.06 64.7642 489.938C68.4779 492.636 72.4108 495.018 76.5218 497.06L75.5672 491.135Z" fill="#5A3A97"/>
<path d="M75.4848 509.043C75.4848 509.043 75.7727 505.71 71.5 500.649C67.2273 495.588 64.4546 492.664 64.4546 492.664C64.4546 492.664 61.4243 500.134 65.4091 505.164C68.3132 508.719 71.5113 512.024 74.9697 515.043L75.4848 509.043Z" fill="#5A3A97"/>
<path d="M49.3086 410.285C50.1332 413.677 51.1448 417.02 52.3389 420.3C55.7934 429.391 61.4298 434.694 64.7025 442.891C67.9752 451.088 64.7025 462.967 67.9601 473.649C71.2176 484.33 76.5661 489.679 76.6116 497.194C76.657 504.709 73.7025 525.558 73.7025 525.558" stroke="#263238" stroke-width="0.5" stroke-linecap="round" stroke-linejoin="round"/>
<path d="M51.5509 418.8L45.9297 415.846" stroke="#263238" stroke-width="0.5" stroke-linecap="round" stroke-linejoin="round"/>
<path d="M50.5703 414.453L52.0097 410.393" stroke="#263238" stroke-width="0.5" stroke-linecap="round" stroke-linejoin="round"/>
<path d="M64.3662 442.497C64.3662 442.497 59.6541 440.088 54.8359 437.709" stroke="#263238" stroke-width="0.5" stroke-linecap="round" stroke-linejoin="round"/>
<path d="M61.1523 436.437C62.5296 432.064 64.3523 427.845 66.5917 423.846" stroke="#263238" stroke-width="0.5" stroke-linecap="round" stroke-linejoin="round"/>
<path d="M67.142 471.013C64.0111 467.055 60.3209 463.575 56.1875 460.68" stroke="#263238" stroke-width="0.5" stroke-linecap="round" stroke-linejoin="round"/>
<path d="M68.7578 475.498C69.5058 472.308 70.5195 469.186 71.7881 466.165C73.6063 462.149 73.8639 461.619 73.8639 461.619" stroke="#263238" stroke-width="0.5" stroke-linecap="round" stroke-linejoin="round"/>
<path d="M76.3594 502.877C78.1872 500.603 80.2155 498.499 82.42 496.589C83.8162 495.558 85.1284 494.418 86.3442 493.18" stroke="#263238" stroke-width="0.5" stroke-linecap="round" stroke-linejoin="round"/>
<path d="M76.6128 497.195C75.1063 494.755 73.4145 492.435 71.5522 490.255C69.719 488.26 67.7277 486.415 65.5977 484.74" stroke="#263238" stroke-width="0.5" stroke-linecap="round" stroke-linejoin="round"/>
<path d="M74.9718 515.044C74.7802 512.505 73.9174 510.063 72.4718 507.968C70.1536 504.938 67.4264 500.862 66.3203 499.256" stroke="#263238" stroke-width="0.5" stroke-linecap="round" stroke-linejoin="round"/>
<path d="M58.6523 521.922H106.789V557.21C106.789 558.415 106.31 559.571 105.457 560.424C104.605 561.276 103.449 561.755 102.243 561.755H63.2736C62.068 561.755 60.9119 561.276 60.0594 560.424C59.207 559.571 58.7281 558.415 58.7281 557.21V521.922H58.6523Z" fill="#263238"/>
<path d="M106.372 528.194H58.6599C57.6634 528.194 56.7076 527.798 56.0029 527.094C55.2983 526.389 54.9024 525.433 54.9024 524.437C54.9004 523.942 54.9961 523.452 55.184 522.994C55.372 522.537 55.6484 522.121 55.9976 521.77C56.3467 521.42 56.7616 521.141 57.2185 520.952C57.6753 520.762 58.1652 520.664 58.6599 520.664H106.372C106.868 520.662 107.359 520.758 107.818 520.947C108.277 521.136 108.693 521.414 109.044 521.765C109.395 522.115 109.673 522.532 109.862 522.991C110.05 523.449 110.147 523.941 110.145 524.437C110.145 524.932 110.047 525.421 109.857 525.878C109.667 526.335 109.389 526.75 109.039 527.099C108.688 527.448 108.272 527.725 107.815 527.913C107.357 528.101 106.867 528.196 106.372 528.194Z" fill="#263238"/>
<path d="M341.066 239.848C341.066 239.848 330.081 241.363 328.566 247.423C327.051 253.484 319.854 294.393 316.824 302.348C313.793 310.302 312.278 315.605 314.93 319.772C317.581 323.938 324.021 319.772 327.809 311.817C331.596 303.863 335.384 259.166 338.036 253.105C339.73 248.871 340.752 244.398 341.066 239.848Z" fill="#DFADAD" stroke="#263238" stroke-linecap="round" stroke-linejoin="round"/>
<path d="M333.23 282.56C335.033 269.363 336.685 256.196 338.033 253.105C339.727 248.871 340.749 244.398 341.063 239.848C341.063 239.848 330.078 241.363 328.563 247.423C327.7 250.893 324.957 265.817 322.215 279.423C325.599 281.296 329.367 282.369 333.23 282.56Z" fill="#5A3A97" stroke="#263238" stroke-linecap="round" stroke-linejoin="round"/>
<path d="M338.035 516.74L339.171 550.831C339.171 550.831 325.535 559.164 318.717 562.195C311.898 565.225 323.641 567.119 327.807 567.119C331.974 567.119 339.55 564.088 344.095 564.088C348.641 564.088 352.807 565.225 352.807 558.785C352.807 552.346 352.05 516.361 352.05 516.361L338.035 516.74Z" fill="#DFADAD" stroke="#263238" stroke-linecap="round" stroke-linejoin="round"/>
<path d="M352.804 558.784C352.804 558.269 352.804 557.542 352.804 556.678C346.601 558.23 340.264 559.189 333.88 559.542L329.865 556.314C325.986 558.527 321.713 560.86 318.728 562.193C311.91 565.224 323.652 567.117 327.819 567.117C331.986 567.117 339.562 564.087 344.107 564.087C348.652 564.087 352.804 565.224 352.804 558.784Z" fill="#5A3A97" stroke="#263238" stroke-linecap="round" stroke-linejoin="round"/>
<path d="M375.531 519.013C375.531 519.013 380.455 551.968 384.243 559.165C388.031 566.362 394.849 572.801 397.88 573.937C400.91 575.074 405.834 571.286 401.668 563.331C397.501 555.377 390.304 548.559 388.41 543.634C386.516 538.71 390.304 517.877 390.304 517.877L375.531 519.013Z" fill="#DFADAD" stroke="#263238" stroke-linecap="round" stroke-linejoin="round"/>
<path d="M397.876 573.935C400.906 575.071 405.831 571.283 401.664 563.329C400.775 561.659 399.794 560.041 398.725 558.48C395.861 559.276 392.893 559.633 389.922 559.541C387.634 559.314 384.376 555.889 382.164 553.223C382.661 555.265 383.356 557.255 384.24 559.162C388.028 566.359 394.846 572.798 397.876 573.935Z" fill="#5A3A97" stroke="#263238" stroke-linecap="round" stroke-linejoin="round"/>
<path d="M328.187 319.014C328.187 319.014 325.915 339.468 324.4 353.862C322.55 370.333 321.917 386.919 322.506 403.483C323.263 422.044 326.672 463.71 328.945 475.074C330.779 484.437 331.793 493.943 331.975 503.483C331.975 508.786 332.733 518.634 332.733 518.634C336.087 520.539 339.862 521.58 343.718 521.665C347.408 521.659 351.089 521.279 354.702 520.528C354.702 520.528 356.218 488.331 354.702 474.316C353.187 460.301 353.945 411.059 354.324 403.483C354.702 395.907 355.839 371.665 355.839 371.665C355.839 371.665 361.142 408.786 364.172 427.347C367.202 445.907 369.854 521.665 369.854 521.665C374.176 522.85 378.63 523.486 383.111 523.559C387.685 523.412 392.186 522.383 396.369 520.528C396.369 520.528 393.718 461.816 393.718 447.422C393.718 433.029 399.021 366.362 395.99 354.241C392.96 342.12 386.521 322.044 386.521 322.044L328.187 319.014Z" fill="#263238" stroke="#263238" stroke-linecap="round" stroke-linejoin="round"/>
<path d="M347.594 356.377L354.488 374.998" stroke="white" stroke-linecap="round" stroke-linejoin="round"/>
<path d="M379.697 231.136C368.333 227.727 360.378 231.893 360.378 231.893C360.378 231.893 346.742 237.196 341.06 239.848C336.121 242.151 335.409 251.545 334.303 260.681C332.469 264.802 327.257 276.893 326.288 283.681C326.061 285.354 326.169 287.056 326.606 288.687C327.043 290.318 327.8 291.846 328.833 293.181C327.318 301.408 326.03 308.954 325.53 312.575C324.394 320.908 325.53 323.56 333.863 325.075C342.197 326.59 386.515 325.833 387.651 324.317C388.788 322.802 386.515 314.848 392.954 303.484C399.394 292.121 410.378 253.106 410.378 248.181C410.378 243.257 391.06 234.545 379.697 231.136Z" fill="#5A3A97" stroke="#263238" stroke-linecap="round" stroke-linejoin="round"/>
<path d="M399.232 279.044L390.656 271.014" stroke="#263238" stroke-linecap="round" stroke-linejoin="round"/>
<path d="M385.838 293.514C385.838 293.514 376.202 298.332 368.156 297.802" stroke="#263238" stroke-linecap="round" stroke-linejoin="round"/>
<path d="M362.272 230.377C362.272 230.377 356.591 233.787 356.212 236.817C355.833 239.847 346.742 248.559 346.742 248.559C346.742 248.559 355.833 244.014 358.485 243.256C361.136 242.499 369.848 234.923 367.197 230.756C364.545 226.59 362.272 230.377 362.272 230.377Z" fill="#5A3A97" stroke="#263238" stroke-linecap="round" stroke-linejoin="round"/>
<path d="M355.082 219.771C355.082 219.771 359.627 229.24 359.627 234.165V258.028L372.127 229.998C373.643 226.589 373.643 211.059 373.643 211.059C373.643 211.059 360.006 220.528 355.082 219.771Z" fill="#DFADAD" stroke="#263238" stroke-linecap="round" stroke-linejoin="round"/>
<path d="M345.233 171.665C345.233 171.665 340.688 176.968 340.688 183.028C340.688 189.089 340.597 199.377 337.885 201.589C335.173 203.801 334.567 203.801 336.082 206.134C337.35 207.653 339.079 208.717 341.006 209.164C341.006 209.164 345.173 220.528 348.203 222.801C351.233 225.074 370.173 217.877 370.173 217.877C370.173 217.877 383.43 203.483 380.4 189.846C377.37 176.21 360.385 156.513 345.233 171.665Z" fill="#DFADAD" stroke="#263238" stroke-linecap="round" stroke-linejoin="round"/>
<path d="M346.667 196.922C346.667 198.437 346.122 199.649 345.47 199.649C344.819 199.649 344.273 198.422 344.273 196.922C344.273 195.422 344.804 194.18 345.47 194.18C346.137 194.18 346.667 195.407 346.667 196.922Z" fill="#263238"/>
<path d="M343.598 188.724C343.598 188.724 345.643 184.618 350.416 189.406" stroke="#263238" stroke-linecap="round" stroke-linejoin="round"/>
<path d="M344.961 211.256C345.962 211.314 346.965 211.161 347.904 210.809C348.843 210.457 349.698 209.912 350.415 209.211" stroke="#263238" stroke-linecap="round" stroke-linejoin="round"/>
<path d="M375.154 225.453L366.82 237.196C367.547 241.019 369.098 244.638 371.366 247.802C375.154 253.105 377.426 259.544 377.805 256.892C378.184 254.241 377.426 248.18 378.184 244.771C378.941 241.362 382.351 231.893 382.351 231.893L375.154 225.453Z" fill="#5A3A97" stroke="#263238" stroke-linecap="round" stroke-linejoin="round"/>
<path d="M397.879 269.013C397.879 269.013 404.136 313.892 403.561 319.013C402.303 330.165 418.712 335.68 420.985 328.483C423.258 321.286 414.53 257.907 414.121 254.135C413.333 247.059 406.439 241.892 401.515 240.756" fill="#5A3A97"/>
<path d="M397.879 269.013C397.879 269.013 404.136 313.892 403.561 319.013C402.303 330.165 418.712 335.68 420.985 328.483C423.258 321.286 414.53 257.907 414.121 254.135C413.333 247.059 406.439 241.892 401.515 240.756" stroke="#263238" stroke-linecap="round" stroke-linejoin="round"/>
<path d="M420.986 328.482C422.379 324.058 419.622 298.391 417.198 278.406C411.138 278.773 405.214 280.349 399.773 283.043C401.561 296.679 403.925 315.77 403.561 319.012C402.304 330.164 418.713 335.679 420.986 328.482Z" fill="#DFADAD" stroke="#263238" stroke-linecap="round" stroke-linejoin="round"/>
<path d="M420.981 328.481C420.981 328.481 419.466 317.497 414.542 315.224C409.618 312.951 396.739 314.845 388.027 312.951C379.946 311.038 371.702 309.897 363.406 309.542C356.966 309.542 343.33 309.163 342.951 310.678C342.572 312.194 350.148 316.36 356.966 317.118C362.641 317.515 368.337 317.515 374.012 317.118C375.906 317.118 399.769 327.345 407.724 330.754C415.678 334.163 419.466 333.027 420.981 328.481Z" fill="#DFADAD" stroke="#263238" stroke-linecap="round" stroke-linejoin="round"/>
<path d="M354.246 311.256L361.731 314.013H365.67" stroke="#263238" stroke-linecap="round" stroke-linejoin="round"/>
<path d="M348.262 305.391C343.944 305.391 341.232 304.057 340.368 297.163C340.169 296.199 340.214 295.2 340.5 294.258C340.786 293.316 341.303 292.46 342.005 291.77C344.58 289.391 348.959 290.254 349.444 290.254C349.856 290.365 350.209 290.628 350.432 290.991C350.655 291.354 350.731 291.789 350.644 292.206C350.556 292.623 350.313 292.99 349.963 293.233C349.613 293.476 349.183 293.576 348.762 293.512C347.944 293.345 345.368 293.103 344.217 294.133C344.02 294.33 343.429 294.876 343.641 296.663C344.323 302.148 345.338 302.254 350.611 301.876C350.836 301.845 351.065 301.861 351.285 301.923C351.504 301.984 351.708 302.09 351.884 302.233C352.061 302.376 352.206 302.554 352.312 302.756C352.417 302.958 352.48 303.179 352.496 303.406C352.513 303.633 352.483 303.861 352.408 304.075C352.333 304.29 352.215 304.487 352.061 304.655C351.907 304.822 351.721 304.957 351.513 305.049C351.305 305.142 351.081 305.191 350.853 305.194C350.005 305.33 349.08 305.391 348.262 305.391Z" fill="white" stroke="#263238" stroke-linecap="round" stroke-linejoin="round"/>
<path d="M360.608 309.164H353.669C352.578 309.164 351.528 308.754 350.725 308.016C349.923 307.278 349.427 306.265 349.335 305.179L347.82 287.406H366.457L364.941 305.179C364.85 306.265 364.354 307.278 363.552 308.016C362.749 308.754 361.699 309.164 360.608 309.164Z" fill="white" stroke="#263238" stroke-linecap="round" stroke-linejoin="round"/>
<path d="M367.865 310.363H345.487L342.684 308.029H370.653L367.865 310.363Z" fill="white" stroke="#263238" stroke-linecap="round" stroke-linejoin="round"/>
<path d="M328.563 301.967C328.563 301.967 317.957 303.861 313.518 310.982C312.381 312.8 311.897 323.558 316.063 326.967C320.23 330.376 326.29 320.906 329.321 315.603C332.351 310.3 335.381 303.861 335.381 303.861L328.563 301.967Z" fill="#DFADAD" stroke="#263238" stroke-linecap="round" stroke-linejoin="round"/>
<path d="M349.013 160.68C349.013 160.68 334.619 159.922 336.892 172.801C339.165 185.68 358.104 179.619 361.892 191.362C365.68 203.104 355.452 230.377 357.346 231.513C359.24 232.649 382.725 228.483 385.755 223.558C388.786 218.634 394.089 204.998 391.058 184.922C388.028 164.846 370.604 154.24 349.013 160.68Z" fill="#263238" stroke="#263238" stroke-linecap="round" stroke-linejoin="round"/>
<path d="M327.351 300.074C327.351 300.074 328.942 290.286 330.836 287.953C332.73 285.619 344.245 294.21 344.245 294.21C344.245 294.21 345.761 297.24 343.973 297.907C343.355 298.075 342.707 298.095 342.081 297.966C341.455 297.837 340.867 297.563 340.367 297.165C340.367 297.165 340.685 304.619 338.412 306.513C336.139 308.407 328.185 306.892 326.67 304.619C325.155 302.346 327.351 300.074 327.351 300.074Z" fill="#DFADAD" stroke="#263238" stroke-linecap="round" stroke-linejoin="round"/>
<path d="M331.863 292.27L340.363 297.163" stroke="#263238" stroke-linecap="round" stroke-linejoin="round"/>
<path d="M329.121 296.301C329.121 296.301 335.091 300.164 339.606 300.498" stroke="#263238" stroke-linecap="round" stroke-linejoin="round"/>
<path d="M327.352 300.074C330.913 302.41 335.037 303.744 339.291 303.938" stroke="#263238" stroke-linecap="round" stroke-linejoin="round"/>
<path d="M265.378 248.893C265.378 248.893 271.257 249.241 273.333 256.847C275.408 264.453 276.363 298.68 276.09 302.832C275.818 306.983 278.515 314.953 281.272 317.362C284.03 319.771 289.227 322.195 286.469 323.923C283.712 325.65 278.893 326.347 272.287 322.195C265.681 318.044 262.606 309.756 261.227 301.453C259.848 293.15 262.606 275.862 259.499 265.09C256.393 254.317 260.878 248.893 265.378 248.893Z" fill="#DFADAD" stroke="#263238" stroke-linecap="round" stroke-linejoin="round"/>
<path d="M282.489 558.557C282.512 559.874 282.126 561.166 281.383 562.254C280.277 563.375 255.444 561.148 252.853 561.148C250.262 561.148 249.898 558.118 249.898 556.33C249.898 554.542 282.489 558.557 282.489 558.557Z" fill="#263238" stroke="#263238" stroke-linecap="round" stroke-linejoin="round"/>
<path d="M278.051 421.116C278.051 421.116 272.491 445.571 270.642 453.343C268.794 461.116 271.748 481.131 268.415 498.54C265.082 515.949 262.127 538.919 262.127 542.252C262.127 545.585 283.233 557.07 282.491 558.555C281.748 560.04 267.339 558.176 263.976 557.813C260.612 557.449 255.082 558.176 252.491 557.07C249.9 555.964 252.112 550.404 252.491 547.434C253.874 535.132 254.617 522.767 254.718 510.389C254.718 493.722 251.688 470.389 252.854 462.237C253.625 455.229 254 448.182 253.976 441.131C253.976 440.01 250.945 421.116 250.945 421.116C250.945 421.116 267.309 419.646 278.051 421.116Z" fill="#DFADAD" stroke="#263238" stroke-linecap="round" stroke-linejoin="round"/>
<path d="M268.045 547.436L263.969 557.814L270.999 559.299L275.075 552.254L268.045 547.436Z" fill="#5A3A97" stroke="#263238" stroke-linecap="round" stroke-linejoin="round"/>
<path d="M200.123 545.634C200.123 545.634 195.441 557.134 195.048 561.225C194.654 565.316 197.199 570.316 202.26 568.043C207.32 565.771 208.699 549.149 208.699 545.316C208.699 541.483 203.623 538.816 200.123 545.634Z" fill="#263238" stroke="#263238" stroke-linecap="round" stroke-linejoin="round"/>
<path d="M228.787 425.194C228.787 425.194 241.757 447.421 239.53 452.239C237.302 457.057 227.302 466.679 222.863 482.239C218.423 497.8 204.681 534.481 201.014 544.845C197.348 555.209 193.969 564.845 199.893 566.33C205.817 567.815 209.151 544.481 211.014 539.284C212.878 534.087 241.014 494.845 247.378 484.83C253.742 474.815 261.014 456.315 261.014 449.982C261.014 443.648 257.317 422.573 257.317 422.573C257.317 422.573 241.363 418.906 228.787 425.194Z" fill="#DFADAD" stroke="#263238" stroke-linecap="round" stroke-linejoin="round"/>
<path d="M197.668 554.102L206.926 556.33L208.774 550.405L199.138 547.814L197.668 554.102Z" fill="#5A3A97" stroke="#263238" stroke-linecap="round" stroke-linejoin="round"/>
<path d="M220.624 319.996C210.725 332.832 204.804 348.287 203.593 364.451C201.73 391.117 227.29 428.163 227.29 428.163C227.29 428.163 263.972 421.496 278.411 426.647C278.411 426.647 289.532 396.269 285.078 367.754C282.069 349.843 275.793 332.637 266.563 316.996L220.624 319.996Z" fill="#263238" stroke="#263238" stroke-linecap="round" stroke-linejoin="round"/>
<path d="M245.727 362.193C245.727 362.193 254.181 387.587 259.12 410.86" stroke="white" stroke-linecap="round" stroke-linejoin="round"/>
<path d="M247.836 351.588C247.836 351.588 252.078 364.285 254.184 372.042" stroke="white" stroke-linecap="round" stroke-linejoin="round"/>
<path d="M254.652 171.8C254.652 171.8 259.197 171.103 263.652 176.982C268.106 182.86 267.803 192.133 269.53 195.3C271.258 198.467 272.985 198.421 273.333 200.83C273.682 203.239 268.788 205.376 268.788 205.376C268.788 205.376 267.758 216.436 265.682 220.527C263.606 224.618 258.758 224.679 256.333 223.982C253.909 223.285 248.758 221.224 248.758 221.224C248.758 221.224 247.03 235.739 247.727 238.86C248.424 241.982 261.212 246.436 263.985 247.845C266.758 249.254 269.167 253.375 268.121 259.966C267.076 266.557 269.849 273.451 270.546 277.588C271.243 281.724 275.394 288.663 271.924 295.224C268.455 301.784 266.046 303.527 266.046 305.951C266.046 308.375 268.818 318.072 267.091 320.466C265.364 322.86 227.697 323.572 223.864 323.572C220.031 323.572 218 314.587 217.303 312.512C216.606 310.436 208.652 278.981 205.894 271.375C203.137 263.769 202.788 249.239 209.349 246.482C215.909 243.724 228.364 241.285 231.137 233.679C233.189 227.557 233.663 221.017 232.515 214.663C231.818 212.588 224.212 209.83 222.137 189.421C220.061 169.012 242.909 160.679 254.652 171.8Z" fill="#DFADAD" stroke="#263238" stroke-linecap="round" stroke-linejoin="round"/>
<path d="M265.94 211.952C265.864 213.346 265.182 214.436 264.424 214.391C263.667 214.346 263.091 213.194 263.167 211.8C263.243 210.406 263.924 209.315 264.682 209.361C265.44 209.406 266.015 210.558 265.94 211.952Z" fill="#263238"/>
<path d="M263.642 191.967L265.324 196.512C264.835 196.951 264.256 197.278 263.629 197.472C263.001 197.665 262.339 197.72 261.688 197.633" stroke="#263238" stroke-linecap="round" stroke-linejoin="round"/>
<path d="M258.094 190.011C258.094 190.011 261.124 186.98 264.548 187.207" stroke="#263238" stroke-linecap="round" stroke-linejoin="round"/>
<path d="M235.302 203.254C236.317 203.455 237.363 203.427 238.366 203.172C239.368 202.916 240.3 202.44 241.095 201.778C241.889 201.115 242.526 200.284 242.957 199.344C243.389 198.404 243.605 197.379 243.59 196.345C244.287 188.042 245.454 182.603 252.363 181.921C259.272 181.239 259.151 182.512 266.757 180.088C274.363 177.663 278.166 161.77 270.211 157.27C262.257 152.77 254.651 160.391 249.469 162.8C244.287 165.209 237.711 156.921 230.105 162.118C222.499 167.315 225.272 173.876 222.848 178.012C220.423 182.148 214.545 189.421 218.014 197.709C221.484 205.997 231.151 218.451 234.681 215.694C238.211 212.936 235.302 203.254 235.302 203.254Z" fill="#5A3A97" stroke="#263238" stroke-linecap="round" stroke-linejoin="round"/>
<path d="M243.669 187.725L235.215 186.664L234.957 189.831L243.139 191.422L243.669 187.725Z" fill="white" stroke="#263238" stroke-linecap="round" stroke-linejoin="round"/>
<path d="M241.172 206.708C241.172 206.708 239.111 200.496 234.96 200.829C230.808 201.163 232.884 210.178 236.339 213.632C239.793 217.087 243.596 212.238 243.596 212.238" fill="#DFADAD"/>
<path d="M241.172 206.708C241.172 206.708 239.111 200.496 234.96 200.829C230.808 201.163 232.884 210.178 236.339 213.632C239.793 217.087 243.596 212.238 243.596 212.238" stroke="#263238" stroke-linecap="round" stroke-linejoin="round"/>
<path d="M220.779 198.77C220.779 198.77 214.552 194.967 211.097 198.77C207.643 202.573 208.34 214.664 213.87 218.119C215.112 218.983 216.576 219.475 218.088 219.535C219.601 219.595 221.099 219.222 222.406 218.459C223.713 217.697 224.775 216.576 225.467 215.23C226.158 213.884 226.451 212.368 226.31 210.861C226.29 208.57 225.787 206.309 224.834 204.226C223.881 202.142 222.5 200.283 220.779 198.77Z" fill="#5A3A97" stroke="#263238" stroke-linecap="round" stroke-linejoin="round"/>
<path d="M268.183 259.964C269.228 253.388 266.804 249.237 264.047 247.843C262.971 247.313 260.425 246.328 257.637 245.116C256.516 251.722 252.94 262.343 241.562 263.055C229.441 263.813 219.259 251.404 214.577 244.57C212.683 245.222 210.895 245.828 209.41 246.464C209.013 246.632 208.636 246.845 208.289 247.101C212.274 252.722 218.183 262.585 219.092 272.737C219.489 275.789 218.887 278.888 217.376 281.569C215.866 284.251 213.529 286.372 210.713 287.616C213.744 298.767 216.941 311.222 217.365 312.494C218.062 314.57 216.562 322.07 220.395 322.07C224.228 322.07 265.456 322.873 267.183 320.449C268.91 318.025 266.137 308.328 266.137 305.934C266.137 303.54 268.562 301.782 272.016 295.207C275.471 288.631 271.334 281.722 270.637 277.57C269.94 273.419 267.107 266.525 268.183 259.964Z" fill="#5A3A97" stroke="#263238" stroke-linecap="round" stroke-linejoin="round"/>
<path d="M209.095 248.209C209.095 248.209 201.837 247.86 198.731 256.845C195.625 265.83 184.549 332.224 185.246 336.027C185.943 339.83 198.383 333.951 199.761 330.845C201.14 327.739 214.913 278.285 214.913 278.285" fill="#DFADAD"/>
<path d="M209.095 248.209C209.095 248.209 201.837 247.86 198.731 256.845C195.625 265.83 184.549 332.224 185.246 336.027C185.943 339.83 198.383 333.951 199.761 330.845C201.14 327.739 214.913 278.285 214.913 278.285" stroke="#263238" stroke-linecap="round" stroke-linejoin="round"/>
<path d="M193.805 320.118C193.805 320.118 227.351 305.254 232.881 299.724C238.411 294.194 237.032 289.345 238.76 286.921C240.384 285.053 241.902 283.096 243.305 281.057C244.699 278.633 246.078 278.981 246.078 281.39C246.078 283.8 243.941 285.542 243.941 286.587V287.618C243.941 287.618 252.578 284.163 254.654 283.466C256.729 282.769 259.85 278.921 260.199 281.39C260.547 283.86 256.381 285.542 256.047 288.663C255.714 291.784 256.047 295.572 253.972 297.997C251.896 300.421 244.638 303.875 241.169 304.906C237.699 305.936 216.926 319.087 207.638 326.345C198.351 333.602 189.654 339.481 185.851 337.754C182.048 336.027 186.896 324.269 186.896 324.269" fill="#DFADAD"/>
<path d="M193.805 320.118C193.805 320.118 227.351 305.254 232.881 299.724C238.411 294.194 237.032 289.345 238.76 286.921C240.384 285.053 241.902 283.096 243.305 281.057C244.699 278.633 246.078 278.981 246.078 281.39C246.078 283.8 243.941 285.542 243.941 286.587V287.618C243.941 287.618 252.578 284.163 254.654 283.466C256.729 282.769 259.85 278.921 260.199 281.39C260.547 283.86 256.381 285.542 256.047 288.663C255.714 291.784 256.047 295.572 253.972 297.997C251.896 300.421 244.638 303.875 241.169 304.906C237.699 305.936 216.926 319.087 207.638 326.345C198.351 333.602 189.654 339.481 185.851 337.754C182.048 336.027 186.896 324.269 186.896 324.269" stroke="#263238" stroke-linecap="round" stroke-linejoin="round"/>
<path d="M294.258 321.465C294.258 321.465 296.183 316.677 295.773 314.753C295.364 312.829 292.016 313.874 291.228 316.268C290.44 318.662 290.713 319.586 291.47 319.586C292.228 319.586 294.258 321.465 294.258 321.465Z" fill="#DFADAD" stroke="#263238" stroke-linecap="round" stroke-linejoin="round"/>
<path d="M274.715 320.891C275.843 322.128 277.058 323.282 278.351 324.346C280.654 326.27 285.639 326.846 285.639 326.846C285.639 326.846 280.457 322.3 279.503 321.285C278.548 320.27 274.715 320.891 274.715 320.891Z" fill="white" stroke="#263238" stroke-linecap="round" stroke-linejoin="round"/>
<path d="M293.944 320.815C293.944 320.815 292.429 325.497 290.914 326.876C289.399 328.255 284.399 326.679 281.338 324.573C278.277 322.467 276.792 320.346 278.459 320.346C280.126 320.346 293.944 320.815 293.944 320.815Z" fill="#DFADAD" stroke="#263238" stroke-linecap="round" stroke-linejoin="round"/>
<path d="M281.605 321.088C284.155 323.581 286.988 325.767 290.045 327.603" stroke="#263238" stroke-linecap="round" stroke-linejoin="round"/>
<path d="M287.484 319.77C287.484 319.77 289.469 324.724 291.772 325.83" stroke="#263238" stroke-linecap="round" stroke-linejoin="round"/>
<path d="M277.274 315.951C273.047 315.951 270.395 314.648 269.562 307.906C269.355 306.97 269.384 305.998 269.649 305.077C269.914 304.156 270.405 303.316 271.077 302.633C273.592 300.315 277.865 301.118 278.35 301.224C278.75 301.335 279.093 301.594 279.309 301.949C279.525 302.304 279.599 302.728 279.514 303.134C279.429 303.541 279.193 303.9 278.853 304.139C278.513 304.378 278.095 304.479 277.683 304.421C276.88 304.254 274.365 304.012 273.274 305.027C273.077 305.209 272.486 305.754 272.713 307.496C273.38 312.86 274.365 312.966 279.532 312.587C279.754 312.557 279.979 312.572 280.195 312.633C280.411 312.693 280.612 312.797 280.786 312.939C280.96 313.08 281.103 313.256 281.206 313.454C281.309 313.653 281.371 313.871 281.386 314.095C281.402 314.318 281.371 314.543 281.297 314.754C281.222 314.965 281.105 315.159 280.952 315.323C280.8 315.487 280.615 315.618 280.41 315.708C280.204 315.798 279.983 315.844 279.759 315.845C278.91 315.906 278.062 315.951 277.274 315.951Z" fill="white" stroke="#263238" stroke-linecap="round" stroke-linejoin="round"/>
<path d="M289.261 319.679H282.473C281.408 319.679 280.382 319.278 279.599 318.557C278.816 317.836 278.333 316.846 278.246 315.785L276.73 298.406H294.912L293.397 315.785C293.308 316.829 292.837 317.804 292.073 318.523C291.31 319.241 290.309 319.653 289.261 319.679Z" fill="white" stroke="#263238" stroke-linecap="round" stroke-linejoin="round"/>
<path d="M296.426 320.815H274.547L271.805 318.527H299.153L296.426 320.815Z" fill="white" stroke="#263238" stroke-linecap="round" stroke-linejoin="round"/>
</svg>
