<svg width="600" height="600" viewBox="0 0 600 600" fill="none" xmlns="http://www.w3.org/2000/svg">
<path d="M468.49 122.22C468.49 122.22 423.478 80.112 358.09 92.772C292.702 105.432 260.722 156.636 220.534 190.548C199.498 208.308 170.554 213.348 146.362 226.464C69.0103 268.368 69.0703 374.82 121.03 418.632C166.006 456.564 226.198 464.436 307.582 444.516C388.966 424.596 446.902 413.316 503.182 343.788C559.462 274.26 523.462 178.956 468.49 122.22Z" fill="#5A3A97"/>
<path d="M468.49 122.22C468.49 122.22 423.478 80.112 358.09 92.772C292.702 105.432 260.722 156.636 220.534 190.548C199.498 208.308 170.554 213.348 146.362 226.464C69.0103 268.368 69.0703 374.82 121.03 418.632C166.006 456.564 226.198 464.436 307.582 444.516C388.966 424.596 446.902 413.316 503.182 343.788C559.462 274.26 523.462 178.956 468.49 122.22Z" fill="#FAB748"/>
<path d="M491.544 228.949C485.364 225.577 482.544 228.397 480.3 225.577C478.056 222.757 486.48 215.461 469.608 208.141C469.608 208.141 468.492 192.397 445.428 191.833C422.364 191.269 428.556 207.601 422.4 211.525C416.244 215.449 414.516 209.269 408.336 213.205C402.156 217.141 404.964 225.013 399.936 226.141C394.908 227.269 388.128 221.077 381.936 225.013C375.744 228.949 375.756 232.333 372.936 232.333C370.116 232.333 364.536 230.077 361.128 232.333C357.72 234.589 353.82 237.385 353.82 237.385H496.044C496.044 237.385 497.736 232.333 491.544 228.949Z" fill="#5A3A97"/>
<path d="M491.544 228.949C485.364 225.577 482.544 228.397 480.3 225.577C478.056 222.757 486.48 215.461 469.608 208.141C469.608 208.141 468.492 192.397 445.428 191.833C422.364 191.269 428.556 207.601 422.4 211.525C416.244 215.449 414.516 209.269 408.336 213.205C402.156 217.141 404.964 225.013 399.936 226.141C394.908 227.269 388.128 221.077 381.936 225.013C375.744 228.949 375.756 232.333 372.936 232.333C370.116 232.333 364.536 230.077 361.128 232.333C357.72 234.589 353.82 237.385 353.82 237.385H496.044C496.044 237.385 497.736 232.333 491.544 228.949Z" fill="white"/>
<path d="M398.869 398.161C388.873 392.701 384.325 397.249 380.701 392.701C377.077 388.153 390.685 376.345 363.433 364.537C363.433 364.537 361.609 339.097 324.361 338.137C287.113 337.177 297.097 363.577 287.101 369.937C277.105 376.297 274.381 366.337 264.397 372.673C254.413 379.009 258.937 391.801 250.801 393.601C242.665 395.401 231.721 385.429 221.725 391.789C211.729 398.149 211.729 403.597 207.181 403.597C202.633 403.597 193.549 399.997 188.101 403.597C182.653 407.197 176.293 411.781 176.293 411.781H406.141C406.141 411.781 408.865 403.609 398.869 398.161Z" fill="#5A3A97"/>
<path d="M398.869 398.161C388.873 392.701 384.325 397.249 380.701 392.701C377.077 388.153 390.685 376.345 363.433 364.537C363.433 364.537 361.609 339.097 324.361 338.137C287.113 337.177 297.097 363.577 287.101 369.937C277.105 376.297 274.381 366.337 264.397 372.673C254.413 379.009 258.937 391.801 250.801 393.601C242.665 395.401 231.721 385.429 221.725 391.789C211.729 398.149 211.729 403.597 207.181 403.597C202.633 403.597 193.549 399.997 188.101 403.597C182.653 407.197 176.293 411.781 176.293 411.781H406.141C406.141 411.781 408.865 403.609 398.869 398.161Z" fill="white"/>
<path d="M177.348 292.381C173.928 290.509 172.368 292.069 171.12 290.509C169.872 288.949 174.54 284.905 165.204 280.909C165.204 280.909 164.58 272.185 151.812 271.873C139.044 271.561 142.476 280.597 139.056 282.769C135.636 284.941 134.688 281.569 131.268 283.705C127.848 285.841 129.396 290.245 126.6 290.905C123.804 291.565 120.06 288.109 116.64 290.281C113.22 292.453 113.208 294.241 111.6 294.241C109.992 294.241 106.932 293.041 105.072 294.241C103.212 295.441 101.016 297.049 101.016 297.049H179.796C179.796 297.049 180.768 294.241 177.348 292.381Z" fill="#5A3A97"/>
<path d="M177.348 292.381C173.928 290.509 172.368 292.069 171.12 290.509C169.872 288.949 174.54 284.905 165.204 280.909C165.204 280.909 164.58 272.185 151.812 271.873C139.044 271.561 142.476 280.597 139.056 282.769C135.636 284.941 134.688 281.569 131.268 283.705C127.848 285.841 129.396 290.245 126.6 290.905C123.804 291.565 120.06 288.109 116.64 290.281C113.22 292.453 113.208 294.241 111.6 294.241C109.992 294.241 106.932 293.041 105.072 294.241C103.212 295.441 101.016 297.049 101.016 297.049H179.796C179.796 297.049 180.768 294.241 177.348 292.381Z" fill="white"/>
<path d="M195.731 475.429C195.731 475.429 204.611 457.093 198.131 444.925C191.651 432.757 183.527 444.109 172.175 429.505C160.823 414.901 160.823 398.689 151.079 397.105C141.335 395.521 135.671 399.505 128.375 397.105C121.079 394.705 129.995 373.585 114.575 368.713C99.1549 363.841 89.3749 376.021 78.8869 364.657C68.3989 353.293 52.9309 348.433 52.1149 354.121C51.2989 359.809 64.2829 358.981 69.1549 367.093C74.0269 375.205 88.6189 389.809 88.6189 405.217C88.6189 420.625 102.407 413.329 112.151 417.385C121.895 421.441 121.067 430.369 121.883 442.585C122.699 454.801 143.783 442.585 147.083 448.261C150.383 453.937 143.027 455.569 145.463 468.541C147.899 481.513 171.743 482.149 171.743 482.149" fill="#462683"/>
<path d="M195.731 475.429C195.731 475.429 204.611 457.093 198.131 444.925C191.651 432.757 183.527 444.109 172.175 429.505C160.823 414.901 160.823 398.689 151.079 397.105C141.335 395.521 135.671 399.505 128.375 397.105C121.079 394.705 129.995 373.585 114.575 368.713C99.1549 363.841 89.3749 376.021 78.8869 364.657C68.3989 353.293 52.9309 348.433 52.1149 354.121C51.2989 359.809 64.2829 358.981 69.1549 367.093C74.0269 375.205 88.6189 389.809 88.6189 405.217C88.6189 420.625 102.407 413.329 112.151 417.385C121.895 421.441 121.067 430.369 121.883 442.585C122.699 454.801 143.783 442.585 147.083 448.261C150.383 453.937 143.027 455.569 145.463 468.541C147.899 481.513 171.743 482.149 171.743 482.149" stroke="white" stroke-linecap="round" stroke-linejoin="round"/>
<path d="M180.275 478.176C180.275 478.176 163.199 438.432 138.095 413.28C112.991 388.128 95.9152 386.508 85.3672 377.592" stroke="white" stroke-linecap="round" stroke-linejoin="round"/>
<path d="M99.9961 402.78L119.532 398.496L111.432 379.92" stroke="white" stroke-linecap="round" stroke-linejoin="round"/>
<path d="M134.305 430.417L151.369 429.313L150.025 414.697" stroke="white" stroke-linecap="round" stroke-linejoin="round"/>
<path d="M160.5 463.296L174.324 465.672L176.7 445.668" stroke="white" stroke-linecap="round" stroke-linejoin="round"/>
<path d="M128.399 348.54C128.399 348.54 121.823 349.416 114.791 332.736C109.007 318.996 116.903 307.944 119.879 304.452C119.995 304.318 120.141 304.213 120.306 304.147C120.471 304.081 120.649 304.056 120.826 304.074C121.003 304.092 121.172 304.151 121.321 304.249C121.469 304.346 121.592 304.478 121.679 304.632C123.971 308.748 130.751 321.492 131.483 328.776C132.359 337.56 128.399 348.54 128.399 348.54Z" fill="#5A3A97"/>
<path d="M194.722 406.069C194.722 406.069 190.762 402.565 189.922 395.101C189.082 387.637 195.19 373.141 198.706 375.337C202.222 377.533 203.506 393.781 202.222 399.481C200.938 405.181 194.722 406.069 194.722 406.069Z" fill="#5A3A97"/>
<path d="M215.808 431.544C215.808 431.544 211.848 428.028 211.008 420.564C210.168 413.1 216.276 398.604 219.792 400.8C223.308 402.996 224.592 419.244 223.308 424.956C222.024 430.668 215.808 431.544 215.808 431.544Z" fill="#5A3A97"/>
<path d="M226.884 448.86C226.884 448.86 225.168 443.856 228.084 436.92C231 429.984 243.468 420.396 245.448 424.032C247.428 427.668 240.648 442.464 236.64 446.832C232.632 451.2 226.884 448.86 226.884 448.86Z" fill="#5A3A97"/>
<path d="M198 423.6C198 423.6 194.268 427.344 186.768 427.812C179.268 428.28 165.168 421.32 167.568 417.936C169.968 414.552 186.252 414.144 191.88 415.776C197.508 417.408 198 423.6 198 423.6Z" fill="#5A3A97"/>
<path d="M215.805 450.877C215.805 450.877 212.073 454.621 204.573 455.077C197.073 455.533 182.973 448.597 185.373 445.213C187.773 441.829 204.057 441.421 209.685 443.053C215.313 444.685 215.805 450.877 215.805 450.877Z" fill="#5A3A97"/>
<path d="M167.928 376.644C167.928 376.644 163.536 376.644 160.908 366.108C158.28 355.572 163.536 344.148 166.176 346.344C168.816 348.54 174.084 362.16 173.208 368.748C172.332 375.336 167.928 376.644 167.928 376.644Z" fill="#5A3A97"/>
<path d="M142.018 374.017C141.558 371.833 140.551 369.801 139.093 368.112C137.634 366.423 135.771 365.131 133.678 364.357C126.202 361.273 112.594 365.233 112.594 366.985C112.594 368.737 118.306 374.017 128.398 376.213C138.49 378.409 142.018 374.017 142.018 374.017Z" fill="#5A3A97"/>
<path d="M173.638 401.677C173.638 401.677 173.206 398.173 164.422 393.277C155.638 388.381 145.906 391.249 146.422 393.145C146.938 395.041 155.686 399.421 163.15 402.505C170.614 405.589 173.638 401.677 173.638 401.677Z" fill="#5A3A97"/>
<path d="M140.701 357.325C140.701 357.325 136.753 353.809 135.901 346.345C135.049 338.881 141.169 324.385 144.685 326.581C148.201 328.777 149.485 345.025 148.189 350.737C146.893 356.449 140.701 357.325 140.701 357.325Z" fill="#5A3A97"/>
<path d="M225.516 468.973C225.516 468.973 230.004 457.753 207.516 427.849C185.028 397.945 129 368.029 122.316 332.137" stroke="white" stroke-linecap="round" stroke-linejoin="round"/>
<path d="M152.124 375.769L126.648 370.057" stroke="white" stroke-linecap="round" stroke-linejoin="round"/>
<path d="M169.246 391.585L165.73 363.037" stroke="white" stroke-linecap="round" stroke-linejoin="round"/>
<path d="M186.815 406.513L160.031 397.297" stroke="white" stroke-linecap="round" stroke-linejoin="round"/>
<path d="M140.266 363.912L141.574 342.828" stroke="white" stroke-linecap="round" stroke-linejoin="round"/>
<path d="M194.277 412.656L195.597 391.584" stroke="white" stroke-linecap="round" stroke-linejoin="round"/>
<path d="M215.363 438.133L216.683 417.049" stroke="white" stroke-linecap="round" stroke-linejoin="round"/>
<path d="M223.27 454.38L234.778 436.668" stroke="white" stroke-linecap="round" stroke-linejoin="round"/>
<path d="M204.574 424.441L183.598 421.945" stroke="white" stroke-linecap="round" stroke-linejoin="round"/>
<path d="M222.359 451.68L201.383 449.184" stroke="white" stroke-linecap="round" stroke-linejoin="round"/>
<path d="M456.131 477.804C456.131 477.804 469.403 467.436 469.031 456.036C468.659 444.636 458.483 450.108 455.387 435.132C452.291 420.156 458.207 408.12 451.571 403.356C444.935 398.592 439.247 399.54 434.771 395.076C430.295 390.612 444.551 378.216 434.891 368.976C425.231 359.736 413.567 365.22 409.883 352.944C406.199 340.668 396.539 331.44 393.863 335.364C391.187 339.288 401.123 343.404 401.771 351.204C402.419 359.004 407.939 375.204 402.311 386.592C396.683 397.98 409.583 397.644 415.331 404.208C421.079 410.772 417.215 417.096 413.375 426.42C409.535 435.744 429.599 434.4 429.923 439.8C430.247 445.2 424.247 443.736 421.319 454.26C418.391 464.784 435.851 474 435.851 474" fill="#462683"/>
<path d="M456.131 477.804C456.131 477.804 469.403 467.436 469.031 456.036C468.659 444.636 458.483 450.108 455.387 435.132C452.291 420.156 458.207 408.12 451.571 403.356C444.935 398.592 439.247 399.54 434.771 395.076C430.295 390.612 444.551 378.216 434.891 368.976C425.231 359.736 413.567 365.22 409.883 352.944C406.199 340.668 396.539 331.44 393.863 335.364C391.187 339.288 401.123 343.404 401.771 351.204C402.419 359.004 407.939 375.204 402.311 386.592C396.683 397.98 409.583 397.644 415.331 404.208C421.079 410.772 417.215 417.096 413.375 426.42C409.535 435.744 429.599 434.4 429.923 439.8C430.247 445.2 424.247 443.736 421.319 454.26C418.391 464.784 435.851 474 435.851 474" stroke="white" stroke-linecap="round" stroke-linejoin="round"/>
<path d="M443.65 474.205C443.65 474.205 445.51 438.505 436.018 410.665C426.526 382.825 414.49 375.421 409.918 364.945" stroke="white" stroke-linecap="round" stroke-linejoin="round"/>
<path d="M411.586 388.98L427.642 392.916L428.41 376.176" stroke="white" stroke-linecap="round" stroke-linejoin="round"/>
<path d="M426.957 421.992L440.025 427.404L444.357 416.064" stroke="white" stroke-linecap="round" stroke-linejoin="round"/>
<path d="M434.41 455.953L443.794 462.757L452.854 448.777" stroke="white" stroke-linecap="round" stroke-linejoin="round"/>
<path d="M473.565 365.929C469.377 361.009 470.301 355.069 472.149 348.001C473.661 342.169 480.801 333.073 488.517 332.065C489.813 331.897 489.837 332.065 489.717 333.037C489.261 339.205 487.773 348.469 485.061 353.545C481.833 359.653 478.269 361.657 473.565 365.929Z" fill="#5A3A97"/>
<path d="M493.533 431.497C492.561 428.221 493.605 424.789 494.733 421.789C495.861 418.789 505.785 407.077 508.833 411.517C511.881 415.957 504.309 426.517 501.633 429.577C498.957 432.637 496.605 432.001 493.533 431.497Z" fill="#5A3A97"/>
<path d="M497.64 458.401C496.764 455.077 497.844 451.513 499.02 448.501C500.196 445.489 510.12 434.101 513.108 438.589C516.096 443.077 508.512 453.637 505.836 456.673C503.16 459.709 500.7 459.037 497.64 458.401Z" fill="#5A3A97"/>
<path d="M497.625 475.525C498.561 472.177 501.321 469.669 503.865 467.641C506.409 465.613 520.665 460.873 521.013 466.249C521.361 471.625 509.481 476.857 505.629 478.129C501.777 479.401 499.989 477.601 497.625 475.525Z" fill="#5A3A97"/>
<path d="M488.543 445.201C485.159 446.005 481.763 444.745 478.775 443.485C475.787 442.225 465.071 431.797 469.595 429.085C474.119 426.373 484.199 434.401 487.199 437.053C490.199 439.705 489.227 442.261 488.543 445.201Z" fill="#5A3A97"/>
<path d="M489.06 471.996C485.676 472.668 482.28 471.348 479.364 469.944C476.448 468.54 465.96 457.752 470.616 455.124C475.272 452.496 485.148 460.836 487.956 463.716C490.764 466.596 489.888 468.996 489.06 471.996Z" fill="#5A3A97"/>
<path d="M487.093 401.436C484.117 400.368 486.469 393.612 487.033 391.404C487.597 389.196 496.573 375.9 499.225 380.604C501.877 385.308 496.681 395.412 494.425 398.4C492.169 401.388 490.069 402.504 487.093 401.436Z" fill="#5A3A97"/>
<path d="M470.721 389.293C472.365 385.933 471.501 382.093 469.593 378.985C467.685 375.877 457.857 368.185 454.665 371.209C451.473 374.233 458.421 382.009 460.569 384.409C462.717 386.809 467.025 390.337 470.721 389.293Z" fill="#5A3A97"/>
<path d="M480.145 420.349C481.405 417.433 478.261 413.341 477.241 411.073C476.221 408.805 467.257 399.961 465.241 403.489C463.225 407.017 470.497 413.965 472.261 416.617C474.025 419.269 477.169 421.081 480.145 420.349Z" fill="#5A3A97"/>
<path d="M477.79 377.568C477.094 374.196 478.366 370.776 479.746 367.836C481.126 364.896 491.746 354.348 494.506 358.98C497.266 363.612 488.926 373.512 486.106 376.344C483.286 379.176 480.802 378.336 477.79 377.568Z" fill="#5A3A97"/>
<path d="M487.546 489.96C494.938 473.16 495.862 472.884 492.946 449.4C490.03 425.916 463.87 381.096 477.466 352.908" stroke="white" stroke-linecap="round" stroke-linejoin="round"/>
<path d="M476.687 394.68C471.671 389.796 466.943 384.66 462.227 379.5" stroke="white" stroke-linecap="round" stroke-linejoin="round"/>
<path d="M481.379 411.865C484.751 405.037 488.339 398.329 491.771 391.537" stroke="white" stroke-linecap="round" stroke-linejoin="round"/>
<path d="M487.702 428.569C482.722 422.905 477.382 417.577 472.414 411.889" stroke="white" stroke-linecap="round" stroke-linejoin="round"/>
<path d="M474.371 381.78L485.255 368.16" stroke="white" stroke-linecap="round" stroke-linejoin="round"/>
<path d="M490.461 435.912C493.725 431.112 497.025 426.372 500.265 421.572" stroke="white" stroke-linecap="round" stroke-linejoin="round"/>
<path d="M494.398 462.877C497.842 458.077 501.166 453.277 504.49 448.477" stroke="white" stroke-linecap="round" stroke-linejoin="round"/>
<path d="M492.637 477.769C497.981 475.369 503.313 472.909 508.633 470.389" stroke="white" stroke-linecap="round" stroke-linejoin="round"/>
<path d="M492.813 448.548C488.245 445.004 483.625 441.516 478.953 438.084" stroke="white" stroke-linecap="round" stroke-linejoin="round"/>
<path d="M493.199 475.465C488.727 471.769 484.231 468.101 479.711 464.461" stroke="white" stroke-linecap="round" stroke-linejoin="round"/>
<path d="M113.484 505.429C113.484 505.429 306.552 401.593 525.588 505.429" stroke="#263238" stroke-linecap="round" stroke-linejoin="round"/>
<path d="M387.372 469.5C387.372 474.24 360.348 478.092 327.012 478.092C293.676 478.092 266.664 474.24 266.664 469.5C266.664 464.76 293.688 460.908 327.012 460.908C360.336 460.908 387.372 464.76 387.372 469.5Z" fill="#5A3A97"/>
<path opacity="0.5" d="M387.372 469.5C387.372 474.24 360.348 478.092 327.012 478.092C293.676 478.092 266.664 474.24 266.664 469.5C266.664 464.76 293.688 460.908 327.012 460.908C360.336 460.908 387.372 464.76 387.372 469.5Z" fill="white"/>
<path d="M339.361 199.512C345.685 198.168 350.305 196.128 349.681 190.332C349.057 184.536 342.013 180.672 341.281 177.708C340.549 174.744 345.409 170.292 344.353 164.628C343.297 158.964 337.657 152.628 331.993 153.636C331.993 153.636 331.057 155.508 330.133 151.488C329.209 147.468 326.185 142.488 320.617 144.42C314.773 146.448 314.773 149.844 313.057 150.42C308.305 152.434 303.663 154.698 299.149 157.2C294.649 159.684 293.917 167.472 293.245 170.196C292.573 172.92 290.425 173.568 287.245 173.028C284.065 172.488 280.741 171.9 280.045 175.02C279.349 178.14 278.989 181.14 276.781 180.96C274.573 180.78 272.101 177.504 270.397 180.264C268.693 183.024 265.357 188.328 261.781 186.696C258.205 185.064 254.065 178.452 248.317 181.116C242.569 183.78 241.477 191.316 243.709 192.504C245.941 193.692 247.045 195.528 246.505 197.46C245.965 199.392 239.173 197.616 237.037 201.72C234.901 205.824 239.953 209.532 239.977 211.764C240.001 213.996 238.777 216.036 234.769 217.164C230.761 218.292 227.941 221.472 230.617 223.56C233.293 225.648 232.933 223.14 233.593 221.64C234.253 220.14 236.341 219.876 238.765 221.1C241.189 222.324 242.653 219.744 242.653 219.744C242.653 219.744 242.305 222.936 245.053 223.812C247.801 224.688 248.245 227.616 245.053 228.48C241.861 229.344 239.653 233.844 242.041 236.496C244.429 239.148 248.209 240.804 254.593 239.064C260.977 237.324 274.741 227.064 283.597 232.296C292.453 237.528 308.305 237.384 316.093 234.696C323.881 232.008 325.897 223.788 332.029 222.42C338.161 221.052 336.529 217.512 335.497 214.02C334.465 210.528 333.037 200.856 339.361 199.512ZM343.813 193.776C344.698 192.855 345.258 191.671 345.409 190.404C345.727 190.587 346.005 190.832 346.227 191.125C346.448 191.418 346.609 191.752 346.698 192.108C346.788 192.464 346.805 192.835 346.748 193.197C346.692 193.56 346.563 193.908 346.369 194.22C345.109 196.848 341.821 195.876 341.821 195.876L343.813 193.776ZM253.321 188.496C251.941 188.256 249.049 193.296 248.293 191.688C247.537 190.08 249.265 183.732 252.361 183.456C255.457 183.18 258.709 189.024 258.709 189.024C258.301 191.388 254.701 188.736 253.321 188.496ZM319.993 150.336C319.467 150.188 318.915 150.155 318.375 150.238C317.835 150.32 317.319 150.518 316.861 150.816C316.889 150.296 317.025 149.788 317.26 149.323C317.494 148.858 317.823 148.447 318.224 148.116C318.625 147.784 319.091 147.54 319.592 147.397C320.092 147.255 320.617 147.217 321.133 147.288C323.689 147.732 324.265 151.488 324.265 151.488C322.874 150.989 321.446 150.604 319.993 150.336Z" fill="#263238"/>
<path d="M184.453 319.86L202.333 311.244C202.877 313.611 202.902 316.067 202.405 318.444C201.637 322.92 200.413 327.828 196.405 327.744C192.397 327.66 184.453 319.86 184.453 319.86Z" fill="#263238" stroke="#263238" stroke-linecap="round" stroke-linejoin="round"/>
<path d="M245.016 351.143C245.016 351.143 251.628 335.159 253.02 332.723C254.412 330.287 264.528 329.603 262.788 337.871C261.048 346.139 255.348 350.495 251.736 351.071C249.512 351.437 247.246 351.462 245.016 351.143Z" fill="#263238" stroke="#263238" stroke-linecap="round" stroke-linejoin="round"/>
<path d="M161.063 252.552C158.84 254.612 156.999 257.05 155.627 259.752C153.971 263.532 152.027 268.152 152.027 268.152C152.027 268.152 171.455 251.064 182.027 250.38C192.599 249.696 195.227 249.768 195.227 249.768C195.227 249.768 182.123 243.66 175.127 245.532C170.332 246.999 165.814 249.254 161.759 252.204L161.063 252.552Z" fill="#263238" stroke="#263238" stroke-linecap="round" stroke-linejoin="round"/>
<path d="M300.094 224.267C300.094 224.267 274.75 230.543 249.442 235.607C224.134 240.671 199.847 234.971 185.759 238.667C171.671 242.363 161.062 252.551 161.062 252.551C161.062 252.551 174.442 244.439 182.662 251.351C190.882 258.263 190.018 262.703 184.246 270.983C178.474 279.263 173.447 291.563 182.123 296.183C190.799 300.803 199.282 316.943 199.21 320.543C199.138 324.143 197.938 324.143 197.938 324.143L184.414 319.859C184.414 319.859 192.071 336.827 209.219 339.191C226.367 341.555 234.91 334.931 245.698 335.591C256.486 336.251 255.886 345.803 255.886 345.803C255.886 345.803 245.422 348.791 244.978 351.179C244.534 353.567 247.678 355.631 260.158 352.295C272.638 348.959 278.842 339.095 284.71 345.215C290.578 351.335 294.058 357.011 300.466 357.143C306.874 357.275 311.014 349.763 319.018 331.127C327.022 312.491 355.93 287.927 357.178 266.723C358.426 245.519 346.582 218.879 346.582 218.879L300.094 224.267Z" fill="#5A3A97" stroke="#263238" stroke-linecap="round" stroke-linejoin="round"/>
<path d="M291.9 233.305C291.9 233.305 273 237.709 258 246.997C243 256.285 214.14 258.877 206.064 262.309C201.944 263.938 198.01 266.001 194.328 268.465" stroke="#263238" stroke-linecap="round" stroke-linejoin="round"/>
<path d="M198 324.144C204.115 318.09 209.133 311.021 212.832 303.252C219.859 288.503 231.144 276.198 245.232 267.924C260.628 259.044 268.236 258.804 282.432 249.504" stroke="#263238" stroke-linecap="round" stroke-linejoin="round"/>
<path d="M255.922 345.768C255.922 345.768 266.722 309.984 275.338 297.768" stroke="#263238" stroke-linecap="round" stroke-linejoin="round"/>
<path d="M286.188 428.82C284.809 436.081 282.23 443.06 278.556 449.472C272.316 460.536 270.648 463.704 269.028 464.868C267.408 466.032 264.156 467.976 267.348 468.84C270.54 469.704 279.348 469.884 282.552 468.756C285.756 467.628 285.42 465.216 286.716 460.848C286.973 459.667 287.576 458.589 288.448 457.752C289.32 456.914 290.421 456.355 291.612 456.144L291.336 469.344H293.736L294.768 458.16C294.768 458.16 296.46 453.804 296.124 450.96C295.788 448.116 292.632 445.68 292.632 445.68L296.58 429.36L286.188 428.82Z" fill="#DFADAD" stroke="#263238" stroke-linecap="round" stroke-linejoin="round"/>
<path d="M293.736 469.392L294.768 458.208C294.768 458.208 296.46 453.852 296.124 451.008C295.86 448.824 293.916 446.856 293.052 446.088C290.448 449.328 287.268 457.824 282.696 461.52C281.062 462.77 279.156 463.617 277.134 463.992C275.111 464.368 273.029 464.26 271.056 463.68L270.396 463.392C270.014 463.937 269.553 464.423 269.028 464.832C267.408 466.032 264.156 467.94 267.348 468.804C270.54 469.668 279.348 469.848 282.552 468.72C285.756 467.592 285.42 465.18 286.716 460.812C286.973 459.631 287.576 458.553 288.448 457.715C289.32 456.878 290.421 456.318 291.612 456.108L291.336 469.308L293.736 469.392Z" fill="#263238" stroke="#263238" stroke-linecap="round" stroke-linejoin="round"/>
<path d="M375.661 430.703C376.732 438.016 379.019 445.098 382.429 451.655C388.189 462.971 389.725 466.211 391.297 467.447C392.869 468.683 396.025 470.747 392.809 471.479C389.593 472.211 380.809 472.019 377.629 470.759C374.449 469.499 374.905 467.099 373.789 462.671C373.579 461.482 373.022 460.382 372.186 459.51C371.351 458.639 370.276 458.035 369.097 457.775L368.821 470.975L366.421 470.915L365.857 459.707C365.857 459.707 364.345 455.279 364.801 452.507C365.257 449.735 368.509 447.383 368.509 447.383L365.257 430.907L375.661 430.703Z" fill="#DFADAD" stroke="#263238" stroke-linecap="round" stroke-linejoin="round"/>
<path d="M366.421 470.915L365.857 459.707C365.857 459.707 364.345 455.279 364.801 452.507C365.161 450.347 367.201 448.463 368.089 447.707C370.549 451.067 373.369 459.707 377.773 463.571C379.353 464.888 381.223 465.814 383.229 466.272C385.235 466.731 387.32 466.71 389.317 466.211L389.989 465.959C390.346 466.522 390.787 467.028 391.297 467.459C392.869 468.659 396.025 470.759 392.809 471.491C389.593 472.223 380.809 472.031 377.629 470.771C374.449 469.511 374.905 467.111 373.789 462.683C373.579 461.494 373.022 460.394 372.186 459.522C371.351 458.651 370.276 458.047 369.097 457.787L368.821 470.987L366.421 470.915Z" fill="#263238" stroke="#263238" stroke-linecap="round" stroke-linejoin="round"/>
<path d="M311.566 276.072C311.566 276.072 294.994 314.184 292.69 328.944C290.386 343.704 282.922 432 282.922 432L298.906 432.744L322.654 331.2L327.046 312.48L364.03 436.884L377.662 435.972C377.662 435.972 363.262 342.048 357.706 319.572C353.845 304.558 348.925 289.837 342.982 275.52L311.566 276.072Z" fill="#263238" stroke="#263238" stroke-linecap="round" stroke-linejoin="round"/>
<path d="M318.673 194.064C318.673 194.064 318.733 211.704 318.673 213.852C318.613 216 298.801 221.82 298.801 221.82L311.629 276.072C311.629 276.072 328.429 277.5 343.045 275.448L352.645 217.584L334.645 213.984L335.365 199.812C335.365 199.812 324.001 199.56 318.673 194.064Z" fill="#DFADAD" stroke="#263238" stroke-linecap="round" stroke-linejoin="round"/>
<path d="M340.799 215.221C339.491 220.129 335.219 232.453 325.391 231.205C316.895 230.125 311.711 221.749 309.887 218.221C304.535 220.129 298.715 221.821 298.715 221.821L311.543 276.073C311.543 276.073 328.343 277.501 342.959 275.449L352.559 217.585L340.799 215.221Z" fill="white" stroke="#263238" stroke-linecap="round" stroke-linejoin="round"/>
<path d="M313.486 215.473C313.486 215.473 318.286 241.597 319.486 256.273C320.686 270.949 320.686 281.029 320.422 282.961C320.158 284.893 307.042 336.229 307.042 336.229L284.242 326.281L307.246 275.365C307.246 275.365 294.046 225.841 294.13 224.113C294.214 222.385 313.486 215.473 313.486 215.473Z" fill="#50308D" stroke="#263238" stroke-linecap="round" stroke-linejoin="round"/>
<path d="M309.156 217.307L307.02 237.047L311.82 240.815L308.22 247.187L320.22 278.387C320.22 278.387 320.112 263.111 319.248 252.983C318.384 242.855 313.368 215.447 313.368 215.447L309.156 217.307Z" stroke="#263238" stroke-linecap="round" stroke-linejoin="round"/>
<path d="M337.391 214.248C337.391 214.248 334.079 279.996 334.055 280.632C334.031 281.268 352.055 336.072 352.055 336.072L369.815 330.42L346.283 273.372C346.283 273.372 357.515 219.828 357.323 218.76C357.131 217.692 337.391 214.248 337.391 214.248Z" fill="#50308D" stroke="#263238" stroke-linecap="round" stroke-linejoin="round"/>
<path d="M342.539 215.652L344.915 238.308L338.939 241.644L344.543 246.456L334.055 280.632L337.391 214.248L342.539 215.652Z" fill="#50308D" stroke="#263238" stroke-linecap="round" stroke-linejoin="round"/>
<path d="M337.416 170.124C337.371 169.896 337.311 169.672 337.236 169.452C336.816 168.156 335.568 165.552 332.436 167.052C328.392 168.972 326.1 173.328 323.088 173.868C321.83 174.131 320.555 174.303 319.272 174.384C319.272 174.384 314.652 184.5 312.408 186.252C310.844 187.381 309.056 188.163 307.164 188.544C307.164 188.544 307.812 195.564 309.792 196.608C310.434 196.892 311.136 197.012 311.835 196.958C312.535 196.903 313.21 196.676 313.8 196.296C313.8 196.296 319.464 203.22 323.232 205.092C327 206.964 331.188 207.492 333.408 206.292C335.628 205.092 342 197.892 342.084 193.86C342.168 189.828 340.38 179.808 340.056 175.86C340.047 174.771 339.807 173.697 339.352 172.708C338.897 171.72 338.237 170.839 337.416 170.124Z" fill="#DFADAD" stroke="#263238" stroke-linecap="round" stroke-linejoin="round"/>
<path d="M324.466 166.8C324.466 166.8 325.054 167.208 324.226 168.6C323.536 169.625 322.708 170.549 321.766 171.348C321.766 171.348 325.774 171.036 327.442 168.06C329.11 165.084 326.914 164.7 324.466 166.8Z" fill="white"/>
<path d="M325.546 180.971C325.726 182.003 325.39 182.927 324.79 183.035C324.19 183.143 323.59 182.387 323.386 181.355C323.182 180.323 323.542 179.399 324.142 179.291C324.742 179.183 325.366 179.999 325.546 180.971Z" fill="#263238"/>
<path d="M335.796 179.591C335.976 180.623 335.628 181.547 335.028 181.655C334.428 181.763 333.828 180.995 333.624 179.963C333.42 178.931 333.78 178.007 334.38 177.899C334.98 177.791 335.604 178.547 335.796 179.591Z" fill="#263238"/>
<path d="M321.035 177.792L326.867 176.508" stroke="#263238" stroke-linecap="round" stroke-linejoin="round"/>
<path d="M331.906 174.815C331.906 174.815 333.778 171.647 336.358 172.499" stroke="#263238" stroke-linecap="round" stroke-linejoin="round"/>
<path d="M331.74 192.228C331.74 192.228 325.104 193.488 323.34 189.648" stroke="#263238" stroke-linecap="round" stroke-linejoin="round"/>
<path d="M332.761 183.18C332.761 183.18 333.829 186.9 330.457 187.26" stroke="#263238" stroke-linecap="round" stroke-linejoin="round"/>
<path d="M360.862 284.641C360.862 284.641 350.806 292.177 350.77 294.109C350.734 296.041 352.606 298.909 353.23 299.533C353.854 300.157 355.762 301.933 355.762 301.933C355.762 301.933 360.946 300.733 360.778 298.597C360.61 296.461 359.998 296.401 359.998 296.401L364.234 289.201L360.862 284.641Z" fill="#DFADAD" stroke="#263238" stroke-linecap="round" stroke-linejoin="round"/>
<path d="M359.963 296.447L357.551 298.763" stroke="#263238" stroke-linecap="round" stroke-linejoin="round"/>
<path d="M351.766 236.281L376.414 261.097L359.362 283.969L364.822 290.316C364.822 290.316 392.086 262.069 392.134 259.705C392.182 257.341 361.762 221.221 359.854 219.889C357.946 218.557 353.662 217.812 353.662 217.812" fill="#50308D"/>
<path d="M351.766 236.281L376.414 261.097L359.362 283.969L364.822 290.317C364.822 290.317 392.086 262.069 392.134 259.705C392.182 257.341 361.762 221.221 359.854 219.889C357.946 218.557 353.662 217.812 353.662 217.812" stroke="#263238" stroke-linecap="round" stroke-linejoin="round"/>
<path d="M294.442 283.5C294.442 283.5 305.17 290.028 305.398 291.9C305.626 293.772 304.042 296.832 303.478 297.54C302.914 298.248 301.198 300.24 301.198 300.24C301.198 300.24 295.93 299.568 295.882 297.408C295.834 295.248 296.482 295.176 296.482 295.176L291.598 288.396L294.442 283.5Z" fill="#DFADAD" stroke="#263238" stroke-linecap="round" stroke-linejoin="round"/>
<path d="M296.473 295.176L299.101 297.24" stroke="#263238" stroke-linecap="round" stroke-linejoin="round"/>
<path d="M302.472 238.464L277.692 261.168L295.86 282.684L291.06 289.536C291.06 289.536 262.188 263.664 261.912 261.312C261.636 258.96 293.112 222.996 295.092 221.712C297.072 220.428 301.368 219.912 301.368 219.912" fill="#50308D"/>
<path d="M302.472 238.464L277.692 261.168L295.86 282.684L291.06 289.536C291.06 289.536 262.188 263.664 261.912 261.312C261.636 258.96 293.112 222.996 295.092 221.712C297.072 220.428 301.368 219.912 301.368 219.912" stroke="#263238" stroke-linecap="round" stroke-linejoin="round"/>
<path d="M315.322 226.656C315.322 226.656 318.826 217.872 318.334 215.088C317.842 212.304 313.115 213.036 310.319 214.092C307.523 215.148 303.562 219.216 303.562 219.216C303.562 219.216 311.051 218.808 312.167 218.28C313.283 217.752 315.07 225.6 315.322 226.656Z" fill="#5A3A97" stroke="#263238" stroke-linecap="round" stroke-linejoin="round"/>
<path d="M334.605 213.972L336.609 228.216C336.609 228.216 338.673 222.216 341.229 219.168C342.39 217.652 343.828 216.369 345.465 215.388C345.465 215.388 339.513 212.904 334.605 213.972Z" fill="#5A3A97" stroke="#263238" stroke-linecap="round" stroke-linejoin="round"/>
</svg>
