<svg width="600" height="600" viewBox="0 0 600 600" fill="none" xmlns="http://www.w3.org/2000/svg">
<g clip-path="url(#clip0_3406_27172)">
<path d="M509.791 82.9017C509.791 82.9017 438.328 18.9922 337.79 33.4128C237.251 47.8334 158.687 125.773 93.3572 187.233C28.0275 248.692 18.008 334.201 66.5293 394.802C115.051 455.403 177.93 420.834 266.451 453.967C354.973 487.1 373.513 509.371 465.874 488.91C558.234 468.45 617.946 355.551 595.129 244.712C572.312 133.873 509.791 82.9017 509.791 82.9017Z" fill="#462683"/>
<path d="M509.791 82.9017C509.791 82.9017 438.328 18.9922 337.79 33.4128C237.251 47.8334 158.687 125.773 93.3572 187.233C28.0275 248.692 18.008 334.201 66.5293 394.802C115.051 455.403 177.93 420.834 266.451 453.967C354.973 487.1 373.513 509.371 465.874 488.91C558.234 468.45 617.946 355.551 595.129 244.712C572.312 133.873 509.791 82.9017 509.791 82.9017Z" fill="#FAB748"/>
<path d="M522.311 287.595C515.226 283.741 511.995 286.956 509.42 283.741C506.845 280.526 516.521 272.129 497.169 263.748C497.169 263.748 495.889 245.707 469.451 245.02C443.013 244.334 450.114 263.077 443.029 267.588C435.943 272.098 434.008 265.013 426.907 269.523C419.806 274.033 423.037 283.054 417.247 284.349C411.457 285.645 403.7 278.544 396.615 283.054C389.529 287.564 389.513 291.435 386.299 291.435C383.084 291.435 376.622 288.86 372.768 291.435C368.913 294.01 364.387 297.24 364.387 297.24H527.477C527.477 297.24 529.412 291.466 522.311 287.595Z" fill="#462683"/>
<path d="M522.311 287.595C515.226 283.741 511.995 286.956 509.42 283.741C506.845 280.526 516.521 272.129 497.169 263.748C497.169 263.748 495.889 245.707 469.451 245.02C443.013 244.334 450.114 263.077 443.029 267.588C435.943 272.098 434.008 265.013 426.907 269.523C419.806 274.033 423.037 283.054 417.247 284.349C411.457 285.645 403.7 278.544 396.615 283.054C389.529 287.564 389.513 291.435 386.299 291.435C383.084 291.435 376.622 288.86 372.768 291.435C368.913 294.01 364.387 297.24 364.387 297.24H527.477C527.477 297.24 529.412 291.466 522.311 287.595Z" fill="white"/>
<path d="M480.359 62.1095C470.464 56.694 465.954 61.2044 462.349 56.694C458.743 52.1837 472.259 40.5255 445.228 28.7736C445.228 28.7736 443.433 3.55315 406.492 2.64796C369.551 1.74277 379.477 27.8684 369.567 34.1735C359.656 40.4786 356.941 30.5684 347.046 36.8735C337.151 43.1786 341.631 55.8044 333.531 57.5992C325.431 59.394 314.6 49.4837 304.768 55.8044C294.935 62.1252 294.857 67.5095 290.347 67.5095C285.837 67.5095 276.831 63.9043 271.432 67.5095C266.032 71.1146 259.711 75.6094 259.711 75.6094H487.569C487.569 75.6094 490.269 67.5095 480.359 62.1095Z" fill="#462683"/>
<path d="M480.359 62.1095C470.464 56.694 465.954 61.2044 462.349 56.694C458.743 52.1837 472.259 40.5255 445.228 28.7736C445.228 28.7736 443.433 3.55315 406.492 2.64796C369.551 1.74277 379.477 27.8684 369.567 34.1735C359.656 40.4786 356.941 30.5684 347.046 36.8735C337.151 43.1786 341.631 55.8044 333.531 57.5992C325.431 59.394 314.6 49.4837 304.768 55.8044C294.935 62.1252 294.857 67.5095 290.347 67.5095C285.837 67.5095 276.831 63.9043 271.432 67.5095C266.032 71.1146 259.711 75.6094 259.711 75.6094H487.569C487.569 75.6094 490.269 67.5095 480.359 62.1095Z" fill="white"/>
<path d="M220.053 177.271C212.968 173.401 209.737 176.632 207.162 173.401C204.587 170.17 214.248 161.805 194.911 153.424C194.911 153.424 193.615 135.367 167.193 134.696C140.771 134.025 147.857 152.753 140.756 157.264C133.654 161.774 131.735 154.688 124.649 159.199C117.564 163.709 120.779 172.73 114.973 174.025C109.168 175.321 101.442 168.22 94.3412 172.73C87.2401 177.24 87.2557 181.111 84.0251 181.111C80.7945 181.111 74.3646 178.536 70.4941 181.111C66.6236 183.686 62.1133 186.916 62.1133 186.916H225.172C225.172 186.916 227.139 181.142 220.053 177.271Z" fill="#462683"/>
<path d="M220.053 177.271C212.968 173.401 209.737 176.632 207.162 173.401C204.587 170.17 214.248 161.805 194.911 153.424C194.911 153.424 193.615 135.367 167.193 134.696C140.771 134.025 147.857 152.753 140.756 157.264C133.654 161.774 131.735 154.688 124.649 159.199C117.564 163.709 120.779 172.73 114.973 174.025C109.168 175.321 101.442 168.22 94.3412 172.73C87.2401 177.24 87.2557 181.111 84.0251 181.111C80.7945 181.111 74.3646 178.536 70.4941 181.111C66.6236 183.686 62.1133 186.916 62.1133 186.916H225.172C225.172 186.916 227.139 181.142 220.053 177.271Z" fill="white"/>
<path d="M291.158 470.6H292.375C294.825 470.507 300.178 470.335 301.645 470.335C303.487 470.335 306.577 474.346 303.799 478.045C301.021 481.743 299.117 486.067 295.169 486.987C291.22 487.908 291.766 490.39 288.926 493.464C286.085 496.539 278.438 497.179 274.427 496.242C270.416 495.306 274.115 475.267 274.739 474.393C275.364 473.519 282.199 478.013 291.158 470.6Z" fill="white" stroke="#263238" stroke-width="0.761667" stroke-linecap="round" stroke-linejoin="round"/>
<path d="M295.169 486.957C299.18 486.036 301.021 481.713 303.799 478.015C304.366 477.31 304.731 476.465 304.858 475.569C304.984 474.674 304.867 473.761 304.517 472.927C303.47 476.654 301.406 480.015 298.556 482.634C295.778 484.803 293.624 483.571 292.079 485.412C290.534 487.254 288.957 490.968 280.967 490.968C278.16 491.021 275.36 490.68 272.648 489.954C272.648 493.278 273.101 495.9 274.49 496.196C278.501 497.133 286.211 496.509 288.989 493.418C291.767 490.328 291.158 487.878 295.169 486.957Z" fill="white" stroke="#263238" stroke-width="0.761667" stroke-linecap="round" stroke-linejoin="round"/>
<path d="M343.911 482.027C343.911 482.027 342.99 493.139 343.599 495.293C344.207 497.446 350.388 499.616 353.79 498.991C357.192 498.367 363.357 494.06 363.357 494.06C363.357 494.06 376.935 488.816 381.866 485.726C386.798 482.635 388.343 478.937 384.644 478.016C380.945 477.095 368.601 474.614 364.902 473.693C361.203 472.772 361.187 476.159 353.166 478.016C345.144 479.873 343.911 482.027 343.911 482.027Z" fill="white" stroke="#263238" stroke-width="0.761667" stroke-linecap="round" stroke-linejoin="round"/>
<path d="M382.802 482.026C375.558 486.15 368.032 489.759 360.281 492.826C354.887 495.046 348.845 495.102 343.411 492.982C343.404 493.757 343.472 494.53 343.614 495.292C344.238 497.446 350.402 499.615 353.805 498.991C357.207 498.366 363.372 494.059 363.372 494.059C363.372 494.059 376.949 488.815 381.881 485.725C386.095 483.088 387.827 480.013 385.939 478.593C385.199 479.983 384.12 481.164 382.802 482.026Z" fill="white" stroke="#263238" stroke-width="0.761667" stroke-linecap="round" stroke-linejoin="round"/>
<path d="M289.548 264.313C289.548 264.313 286.037 283.993 284.788 295.027C283.54 306.061 280.606 333.482 280.606 346.607C280.606 359.733 279.794 383.564 279.794 383.564C279.794 383.564 278.592 393.115 276.517 401.746C274.441 410.376 273.536 426.795 273.832 434.848C274.129 442.901 274.129 465.25 274.129 465.25C273.965 467.848 273.965 470.454 274.129 473.053C274.425 476.034 275.018 479.608 277.999 479.608C280.98 479.608 286.349 479.608 288.44 477.829C291.133 475.238 292.73 471.713 292.904 467.981C293.2 463.517 294.464 448.301 294.698 444.727C294.933 441.153 305.436 397.033 306.622 387.793C307.808 378.554 308.417 373.482 308.417 373.482L319.435 315.644L322.728 316.237C322.728 316.237 341.456 386.592 341.456 391.367C341.456 396.143 339.365 417.899 341.753 430.119C344.141 442.339 343.782 484.04 343.782 484.04C344.981 485.345 346.53 486.277 348.245 486.724C350.929 487.317 358.686 485.523 361.667 480.763C364.648 476.003 365.834 467.341 365.834 464.953C365.834 462.565 368.518 413.685 368.518 401.153C368.518 388.621 367.332 373.435 367.332 372.234C367.332 371.032 364.351 314.411 363.462 309.338C362.572 304.266 352.428 263.127 352.428 263.127C352.428 263.127 321.448 272.366 289.548 264.313Z" fill="#263238" stroke="#263238" stroke-width="0.761667" stroke-linecap="round" stroke-linejoin="round"/>
<path d="M263.315 220.489C263.315 220.489 259.444 230.337 258.851 235.394C258.258 240.45 261.536 249.705 264.517 251.5C267.498 253.295 277.33 249.409 278.828 247.021C280.326 244.633 287.162 229.135 287.162 229.135C278.581 228.448 270.343 225.461 263.315 220.489Z" fill="#DFADAD" stroke="#263238" stroke-width="0.761667" stroke-linecap="round" stroke-linejoin="round"/>
<path d="M357.627 226.512L345.875 278.623H353.538L364.79 225.482L357.627 226.512Z" fill="#263238" stroke="#263238" stroke-width="0.761667" stroke-linecap="round" stroke-linejoin="round"/>
<path d="M367.192 185.451C367.192 185.451 372.81 184.436 374.34 185.451C375.869 186.465 375.901 191.584 375.901 193.629C375.901 195.673 374.34 201.292 374.886 203.851C375.432 206.411 384.094 218.49 387.668 226.169C391.242 233.847 386.654 246.083 382.565 251.14C378.476 256.196 370.282 238.03 367.723 231.896C365.163 225.763 361.09 187.948 361.09 187.948L367.192 185.451Z" fill="#DFADAD" stroke="#263238" stroke-width="0.761667" stroke-linecap="round" stroke-linejoin="round"/>
<path d="M378.119 217.258C378.119 217.258 386.235 231.132 386.531 235.611C386.828 240.09 384.737 249.657 382.661 252.904C380.585 256.15 375.217 253.356 371.33 251.265C367.732 249.461 364.882 246.451 363.277 242.759C361.483 238.889 356.66 229.181 356.66 229.181C356.66 229.181 369.785 225.607 378.119 217.258Z" fill="#DFADAD" stroke="#263238" stroke-width="0.761667" stroke-linecap="round" stroke-linejoin="round"/>
<path d="M305.047 159.138C301.294 160.018 297.684 161.427 294.326 163.321C289.253 166.302 281.2 172.264 278.516 177.024C275.832 181.784 267.794 202.369 263.908 210.126C260.022 217.882 258.852 220.551 258.852 220.551C258.852 220.551 263.534 227.418 269.87 230.102C276.206 232.787 287.162 233.38 287.162 233.38C287.162 233.38 288.723 263.781 289.55 268.261C290.377 272.74 300.584 275.408 315.488 276.064C330.393 276.719 351.259 271.304 353.943 268.261C356.628 265.217 353.054 233.38 353.054 233.38C357.903 232.665 362.688 231.569 367.365 230.102C373.327 228.011 381.083 217.867 381.083 217.867C381.083 217.867 370.346 191.632 368.255 187.168C366.163 182.705 367.662 180.925 359.312 174.948C353.982 171.197 348.288 167.992 342.316 165.381C342.316 165.381 329.831 159.419 319.359 158.233C308.887 157.047 305.047 159.138 305.047 159.138Z" fill="white" stroke="#263238" stroke-width="0.761667" stroke-linecap="round" stroke-linejoin="round"/>
<path d="M348.279 118.561C348.279 118.561 351.557 120.356 351.557 122.15C351.557 123.945 347.983 127.816 347.983 127.816C348.302 130.585 348.302 133.381 347.983 136.15C347.39 139.131 350.371 142.392 347.983 144.499C345.595 146.606 338.447 146.591 338.447 146.591L336.356 159.716L309.528 156.126L308.638 147.777C308.638 147.777 301.475 141.815 299.087 135.291C296.699 128.768 297.011 126.942 297.526 122.806C298.041 118.67 302.598 109.977 311.572 107.902C319.423 106.026 327.617 106.128 335.419 108.198C341.725 109.884 348.279 118.561 348.279 118.561Z" fill="#DFADAD" stroke="#263238" stroke-width="0.761667" stroke-linecap="round" stroke-linejoin="round"/>
<path d="M336.32 139.176V139.1V139.176Z" fill="white" stroke="#263238" stroke-width="0.761667" stroke-linecap="round" stroke-linejoin="round"/>
<path d="M328.613 145.966C331.876 144.638 334.593 142.245 336.323 139.177C336.214 139.396 335.745 140.004 334.278 140.004C332.484 140.004 328.301 136.727 327.115 133.762C325.929 130.796 328.91 127.191 330.985 127.191C333.061 127.191 336.058 131.374 338.445 129.876C340.833 128.377 340.537 121.838 340.537 121.838C341.127 118.825 342.026 115.88 343.221 113.052C341.016 110.852 338.351 109.168 335.418 108.12C327.616 106.05 319.422 105.948 311.571 107.823C302.628 109.899 298.149 118.545 297.525 122.728C296.9 126.91 296.635 128.69 299.085 135.213C301.536 141.737 308.637 147.699 308.637 147.699C313.693 148.058 322.948 148.354 328.613 145.966Z" fill="#263238" stroke="#263238" stroke-width="0.761667" stroke-linecap="round" stroke-linejoin="round"/>
<path d="M296.418 162.353C296.418 162.353 301.771 153.707 304.455 152.521C307.14 151.335 326.523 151.335 330.394 151.928C334.264 152.521 341.131 157.296 342.317 159.981C343.503 162.665 344.409 164.741 344.409 164.741V166.536C344.409 166.536 331.596 160.574 319.438 160.574C311.731 160.603 304.037 161.198 296.418 162.353Z" fill="white" stroke="#263238" stroke-width="0.761667" stroke-linecap="round" stroke-linejoin="round"/>
<path d="M344.407 166.537C341.906 171.887 339.059 177.069 335.885 182.05C332.519 187.537 329.895 193.446 328.082 199.623L337.446 200.591C337.446 200.591 343.954 183.423 347.856 177.82C349.441 175.429 351.182 173.146 353.068 170.985C353.068 170.985 349.354 166.303 344.407 166.537Z" fill="#263238" stroke="#263238" stroke-width="0.761667" stroke-linecap="round" stroke-linejoin="round"/>
<path d="M296.417 162.353C296.417 162.353 294.856 173.278 295.543 179.13C295.902 184.108 295.902 189.104 295.543 194.082L288.707 196.36C288.707 196.36 286.757 177.492 287.412 173.262C288.067 169.033 288.707 166.114 288.707 166.114C288.707 166.114 293.046 162.26 296.417 162.353Z" fill="#263238" stroke="#263238" stroke-width="0.761667" stroke-linecap="round" stroke-linejoin="round"/>
<path d="M282.527 262.408C282.527 262.408 277.985 263.969 276.284 271.772C274.583 279.576 279.218 288.05 288.644 291.952C298.071 295.853 313.381 297.804 327.661 298.46C341.941 299.115 353.678 297.804 358.875 288.69C364.072 279.576 362.121 269.821 355.941 268.198C349.76 266.575 342.925 270.149 319.187 267.871C306.859 266.867 294.612 265.042 282.527 262.408Z" fill="#462683" stroke="#263238" stroke-width="0.761667" stroke-linecap="round" stroke-linejoin="round"/>
<path d="M339.927 273.66C333.919 280.667 332.421 297.694 344.438 297.694H345.046C351.289 296.446 356.111 293.808 358.983 288.767C363.025 281.682 362.729 274.206 359.498 270.476L354.66 267.214C351.885 267.163 349.131 267.712 346.588 268.824C344.045 269.937 341.773 271.586 339.927 273.66Z" fill="#462683" stroke="#263238" stroke-width="0.761667" stroke-linecap="round" stroke-linejoin="round"/>
<path d="M347.184 282.838C347.184 282.838 346.95 287.816 352.85 285.959C354.24 285.403 355.446 284.467 356.329 283.258C357.212 282.049 357.737 280.616 357.844 279.123C357.893 278.756 357.919 278.386 357.922 278.015C358 275.518 357.126 273.333 355.347 272.818C351.258 271.679 341.301 279.154 341.301 284.601C341.301 290.048 347.653 291.858 353.318 288.222C358.983 284.585 360.575 280.746 360.122 271.679" stroke="#263238" stroke-width="0.761667" stroke-linecap="round" stroke-linejoin="round"/>
<path d="M283.834 189.213C283.834 189.213 309.85 191.491 323.849 191.804C337.849 192.116 344.669 190.836 348.82 195.393C352.972 199.95 358.184 248.737 360.525 257.523C362.866 266.31 358.965 268.916 349.148 272.49C339.331 276.064 323.771 276.064 305.871 272.49C287.97 268.916 280.166 266.248 278.215 258.444C276.265 250.641 277.576 225.577 277.576 211.624C277.576 197.672 276.343 189.541 283.834 189.213Z" fill="#462683" stroke="#263238" stroke-width="0.761667" stroke-linecap="round" stroke-linejoin="round"/>
<path d="M345.342 240.044C349.447 239.607 353.483 238.669 357.359 237.25C354.862 220.083 351.694 198.358 348.947 195.393C344.718 190.836 337.882 192.131 323.977 191.804C310.071 191.476 283.961 189.213 283.961 189.213C276.47 189.541 277.718 197.672 277.718 211.655C277.718 217.445 277.484 225.108 277.375 232.678C279.217 233.786 300.582 245.366 345.342 240.044Z" fill="#462683" stroke="#263238" stroke-width="0.761667" stroke-linecap="round" stroke-linejoin="round"/>
<path d="M283.108 231.102C283.528 235.819 283.402 240.569 282.733 245.257C282.085 249.195 281.715 253.174 281.625 257.165L287.946 259.771C287.946 259.771 289.069 249.72 289.819 245.257C290.328 241.052 290.578 236.82 290.568 232.584L283.108 231.102Z" fill="#263238" stroke="#263238" stroke-width="0.761667" stroke-linecap="round" stroke-linejoin="round"/>
<path d="M331.512 235.612C331.512 235.612 331.138 242.323 330.404 247.161C329.671 251.999 328.531 263.454 328.531 263.454H335.976C335.976 263.454 338.582 251.999 338.582 247.535C338.582 243.072 338.957 235.237 338.957 235.237L331.512 235.612Z" fill="#263238" stroke="#263238" stroke-width="0.761667" stroke-linecap="round" stroke-linejoin="round"/>
<path d="M360.607 257.46C358.328 248.674 353.131 199.887 348.902 195.33C348.249 194.639 347.497 194.05 346.67 193.582C343.954 194.456 339.959 196.61 341.738 201.51C344.345 208.658 346.951 243.804 345.64 254.854C344.329 265.904 337.181 271.132 343.689 273.722L344.048 273.863C345.807 273.508 347.539 273.028 349.229 272.427C358.984 268.916 362.885 266.309 360.607 257.46Z" fill="#462683" stroke="#263238" stroke-width="0.761667" stroke-linecap="round" stroke-linejoin="round"/>
<path d="M319.36 315.597L306.609 312.179" stroke="white" stroke-width="0.761667" stroke-linecap="round" stroke-linejoin="round"/>
<path d="M291.613 103.938C291.613 103.938 295.218 124.226 295.218 126.583C295.218 128.939 295.811 129.564 305.363 130.157C314.914 130.75 328.008 131.359 335.468 127.488C342.928 123.618 356.038 114.659 358.722 108.76C361.407 102.861 359.612 101.909 352.479 101.909H343.537C343.537 101.909 341.446 93.2625 335.733 90.5782C330.021 87.8938 321.126 82.5251 311.59 86.7077C302.054 90.8903 294.938 92.8723 291.613 103.938Z" fill="#462683" stroke="#263238" stroke-width="0.761667" stroke-linecap="round" stroke-linejoin="round"/>
<path d="M341.424 122.712C340.774 123.33 340.272 124.088 339.957 124.928C347.308 120.48 356.516 113.582 358.685 108.697C361.369 102.735 359.575 101.846 352.442 101.846H343.5C343.5 101.846 346.184 110.492 346.184 113.473C346.184 116.454 344.998 119.138 341.424 122.712Z" fill="#263238" stroke="#263238" stroke-width="0.761667" stroke-linecap="round" stroke-linejoin="round"/>
<path d="M300.665 127.362C300.665 127.362 298.168 118.638 302.741 117.811C307.313 116.984 312.307 128.205 312.307 128.205C308.408 128.654 304.459 128.368 300.665 127.362Z" fill="#263238" stroke="#263238" stroke-width="0.761667" stroke-linecap="round" stroke-linejoin="round"/>
<path d="M425.455 523.509H484.137C483.013 516.33 478.393 517.594 477.785 506.466C477.472 500.864 482.654 493.981 482.217 486.583C481.842 480.512 475.865 474.301 475.397 467.372C474.991 461.129 480.079 454.168 479.595 447.426C479.127 441.059 473.056 434.941 472.525 428.308C471.995 421.675 477.004 414.839 476.411 408.3C475.818 401.761 469.654 395.815 468.998 389.322C468.343 382.83 473.165 375.557 472.416 369.221C471.636 362.494 465.284 356.736 464.425 350.493C463.473 343.579 467.968 336.213 466.922 330.204C465.627 322.9 458.838 317.625 457.402 312.241C454.734 302.206 455.077 292.53 451.924 291.952C448.772 291.375 447.804 300.754 445.26 311.351C443.98 316.673 437.332 322.073 436.24 329.377C435.35 335.292 440.048 342.487 439.283 349.354C438.596 355.518 432.4 361.433 431.807 368.082C431.23 374.324 436.255 381.316 435.771 387.887C435.288 394.457 429.279 400.372 428.873 406.88C428.467 413.388 433.633 420.192 433.274 426.607C432.915 433.021 427.032 439.389 426.72 445.709C426.392 452.405 431.682 459.147 431.402 465.358C431.121 472.225 425.299 478.53 425.159 484.539C424.894 491.843 430.247 498.585 430.091 504.141C429.732 516.189 424.207 513.692 424.004 523.4L425.455 523.509Z" fill="#462683"/>
<path opacity="0.5" d="M425.455 523.509H484.137C483.013 516.33 478.393 517.594 477.785 506.466C477.472 500.864 482.654 493.981 482.217 486.583C481.842 480.512 475.865 474.301 475.397 467.372C474.991 461.129 480.079 454.168 479.595 447.426C479.127 441.059 473.056 434.941 472.525 428.308C471.995 421.675 477.004 414.839 476.411 408.3C475.818 401.761 469.654 395.815 468.998 389.322C468.343 382.83 473.165 375.557 472.416 369.221C471.636 362.494 465.284 356.736 464.425 350.493C463.473 343.579 467.968 336.213 466.922 330.204C465.627 322.9 458.838 317.625 457.402 312.241C454.734 302.206 455.077 292.53 451.924 291.952C448.772 291.375 447.804 300.754 445.26 311.351C443.98 316.673 437.332 322.073 436.24 329.377C435.35 335.292 440.048 342.487 439.283 349.354C438.596 355.518 432.4 361.433 431.807 368.082C431.23 374.324 436.255 381.316 435.771 387.887C435.288 394.457 429.279 400.372 428.873 406.88C428.467 413.388 433.633 420.192 433.274 426.607C432.915 433.021 427.032 439.389 426.72 445.709C426.392 452.405 431.682 459.147 431.402 465.358C431.121 472.225 425.299 478.53 425.159 484.539C424.894 491.843 430.247 498.585 430.091 504.141C429.732 516.189 424.207 513.692 424.004 523.4L425.455 523.509Z" fill="white"/>
<path d="M450.645 311.226V520.793" stroke="#263238" stroke-width="0.761667" stroke-miterlimit="10"/>
<path d="M459.808 333.201L450.256 341.457L442.438 331.031" stroke="#263238" stroke-width="0.761667" stroke-miterlimit="10"/>
<path d="M459.808 369.673L450.256 377.929L442.438 367.504" stroke="#263238" stroke-width="0.761667" stroke-miterlimit="10"/>
<path d="M459.808 403.977L450.256 412.233L442.438 401.808" stroke="#263238" stroke-width="0.761667" stroke-miterlimit="10"/>
<path d="M459.808 444.803L450.256 453.059L442.438 442.634" stroke="#263238" stroke-width="0.761667" stroke-miterlimit="10"/>
<path d="M459.808 486.052L450.256 494.308L442.438 483.883" stroke="#263238" stroke-width="0.761667" stroke-miterlimit="10"/>
<path d="M89.3885 487.659H165.518C164.051 478.295 158.074 479.98 157.278 465.544C156.887 458.287 163.614 449.282 163.021 439.746C162.553 431.943 154.796 423.812 154.188 414.775C153.641 406.66 160.259 397.608 159.619 388.899C159.01 380.628 151.16 372.684 150.458 364.1C149.755 355.517 156.263 346.605 155.499 338.131C154.734 329.656 146.728 321.853 145.885 313.503C145.011 304.904 151.285 295.649 150.333 287.425C149.303 278.7 141.078 271.162 139.954 263.125C138.706 254.167 144.543 244.6 143.185 236.859C141.499 227.385 132.697 220.534 130.84 213.558C127.375 200.526 127.812 187.979 123.723 187.167C119.369 186.293 118.386 198.591 115.077 212.341C113.423 219.254 104.792 226.246 103.372 235.751C102.233 243.414 108.319 252.746 107.321 261.673C106.431 269.664 98.4091 277.28 97.6288 286.02C96.8953 294.182 103.403 303.187 102.763 311.724C102.139 320.027 94.3514 327.94 93.8052 336.367C93.2589 344.795 100.048 353.628 99.5328 361.947C99.0178 370.265 91.4173 378.537 91.0272 386.746C90.6058 395.423 97.4571 404.178 97.1294 412.231C96.7548 421.158 89.2168 429.399 88.9359 437.202C88.5925 446.66 95.5531 455.4 95.3346 462.61C94.8664 478.217 87.7029 475.017 87.5312 487.581L89.3885 487.659Z" fill="#462683"/>
<path d="M122.121 212.232V484.133" stroke="#263238" stroke-width="0.761667" stroke-miterlimit="10"/>
<path d="M134.013 240.746L121.605 251.452L111.461 237.921" stroke="#263238" stroke-width="0.761667" stroke-miterlimit="10"/>
<path d="M134.013 288.065L121.605 298.771L111.461 285.256" stroke="#263238" stroke-width="0.761667" stroke-miterlimit="10"/>
<path d="M134.013 332.576L121.605 343.282L111.461 329.767" stroke="#263238" stroke-width="0.761667" stroke-miterlimit="10"/>
<path d="M134.013 385.546L121.605 396.252L111.461 382.721" stroke="#263238" stroke-width="0.761667" stroke-miterlimit="10"/>
<path d="M134.013 439.06L121.605 449.766L111.461 436.251" stroke="#263238" stroke-width="0.761667" stroke-miterlimit="10"/>
<path d="M43.3382 499.568H99.7096C98.6328 492.67 94.2005 493.887 93.6074 483.197C93.3109 477.812 98.2894 471.164 97.868 464.094C97.5091 458.273 91.7658 452.295 91.3288 445.631C90.923 439.623 95.8236 432.959 95.3397 426.482C94.9028 420.348 89.0971 414.48 88.5664 408.113C88.0358 401.745 92.8583 395.159 92.2964 388.885C91.7346 382.611 85.8041 376.837 85.1798 370.657C84.5555 364.476 89.1751 357.438 88.4572 351.351C87.7081 344.89 81.6059 339.303 80.7787 333.357C79.8579 326.724 84.181 319.638 83.1665 313.911C81.9336 306.903 75.3632 301.831 74.0366 296.65C71.4771 287.02 71.7892 277.719 68.7771 277.11C65.765 276.501 64.813 285.584 62.3628 295.76C61.1298 300.879 54.7467 306.06 53.701 313.068C52.8583 318.764 57.3686 325.662 56.6351 332.264C55.964 338.179 50.0179 343.86 49.4404 350.29C48.8942 356.345 53.7166 363.009 53.2484 369.33C52.7802 375.651 47.0057 381.332 46.6156 387.574C46.2254 393.817 51.204 400.356 50.8606 406.521C50.5173 412.686 44.852 418.803 44.6179 424.874C44.3058 431.304 49.2999 437.781 49.1283 443.743C48.8629 450.345 43.2757 456.4 43.0729 462.174C42.8232 469.197 47.9734 475.659 47.7549 480.996C47.4115 492.592 42.1052 490.188 41.918 499.506L43.3382 499.568Z" fill="#462683"/>
<path opacity="0.5" d="M43.3382 499.568H99.7096C98.6328 492.67 94.2005 493.887 93.6074 483.197C93.3109 477.812 98.2894 471.164 97.868 464.094C97.5091 458.273 91.7658 452.295 91.3288 445.631C90.923 439.623 95.8236 432.959 95.3397 426.482C94.9028 420.348 89.0971 414.48 88.5664 408.113C88.0358 401.745 92.8583 395.159 92.2964 388.885C91.7346 382.611 85.8041 376.837 85.1798 370.657C84.5555 364.476 89.1751 357.438 88.4572 351.351C87.7081 344.89 81.6059 339.303 80.7787 333.357C79.8579 326.724 84.181 319.638 83.1665 313.911C81.9336 306.903 75.3632 301.831 74.0366 296.65C71.4771 287.02 71.7892 277.719 68.7771 277.11C65.765 276.501 64.813 285.584 62.3628 295.76C61.1298 300.879 54.7467 306.06 53.701 313.068C52.8583 318.764 57.3686 325.662 56.6351 332.264C55.964 338.179 50.0179 343.86 49.4404 350.29C48.8942 356.345 53.7166 363.009 53.2484 369.33C52.7802 375.651 47.0057 381.332 46.6156 387.574C46.2254 393.817 51.204 400.356 50.8606 406.521C50.5173 412.686 44.852 418.803 44.6179 424.874C44.3058 431.304 49.2999 437.781 49.1283 443.743C48.8629 450.345 43.2757 456.4 43.0729 462.174C42.8232 469.197 47.9734 475.659 47.7549 480.996C47.4115 492.592 42.1052 490.188 41.918 499.506L43.3382 499.568Z" fill="white"/>
<path d="M67.543 295.65V496.961" stroke="#263238" stroke-width="0.761667" stroke-miterlimit="10"/>
<path d="M76.3476 316.751L67.1709 324.68L59.6641 314.66" stroke="#263238" stroke-width="0.761667" stroke-miterlimit="10"/>
<path d="M76.3476 351.788L67.1709 359.716L59.6641 349.696" stroke="#263238" stroke-width="0.761667" stroke-miterlimit="10"/>
<path d="M76.3476 384.749L67.1709 392.678L59.6641 382.658" stroke="#263238" stroke-width="0.761667" stroke-miterlimit="10"/>
<path d="M76.3476 423.953L67.1709 431.881L59.6641 421.877" stroke="#263238" stroke-width="0.761667" stroke-miterlimit="10"/>
<path d="M76.3476 463.578L67.1709 471.506L59.6641 461.502" stroke="#263238" stroke-width="0.761667" stroke-miterlimit="10"/>
<path d="M476.912 540.051H553.057C551.59 530.687 545.613 532.372 544.817 517.952C544.411 510.679 551.137 501.689 550.56 492.138C550.076 484.335 542.32 476.219 541.726 467.167C541.18 459.052 547.798 450 547.158 441.291C546.549 433.02 538.683 425.092 537.996 416.492C537.31 407.893 543.802 398.997 543.037 390.523C542.273 382.048 534.266 374.261 533.424 365.895C532.581 357.53 538.824 348.057 537.856 339.832C536.842 331.092 528.601 323.554 527.493 315.517C526.245 306.559 532.082 296.992 530.708 289.266C529.038 279.793 520.22 272.942 518.363 265.95C514.914 252.934 515.351 240.386 511.262 239.559C506.908 238.701 505.909 250.999 502.616 264.748C500.946 271.646 492.331 278.654 490.911 288.158C489.772 295.837 495.858 305.17 494.86 314.081C493.97 322.072 485.932 329.688 485.152 338.428C484.419 346.605 490.942 355.595 490.302 364.147C489.678 372.435 481.89 380.347 481.344 388.775C480.798 397.202 487.587 406.036 487.072 414.37C486.557 422.704 478.956 430.944 478.551 439.153C478.145 447.831 484.996 456.602 484.653 464.655C484.294 473.566 476.74 481.822 476.475 489.625C476.131 499.099 483.092 507.838 482.874 515.049C482.405 530.655 475.242 527.456 474.992 540.02L476.912 540.051Z" fill="#462683"/>
<path d="M509.605 264.641V536.541" stroke="#263238" stroke-width="0.761667" stroke-miterlimit="10"/>
<path d="M521.477 293.138L509.086 303.845L498.941 290.329" stroke="#263238" stroke-width="0.761667" stroke-miterlimit="10"/>
<path d="M521.477 340.473L509.086 351.179L498.941 337.648" stroke="#263238" stroke-width="0.761667" stroke-miterlimit="10"/>
<path d="M521.477 384.983L509.086 395.674L498.941 382.158" stroke="#263238" stroke-width="0.761667" stroke-miterlimit="10"/>
<path d="M521.477 437.938L509.086 448.644L498.941 435.129" stroke="#263238" stroke-width="0.761667" stroke-miterlimit="10"/>
<path d="M521.477 491.467L509.086 502.174L498.941 488.643" stroke="#263238" stroke-width="0.761667" stroke-miterlimit="10"/>
<path d="M192.386 322.506L182.84 322.188L177.107 494.094L186.653 494.412L192.386 322.506Z" fill="#263238" stroke="#263238" stroke-width="0.761667" stroke-linecap="round" stroke-linejoin="round"/>
<path d="M231.056 274.269L225.859 275.517V292.716L231.618 294.401L231.056 274.269Z" fill="#462683" stroke="#263238" stroke-width="0.761667" stroke-linecap="round" stroke-linejoin="round"/>
<path d="M130.312 264.779L130.562 323.07L227.23 333.09L226.309 351.537L261.908 320.995L231.054 274.268L230.976 292.731L130.312 264.779Z" fill="white" stroke="#263238" stroke-width="0.761667" stroke-linecap="round" stroke-linejoin="round"/>
<path d="M130.311 264.779L122.508 265.653L123.491 325.63L130.561 323.07L130.311 264.779Z" fill="#462683" stroke="#263238" stroke-width="0.761667" stroke-linecap="round" stroke-linejoin="round"/>
<path d="M123.492 325.63L222.829 335.462L227.23 333.09L130.562 323.07L123.492 325.63Z" fill="#462683" stroke="#263238" stroke-width="0.761667" stroke-linecap="round" stroke-linejoin="round"/>
<path d="M222.828 335.463L222.578 351.741L226.308 351.538L227.229 333.091L222.828 335.463Z" fill="#462683" stroke="#263238" stroke-width="0.761667" stroke-linecap="round" stroke-linejoin="round"/>
<path d="M31.7266 502.314C31.7266 502.314 166.225 435.97 370.736 469.836C530.97 496.368 583.721 564.912 583.721 564.912" fill="white"/>
<path d="M31.7266 502.314C31.7266 502.314 166.225 435.97 370.736 469.836C530.97 496.368 583.721 564.912 583.721 564.912" stroke="#263238" stroke-width="0.761667" stroke-linecap="round" stroke-linejoin="round"/>
<path d="M261.771 472.911L236.567 462.72C112.025 468.962 33.9914 507.979 33.9914 507.979L23.8471 510.289C15.602 514.091 7.63343 518.467 0 523.383L37.0191 523.976L100.46 519.84L54.9356 536.352L99.0558 526.692L172.111 523.929L129.364 512.911L195.521 506.013L133.469 507.386L183.41 497.195L247.991 486.707L224.581 485.318L230.371 483.399L261.771 472.911Z" fill="#FAB748"/>
<path d="M418.697 482.978L432.743 491.561L398.408 490.781L414.015 499.365L404.651 502.486L427.281 513.411L405.431 516.532L426.501 533.699L310.23 534.48L343.005 546.965L330.519 552.427L410.113 564.913L496.731 586.762L460.055 566.473C460.055 566.473 543.551 589.103 546.672 590.664C549.794 592.225 567.741 599.248 570.082 600.028C572.423 600.808 541.99 576.618 541.99 576.618L573.204 584.421L541.99 549.306L556.036 550.867L545.892 542.283L566.181 550.867C566.181 550.867 509.996 505.607 418.697 482.978Z" fill="#FAB748"/>
</g>
<defs>
<clipPath id="clip0_3406_27172">
<rect width="600" height="600" fill="white"/>
</clipPath>
</defs>
</svg>
