<svg width="600" height="600" viewBox="0 0 600 600" fill="none" xmlns="http://www.w3.org/2000/svg">
<g clip-path="url(#clip0_3406_28299)">
<path d="M521.114 79.8328C521.114 79.8328 464.77 27.1239 382.92 42.9711C301.07 58.8183 261.039 122.913 210.733 165.363C184.401 187.594 148.171 193.903 117.888 210.321C21.0625 262.774 21.1376 396.026 86.1788 450.868C142.478 498.35 217.823 508.203 319.696 483.268C421.569 458.333 494.091 444.214 564.539 357.182C634.988 270.15 589.925 150.852 521.114 79.8328Z" fill="#5A3A97"/>
<path d="M521.114 79.8328C521.114 79.8328 464.77 27.1239 382.92 42.9711C301.07 58.8183 261.039 122.913 210.733 165.363C184.401 187.594 148.171 193.903 117.888 210.321C21.0625 262.774 21.1376 396.026 86.1788 450.868C142.478 498.35 217.823 508.203 319.696 483.268C421.569 458.333 494.091 444.214 564.539 357.182C634.988 270.15 589.925 150.852 521.114 79.8328Z" fill="#FAB748"/>
<path d="M549.967 213.429C542.231 209.208 538.701 212.738 535.892 209.208C533.083 205.678 543.628 196.545 522.508 187.383C522.508 187.383 521.112 167.675 492.241 166.969C463.371 166.263 471.121 186.707 463.416 191.619C455.71 196.53 453.547 188.795 445.811 193.722C438.075 198.648 441.59 208.502 435.296 209.914C429.002 211.326 420.516 203.575 412.765 208.502C405.014 213.429 405.029 217.665 401.499 217.665C397.969 217.665 390.984 214.841 386.718 217.665C382.452 220.489 377.57 223.989 377.57 223.989H555.6C555.6 223.989 557.718 217.665 549.967 213.429Z" fill="#5A3A97"/>
<path d="M549.967 213.429C542.231 209.208 538.701 212.738 535.892 209.208C533.083 205.678 543.628 196.545 522.508 187.383C522.508 187.383 521.112 167.675 492.241 166.969C463.371 166.263 471.121 186.707 463.416 191.619C455.71 196.53 453.547 188.795 445.811 193.722C438.075 198.648 441.59 208.502 435.296 209.914C429.002 211.326 420.516 203.575 412.765 208.502C405.014 213.429 405.029 217.665 401.499 217.665C397.969 217.665 390.984 214.841 386.718 217.665C382.452 220.489 377.57 223.989 377.57 223.989H555.6C555.6 223.989 557.718 217.665 549.967 213.429Z" fill="white"/>
<path d="M433.958 425.242C421.446 418.407 415.753 424.1 411.216 418.407C406.68 412.714 423.714 397.933 389.601 383.153C389.601 383.153 387.318 351.308 340.693 350.106C294.067 348.904 306.565 381.951 294.052 389.912C281.54 397.873 278.13 385.406 265.632 393.337C253.135 401.268 258.798 417.28 248.613 419.534C238.429 421.787 224.73 409.304 212.217 417.265C199.705 425.226 199.705 432.046 194.012 432.046C188.319 432.046 176.948 427.54 170.128 432.046C163.309 436.552 155.348 442.29 155.348 442.29H443.061C443.061 442.29 446.471 432.061 433.958 425.242Z" fill="#5A3A97"/>
<path d="M433.958 425.24C421.446 418.405 415.753 424.098 411.216 418.405C406.68 412.712 423.714 397.931 389.601 383.151C389.601 383.151 387.318 351.306 340.693 350.104C294.067 348.903 306.565 381.949 294.052 389.91C281.54 397.871 278.13 385.404 265.632 393.335C253.135 401.266 258.798 417.278 248.613 419.532C238.429 421.785 224.73 409.302 212.217 417.263C199.705 425.225 199.705 432.044 194.012 432.044C188.319 432.044 176.948 427.538 170.128 432.044C163.309 436.55 155.348 442.288 155.348 442.288H443.061C443.061 442.288 446.471 432.059 433.958 425.24Z" fill="white"/>
<path d="M156.67 292.831C152.389 290.488 150.436 292.441 148.874 290.488C147.312 288.535 153.155 283.473 141.469 278.471C141.469 278.471 140.688 267.551 124.705 267.16C108.723 266.77 113.019 278.081 108.738 280.799C104.457 283.518 103.27 279.297 98.9892 281.971C94.7082 284.645 96.6459 290.158 93.146 290.984C89.6461 291.81 84.9595 287.484 80.6785 290.203C76.3975 292.921 76.3825 295.16 74.3697 295.16C72.3568 295.16 68.5265 293.657 66.1982 295.16C63.8699 296.662 61.1211 298.674 61.1211 298.674H159.734C159.734 298.674 160.951 295.16 156.67 292.831Z" fill="#5A3A97"/>
<path d="M156.67 292.831C152.389 290.488 150.436 292.441 148.874 290.488C147.312 288.535 153.155 283.473 141.469 278.471C141.469 278.471 140.688 267.551 124.705 267.16C108.723 266.77 113.019 278.081 108.738 280.799C104.457 283.518 103.27 279.297 98.9892 281.971C94.7082 284.645 96.6459 290.158 93.146 290.984C89.6461 291.81 84.9595 287.484 80.6785 290.203C76.3975 292.921 76.3825 295.16 74.3697 295.16C72.3568 295.16 68.5265 293.657 66.1982 295.16C63.8699 296.662 61.1211 298.674 61.1211 298.674H159.734C159.734 298.674 160.951 295.16 156.67 292.831Z" fill="white"/>
<path d="M179.681 521.962C179.681 521.962 190.797 499.01 182.686 483.779C174.574 468.547 164.405 482.757 150.195 464.477C135.985 446.196 135.985 425.903 123.788 423.92C111.591 421.937 104.501 426.924 95.3682 423.92C86.2354 420.916 97.396 394.479 78.0939 388.38C58.7919 382.281 46.5497 397.528 33.4213 383.303C20.2929 369.078 0.930747 362.994 -0.0906854 370.114C-1.11212 377.234 15.1407 376.198 21.2392 386.352C27.3378 396.506 45.6034 414.787 45.6034 434.074C45.6034 453.361 62.8626 444.228 75.0597 449.305C87.2568 454.383 86.2203 465.558 87.2418 480.85C88.2632 496.141 114.655 480.85 118.786 487.955C122.917 495.06 113.709 497.102 116.758 513.34C119.807 529.578 149.654 530.374 149.654 530.374" fill="#462683"/>
<path d="M179.681 521.962C179.681 521.962 190.797 499.01 182.686 483.779C174.574 468.547 164.405 482.757 150.195 464.477C135.985 446.196 135.985 425.903 123.788 423.92C111.591 421.937 104.501 426.924 95.3682 423.92C86.2354 420.916 97.396 394.479 78.0939 388.38C58.7919 382.281 46.5497 397.528 33.4213 383.303C20.2929 369.078 0.930747 362.994 -0.0906854 370.114C-1.11212 377.234 15.1407 376.198 21.2392 386.352C27.3378 396.506 45.6034 414.787 45.6034 434.074C45.6034 453.361 62.8626 444.228 75.0597 449.305C87.2568 454.383 86.2203 465.558 87.2418 480.85C88.2632 496.141 114.655 480.85 118.786 487.955C122.917 495.06 113.709 497.102 116.758 513.34C119.807 529.578 149.654 530.374 149.654 530.374" stroke="white" stroke-linecap="round" stroke-linejoin="round"/>
<path d="M160.333 525.401C160.333 525.401 138.958 475.651 107.534 444.167C76.1097 412.683 54.7348 410.655 41.5312 399.494" stroke="white" stroke-linecap="round" stroke-linejoin="round"/>
<path d="M59.8438 431.023L84.298 425.661L74.1588 402.408" stroke="white" stroke-linecap="round" stroke-linejoin="round"/>
<path d="M102.789 465.619L124.149 464.237L122.467 445.941" stroke="white" stroke-linecap="round" stroke-linejoin="round"/>
<path d="M135.582 506.775L152.886 509.749L155.86 484.709" stroke="white" stroke-linecap="round" stroke-linejoin="round"/>
<path d="M95.3995 363.129C95.3995 363.129 87.1679 364.226 78.3656 343.346C71.1254 326.147 81.0093 312.313 84.7345 307.942C84.8794 307.773 85.0628 307.642 85.2691 307.56C85.4755 307.477 85.6986 307.446 85.9198 307.468C86.1409 307.49 86.3534 307.565 86.5393 307.687C86.7252 307.808 86.879 307.973 86.9877 308.167C89.8567 313.319 98.3436 329.272 99.2599 338.389C100.356 349.385 95.3995 363.129 95.3995 363.129Z" fill="#5A3A97"/>
<path d="M178.419 435.142C178.419 435.142 173.462 430.756 172.411 421.413C171.359 412.07 179.005 393.924 183.406 396.673C187.807 399.422 189.414 419.76 187.807 426.895C186.2 434.03 178.419 435.142 178.419 435.142Z" fill="#5A3A97"/>
<path d="M204.814 467.03C204.814 467.03 199.857 462.629 198.805 453.286C197.754 443.943 205.399 425.797 209.801 428.546C214.202 431.295 215.809 451.633 214.202 458.783C212.595 465.933 204.814 467.03 204.814 467.03Z" fill="#5A3A97"/>
<path d="M218.679 488.703C218.679 488.703 216.531 482.44 220.181 473.758C223.831 465.075 239.438 453.073 241.916 457.625C244.395 462.176 235.908 480.697 230.891 486.165C225.874 491.633 218.679 488.703 218.679 488.703Z" fill="#5A3A97"/>
<path d="M182.523 457.084C182.523 457.084 177.852 461.771 168.463 462.356C159.075 462.942 141.425 454.23 144.43 449.994C147.434 445.758 167.817 445.247 174.862 447.29C181.907 449.333 182.523 457.084 182.523 457.084Z" fill="#5A3A97"/>
<path d="M204.808 491.229C204.808 491.229 200.137 495.915 190.749 496.486C181.36 497.057 163.711 488.375 166.715 484.139C169.719 479.903 190.103 479.392 197.147 481.435C204.192 483.478 204.808 491.229 204.808 491.229Z" fill="#5A3A97"/>
<path d="M144.875 398.308C144.875 398.308 139.377 398.308 136.088 385.119C132.798 371.931 139.377 357.631 142.682 360.38C145.987 363.129 152.581 380.177 151.484 388.424C150.388 396.671 144.875 398.308 144.875 398.308Z" fill="#5A3A97"/>
<path d="M112.445 395.019C111.869 392.285 110.609 389.742 108.784 387.627C106.958 385.513 104.626 383.896 102.005 382.927C92.6472 379.067 75.6133 384.023 75.6133 386.217C75.6133 388.41 82.7633 395.019 95.396 397.768C108.029 400.517 112.445 395.019 112.445 395.019Z" fill="#5A3A97"/>
<path d="M152.03 429.642C152.03 429.642 151.489 425.256 140.494 419.127C129.498 412.998 117.316 416.588 117.962 418.962C118.608 421.335 129.558 426.818 138.901 430.678C148.245 434.539 152.03 429.642 152.03 429.642Z" fill="#5A3A97"/>
<path d="M110.797 374.126C110.797 374.126 105.855 369.724 104.788 360.381C103.722 351.038 111.382 332.893 115.784 335.642C120.185 338.391 121.792 358.729 120.17 365.879C118.547 373.029 110.797 374.126 110.797 374.126Z" fill="#5A3A97"/>
<path d="M216.962 513.881C216.962 513.881 222.58 499.836 194.431 462.404C166.281 424.971 96.148 387.524 87.7812 342.596" stroke="white" stroke-linecap="round" stroke-linejoin="round"/>
<path d="M125.097 397.213L93.207 390.062" stroke="white" stroke-linecap="round" stroke-linejoin="round"/>
<path d="M146.53 417.011L142.129 381.275" stroke="white" stroke-linecap="round" stroke-linejoin="round"/>
<path d="M168.519 435.696L134.992 424.16" stroke="white" stroke-linecap="round" stroke-linejoin="round"/>
<path d="M110.25 382.371L111.887 355.979" stroke="white" stroke-linecap="round" stroke-linejoin="round"/>
<path d="M177.863 443.387L179.516 417.01" stroke="white" stroke-linecap="round" stroke-linejoin="round"/>
<path d="M204.258 475.277L205.91 448.885" stroke="white" stroke-linecap="round" stroke-linejoin="round"/>
<path d="M214.156 495.612L228.561 473.441" stroke="white" stroke-linecap="round" stroke-linejoin="round"/>
<path d="M190.753 458.14L164.496 455.016" stroke="white" stroke-linecap="round" stroke-linejoin="round"/>
<path d="M213.011 492.234L186.754 489.109" stroke="white" stroke-linecap="round" stroke-linejoin="round"/>
<path d="M505.637 524.935C505.637 524.935 522.25 511.957 521.784 497.687C521.319 483.417 508.581 490.267 504.705 471.521C500.83 452.774 508.235 437.708 499.929 431.745C491.622 425.781 484.502 426.968 478.899 421.38C473.296 415.792 491.141 400.276 479.049 388.709C466.958 377.143 452.357 384.008 447.746 368.641C443.134 353.275 431.042 341.724 427.692 346.635C424.343 351.547 436.78 356.7 437.591 366.463C438.402 376.227 445.312 396.505 438.267 410.76C431.222 425.015 447.37 424.595 454.565 432.811C461.76 441.028 456.923 448.944 452.117 460.615C447.31 472.287 472.425 470.604 472.831 477.364C473.236 484.123 465.726 482.291 462.061 495.464C458.396 508.638 480.251 520.174 480.251 520.174" fill="#462683"/>
<path d="M505.637 524.935C505.637 524.935 522.25 511.957 521.784 497.687C521.319 483.417 508.581 490.267 504.705 471.521C500.83 452.774 508.235 437.708 499.929 431.745C491.622 425.781 484.502 426.968 478.899 421.38C473.296 415.792 491.141 400.276 479.049 388.709C466.958 377.143 452.357 384.008 447.746 368.641C443.134 353.275 431.042 341.724 427.692 346.635C424.343 351.547 436.78 356.7 437.591 366.463C438.402 376.227 445.312 396.505 438.267 410.76C431.222 425.015 447.37 424.595 454.565 432.811C461.76 441.028 456.923 448.944 452.117 460.615C447.31 472.287 472.425 470.604 472.831 477.364C473.236 484.123 465.726 482.291 462.061 495.464C458.396 508.638 480.251 520.174 480.251 520.174" stroke="white" stroke-linecap="round" stroke-linejoin="round"/>
<path d="M490.013 520.431C490.013 520.431 492.342 475.743 480.46 440.894C468.578 406.045 453.512 396.777 447.789 383.664" stroke="white" stroke-linecap="round" stroke-linejoin="round"/>
<path d="M449.879 413.748L469.977 418.675L470.938 397.721" stroke="white" stroke-linecap="round" stroke-linejoin="round"/>
<path d="M469.117 455.073L485.475 461.847L490.898 447.652" stroke="white" stroke-linecap="round" stroke-linejoin="round"/>
<path d="M478.449 497.584L490.196 506.101L501.537 488.602" stroke="white" stroke-linecap="round" stroke-linejoin="round"/>
<path d="M527.463 384.896C522.22 378.738 523.377 371.302 525.69 362.455C527.583 355.155 536.52 343.769 546.179 342.507C547.801 342.297 547.831 342.507 547.681 343.724C547.11 351.445 545.248 363.041 541.853 369.395C537.812 377.04 533.351 379.549 527.463 384.896Z" fill="#5A3A97"/>
<path d="M552.458 466.97C551.241 462.869 552.548 458.573 553.96 454.818C555.372 451.063 567.795 436.402 571.61 441.96C575.425 447.518 565.947 460.736 562.597 464.567C559.248 468.397 556.304 467.601 552.458 466.97Z" fill="#5A3A97"/>
<path d="M557.599 500.647C556.503 496.486 557.854 492.025 559.326 488.255C560.799 484.485 573.221 470.23 576.961 475.847C580.701 481.465 571.208 494.684 567.858 498.484C564.509 502.285 561.429 501.443 557.599 500.647Z" fill="#5A3A97"/>
<path d="M557.582 522.082C558.754 517.891 562.209 514.752 565.393 512.213C568.577 509.675 586.422 503.742 586.858 510.471C587.294 517.2 572.423 523.75 567.601 525.342C562.779 526.934 560.541 524.681 557.582 522.082Z" fill="#5A3A97"/>
<path d="M546.207 484.124C541.971 485.13 537.72 483.553 533.98 481.976C530.24 480.399 516.826 467.345 522.489 463.95C528.152 460.556 540.769 470.605 544.525 473.924C548.28 477.244 547.063 480.444 546.207 484.124Z" fill="#5A3A97"/>
<path d="M546.859 517.664C542.623 518.505 538.372 516.853 534.722 515.095C531.072 513.338 517.943 499.834 523.772 496.544C529.6 493.255 541.962 503.695 545.477 507.3C548.992 510.905 547.895 513.909 546.859 517.664Z" fill="#5A3A97"/>
<path d="M544.394 429.342C540.669 428.005 543.613 419.548 544.319 416.784C545.025 414.021 556.261 397.377 559.58 403.266C562.9 409.154 556.396 421.801 553.572 425.542C550.748 429.282 548.119 430.679 544.394 429.342Z" fill="#5A3A97"/>
<path d="M523.901 414.141C525.959 409.935 524.877 405.128 522.489 401.238C520.1 397.347 507.798 387.719 503.803 391.504C499.807 395.289 508.504 405.023 511.193 408.027C513.882 411.031 519.274 415.447 523.901 414.141Z" fill="#5A3A97"/>
<path d="M535.696 453.017C537.273 449.367 533.338 444.245 532.061 441.406C530.784 438.567 519.563 427.496 517.04 431.913C514.516 436.329 523.619 445.026 525.827 448.346C528.035 451.665 531.971 453.934 535.696 453.017Z" fill="#5A3A97"/>
<path d="M532.75 399.463C531.879 395.242 533.471 390.961 535.198 387.281C536.926 383.601 550.219 370.397 553.674 376.195C557.129 381.993 546.689 394.386 543.159 397.931C539.629 401.476 536.52 400.424 532.75 399.463Z" fill="#5A3A97"/>
<path d="M544.966 540.153C554.219 519.124 555.376 518.778 551.726 489.382C548.076 459.986 515.33 403.882 532.349 368.598" stroke="white" stroke-linecap="round" stroke-linejoin="round"/>
<path d="M531.37 420.884C525.091 414.771 519.173 408.342 513.27 401.883" stroke="white" stroke-linecap="round" stroke-linejoin="round"/>
<path d="M537.242 442.397C541.463 433.85 545.954 425.453 550.25 416.951" stroke="white" stroke-linecap="round" stroke-linejoin="round"/>
<path d="M545.156 463.305C538.923 456.215 532.238 449.546 526.02 442.426" stroke="white" stroke-linecap="round" stroke-linejoin="round"/>
<path d="M528.469 404.738L542.093 387.689" stroke="white" stroke-linecap="round" stroke-linejoin="round"/>
<path d="M548.609 472.497C552.695 466.489 556.826 460.555 560.882 454.547" stroke="white" stroke-linecap="round" stroke-linejoin="round"/>
<path d="M553.539 506.25C557.85 500.241 562.011 494.233 566.172 488.225" stroke="white" stroke-linecap="round" stroke-linejoin="round"/>
<path d="M551.336 524.89C558.025 521.886 564.7 518.807 571.359 515.652" stroke="white" stroke-linecap="round" stroke-linejoin="round"/>
<path d="M551.556 488.313C545.838 483.877 540.055 479.511 534.207 475.215" stroke="white" stroke-linecap="round" stroke-linejoin="round"/>
<path d="M552.04 522.007C546.442 517.38 540.814 512.789 535.156 508.232" stroke="white" stroke-linecap="round" stroke-linejoin="round"/>
<path d="M76.7305 559.516C76.7305 559.516 318.404 429.538 592.584 559.516" stroke="#263238" stroke-linecap="round" stroke-linejoin="round"/>
<path d="M419.573 514.544C419.573 520.477 385.746 525.299 344.017 525.299C302.289 525.299 268.477 520.477 268.477 514.544C268.477 508.611 302.304 503.789 344.017 503.789C385.731 503.789 419.573 508.611 419.573 514.544Z" fill="#5A3A97"/>
<path opacity="0.5" d="M419.573 514.544C419.573 520.477 385.746 525.299 344.017 525.299C302.289 525.299 268.477 520.477 268.477 514.544C268.477 508.611 302.304 503.789 344.017 503.789C385.731 503.789 419.573 508.611 419.573 514.544Z" fill="white"/>
<path d="M359.479 176.583C367.395 174.901 373.178 172.347 372.397 165.092C371.616 157.837 362.798 153 361.882 149.29C360.966 145.58 367.049 140.007 365.728 132.917C364.406 125.827 357.346 117.896 350.256 119.158C350.256 119.158 349.084 121.501 347.928 116.469C346.771 111.437 342.986 105.203 336.016 107.622C328.701 110.16 328.701 114.411 326.553 115.132C320.605 117.654 314.794 120.487 309.143 123.619C303.51 126.728 302.594 136.477 301.753 139.887C300.912 143.297 298.223 144.108 294.242 143.432C290.262 142.756 286.101 142.02 285.23 145.925C284.358 149.831 283.908 153.586 281.144 153.361C278.38 153.136 275.286 149.035 273.153 152.49C271.02 155.944 266.844 162.584 262.368 160.541C257.891 158.498 252.709 150.221 245.514 153.556C238.319 156.891 236.952 166.324 239.746 167.811C242.54 169.298 243.922 171.596 243.246 174.015C242.57 176.433 234.068 174.21 231.394 179.347C228.72 184.484 235.044 189.126 235.074 191.92C235.104 194.714 233.572 197.267 228.555 198.679C223.538 200.091 220.008 204.072 223.358 206.686C226.708 209.299 226.257 206.16 227.083 204.282C227.909 202.405 230.523 202.074 233.557 203.606C236.591 205.138 238.424 201.909 238.424 201.909C238.424 201.909 237.988 205.905 241.428 207.001C244.868 208.098 245.424 211.763 241.428 212.844C237.433 213.926 234.669 219.559 237.658 222.878C240.647 226.198 245.379 228.271 253.37 226.093C261.361 223.915 278.59 211.072 289.676 217.621C300.761 224.17 320.604 223.99 330.353 220.625C340.102 217.26 342.625 206.971 350.301 205.259C357.977 203.546 355.934 199.115 354.642 194.744C353.35 190.373 351.563 178.266 359.479 176.583ZM365.052 169.403C366.159 168.251 366.86 166.769 367.049 165.182C367.448 165.412 367.796 165.718 368.073 166.085C368.351 166.452 368.551 166.87 368.664 167.316C368.776 167.762 368.797 168.225 368.726 168.679C368.655 169.134 368.494 169.569 368.251 169.959C366.674 173.249 362.558 172.032 362.558 172.032L365.052 169.403ZM251.778 162.794C250.05 162.494 246.43 168.803 245.484 166.79C244.538 164.777 246.701 156.831 250.576 156.485C254.451 156.14 258.522 163.455 258.522 163.455C258.011 166.414 253.505 163.094 251.778 162.794ZM335.235 115.027C334.576 114.843 333.886 114.801 333.21 114.904C332.534 115.008 331.887 115.255 331.314 115.628C331.35 114.977 331.52 114.341 331.813 113.759C332.107 113.178 332.518 112.663 333.02 112.248C333.523 111.833 334.106 111.527 334.733 111.349C335.359 111.17 336.016 111.124 336.662 111.212C339.861 111.768 340.582 116.469 340.582 116.469C338.842 115.845 337.053 115.362 335.235 115.027Z" fill="#263238"/>
<path d="M165.57 327.23L187.952 316.445C188.633 319.408 188.663 322.483 188.042 325.458C187.08 331.061 185.548 337.204 180.531 337.099C175.514 336.994 165.57 327.23 165.57 327.23Z" fill="#263238" stroke="#263238" stroke-linecap="round" stroke-linejoin="round"/>
<path d="M241.379 366.389C241.379 366.389 249.656 346.381 251.398 343.331C253.14 340.282 265.803 339.426 263.625 349.775C261.447 360.125 254.312 365.577 249.791 366.299C247.008 366.757 244.171 366.787 241.379 366.389Z" fill="#263238" stroke="#263238" stroke-linecap="round" stroke-linejoin="round"/>
<path d="M136.291 242.976C133.508 245.554 131.204 248.606 129.487 251.989C127.414 256.72 124.98 262.503 124.98 262.503C124.98 262.503 149.3 241.113 162.533 240.257C175.767 239.401 179.056 239.491 179.056 239.491C179.056 239.491 162.653 231.845 153.896 234.189C147.893 236.025 142.238 238.847 137.163 242.54L136.291 242.976Z" fill="#263238" stroke="#263238" stroke-linecap="round" stroke-linejoin="round"/>
<path d="M310.327 207.571C310.327 207.571 278.602 215.427 246.923 221.766C215.244 228.104 184.841 220.969 167.206 225.596C149.572 230.222 136.293 242.975 136.293 242.975C136.293 242.975 153.041 232.821 163.331 241.473C173.62 250.125 172.539 255.683 165.314 266.048C158.089 276.412 151.795 291.809 162.655 297.592C173.515 303.375 184.135 323.578 184.045 328.085C183.955 332.591 182.453 332.591 182.453 332.591L165.524 327.228C165.524 327.228 175.107 348.468 196.572 351.427C218.038 354.386 228.733 346.095 242.236 346.921C255.74 347.747 254.989 359.704 254.989 359.704C254.989 359.704 241.891 363.444 241.335 366.433C240.779 369.423 244.715 372.006 260.337 367.83C275.959 363.654 283.725 351.307 291.07 358.968C298.415 366.629 302.771 373.734 310.793 373.899C318.814 374.064 323.996 364.661 334.015 341.333C344.034 318.005 380.22 287.257 381.782 260.715C383.344 234.173 368.519 200.826 368.519 200.826L310.327 207.571Z" fill="#5A3A97" stroke="#263238" stroke-linecap="round" stroke-linejoin="round"/>
<path d="M300.07 218.883C300.07 218.883 276.412 224.396 257.635 236.022C238.859 247.648 202.733 250.893 192.624 255.189C187.467 257.228 182.543 259.811 177.934 262.895" stroke="#263238" stroke-linecap="round" stroke-linejoin="round"/>
<path d="M182.523 332.593C190.178 325.015 196.46 316.167 201.089 306.441C209.886 287.979 224.012 272.576 241.646 262.219C260.918 251.104 270.442 250.803 288.212 239.162" stroke="#263238" stroke-linecap="round" stroke-linejoin="round"/>
<path d="M255.031 359.658C255.031 359.658 268.55 314.866 279.335 299.574" stroke="#263238" stroke-linecap="round" stroke-linejoin="round"/>
<path d="M292.915 463.621C291.19 472.709 287.961 481.446 283.362 489.472C275.551 503.322 273.463 507.287 271.435 508.744C269.407 510.201 265.337 512.635 269.332 513.716C273.328 514.798 284.353 515.023 288.364 513.611C292.375 512.199 291.954 509.18 293.576 503.712C293.899 502.234 294.654 500.884 295.745 499.836C296.836 498.788 298.215 498.087 299.705 497.824L299.359 514.347H302.364L303.655 500.348C303.655 500.348 305.773 494.895 305.353 491.335C304.932 487.775 300.982 484.726 300.982 484.726L305.924 464.297L292.915 463.621Z" fill="#DFADAD" stroke="#263238" stroke-linecap="round" stroke-linejoin="round"/>
<path d="M302.364 514.407L303.655 500.408C303.655 500.408 305.773 494.955 305.353 491.395C305.022 488.661 302.589 486.198 301.507 485.236C298.248 489.292 294.267 499.927 288.544 504.553C286.499 506.118 284.114 507.178 281.582 507.648C279.051 508.118 276.444 507.984 273.974 507.257L273.148 506.897C272.67 507.58 272.093 508.187 271.435 508.699C269.407 510.201 265.337 512.59 269.332 513.671C273.328 514.753 284.353 514.978 288.364 513.566C292.375 512.154 291.954 509.135 293.576 503.667C293.899 502.189 294.654 500.839 295.745 499.791C296.836 498.742 298.215 498.042 299.705 497.779L299.359 514.302L302.364 514.407Z" fill="#263238" stroke="#263238" stroke-linecap="round" stroke-linejoin="round"/>
<path d="M404.912 465.979C406.253 475.132 409.117 483.997 413.384 492.205C420.594 506.37 422.517 510.426 424.485 511.973C426.452 513.52 430.403 516.104 426.377 517.02C422.352 517.936 411.356 517.696 407.376 516.119C403.395 514.542 403.966 511.537 402.569 505.995C402.307 504.506 401.609 503.129 400.563 502.038C399.518 500.947 398.172 500.191 396.696 499.866L396.35 516.389L393.346 516.314L392.64 502.284C392.64 502.284 390.747 496.742 391.318 493.272C391.889 489.802 395.96 486.858 395.96 486.858L391.889 466.234L404.912 465.979Z" fill="#DFADAD" stroke="#263238" stroke-linecap="round" stroke-linejoin="round"/>
<path d="M393.346 516.312L392.64 502.283C392.64 502.283 390.747 496.74 391.318 493.27C391.769 490.566 394.322 488.208 395.434 487.262C398.513 491.468 402.043 502.283 407.556 507.12C409.535 508.768 411.875 509.927 414.386 510.501C416.897 511.075 419.507 511.049 422.006 510.424L422.847 510.109C423.295 510.814 423.847 511.447 424.485 511.986C426.452 513.488 430.403 516.117 426.377 517.033C422.352 517.95 411.356 517.709 407.376 516.132C403.395 514.555 403.966 511.551 402.569 506.008C402.307 504.52 401.609 503.143 400.563 502.052C399.518 500.961 398.172 500.205 396.696 499.879L396.35 516.403L393.346 516.312Z" fill="#263238" stroke="#263238" stroke-linecap="round" stroke-linejoin="round"/>
<path d="M324.683 272.418C324.683 272.418 303.939 320.124 301.055 338.6C298.171 357.076 288.828 467.601 288.828 467.601L308.836 468.532L338.563 341.424L344.061 317.991L390.355 473.715L407.419 472.573C407.419 472.573 389.394 355.003 382.439 326.869C377.606 308.076 371.447 289.649 364.009 271.727L324.683 272.418Z" fill="#263238" stroke="#263238" stroke-linecap="round" stroke-linejoin="round"/>
<path d="M333.578 169.764C333.578 169.764 333.653 191.845 333.578 194.533C333.503 197.222 308.703 204.507 308.703 204.507L324.761 272.418C324.761 272.418 345.79 274.205 364.086 271.636L376.103 199.205L353.571 194.699L354.472 176.959C354.472 176.959 340.247 176.643 333.578 169.764Z" fill="#DFADAD" stroke="#263238" stroke-linecap="round" stroke-linejoin="round"/>
<path d="M361.277 196.248C359.639 202.392 354.292 217.818 341.989 216.256C331.355 214.904 324.865 204.42 322.582 200.003C315.883 202.392 308.598 204.51 308.598 204.51L324.655 272.42C324.655 272.42 345.685 274.207 363.98 271.639L375.997 199.207L361.277 196.248Z" fill="white" stroke="#263238" stroke-linecap="round" stroke-linejoin="round"/>
<path d="M327.087 196.562C327.087 196.562 333.095 229.263 334.597 247.634C336.099 266.005 336.099 278.623 335.769 281.041C335.438 283.459 319.02 347.719 319.02 347.719L290.48 335.267L319.276 271.533C319.276 271.533 302.753 209.541 302.858 207.378C302.963 205.215 327.087 196.562 327.087 196.562Z" fill="#50308D" stroke="#263238" stroke-linecap="round" stroke-linejoin="round"/>
<path d="M321.666 198.86L318.992 223.569L325.001 228.286L320.494 236.262L335.515 275.317C335.515 275.317 335.38 256.195 334.299 243.517C333.217 230.839 326.938 196.531 326.938 196.531L321.666 198.86Z" stroke="#263238" stroke-linecap="round" stroke-linejoin="round"/>
<path d="M357.012 195.029C357.012 195.029 352.866 277.33 352.836 278.126C352.806 278.922 375.368 347.523 375.368 347.523L397.599 340.448L368.142 269.038C368.142 269.038 382.202 202.014 381.962 200.677C381.721 199.34 357.012 195.029 357.012 195.029Z" fill="#50308D" stroke="#263238" stroke-linecap="round" stroke-linejoin="round"/>
<path d="M363.456 196.787L366.43 225.147L358.95 229.322L365.964 235.346L352.836 278.126L357.012 195.029L363.456 196.787Z" fill="#50308D" stroke="#263238" stroke-linecap="round" stroke-linejoin="round"/>
<path d="M357.04 139.796C356.984 139.511 356.909 139.23 356.815 138.955C356.289 137.333 354.727 134.073 350.806 135.951C345.744 138.354 342.875 143.807 339.105 144.483C337.53 144.812 335.934 145.027 334.328 145.129C334.328 145.129 328.545 157.791 325.736 159.985C323.778 161.398 321.54 162.376 319.172 162.854C319.172 162.854 319.983 171.641 322.461 172.948C323.265 173.303 324.144 173.454 325.019 173.385C325.895 173.317 326.74 173.033 327.479 172.557C327.479 172.557 334.568 181.224 339.285 183.568C344.002 185.911 349.244 186.572 352.023 185.07C354.802 183.568 362.778 174.555 362.883 169.508C362.988 164.461 360.75 151.918 360.345 146.976C360.333 145.614 360.033 144.269 359.463 143.032C358.893 141.794 358.067 140.691 357.04 139.796Z" fill="#DFADAD" stroke="#263238" stroke-linecap="round" stroke-linejoin="round"/>
<path d="M340.833 135.635C340.833 135.635 341.569 136.146 340.532 137.888C339.669 139.171 338.632 140.328 337.453 141.328C337.453 141.328 342.47 140.938 344.558 137.212C346.646 133.487 343.897 133.006 340.833 135.635Z" fill="white"/>
<path d="M342.186 153.375C342.411 154.667 341.991 155.823 341.24 155.958C340.488 156.094 339.737 155.147 339.482 153.855C339.227 152.564 339.677 151.407 340.428 151.272C341.179 151.137 341.961 152.158 342.186 153.375Z" fill="#263238"/>
<path d="M355.013 151.646C355.239 152.938 354.803 154.095 354.052 154.23C353.301 154.365 352.55 153.404 352.295 152.112C352.039 150.82 352.49 149.664 353.241 149.528C353.992 149.393 354.773 150.34 355.013 151.646Z" fill="#263238"/>
<path d="M336.539 149.394L343.839 147.787" stroke="#263238" stroke-linecap="round" stroke-linejoin="round"/>
<path d="M350.145 145.669C350.145 145.669 352.488 141.704 355.717 142.77" stroke="#263238" stroke-linecap="round" stroke-linejoin="round"/>
<path d="M349.937 167.466C349.937 167.466 341.63 169.043 339.422 164.236" stroke="#263238" stroke-linecap="round" stroke-linejoin="round"/>
<path d="M351.212 156.139C351.212 156.139 352.549 160.795 348.328 161.246" stroke="#263238" stroke-linecap="round" stroke-linejoin="round"/>
<path d="M386.391 283.143C386.391 283.143 373.804 292.576 373.758 294.994C373.713 297.413 376.057 301.003 376.838 301.784C377.619 302.565 380.007 304.788 380.007 304.788C380.007 304.788 386.496 303.286 386.286 300.612C386.076 297.938 385.31 297.863 385.31 297.863L390.612 288.851L386.391 283.143Z" fill="#DFADAD" stroke="#263238" stroke-linecap="round" stroke-linejoin="round"/>
<path d="M385.265 297.924L382.246 300.823" stroke="#263238" stroke-linecap="round" stroke-linejoin="round"/>
<path d="M375.004 222.61L405.857 253.673L384.512 282.303L391.347 290.249C391.347 290.249 425.475 254.89 425.535 251.931C425.595 248.972 387.516 203.758 385.128 202.091C382.74 200.424 377.377 199.492 377.377 199.492" fill="#50308D"/>
<path d="M375.004 222.61L405.857 253.673L384.512 282.303L391.347 290.249C391.347 290.249 425.475 254.89 425.535 251.931C425.595 248.972 387.516 203.758 385.128 202.091C382.74 200.424 377.377 199.492 377.377 199.492" stroke="#263238" stroke-linecap="round" stroke-linejoin="round"/>
<path d="M303.247 281.715C303.247 281.715 316.676 289.886 316.962 292.23C317.247 294.573 315.264 298.403 314.558 299.289C313.852 300.176 311.704 302.669 311.704 302.669C311.704 302.669 305.11 301.828 305.05 299.124C304.99 296.42 305.801 296.33 305.801 296.33L299.688 287.843L303.247 281.715Z" fill="#DFADAD" stroke="#263238" stroke-linecap="round" stroke-linejoin="round"/>
<path d="M305.789 296.33L309.079 298.914" stroke="#263238" stroke-linecap="round" stroke-linejoin="round"/>
<path d="M313.301 225.342L282.282 253.762L305.024 280.694L299.016 289.271C299.016 289.271 262.875 256.886 262.53 253.942C262.184 250.998 301.584 205.98 304.063 204.372C306.541 202.765 311.919 202.119 311.919 202.119" fill="#50308D"/>
<path d="M313.301 225.342L282.282 253.762L305.024 280.694L299.016 289.271C299.016 289.271 262.875 256.886 262.53 253.942C262.184 250.998 301.584 205.98 304.063 204.372C306.541 202.765 311.919 202.119 311.919 202.119" stroke="#263238" stroke-linecap="round" stroke-linejoin="round"/>
<path d="M329.389 210.563C329.389 210.563 333.775 199.567 333.159 196.082C332.543 192.597 326.625 193.514 323.125 194.836C319.625 196.157 314.668 201.25 314.668 201.25C314.668 201.25 324.041 200.739 325.438 200.078C326.835 199.417 329.073 209.241 329.389 210.563Z" fill="#5A3A97" stroke="#263238" stroke-linecap="round" stroke-linejoin="round"/>
<path d="M353.527 194.685L356.036 212.515C356.036 212.515 358.619 205.005 361.819 201.19C363.272 199.292 365.071 197.686 367.121 196.458C367.121 196.458 359.671 193.349 353.527 194.685Z" fill="#5A3A97" stroke="#263238" stroke-linecap="round" stroke-linejoin="round"/>
</g>
<defs>
<clipPath id="clip0_3406_28299">
<rect width="600" height="600" fill="white"/>
</clipPath>
</defs>
</svg>
